<svg width="215" height="175" viewBox="0 0 215 175" fill="none" xmlns="http://www.w3.org/2000/svg">
<path d="M6.62433 169.276C7.68438 172.666 10.6913 174.943 14.1081 174.943H14.1088C15.6864 174.943 17.2298 174.451 18.575 173.52C50.0064 151.731 86.6932 138.823 124.669 136.19C128.363 135.934 131.284 133.237 131.994 129.736C149.074 132.539 166.166 136.98 183.019 143.021C183.834 143.313 184.692 143.46 185.569 143.46C189.326 143.46 192.689 140.734 193.389 137.12L198.197 112.328C198.794 111.548 199.244 110.662 199.512 109.709C199.902 108.326 199.897 106.903 199.512 105.549L212.327 39.4703C213.989 37.7979 214.86 35.4483 214.644 33.0017C214.747 29.3589 212.388 26.1146 208.755 25.1622C169.26 14.8119 128.508 9.56445 87.6342 9.56445C83.717 9.56445 79.7462 9.61364 75.8311 9.71059C70.8702 9.8332 65.5856 10.0635 59.6752 10.4149C55.9925 10.6331 48.329 11.0872 45.3271 18.4426C43.6647 22.5153 43.6725 26.7434 43.6789 30.4731C43.6789 30.6264 43.6797 30.7797 43.6797 30.9329C43.5136 31.7634 43.5022 32.6189 43.6454 33.4572C43.4244 38.8459 43.0766 44.566 42.5833 50.9419C41.782 61.2879 40.5901 71.8763 39.0346 82.4575C36.8582 83.9239 35.0603 85.6483 33.4235 87.2181C33.0378 87.5881 32.6529 87.9574 32.2644 88.3202C28.9937 91.382 26.1443 94.1672 23.5545 96.8348C17.3553 103.216 12.5255 109.528 8.79007 116.13C7.37786 118.624 7.38426 121.569 8.80645 124.009C10.2657 126.512 12.9668 128.067 15.8547 128.067H15.8554C18.6983 128.067 21.2469 126.565 22.6719 124.047C25.5498 118.961 29.3088 114.021 34.47 108.546C33.8049 111.839 33.1113 115.107 32.3891 118.339C32.3242 118.629 32.2765 118.92 32.2444 119.214C24.8162 123.345 18.1793 128.634 12.4564 134.992C10.3078 137.378 9.78167 140.676 11.082 143.597C12.3958 146.547 15.2722 148.453 18.411 148.453C20.6188 148.453 22.674 147.521 24.1968 145.829C32.0805 137.071 42.2147 130.778 53.5031 127.627C53.893 127.519 54.2723 127.382 54.6373 127.218C66.7426 126.489 76.6694 126.145 85.7308 126.135C58.5745 132.718 32.7783 144.242 9.71821 160.226C6.80611 162.243 5.56286 165.88 6.62433 169.276Z" fill="black"/>
<path d="M1.29679 160.143C2.35684 163.533 5.36377 165.81 8.78058 165.81C10.3582 165.81 11.9023 165.319 13.2475 164.387C44.6789 142.598 81.3657 129.69 119.341 127.057C123.035 126.801 125.956 124.104 126.666 120.603C143.747 123.406 160.839 127.848 177.691 133.888C178.507 134.18 179.365 134.328 180.242 134.328C183.999 134.328 187.36 131.602 188.061 127.987L192.87 103.195C193.467 102.415 193.916 101.53 194.185 100.577C194.575 99.1936 194.568 97.7707 194.184 96.4162L206.999 30.3375C208.662 28.6651 209.532 26.3148 209.316 23.8689C209.42 20.2261 207.061 16.9818 203.428 16.0294C163.932 5.67913 123.181 0.431641 82.3067 0.431641C78.3894 0.431641 74.4187 0.48083 70.5036 0.577782C65.5426 0.700396 60.2581 0.930655 54.3476 1.2821C50.6649 1.50096 43.0015 1.95506 39.9996 9.30981C38.3372 13.3825 38.345 17.6105 38.3514 21.3403C38.3521 21.4936 38.3521 21.6468 38.3521 21.8001C38.186 22.6306 38.1746 23.4861 38.3179 24.3244C38.0969 29.7138 37.7497 35.4332 37.2557 41.8091C36.4545 52.1551 35.2625 62.7428 33.707 73.3247C31.5306 74.7911 29.7327 76.5155 28.096 78.0853C27.7096 78.4553 27.3246 78.8245 26.9368 79.1874C23.6662 82.2492 20.8168 85.0344 18.2269 87.702C12.0277 94.0837 7.19798 100.394 3.46251 106.997C2.0503 109.49 2.05672 112.437 3.47891 114.876C4.93817 117.379 7.63925 118.935 10.5271 118.935C10.5271 118.935 10.5271 118.935 10.5278 118.935C13.3708 118.935 15.9186 117.432 17.3444 114.914C20.2223 109.828 23.9812 104.888 29.1425 99.4131C28.4781 102.707 27.7837 105.974 27.0616 109.207C26.9967 109.496 26.9489 109.788 26.9169 110.081C19.4887 114.212 12.8518 119.501 7.12884 125.859C4.98023 128.245 4.45412 131.543 5.7544 134.464C7.06823 137.414 9.9447 139.32 13.0835 139.32C15.2913 139.32 17.3465 138.388 18.8692 136.697C26.7529 127.938 36.8872 121.645 48.1756 118.495C48.5655 118.386 48.9448 118.249 49.3098 118.085C61.4151 117.357 71.3419 117.012 80.4033 117.002C53.247 123.585 27.4508 135.109 4.39067 151.093C1.47929 153.111 0.236033 156.748 1.29679 160.143Z" fill="#FCFBFA"/>
<path d="M201.886 21.9184C159.102 10.707 114.868 5.57004 70.655 6.66359C65.3362 6.79547 60.0203 7.04355 54.7093 7.35864C51.1998 7.5668 47.1657 7.86621 45.6373 11.6102C44.0276 15.5539 44.5737 20.3729 44.4033 24.5432C44.1609 30.4615 43.7845 36.3741 43.3268 42.2796C41.5482 65.2449 38.023 88.0577 33.0037 110.534C32.7513 111.665 33.5462 113.034 34.8379 112.942C59.224 111.217 83.5459 109.841 107.95 112.07C132.441 114.306 156.607 119.864 179.746 128.156C180.668 128.487 181.899 127.792 182.086 126.827C188.628 93.0942 195.171 59.3609 201.713 25.6268C202.178 23.2301 198.511 22.2079 198.044 24.6152C191.502 58.3486 184.959 92.0826 178.417 125.816C179.197 125.373 179.977 124.93 180.757 124.487C158.142 116.382 134.68 111.078 110.793 108.545C85.4792 105.86 60.155 107.346 34.8386 109.137C35.4502 109.94 36.0619 110.743 36.6728 111.546C41.231 91.1359 44.4995 70.4732 46.4934 49.6565C47.4815 39.3376 48.0945 28.9845 48.4239 18.6242C48.5073 16.0023 48.0382 12.5177 51.3617 11.4748C54.0613 10.6272 57.6863 10.9886 60.5057 10.8482C65.8195 10.583 71.139 10.4347 76.4585 10.3534C118.382 9.71042 160.329 14.9636 200.875 25.5883C203.25 26.2099 204.257 22.5401 201.886 21.9184Z" fill="black"/>
<path d="M200.979 22.8301C172.159 34.4564 144.69 49.1288 119.052 66.6955C119.82 66.7946 120.589 66.8937 121.357 66.9928C100.249 45.5238 76.1844 27.1352 49.922 12.4121C47.7791 11.2109 45.8614 14.498 48.0015 15.6978C73.998 30.2711 97.7724 48.4316 118.667 69.6832C119.234 70.2592 120.278 70.4567 120.972 69.9805C146.326 52.6091 173.486 37.9973 201.991 26.4986C204.236 25.5932 203.256 21.9112 200.979 22.8301Z" fill="black"/>
<path d="M98.2846 47.1053C76.3351 56.6764 56.3104 70.1298 39.1087 86.7847C37.3436 88.4942 40.0368 91.1817 41.799 89.4751C58.7812 73.0333 78.5407 59.8373 100.205 50.3909C102.449 49.4121 100.51 46.1351 98.2846 47.1053Z" fill="black"/>
<path d="M144.266 54.9236C160.118 67.4816 173.794 82.472 184.785 99.4505C186.113 101.502 189.408 99.5967 188.071 97.5301C176.908 80.2863 163.06 64.9901 146.957 52.2324C145.055 50.7261 142.344 53.4001 144.266 54.9236Z" fill="black"/>
<path d="M118.919 117.179C79.1744 119.934 40.6085 133.395 7.85751 156.097C5.85576 157.485 7.75557 160.785 9.778 159.383C41.9722 137.066 79.8302 123.694 118.919 120.985C121.353 120.816 121.37 117.01 118.919 117.179Z" fill="black"/>
<path d="M45.5274 108.962C32.4433 112.613 20.7428 119.835 11.6522 129.934C10.0155 131.752 12.698 134.452 14.3426 132.625C23.0176 122.986 34.0451 116.117 46.5383 112.631C48.8993 111.973 47.8956 108.301 45.5274 108.962Z" fill="black"/>
<path d="M38.8782 77.335C35.8628 78.8406 33.5331 81.352 31.0979 83.6318C28.2036 86.3415 25.3564 89.0989 22.594 91.9433C17.2938 97.4003 12.5125 103.364 8.76062 109.995C7.55087 112.133 10.8379 114.05 12.0463 111.915C15.657 105.534 20.2365 99.926 25.2851 94.6344C27.7174 92.0851 30.2688 89.6492 32.8273 87.2276C35.3017 84.8858 37.7227 82.1576 40.8001 80.6206C42.9944 79.5242 41.0668 76.2421 38.8782 77.335Z" fill="black"/>
<path d="M104.142 54.2246C113.323 60.1914 120.38 68.5819 124.759 78.6107C125.01 79.1853 125.856 79.1959 126.253 78.8032C140.235 64.9555 156.771 54.0179 175.009 46.6189C176.13 46.1641 175.64 44.3227 174.502 44.7847C155.95 52.3119 139.134 63.3679 124.907 77.4587C125.405 77.5228 125.903 77.587 126.401 77.6511C121.893 67.3258 114.544 58.7186 105.102 52.5828C104.071 51.9113 103.118 53.5588 104.142 54.2246Z" fill="black"/>
<path d="M124.285 64.863C123.555 67.9512 122.977 71.0629 122.55 74.2074C122.388 75.4065 124.22 75.924 124.384 74.7135C124.811 71.569 125.388 68.4573 126.119 65.3692C126.401 64.1758 124.567 63.6689 124.285 64.863Z" fill="black"/>
<path d="M129.017 61.1627C128.331 65.8905 127.645 70.6176 126.959 75.3454C126.785 76.5452 128.618 77.0613 128.794 75.8508C129.479 71.123 130.165 66.3959 130.852 61.6681C131.026 60.4691 129.193 59.9529 129.017 61.1627Z" fill="black"/>
<path d="M133.243 59.6306C133.441 63.2834 131.986 66.7423 132.502 70.4079C132.672 71.6184 134.505 71.1015 134.336 69.9018C133.851 66.4529 135.333 63.0916 135.145 59.6306C135.08 58.4102 133.177 58.4038 133.243 59.6306Z" fill="black"/>
<path d="M138.479 56.8718C137.799 59.8296 137.488 62.8151 137.561 65.8505C137.59 67.0753 139.493 67.0781 139.464 65.8505C139.395 62.9826 139.671 60.1753 140.314 57.378C140.588 56.1832 138.754 55.6764 138.479 56.8718Z" fill="black"/>
<path d="M142.717 53.418C143.005 56.5375 142.165 59.5794 142.11 62.6904C142.089 63.9179 143.991 63.9158 144.013 62.6904C144.068 59.5801 144.907 56.5375 144.62 53.418C144.508 52.2075 142.605 52.1961 142.717 53.418Z" fill="black"/>
<path d="M148.374 49.996C148.39 53.1199 147.311 56.2273 146.562 59.2356C146.266 60.4261 148.1 60.9316 148.396 59.7411C149.188 56.5581 150.293 53.3052 150.275 49.996C150.27 48.7699 148.367 48.7692 148.374 49.996Z" fill="black"/>
<path d="M153.828 47.3697C152.877 50.1748 152.148 53.0299 151.638 55.9477C151.429 57.1475 153.261 57.66 153.472 56.4538C153.983 53.536 154.711 50.681 155.662 47.8758C156.057 46.7103 154.22 46.2141 153.828 47.3697Z" fill="black"/>
<path d="M158.582 44.6595C157.935 47.9451 156.021 50.8857 156.226 54.3232C156.298 55.5422 158.201 55.5494 158.128 54.3232C157.936 51.0903 159.807 48.2652 160.417 45.1656C160.653 43.9673 158.82 43.4561 158.582 44.6595Z" fill="black"/>
<path d="M164.731 41.5208C164.333 43.4021 163.808 45.2435 163.156 47.0528C162.739 48.2098 164.579 48.7038 164.991 47.5582C165.642 45.7489 166.166 43.9076 166.565 42.0263C166.819 40.8301 164.986 40.3211 164.731 41.5208Z" fill="black"/>
<path d="M169.511 38.7334C168.912 40.2896 168.457 41.8822 168.144 43.5211C167.915 44.7201 169.748 45.2313 169.978 44.0272C170.291 42.389 170.745 40.7965 171.345 39.2396C171.787 38.0925 169.947 37.6007 169.511 38.7334Z" fill="black"/>
<path d="M177.152 35.9178C177.167 36.8332 177.041 37.6986 176.77 38.5726C176.405 39.7474 178.242 40.2464 178.605 39.0787C178.922 38.055 179.072 36.99 179.055 35.9185C179.034 34.6924 177.132 34.6903 177.152 35.9178Z" fill="black"/>
<path d="M184.32 41.4791C187.263 39.4645 190.376 37.755 193.676 36.3977C194.795 35.9379 194.305 34.0966 193.171 34.5635C189.714 35.9857 186.446 37.7237 183.361 39.8366C182.354 40.5246 183.304 42.1742 184.32 41.4791Z" fill="black"/>
<path d="M170.169 72.2614C174.542 76.0325 178.511 80.205 182.021 84.7931C182.756 85.7533 184.41 84.8073 183.664 83.8328C180.051 79.1115 176.017 74.8 171.514 70.9162C170.59 70.1192 169.239 71.4587 170.169 72.2614Z" fill="black"/>
<path d="M52.0667 16.1499C49.4519 18.1296 46.9568 20.2447 44.5922 22.5187C43.7068 23.3706 45.0534 24.7144 45.9374 23.864C48.183 21.7039 50.5419 19.6737 53.027 17.7924C53.9915 17.0617 53.0455 15.4085 52.0667 16.1499Z" fill="black"/>
<path d="M55.3398 18.8735C52.2937 21.0335 49.4151 23.3981 46.7147 25.978C45.8265 26.8271 47.1738 28.1701 48.0599 27.3232C50.6434 24.8545 53.3844 22.5833 56.3001 20.5167C57.2917 19.8131 56.3429 18.162 55.3398 18.8735Z" fill="black"/>
<path d="M58.8712 20.6571C56.4738 22.3424 54.2596 24.2422 52.2493 26.3751C51.4088 27.2669 52.7511 28.615 53.5945 27.7203C55.4936 25.7057 57.5659 23.8922 59.8314 22.2996C60.8266 21.6003 59.8771 19.9493 58.8712 20.6571Z" fill="black"/>
<path d="M62.7547 22.6179C61.3739 23.8391 60.1777 25.2313 59.1547 26.764C58.4718 27.7877 60.1199 28.7394 60.7971 27.7242C61.7317 26.3242 62.8388 25.0781 64.0992 23.9631C65.0209 23.149 63.67 21.8081 62.7547 22.6179Z" fill="black"/>
<path d="M38.8068 98.7284C47.6942 89.3498 57.415 80.8694 67.9307 73.3593C68.9194 72.6528 67.9713 71.0018 66.9704 71.7168C56.3243 79.3204 46.461 87.887 37.4616 97.3839C36.6183 98.2729 37.9613 99.6209 38.8068 98.7284Z" fill="black"/>
<path d="M37.5549 104.703C43.0077 99.9463 48.4612 95.1892 53.914 90.4322C54.84 89.6245 53.4891 88.2843 52.5688 89.087C47.116 93.844 41.6625 98.6011 36.2097 103.358C35.2837 104.166 36.6346 105.506 37.5549 104.703Z" fill="black"/>
<path d="M35.2002 110.163C40.1133 107.133 44.6315 103.591 48.7448 99.5401C49.6202 98.6782 48.2743 97.3337 47.3996 98.1949C43.4004 102.134 39.0184 105.574 34.2399 108.52C33.1977 109.162 34.1523 110.809 35.2002 110.163Z" fill="black"/>
<path d="M76.7646 68.1467C84.9221 62.4829 93.6291 57.78 102.857 54.1051C103.982 53.6567 103.492 51.8161 102.35 52.2709C92.9669 56.0078 84.1015 60.7434 75.8036 66.5042C74.8042 67.1985 75.7537 68.8481 76.7646 68.1467Z" fill="black"/>
<path d="M181.591 120.65C172.54 116.662 163.159 113.703 153.447 111.823C152.249 111.591 151.738 113.425 152.942 113.657C162.485 115.504 171.734 118.372 180.631 122.292C181.742 122.782 182.711 121.143 181.591 120.65Z" fill="black"/>
<path d="M181.238 115.054C174.675 112.911 168.072 110.91 161.424 109.048C160.241 108.716 159.739 110.552 160.919 110.882C167.566 112.744 174.17 114.746 180.732 116.888C181.902 117.27 182.399 115.432 181.238 115.054Z" fill="black"/>
<path d="M182.901 110.661C178.507 109.649 174.205 108.361 169.977 106.793C168.824 106.365 168.332 108.204 169.472 108.627C173.699 110.196 178.001 111.484 182.395 112.496C183.59 112.771 184.096 110.936 182.901 110.661Z" fill="black"/>
<path d="M183.288 106.452C181.154 106.03 179.077 105.41 177.079 104.546C175.965 104.065 174.995 105.703 176.119 106.189C178.274 107.12 180.478 107.831 182.782 108.287C183.98 108.524 184.491 106.69 183.288 106.452Z" fill="black"/>
<path d="M111.502 17.6092C125.738 17.8473 140.127 18.5459 153.431 24.1092C154.562 24.5825 155.051 22.7404 153.937 22.2749C140.486 16.6496 125.896 15.9482 111.503 15.7072C110.275 15.6858 110.277 17.5885 111.502 17.6092Z" fill="black"/>
</svg>
