<svg width="952" height="122" viewBox="0 0 952 122" fill="none" xmlns="http://www.w3.org/2000/svg">
<mask id="path-1-outside-1_748_4958" maskUnits="userSpaceOnUse" x="4.48145" y="25.498" width="944" height="66" fill="black">
<rect fill="white" x="4.48145" y="25.498" width="944" height="66"/>
<path d="M5.47723 61.2405C5.47723 55.7347 6.74572 50.7957 9.28269 46.4235C11.8736 42.0513 15.3552 38.6506 19.7275 36.2216C24.1537 33.7386 28.9847 32.4971 34.2206 32.4971C40.2122 32.4971 45.529 33.9815 50.1711 36.9503C54.8672 39.8651 58.2679 44.0215 60.373 49.4193H49.2805C47.8231 46.4505 45.7989 44.2374 43.2079 42.78C40.617 41.3226 37.6212 40.5939 34.2206 40.5939C30.4961 40.5939 27.1764 41.4305 24.2616 43.1038C21.3468 44.7772 19.0527 47.1792 17.3794 50.3099C15.7601 53.4407 14.9504 57.0842 14.9504 61.2405C14.9504 65.3968 15.7601 69.0403 17.3794 72.1711C19.0527 75.3018 21.3468 77.7308 24.2616 79.4581C27.1764 81.1314 30.4961 81.9681 34.2206 81.9681C37.6212 81.9681 40.617 81.2394 43.2079 79.782C45.7989 78.3246 47.8231 76.1115 49.2805 73.1427H60.373C58.2679 78.5405 54.8672 82.6968 50.1711 85.6116C45.529 88.5264 40.2122 89.9839 34.2206 89.9839C28.9307 89.9839 24.0997 88.7693 19.7275 86.3403C15.3552 83.8573 11.8736 80.4297 9.28269 76.0575C6.74572 71.6853 5.47723 66.7463 5.47723 61.2405ZM90.5282 90.2268C86.3179 90.2268 82.5125 89.2821 79.1118 87.3929C75.7112 85.4497 73.0393 82.7508 71.0961 79.2962C69.1529 75.7876 68.1813 71.7392 68.1813 67.1511C68.1813 62.6169 69.1799 58.5956 71.1771 55.087C73.1742 51.5784 75.9001 48.8795 79.3547 46.9903C82.8093 45.101 86.6688 44.1564 90.9331 44.1564C95.1973 44.1564 99.0568 45.101 102.511 46.9903C105.966 48.8795 108.692 51.5784 110.689 55.087C112.686 58.5956 113.685 62.6169 113.685 67.1511C113.685 71.6853 112.659 75.7066 110.608 79.2152C108.557 82.7238 105.75 85.4497 102.187 87.3929C98.6789 89.2821 94.7925 90.2268 90.5282 90.2268ZM90.5282 82.211C92.9033 82.211 95.1164 81.6442 97.1675 80.5107C99.2727 79.3771 100.973 77.6768 102.268 75.4098C103.564 73.1427 104.212 70.3898 104.212 67.1511C104.212 63.9124 103.591 61.1865 102.349 58.9734C101.108 56.7063 99.4616 55.006 97.4104 53.8725C95.3593 52.7389 93.1462 52.1722 90.7711 52.1722C88.3961 52.1722 86.183 52.7389 84.1318 53.8725C82.1346 55.006 80.5423 56.7063 79.3547 58.9734C78.1672 61.1865 77.5735 63.9124 77.5735 67.1511C77.5735 71.9552 78.788 75.6796 81.217 78.3246C83.7 80.9155 86.8037 82.211 90.5282 82.211ZM145.318 44.1564C148.827 44.1564 151.958 44.8851 154.711 46.3425C157.517 47.7999 159.704 49.9591 161.269 52.8199C162.834 55.6807 163.617 59.1353 163.617 63.1837V89.498H154.468V64.5601C154.468 60.5658 153.469 57.516 151.472 55.4109C149.475 53.2517 146.749 52.1722 143.294 52.1722C139.84 52.1722 137.087 53.2517 135.036 55.4109C133.038 57.516 132.04 60.5658 132.04 64.5601V89.498H122.809V44.8851H132.04V49.986C133.551 48.1508 135.467 46.7204 137.788 45.6948C140.163 44.6692 142.673 44.1564 145.318 44.1564ZM197.9 44.1564C201.408 44.1564 204.539 44.8851 207.292 46.3425C210.099 47.7999 212.285 49.9591 213.85 52.8199C215.415 55.6807 216.198 59.1353 216.198 63.1837V89.498H207.049V64.5601C207.049 60.5658 206.05 57.516 204.053 55.4109C202.056 53.2517 199.33 52.1722 195.875 52.1722C192.421 52.1722 189.668 53.2517 187.617 55.4109C185.62 57.516 184.621 60.5658 184.621 64.5601V89.498H175.391V44.8851H184.621V49.986C186.132 48.1508 188.049 46.7204 190.37 45.6948C192.745 44.6692 195.255 44.1564 197.9 44.1564ZM268.86 66.0985C268.86 67.7718 268.752 69.2832 268.537 70.6327H234.449C234.719 74.1952 236.042 77.0561 238.417 79.2152C240.792 81.3743 243.707 82.4539 247.161 82.4539C252.127 82.4539 255.636 80.3757 257.687 76.2194H267.646C266.296 80.3218 263.84 83.6954 260.278 86.3403C256.769 88.9313 252.397 90.2268 247.161 90.2268C242.897 90.2268 239.064 89.2821 235.664 87.3929C232.317 85.4497 229.672 82.7508 227.729 79.2962C225.84 75.7876 224.895 71.7392 224.895 67.1511C224.895 62.563 225.813 58.5416 227.648 55.087C229.537 51.5784 232.155 48.8795 235.502 46.9903C238.903 45.101 242.789 44.1564 247.161 44.1564C251.371 44.1564 255.123 45.074 258.416 46.9093C261.708 48.7446 264.272 51.3355 266.107 54.6821C267.943 57.9748 268.86 61.7803 268.86 66.0985ZM259.225 63.1837C259.171 59.7831 257.957 57.0572 255.582 55.006C253.207 52.9548 250.265 51.9293 246.756 51.9293C243.572 51.9293 240.846 52.9548 238.579 55.006C236.312 57.0032 234.962 59.7291 234.53 63.1837H259.225ZM274.867 67.1511C274.867 62.563 275.785 58.5416 277.62 55.087C279.509 51.5784 282.1 48.8795 285.393 46.9903C288.686 45.101 292.464 44.1564 296.728 44.1564C302.126 44.1564 306.579 45.4519 310.088 48.0428C313.65 50.5798 316.052 54.2233 317.294 58.9734H307.335C306.525 56.7603 305.23 55.033 303.449 53.7915C301.667 52.55 299.427 51.9293 296.728 51.9293C292.95 51.9293 289.927 53.2787 287.66 55.9776C285.447 58.6226 284.34 62.347 284.34 67.1511C284.34 71.9552 285.447 75.7066 287.66 78.4055C289.927 81.1044 292.95 82.4539 296.728 82.4539C302.072 82.4539 305.608 80.1059 307.335 75.4098H317.294C315.998 79.9439 313.569 83.5605 310.007 86.2594C306.444 88.9043 302.018 90.2268 296.728 90.2268C292.464 90.2268 288.686 89.2821 285.393 87.3929C282.1 85.4497 279.509 82.7508 277.62 79.2962C275.785 75.7876 274.867 71.7392 274.867 67.1511ZM337.261 52.4151V77.1101C337.261 78.7834 337.639 79.9979 338.395 80.7536C339.204 81.4553 340.554 81.8062 342.443 81.8062H348.111V89.498H340.824C336.667 89.498 333.483 88.5264 331.27 86.5832C329.057 84.64 327.95 81.4823 327.95 77.1101V52.4151H322.687V44.8851H327.95V33.7926H337.261V44.8851H348.111V52.4151H337.261ZM437.566 44.8851L423.721 89.498H414.005L405.017 56.5444L396.03 89.498H386.314L372.388 44.8851H381.78L391.091 80.7536L400.564 44.8851H410.199L419.268 80.5917L428.498 44.8851H437.566ZM449.16 38.9745C447.487 38.9745 446.084 38.4077 444.95 37.2742C443.817 36.1407 443.25 34.7372 443.25 33.0639C443.25 31.3906 443.817 29.9872 444.95 28.8536C446.084 27.7201 447.487 27.1533 449.16 27.1533C450.78 27.1533 452.156 27.7201 453.29 28.8536C454.423 29.9872 454.99 31.3906 454.99 33.0639C454.99 34.7372 454.423 36.1407 453.29 37.2742C452.156 38.4077 450.78 38.9745 449.16 38.9745ZM453.695 44.8851V89.498H444.464V44.8851H453.695ZM476.582 52.4151V77.1101C476.582 78.7834 476.96 79.9979 477.715 80.7536C478.525 81.4553 479.874 81.8062 481.764 81.8062H487.431V89.498H480.144C475.988 89.498 472.803 88.5264 470.59 86.5832C468.377 84.64 467.27 81.4823 467.27 77.1101V52.4151H462.008V44.8851H467.27V33.7926H476.582V44.8851H487.431V52.4151H476.582ZM519.014 44.1564C522.415 44.1564 525.438 44.8851 528.083 46.3425C530.781 47.7999 532.887 49.9591 534.398 52.8199C535.963 55.6807 536.746 59.1353 536.746 63.1837V89.498H527.597V64.5601C527.597 60.5658 526.598 57.516 524.601 55.4109C522.604 53.2517 519.878 52.1722 516.423 52.1722C512.969 52.1722 510.216 53.2517 508.165 55.4109C506.167 57.516 505.169 60.5658 505.169 64.5601V89.498H495.939V29.5823H505.169V50.067C506.734 48.1778 508.704 46.7204 511.079 45.6948C513.508 44.6692 516.153 44.1564 519.014 44.1564ZM614.489 33.2258V89.498H605.259V64.884H578.783V89.498H569.552V33.2258H578.783V57.3541H605.259V33.2258H614.489ZM645.992 90.2268C641.781 90.2268 637.976 89.2821 634.575 87.3929C631.175 85.4497 628.503 82.7508 626.56 79.2962C624.616 75.7876 623.645 71.7392 623.645 67.1511C623.645 62.6169 624.643 58.5956 626.641 55.087C628.638 51.5784 631.364 48.8795 634.818 46.9903C638.273 45.101 642.132 44.1564 646.397 44.1564C650.661 44.1564 654.52 45.101 657.975 46.9903C661.429 48.8795 664.155 51.5784 666.153 55.087C668.15 58.5956 669.148 62.6169 669.148 67.1511C669.148 71.6853 668.123 75.7066 666.072 79.2152C664.02 82.7238 661.214 85.4497 657.651 87.3929C654.142 89.2821 650.256 90.2268 645.992 90.2268ZM645.992 82.211C648.367 82.211 650.58 81.6442 652.631 80.5107C654.736 79.3771 656.436 77.6768 657.732 75.4098C659.027 73.1427 659.675 70.3898 659.675 67.1511C659.675 63.9124 659.054 61.1865 657.813 58.9734C656.571 56.7063 654.925 55.006 652.874 53.8725C650.823 52.7389 648.61 52.1722 646.235 52.1722C643.86 52.1722 641.646 52.7389 639.595 53.8725C637.598 55.006 636.006 56.7063 634.818 58.9734C633.631 61.1865 633.037 63.9124 633.037 67.1511C633.037 71.9552 634.251 75.6796 636.68 78.3246C639.163 80.9155 642.267 82.211 645.992 82.211ZM697.624 90.2268C693.414 90.2268 689.608 89.2821 686.208 87.3929C682.807 85.4497 680.135 82.7508 678.192 79.2962C676.249 75.7876 675.277 71.7392 675.277 67.1511C675.277 62.6169 676.276 58.5956 678.273 55.087C680.27 51.5784 682.996 48.8795 686.451 46.9903C689.905 45.101 693.765 44.1564 698.029 44.1564C702.293 44.1564 706.153 45.101 709.607 46.9903C713.062 48.8795 715.788 51.5784 717.785 55.087C719.782 58.5956 720.781 62.6169 720.781 67.1511C720.781 71.6853 719.755 75.7066 717.704 79.2152C715.653 82.7238 712.846 85.4497 709.283 87.3929C705.775 89.2821 701.888 90.2268 697.624 90.2268ZM697.624 82.211C699.999 82.211 702.212 81.6442 704.263 80.5107C706.369 79.3771 708.069 77.6768 709.364 75.4098C710.66 73.1427 711.308 70.3898 711.308 67.1511C711.308 63.9124 710.687 61.1865 709.445 58.9734C708.204 56.7063 706.557 55.006 704.506 53.8725C702.455 52.7389 700.242 52.1722 697.867 52.1722C695.492 52.1722 693.279 52.7389 691.228 53.8725C689.23 55.006 687.638 56.7063 686.451 58.9734C685.263 61.1865 684.669 63.9124 684.669 67.1511C684.669 71.9552 685.884 75.6796 688.313 78.3246C690.796 80.9155 693.9 82.211 697.624 82.211ZM726.829 66.9892C726.829 62.509 727.746 58.5416 729.581 55.087C731.471 51.6324 734.008 48.9605 737.192 47.0712C740.431 45.128 744.021 44.1564 747.961 44.1564C750.876 44.1564 753.737 44.8042 756.544 46.0996C759.404 47.3411 761.671 49.0144 763.345 51.1196V29.5823H772.656V89.498H763.345V82.7778C761.833 84.9369 759.728 86.7182 757.029 88.1216C754.384 89.525 751.335 90.2268 747.88 90.2268C743.994 90.2268 740.431 89.2551 737.192 87.3119C734.008 85.3147 731.471 82.5619 729.581 79.0533C727.746 75.4907 726.829 71.4693 726.829 66.9892ZM763.345 67.1511C763.345 64.0743 762.697 61.4024 761.402 59.1353C760.16 56.8683 758.514 55.141 756.463 53.9534C754.411 52.7659 752.198 52.1722 749.823 52.1722C747.448 52.1722 745.235 52.7659 743.184 53.9534C741.133 55.087 739.459 56.7873 738.164 59.0544C736.922 61.2675 736.302 63.9124 736.302 66.9892C736.302 70.0659 736.922 72.7648 738.164 75.0859C739.459 77.4069 741.133 79.1882 743.184 80.4297C745.289 81.6172 747.502 82.211 749.823 82.211C752.198 82.211 754.411 81.6172 756.463 80.4297C758.514 79.2422 760.16 77.5149 761.402 75.2478C762.697 72.9268 763.345 70.2279 763.345 67.1511ZM789.476 38.9745C787.802 38.9745 786.399 38.4077 785.265 37.2742C784.132 36.1407 783.565 34.7372 783.565 33.0639C783.565 31.3906 784.132 29.9872 785.265 28.8536C786.399 27.7201 787.802 27.1533 789.476 27.1533C791.095 27.1533 792.471 27.7201 793.605 28.8536C794.739 29.9872 795.305 31.3906 795.305 33.0639C795.305 34.7372 794.739 36.1407 793.605 37.2742C792.471 38.4077 791.095 38.9745 789.476 38.9745ZM794.01 44.8851V89.498H784.78V44.8851H794.01ZM803.052 66.9892C803.052 62.509 803.969 58.5416 805.804 55.087C807.694 51.6324 810.231 48.9605 813.415 47.0712C816.654 45.128 820.217 44.1564 824.103 44.1564C827.612 44.1564 830.661 44.8581 833.252 46.2616C835.897 47.611 838.002 49.3113 839.568 51.3625V44.8851H848.879V89.498H839.568V82.8587C838.002 84.9639 835.87 86.7182 833.171 88.1216C830.472 89.525 827.396 90.2268 823.941 90.2268C820.109 90.2268 816.6 89.2551 813.415 87.3119C810.231 85.3147 807.694 82.5619 805.804 79.0533C803.969 75.4907 803.052 71.4693 803.052 66.9892ZM839.568 67.1511C839.568 64.0743 838.92 61.4024 837.625 59.1353C836.383 56.8683 834.737 55.141 832.686 53.9534C830.634 52.7659 828.421 52.1722 826.046 52.1722C823.671 52.1722 821.458 52.7659 819.407 53.9534C817.356 55.087 815.682 56.7873 814.387 59.0544C813.145 61.2675 812.525 63.9124 812.525 66.9892C812.525 70.0659 813.145 72.7648 814.387 75.0859C815.682 77.4069 817.356 79.1882 819.407 80.4297C821.512 81.6172 823.725 82.211 826.046 82.211C828.421 82.211 830.634 81.6172 832.686 80.4297C834.737 79.2422 836.383 77.5149 837.625 75.2478C838.92 72.9268 839.568 70.2279 839.568 67.1511ZM883.511 44.1564C887.02 44.1564 890.151 44.8851 892.904 46.3425C895.711 47.7999 897.897 49.9591 899.462 52.8199C901.027 55.6807 901.81 59.1353 901.81 63.1837V89.498H892.661V64.5601C892.661 60.5658 891.662 57.516 889.665 55.4109C887.668 53.2517 884.942 52.1722 881.487 52.1722C878.033 52.1722 875.28 53.2517 873.229 55.4109C871.231 57.516 870.233 60.5658 870.233 64.5601V89.498H861.003V44.8851H870.233V49.986C871.744 48.1508 873.66 46.7204 875.982 45.6948C878.357 44.6692 880.867 44.1564 883.511 44.1564ZM929.777 90.2268C926.269 90.2268 923.111 89.606 920.304 88.3645C917.551 87.069 915.365 85.3417 913.746 83.1826C912.126 80.9695 911.263 78.5135 911.155 75.8146H920.709C920.871 77.7038 921.762 79.2962 923.381 80.5917C925.054 81.8332 927.132 82.4539 929.615 82.4539C932.206 82.4539 934.203 81.9681 935.607 80.9965C937.064 79.9709 937.793 78.6754 937.793 77.1101C937.793 75.4367 936.983 74.1952 935.364 73.3856C933.799 72.5759 931.289 71.6853 927.834 70.7137C924.487 69.796 921.762 68.9054 919.656 68.0417C917.551 67.1781 915.716 65.8556 914.151 64.0743C912.639 62.2931 911.884 59.945 911.884 57.0302C911.884 54.6552 912.585 52.496 913.989 50.5528C915.392 48.5556 917.389 46.9903 919.98 45.8567C922.625 44.7232 925.648 44.1564 929.049 44.1564C934.123 44.1564 938.198 45.4519 941.275 48.0428C944.405 50.5798 946.079 54.0614 946.295 58.4876H937.064C936.902 56.4904 936.093 54.8981 934.635 53.7105C933.178 52.523 931.208 51.9293 928.725 51.9293C926.296 51.9293 924.433 52.3881 923.138 53.3057C921.842 54.2233 921.195 55.4378 921.195 56.9492C921.195 58.1367 921.627 59.1353 922.49 59.945C923.354 60.7547 924.406 61.4024 925.648 61.8882C926.889 62.3201 928.725 62.8868 931.154 63.5885C934.392 64.4522 937.037 65.3428 939.089 66.2605C941.194 67.1241 943.002 68.4196 944.513 70.1469C946.025 71.8742 946.807 74.1683 946.861 77.0291C946.861 79.5661 946.16 81.8332 944.756 83.8303C943.353 85.8275 941.356 87.3929 938.765 88.5264C936.228 89.66 933.232 90.2268 929.777 90.2268Z"/>
</mask>
<path d="M9.28269 46.4235L8.4274 45.9167L8.42282 45.9246L9.28269 46.4235ZM19.7275 36.2216L20.2103 37.0907L20.2138 37.0887L19.7275 36.2216ZM50.1711 36.9503L49.6355 37.7879L49.6469 37.795L50.1711 36.9503ZM60.373 49.4193V50.4134H61.8278L61.2992 49.0581L60.373 49.4193ZM49.2805 49.4193L48.3881 49.8574L48.661 50.4134H49.2805V49.4193ZM43.208 42.78L43.6953 41.9135L43.208 42.78ZM24.2616 43.1038L24.7566 43.966L24.2616 43.1038ZM17.3794 50.3099L16.5026 49.8413L16.4964 49.8532L17.3794 50.3099ZM17.3794 72.1711L16.4963 72.6278L16.5026 72.6397L17.3794 72.1711ZM24.2616 79.4581L23.7548 80.3134L23.7667 80.3203L24.2616 79.4581ZM43.208 79.782L43.6953 80.6485L43.208 79.782ZM49.2805 73.1427V72.1485H48.661L48.3881 72.7046L49.2805 73.1427ZM60.373 73.1427L61.2992 73.5039L61.8278 72.1485H60.373V73.1427ZM50.1711 85.6116L49.6469 84.7669L49.6425 84.7697L50.1711 85.6116ZM19.7275 86.3403L19.2365 87.2048L19.2447 87.2094L19.7275 86.3403ZM9.28269 76.0575L8.42278 76.5564L8.42744 76.5643L9.28269 76.0575ZM6.47137 61.2405C6.47137 55.8939 7.70128 51.1297 10.1426 46.9224L8.42282 45.9246C5.79015 50.4617 4.48309 55.5756 4.48309 61.2405H6.47137ZM10.1379 46.9303C12.6406 42.7071 15.9947 39.4326 20.2103 37.0907L19.2447 35.3526C14.7158 37.8686 11.1067 41.3954 8.42744 45.9167L10.1379 46.9303ZM20.2138 37.0887C24.4867 34.6917 29.1494 33.4913 34.2206 33.4913V31.503C28.82 31.503 23.8207 32.7855 19.2411 35.3546L20.2138 37.0887ZM34.2206 33.4913C40.0396 33.4913 45.1673 34.9302 49.6355 37.7878L50.7067 36.1128C45.8908 33.0328 40.3847 31.503 34.2206 31.503V33.4913ZM49.6469 37.795C54.151 40.5907 57.4158 44.5727 59.4468 49.7805L61.2992 49.0581C59.1199 43.4702 55.5835 39.1396 50.6954 36.1057L49.6469 37.795ZM60.373 48.4251H49.2805V50.4134H60.373V48.4251ZM50.1729 48.9812C48.6373 45.8531 46.481 43.4804 43.6953 41.9135L42.7206 43.6464C45.1168 44.9943 47.0089 47.0479 48.3881 49.8574L50.1729 48.9812ZM43.6953 41.9135C40.9353 40.361 37.767 39.5997 34.2206 39.5997V41.588C37.4754 41.588 40.2987 42.2841 42.7206 43.6464L43.6953 41.9135ZM34.2206 39.5997C30.3417 39.5997 26.848 40.4728 23.7667 42.2417L24.7566 43.966C27.5049 42.3883 30.6505 41.588 34.2206 41.588V39.5997ZM23.7667 42.2417C20.681 44.0131 18.2587 46.5559 16.5026 49.8413L18.2562 50.7785C19.8468 47.8025 22.0127 45.5412 24.7566 43.966L23.7667 42.2417ZM16.4964 49.8532C14.792 53.1483 13.9563 56.9536 13.9563 61.2405H15.9445C15.9445 57.2147 16.7281 53.733 18.2624 50.7667L16.4964 49.8532ZM13.9563 61.2405C13.9563 65.5273 14.792 69.3326 16.4964 72.6278L18.2624 71.7143C16.7281 68.748 15.9445 65.2663 15.9445 61.2405H13.9563ZM16.5026 72.6397C18.2574 75.9227 20.676 78.4889 23.7548 80.3134L24.7684 78.6029C22.0176 76.9727 19.8481 74.6809 18.2562 71.7024L16.5026 72.6397ZM23.7667 80.3203C26.848 82.0892 30.3417 82.9622 34.2206 82.9622V80.974C30.6505 80.974 27.5049 80.1737 24.7566 78.5959L23.7667 80.3203ZM34.2206 82.9622C37.767 82.9622 40.9353 82.201 43.6953 80.6485L42.7206 78.9155C40.2987 80.2778 37.4754 80.974 34.2206 80.974V82.9622ZM43.6953 80.6485C46.481 79.0815 48.6373 76.7089 50.1729 73.5808L48.3881 72.7046C47.0089 75.5141 45.1168 77.5676 42.7206 78.9155L43.6953 80.6485ZM49.2805 74.1368H60.373V72.1485H49.2805V74.1368ZM59.4468 72.7815C57.4158 77.9892 54.151 81.9713 49.6469 84.767L50.6954 86.4563C55.5835 83.4223 59.1199 79.0917 61.2992 73.5039L59.4468 72.7815ZM49.6425 84.7697C45.1734 87.5759 40.0432 88.9897 34.2206 88.9897V90.978C40.3811 90.978 45.8846 89.477 50.6998 86.4536L49.6425 84.7697ZM34.2206 88.9897C29.0896 88.9897 24.4262 87.8135 20.2103 85.4713L19.2447 87.2094C23.7731 89.7252 28.7719 90.978 34.2206 90.978V88.9897ZM20.2184 85.4759C15.9984 83.0793 12.6417 79.7757 10.1379 75.5507L8.42744 76.5643C11.1056 81.0837 14.7121 84.6354 19.2365 87.2048L20.2184 85.4759ZM10.1426 75.5586C7.70128 71.3512 6.47137 66.5871 6.47137 61.2405H4.48309C4.48309 66.9054 5.79015 72.0193 8.42282 76.5564L10.1426 75.5586ZM79.1118 87.3929L78.6186 88.2561L78.629 88.2619L79.1118 87.3929ZM71.0961 79.2962L70.2264 79.7778L70.2296 79.7836L71.0961 79.2962ZM79.3547 46.9903L78.8777 46.118V46.118L79.3547 46.9903ZM102.511 46.9903L102.988 46.118V46.118L102.511 46.9903ZM110.608 79.2152L109.75 78.7135L110.608 79.2152ZM102.187 87.3929L102.659 88.2682L102.664 88.2657L102.187 87.3929ZM97.1675 80.5107L96.6962 79.6353L96.6867 79.6406L97.1675 80.5107ZM102.268 75.4098L101.405 74.9165L102.268 75.4098ZM102.349 58.9734L101.477 59.4509L101.482 59.4598L102.349 58.9734ZM84.1318 53.8725L83.6509 53.0023L83.6411 53.0079L84.1318 53.8725ZM79.3547 58.9734L80.2308 59.4435L80.2354 59.4347L79.3547 58.9734ZM81.217 78.3246L80.4848 78.997L80.4919 79.0048L80.4992 79.0124L81.217 78.3246ZM90.5282 89.2326C86.4726 89.2326 82.8356 88.3244 79.5946 86.5239L78.629 88.2619C82.1894 90.2399 86.1633 91.2209 90.5282 91.2209V89.2326ZM79.6051 86.5297C76.3625 84.6768 73.8187 82.1087 71.9626 78.8088L70.2296 79.7836C72.2599 83.3929 75.0599 86.2225 78.6186 88.2561L79.6051 86.5297ZM71.9658 78.8145C70.1153 75.4734 69.1754 71.5953 69.1754 67.1511H67.1871C67.1871 71.8832 68.1904 76.1018 70.2264 79.7778L71.9658 78.8145ZM69.1754 67.1511C69.1754 62.7677 70.1393 58.9197 72.041 55.5788L70.3131 54.5952C68.2205 58.2714 67.1871 62.4661 67.1871 67.1511H69.1754ZM72.041 55.5788C73.9494 52.2262 76.5432 49.6609 79.8317 47.8625L78.8777 46.118C75.2571 48.0981 72.3991 50.9306 70.3131 54.5952L72.041 55.5788ZM79.8317 47.8625C83.1281 46.0598 86.8213 45.1506 90.9331 45.1506V43.1623C86.5163 43.1623 82.4906 44.1423 78.8777 46.118L79.8317 47.8625ZM90.9331 45.1506C95.0448 45.1506 98.738 46.0598 102.034 47.8625L102.988 46.118C99.3755 44.1423 95.3498 43.1623 90.9331 43.1623V45.1506ZM102.034 47.8625C105.323 49.6609 107.917 52.2262 109.825 55.5788L111.553 54.5952C109.467 50.9306 106.609 48.0981 102.988 46.118L102.034 47.8625ZM109.825 55.5788C111.727 58.9197 112.691 62.7677 112.691 67.1511H114.679C114.679 62.4661 113.646 58.2714 111.553 54.5952L109.825 55.5788ZM112.691 67.1511C112.691 71.5298 111.702 75.3742 109.75 78.7135L111.466 79.7169C113.616 76.0391 114.679 71.8407 114.679 67.1511H112.691ZM109.75 78.7135C107.79 82.0662 105.115 84.6637 101.711 86.5201L102.664 88.2657C106.385 86.2357 109.324 83.3814 111.466 79.7169L109.75 78.7135ZM101.716 86.5176C98.3625 88.3234 94.6398 89.2326 90.5282 89.2326V91.2209C94.9451 91.2209 98.9953 90.2409 102.659 88.2682L101.716 86.5176ZM90.5282 83.2051C93.0691 83.2051 95.4479 82.5968 97.6484 81.3808L96.6867 79.6406C94.7848 80.6916 92.7374 81.2169 90.5282 81.2169V83.2051ZM97.6388 81.386C99.9227 80.1562 101.753 78.3162 103.132 75.903L101.405 74.9165C100.193 77.0375 98.6226 78.5981 96.6962 79.6354L97.6388 81.386ZM103.132 75.903C104.531 73.4536 105.206 70.5216 105.206 67.1511H103.218C103.218 70.2579 102.597 72.8317 101.405 74.9165L103.132 75.903ZM105.206 67.1511C105.206 63.7881 104.561 60.8843 103.216 58.487L101.482 59.4598C102.621 61.4888 103.218 64.0367 103.218 67.1511H105.206ZM103.221 58.4959C101.899 56.0811 100.124 54.2363 97.8913 53.0024L96.9296 54.7426C98.7991 55.7757 100.317 57.3315 101.477 59.4509L103.221 58.4959ZM97.8913 53.0024C95.6908 51.7863 93.312 51.178 90.7711 51.178V53.1663C92.9803 53.1663 95.0277 53.6915 96.9296 54.7426L97.8913 53.0024ZM90.7711 51.178C88.2302 51.178 85.8514 51.7863 83.651 53.0024L84.6127 54.7426C86.5146 53.6915 88.5619 53.1663 90.7711 53.1663V51.178ZM83.6411 53.0079C81.4593 54.2462 79.7397 56.096 78.4741 58.5121L80.2354 59.4347C81.3448 57.3167 82.8099 55.7658 84.6225 54.7371L83.6411 53.0079ZM78.4787 58.5034C77.1944 60.8968 76.5793 63.7945 76.5793 67.1511H78.5676C78.5676 64.0303 79.14 61.4762 80.2307 59.4435L78.4787 58.5034ZM76.5793 67.1511C76.5793 72.1185 77.8371 76.114 80.4848 78.997L81.9492 77.6521C79.7388 75.2453 78.5676 71.7918 78.5676 67.1511H76.5793ZM80.4992 79.0124C83.1776 81.8072 86.5443 83.2051 90.5282 83.2051V81.2169C87.0632 81.2169 84.2224 80.0238 81.9347 77.6367L80.4992 79.0124ZM154.711 46.3425L154.245 47.2212L154.252 47.2248L154.711 46.3425ZM161.269 52.8199L160.397 53.2971L161.269 52.8199ZM163.617 89.498V90.4922H164.611V89.498H163.617ZM154.468 89.498H153.473V90.4922H154.468V89.498ZM151.472 55.4109L150.742 56.086L150.751 56.0951L151.472 55.4109ZM135.036 55.4109L134.315 54.7261L134.314 54.7266L135.036 55.4109ZM132.04 89.498V90.4922H133.034V89.498H132.04ZM122.809 89.498H121.815V90.4922H122.809V89.498ZM122.809 44.8851V43.891H121.815V44.8851H122.809ZM132.04 44.8851H133.034V43.891H132.04V44.8851ZM132.04 49.986H131.046V52.7571L132.807 50.618L132.04 49.986ZM137.788 45.6948L137.394 44.7821L137.387 44.7855L137.788 45.6948ZM145.318 45.1506C148.686 45.1506 151.653 45.8487 154.245 47.2211L155.176 45.4639C152.262 43.9215 148.968 43.1623 145.318 43.1623V45.1506ZM154.252 47.2248C156.878 48.5883 158.923 50.6037 160.397 53.2971L162.141 52.3427C160.484 49.3144 158.156 47.0115 155.169 45.4602L154.252 47.2248ZM160.397 53.2971C161.865 55.9804 162.623 59.2624 162.623 63.1837H164.611C164.611 59.0083 163.804 55.3811 162.141 52.3427L160.397 53.2971ZM162.623 63.1837V89.498H164.611V63.1837H162.623ZM163.617 88.5039H154.468V90.4922H163.617V88.5039ZM155.462 89.498V64.5602H153.473V89.498H155.462ZM155.462 64.5602C155.462 60.4083 154.423 57.0766 152.193 54.7266L150.751 56.0951C152.516 57.9554 153.473 60.7232 153.473 64.5602H155.462ZM152.202 54.7358C149.983 52.3375 146.973 51.178 143.294 51.178V53.1663C146.524 53.1663 148.966 54.166 150.742 56.0859L152.202 54.7358ZM143.294 51.178C139.615 51.178 136.584 52.3374 134.315 54.7261L135.756 56.0956C137.589 54.166 140.065 53.1663 143.294 53.1663V51.178ZM134.314 54.7266C132.085 57.0766 131.046 60.4083 131.046 64.5602H133.034C133.034 60.7232 133.992 57.9554 135.757 56.0951L134.314 54.7266ZM131.046 64.5602V89.498H133.034V64.5602H131.046ZM132.04 88.5039H122.809V90.4922H132.04V88.5039ZM123.804 89.498V44.8851H121.815V89.498H123.804ZM122.809 45.8793H132.04V43.891H122.809V45.8793ZM131.046 44.8851V49.986H133.034V44.8851H131.046ZM132.807 50.618C134.213 48.9105 136.001 47.5714 138.19 46.6041L137.387 44.7855C134.933 45.8694 132.889 47.3911 131.272 49.3541L132.807 50.618ZM138.183 46.6075C140.43 45.6368 142.806 45.1506 145.318 45.1506V43.1623C142.541 43.1623 139.897 43.7016 137.394 44.7821L138.183 46.6075ZM207.292 46.3425L206.827 47.2212L206.834 47.2248L207.292 46.3425ZM213.85 52.8199L212.978 53.2971L213.85 52.8199ZM216.198 89.498V90.4922H217.192V89.498H216.198ZM207.049 89.498H206.055V90.4922H207.049V89.498ZM204.053 55.4109L203.323 56.086L203.332 56.0951L204.053 55.4109ZM187.617 55.4109L186.896 54.7261L186.896 54.7266L187.617 55.4109ZM184.621 89.498V90.4922H185.615V89.498H184.621ZM175.391 89.498H174.397V90.4922H175.391V89.498ZM175.391 44.8851V43.891H174.397V44.8851H175.391ZM184.621 44.8851H185.615V43.891H184.621V44.8851ZM184.621 49.986H183.627V52.7571L185.388 50.618L184.621 49.986ZM190.37 45.6948L189.976 44.7821L189.968 44.7855L190.37 45.6948ZM197.9 45.1506C201.267 45.1506 204.234 45.8487 206.827 47.2211L207.757 45.4639C204.843 43.9215 201.55 43.1623 197.9 43.1623V45.1506ZM206.834 47.2248C209.46 48.5883 211.504 50.6037 212.978 53.2971L214.722 52.3427C213.065 49.3144 210.738 47.0115 207.75 45.4602L206.834 47.2248ZM212.978 53.2971C214.446 55.9804 215.204 59.2624 215.204 63.1837H217.192C217.192 59.0083 216.385 55.3811 214.722 52.3427L212.978 53.2971ZM215.204 63.1837V89.498H217.192V63.1837H215.204ZM216.198 88.5039H207.049V90.4922H216.198V88.5039ZM208.043 89.498V64.5602H206.055V89.498H208.043ZM208.043 64.5602C208.043 60.4083 207.004 57.0766 204.774 54.7266L203.332 56.0951C205.097 57.9554 206.055 60.7232 206.055 64.5602H208.043ZM204.783 54.7358C202.564 52.3375 199.554 51.178 195.875 51.178V53.1663C199.106 53.1663 201.547 54.166 203.323 56.0859L204.783 54.7358ZM195.875 51.178C192.196 51.178 189.165 52.3374 186.896 54.7261L188.337 56.0956C190.171 54.166 192.646 53.1663 195.875 53.1663V51.178ZM186.896 54.7266C184.666 57.0766 183.627 60.4083 183.627 64.5602H185.615C185.615 60.7232 186.573 57.9554 188.338 56.0951L186.896 54.7266ZM183.627 64.5602V89.498H185.615V64.5602H183.627ZM184.621 88.5039H175.391V90.4922H184.621V88.5039ZM176.385 89.498V44.8851H174.397V89.498H176.385ZM175.391 45.8793H184.621V43.891H175.391V45.8793ZM183.627 44.8851V49.986H185.615V44.8851H183.627ZM185.388 50.618C186.795 48.9105 188.582 47.5714 190.771 46.6041L189.968 44.7855C187.515 45.8694 185.47 47.3911 183.854 49.3541L185.388 50.618ZM190.764 46.6075C193.012 45.6368 195.387 45.1506 197.9 45.1506V43.1623C195.122 43.1623 192.478 43.7016 189.976 44.7821L190.764 46.6075ZM268.536 70.6327V71.6268H269.384L269.518 70.7898L268.536 70.6327ZM234.449 70.6327V69.6385H233.377L233.458 70.7078L234.449 70.6327ZM238.417 79.2152L237.748 79.9508L238.417 79.2152ZM257.687 76.2194V75.2253H257.069L256.795 75.7795L257.687 76.2194ZM267.646 76.2194L268.59 76.5301L269.019 75.2253H267.646V76.2194ZM260.278 86.3403L260.868 87.14L260.87 87.1385L260.278 86.3403ZM235.664 87.3929L235.165 88.2526L235.173 88.2574L235.181 88.2619L235.664 87.3929ZM227.729 79.2962L226.854 79.7675L226.858 79.7756L226.863 79.7836L227.729 79.2962ZM227.648 55.087L226.773 54.6157L226.77 54.6206L227.648 55.087ZM235.502 46.9903L235.019 46.1212L235.013 46.1245L235.502 46.9903ZM258.416 46.9093L258.9 46.0409V46.0409L258.416 46.9093ZM266.107 54.6821L265.236 55.1602L265.239 55.1662L266.107 54.6821ZM259.225 63.1837V64.1778H260.235L260.219 63.1679L259.225 63.1837ZM255.582 55.006L256.232 54.2536L255.582 55.006ZM238.579 55.006L239.236 55.752L239.246 55.7432L238.579 55.006ZM234.53 63.1837L233.544 63.0604L233.404 64.1778H234.53V63.1837ZM267.866 66.0985C267.866 67.7304 267.761 69.1881 267.555 70.4756L269.518 70.7898C269.744 69.3784 269.855 67.8132 269.855 66.0985H267.866ZM268.536 69.6385H234.449V71.6268H268.536V69.6385ZM233.458 70.7078C233.745 74.4925 235.163 77.6009 237.748 79.9508L239.085 78.4796C236.92 76.5112 235.694 73.8979 235.441 70.5576L233.458 70.7078ZM237.748 79.9508C240.321 82.2896 243.48 83.448 247.161 83.448V81.4598C243.933 81.4598 241.263 80.459 239.085 78.4796L237.748 79.9508ZM247.161 83.448C249.784 83.448 252.086 82.8985 254.024 81.7506C255.966 80.6004 257.48 78.8861 258.578 76.6594L256.795 75.7795C255.843 77.7091 254.577 79.112 253.01 80.0399C251.44 80.9702 249.505 81.4598 247.161 81.4598V83.448ZM257.687 77.2136H267.646V75.2253H257.687V77.2136ZM266.702 75.9088C265.418 79.8106 263.088 83.0159 259.685 85.5421L260.87 87.1385C264.593 84.3749 267.175 80.833 268.59 76.5301L266.702 75.9088ZM259.687 85.5406C256.382 87.9816 252.228 89.2326 247.161 89.2326V91.2209C252.566 91.2209 257.157 89.881 260.868 87.14L259.687 85.5406ZM247.161 89.2326C243.049 89.2326 239.386 88.3233 236.147 86.5239L235.181 88.2619C238.743 90.2409 242.745 91.2209 247.161 91.2209V89.2326ZM236.163 86.5332C232.974 84.6813 230.454 82.1127 228.596 78.8088L226.863 79.7836C228.891 83.3889 231.661 86.2181 235.165 88.2526L236.163 86.5332ZM228.604 78.8249C226.804 75.4817 225.889 71.5998 225.889 67.1511H223.901C223.901 71.8787 224.875 76.0935 226.854 79.7675L228.604 78.8249ZM225.889 67.1511C225.889 62.6974 226.779 58.8414 228.526 55.5534L226.77 54.6206C224.846 58.2418 223.901 62.4285 223.901 67.1511H225.889ZM228.523 55.5583C230.327 52.2086 232.814 49.6494 235.991 47.856L235.013 46.1245C231.497 48.1096 228.748 50.9482 226.773 54.6157L228.523 55.5583ZM235.985 47.8593C239.22 46.0619 242.937 45.1506 247.161 45.1506V43.1623C242.641 43.1623 238.585 44.1402 235.019 46.1212L235.985 47.8593ZM247.161 45.1506C251.222 45.1506 254.804 46.0342 257.932 47.7777L258.9 46.0409C255.442 44.1139 251.521 43.1623 247.161 43.1623V45.1506ZM257.932 47.7777C261.059 49.5207 263.489 51.9753 265.236 55.1602L266.979 54.2041C265.055 50.6957 262.358 47.9684 258.9 46.0409L257.932 47.7777ZM265.239 55.1662C266.981 58.2905 267.866 61.9247 267.866 66.0985H269.855C269.855 61.6358 268.905 57.6592 266.976 54.1981L265.239 55.1662ZM260.219 63.1679C260.161 59.5106 258.84 56.5068 256.232 54.2536L254.932 55.7584C257.073 57.6076 258.181 60.0556 258.231 63.1995L260.219 63.1679ZM256.232 54.2536C253.654 52.0279 250.473 50.9351 246.756 50.9351V52.9234C250.056 52.9234 252.759 53.8818 254.932 55.7584L256.232 54.2536ZM246.756 50.9351C243.336 50.9351 240.37 52.0449 237.912 54.2688L239.246 55.7432C241.322 53.8648 243.807 52.9234 246.756 52.9234V50.9351ZM237.921 54.2601C235.445 56.4419 234.001 59.404 233.544 63.0604L235.517 63.307C235.923 60.0542 237.178 57.5645 239.236 55.752L237.921 54.2601ZM234.53 64.1778H259.225V62.1896H234.53V64.1778ZM277.62 55.087L276.745 54.6157L276.742 54.6206L277.62 55.087ZM285.393 46.9903L284.898 46.128L285.393 46.9903ZM310.088 48.0428L309.497 48.8426L309.504 48.8477L309.511 48.8526L310.088 48.0428ZM317.294 58.9734V59.9676H318.581L318.256 58.722L317.294 58.9734ZM307.335 58.9734L306.401 59.315L306.64 59.9676H307.335V58.9734ZM287.66 55.9776L286.899 55.3382L286.897 55.3397L287.66 55.9776ZM287.66 78.4055L286.891 79.0359L286.899 79.045L287.66 78.4055ZM307.335 75.4098V74.4156H306.641L306.402 75.0666L307.335 75.4098ZM317.294 75.4098L318.25 75.6829L318.612 74.4156H317.294V75.4098ZM310.007 86.2594L310.6 87.0576L310.607 87.0518L310.007 86.2594ZM285.393 87.3929L284.888 88.2491L284.898 88.2552L285.393 87.3929ZM277.62 79.2962L276.739 79.757L276.743 79.7651L276.748 79.7732L277.62 79.2962ZM275.861 67.1511C275.861 62.6974 276.751 58.8414 278.498 55.5534L276.742 54.6206C274.818 58.2418 273.873 62.4285 273.873 67.1511H275.861ZM278.495 55.5583C280.301 52.2045 282.764 49.6448 285.888 47.8525L284.898 46.128C281.436 48.1142 278.717 50.9523 276.745 54.6157L278.495 55.5583ZM285.888 47.8525C289.012 46.06 292.616 45.1506 296.728 45.1506V43.1623C292.312 43.1623 288.359 44.1421 284.898 46.128L285.888 47.8525ZM296.728 45.1506C301.965 45.1506 306.197 46.4053 309.497 48.8426L310.678 47.2431C306.962 44.4985 302.287 43.1623 296.728 43.1623V45.1506ZM309.511 48.8526C312.86 51.2377 315.142 54.6708 316.332 59.2248L318.256 58.722C316.963 53.7758 314.44 49.9219 310.665 47.233L309.511 48.8526ZM317.294 57.9793H307.335V59.9676H317.294V57.9793ZM308.269 58.6318C307.395 56.2442 305.98 54.3442 304.017 52.9759L302.88 54.6071C304.479 55.7218 305.656 57.2764 306.401 59.315L308.269 58.6318ZM304.017 52.9759C302.032 51.5926 299.581 50.9351 296.728 50.9351V52.9234C299.274 52.9234 301.302 53.5074 302.88 54.6071L304.017 52.9759ZM296.728 50.9351C292.68 50.9351 289.37 52.3966 286.899 55.3382L288.421 56.617C290.484 54.1608 293.219 52.9234 296.728 52.9234V50.9351ZM286.897 55.3397C284.485 58.2226 283.346 62.2046 283.346 67.1511H285.334C285.334 62.4894 286.408 59.0225 288.422 56.6156L286.897 55.3397ZM283.346 67.1511C283.346 72.0991 284.486 76.1026 286.891 79.0359L288.429 77.7752C286.408 75.3107 285.334 71.8112 285.334 67.1511H283.346ZM286.899 79.045C289.37 81.9865 292.68 83.448 296.728 83.448V81.4598C293.219 81.4598 290.484 80.2223 288.421 77.7661L286.899 79.045ZM296.728 83.448C299.545 83.448 301.969 82.8283 303.938 81.521C305.911 80.2103 307.345 78.2626 308.268 75.7529L306.402 75.0666C305.598 77.253 304.4 78.8274 302.838 79.8647C301.271 80.9055 299.255 81.4598 296.728 81.4598V83.448ZM307.335 76.4039H317.294V74.4156H307.335V76.4039ZM316.338 75.1366C315.098 79.4759 312.788 82.9055 309.407 85.4669L310.607 87.0518C314.351 84.2154 316.899 80.4119 318.25 75.6829L316.338 75.1366ZM309.414 85.4612C306.054 87.9558 301.847 89.2326 296.728 89.2326V91.2209C302.189 91.2209 306.835 89.8528 310.599 87.0576L309.414 85.4612ZM296.728 89.2326C292.616 89.2326 289.012 88.3232 285.888 86.5306L284.898 88.2552C288.359 90.2411 292.312 91.2209 296.728 91.2209V89.2326ZM285.898 86.5367C282.764 84.6874 280.298 82.1216 278.492 78.8192L276.748 79.7732C278.72 83.38 281.436 86.212 284.888 88.2491L285.898 86.5367ZM278.501 78.8354C276.751 75.4901 275.861 71.6043 275.861 67.1511H273.873C273.873 71.8742 274.818 76.0851 276.739 79.757L278.501 78.8354ZM337.261 52.4151V51.4209H336.267V52.4151H337.261ZM338.395 80.7536L337.692 81.4566L337.717 81.4816L337.744 81.5049L338.395 80.7536ZM348.111 81.8062H349.105V80.812H348.111V81.8062ZM348.111 89.498V90.4922H349.105V89.498H348.111ZM331.27 86.5832L330.614 87.3303L331.27 86.5832ZM327.95 52.4151H328.944V51.4209H327.95V52.4151ZM322.687 52.4151H321.693V53.4092H322.687V52.4151ZM322.687 44.8851V43.891H321.693V44.8851H322.687ZM327.95 44.8851V45.8793H328.944V44.8851H327.95ZM327.95 33.7926V32.7985H326.956V33.7926H327.95ZM337.261 33.7926H338.255V32.7985H337.261V33.7926ZM337.261 44.8851H336.267V45.8793H337.261V44.8851ZM348.111 44.8851H349.105V43.891H348.111V44.8851ZM348.111 52.4151V53.4092H349.105V52.4151H348.111ZM336.267 52.4151V77.1101H338.255V52.4151H336.267ZM336.267 77.1101C336.267 78.9022 336.668 80.4323 337.692 81.4566L339.098 80.0506C338.611 79.5635 338.255 78.6646 338.255 77.1101H336.267ZM337.744 81.5049C338.829 82.4451 340.48 82.8003 342.443 82.8003V80.812C340.628 80.812 339.58 80.4655 339.046 80.0023L337.744 81.5049ZM342.443 82.8003H348.111V80.812H342.443V82.8003ZM347.117 81.8062V89.498H349.105V81.8062H347.117ZM348.111 88.5039H340.824V90.4922H348.111V88.5039ZM340.824 88.5039C336.81 88.5039 333.895 87.5653 331.926 85.8362L330.614 87.3303C333.071 89.4876 336.525 90.4922 340.824 90.4922V88.5039ZM331.926 85.8362C330.014 84.158 328.944 81.3366 328.944 77.1101H326.956C326.956 81.6279 328.099 85.1221 330.614 87.3303L331.926 85.8362ZM328.944 77.1101V52.4151H326.956V77.1101H328.944ZM327.95 51.4209H322.687V53.4092H327.95V51.4209ZM323.681 52.4151V44.8851H321.693V52.4151H323.681ZM322.687 45.8793H327.95V43.891H322.687V45.8793ZM328.944 44.8851V33.7926H326.956V44.8851H328.944ZM327.95 34.7868H337.261V32.7985H327.95V34.7868ZM336.267 33.7926V44.8851H338.255V33.7926H336.267ZM337.261 45.8793H348.111V43.891H337.261V45.8793ZM347.117 44.8851V52.4151H349.105V44.8851H347.117ZM348.111 51.4209H337.261V53.4092H348.111V51.4209ZM437.566 44.8851L438.516 45.1798L438.916 43.891H437.566V44.8851ZM423.721 89.498V90.4922H424.453L424.67 89.7927L423.721 89.498ZM414.005 89.498L413.046 89.7596L413.246 90.4922H414.005V89.498ZM405.017 56.5444L405.977 56.2828L405.017 52.7661L404.058 56.2828L405.017 56.5444ZM396.03 89.498V90.4922H396.789L396.989 89.7596L396.03 89.498ZM386.314 89.498L385.365 89.7943L385.583 90.4922H386.314V89.498ZM372.388 44.8851V43.891H371.036L371.439 45.1814L372.388 44.8851ZM381.78 44.8851L382.742 44.6353L382.549 43.891H381.78V44.8851ZM391.091 80.7536L390.129 81.0034L391.083 84.6782L392.052 81.0074L391.091 80.7536ZM400.564 44.8851V43.891H399.799L399.603 44.6313L400.564 44.8851ZM410.199 44.8851L411.163 44.6404L410.973 43.891H410.199V44.8851ZM419.268 80.5917L418.304 80.8364L420.23 80.8405L419.268 80.5917ZM428.498 44.8851V43.891H427.728L427.535 44.6363L428.498 44.8851ZM436.617 44.5905L422.771 89.2034L424.67 89.7927L438.516 45.1798L436.617 44.5905ZM423.721 88.5039H414.005V90.4922H423.721V88.5039ZM414.964 89.2365L405.977 56.2828L404.058 56.806L413.046 89.7596L414.964 89.2365ZM404.058 56.2828L395.071 89.2365L396.989 89.7596L405.977 56.806L404.058 56.2828ZM396.03 88.5039H386.314V90.4922H396.03V88.5039ZM387.263 89.2018L373.337 44.5889L371.439 45.1814L385.365 89.7943L387.263 89.2018ZM372.388 45.8793H381.78V43.891H372.388V45.8793ZM380.818 45.1349L390.129 81.0034L392.053 80.5038L382.742 44.6353L380.818 45.1349ZM392.052 81.0074L401.525 45.139L399.603 44.6313L390.13 80.4997L392.052 81.0074ZM400.564 45.8793H410.199V43.891H400.564V45.8793ZM409.236 45.1298L418.304 80.8364L420.231 80.3469L411.163 44.6404L409.236 45.1298ZM420.23 80.8405L429.46 45.1339L427.535 44.6363L418.305 80.3428L420.23 80.8405ZM428.498 45.8793H437.566V43.891H428.498V45.8793ZM444.95 37.2742L445.653 36.5712L444.95 37.2742ZM444.95 28.8536L445.653 29.5566L444.95 28.8536ZM453.29 28.8536L452.587 29.5566L453.29 28.8536ZM453.29 37.2742L452.587 36.5712L453.29 37.2742ZM453.695 44.8851H454.689V43.891H453.695V44.8851ZM453.695 89.498V90.4922H454.689V89.498H453.695ZM444.464 89.498H443.47V90.4922H444.464V89.498ZM444.464 44.8851V43.891H443.47V44.8851H444.464ZM449.16 37.9804C447.738 37.9804 446.591 37.5094 445.653 36.5712L444.247 37.9772C445.576 39.3061 447.236 39.9687 449.16 39.9687V37.9804ZM445.653 36.5712C444.715 35.633 444.244 34.4864 444.244 33.0639H442.256C442.256 34.988 442.918 36.6483 444.247 37.9772L445.653 36.5712ZM444.244 33.0639C444.244 31.6414 444.715 30.4948 445.653 29.5566L444.247 28.1506C442.918 29.4795 442.256 31.1398 442.256 33.0639H444.244ZM445.653 29.5566C446.591 28.6184 447.738 28.1474 449.16 28.1474V26.1592C447.236 26.1592 445.576 26.8218 444.247 28.1506L445.653 29.5566ZM449.16 28.1474C450.519 28.1474 451.642 28.6116 452.587 29.5566L453.993 28.1506C452.671 26.8286 451.04 26.1592 449.16 26.1592V28.1474ZM452.587 29.5566C453.525 30.4948 453.996 31.6414 453.996 33.0639H455.984C455.984 31.1398 455.322 29.4795 453.993 28.1506L452.587 29.5566ZM453.996 33.0639C453.996 34.4864 453.525 35.633 452.587 36.5712L453.993 37.9772C455.322 36.6483 455.984 34.988 455.984 33.0639H453.996ZM452.587 36.5712C451.642 37.5162 450.519 37.9804 449.16 37.9804V39.9687C451.04 39.9687 452.671 39.2993 453.993 37.9772L452.587 36.5712ZM452.7 44.8851V89.498H454.689V44.8851H452.7ZM453.695 88.5039H444.464V90.4922H453.695V88.5039ZM445.458 89.498V44.8851H443.47V89.498H445.458ZM444.464 45.8793H453.695V43.891H444.464V45.8793ZM476.582 52.4151V51.4209H475.588V52.4151H476.582ZM477.715 80.7536L477.012 81.4566L477.037 81.4816L477.064 81.5049L477.715 80.7536ZM487.431 81.8062H488.425V80.812H487.431V81.8062ZM487.431 89.498V90.4922H488.425V89.498H487.431ZM470.59 86.5832L469.934 87.3303L470.59 86.5832ZM467.27 52.4151H468.265V51.4209H467.27V52.4151ZM462.008 52.4151H461.013V53.4092H462.008V52.4151ZM462.008 44.8851V43.891H461.013V44.8851H462.008ZM467.27 44.8851V45.8793H468.265V44.8851H467.27ZM467.27 33.7926V32.7985H466.276V33.7926H467.27ZM476.582 33.7926H477.576V32.7985H476.582V33.7926ZM476.582 44.8851H475.588V45.8793H476.582V44.8851ZM487.431 44.8851H488.425V43.891H487.431V44.8851ZM487.431 52.4151V53.4092H488.425V52.4151H487.431ZM475.588 52.4151V77.1101H477.576V52.4151H475.588ZM475.588 77.1101C475.588 78.9022 475.988 80.4323 477.012 81.4566L478.418 80.0506C477.931 79.5635 477.576 78.6646 477.576 77.1101H475.588ZM477.064 81.5049C478.149 82.4451 479.8 82.8003 481.764 82.8003V80.812C479.949 80.812 478.901 80.4655 478.366 80.0023L477.064 81.5049ZM481.764 82.8003H487.431V80.812H481.764V82.8003ZM486.437 81.8062V89.498H488.425V81.8062H486.437ZM487.431 88.5039H480.144V90.4922H487.431V88.5039ZM480.144 88.5039C476.131 88.5039 473.215 87.5653 471.246 85.8362L469.934 87.3303C472.391 89.4876 475.845 90.4922 480.144 90.4922V88.5039ZM471.246 85.8362C469.335 84.158 468.265 81.3366 468.265 77.1101H466.276C466.276 81.6279 467.419 85.1221 469.934 87.3303L471.246 85.8362ZM468.265 77.1101V52.4151H466.276V77.1101H468.265ZM467.27 51.4209H462.008V53.4092H467.27V51.4209ZM463.002 52.4151V44.8851H461.013V52.4151H463.002ZM462.008 45.8793H467.27V43.891H462.008V45.8793ZM468.265 44.8851V33.7926H466.276V44.8851H468.265ZM467.27 34.7868H476.582V32.7985H467.27V34.7868ZM475.588 33.7926V44.8851H477.576V33.7926H475.588ZM476.582 45.8793H487.431V43.891H476.582V45.8793ZM486.437 44.8851V52.4151H488.425V44.8851H486.437ZM487.431 51.4209H476.582V53.4092H487.431V51.4209ZM528.083 46.3425L527.603 47.2133L527.61 47.2173L528.083 46.3425ZM534.398 52.8199L533.519 53.2843L533.522 53.2907L533.526 53.2971L534.398 52.8199ZM536.746 89.498V90.4922H537.74V89.498H536.746ZM527.597 89.498H526.603V90.4922H527.597V89.498ZM524.601 55.4109L523.871 56.086L523.88 56.0951L524.601 55.4109ZM508.165 55.4109L507.444 54.7261L507.443 54.7266L508.165 55.4109ZM505.169 89.498V90.4922H506.163V89.498H505.169ZM495.939 89.498H494.944V90.4922H495.939V89.498ZM495.939 29.5823V28.5882H494.944V29.5823H495.939ZM505.169 29.5823H506.163V28.5882H505.169V29.5823ZM505.169 50.067H504.175V52.825L505.934 50.7013L505.169 50.067ZM511.079 45.6948L510.693 44.7789L510.685 44.7821L511.079 45.6948ZM519.014 45.1506C522.269 45.1506 525.123 45.8466 527.603 47.2132L528.562 45.4718C525.753 43.9237 522.561 43.1623 519.014 43.1623V45.1506ZM527.61 47.2173C530.126 48.5759 532.094 50.5874 533.519 53.2843L535.277 52.3555C533.679 49.3307 531.437 47.024 528.555 45.4678L527.61 47.2173ZM533.526 53.2971C534.994 55.9804 535.752 59.2624 535.752 63.1837H537.74C537.74 59.0083 536.933 55.3811 535.27 52.3427L533.526 53.2971ZM535.752 63.1837V89.498H537.74V63.1837H535.752ZM536.746 88.5039H527.597V90.4922H536.746V88.5039ZM528.591 89.498V64.5602H526.603V89.498H528.591ZM528.591 64.5602C528.591 60.4083 527.552 57.0766 525.322 54.7266L523.88 56.0951C525.645 57.9554 526.603 60.7232 526.603 64.5602H528.591ZM525.331 54.7358C523.112 52.3375 520.102 51.178 516.423 51.178V53.1663C519.654 53.1663 522.095 54.166 523.871 56.0859L525.331 54.7358ZM516.423 51.178C512.744 51.178 509.713 52.3374 507.444 54.7261L508.885 56.0956C510.718 54.166 513.194 53.1663 516.423 53.1663V51.178ZM507.443 54.7266C505.214 57.0766 504.175 60.4083 504.175 64.5602H506.163C506.163 60.7232 507.121 57.9554 508.886 56.0951L507.443 54.7266ZM504.175 64.5602V89.498H506.163V64.5602H504.175ZM505.169 88.5039H495.939V90.4922H505.169V88.5039ZM496.933 89.498V29.5823H494.944V89.498H496.933ZM495.939 30.5765H505.169V28.5882H495.939V30.5765ZM504.175 29.5823V50.067H506.163V29.5823H504.175ZM505.934 50.7013C507.394 48.9395 509.234 47.5743 511.474 46.6075L510.685 44.7821C508.174 45.8664 506.074 47.4161 504.403 49.4327L505.934 50.7013ZM511.466 46.6106C513.763 45.641 516.275 45.1506 519.014 45.1506V43.1623C516.032 43.1623 513.254 43.6974 510.693 44.7789L511.466 46.6106ZM614.489 33.2258H615.483V32.2317H614.489V33.2258ZM614.489 89.498V90.4922H615.483V89.498H614.489ZM605.259 89.498H604.265V90.4922H605.259V89.498ZM605.259 64.884H606.253V63.8899H605.259V64.884ZM578.783 64.884V63.8899H577.788V64.884H578.783ZM578.783 89.498V90.4922H579.777V89.498H578.783ZM569.552 89.498H568.558V90.4922H569.552V89.498ZM569.552 33.2258V32.2317H568.558V33.2258H569.552ZM578.783 33.2258H579.777V32.2317H578.783V33.2258ZM578.783 57.3541H577.788V58.3482H578.783V57.3541ZM605.259 57.3541V58.3482H606.253V57.3541H605.259ZM605.259 33.2258V32.2317H604.265V33.2258H605.259ZM613.495 33.2258V89.498H615.483V33.2258H613.495ZM614.489 88.5039H605.259V90.4922H614.489V88.5039ZM606.253 89.498V64.884H604.265V89.498H606.253ZM605.259 63.8899H578.783V65.8782H605.259V63.8899ZM577.788 64.884V89.498H579.777V64.884H577.788ZM578.783 88.5039H569.552V90.4922H578.783V88.5039ZM570.547 89.498V33.2258H568.558V89.498H570.547ZM569.552 34.22H578.783V32.2317H569.552V34.22ZM577.788 33.2258V57.3541H579.777V33.2258H577.788ZM578.783 58.3482H605.259V56.3599H578.783V58.3482ZM606.253 57.3541V33.2258H604.265V57.3541H606.253ZM605.259 34.22H614.489V32.2317H605.259V34.22ZM634.575 87.3929L634.082 88.2561L634.093 88.2619L634.575 87.3929ZM626.56 79.2962L625.69 79.7778L625.693 79.7836L626.56 79.2962ZM634.818 46.9903L634.341 46.118V46.118L634.818 46.9903ZM657.975 46.9903L658.452 46.118V46.118L657.975 46.9903ZM666.072 79.2152L665.213 78.7135L666.072 79.2152ZM657.651 87.3929L658.122 88.2682L658.127 88.2657L657.651 87.3929ZM652.631 80.5107L652.16 79.6353L652.15 79.6406L652.631 80.5107ZM657.732 75.4098L656.869 74.9165L657.732 75.4098ZM657.813 58.9734L656.941 59.4509L656.946 59.4598L657.813 58.9734ZM639.595 53.8725L639.114 53.0023L639.105 53.0079L639.595 53.8725ZM634.818 58.9734L635.694 59.4435L635.699 59.4347L634.818 58.9734ZM636.68 78.3246L635.948 78.997L635.955 79.0048L635.963 79.0124L636.68 78.3246ZM645.992 89.2326C641.936 89.2326 638.299 88.3244 635.058 86.5239L634.093 88.2619C637.653 90.2399 641.627 91.2209 645.992 91.2209V89.2326ZM635.069 86.5297C631.826 84.6768 629.282 82.1087 627.426 78.8088L625.693 79.7836C627.723 83.3929 630.523 86.2225 634.082 88.2561L635.069 86.5297ZM627.429 78.8145C625.579 75.4734 624.639 71.5953 624.639 67.1511H622.651C622.651 71.8832 623.654 76.1018 625.69 79.7778L627.429 78.8145ZM624.639 67.1511C624.639 62.7677 625.603 58.9197 627.505 55.5788L625.777 54.5952C623.684 58.2714 622.651 62.4661 622.651 67.1511H624.639ZM627.505 55.5788C629.413 52.2262 632.007 49.6609 635.295 47.8625L634.341 46.118C630.721 48.0981 627.863 50.9306 625.777 54.5952L627.505 55.5788ZM635.295 47.8625C638.592 46.0598 642.285 45.1506 646.397 45.1506V43.1623C641.98 43.1623 637.954 44.1423 634.341 46.118L635.295 47.8625ZM646.397 45.1506C650.508 45.1506 654.201 46.0598 657.498 47.8625L658.452 46.118C654.839 44.1423 650.813 43.1623 646.397 43.1623V45.1506ZM657.498 47.8625C660.786 49.6609 663.38 52.2262 665.289 55.5788L667.016 54.5952C664.931 50.9306 662.073 48.0981 658.452 46.118L657.498 47.8625ZM665.289 55.5788C667.19 58.9197 668.154 62.7677 668.154 67.1511H670.142C670.142 62.4661 669.109 58.2714 667.016 54.5952L665.289 55.5788ZM668.154 67.1511C668.154 71.5298 667.166 75.3742 665.213 78.7135L666.93 79.7169C669.08 76.0391 670.142 71.8407 670.142 67.1511H668.154ZM665.213 78.7135C663.253 82.0662 660.578 84.6637 657.175 86.5201L658.127 88.2657C661.849 86.2357 664.787 83.3814 666.93 79.7169L665.213 78.7135ZM657.18 86.5176C653.826 88.3234 650.103 89.2326 645.992 89.2326V91.2209C650.409 91.2209 654.459 90.2409 658.122 88.2682L657.18 86.5176ZM645.992 83.2051C648.533 83.2051 650.911 82.5968 653.112 81.3808L652.15 79.6406C650.248 80.6916 648.201 81.2169 645.992 81.2169V83.2051ZM653.102 81.386C655.386 80.1562 657.216 78.3162 658.595 75.903L656.869 74.9165C655.657 77.0375 654.086 78.5981 652.16 79.6354L653.102 81.386ZM658.595 75.903C659.995 73.4536 660.669 70.5216 660.669 67.1511H658.681C658.681 70.2579 658.06 72.8317 656.869 74.9165L658.595 75.903ZM660.669 67.1511C660.669 63.7881 660.025 60.8843 658.68 58.487L656.946 59.4598C658.084 61.4888 658.681 64.0367 658.681 67.1511H660.669ZM658.685 58.4959C657.362 56.0811 655.588 54.2363 653.355 53.0024L652.393 54.7426C654.263 55.7757 655.78 57.3315 656.941 59.4509L658.685 58.4959ZM653.355 53.0024C651.154 51.7863 648.775 51.178 646.235 51.178V53.1663C648.444 53.1663 650.491 53.6915 652.393 54.7426L653.355 53.0024ZM646.235 51.178C643.694 51.178 641.315 51.7863 639.114 53.0024L640.076 54.7426C641.978 53.6915 644.025 53.1663 646.235 53.1663V51.178ZM639.105 53.0079C636.923 54.2462 635.203 56.096 633.938 58.5121L635.699 59.4347C636.808 57.3167 638.273 55.7658 640.086 54.7371L639.105 53.0079ZM633.942 58.5034C632.658 60.8968 632.043 63.7945 632.043 67.1511H634.031C634.031 64.0303 634.604 61.4762 635.694 59.4435L633.942 58.5034ZM632.043 67.1511C632.043 72.1185 633.301 76.114 635.948 78.997L637.413 77.6521C635.202 75.2453 634.031 71.7918 634.031 67.1511H632.043ZM635.963 79.0124C638.641 81.8072 642.008 83.2051 645.992 83.2051V81.2169C642.527 81.2169 639.686 80.0238 637.398 77.6367L635.963 79.0124ZM686.208 87.3929L685.714 88.2561L685.725 88.2619L686.208 87.3929ZM678.192 79.2962L677.322 79.7778L677.326 79.7836L678.192 79.2962ZM686.451 46.9903L685.974 46.118V46.118L686.451 46.9903ZM709.607 46.9903L710.084 46.118V46.118L709.607 46.9903ZM717.704 79.2152L716.846 78.7135L717.704 79.2152ZM709.283 87.3929L709.755 88.2682L709.759 88.2657L709.283 87.3929ZM704.263 80.5107L703.792 79.6353L703.783 79.6406L704.263 80.5107ZM709.364 75.4098L708.501 74.9165L709.364 75.4098ZM709.445 58.9734L708.573 59.4509L708.578 59.4598L709.445 58.9734ZM691.228 53.8725L690.747 53.0023L690.737 53.0079L691.228 53.8725ZM686.451 58.9734L687.327 59.4435L687.331 59.4347L686.451 58.9734ZM688.313 78.3246L687.581 78.997L687.588 79.0048L687.595 79.0124L688.313 78.3246ZM697.624 89.2326C693.568 89.2326 689.931 88.3244 686.69 86.5239L685.725 88.2619C689.285 90.2399 693.259 91.2209 697.624 91.2209V89.2326ZM686.701 86.5297C683.458 84.6768 680.915 82.1087 679.058 78.8088L677.326 79.7836C679.356 83.3929 682.156 86.2225 685.714 88.2561L686.701 86.5297ZM679.062 78.8145C677.211 75.4734 676.271 71.5953 676.271 67.1511H674.283C674.283 71.8832 675.286 76.1018 677.322 79.7778L679.062 78.8145ZM676.271 67.1511C676.271 62.7677 677.235 58.9197 679.137 55.5788L677.409 54.5952C675.316 58.2714 674.283 62.4661 674.283 67.1511H676.271ZM679.137 55.5788C681.045 52.2262 683.639 49.6609 686.928 47.8625L685.974 46.118C682.353 48.0981 679.495 50.9306 677.409 54.5952L679.137 55.5788ZM686.928 47.8625C690.224 46.0598 693.917 45.1506 698.029 45.1506V43.1623C693.612 43.1623 689.586 44.1423 685.974 46.118L686.928 47.8625ZM698.029 45.1506C702.141 45.1506 705.834 46.0598 709.13 47.8625L710.084 46.118C706.471 44.1423 702.446 43.1623 698.029 43.1623V45.1506ZM709.13 47.8625C712.419 49.6609 715.013 52.2262 716.921 55.5788L718.649 54.5952C716.563 50.9306 713.705 48.0981 710.084 46.118L709.13 47.8625ZM716.921 55.5788C718.823 58.9197 719.787 62.7677 719.787 67.1511H721.775C721.775 62.4661 720.742 58.2714 718.649 54.5952L716.921 55.5788ZM719.787 67.1511C719.787 71.5298 718.798 75.3742 716.846 78.7135L718.562 79.7169C720.712 76.0391 721.775 71.8407 721.775 67.1511H719.787ZM716.846 78.7135C714.886 82.0662 712.211 84.6637 708.807 86.5201L709.759 88.2657C713.481 86.2357 716.42 83.3814 718.562 79.7169L716.846 78.7135ZM708.812 86.5176C705.458 88.3234 701.736 89.2326 697.624 89.2326V91.2209C702.041 91.2209 706.091 90.2409 709.755 88.2682L708.812 86.5176ZM697.624 83.2051C700.165 83.2051 702.544 82.5968 704.744 81.3808L703.783 79.6406C701.881 80.6916 699.833 81.2169 697.624 81.2169V83.2051ZM704.735 81.386C707.019 80.1562 708.849 78.3162 710.227 75.903L708.501 74.9165C707.289 77.0375 705.718 78.5981 703.792 79.6354L704.735 81.386ZM710.227 75.903C711.627 73.4536 712.302 70.5216 712.302 67.1511H710.313C710.313 70.2579 709.692 72.8317 708.501 74.9165L710.227 75.903ZM712.302 67.1511C712.302 63.7881 711.657 60.8843 710.312 58.487L708.578 59.4598C709.716 61.4888 710.313 64.0367 710.313 67.1511H712.302ZM710.317 58.4959C708.995 56.0811 707.22 54.2363 704.987 53.0024L704.025 54.7426C705.895 55.7757 707.413 57.3315 708.573 59.4509L710.317 58.4959ZM704.987 53.0024C702.787 51.7863 700.408 51.178 697.867 51.178V53.1663C700.076 53.1663 702.124 53.6915 704.025 54.7426L704.987 53.0024ZM697.867 51.178C695.326 51.178 692.947 51.7863 690.747 53.0024L691.708 54.7426C693.61 53.6915 695.658 53.1663 697.867 53.1663V51.178ZM690.737 53.0079C688.555 54.2462 686.836 56.096 685.57 58.5121L687.331 59.4347C688.441 57.3167 689.906 55.7658 691.718 54.7371L690.737 53.0079ZM685.575 58.5034C684.29 60.8968 683.675 63.7945 683.675 67.1511H685.663C685.663 64.0303 686.236 61.4762 687.327 59.4435L685.575 58.5034ZM683.675 67.1511C683.675 72.1185 684.933 76.114 687.581 78.997L689.045 77.6521C686.835 75.2453 685.663 71.7918 685.663 67.1511H683.675ZM687.595 79.0124C690.273 81.8072 693.64 83.2051 697.624 83.2051V81.2169C694.159 81.2169 691.318 80.0238 689.031 77.6367L687.595 79.0124ZM729.581 55.087L728.709 54.61L728.703 54.6206L729.581 55.087ZM737.192 47.0712L737.7 47.9263L737.704 47.9237L737.192 47.0712ZM756.544 46.0996L756.127 47.0023L756.137 47.007L756.148 47.0116L756.544 46.0996ZM763.345 51.1196L762.567 51.7382L764.339 53.968V51.1196H763.345ZM763.345 29.5823V28.5882H762.351V29.5823H763.345ZM772.656 29.5823H773.65V28.5882H772.656V29.5823ZM772.656 89.498V90.4922H773.65V89.498H772.656ZM763.345 89.498H762.351V90.4922H763.345V89.498ZM763.345 82.7778H764.339V79.624L762.53 82.2077L763.345 82.7778ZM757.029 88.1216L756.571 87.2396L756.563 87.2434L757.029 88.1216ZM737.192 87.3119L736.664 88.1542L736.672 88.1594L736.681 88.1644L737.192 87.3119ZM729.581 79.0533L728.698 79.5086L728.702 79.5166L728.706 79.5246L729.581 79.0533ZM761.402 59.1353L760.53 59.6128L760.534 59.6208L760.538 59.6286L761.402 59.1353ZM756.463 53.9534L755.964 54.8138L756.463 53.9534ZM743.184 53.9534L743.665 54.8236L743.673 54.8188L743.682 54.8138L743.184 53.9534ZM738.164 59.0544L737.301 58.5611L737.297 58.568L738.164 59.0544ZM738.164 75.0859L737.287 75.5548L737.292 75.5626L737.296 75.5704L738.164 75.0859ZM743.184 80.4297L742.669 81.2802L742.682 81.2881L742.695 81.2956L743.184 80.4297ZM756.463 80.4297L756.961 81.2901L756.463 80.4297ZM761.402 75.2478L760.533 74.7633L760.53 74.7703L761.402 75.2478ZM727.823 66.9892C727.823 62.6478 728.711 58.8447 730.459 55.5534L728.703 54.6206C726.781 58.2385 725.834 62.3702 725.834 66.9892H727.823ZM730.454 55.564C732.263 52.2556 734.678 49.7187 737.7 47.9262L736.685 46.2162C733.337 48.2022 730.678 51.0092 728.709 54.61L730.454 55.564ZM737.704 47.9237C740.781 46.0773 744.193 45.1506 747.961 45.1506V43.1623C743.849 43.1623 740.081 44.1787 736.681 46.2188L737.704 47.9237ZM747.961 45.1506C750.723 45.1506 753.443 45.7633 756.127 47.0023L756.96 45.197C754.031 43.845 751.028 43.1623 747.961 43.1623V45.1506ZM756.148 47.0116C758.883 48.1986 761.01 49.7798 762.567 51.7382L764.123 50.501C762.333 48.2491 759.926 46.4837 756.939 45.1877L756.148 47.0116ZM764.339 51.1196V29.5823H762.351V51.1196H764.339ZM763.345 30.5765H772.656V28.5882H763.345V30.5765ZM771.662 29.5823V89.498H773.65V29.5823H771.662ZM772.656 88.5039H763.345V90.4922H772.656V88.5039ZM764.339 89.498V82.7778H762.351V89.498H764.339ZM762.53 82.2077C761.124 84.2168 759.15 85.8985 756.571 87.2396L757.488 89.0036C760.307 87.5378 762.543 85.657 764.159 83.3479L762.53 82.2077ZM756.563 87.2434C754.083 88.5597 751.197 89.2326 747.88 89.2326V91.2209C751.472 91.2209 754.686 90.4903 757.495 88.9998L756.563 87.2434ZM747.88 89.2326C744.168 89.2326 740.783 88.3072 737.704 86.4595L736.681 88.1644C740.079 90.2031 743.819 91.2209 747.88 91.2209V89.2326ZM737.721 86.4697C734.69 84.5695 732.269 81.9484 730.457 78.582L728.706 79.5246C730.672 83.1754 733.325 86.06 736.664 88.1542L737.721 86.4697ZM730.465 78.598C728.711 75.1922 727.823 71.3299 727.823 66.9892H725.834C725.834 71.6088 726.782 75.7893 728.698 79.5086L730.465 78.598ZM764.339 67.1511C764.339 63.9324 763.66 61.0842 762.265 58.6421L760.538 59.6286C761.734 61.7206 762.351 64.2163 762.351 67.1511H764.339ZM762.273 58.6578C760.953 56.2463 759.183 54.3798 756.961 53.0931L755.964 54.8138C757.844 55.9021 759.367 57.4902 760.53 59.6128L762.273 58.6578ZM756.961 53.0931C754.758 51.8177 752.373 51.178 749.823 51.178V53.1663C752.024 53.1663 754.065 53.7141 755.964 54.8138L756.961 53.0931ZM749.823 51.178C747.274 51.178 744.889 51.8177 742.686 53.0931L743.682 54.8138C745.581 53.7141 747.623 53.1663 749.823 53.1663V51.178ZM742.703 53.0833C740.475 54.3149 738.676 56.1543 737.301 58.5611L739.027 59.5476C740.243 57.4202 741.791 55.8591 743.665 54.8236L742.703 53.0833ZM737.297 58.568C735.956 60.9582 735.308 63.7781 735.308 66.9892H737.296C737.296 64.0467 737.889 61.5768 739.031 59.5408L737.297 58.568ZM735.308 66.9892C735.308 70.2018 735.957 73.0669 737.287 75.5548L739.041 74.617C737.888 72.4628 737.296 69.93 737.296 66.9892H735.308ZM737.296 75.5704C738.666 78.0253 740.455 79.94 742.669 81.2802L743.699 79.5792C741.811 78.4365 740.253 76.7886 739.032 74.6014L737.296 75.5704ZM742.695 81.2956C744.943 82.5636 747.324 83.2051 749.823 83.2051V81.2169C747.681 81.2169 745.635 80.6709 743.672 79.5638L742.695 81.2956ZM749.823 83.2051C752.373 83.2051 754.758 82.5654 756.961 81.2901L755.964 79.5694C754.065 80.6691 752.024 81.2169 749.823 81.2169V83.2051ZM756.961 81.2901C759.183 80.0033 760.953 78.1369 762.273 75.7253L760.53 74.7703C759.367 76.8929 757.844 78.4811 755.964 79.5694L756.961 81.2901ZM762.27 75.7323C763.66 73.2413 764.339 70.3705 764.339 67.1511H762.351C762.351 70.0852 761.734 72.6122 760.533 74.7633L762.27 75.7323ZM785.265 37.2742L785.968 36.5712L785.265 37.2742ZM785.265 28.8536L785.968 29.5566L785.265 28.8536ZM793.605 28.8536L792.902 29.5566L793.605 28.8536ZM793.605 37.2742L792.902 36.5712L793.605 37.2742ZM794.01 44.8851H795.004V43.891H794.01V44.8851ZM794.01 89.498V90.4922H795.004V89.498H794.01ZM784.78 89.498H783.785V90.4922H784.78V89.498ZM784.78 44.8851V43.891H783.785V44.8851H784.78ZM789.476 37.9804C788.053 37.9804 786.907 37.5094 785.968 36.5712L784.562 37.9772C785.891 39.3061 787.552 39.9687 789.476 39.9687V37.9804ZM785.968 36.5712C785.03 35.633 784.559 34.4864 784.559 33.0639H782.571C782.571 34.988 783.234 36.6483 784.562 37.9772L785.968 36.5712ZM784.559 33.0639C784.559 31.6414 785.03 30.4948 785.968 29.5566L784.562 28.1506C783.234 29.4795 782.571 31.1398 782.571 33.0639H784.559ZM785.968 29.5566C786.907 28.6184 788.053 28.1474 789.476 28.1474V26.1592C787.552 26.1592 785.891 26.8218 784.562 28.1506L785.968 29.5566ZM789.476 28.1474C790.834 28.1474 791.957 28.6116 792.902 29.5566L794.308 28.1506C792.986 26.8286 791.356 26.1592 789.476 26.1592V28.1474ZM792.902 29.5566C793.84 30.4948 794.311 31.6414 794.311 33.0639H796.299C796.299 31.1398 795.637 29.4795 794.308 28.1506L792.902 29.5566ZM794.311 33.0639C794.311 34.4864 793.84 35.633 792.902 36.5712L794.308 37.9772C795.637 36.6483 796.299 34.988 796.299 33.0639H794.311ZM792.902 36.5712C791.957 37.5162 790.834 37.9804 789.476 37.9804V39.9687C791.356 39.9687 792.986 39.2993 794.308 37.9772L792.902 36.5712ZM793.016 44.8851V89.498H795.004V44.8851H793.016ZM794.01 88.5039H784.78V90.4922H794.01V88.5039ZM785.774 89.498V44.8851H783.785V89.498H785.774ZM784.78 45.8793H794.01V43.891H784.78V45.8793ZM805.804 55.087L804.932 54.61L804.927 54.6206L805.804 55.087ZM813.415 47.0712L813.923 47.9263L813.927 47.9237L813.415 47.0712ZM833.252 46.2616L832.779 47.1357L832.79 47.1415L832.801 47.1471L833.252 46.2616ZM839.568 51.3625L838.777 51.9656L840.562 54.3038V51.3625H839.568ZM839.568 44.8851V43.891H838.574V44.8851H839.568ZM848.879 44.8851H849.873V43.891H848.879V44.8851ZM848.879 89.498V90.4922H849.873V89.498H848.879ZM839.568 89.498H838.574V90.4922H839.568V89.498ZM839.568 82.8587H840.562V79.8557L838.77 82.2655L839.568 82.8587ZM833.171 88.1216L832.713 87.2396L833.171 88.1216ZM813.415 87.3119L812.887 88.1542L812.898 88.1606L813.415 87.3119ZM805.804 79.0533L804.921 79.5086L804.925 79.5166L804.929 79.5246L805.804 79.0533ZM837.625 59.1353L836.753 59.6128L836.757 59.6208L836.761 59.6286L837.625 59.1353ZM832.686 53.9534L832.188 54.8138L832.686 53.9534ZM819.407 53.9534L819.888 54.8236L819.896 54.8188L819.905 54.8138L819.407 53.9534ZM814.387 59.0544L813.524 58.5611L813.52 58.568L814.387 59.0544ZM814.387 75.0859L813.51 75.5548L813.515 75.5626L813.519 75.5704L814.387 75.0859ZM819.407 80.4297L818.892 81.2802L818.905 81.2881L818.919 81.2956L819.407 80.4297ZM832.686 80.4297L833.184 81.2901L832.686 80.4297ZM837.625 75.2478L836.756 74.7633L836.753 74.7703L837.625 75.2478ZM804.046 66.9892C804.046 62.6478 804.934 58.8447 806.682 55.5534L804.927 54.6206C803.005 58.2385 802.057 62.3702 802.057 66.9892H804.046ZM806.677 55.564C808.486 52.2556 810.901 49.7187 813.923 47.9262L812.908 46.2162C809.56 48.2022 806.901 51.0092 804.932 54.61L806.677 55.564ZM813.927 47.9237C817.006 46.076 820.391 45.1506 824.103 45.1506V43.1623C820.042 43.1623 816.302 44.1801 812.904 46.2188L813.927 47.9237ZM824.103 45.1506C827.478 45.1506 830.359 45.8248 832.779 47.1357L833.726 45.3874C830.964 43.8915 827.745 43.1623 824.103 43.1623V45.1506ZM832.801 47.1471C835.333 48.4391 837.315 50.0494 838.777 51.9656L840.358 50.7594C838.69 48.5733 836.462 46.7829 833.704 45.376L832.801 47.1471ZM840.562 51.3625V44.8851H838.574V51.3625H840.562ZM839.568 45.8793H848.879V43.891H839.568V45.8793ZM847.885 44.8851V89.498H849.873V44.8851H847.885ZM848.879 88.5039H839.568V90.4922H848.879V88.5039ZM840.562 89.498V82.8587H838.574V89.498H840.562ZM838.77 82.2655C837.308 84.2321 835.299 85.8945 832.713 87.2396L833.63 89.0036C836.441 87.5419 838.697 85.6956 840.366 83.4519L838.77 82.2655ZM832.713 87.2396C830.174 88.5599 827.258 89.2326 823.941 89.2326V91.2209C827.534 91.2209 830.771 90.4902 833.63 89.0036L832.713 87.2396ZM823.941 89.2326C820.286 89.2326 816.958 88.3087 813.933 86.4633L812.898 88.1606C816.243 90.2016 819.931 91.2209 823.941 91.2209V89.2326ZM813.944 86.4697C810.914 84.5695 808.492 81.9484 806.68 78.582L804.929 79.5246C806.895 83.1754 809.548 86.06 812.887 88.1542L813.944 86.4697ZM806.688 78.598C804.934 75.1922 804.046 71.3299 804.046 66.9892H802.057C802.057 71.6088 803.005 75.7893 804.921 79.5086L806.688 78.598ZM840.562 67.1511C840.562 63.9324 839.883 61.0842 838.488 58.6421L836.761 59.6286C837.957 61.7206 838.574 64.2163 838.574 67.1511H840.562ZM838.497 58.6578C837.176 56.2463 835.406 54.3798 833.184 53.0931L832.188 54.8138C834.067 55.9021 835.59 57.4902 836.753 59.6128L838.497 58.6578ZM833.184 53.0931C830.981 51.8177 828.596 51.178 826.046 51.178V53.1663C828.247 53.1663 830.288 53.7141 832.188 54.8138L833.184 53.0931ZM826.046 51.178C823.497 51.178 821.112 51.8177 818.909 53.0931L819.905 54.8138C821.805 53.7141 823.846 53.1663 826.046 53.1663V51.178ZM818.926 53.0833C816.698 54.3149 814.899 56.1543 813.524 58.5611L815.25 59.5476C816.466 57.4202 818.014 55.8591 819.888 54.8236L818.926 53.0833ZM813.52 58.568C812.179 60.9582 811.531 63.7781 811.531 66.9892H813.519C813.519 64.0467 814.112 61.5768 815.254 59.5408L813.52 58.568ZM811.531 66.9892C811.531 70.2018 812.18 73.0669 813.51 75.5548L815.264 74.617C814.111 72.4628 813.519 69.93 813.519 66.9892H811.531ZM813.519 75.5704C814.889 78.0253 816.678 79.94 818.892 81.2802L819.922 79.5792C818.034 78.4365 816.476 76.7886 815.255 74.6014L813.519 75.5704ZM818.919 81.2956C821.166 82.5636 823.547 83.2051 826.046 83.2051V81.2169C823.904 81.2169 821.858 80.6709 819.895 79.5638L818.919 81.2956ZM826.046 83.2051C828.596 83.2051 830.981 82.5654 833.184 81.2901L832.188 79.5694C830.288 80.6691 828.247 81.2169 826.046 81.2169V83.2051ZM833.184 81.2901C835.406 80.0033 837.176 78.1369 838.497 75.7253L836.753 74.7703C835.59 76.8929 834.067 78.4811 832.188 79.5694L833.184 81.2901ZM838.493 75.7323C839.883 73.2413 840.562 70.3705 840.562 67.1511H838.574C838.574 70.0852 837.957 72.6122 836.756 74.7633L838.493 75.7323ZM892.904 46.3425L892.439 47.2212L892.446 47.2248L892.904 46.3425ZM899.462 52.8199L898.59 53.2971L899.462 52.8199ZM901.81 89.498V90.4922H902.804V89.498H901.81ZM892.661 89.498H891.667V90.4922H892.661V89.498ZM889.665 55.4109L888.935 56.086L888.944 56.0951L889.665 55.4109ZM873.229 55.4109L872.508 54.7261L872.507 54.7266L873.229 55.4109ZM870.233 89.498V90.4922H871.227V89.498H870.233ZM861.003 89.498H860.008V90.4922H861.003V89.498ZM861.003 44.8851V43.891H860.008V44.8851H861.003ZM870.233 44.8851H871.227V43.891H870.233V44.8851ZM870.233 49.986H869.239V52.7571L871 50.618L870.233 49.986ZM875.982 45.6948L875.587 44.7821L875.58 44.7855L875.982 45.6948ZM883.511 45.1506C886.879 45.1506 889.846 45.8487 892.439 47.2211L893.369 45.4639C890.455 43.9215 887.161 43.1623 883.511 43.1623V45.1506ZM892.446 47.2248C895.072 48.5883 897.116 50.6037 898.59 53.2971L900.334 52.3427C898.677 49.3144 896.349 47.0115 893.362 45.4602L892.446 47.2248ZM898.59 53.2971C900.058 55.9804 900.816 59.2624 900.816 63.1837H902.804C902.804 59.0083 901.997 55.3811 900.334 52.3427L898.59 53.2971ZM900.816 63.1837V89.498H902.804V63.1837H900.816ZM901.81 88.5039H892.661V90.4922H901.81V88.5039ZM893.655 89.498V64.5602H891.667V89.498H893.655ZM893.655 64.5602C893.655 60.4083 892.616 57.0766 890.386 54.7266L888.944 56.0951C890.709 57.9554 891.667 60.7232 891.667 64.5602H893.655ZM890.395 54.7358C888.176 52.3375 885.166 51.178 881.487 51.178V53.1663C884.718 53.1663 887.159 54.166 888.935 56.0859L890.395 54.7358ZM881.487 51.178C877.808 51.178 874.777 52.3374 872.508 54.7261L873.949 56.0956C875.782 54.166 878.258 53.1663 881.487 53.1663V51.178ZM872.507 54.7266C870.278 57.0766 869.239 60.4083 869.239 64.5602H871.227C871.227 60.7232 872.185 57.9554 873.95 56.0951L872.507 54.7266ZM869.239 64.5602V89.498H871.227V64.5602H869.239ZM870.233 88.5039H861.003V90.4922H870.233V88.5039ZM861.997 89.498V44.8851H860.008V89.498H861.997ZM861.003 45.8793H870.233V43.891H861.003V45.8793ZM869.239 44.8851V49.986H871.227V44.8851H869.239ZM871 50.618C872.406 48.9105 874.194 47.5714 876.383 46.6041L875.58 44.7855C873.127 45.8694 871.082 47.3911 869.465 49.3541L871 50.618ZM876.376 46.6075C878.623 45.6368 880.999 45.1506 883.511 45.1506V43.1623C880.734 43.1623 878.09 43.7016 875.587 44.7821L876.376 46.6075ZM920.304 88.3645L919.881 89.264L919.891 89.269L919.902 89.2737L920.304 88.3645ZM913.746 83.1826L912.943 83.7697L912.95 83.7791L913.746 83.1826ZM911.155 75.8146V74.8204H910.12L910.161 75.8543L911.155 75.8146ZM920.709 75.8146L921.699 75.7297L921.622 74.8204H920.709V75.8146ZM923.381 80.5917L922.76 81.368L922.774 81.3793L922.789 81.39L923.381 80.5917ZM935.607 80.9965L936.173 81.8139L936.179 81.8095L935.607 80.9965ZM935.364 73.3856L934.907 74.2687L934.919 74.2748L935.364 73.3856ZM927.834 70.7137L928.103 69.7566L928.097 69.7549L927.834 70.7137ZM919.656 68.0417L919.279 68.9615L919.656 68.0417ZM914.151 64.0743L913.393 64.7175L913.398 64.7241L913.404 64.7306L914.151 64.0743ZM913.989 50.5528L914.795 51.1349L914.802 51.1244L913.989 50.5528ZM919.98 45.8567L919.589 44.9429L919.582 44.9459L919.98 45.8567ZM941.275 48.0428L940.634 48.8033L940.641 48.8093L940.649 48.8152L941.275 48.0428ZM946.295 58.4876V59.4818H947.338L947.288 58.4392L946.295 58.4876ZM937.064 58.4876L936.073 58.568L936.148 59.4818H937.064V58.4876ZM934.635 53.7105L935.263 52.9398L934.635 53.7105ZM923.138 53.3057L922.563 52.4945L923.138 53.3057ZM922.49 59.945L921.81 60.6703L922.49 59.945ZM925.648 61.8882L925.286 62.814L925.303 62.8209L925.321 62.8272L925.648 61.8882ZM931.154 63.5885L930.878 64.5436L930.888 64.5465L930.898 64.5491L931.154 63.5885ZM939.089 66.2605L938.683 67.1679L938.697 67.1743L938.711 67.1802L939.089 66.2605ZM944.513 70.1469L943.765 70.8015L944.513 70.1469ZM946.861 77.0291H947.855V77.0197L947.855 77.0103L946.861 77.0291ZM944.756 83.8303L943.943 83.2588L944.756 83.8303ZM938.765 88.5264L938.366 87.6156L938.359 87.6188L938.765 88.5264ZM929.777 89.2326C926.387 89.2326 923.37 88.6333 920.706 87.4553L919.902 89.2737C922.852 90.5787 926.15 91.2209 929.777 91.2209V89.2326ZM920.727 87.465C918.102 86.2297 916.051 84.5996 914.541 82.5861L912.95 83.7791C914.679 86.0839 917 87.9083 919.881 89.264L920.727 87.465ZM914.548 82.5956C913.043 80.5393 912.248 78.2732 912.148 75.7749L910.161 75.8543C910.277 78.7538 911.209 81.3997 912.943 83.7697L914.548 82.5956ZM911.155 76.8087H920.709V74.8204H911.155V76.8087ZM919.718 75.8995C919.906 78.087 920.95 79.92 922.76 81.368L924.002 79.8154C922.573 78.6723 921.836 77.3206 921.699 75.7297L919.718 75.8995ZM922.789 81.39C924.664 82.7816 926.961 83.448 929.615 83.448V81.4598C927.304 81.4598 925.444 80.8847 923.973 79.7933L922.789 81.39ZM929.615 83.448C932.31 83.448 934.537 82.9461 936.173 81.8139L935.041 80.1791C933.87 80.9901 932.102 81.4598 929.615 81.4598V83.448ZM936.179 81.8095C937.859 80.6275 938.787 79.0475 938.787 77.1101H936.799C936.799 78.3034 936.27 79.3143 935.035 80.1835L936.179 81.8095ZM938.787 77.1101C938.787 76.1062 938.542 75.1834 938.018 74.3809C937.498 73.5828 936.741 72.9627 935.809 72.4964L934.919 74.2748C935.606 74.6181 936.064 75.0236 936.353 75.467C936.639 75.906 936.799 76.4406 936.799 77.1101H938.787ZM935.821 72.5026C934.161 71.6443 931.57 70.7318 928.103 69.7566L927.565 71.6707C931.007 72.6387 933.436 73.5075 934.907 74.2686L935.821 72.5026ZM928.097 69.7549C924.771 68.843 922.088 67.9646 920.034 67.122L919.279 68.9615C921.435 69.8462 924.204 70.749 927.571 71.6724L928.097 69.7549ZM920.034 67.122C918.076 66.319 916.366 65.0892 914.897 63.4181L913.404 64.7306C915.066 66.622 917.026 68.0372 919.279 68.9615L920.034 67.122ZM914.909 63.4312C913.585 61.8707 912.878 59.7696 912.878 57.0302H910.889C910.889 60.1204 911.694 62.7155 913.393 64.7175L914.909 63.4312ZM912.878 57.0302C912.878 54.8662 913.512 52.9104 914.795 51.1349L913.183 49.9708C911.658 52.0817 910.889 54.4441 910.889 57.0302H912.878ZM914.802 51.1244C916.085 49.2984 917.928 47.8399 920.379 46.7675L919.582 44.9459C916.851 46.1407 914.699 47.8128 913.175 49.9812L914.802 51.1244ZM920.372 46.7705C922.873 45.6987 925.758 45.1506 929.049 45.1506V43.1623C925.537 43.1623 922.378 43.7477 919.589 44.943L920.372 46.7705ZM929.049 45.1506C933.951 45.1506 937.78 46.3994 940.634 48.8033L941.915 47.2824C938.616 44.5044 934.294 43.1623 929.049 43.1623V45.1506ZM940.649 48.8152C943.536 51.1551 945.098 54.3609 945.302 58.536L947.288 58.4392C947.059 53.7619 945.274 50.0045 941.901 47.2705L940.649 48.8152ZM946.295 57.4935H937.064V59.4818H946.295V57.4935ZM938.055 58.4073C937.873 56.16 936.946 54.3106 935.263 52.9398L934.007 54.4812C935.24 55.4855 935.932 56.8209 936.073 58.568L938.055 58.4073ZM935.263 52.9398C933.579 51.5672 931.363 50.9351 928.725 50.9351V52.9234C931.053 52.9234 932.777 53.4789 934.007 54.4812L935.263 52.9398ZM928.725 50.9351C926.192 50.9351 924.094 51.4099 922.563 52.4945L923.713 54.117C924.772 53.3662 926.399 52.9234 928.725 52.9234V50.9351ZM922.563 52.4945C921.02 53.5874 920.201 55.0967 920.201 56.9492H922.189C922.189 55.779 922.665 54.8593 923.713 54.1169L922.563 52.4945ZM920.201 56.9492C920.201 58.4106 920.745 59.672 921.81 60.6703L923.17 59.2198C922.508 58.5987 922.189 57.8629 922.189 56.9492H920.201ZM921.81 60.6703C922.777 61.5766 923.941 62.2879 925.286 62.814L926.01 60.9624C924.872 60.5169 923.931 59.9328 923.17 59.2198L921.81 60.6703ZM925.321 62.8272C926.589 63.2679 928.444 63.8406 930.878 64.5436L931.43 62.6335C929.005 61.9331 927.19 61.3722 925.975 60.9493L925.321 62.8272ZM930.898 64.5491C934.107 65.405 936.697 66.2797 938.683 67.1679L939.494 65.353C937.378 64.4059 934.677 63.4993 931.41 62.628L930.898 64.5491ZM938.711 67.1802C940.673 67.9849 942.354 69.1891 943.765 70.8015L945.261 69.4922C943.65 67.6501 941.715 66.2633 939.466 65.3407L938.711 67.1802ZM943.765 70.8015C945.087 72.3123 945.817 74.3617 945.867 77.0479L947.855 77.0103C947.798 73.9748 946.962 71.4361 945.261 69.4922L943.765 70.8015ZM945.867 77.0291C945.867 79.37 945.224 81.4358 943.943 83.2588L945.57 84.4019C947.095 82.2305 947.855 79.7621 947.855 77.0291H945.867ZM943.943 83.2588C942.66 85.0847 940.817 86.5433 938.366 87.6157L939.163 89.4372C941.894 88.2425 944.046 86.5703 945.57 84.4019L943.943 83.2588ZM938.359 87.6188C935.977 88.6832 933.125 89.2326 929.777 89.2326V91.2209C933.339 91.2209 936.479 90.6367 939.17 89.4341L938.359 87.6188Z" fill="#BE942A" mask="url(#path-1-outside-1_748_4958)"/>
<path d="M3.38592 61.2405C3.38592 55.7347 4.65441 50.7957 7.19138 46.4235C9.78233 42.0513 13.2639 38.6506 17.6362 36.2216C22.0624 33.7386 26.8934 32.4971 32.1293 32.4971C38.1209 32.4971 43.4377 33.9815 48.0798 36.9503C52.7759 39.8651 56.1765 44.0215 58.2817 49.4193H47.1892C45.7318 46.4505 43.7076 44.2374 41.1166 42.78C38.5257 41.3226 35.5299 40.5939 32.1293 40.5939C28.4048 40.5939 25.0851 41.4305 22.1703 43.1038C19.2555 44.7772 16.9614 47.1792 15.2881 50.3099C13.6688 53.4407 12.8591 57.0842 12.8591 61.2405C12.8591 65.3968 13.6688 69.0403 15.2881 72.1711C16.9614 75.3018 19.2555 77.7308 22.1703 79.4581C25.0851 81.1314 28.4048 81.9681 32.1293 81.9681C35.5299 81.9681 38.5257 81.2394 41.1166 79.782C43.7076 78.3246 45.7318 76.1115 47.1892 73.1427H58.2817C56.1765 78.5405 52.7759 82.6968 48.0798 85.6116C43.4377 88.5264 38.1209 89.9839 32.1293 89.9839C26.8394 89.9839 22.0084 88.7693 17.6362 86.3403C13.2639 83.8573 9.78233 80.4297 7.19138 76.0575C4.65441 71.6853 3.38592 66.7463 3.38592 61.2405ZM88.4369 90.2268C84.2266 90.2268 80.4212 89.2821 77.0205 87.3929C73.6199 85.4497 70.948 82.7508 69.0048 79.2962C67.0616 75.7876 66.09 71.7392 66.09 67.1511C66.09 62.6169 67.0886 58.5956 69.0857 55.087C71.0829 51.5784 73.8088 48.8795 77.2634 46.9903C80.718 45.101 84.5775 44.1564 88.8417 44.1564C93.106 44.1564 96.9655 45.101 100.42 46.9903C103.875 48.8795 106.601 51.5784 108.598 55.087C110.595 58.5956 111.594 62.6169 111.594 67.1511C111.594 71.6853 110.568 75.7066 108.517 79.2152C106.466 82.7238 103.659 85.4497 100.096 87.3929C96.5876 89.2821 92.7012 90.2268 88.4369 90.2268ZM88.4369 82.211C90.8119 82.211 93.0251 81.6442 95.0762 80.5107C97.1814 79.3771 98.8817 77.6768 100.177 75.4098C101.473 73.1427 102.12 70.3898 102.12 67.1511C102.12 63.9124 101.5 61.1865 100.258 58.9734C99.0166 56.7063 97.3703 55.006 95.3191 53.8725C93.268 52.7389 91.0548 52.1722 88.6798 52.1722C86.3048 52.1722 84.0917 52.7389 82.0405 53.8725C80.0433 55.006 78.451 56.7063 77.2634 58.9734C76.0759 61.1865 75.4822 63.9124 75.4822 67.1511C75.4822 71.9552 76.6967 75.6796 79.1257 78.3246C81.6087 80.9155 84.7124 82.211 88.4369 82.211ZM143.227 44.1564C146.736 44.1564 149.866 44.8851 152.619 46.3425C155.426 47.7999 157.612 49.9591 159.178 52.8199C160.743 55.6807 161.526 59.1353 161.526 63.1837V89.498H152.376V64.5601C152.376 60.5658 151.378 57.516 149.381 55.4109C147.383 53.2517 144.657 52.1722 141.203 52.1722C137.748 52.1722 134.995 53.2517 132.944 55.4109C130.947 57.516 129.948 60.5658 129.948 64.5601V89.498H120.718V44.8851H129.948V49.986C131.46 48.1508 133.376 46.7204 135.697 45.6948C138.072 44.6692 140.582 44.1564 143.227 44.1564ZM195.808 44.1564C199.317 44.1564 202.448 44.8851 205.2 46.3425C208.007 47.7999 210.193 49.9591 211.759 52.8199C213.324 55.6807 214.107 59.1353 214.107 63.1837V89.498H204.958V64.5601C204.958 60.5658 203.959 57.516 201.962 55.4109C199.965 53.2517 197.239 52.1722 193.784 52.1722C190.329 52.1722 187.577 53.2517 185.525 55.4109C183.528 57.516 182.53 60.5658 182.53 64.5601V89.498H173.299V44.8851H182.53V49.986C184.041 48.1508 185.957 46.7204 188.278 45.6948C190.653 44.6692 193.163 44.1564 195.808 44.1564ZM266.769 66.0985C266.769 67.7718 266.661 69.2832 266.445 70.6327H232.358C232.628 74.1952 233.95 77.0561 236.325 79.2152C238.7 81.3743 241.615 82.4539 245.07 82.4539C250.036 82.4539 253.544 80.3757 255.596 76.2194H265.555C264.205 80.3218 261.749 83.6954 258.187 86.3403C254.678 88.9313 250.306 90.2268 245.07 90.2268C240.806 90.2268 236.973 89.2821 233.573 87.3929C230.226 85.4497 227.581 82.7508 225.638 79.2962C223.748 75.7876 222.804 71.7392 222.804 67.1511C222.804 62.563 223.722 58.5416 225.557 55.087C227.446 51.5784 230.064 48.8795 233.411 46.9903C236.811 45.101 240.698 44.1564 245.07 44.1564C249.28 44.1564 253.032 45.074 256.324 46.9093C259.617 48.7446 262.181 51.3355 264.016 54.6821C265.851 57.9748 266.769 61.7803 266.769 66.0985ZM257.134 63.1837C257.08 59.7831 255.865 57.0572 253.49 55.006C251.115 52.9548 248.174 51.9293 244.665 51.9293C241.48 51.9293 238.754 52.9548 236.487 55.006C234.22 57.0032 232.871 59.7291 232.439 63.1837H257.134ZM272.776 67.1511C272.776 62.563 273.693 58.5416 275.529 55.087C277.418 51.5784 280.009 48.8795 283.302 46.9903C286.594 45.101 290.373 44.1564 294.637 44.1564C300.035 44.1564 304.488 45.4519 307.997 48.0428C311.559 50.5798 313.961 54.2233 315.203 58.9734H305.244C304.434 56.7603 303.139 55.033 301.357 53.7915C299.576 52.55 297.336 51.9293 294.637 51.9293C290.858 51.9293 287.836 53.2787 285.569 55.9776C283.356 58.6226 282.249 62.347 282.249 67.1511C282.249 71.9552 283.356 75.7066 285.569 78.4055C287.836 81.1044 290.858 82.4539 294.637 82.4539C299.981 82.4539 303.516 80.1059 305.244 75.4098H315.203C313.907 79.9439 311.478 83.5605 307.916 86.2594C304.353 88.9043 299.927 90.2268 294.637 90.2268C290.373 90.2268 286.594 89.2821 283.302 87.3929C280.009 85.4497 277.418 82.7508 275.529 79.2962C273.693 75.7876 272.776 71.7392 272.776 67.1511ZM335.17 52.4151V77.1101C335.17 78.7834 335.548 79.9979 336.303 80.7536C337.113 81.4553 338.463 81.8062 340.352 81.8062H346.02V89.498H338.732C334.576 89.498 331.391 88.5264 329.178 86.5832C326.965 84.64 325.859 81.4823 325.859 77.1101V52.4151H320.596V44.8851H325.859V33.7926H335.17V44.8851H346.02V52.4151H335.17ZM435.475 44.8851L421.63 89.498H411.914L402.926 56.5444L393.939 89.498H384.223L370.296 44.8851H379.689L389 80.7536L398.473 44.8851H408.108L417.176 80.5917L426.407 44.8851H435.475ZM447.069 38.9745C445.396 38.9745 443.992 38.4077 442.859 37.2742C441.725 36.1407 441.159 34.7372 441.159 33.0639C441.159 31.3906 441.725 29.9872 442.859 28.8536C443.992 27.7201 445.396 27.1533 447.069 27.1533C448.688 27.1533 450.065 27.7201 451.198 28.8536C452.332 29.9872 452.899 31.3906 452.899 33.0639C452.899 34.7372 452.332 36.1407 451.198 37.2742C450.065 38.4077 448.688 38.9745 447.069 38.9745ZM451.603 44.8851V89.498H442.373V44.8851H451.603ZM474.49 52.4151V77.1101C474.49 78.7834 474.868 79.9979 475.624 80.7536C476.434 81.4553 477.783 81.8062 479.672 81.8062H485.34V89.498H478.053C473.897 89.498 470.712 88.5264 468.499 86.5832C466.286 84.64 465.179 81.4823 465.179 77.1101V52.4151H459.916V44.8851H465.179V33.7926H474.49V44.8851H485.34V52.4151H474.49ZM516.923 44.1564C520.324 44.1564 523.346 44.8851 525.991 46.3425C528.69 47.7999 530.795 49.9591 532.307 52.8199C533.872 55.6807 534.655 59.1353 534.655 63.1837V89.498H525.505V64.5601C525.505 60.5658 524.507 57.516 522.51 55.4109C520.512 53.2517 517.787 52.1722 514.332 52.1722C510.877 52.1722 508.124 53.2517 506.073 55.4109C504.076 57.516 503.078 60.5658 503.078 64.5601V89.498H493.847V29.5823H503.078V50.067C504.643 48.1778 506.613 46.7204 508.988 45.6948C511.417 44.6692 514.062 44.1564 516.923 44.1564Z" fill="black"/>
<path d="M612.398 33.2258V89.498H603.168V64.884H576.691V89.498H567.461V33.2258H576.691V57.3541H603.168V33.2258H612.398ZM643.9 90.2268C639.69 90.2268 635.885 89.2821 632.484 87.3929C629.083 85.4497 626.411 82.7508 624.468 79.2962C622.525 75.7876 621.553 71.7392 621.553 67.1511C621.553 62.6169 622.552 58.5956 624.549 55.087C626.546 51.5784 629.272 48.8795 632.727 46.9903C636.182 45.101 640.041 44.1564 644.305 44.1564C648.569 44.1564 652.429 45.101 655.884 46.9903C659.338 48.8795 662.064 51.5784 664.061 55.087C666.058 58.5956 667.057 62.6169 667.057 67.1511C667.057 71.6853 666.031 75.7066 663.98 79.2152C661.929 82.7238 659.122 85.4497 655.56 87.3929C652.051 89.2821 648.165 90.2268 643.9 90.2268ZM643.9 82.211C646.275 82.211 648.489 81.6442 650.54 80.5107C652.645 79.3771 654.345 77.6768 655.641 75.4098C656.936 73.1427 657.584 70.3898 657.584 67.1511C657.584 63.9124 656.963 61.1865 655.722 58.9734C654.48 56.7063 652.834 55.006 650.783 53.8725C648.731 52.7389 646.518 52.1722 644.143 52.1722C641.768 52.1722 639.555 52.7389 637.504 53.8725C635.507 55.006 633.914 56.7063 632.727 58.9734C631.539 61.1865 630.946 63.9124 630.946 67.1511C630.946 71.9552 632.16 75.6796 634.589 78.3246C637.072 80.9155 640.176 82.211 643.9 82.211ZM695.533 90.2268C691.322 90.2268 687.517 89.2821 684.116 87.3929C680.716 85.4497 678.044 82.7508 676.101 79.2962C674.157 75.7876 673.186 71.7392 673.186 67.1511C673.186 62.6169 674.184 58.5956 676.182 55.087C678.179 51.5784 680.905 48.8795 684.359 46.9903C687.814 45.101 691.673 44.1564 695.938 44.1564C700.202 44.1564 704.061 45.101 707.516 46.9903C710.971 48.8795 713.696 51.5784 715.694 55.087C717.691 58.5956 718.689 62.6169 718.689 67.1511C718.689 71.6853 717.664 75.7066 715.613 79.2152C713.561 82.7238 710.755 85.4497 707.192 87.3929C703.683 89.2821 699.797 90.2268 695.533 90.2268ZM695.533 82.211C697.908 82.211 700.121 81.6442 702.172 80.5107C704.277 79.3771 705.978 77.6768 707.273 75.4098C708.568 73.1427 709.216 70.3898 709.216 67.1511C709.216 63.9124 708.595 61.1865 707.354 58.9734C706.112 56.7063 704.466 55.006 702.415 53.8725C700.364 52.7389 698.151 52.1722 695.776 52.1722C693.401 52.1722 691.188 52.7389 689.136 53.8725C687.139 55.006 685.547 56.7063 684.359 58.9734C683.172 61.1865 682.578 63.9124 682.578 67.1511C682.578 71.9552 683.793 75.6796 686.222 78.3246C688.705 80.9155 691.808 82.211 695.533 82.211ZM724.737 66.9892C724.737 62.509 725.655 58.5416 727.49 55.087C729.379 51.6324 731.916 48.9605 735.101 47.0712C738.34 45.128 741.929 44.1564 745.87 44.1564C748.785 44.1564 751.645 44.8042 754.452 46.0996C757.313 47.3411 759.58 49.0144 761.253 51.1196V29.5823H770.565V89.498H761.253V82.7778C759.742 84.9369 757.637 86.7182 754.938 88.1216C752.293 89.525 749.243 90.2268 745.789 90.2268C741.902 90.2268 738.34 89.2551 735.101 87.3119C731.916 85.3147 729.379 82.5619 727.49 79.0533C725.655 75.4907 724.737 71.4693 724.737 66.9892ZM761.253 67.1511C761.253 64.0743 760.606 61.4024 759.31 59.1353C758.069 56.8683 756.422 55.141 754.371 53.9534C752.32 52.7659 750.107 52.1722 747.732 52.1722C745.357 52.1722 743.144 52.7659 741.093 53.9534C739.041 55.087 737.368 56.7873 736.073 59.0544C734.831 61.2675 734.21 63.9124 734.21 66.9892C734.21 70.0659 734.831 72.7648 736.073 75.0859C737.368 77.4069 739.041 79.1882 741.093 80.4297C743.198 81.6172 745.411 82.211 747.732 82.211C750.107 82.211 752.32 81.6172 754.371 80.4297C756.422 79.2422 758.069 77.5149 759.31 75.2478C760.606 72.9268 761.253 70.2279 761.253 67.1511ZM787.384 38.9745C785.711 38.9745 784.308 38.4077 783.174 37.2742C782.041 36.1407 781.474 34.7372 781.474 33.0639C781.474 31.3906 782.041 29.9872 783.174 28.8536C784.308 27.7201 785.711 27.1533 787.384 27.1533C789.004 27.1533 790.38 27.7201 791.514 28.8536C792.647 29.9872 793.214 31.3906 793.214 33.0639C793.214 34.7372 792.647 36.1407 791.514 37.2742C790.38 38.4077 789.004 38.9745 787.384 38.9745ZM791.919 44.8851V89.498H782.688V44.8851H791.919ZM800.96 66.9892C800.96 62.509 801.878 58.5416 803.713 55.087C805.602 51.6324 808.139 48.9605 811.324 47.0712C814.563 45.128 818.125 44.1564 822.012 44.1564C825.52 44.1564 828.57 44.8581 831.161 46.2616C833.806 47.611 835.911 49.3113 837.476 51.3625V44.8851H846.788V89.498H837.476V82.8587C835.911 84.9639 833.779 86.7182 831.08 88.1216C828.381 89.525 825.304 90.2268 821.85 90.2268C818.017 90.2268 814.509 89.2551 811.324 87.3119C808.139 85.3147 805.602 82.5619 803.713 79.0533C801.878 75.4907 800.96 71.4693 800.96 66.9892ZM837.476 67.1511C837.476 64.0743 836.829 61.4024 835.533 59.1353C834.292 56.8683 832.645 55.141 830.594 53.9534C828.543 52.7659 826.33 52.1722 823.955 52.1722C821.58 52.1722 819.367 52.7659 817.316 53.9534C815.264 55.087 813.591 56.7873 812.296 59.0544C811.054 61.2675 810.433 63.9124 810.433 66.9892C810.433 70.0659 811.054 72.7648 812.296 75.0859C813.591 77.4069 815.264 79.1882 817.316 80.4297C819.421 81.6172 821.634 82.211 823.955 82.211C826.33 82.211 828.543 81.6172 830.594 80.4297C832.645 79.2422 834.292 77.5149 835.533 75.2478C836.829 72.9268 837.476 70.2279 837.476 67.1511ZM881.42 44.1564C884.929 44.1564 888.059 44.8851 890.812 46.3425C893.619 47.7999 895.805 49.9591 897.371 52.8199C898.936 55.6807 899.719 59.1353 899.719 63.1837V89.498H890.569V64.5601C890.569 60.5658 889.571 57.516 887.574 55.4109C885.576 53.2517 882.851 52.1722 879.396 52.1722C875.941 52.1722 873.189 53.2517 871.137 55.4109C869.14 57.516 868.142 60.5658 868.142 64.5601V89.498H858.911V44.8851H868.142V49.986C869.653 48.1508 871.569 46.7204 873.89 45.6948C876.265 44.6692 878.775 44.1564 881.42 44.1564ZM927.686 90.2268C924.177 90.2268 921.02 89.606 918.213 88.3645C915.46 87.069 913.274 85.3417 911.654 83.1826C910.035 80.9695 909.171 78.5135 909.064 75.8146H918.618C918.78 77.7038 919.67 79.2962 921.29 80.5917C922.963 81.8332 925.041 82.4539 927.524 82.4539C930.115 82.4539 932.112 81.9681 933.516 80.9965C934.973 79.9709 935.702 78.6754 935.702 77.1101C935.702 75.4367 934.892 74.1952 933.273 73.3856C931.707 72.5759 929.197 71.6853 925.743 70.7137C922.396 69.796 919.67 68.9054 917.565 68.0417C915.46 67.1781 913.625 65.8556 912.059 64.0743C910.548 62.2931 909.792 59.945 909.792 57.0302C909.792 54.6552 910.494 52.496 911.897 50.5528C913.301 48.5556 915.298 46.9903 917.889 45.8567C920.534 44.7232 923.557 44.1564 926.957 44.1564C932.031 44.1564 936.107 45.4519 939.183 48.0428C942.314 50.5798 943.987 54.0614 944.203 58.4876H934.973C934.811 56.4904 934.001 54.8981 932.544 53.7105C931.087 52.523 929.116 51.9293 926.633 51.9293C924.204 51.9293 922.342 52.3881 921.047 53.3057C919.751 54.2233 919.103 55.4378 919.103 56.9492C919.103 58.1367 919.535 59.1353 920.399 59.945C921.263 60.7547 922.315 61.4024 923.557 61.8882C924.798 62.3201 926.633 62.8868 929.062 63.5885C932.301 64.4522 934.946 65.3428 936.997 66.2605C939.102 67.1241 940.911 68.4196 942.422 70.1469C943.933 71.8742 944.716 74.1683 944.77 77.0291C944.77 79.5661 944.068 81.8332 942.665 83.8303C941.261 85.8275 939.264 87.3929 936.673 88.5264C934.136 89.66 931.141 90.2268 927.686 90.2268Z" fill="#FBB90F"/>
</svg>
