<svg width="135" height="200" viewBox="0 0 135 200" fill="none" xmlns="http://www.w3.org/2000/svg">
<path d="M63.2815 0.0321916C59.2682 -0.0543947 55.2493 0.244511 51.4031 0.909777C47.5555 1.56896 43.8849 2.58146 40.5306 3.8118C38.8517 4.42365 37.2547 5.09854 35.7471 5.80174C35.5584 5.88932 35.3708 5.97646 35.1841 6.06315C34.9994 6.15405 34.8158 6.2444 34.6331 6.33419C34.2687 6.51599 33.9039 6.68706 33.5531 6.87527C33.2005 7.05984 32.852 7.2423 32.5079 7.42255C32.1681 7.61076 31.8326 7.79665 31.5016 7.98011C30.1858 8.72809 28.958 9.46711 27.8453 10.2086C27.7054 10.3 27.5667 10.3906 27.4293 10.4804C27.2925 10.571 27.1595 10.6647 27.0264 10.7555C26.761 10.9381 26.5006 11.1171 26.2455 11.2926C25.9912 11.4693 25.7478 11.6503 25.5068 11.8233C25.2674 11.9986 25.0293 12.1644 24.8041 12.3365C21.0934 15.1139 17.6978 18.3172 14.7447 21.8831C13.8971 22.8919 12.981 24.0733 12.0192 25.4081C11.0591 26.7439 10.0601 28.2398 9.07639 29.8936C8.09342 31.5476 7.11764 33.355 6.20511 35.3067C5.29169 37.2576 4.43767 39.3502 3.68227 41.56C2.16132 45.9755 1.0776 50.8759 0.611609 55.9556C0.585953 56.2733 0.560299 56.5914 0.534533 56.91L0.496271 57.3882L0.469621 57.8676C0.451928 58.1874 0.434236 58.5077 0.416543 58.8283C0.400398 59.1489 0.395201 59.4702 0.384143 59.7917C0.338472 61.0779 0.352956 62.3706 0.388563 63.6474C0.397078 63.9676 0.40095 64.2882 0.413557 64.6083L0.464424 65.5684C0.50158 66.2082 0.523142 66.8492 0.584405 67.4867C0.639365 68.1246 0.68559 68.7631 0.748069 69.399C0.819395 70.0338 0.890611 70.668 0.961715 71.3012C1.28008 73.829 1.7087 76.3221 2.22734 78.7512C2.36391 79.3568 2.49992 79.9599 2.63538 80.5601C2.78014 81.1578 2.93429 81.7501 3.08225 82.3404C3.22501 82.9323 3.39719 83.5121 3.55699 84.0918C3.63793 84.3813 3.71866 84.6698 3.79916 84.9575C3.87933 85.2453 3.97156 85.5282 4.05671 85.8122C4.73181 88.0873 5.49572 90.2639 6.27732 92.3361C7.05228 94.4118 7.88873 96.3657 8.70151 98.2059C10.3511 101.876 11.9949 105.051 13.4149 107.622C14.8363 110.194 16.0274 112.167 16.7869 113.445C17.9057 115.301 19.0813 117.122 20.3346 118.882C21.6526 120.735 23.4248 123.146 25.6019 125.911C27.7828 128.673 30.3652 131.791 33.2762 135.077C36.1845 138.365 39.4131 141.827 42.8361 145.32C46.2563 148.815 49.8717 152.341 53.4838 155.824C55.0609 157.346 56.5704 158.809 58.0159 160.24C58.7367 160.956 59.4447 161.663 60.1296 162.367C60.2563 162.498 60.3827 162.629 60.5091 162.759C60.6416 162.898 60.7739 163.036 60.9062 163.174C61.1706 163.451 61.4356 163.726 61.6964 164.01C62.2194 164.576 62.7397 165.139 63.2577 165.699H75.4634C75.4634 165.699 117.63 131.043 132.989 78.6803C132.99 78.6793 132.99 78.6772 132.99 78.6761C143.289 29.9045 110.129 0.0321916 63.2815 0.0321916ZM103.614 58.9375C103.593 58.6892 103.571 58.4484 103.547 58.2112C103.623 58.1745 103.691 58.1381 103.745 58.1032C103.899 58.0042 104.058 57.9201 104.227 57.8561C105.017 57.55 106.942 56.8045 107.703 56.5101C107.897 56.4348 108.087 56.3496 108.273 56.2541C109.119 55.8195 111.794 54.4937 112.325 54.3307C112.421 54.3009 112.514 54.2613 112.601 54.209C112.967 53.9885 113.798 53.4931 114.658 53.0992C115.292 52.8085 115.821 52.7495 116.511 52.4317C116.998 52.2075 117.471 51.9882 117.899 51.7886C117.925 51.9257 117.95 52.0629 117.973 52.2022C118.029 52.5562 118.086 52.9149 118.143 53.2773C118.172 53.4587 118.202 53.6409 118.231 53.8242C118.255 54.0082 118.279 54.1931 118.304 54.3789C118.353 54.7506 118.402 55.1255 118.451 55.503C118.502 55.8806 118.532 56.2633 118.575 56.6466C118.595 56.8384 118.615 57.0308 118.635 57.2235C118.656 57.4162 118.677 57.6092 118.689 57.8035C118.719 58.1918 118.75 58.5811 118.78 58.9709C118.794 59.166 118.813 59.361 118.824 59.5565L118.854 60.1434C118.872 60.4706 118.888 60.7979 118.902 61.1247C118.088 61.4353 117.748 61.4408 117.307 61.6909C116.961 61.8163 113.506 63.2252 112.421 63.681L110.078 64.7766C109.02 65.1652 106.807 66.0392 106.06 66.5759C105.522 66.8404 104.131 67.3574 103.316 67.6542C103.53 66.2509 103.654 64.9038 103.709 63.6348C103.788 61.9149 103.722 60.3383 103.614 58.9375ZM116.42 50.8027C116.084 50.9241 112.723 52.2926 111.668 52.7356L109.391 53.8033C108.362 54.1796 106.209 55.0279 105.485 55.5549C105.063 55.763 104.102 56.1289 103.329 56.4136C103.104 54.8513 102.833 53.6282 102.63 52.7918C102.263 51.2381 101.841 49.9253 101.414 48.8156L101.344 48.5286L101.195 47.9251C101.303 47.8766 101.398 47.8278 101.47 47.7813C101.619 47.6844 101.774 47.6024 101.938 47.5404C102.708 47.2442 104.584 46.5226 105.324 46.2377C105.514 46.1648 105.699 46.082 105.879 45.9888C106.703 45.5652 109.307 44.2738 109.824 44.1172C109.918 44.0887 110.008 44.0502 110.092 43.999C110.448 43.7834 111.256 43.2989 112.093 42.916C112.711 42.6333 113.228 42.5803 113.899 42.2714C114.357 42.0606 114.803 41.8543 115.209 41.6654C115.232 41.7309 115.244 41.7661 115.244 41.7661C115.244 41.7661 115.267 41.8273 115.311 41.9446C115.353 42.0623 115.411 42.2382 115.488 42.4647C115.639 42.9185 115.875 43.5735 116.121 44.4077C116.586 45.9077 117.15 47.9744 117.63 50.3775C117.074 50.5629 116.782 50.5966 116.42 50.8027ZM113.797 40.6481C113.47 40.7655 110.196 42.0917 109.169 42.5214L106.952 43.5599C105.95 43.9235 103.853 44.7448 103.15 45.2619C102.674 45.4964 101.495 45.9335 100.711 46.2164C100.599 45.8836 100.471 45.512 100.329 45.1055C100.195 44.7665 100.046 44.4052 99.8896 44.0227C99.7295 43.6417 99.5741 43.2333 99.3714 42.8269C99.1754 42.4168 98.9713 41.9902 98.7611 41.5503C98.7099 41.4394 98.6526 41.3309 98.5927 41.2226C98.5338 41.1139 98.4745 41.0044 98.4148 40.8942C98.2948 40.6739 98.1733 40.451 98.0505 40.2256C97.9254 40.0014 97.8067 39.7702 97.672 39.546C97.5352 39.3229 97.3973 39.0979 97.2585 38.8714C97.1483 38.6952 97.0394 38.5164 96.9294 38.3376C96.9929 38.307 97.0573 38.2782 97.1233 38.2536C97.9092 37.9533 99.8234 37.2222 100.579 36.9334C100.772 36.8596 100.961 36.7757 101.146 36.6818C101.988 36.2536 104.648 34.9479 105.176 34.7888C105.272 34.7598 105.364 34.7209 105.45 34.6691C105.814 34.4514 106.641 33.9624 107.496 33.5749C108.127 33.289 108.652 33.2338 109.338 32.9213C109.884 32.6726 110.414 32.4297 110.879 32.2143C111.202 32.7634 111.504 33.3002 111.78 33.823C113.041 36.1612 113.887 38.1633 114.434 39.5642C114.54 39.8394 114.64 40.0888 114.727 40.3155C114.338 40.4311 114.09 40.48 113.797 40.6481ZM109.251 31.2938C108.916 31.4128 105.575 32.7558 104.526 33.191L102.262 34.2414C101.239 34.6101 99.0985 35.4421 98.3786 35.9635C97.9091 36.1929 96.7674 36.615 95.9694 36.902C95.8016 36.6583 95.6323 36.4151 95.4577 36.1762C95.1254 35.7449 94.7936 35.3142 94.4645 34.8871C94.3036 34.6705 94.1218 34.4725 93.9504 34.2681C93.7766 34.0656 93.6038 33.8643 93.4323 33.6647C93.3463 33.5651 93.2607 33.4659 93.1755 33.3671C93.0902 33.2684 93.0062 33.1693 92.9154 33.0772C92.737 32.8901 92.5605 32.7049 92.386 32.5219C92.2109 32.3395 92.0378 32.1595 91.8672 31.9819C91.7812 31.8937 91.6979 31.8044 91.6113 31.7195C91.523 31.6363 91.4353 31.5538 91.3485 31.472C90.9993 31.1469 90.6617 30.8327 90.3388 30.532C90.1794 30.3794 90.0107 30.2448 89.8498 30.1097C89.8078 30.075 89.7669 30.0411 89.7254 30.0069C90.6433 29.6586 92.507 28.9515 93.2698 28.6621C93.4768 28.5834 93.6798 28.4949 93.8785 28.396C94.7836 27.9459 97.6432 26.5718 98.2072 26.4002C98.3099 26.3689 98.4086 26.3278 98.5018 26.2737C98.8942 26.0462 99.785 25.535 100.703 25.126C101.381 24.8241 101.94 24.7574 102.676 24.4274C103.351 24.1251 104.005 23.8307 104.554 23.5799C105.312 24.4176 106.026 25.2617 106.692 26.1048C106.826 26.2744 106.965 26.4384 107.093 26.6095C107.221 26.7801 107.349 26.9495 107.477 27.1179C107.731 27.4548 107.986 27.7846 108.219 28.1233C108.456 28.4597 108.695 28.7876 108.921 29.1173C109.142 29.4502 109.36 29.7781 109.575 30.1009C109.765 30.3963 109.949 30.6882 110.129 30.9772C109.772 31.0803 109.533 31.1343 109.251 31.2938ZM88.1919 28.7932C87.8083 28.513 87.4247 28.2328 87.0409 27.9524C86.5408 27.6139 86.0404 27.2751 85.5399 26.9363L85.3525 26.8093L85.16 26.6897L84.7754 26.45L84.008 25.9677C83.8798 25.8881 83.7542 25.8038 83.6239 25.7275L83.2311 25.5014L82.4471 25.0459C82.2936 24.9563 82.1367 24.8647 81.9764 24.7711C81.8136 24.6821 81.6447 24.5964 81.4738 24.5063C81.1311 24.3276 80.7751 24.142 80.4067 23.9499C80.3141 23.9027 80.2224 23.8519 80.127 23.8067C80.0312 23.7624 79.9345 23.7177 79.8372 23.6727C79.6423 23.5828 79.4444 23.4914 79.2435 23.3988C79.0758 23.3217 78.905 23.2431 78.7332 23.1641C79.8833 22.7305 81.5343 22.1079 82.2824 21.8258C82.5252 21.7342 82.764 21.6325 82.9985 21.5207C84.0669 21.0113 87.439 19.4509 88.0974 19.245C88.2174 19.2075 88.3333 19.1599 88.4437 19.0996C88.9092 18.8456 89.965 18.2744 91.0455 17.8063C91.8429 17.4608 92.4889 17.3626 93.3557 16.9852C94.2844 16.5809 95.1791 16.1893 95.8833 15.8759C96.9181 16.6144 97.9209 17.383 98.8839 18.1772C100.549 19.5485 102.098 20.9912 103.512 22.464C103.163 22.565 102.918 22.6267 102.631 22.7848C102.273 22.9119 98.6902 24.338 97.5649 24.7992L95.1332 25.9072C94.0372 26.3009 91.743 27.1857 90.9642 27.7274C90.4208 27.9872 89.0443 28.4892 88.1919 28.7932ZM88.8764 11.6077C90.8092 12.5995 92.6922 13.7107 94.4922 14.9151C94.0592 15.0457 93.7664 15.1208 93.413 15.3049C92.994 15.4542 88.7884 17.1066 87.4668 17.6393L84.6031 18.9044C83.3195 19.3662 80.6284 20.3952 79.6989 20.9918C79.0605 21.2861 77.4579 21.8704 76.4589 22.2278C76.2958 22.1674 76.1289 22.1131 75.9626 22.0538C75.7257 21.9718 75.4863 21.8889 75.2446 21.8053C75.0026 21.7222 74.7584 21.6383 74.5119 21.5536C74.2617 21.4805 74.0093 21.4067 73.7547 21.3323C73.4999 21.2582 73.243 21.1836 72.9842 21.1083C72.8547 21.0708 72.7246 21.0331 72.5941 20.9953C72.4628 20.9608 72.3296 20.9311 72.1967 20.8987C71.6639 20.7722 71.1235 20.6439 70.5764 20.5141C70.0236 20.4112 69.464 20.307 68.8986 20.2018C68.757 20.1766 68.6156 20.1479 68.4728 20.1255C68.3296 20.1062 68.1861 20.0868 68.0422 20.0675C67.7544 20.029 67.4652 19.9903 67.1749 19.9515C67.0297 19.9322 66.8842 19.9129 66.7383 19.8935C66.5924 19.8754 66.4467 19.8513 66.2994 19.8421C66.0053 19.8177 65.71 19.7931 65.4138 19.7685C65.1174 19.7442 64.8202 19.7199 64.522 19.6956C64.4475 19.6902 64.373 19.6821 64.2982 19.6789L64.0737 19.6715C63.924 19.6666 63.7739 19.6617 63.6238 19.6569C63.3234 19.6475 63.0223 19.638 62.7206 19.6285L62.2676 19.6147C62.1164 19.6102 61.9651 19.6181 61.8137 19.6192C61.2081 19.6313 60.6003 19.639 59.992 19.6575C59.6183 19.6836 59.2441 19.7097 58.8701 19.7357C59.0558 19.6639 59.2414 19.592 59.4265 19.5199C62.4995 18.3319 65.4502 17.138 67.035 16.4122C68.5996 15.7708 71.8748 14.5207 74.7524 13.4136C77.6315 12.3111 80.1164 11.3594 80.1164 11.3594C80.1164 11.3594 80.8809 11.0458 81.8834 10.6082C82.6272 10.2814 83.5018 9.88556 84.2925 9.4994C85.8354 10.1297 87.3703 10.8321 88.8764 11.6077ZM62.6155 24.7181C63.1175 24.7276 63.6332 24.7478 64.1612 24.7637C64.6663 24.8037 65.1827 24.8448 65.7087 24.8864L65.9064 24.902C65.9723 24.9089 66.0379 24.919 66.1039 24.9274C66.2358 24.9448 66.3682 24.9624 66.5012 24.98C66.7672 25.0151 67.0354 25.0504 67.3056 25.086C69.462 25.4014 71.715 25.9381 73.9137 26.7082C76.1134 27.475 78.256 28.4734 80.2158 29.6251C82.178 30.7744 83.9554 32.0747 85.4826 33.3828C85.8583 33.7168 86.2256 34.0434 86.5833 34.3613C86.9252 34.6959 87.2579 35.0215 87.5802 35.337C87.6607 35.4157 87.7407 35.4939 87.8198 35.5714C87.8953 35.6528 87.9699 35.7334 88.044 35.8133C88.1922 35.9731 88.3378 36.1301 88.4807 36.284C88.6237 36.4377 88.7639 36.5885 88.9012 36.7363C88.9712 36.8088 89.0367 36.8842 89.0993 36.9606C89.1629 37.0362 89.2257 37.1109 89.2878 37.1848C89.5366 37.4798 89.7739 37.7614 89.9989 38.0281C90.1143 38.1589 90.2143 38.2963 90.3144 38.4269C90.4141 38.5577 90.5109 38.6845 90.6044 38.8073C90.7917 39.0523 90.9663 39.2808 91.1274 39.4913C91.2837 39.7052 91.4168 39.9083 91.542 40.0871C91.7901 40.4464 91.9834 40.7264 92.1147 40.9166C92.1824 41.0103 92.2238 41.0887 92.2565 41.1382C92.2877 41.1888 92.3037 41.2147 92.3037 41.2147C92.3037 41.2147 92.387 41.3412 92.5395 41.5727C92.6162 41.6883 92.7104 41.83 92.8201 41.9954C92.8752 42.0779 92.9342 42.1663 92.997 42.2603C93.0599 42.3542 93.128 42.4527 93.1905 42.5621C93.3204 42.7779 93.4634 43.015 93.6176 43.2709C93.6952 43.3988 93.7757 43.5312 93.8588 43.668C93.9417 43.8049 94.0309 43.9444 94.1087 44.0953C94.2718 44.3935 94.4437 44.708 94.6232 45.0359C94.712 45.2006 94.8093 45.3656 94.897 45.539C94.9826 45.7136 95.0699 45.8913 95.1583 46.0718C95.899 47.5022 96.5895 49.1779 97.2043 50.8795C97.8352 52.5787 98.295 54.3302 98.7021 55.8863C98.879 56.6687 99.0862 57.3981 99.2198 58.0594C99.3563 58.6653 99.5094 59.2049 99.6262 59.6618C99.6315 59.7501 99.6356 59.8381 99.6387 59.9257C99.6451 60.0791 99.6514 60.2312 99.6577 60.3824C99.6934 60.9872 99.6808 61.5735 99.6851 62.1434C99.684 62.4283 99.6667 62.7081 99.6585 62.9842C99.647 63.2602 99.6428 63.5327 99.6174 63.7994C99.4705 65.9385 99.1374 67.8008 98.7165 69.4302C98.2946 71.0602 97.7857 72.4579 97.2564 73.6871C96.7245 74.9157 96.1776 75.9794 95.6294 76.9392C95.4922 77.1789 95.3484 77.4092 95.2128 77.6379C95.1445 77.752 95.0768 77.865 95.0097 77.9771C94.9387 78.0872 94.8684 78.1962 94.7985 78.3046C94.6593 78.5211 94.522 78.7345 94.3866 78.9453C94.2446 79.1521 94.1042 79.3563 93.9651 79.5588C93.896 79.6602 93.8273 79.7613 93.7588 79.8619C93.687 79.9605 93.6156 80.0587 93.5443 80.1567C93.4026 80.3532 93.2617 80.5486 93.1212 80.7437L92.6848 81.3185C92.5398 81.5106 92.3969 81.7045 92.243 81.8924C92.0927 82.0828 91.9417 82.2744 91.7893 82.4674C91.6372 82.6609 91.4745 82.849 91.3162 83.0444C91.0031 83.438 90.6588 83.8224 90.3158 84.2333C90.1336 84.4209 89.8469 84.7159 89.4673 85.1067C89.2721 85.297 89.0529 85.5107 88.8114 85.7461C88.5701 85.9818 88.2936 86.2266 88.0027 86.4985C87.7096 86.768 87.3816 87.0435 87.0408 87.3448C86.8652 87.4898 86.6844 87.6392 86.4985 87.7928C86.3131 87.9468 86.1226 88.1051 85.9204 88.2592C85.7201 88.4157 85.515 88.576 85.305 88.74C85.0906 88.8986 84.8714 89.0607 84.6476 89.2263C84.4257 89.3945 84.1912 89.5555 83.9534 89.7213C83.7153 89.8868 83.4757 90.0595 83.2225 90.2222C81.227 91.565 78.8171 92.9118 76.1027 94.0594C74.7458 94.6321 73.3128 95.1527 71.8254 95.5954C70.3371 96.0339 68.7943 96.3918 67.2262 96.6467C65.6586 96.9059 64.0648 97.0446 62.4861 97.0587L62.1898 97.063L61.8873 97.0541L61.2822 97.0367L60.9996 97.029C46.9488 91.198 37.066 77.348 37.066 61.1881C37.0663 44.4157 47.7127 30.1306 62.6155 24.7181ZM98.7057 80.5937C98.7799 80.4671 98.8564 80.3423 98.9282 80.2149C98.9985 80.0867 99.0687 79.9586 99.1389 79.831C99.2781 79.5751 99.4203 79.3224 99.5549 79.0668C99.6852 78.8088 99.8149 78.552 99.9439 78.2964C100.007 78.168 100.075 78.042 100.135 77.9125C100.194 77.7832 100.254 77.654 100.314 77.5252C100.432 77.2672 100.553 77.0117 100.667 76.7551C100.776 76.4959 100.885 76.2379 100.993 75.9812C101.046 75.8528 101.1 75.7249 101.154 75.5972C101.203 75.4677 101.252 75.3385 101.301 75.2097C102.025 73.3253 102.57 71.4597 102.951 69.6601C103.356 69.5509 103.971 69.333 104.252 69.1534C104.41 69.0524 104.574 68.9663 104.747 68.9003C105.56 68.5847 107.539 67.8161 108.321 67.5126C108.521 67.4349 108.716 67.3474 108.908 67.2496C109.779 66.8044 112.532 65.4452 113.077 65.276C113.176 65.2452 113.271 65.2045 113.361 65.151C113.738 64.9257 114.594 64.4196 115.478 64.0152C116.131 63.7167 116.674 63.652 117.383 63.3258C117.938 63.0706 118.478 62.8213 118.953 62.5995C118.977 63.5308 118.986 64.4542 118.982 65.3592C118.95 65.4962 118.919 65.6356 118.89 65.7782C118.857 65.938 118.827 66.101 118.798 66.2668C118.769 66.4327 118.731 66.6014 118.701 66.7725C118.638 67.1149 118.583 67.4672 118.536 67.8266C118.493 68.1867 118.449 68.553 118.405 68.9225C118.266 70.2574 118.086 71.5562 117.878 72.8222C116.72 73.2824 116.281 73.3146 115.673 73.6355C115.224 73.8033 110.716 75.6426 109.299 76.2342L106.227 77.6281C104.852 78.1465 101.968 79.2949 100.968 79.9353C100.474 80.1684 99.4429 80.5743 98.5045 80.9331C98.5717 80.8198 98.6389 80.7063 98.7057 80.5937ZM32.0539 14.2801C35.4203 12.1336 38.8904 10.4187 42.256 9.11712C45.6228 7.81479 48.8787 6.91188 51.8382 6.31407C54.7989 5.71703 57.4589 5.39612 59.6722 5.22792C60.5048 5.18502 61.4263 5.15715 62.4232 5.15593C62.0545 5.32336 61.6807 5.48016 61.3007 5.62149C59.205 6.40054 54.0954 8.30013 52.0784 9.05C51.5622 9.24031 51.05 9.44057 50.5418 9.65112C49.3845 10.1297 46.9828 11.11 44.6948 12.0217C42.407 12.9342 40.2341 13.7814 39.5408 14.0093C39.2884 14.0926 39.0397 14.1859 38.7962 14.2921C37.7713 14.7403 35.4458 15.7472 33.1133 16.639C31.3919 17.2971 30.0751 17.6203 28.2012 18.3324C27.1171 18.7442 26.0536 19.1478 25.064 19.5234C27.2917 17.5722 29.6418 15.8107 32.0539 14.2801ZM14.6102 31.6206C15.7318 29.8862 16.9561 28.1974 18.2702 26.5758C19.5812 24.9568 20.9824 23.4045 22.4625 21.9444C25.1789 20.9676 26.0204 20.8325 27.3567 20.2769C27.8032 20.1239 30.2846 19.2352 33.0062 18.2454C35.7286 17.2578 38.6907 16.167 40.109 15.6384L46.2971 13.2098C49.026 12.2401 54.7649 10.1113 56.8407 9.09213C57.8756 8.66627 60.0505 7.85979 61.9641 7.15206C63.8793 6.44953 65.5326 5.84298 65.5326 5.84298C65.5326 5.84298 66.0391 5.63708 66.7005 5.34193C66.7144 5.33563 66.7295 5.32877 66.7435 5.32247C67.0556 5.34691 67.3708 5.37367 67.6911 5.40441C69.2529 5.55436 70.9094 5.77431 72.6294 6.08594C74.3492 6.39877 76.1305 6.80926 77.9417 7.31738C79.3603 7.71493 80.7965 8.17783 82.2337 8.70321L82.1338 8.73295C81.0222 9.09578 77.5279 10.3976 76.0324 11.0709C75.3784 11.3638 74.7163 11.6424 74.0459 11.9007C72.4693 12.5074 69.7587 13.5504 67.063 14.5878C64.3634 15.6151 61.6786 16.6366 60.1589 17.215C59.3811 17.5088 58.6074 17.8125 57.838 18.1265C56.0851 18.8396 52.4494 20.304 48.9856 21.6663C48.931 21.6879 48.8765 21.7094 48.8219 21.731C47.4418 22.1857 46.1193 22.7025 44.8757 23.2707C44.637 23.3628 44.4046 23.4524 44.1808 23.5385C42.796 24.0723 41.7131 24.4785 41.1917 24.6573C40.8121 24.7881 40.4361 24.9291 40.0657 25.0829C38.5066 25.7324 34.9683 27.1903 31.4364 28.52C30.1329 29.0097 28.9901 29.3946 27.8188 29.7903C26.6466 30.1832 25.4455 30.5863 24.0263 31.116C19.1653 32.9248 14.5738 34.6153 12.3537 35.4454C13.0505 34.1528 13.8023 32.8746 14.6102 31.6206ZM9.18808 42.3882C9.84328 40.6492 10.6012 38.9058 11.4571 37.1797C18.632 34.5035 19.9385 34.3109 22.4753 33.3121C22.8127 33.1964 23.9186 32.8021 25.4544 32.2498C26.2222 31.9738 27.098 31.659 28.039 31.3207C28.9791 30.9794 29.9845 30.6145 31.013 30.2412C32.9065 29.5541 34.8757 28.8329 36.6592 28.1761C36.5166 28.2865 36.376 28.3956 36.2385 28.5021C35.943 28.7354 35.6506 28.948 35.3932 29.1774C33.2229 30.9757 31.2551 33.0189 29.5429 35.252C29.3015 35.5715 29.044 35.9123 28.7714 36.273C28.5154 36.6457 28.2452 37.0388 27.962 37.4511C27.6711 37.8578 27.4028 38.3074 27.1158 38.7696C26.9728 39.0009 26.827 39.2368 26.6786 39.4771C26.6022 39.5957 26.5352 39.7217 26.4651 39.8471C26.3953 39.9727 26.325 40.0994 26.254 40.2273C26.0116 40.6558 25.7703 41.1017 25.5318 41.5625C24.965 41.7175 24.6321 41.7729 24.2119 41.9706C23.7829 42.1048 19.4706 43.6054 18.1148 44.0904L15.1724 45.2521C13.8581 45.6676 11.0998 46.5996 10.1368 47.1627C9.59016 47.3885 8.3607 47.7913 7.37397 48.1054C7.86219 46.2258 8.46199 44.3104 9.18808 42.3882ZM5.72042 57.9207C5.84859 56.36 6.04299 54.7218 6.32575 53.0273C6.48344 52.0783 6.67066 51.111 6.88718 50.1311C7.17956 50.0355 7.45392 49.932 7.6303 49.8392C7.83233 49.7331 8.04023 49.6419 8.25565 49.5715C9.26726 49.2349 11.7324 48.4146 12.7057 48.0907C12.9545 48.0078 13.1997 47.9149 13.441 47.8115C14.5403 47.3406 18.0083 45.9017 18.6812 45.7195C18.8037 45.6863 18.9227 45.6429 19.0368 45.5866C19.5171 45.3493 20.6066 44.8161 21.7163 44.3869C22.5353 44.0702 23.191 43.9954 24.0815 43.6492C24.2623 43.5789 24.4418 43.5091 24.619 43.44C24.0623 44.6626 23.5374 45.9717 23.0723 47.3561C22.3357 49.5384 21.7492 51.9048 21.375 54.3646C20.7107 54.5559 20.388 54.5726 19.969 54.7774C19.6028 54.8884 15.9285 56.1537 14.7739 56.5645L12.2732 57.5634C11.1515 57.9079 8.80005 58.6898 7.98981 59.1965C7.51839 59.395 6.44341 59.7388 5.5948 60.0012C5.62289 59.3249 5.66303 58.6317 5.72042 57.9207ZM6.14008 71.0747C6.042 70.3092 5.95353 69.5426 5.8748 68.7751C5.79341 67.7065 5.68371 66.6391 5.64357 65.5681L5.60199 64.7654L5.58109 64.3639L5.57268 63.9623L5.5383 62.3554C5.53951 62.1968 5.54128 62.0368 5.54349 61.8759C5.69853 61.8198 5.83642 61.7617 5.93617 61.7064C6.10669 61.6119 6.28296 61.5325 6.46675 61.4738C7.32963 61.192 9.43158 60.5057 10.2615 60.2347C10.4737 60.1653 10.6823 60.0858 10.887 59.9959C11.8196 59.5864 14.764 58.3407 15.3397 58.1943C15.4445 58.1677 15.5458 58.1308 15.6422 58.081C16.0483 57.8711 16.9696 57.3999 17.9132 57.032C18.6096 56.7605 19.1751 56.7188 19.9323 56.422C20.3589 56.2547 20.7771 56.0901 21.1675 55.9354C21.1621 55.9838 21.1559 56.0319 21.1506 56.0802C20.8114 59.1543 20.8117 62.3297 21.1609 65.4274C21.1714 65.5183 21.1833 65.6088 21.1944 65.6996C20.5343 65.8911 20.2213 65.8986 19.8159 66.1C19.4683 66.2044 15.9838 67.4026 14.8891 67.7922L12.5197 68.7447C11.4552 69.0689 9.22479 69.808 8.46022 70.2987C8.00473 70.4922 6.95253 70.8258 6.14008 71.0747ZM8.16485 81.4407C7.61791 79.36 7.15767 77.26 6.76278 75.149C6.62521 74.3802 6.49948 73.6098 6.38436 72.8379C6.44386 72.8119 6.49738 72.7858 6.5425 72.7603C6.70362 72.669 6.87048 72.593 7.04487 72.5376C7.86352 72.2715 9.85744 71.6233 10.6448 71.3674C10.846 71.3019 11.0437 71.2263 11.2375 71.1402C12.1205 70.7483 14.909 69.5577 15.4558 69.4215C15.5554 69.3968 15.6514 69.3618 15.7425 69.3138C16.1265 69.1118 16.9977 68.6583 17.8918 68.3079C18.5518 68.0492 19.0907 68.017 19.8081 67.7342C20.3674 67.5136 20.9115 67.2979 21.3912 67.1056C21.7867 69.609 22.4036 72.0326 23.1861 74.283C23.3899 74.8717 23.6054 75.4478 23.8297 76.0116C23.138 76.2163 22.8154 76.2247 22.3949 76.4327C22.0388 76.5408 18.4674 77.7753 17.3452 78.1763L14.9159 79.1538C13.8251 79.489 11.5393 80.2514 10.7542 80.7505C10.255 80.9625 9.05815 81.3414 8.20898 81.6021C8.19438 81.5482 8.17934 81.4945 8.16485 81.4407ZM10.0411 87.6214C9.54957 86.1871 9.09851 84.741 8.6794 83.2865C8.71434 83.2699 8.74752 83.2535 8.77638 83.2372C8.9417 83.1442 9.11299 83.0664 9.29158 83.0091C10.1305 82.7345 12.1739 82.0657 12.9807 81.8016C13.187 81.7341 13.3897 81.6563 13.5884 81.5682C14.494 81.1669 17.3535 79.9465 17.9136 79.8048C18.0157 79.7791 18.1141 79.7431 18.2076 79.6941C18.6017 79.4879 19.4955 79.0249 20.4123 78.6651C21.0889 78.3994 21.6403 78.3622 22.3757 78.0717C23.0943 77.7879 23.7887 77.512 24.3585 77.2815C25.0496 78.8647 25.8076 80.3326 26.5868 81.6621C26.743 81.9292 26.897 82.1926 27.0487 82.4523C27.2092 82.7065 27.3724 82.9537 27.5303 83.1986C27.8494 83.6863 28.1458 84.1662 28.4714 84.6015C28.6295 84.8222 28.7847 85.0387 28.9366 85.2508C28.9675 85.2938 28.9975 85.3359 29.0281 85.3784C28.2845 85.6028 27.935 85.6247 27.4752 85.8475C27.0836 85.9693 23.1515 87.3439 21.9156 87.7891L19.2368 88.8635C18.0371 89.2411 15.5213 90.0927 14.65 90.6254C14.0344 90.8847 12.4613 91.3857 11.5362 91.6742C11.0079 90.3336 10.5083 88.9829 10.0411 87.6214ZM12.1995 93.313C12.2826 93.2781 12.3578 93.2436 12.4189 93.2103C12.602 93.1104 12.7911 93.0257 12.9876 92.9614C13.9106 92.6542 16.1593 91.9056 17.0473 91.6101C17.2742 91.5345 17.4976 91.4488 17.7171 91.3525C18.7168 90.9146 21.872 89.5795 22.4871 89.4165C22.5991 89.3867 22.7076 89.3469 22.8111 89.2941C23.2469 89.0716 24.2357 88.5717 25.2464 88.1754C25.9922 87.8829 26.5946 87.8257 27.4055 87.506C28.3306 87.1413 29.2199 86.7882 29.8961 86.5138C30.0245 86.6768 30.1506 86.8369 30.2733 86.9928C30.3433 87.0818 30.4125 87.1696 30.4806 87.2562C30.5486 87.3429 30.6223 87.4228 30.6913 87.5046C30.8311 87.6668 30.9667 87.8242 31.0981 87.9767C31.3609 88.2815 31.6067 88.5667 31.8343 88.8307C32.311 89.3392 32.7097 89.7681 33.0197 90.1077C33.1302 90.2337 33.2511 90.3496 33.37 90.4674L33.7286 90.8191C33.9686 91.0527 34.2103 91.2845 34.4537 91.5144C34.9522 91.9613 35.4722 92.3843 35.9902 92.8062C36.2679 93.0221 36.5784 93.2417 36.904 93.4832C36.9842 93.5421 37.0657 93.6018 37.1484 93.6624C36.3344 93.9185 35.9355 93.9708 35.4071 94.2219C34.944 94.3757 30.2782 96.0531 28.8088 96.588L25.6184 97.8612C24.1953 98.3249 21.205 99.352 20.155 99.9484C19.2875 100.306 16.8375 101.084 15.9418 101.366C14.5851 98.7283 13.3319 96.0434 12.1995 93.313ZM21.2793 110.716C19.6916 108.183 18.1864 105.6 16.7819 102.969C17.024 102.885 17.243 102.798 17.3953 102.72C17.6154 102.607 17.8415 102.51 18.0752 102.433C19.1745 102.07 21.8468 101.164 22.9017 100.806C23.1714 100.714 23.4373 100.613 23.6995 100.501C24.8937 99.9922 28.6563 98.4231 29.3834 98.2143C29.5158 98.1765 29.6448 98.1285 29.7686 98.0676C30.2903 97.8112 31.473 97.2338 32.675 96.7592C33.562 96.4089 34.2681 96.309 35.2321 95.925C36.4838 95.4265 37.6795 94.9455 38.5101 94.6022C38.7188 94.7408 38.9324 94.8826 39.1515 95.0281C39.2038 95.0626 39.2563 95.0973 39.3091 95.1323C39.3635 95.1649 39.4181 95.1976 39.4732 95.2306C39.5831 95.2965 39.6942 95.3629 39.8065 95.4303C40.0308 95.5645 40.2598 95.7017 40.4933 95.8413C42.3712 96.938 44.6184 98.0557 47.1614 98.9914C48.1548 99.3583 49.1935 99.6963 50.2678 99.999C49.2207 100.35 48.7047 100.453 48.0071 100.772C47.3941 100.987 41.199 103.276 39.2457 103.999L34.9938 105.687C33.1076 106.331 29.1369 107.734 27.7182 108.47C27.0036 108.758 25.4953 109.281 24.1643 109.729C22.8339 110.178 21.6812 110.552 21.6812 110.552C21.6812 110.552 21.5222 110.614 21.2793 110.716ZM24.9146 116.298C23.9257 114.847 23.0364 113.487 22.2457 112.247C22.847 112.058 23.4978 111.83 23.8671 111.654C24.1632 111.513 24.4658 111.386 24.7759 111.28C26.2352 110.784 29.7837 109.545 31.1839 109.054C31.5419 108.928 31.8961 108.793 32.2465 108.647C33.8425 107.985 38.8642 105.926 39.8245 105.624C39.9995 105.57 40.1708 105.505 40.337 105.428C41.037 105.101 42.6234 104.364 44.2237 103.731C45.4047 103.264 46.3268 103.077 47.6102 102.565C49.5832 101.777 51.4527 101.022 52.5344 100.571C53.5077 100.787 54.503 100.974 55.5157 101.124C55.7017 101.153 55.8875 101.185 56.0746 101.211C56.2625 101.231 56.4506 101.252 56.6391 101.273C57.0159 101.315 57.3941 101.356 57.7734 101.398L58.0579 101.43L58.3441 101.447C58.535 101.459 58.7261 101.471 58.9175 101.482C59.3 101.506 59.6834 101.53 60.0675 101.553C60.4522 101.563 60.8376 101.565 61.2233 101.571L61.8021 101.578C61.9954 101.58 62.1873 101.587 62.3834 101.579C63.1644 101.563 63.9447 101.528 64.7195 101.46C65.0052 101.433 65.2897 101.416 65.5696 101.383C65.8497 101.351 66.1276 101.32 66.4034 101.289C66.6787 101.255 66.9505 101.214 67.2215 101.178C67.3567 101.159 67.4915 101.14 67.6259 101.121C67.7596 101.099 67.8929 101.077 68.0257 101.055C69.0908 100.89 70.1176 100.677 71.1239 100.449C73.133 99.9797 75.0526 99.4116 76.9478 98.7015C77.8991 98.3554 78.8364 97.9568 79.7847 97.5387C80.0193 97.4289 80.2549 97.3186 80.4916 97.2077C80.6099 97.1521 80.7286 97.0963 80.8476 97.0404C80.9651 96.9817 81.0829 96.9228 81.2011 96.8638C81.4371 96.7448 81.6744 96.6252 81.9131 96.5049C82.1486 96.3785 82.3856 96.2513 82.6241 96.1233C83.1038 95.8714 83.5735 95.587 84.0572 95.3098C84.2946 95.1636 84.5338 95.0164 84.775 94.8679C84.8954 94.7931 85.0162 94.7181 85.1375 94.6427C85.2569 94.5642 85.3766 94.4853 85.497 94.4061C86.4655 93.7809 87.4308 93.0774 88.41 92.3101C90.4005 90.7372 92.245 89.0101 93.8976 87.167C94.1026 86.9352 94.3071 86.7039 94.5111 86.4732C94.7083 86.2364 94.905 86.0002 95.1013 85.7647C95.3002 85.5316 95.4863 85.2885 95.6744 85.0484L95.9557 84.6885L96.096 84.5088L96.2307 84.3251C96.4099 84.0804 96.5887 83.8363 96.7669 83.5931C96.804 83.542 96.8392 83.4897 96.8755 83.438C97.3891 83.2739 98.0691 83.017 98.4047 82.8216C98.6147 82.6993 98.8316 82.5919 99.0569 82.5045C100.115 82.0885 102.693 81.0748 103.711 80.6746C103.971 80.5722 104.228 80.4598 104.479 80.3374C105.626 79.7795 109.244 78.0665 109.949 77.8318C110.077 77.789 110.202 77.7364 110.32 77.6709C110.82 77.3955 111.954 76.7755 113.113 76.2589C113.968 75.8776 114.659 75.7523 115.588 75.3361C116.295 75.0197 116.983 74.7104 117.593 74.4342C117.417 75.3721 117.226 76.2916 117.022 77.1898C116.431 79.7803 115.728 82.2026 114.995 84.4746C114.902 84.7584 114.809 85.0401 114.718 85.3198C114.669 85.471 114.619 85.6211 114.568 85.7705C114.241 85.8548 113.884 85.9501 113.492 86.0578L112.33 86.4452C111.022 86.9132 106.904 88.5444 105.135 89.3614C104.362 89.7166 103.58 90.0577 102.789 90.3789C100.929 91.132 97.7304 92.4269 94.5495 93.7146C91.3639 94.9911 88.1968 96.2624 86.3993 96.9704C85.481 97.3342 84.5669 97.7078 83.6574 98.0917C82.6227 98.531 81.0278 99.1912 79.1828 99.9577C77.3385 100.726 75.2381 101.586 73.1908 102.421C71.145 103.259 69.1469 104.059 67.5093 104.713C65.872 105.367 64.5918 105.866 63.976 106.089C63.5277 106.252 63.0832 106.425 62.6445 106.611C60.7982 107.396 56.6075 109.157 52.4285 110.782C50.886 111.38 49.5359 111.859 48.1521 112.351C46.7669 112.839 45.3475 113.339 43.6678 113.985C36.811 116.6 30.416 119.038 28.663 119.707C28.2744 119.856 27.9269 119.995 27.6128 120.126C26.6488 118.799 25.7465 117.517 24.9146 116.298ZM34.3963 128.881C32.6607 126.773 31.0179 124.692 29.5055 122.682C29.1301 122.185 28.7637 121.693 28.4038 121.205C37.1786 117.853 38.7097 117.563 41.7524 116.344C42.1516 116.202 43.4598 115.718 45.2764 115.04C46.1849 114.701 47.2207 114.315 48.3339 113.9C49.4457 113.481 50.6348 113.033 51.8512 112.574C56.7174 110.741 62.0066 108.705 64.54 107.72C68.2355 106.247 71.927 104.763 75.6127 103.266C76.2191 103.032 76.91 102.766 77.662 102.476C78.4126 102.181 79.2243 101.863 80.0743 101.53C81.7736 100.861 83.6244 100.129 85.4374 99.3925C89.0676 97.9286 92.5532 96.4618 94.43 95.5885C96.2782 94.8014 100.144 93.2508 103.538 91.8728C106.933 90.499 109.864 89.3133 109.864 89.3133C109.864 89.3133 110.766 88.9268 111.951 88.3928C112.577 88.1082 113.283 87.7817 113.975 87.4495C113.937 87.5564 113.899 87.6643 113.861 87.7705C113.67 88.3019 113.465 88.8208 113.271 89.3349C113.174 89.5915 113.076 89.8464 112.98 90.0994C112.879 90.3507 112.778 90.6001 112.678 90.8477C112.476 91.3427 112.278 91.8305 112.083 92.3112C111.877 92.7882 111.675 93.2584 111.475 93.7217C111.376 93.9532 111.276 94.1831 111.178 94.4114C111.075 94.6381 110.974 94.863 110.873 95.0863C110.669 95.5325 110.469 95.972 110.272 96.4052C109.799 97.4243 109.328 98.4008 108.861 99.3399C108.728 99.3722 108.591 99.4062 108.448 99.442L107.434 99.763C106.296 100.155 102.718 101.55 101.187 102.264C100.517 102.575 99.8395 102.871 99.153 103.147C97.5385 103.796 94.7628 104.91 92.0022 106.019C89.2374 107.117 86.4876 108.209 84.9312 108.827C84.1347 109.141 83.3422 109.465 82.5542 109.799C80.7591 110.558 77.0355 112.117 73.4874 113.569C71.715 114.299 69.9844 114.996 68.5656 115.565C67.147 116.134 66.0377 116.568 65.5033 116.76C65.1144 116.9 64.7293 117.051 64.3498 117.214C62.7527 117.903 59.1283 119.451 55.5094 120.87C54.1737 121.392 53.0026 121.805 51.8024 122.23C50.601 122.652 49.3701 123.085 47.9158 123.65C41.9836 125.948 36.4406 128.067 34.9304 128.668C34.7418 128.741 34.5641 128.812 34.3963 128.881ZM41.1966 136.756C39.1508 134.493 37.162 132.203 35.2722 129.938C42.4226 127.171 43.7608 126.941 46.3327 125.89C46.6785 125.766 47.8119 125.345 49.3857 124.754C50.1726 124.459 51.07 124.123 52.0344 123.761C52.9977 123.396 54.0278 123.006 55.0818 122.607C59.2978 121.012 63.8814 119.243 66.0768 118.387C69.2778 117.103 72.4756 115.811 75.669 114.509C76.7221 114.108 78.0654 113.588 79.5387 113.009C81.0125 112.431 82.6173 111.797 84.1895 111.159C87.3369 109.891 90.3585 108.62 91.9812 107.852C93.5832 107.169 96.9375 105.832 99.884 104.649C102.832 103.469 105.377 102.451 105.377 102.451C105.377 102.451 106.159 102.117 107.186 101.653C107.395 101.557 107.614 101.456 107.839 101.352C107.079 102.815 106.335 104.182 105.616 105.464C104.142 108.092 102.755 110.365 101.467 112.395C101.133 112.93 100.8 113.444 100.474 113.945L100.263 114.006C99.3352 114.305 96.4324 115.408 95.1978 115.993C94.6581 116.248 94.1104 116.488 93.5543 116.709C92.2467 117.227 89.9986 118.118 87.7628 119.004C85.5245 119.884 83.2983 120.759 82.0382 121.254C81.3934 121.506 80.7528 121.768 80.1165 122.04C78.667 122.658 75.6598 123.926 72.7945 125.108C69.9299 126.29 67.2093 127.391 66.3439 127.697C66.0288 127.809 65.7175 127.931 65.4119 128.066C64.1253 128.635 61.2057 129.913 58.284 131.07C57.2057 131.496 56.2573 131.826 55.2854 132.166C54.3127 132.503 53.3164 132.85 52.1425 133.312C47.4787 135.142 43.1165 136.839 41.77 137.387C41.5784 137.177 41.387 136.967 41.1966 136.756ZM42.717 138.422C47.8909 136.398 48.9849 136.236 50.9717 135.402C51.2512 135.301 52.167 134.959 53.4387 134.48C54.7096 133.999 56.3371 133.383 58.0413 132.738C61.4482 131.444 65.1535 130.013 66.9279 129.321L74.6754 126.167C75.5278 125.846 76.615 125.428 77.8072 124.963C78.9997 124.499 80.298 123.988 81.5697 123.475C84.1151 122.452 86.5574 121.423 87.8632 120.786C89.1579 120.233 91.874 119.164 94.2617 118.22C96.6512 117.282 98.7136 116.472 98.7136 116.472C98.7136 116.472 98.758 116.453 98.8372 116.419C98.7982 116.477 98.7582 116.537 98.7195 116.595C98.4312 117.026 98.1477 117.446 97.8637 117.854C97.5817 118.264 97.3054 118.665 97.0338 119.059C96.7621 119.454 96.4881 119.836 96.2224 120.216C95.9553 120.595 95.6922 120.968 95.4322 121.337C95.1695 121.703 94.91 122.066 94.6525 122.425C92.9121 124.85 91.2527 127.118 89.4089 129.62C88.5689 129.923 87.5855 130.307 87.0511 130.571C86.6672 130.76 86.2762 130.935 85.8768 131.089C83.9984 131.816 79.4187 133.588 77.6108 134.287C77.1483 134.465 76.6897 134.653 76.2354 134.85C75.2007 135.3 73.0529 136.221 71.0063 137.078C68.9598 137.935 67.0156 138.731 66.3933 138.944C66.1667 139.021 65.944 139.109 65.7267 139.209C64.8121 139.633 62.7364 140.585 60.6492 141.424C59.1088 142.043 57.9221 142.339 56.2455 143.01C53.5571 144.085 51.0106 145.101 49.6248 145.667C47.3238 143.327 44.9959 140.897 42.717 138.422ZM57.5357 153.514C56.4599 152.463 55.3525 151.38 54.2227 150.266C53.0448 149.106 51.8443 147.91 50.6335 146.689C53.5059 145.575 54.2894 145.479 55.5676 144.915C55.9679 144.772 58.1904 143.937 60.6281 143.008C63.0665 142.081 65.7196 141.058 66.9898 140.562L72.5265 138.281C74.973 137.375 80.1158 135.387 81.9648 134.423C82.8904 134.024 84.84 133.271 86.5557 132.613C86.8403 132.505 87.1182 132.399 87.3841 132.298C86.9805 132.809 86.4866 133.436 85.8977 134.182C84.6695 135.73 83.0149 137.778 80.873 140.331C79.3904 142.092 77.6743 144.095 75.6937 146.328C75.5913 146.367 75.4887 146.412 75.3806 146.467C74.9501 146.616 70.626 148.264 69.2668 148.795L66.3199 150.057C65.001 150.517 62.2345 151.544 61.2744 152.14C60.5204 152.477 58.4629 153.194 57.5357 153.514ZM62.9868 158.88C62.1242 158.01 61.2154 157.113 60.2694 156.185C59.8228 155.747 59.3674 155.302 58.9055 154.851C59.0761 154.761 59.251 154.681 59.4319 154.615C60.4467 154.244 62.9195 153.34 63.8958 152.983C64.1454 152.891 64.391 152.79 64.6325 152.678C65.7326 152.17 69.2043 150.612 69.8803 150.407C70.0035 150.37 70.1227 150.322 70.2366 150.262C70.7164 150.008 71.8051 149.438 72.9168 148.971C73.1284 148.882 73.3293 148.809 73.5264 148.744C73.3101 148.983 73.0918 149.223 72.8699 149.466C71.2605 151.231 69.5031 153.113 67.5862 155.104C66.6271 156.098 65.6282 157.12 64.5867 158.164C64.3259 158.424 64.0629 158.687 63.7977 158.951L63.5978 159.149L63.4975 159.248L63.4863 159.259L63.4855 159.259L63.4841 159.26C63.4832 159.26 63.4827 159.261 63.4821 159.262C63.478 159.268 63.4729 159.271 63.4684 159.275C63.4498 159.292 63.4312 159.311 63.4128 159.323C63.4016 159.31 63.3901 159.295 63.3783 159.28L63.3612 159.26C63.3599 159.258 63.3583 159.257 63.3573 159.254C63.3569 159.254 63.3565 159.253 63.3565 159.253L63.348 159.245L63.3082 159.205C63.2018 159.097 63.0946 158.989 62.9868 158.88Z" fill="#1D1D1B"/>
<path d="M63.3596 159.257L63.3582 159.255C63.3566 159.254 63.3564 159.254 63.3564 159.254L63.3583 159.256C63.362 159.259 63.3591 159.256 63.3596 159.257Z" fill="#1D1D1B"/>
<path d="M101.73 185.666C101.665 185.067 101.509 184.497 101.3 183.989C101.09 183.48 100.833 183.026 100.556 182.629C100.278 182.232 99.9839 181.884 99.6871 181.57C99.3894 181.257 99.088 180.984 98.7904 180.73C98.4916 180.483 98.1968 180.253 97.9067 180.05C96.7464 179.23 95.6872 178.69 94.8166 178.266C93.9448 177.849 93.2573 177.564 92.8183 177.367C92.1782 177.083 91.5218 176.852 90.8535 176.68C89.4464 176.312 87.153 175.817 84.4358 175.435C81.718 175.045 78.5764 174.761 75.4613 174.586C73.1628 174.456 71.1775 174.298 69.1328 174.197C67.0895 174.101 64.984 174.059 62.4783 174.279C59.925 174.504 57.4223 174.844 55.0747 175.287C52.7269 175.728 50.5346 176.274 48.5999 176.887C46.6649 177.499 44.9888 178.184 43.6651 178.852C42.3394 179.514 41.3717 180.171 40.812 180.605C39.6672 181.467 38.9026 182.419 38.5206 183.294C38.3279 183.729 38.2304 184.14 38.2032 184.495C38.1858 184.671 36.9588 187.227 39.2483 191.092C39.5033 191.522 39.8306 191.95 40.1987 192.388C40.6705 192.849 41.1613 193.273 41.6629 193.67C42.1007 193.988 42.8033 194.431 43.6626 194.874C44.092 195.097 44.5602 195.319 45.0521 195.538C45.5442 195.753 46.0602 195.963 46.5848 196.159C48.6833 196.946 50.9204 197.492 52.306 197.669C53.5171 197.828 54.7177 197.997 55.9113 198.203C57.3141 198.445 59.2262 198.724 61.3936 198.935C63.5608 199.147 65.9829 199.296 68.3995 199.338C70.8156 199.384 73.2293 199.332 75.3794 199.207C77.5294 199.084 79.4155 198.89 80.7785 198.719C82.1722 198.546 83.5613 198.302 84.938 197.977C86.5049 197.603 88.9094 197.006 91.6526 195.968C93.0234 195.444 94.4798 194.816 95.9468 193.981C96.3136 193.775 96.6803 193.547 97.0463 193.311C97.4118 193.068 97.7767 192.815 98.1371 192.534C98.4973 192.253 98.8543 191.953 99.2021 191.62C99.5493 191.285 99.8883 190.92 100.207 190.513C100.525 190.105 100.824 189.653 101.077 189.147C101.33 188.642 101.534 188.079 101.651 187.483C101.769 186.887 101.797 186.264 101.73 185.666ZM44.8623 187.26C44.6208 187.724 44.2975 187.978 44.0362 188.482C43.9092 188.728 43.7848 188.969 43.6672 189.198C43.4561 189.098 43.2473 188.994 43.0441 188.888C42.3048 188.504 41.6425 188.088 41.1405 187.709C40.7687 187.431 40.8552 186.73 40.9113 185.949C40.9408 185.941 40.9701 185.933 40.9975 185.925C41.2757 185.843 41.4508 185.761 41.5479 185.554C41.6472 185.351 41.802 185.125 41.991 184.901C42.1804 184.677 42.4046 184.455 42.6459 184.243C43.1346 183.821 43.687 183.444 44.2427 183.113C45.3641 182.453 46.4906 181.971 47.5192 181.592C47.5669 181.574 47.6135 181.558 47.6608 181.541C47.5411 181.732 47.4359 181.9 47.3589 182.022C47.2759 182.154 47.2023 182.291 47.1385 182.434C46.8479 183.086 45.8968 185.111 45.6417 185.44C45.5952 185.5 45.5582 185.566 45.5334 185.638C45.4292 185.943 45.1895 186.633 44.8623 187.26ZM52.1088 190.419C51.8187 190.963 51.538 191.493 51.2945 191.957C51.0018 191.874 50.7234 191.792 50.4637 191.713C49.6936 191.478 49.0782 191.264 48.6552 191.111C48.4431 191.036 48.2795 190.974 48.1691 190.932C48.0583 190.89 47.9999 190.867 47.9999 190.867C47.9999 190.867 47.7067 190.77 47.2192 190.608C46.7344 190.444 46.0628 190.208 45.3225 189.917C45.244 189.886 45.1644 189.853 45.0845 189.821C45.1213 189.76 45.1537 189.696 45.1816 189.622C45.3313 189.4 46.7253 187.068 47.154 186.326L48.0048 184.645C48.4602 183.962 49.3723 182.489 49.5174 181.82C49.627 181.588 49.8769 181.181 50.136 180.779C50.2096 180.76 50.2836 180.74 50.3559 180.722C51.2142 180.507 51.9841 180.351 52.6837 180.226C54.0843 179.979 55.2022 179.857 56.2433 179.73C56.874 179.654 57.4779 179.578 58.1053 179.486C57.6006 180.303 56.9553 181.355 56.6476 181.854C56.5385 182.031 56.4387 182.214 56.3488 182.402C55.9394 183.259 54.6147 185.93 54.2903 186.38C54.2313 186.462 54.1816 186.549 54.1443 186.643C53.9872 187.04 53.6273 187.937 53.1815 188.77C52.8525 189.385 52.4653 189.749 52.1088 190.419ZM59.5426 193.622C58.5285 193.488 57.5165 193.333 56.5397 193.157C55.352 192.945 54.2172 192.702 53.1868 192.455C53.0439 192.42 52.9033 192.385 52.7645 192.351C52.9418 192.114 53.075 191.937 53.1851 191.678C53.3795 191.378 55.2287 188.259 55.801 187.269L56.967 185.043C57.5597 184.122 58.7621 182.146 59.0163 181.288C59.2372 180.845 59.8303 179.9 60.2849 179.192C61.1778 179.109 62.5776 178.99 64.3163 178.909C65.3414 178.86 66.4865 178.826 67.7099 178.816C67.1673 179.694 66.1145 181.42 65.6786 182.132C65.5586 182.328 65.4481 182.529 65.3474 182.736C64.8887 183.678 63.4092 186.617 63.0561 187.116C62.9919 187.207 62.9369 187.303 62.8945 187.407C62.7154 187.842 62.3057 188.825 61.811 189.743C61.4458 190.42 61.032 190.831 60.6361 191.568C60.2362 192.314 59.8512 193.035 59.5426 193.622ZM68.3957 194.21C67.1449 194.216 65.5525 194.173 63.8121 194.053C62.9324 193.991 62.0152 193.91 61.0859 193.809C61.3493 193.441 61.5315 193.225 61.6838 192.877C61.8968 192.545 63.9346 189.1 64.5665 188.007L65.863 185.554C66.5126 184.535 67.8353 182.351 68.1349 181.414C68.4119 180.867 69.1993 179.616 69.7073 178.821C70.9583 178.839 72.2635 178.882 73.5891 178.96C74.6162 179.019 75.6549 179.1 76.6889 179.2C76.6856 179.206 76.6827 179.211 76.6793 179.217C76.1867 180.01 75.0018 181.952 74.5325 182.719C74.4125 182.914 74.3021 183.116 74.2013 183.322C73.7427 184.264 72.2638 187.203 71.9107 187.702C71.8465 187.792 71.7915 187.889 71.749 187.992C71.5701 188.427 71.1605 189.41 70.6659 190.327C70.3007 191.004 69.887 191.415 69.4914 192.152C69.0905 192.899 68.7047 193.622 68.3957 194.21ZM78.6686 192.178C78.4625 192.565 78.2612 192.944 78.0745 193.298C77.0316 193.431 76.0194 193.544 75.0615 193.643C73.1492 193.84 71.4522 193.979 70.1405 194.119C70.3023 193.896 70.4287 193.714 70.5392 193.461C70.752 193.13 72.7894 189.685 73.4211 188.592L74.7173 186.14C75.3667 185.121 76.689 182.938 76.9885 182.002C77.2659 181.453 78.0555 180.199 78.5633 179.405C80.3272 179.62 82.0465 179.891 83.6344 180.211C84.1413 180.312 84.6333 180.418 85.1107 180.527C84.6408 181.28 83.6148 182.953 83.2009 183.625C83.0918 183.802 82.9923 183.984 82.9025 184.172C82.4937 185.028 81.1709 187.696 80.8469 188.144C80.7878 188.226 80.7383 188.313 80.701 188.407C80.5442 188.804 80.185 189.7 79.7399 190.532C79.4115 191.145 79.0246 191.509 78.6686 192.178ZM89.7981 188.572C89.6946 188.877 89.4562 189.564 89.1303 190.189C88.9118 190.608 88.6261 190.857 88.3804 191.276C86.482 191.828 84.404 192.293 82.3265 192.659C81.5446 192.798 80.7627 192.923 79.9898 193.037C80.5565 192.096 81.888 189.847 82.358 189.033L83.5224 186.81C84.1144 185.89 85.3153 183.917 85.569 183.06C85.7908 182.615 86.389 181.663 86.8441 180.955C87.1731 181.042 87.4912 181.131 87.797 181.219C89.0169 181.571 90.0411 181.931 90.8246 182.234C91.5122 182.485 92.1826 182.759 92.8184 183.058C92.4252 183.679 91.8699 184.566 91.6162 184.969C91.5335 185.101 91.4602 185.238 91.3967 185.38C91.1074 186.029 90.1605 188.047 89.9062 188.375C89.8595 188.435 89.8227 188.5 89.7981 188.572ZM96.5447 186.665C96.4507 186.905 96.2562 187.229 95.9476 187.561C95.8764 187.644 95.7882 187.727 95.707 187.812C95.6167 187.895 95.5318 187.98 95.4331 188.063C95.2452 188.23 95.0338 188.394 94.8157 188.556C94.2204 188.948 93.4573 189.364 92.569 189.766C91.9862 190.03 91.3476 190.286 90.6685 190.532C90.9755 190.017 91.2617 189.532 91.4184 189.261L92.2657 187.587C92.7195 186.906 93.6284 185.438 93.7721 184.771C93.8706 184.563 94.0826 184.214 94.3125 183.853C94.7006 184.088 95.0602 184.335 95.3761 184.588C95.7593 184.894 96.0695 185.211 96.2774 185.489C96.3778 185.627 96.4522 185.753 96.5033 185.86C96.5546 185.967 96.5832 186.054 96.6002 186.131C96.6168 186.209 96.623 186.281 96.6173 186.364C96.6118 186.446 96.5919 186.544 96.5447 186.665Z" fill="#1D1D1B"/>
</svg>
