<svg width="634" height="628" viewBox="0 0 634 628" fill="none" xmlns="http://www.w3.org/2000/svg">
<path d="M370.313 229.738C370.228 229.738 370.144 229.721 370.066 229.688C369.988 229.656 369.917 229.607 369.859 229.546C369.739 229.427 369.672 229.265 369.672 229.096C369.672 228.927 369.739 228.766 369.859 228.646L371.931 226.609C372.053 226.5 372.213 226.442 372.376 226.448C372.54 226.453 372.695 226.521 372.81 226.638C372.925 226.755 372.99 226.912 372.993 227.075C372.995 227.239 372.934 227.397 372.823 227.518L370.75 229.555C370.634 229.67 370.477 229.736 370.313 229.738Z" fill="black"/>
<path d="M360.383 239.493C360.256 239.493 360.133 239.455 360.028 239.385C359.923 239.314 359.841 239.214 359.793 239.097C359.746 238.98 359.734 238.852 359.759 238.728C359.785 238.604 359.846 238.491 359.937 238.402L362.009 236.365C362.129 236.246 362.292 236.18 362.461 236.182C362.63 236.183 362.792 236.251 362.911 236.372C363.029 236.492 363.095 236.655 363.094 236.824C363.093 236.993 363.024 237.155 362.904 237.273L360.828 239.311C360.77 239.369 360.7 239.415 360.624 239.447C360.547 239.478 360.465 239.494 360.383 239.493Z" fill="black"/>
<path d="M362.526 229.635C362.441 229.635 362.357 229.618 362.278 229.585C362.2 229.552 362.129 229.504 362.069 229.443L360.034 227.355C359.975 227.295 359.929 227.224 359.898 227.146C359.867 227.069 359.851 226.986 359.852 226.902C359.853 226.818 359.87 226.735 359.903 226.658C359.936 226.582 359.984 226.512 360.044 226.453C360.104 226.395 360.175 226.349 360.252 226.317C360.33 226.286 360.413 226.271 360.497 226.272C360.581 226.272 360.663 226.29 360.74 226.323C360.817 226.356 360.887 226.403 360.946 226.463L362.984 228.555C363.071 228.645 363.129 228.758 363.152 228.881C363.175 229.004 363.161 229.131 363.112 229.246C363.064 229.361 362.982 229.459 362.878 229.528C362.774 229.598 362.651 229.635 362.526 229.635Z" fill="black"/>
<path d="M372.28 239.646C372.195 239.647 372.11 239.63 372.032 239.597C371.953 239.564 371.882 239.516 371.822 239.455L369.787 237.363C369.729 237.304 369.683 237.233 369.652 237.155C369.622 237.078 369.606 236.995 369.607 236.912C369.609 236.828 369.626 236.746 369.659 236.669C369.692 236.592 369.74 236.523 369.8 236.465C369.86 236.407 369.931 236.361 370.008 236.33C370.086 236.299 370.169 236.284 370.252 236.285C370.336 236.286 370.418 236.304 370.495 236.337C370.572 236.37 370.641 236.418 370.699 236.478L372.734 238.566C372.822 238.656 372.882 238.769 372.906 238.892C372.93 239.015 372.916 239.142 372.868 239.258C372.819 239.374 372.737 239.472 372.633 239.541C372.528 239.61 372.405 239.647 372.28 239.646Z" fill="black"/>
<path d="M427.395 488.334C427.226 488.334 427.064 488.267 426.945 488.148C426.825 488.028 426.758 487.866 426.758 487.697C426.758 487.528 426.825 487.366 426.945 487.247C427.064 487.127 427.226 487.06 427.395 487.06L430.305 487.043C430.474 487.043 430.636 487.11 430.756 487.23C430.875 487.349 430.943 487.511 430.943 487.68C430.943 487.849 430.875 488.011 430.756 488.131C430.636 488.25 430.474 488.317 430.305 488.317L427.398 488.334H427.395Z" fill="black"/>
<path d="M413.472 488.419C413.31 488.409 413.159 488.337 413.049 488.219C412.938 488.101 412.877 487.945 412.877 487.784C412.877 487.622 412.938 487.467 413.049 487.349C413.159 487.231 413.31 487.159 413.472 487.148L416.379 487.131C416.54 487.142 416.691 487.213 416.802 487.331C416.912 487.449 416.973 487.605 416.973 487.767C416.973 487.928 416.912 488.084 416.802 488.202C416.691 488.32 416.54 488.391 416.379 488.402L413.472 488.419Z" fill="black"/>
<path d="M421.879 482.839C421.71 482.839 421.547 482.772 421.428 482.653C421.308 482.533 421.241 482.371 421.241 482.202V479.276C421.252 479.115 421.324 478.964 421.442 478.853C421.56 478.743 421.716 478.682 421.877 478.682C422.039 478.682 422.195 478.743 422.313 478.853C422.431 478.964 422.502 479.115 422.513 479.276V482.193C422.514 482.278 422.499 482.361 422.467 482.439C422.436 482.517 422.39 482.588 422.331 482.648C422.272 482.709 422.201 482.756 422.124 482.789C422.046 482.822 421.963 482.839 421.879 482.839Z" fill="black"/>
<path d="M421.898 496.812C421.73 496.812 421.568 496.745 421.448 496.626C421.329 496.507 421.261 496.346 421.261 496.177V493.26C421.261 493.091 421.328 492.929 421.447 492.81C421.567 492.69 421.729 492.623 421.898 492.623C422.067 492.623 422.229 492.69 422.349 492.81C422.468 492.929 422.536 493.091 422.536 493.26V496.177C422.536 496.261 422.519 496.344 422.487 496.421C422.455 496.498 422.408 496.568 422.349 496.627C422.29 496.686 422.219 496.733 422.142 496.764C422.065 496.796 421.982 496.812 421.898 496.812Z" fill="black"/>
<path d="M467.355 223.902C467.355 223.902 473.884 223.01 475.931 208.336C477.977 193.661 478.38 180.766 491.849 176.763C505.318 172.76 521.931 179.206 521.522 193.438C521.114 207.67 523.237 219.833 531.747 226.139C542.766 234.291 547.079 229.682 567.477 249.545C593.166 274.549 585.705 350.633 511.429 329.736L467.355 223.902Z" fill="black"/>
<path d="M485.692 211.326C485.692 211.326 487.908 213.763 492.535 212.909L485.692 211.326Z" fill="white"/>
<path d="M490.615 213.727C487.062 213.727 485.307 211.847 485.221 211.755C485.119 211.629 485.069 211.468 485.081 211.306C485.093 211.144 485.167 210.993 485.287 210.883C485.407 210.774 485.565 210.714 485.727 210.717C485.89 210.72 486.045 210.784 486.162 210.898C486.25 210.992 488.237 213.055 492.419 212.287C492.503 212.267 492.59 212.264 492.675 212.279C492.76 212.293 492.842 212.325 492.914 212.372C492.987 212.42 493.049 212.481 493.097 212.553C493.145 212.625 493.177 212.706 493.193 212.791C493.209 212.876 493.207 212.963 493.188 213.047C493.169 213.131 493.133 213.211 493.082 213.281C493.031 213.351 492.967 213.409 492.893 213.454C492.818 213.498 492.736 213.527 492.65 213.538C491.979 213.662 491.298 213.725 490.615 213.727Z" fill="black"/>
<path d="M487.382 500.181C487.382 500.181 483.523 512.001 479.664 515.61C475.806 519.218 460.462 526.31 460.247 534.024C459.999 542.982 465.204 544.639 479.144 541.405C489.217 539.067 497.529 532.91 500.499 529.404C503.123 526.299 501.643 523.658 501.017 520.021C500.231 515.558 500.079 511.007 500.079 506.478V499.066L487.382 500.181Z" fill="white"/>
<path d="M468.656 543.565C465.729 543.565 463.66 542.973 462.208 541.785C460.33 540.253 459.507 537.785 459.61 534.007C459.775 528.087 468.033 522.718 474.062 518.795C476.286 517.35 478.206 516.101 479.23 515.144C482.926 511.69 486.739 500.101 486.779 499.984C486.817 499.865 486.89 499.76 486.987 499.682C487.085 499.604 487.203 499.557 487.328 499.546L500.022 498.426C500.11 498.418 500.199 498.429 500.283 498.457C500.367 498.485 500.444 498.531 500.509 498.591C500.574 498.65 500.626 498.723 500.662 498.804C500.698 498.885 500.716 498.972 500.716 499.061V506.472C500.716 510.512 500.825 515.267 501.643 519.901C501.771 520.618 501.928 521.298 502.086 521.958C502.703 524.593 503.286 527.081 500.985 529.804C498.067 533.259 489.594 539.63 479.29 542.019C474.868 543.05 471.389 543.565 468.656 543.565ZM487.868 500.778C487.145 502.921 483.686 512.735 480.116 516.075C479.01 517.107 477.046 518.384 474.771 519.864C468.977 523.63 461.05 528.79 460.899 534.042C460.804 537.39 461.47 539.536 463.028 540.799C465.464 542.799 470.394 542.785 479.015 540.785C489.02 538.462 497.212 532.316 500.028 528.987C501.914 526.753 501.457 524.864 500.859 522.25C500.699 521.576 500.536 520.876 500.405 520.127C499.57 515.39 499.456 510.567 499.456 506.472V499.755L487.868 500.778Z" fill="black"/>
<path d="M460.793 538.373C460.63 538.37 460.475 538.304 460.359 538.19C460.243 538.076 460.175 537.922 460.169 537.759C460.164 537.597 460.22 537.438 460.328 537.316C460.435 537.193 460.585 537.117 460.747 537.102L465.704 536.742C478.183 535.861 489.914 530.465 498.701 521.564C499.871 520.376 500.528 519.613 500.534 519.607C500.646 519.489 500.8 519.419 500.963 519.411C501.126 519.403 501.286 519.458 501.41 519.564C501.533 519.67 501.612 519.82 501.629 519.982C501.645 520.144 501.599 520.306 501.5 520.436C501.471 520.467 500.811 521.236 499.608 522.456C490.605 531.579 478.586 537.111 465.798 538.016L460.842 538.376L460.793 538.373Z" fill="black"/>
<path d="M490.726 519.361H490.62C490.335 519.315 483.669 518.166 480.988 514.675C480.937 514.608 480.899 514.533 480.877 514.452C480.856 514.371 480.85 514.286 480.861 514.203C480.872 514.12 480.899 514.04 480.941 513.968C480.983 513.895 481.038 513.832 481.105 513.781C481.171 513.729 481.247 513.692 481.328 513.67C481.409 513.649 481.493 513.643 481.576 513.654C481.659 513.665 481.74 513.692 481.812 513.734C481.885 513.776 481.948 513.831 481.999 513.898C484.378 516.998 490.766 518.095 490.829 518.106C490.991 518.127 491.138 518.21 491.24 518.337C491.342 518.463 491.392 518.624 491.379 518.787C491.366 518.949 491.291 519.1 491.169 519.208C491.048 519.317 490.889 519.374 490.726 519.369V519.361Z" fill="black"/>
<path d="M484.818 523.365C484.774 523.364 484.73 523.36 484.687 523.351C484.415 523.293 478.049 521.922 476.003 518.456C475.96 518.384 475.932 518.305 475.921 518.222C475.909 518.14 475.914 518.056 475.935 517.975C475.955 517.894 475.992 517.818 476.042 517.751C476.092 517.685 476.155 517.629 476.227 517.586C476.299 517.544 476.379 517.516 476.461 517.504C476.544 517.493 476.628 517.497 476.709 517.518C476.79 517.539 476.866 517.576 476.932 517.626C476.999 517.676 477.055 517.739 477.097 517.811C478.861 520.788 484.89 522.096 484.95 522.096C485.103 522.129 485.239 522.218 485.331 522.345C485.424 522.472 485.466 522.629 485.449 522.785C485.433 522.942 485.36 523.086 485.243 523.192C485.127 523.297 484.975 523.356 484.818 523.356V523.365Z" fill="black"/>
<path d="M478.478 527.143C478.402 527.142 478.327 527.129 478.255 527.103C478.035 527.02 472.804 525.046 471.155 521.591C471.101 521.443 471.105 521.28 471.165 521.134C471.225 520.988 471.336 520.869 471.479 520.801C471.621 520.733 471.784 520.72 471.935 520.764C472.086 520.809 472.216 520.908 472.298 521.043C473.727 524.031 478.641 525.9 478.693 525.9C478.833 525.952 478.95 526.052 479.024 526.182C479.098 526.312 479.124 526.463 479.098 526.61C479.071 526.758 478.994 526.891 478.879 526.986C478.764 527.082 478.619 527.135 478.47 527.134L478.478 527.143Z" fill="black"/>
<path d="M517.132 471.106C517.601 471.106 524.31 470.443 528.189 470.055C528.912 469.982 529.634 470.198 530.199 470.656C530.763 471.113 531.123 471.776 531.201 472.498L531.965 479.524C532.238 482.006 532.729 484.459 533.434 486.855C534.706 491.21 536.578 498.71 535.555 502.13C534.457 505.79 531.021 510.887 528.755 513.79C528.245 514.441 527.546 514.918 526.755 515.156C525.963 515.394 525.117 515.381 524.333 515.119C521.448 514.153 516.846 512.296 514.145 509.596C509.995 505.447 514.477 497.484 514.477 497.484L517.132 471.106Z" fill="white"/>
<path d="M525.599 515.963C525.099 515.963 524.603 515.882 524.13 515.723C520.865 514.626 516.412 512.755 513.694 510.043C509.492 505.843 513.276 498.369 513.857 497.292L516.498 471.042C516.516 470.886 516.59 470.742 516.707 470.637C516.824 470.532 516.975 470.473 517.132 470.471C517.478 470.471 521.589 470.077 528.126 469.422C529.017 469.336 529.906 469.603 530.601 470.167C531.297 470.73 531.742 471.545 531.842 472.434L532.605 479.457C532.874 481.902 533.358 484.319 534.051 486.68C535.583 491.926 537.195 498.894 536.169 502.315C535.08 505.943 531.767 510.978 529.263 514.183C528.828 514.738 528.271 515.187 527.636 515.496C527.002 515.804 526.305 515.964 525.599 515.963ZM517.713 471.705L515.111 497.549C515.102 497.635 515.075 497.719 515.031 497.794C514.988 497.872 510.838 505.389 514.594 509.143C517.264 511.812 521.969 513.655 524.533 514.515C525.192 514.734 525.902 514.744 526.568 514.544C527.233 514.345 527.82 513.944 528.249 513.398C530.878 510.032 533.965 505.186 534.94 501.946C535.923 498.66 534.031 491.194 532.816 487.034C532.102 484.602 531.604 482.111 531.327 479.591L530.564 472.565C530.501 472.011 530.223 471.503 529.79 471.151C529.356 470.8 528.802 470.632 528.246 470.685C522.583 471.254 519.05 471.594 517.713 471.705Z" fill="black"/>
<path d="M522.52 514.802C522.388 514.803 522.259 514.762 522.152 514.685C522.014 514.587 521.921 514.438 521.893 514.272C521.865 514.105 521.903 513.934 522 513.796C529.912 502.673 529.383 499.796 528.229 493.533C527.977 492.159 527.691 490.601 527.454 488.77C526.837 483.99 524.984 470.83 524.967 470.695C524.953 470.533 525.002 470.371 525.104 470.244C525.206 470.116 525.352 470.033 525.514 470.01C525.675 469.987 525.839 470.027 525.972 470.122C526.105 470.216 526.196 470.358 526.228 470.518C526.245 470.65 528.1 483.818 528.717 488.607C528.949 490.404 529.232 491.944 529.483 493.302C530.667 499.739 531.261 502.973 523.038 514.533C522.979 514.616 522.902 514.684 522.812 514.731C522.722 514.777 522.622 514.802 522.52 514.802Z" fill="black"/>
<path d="M523.632 494.68C523.601 494.683 523.569 494.683 523.538 494.68L515.977 493.569C515.81 493.544 515.66 493.454 515.559 493.319C515.458 493.183 515.415 493.013 515.44 492.846C515.451 492.763 515.479 492.683 515.521 492.61C515.564 492.538 515.621 492.475 515.688 492.425C515.756 492.375 515.832 492.339 515.914 492.319C515.995 492.299 516.08 492.295 516.163 492.309L523.724 493.42C523.88 493.446 524.022 493.53 524.121 493.654C524.219 493.779 524.267 493.936 524.256 494.095C524.244 494.253 524.174 494.402 524.059 494.511C523.943 494.621 523.791 494.683 523.632 494.686V494.68Z" fill="black"/>
<path d="M522.855 500.134H522.761L515.197 499.02C515.115 499.008 515.035 498.98 514.964 498.937C514.892 498.894 514.829 498.838 514.779 498.771C514.729 498.704 514.693 498.628 514.673 498.547C514.652 498.466 514.648 498.382 514.66 498.299C514.671 498.216 514.698 498.136 514.741 498.063C514.783 497.991 514.84 497.928 514.908 497.877C514.975 497.827 515.052 497.791 515.134 497.771C515.215 497.752 515.3 497.749 515.383 497.762L522.947 498.874C523.104 498.9 523.245 498.983 523.344 499.108C523.442 499.233 523.49 499.39 523.479 499.548C523.467 499.707 523.397 499.856 523.282 499.965C523.166 500.074 523.014 500.137 522.855 500.14V500.134Z" fill="black"/>
<path d="M514.632 502.577C510.224 505.617 500.891 509.531 485.207 504.828L492.405 345.853L521.946 340.213C521.946 340.213 525.802 379.737 521.615 419.512C517.79 455.819 517.633 486.765 517.699 496.594C517.714 497.766 517.442 498.923 516.907 499.966C516.373 501.009 515.592 501.905 514.632 502.577Z" fill="black"/>
<path d="M520.616 335.559L449.917 339.559L452.32 416.841C452.601 425.862 455.39 434.627 460.375 442.153C468.379 454.219 481.142 471.973 491.246 478.914C507.173 489.848 520.616 335.559 520.616 335.559Z" fill="black"/>
<path d="M485.484 476.282H485.455C485.287 476.274 485.128 476.199 485.015 476.074C484.901 475.949 484.842 475.785 484.849 475.616L487.185 425.532C487.185 425.446 487.202 425.36 487.236 425.281C487.27 425.202 487.32 425.13 487.382 425.071C487.444 425.011 487.518 424.965 487.599 424.935C487.68 424.905 487.766 424.891 487.852 424.895C487.938 424.899 488.023 424.921 488.1 424.958C488.178 424.996 488.247 425.049 488.304 425.114C488.36 425.179 488.403 425.255 488.429 425.337C488.455 425.42 488.465 425.506 488.457 425.592L486.121 475.676C486.113 475.84 486.043 475.994 485.924 476.106C485.805 476.219 485.648 476.282 485.484 476.282Z" fill="white"/>
<path d="M404.582 208.985C404.807 208.942 405.01 208.821 405.154 208.643C405.299 208.465 405.375 208.242 405.371 208.013C405.319 205.547 404.799 198.161 400.657 194.767C395.641 190.664 391.382 181.238 388.34 182.15C385.299 183.061 391.991 191.273 391.23 192.184C390.47 193.096 388.864 189.973 387.191 186.933C385.519 183.892 387.008 183.218 384.579 183.412C381.246 183.698 379.031 184.207 383.435 194.087C387.632 203.49 395.995 203.196 397.09 209.445C397.113 209.571 397.161 209.692 397.231 209.8C397.301 209.907 397.392 210 397.499 210.072C397.605 210.144 397.725 210.194 397.851 210.219C397.977 210.245 398.107 210.244 398.233 210.219L404.582 208.985Z" fill="white"/>
<path d="M398.048 210.859C397.722 210.859 397.404 210.759 397.136 210.573C396.961 210.454 396.812 210.301 396.698 210.124C396.584 209.946 396.506 209.747 396.47 209.539C395.993 206.816 393.98 205.442 391.431 203.702C388.621 201.787 385.125 199.416 382.855 194.333C380.44 188.921 379.814 185.93 380.763 184.333C381.541 183.015 383.193 182.878 384.519 182.767C386.151 182.63 386.614 182.912 386.871 184.195C387.016 185.044 387.306 185.86 387.729 186.61L388.112 187.31C388.738 188.453 389.578 189.987 390.224 190.91C389.938 190.361 389.584 189.701 389.278 189.153C387.6 186.144 386.46 183.904 387.031 182.495C387.128 182.259 387.278 182.048 387.47 181.88C387.662 181.711 387.891 181.589 388.138 181.524C390.324 180.867 392.491 183.81 395.238 187.524C396.993 189.898 398.985 192.59 401.043 194.273C405.331 197.767 405.926 205.033 405.988 207.987C405.997 208.367 405.87 208.736 405.632 209.031C405.393 209.326 405.058 209.527 404.685 209.599L398.339 210.83C398.243 210.848 398.146 210.858 398.048 210.859ZM385.234 184.001C385.096 184.001 384.902 184.001 384.63 184.03C383.316 184.141 382.275 184.278 381.863 184.973C381.18 186.115 381.886 189.021 384.024 193.81C386.14 198.55 389.333 200.727 392.148 202.647C394.835 204.479 397.156 206.062 397.725 209.316C397.732 209.358 397.748 209.397 397.771 209.433C397.794 209.468 397.824 209.498 397.859 209.522C397.896 209.549 397.938 209.567 397.982 209.577C398.026 209.586 398.072 209.586 398.116 209.576L404.462 208.342C404.542 208.331 404.616 208.29 404.668 208.229C404.721 208.167 404.749 208.088 404.748 208.007C404.702 205.836 404.242 198.493 400.269 195.244C398.091 193.461 396.05 190.701 394.249 188.267C392.094 185.355 389.867 182.341 388.532 182.744C388.469 182.755 388.409 182.782 388.359 182.823C388.309 182.863 388.27 182.916 388.246 182.975C387.86 183.927 389.39 186.69 390.424 188.533C391.756 190.927 392.274 191.924 391.734 192.576C391.628 192.711 391.49 192.816 391.333 192.883C391.175 192.95 391.003 192.976 390.833 192.958C389.778 192.856 388.804 191.161 387.031 187.921L386.648 187.221C386.157 186.359 385.816 185.418 385.642 184.441C385.616 184.299 385.583 184.159 385.542 184.021C385.44 184.005 385.337 183.999 385.234 184.004V184.001Z" fill="black"/>
<path d="M554.054 355.274C554.27 355.237 554.491 355.273 554.683 355.377C554.875 355.48 555.027 355.645 555.115 355.845C555.932 357.754 558.239 362.483 561.821 364.248C564.368 365.503 566.657 366.3 569.758 369.24C572.86 372.18 578.179 379.792 577.019 381.669C575.638 383.894 571.219 381.626 567.82 379.554C564.422 377.483 561.049 372.511 557.745 372.011C554.44 371.511 561.429 379.463 560.432 380.717C559.434 381.972 555.858 380.109 553.571 376.346C552.668 374.86 547.283 361.774 545.651 357.805C545.594 357.669 545.57 357.523 545.578 357.376C545.587 357.229 545.629 357.086 545.701 356.958C545.772 356.829 545.872 356.719 545.993 356.634C546.113 356.55 546.251 356.494 546.397 356.471L554.054 355.274Z" fill="white"/>
<path d="M575.149 383.254C573 383.254 570.067 381.685 567.489 380.111C566.077 379.254 564.682 377.919 563.333 376.634C561.417 374.811 559.437 372.919 557.647 372.654C557.592 372.649 557.537 372.649 557.481 372.654C557.51 373.285 558.605 375.134 559.274 376.265C560.78 378.814 561.6 380.297 560.929 381.139C560.736 381.369 560.488 381.546 560.209 381.656C559.93 381.765 559.628 381.803 559.331 381.765C557.393 381.642 554.757 379.514 553.042 376.705C552.145 375.228 547.171 363.185 545.076 358.076C544.983 357.852 544.942 357.609 544.956 357.367C544.97 357.124 545.039 356.888 545.157 356.676C545.276 356.464 545.44 356.282 545.639 356.142C545.838 356.002 546.065 355.91 546.305 355.87L553.954 354.667C554.311 354.607 554.678 354.668 554.995 354.842C555.313 355.015 555.562 355.291 555.703 355.625C556.507 357.502 558.742 362.048 562.106 363.705C562.509 363.905 562.907 364.09 563.304 364.276C565.376 365.253 567.52 366.276 570.198 368.802C572.639 371.113 579.137 379.488 577.562 382.028C577.016 382.897 576.173 383.254 575.149 383.254ZM557.476 371.368C557.597 371.368 557.719 371.378 557.839 371.399C560.025 371.731 562.152 373.756 564.21 375.716C565.511 376.957 566.857 378.237 568.152 379.028C572.854 381.885 575.655 382.679 576.475 381.348C577.236 380.122 572.957 373.165 569.329 369.716C566.8 367.319 564.842 366.396 562.755 365.431C562.355 365.242 561.949 365.05 561.537 364.859C557.796 363.013 555.389 358.145 554.529 356.136C554.498 356.066 554.445 356.008 554.377 355.972C554.31 355.936 554.232 355.923 554.157 355.936L546.511 357.139C546.461 357.148 546.414 357.169 546.373 357.198C546.331 357.228 546.298 357.267 546.273 357.311C546.249 357.356 546.235 357.405 546.232 357.456C546.229 357.507 546.237 357.558 546.256 357.605C549.606 365.773 553.437 374.911 554.131 376.054C555.761 378.734 558.099 380.422 559.416 380.505C559.586 380.533 559.76 380.495 559.902 380.399C559.922 379.862 558.836 378.031 558.187 376.925C556.644 374.319 555.803 372.802 556.421 371.888C556.537 371.718 556.695 371.58 556.88 371.489C557.065 371.398 557.27 371.356 557.476 371.368Z" fill="black"/>
<path d="M484.241 222.86C477.952 221.432 473.276 220.066 466.824 220.415C459.447 220.815 455.677 220.086 449.56 223.141C438.106 228.855 433.553 244.501 426.838 241.764C420.124 239.027 406.403 203.154 406.403 203.154L394.364 208.209C394.364 208.209 409.656 274.573 421.853 278.553C434.05 282.533 448.891 263.564 448.891 263.564C448.891 263.564 449.431 311.677 441.459 343.529C441.459 343.529 454.036 343.461 462.205 346.846C505.785 364.893 524.184 343.529 524.184 343.529C523.898 331.163 521.191 322.672 512.276 308.888C507.417 301.348 506.005 289.174 515.646 278.165C515.646 278.165 539.134 350.687 543.51 359.23C543.813 359.818 558.273 356.607 558.302 356.267C560.643 330.266 542.798 281.745 540.203 269.979C539.437 266.408 538.351 262.912 536.958 259.536C532.559 249.021 522.721 231.784 504.372 227.398L484.241 222.86Z" fill="white"/>
<path d="M543.856 359.94C543.15 359.94 543.056 359.757 542.936 359.523C538.828 351.503 518.445 288.873 515.386 279.449C506.579 290.201 508.429 301.776 512.814 308.544C521.62 322.168 524.533 330.668 524.819 343.517C524.822 343.674 524.767 343.827 524.665 343.945C524.47 344.171 519.828 349.463 509.721 352.566C500.457 355.423 484.644 356.831 461.96 347.423C453.999 344.128 441.599 344.157 441.459 344.154C441.363 344.154 441.267 344.131 441.181 344.089C441.094 344.046 441.018 343.984 440.959 343.908C440.898 343.833 440.856 343.744 440.836 343.649C440.816 343.554 440.818 343.456 440.842 343.363C447.845 315.362 448.254 274.261 448.256 265.315C444.944 269.181 435.016 279.732 425.406 279.732C424.131 279.737 422.863 279.539 421.65 279.147C409.253 275.101 394.364 211.062 393.738 208.339C393.704 208.193 393.722 208.039 393.791 207.906C393.86 207.772 393.974 207.668 394.112 207.611L406.152 202.556C406.231 202.523 406.315 202.506 406.401 202.506C406.486 202.506 406.571 202.523 406.649 202.556C406.728 202.589 406.8 202.637 406.859 202.699C406.919 202.76 406.965 202.833 406.995 202.913C410.786 212.819 421.785 239 427.087 241.16C430.231 242.434 433.024 238.874 436.583 234.397C439.958 230.134 443.789 225.302 449.283 222.557C454.182 220.108 457.641 220.028 462.431 219.917C463.792 219.885 465.198 219.851 466.802 219.765C472.481 219.454 476.869 220.477 481.951 221.659C482.743 221.845 483.552 222.034 484.395 222.231L504.507 226.771C523.301 231.263 533.28 249.057 537.553 259.286C538.96 262.698 540.058 266.229 540.832 269.838C541.438 272.584 542.887 277.372 544.725 283.435C550.728 303.21 560.732 336.311 558.943 356.317C558.897 356.82 558.888 356.926 555.195 357.806C553.194 358.286 550.759 358.809 548.715 359.206C545.965 359.746 544.585 359.94 543.856 359.94ZM515.638 277.529C515.681 277.525 515.724 277.525 515.766 277.529C515.877 277.551 515.98 277.603 516.064 277.678C516.148 277.754 516.21 277.85 516.244 277.958C516.478 278.675 539.303 349.103 543.936 358.657C545.768 358.631 555.758 356.491 557.691 355.834C559.317 336.037 549.418 303.364 543.493 283.798C541.646 277.709 540.189 272.898 539.574 270.106C538.817 266.572 537.743 263.113 536.364 259.772C532.182 249.772 522.444 232.365 504.204 228.008L484.098 223.468C483.241 223.277 482.44 223.088 481.648 222.897C476.458 221.688 472.359 220.731 466.859 221.034C465.235 221.122 463.755 221.157 462.451 221.185C457.655 221.297 454.488 221.371 449.843 223.691C444.603 226.311 440.867 231.025 437.572 235.185C433.839 239.9 430.611 243.974 426.598 242.329C420.115 239.688 407.944 208.899 406.018 203.973L395.079 208.562C396.548 214.796 410.863 274.278 422.022 277.927C433.653 281.721 448.216 263.335 448.362 263.149C448.442 263.042 448.554 262.962 448.682 262.923C448.81 262.883 448.947 262.884 449.074 262.927C449.201 262.97 449.311 263.052 449.388 263.161C449.466 263.27 449.507 263.401 449.506 263.535C449.506 264.012 449.949 311.302 442.254 342.874C445.201 342.922 455.34 343.3 462.431 346.234C484.727 355.463 500.188 354.108 509.243 351.351C518.025 348.674 522.632 344.208 523.536 343.262C523.221 330.828 520.334 322.513 511.736 309.21C507.002 301.887 505.059 289.247 515.166 277.721C515.227 277.658 515.301 277.608 515.382 277.576C515.463 277.543 515.55 277.527 515.638 277.529Z" fill="black"/>
<path d="M476.471 342.838C476.352 342.838 476.236 342.805 476.135 342.743C476.034 342.68 475.952 342.59 475.9 342.484L458.638 307.311C458.6 307.236 458.578 307.155 458.572 307.071C458.566 306.987 458.577 306.903 458.603 306.824C458.63 306.744 458.672 306.67 458.727 306.607C458.782 306.544 458.849 306.492 458.924 306.454C458.999 306.417 459.08 306.394 459.164 306.388C459.248 306.382 459.332 306.393 459.412 306.42C459.491 306.446 459.565 306.488 459.628 306.543C459.692 306.598 459.744 306.665 459.781 306.74L477.04 341.909C477.078 341.984 477.101 342.066 477.108 342.15C477.114 342.234 477.103 342.318 477.077 342.398C477.05 342.477 477.008 342.551 476.953 342.614C476.897 342.678 476.83 342.729 476.754 342.767C476.667 342.812 476.57 342.837 476.471 342.838Z" fill="black"/>
<path d="M461.367 331.226C461.241 331.226 461.117 331.188 461.013 331.118C460.908 331.048 460.826 330.948 460.778 330.832L456.047 319.386C455.99 319.231 455.995 319.06 456.061 318.909C456.127 318.758 456.25 318.638 456.402 318.576C456.555 318.513 456.726 318.511 456.879 318.572C457.032 318.632 457.157 318.75 457.225 318.9L461.956 330.346C462.02 330.502 462.02 330.677 461.955 330.833C461.89 330.989 461.766 331.113 461.61 331.177C461.533 331.209 461.45 331.225 461.367 331.226Z" fill="black"/>
<path d="M400.47 202.364H385.837C385.343 202.364 384.867 202.175 384.508 201.834C384.15 201.494 383.936 201.029 383.911 200.535L382.519 173.84C382.505 173.578 382.545 173.317 382.636 173.071C382.727 172.825 382.867 172.6 383.047 172.41C383.228 172.22 383.445 172.069 383.686 171.965C383.927 171.862 384.186 171.809 384.448 171.809H401.722C401.983 171.808 402.241 171.861 402.482 171.964C402.722 172.066 402.939 172.217 403.119 172.405C403.3 172.594 403.44 172.818 403.531 173.062C403.623 173.307 403.663 173.568 403.651 173.829L402.402 200.526C402.378 201.022 402.164 201.49 401.804 201.832C401.444 202.175 400.966 202.365 400.47 202.364Z" fill="#FBB90F"/>
<path d="M400.243 198.698C400.111 198.696 399.983 198.652 399.877 198.573C399.771 198.495 399.692 198.385 399.651 198.26C399.609 198.134 399.608 197.999 399.647 197.873C399.687 197.747 399.764 197.636 399.869 197.556C409.413 190.627 412.266 181.298 410.033 177.921C408.575 175.712 405.125 176.004 400.569 178.727C400.424 178.813 400.251 178.838 400.088 178.797C399.924 178.756 399.784 178.651 399.697 178.507C399.611 178.362 399.585 178.189 399.627 178.025C399.668 177.862 399.773 177.721 399.917 177.635C407.329 173.204 410.208 175.869 411.097 177.221C413.995 181.609 410.13 191.681 400.618 198.587C400.508 198.662 400.377 198.701 400.243 198.698Z" fill="black"/>
<path d="M384.016 197.268C377.441 187.585 378.636 183.031 382.386 180.162C382.497 180.082 382.63 180.039 382.767 180.039C382.903 180.039 383.036 180.082 383.147 180.162C390.384 185.214 392.188 190.902 386.963 197.414C386.781 197.636 386.55 197.813 386.288 197.93C386.025 198.046 385.739 198.1 385.452 198.086C385.166 198.071 384.886 197.99 384.637 197.848C384.387 197.706 384.174 197.507 384.016 197.268Z" fill="white"/>
<path d="M385.551 198.699H385.451C385.062 198.685 384.681 198.579 384.34 198.39C383.999 198.201 383.708 197.934 383.49 197.61C377.582 188.913 377.122 183.37 382.001 179.641C382.218 179.478 382.481 179.388 382.752 179.383C383.023 179.378 383.288 179.46 383.511 179.615C387.69 182.53 390.045 185.658 390.511 188.913C390.922 191.77 389.896 194.75 387.461 197.787C387.232 198.074 386.942 198.305 386.611 198.463C386.28 198.62 385.918 198.701 385.551 198.699ZM382.782 180.655C379.923 182.818 377.574 186.63 384.542 196.893C384.649 197.051 384.791 197.181 384.957 197.274C385.124 197.366 385.31 197.418 385.5 197.424C385.685 197.436 385.869 197.403 386.038 197.327C386.206 197.25 386.353 197.134 386.466 196.987C388.673 194.239 389.61 191.581 389.25 189.09C388.836 186.21 386.66 183.373 382.782 180.667V180.655Z" fill="black"/>
<path d="M486.013 211.641C481.511 208.541 486.636 189.992 491.729 187.255C496.823 184.518 507.539 187.503 507.539 187.503C503.555 200.567 510.712 203.79 511.71 203.79C512.707 203.79 515.88 203.978 513.888 208.207C511.896 212.436 507.414 210.135 507.414 210.135C506.516 210.93 504.824 211.83 502.751 212.596C500.279 219.939 502.992 225.716 505.324 228.97C505.602 229.349 505.783 229.79 505.85 230.255C505.917 230.719 505.868 231.193 505.708 231.635C505.548 232.077 505.282 232.472 504.933 232.786C504.584 233.1 504.162 233.323 503.706 233.436C500.542 234.19 495.703 234.636 489.614 233.03C484.958 231.802 481.845 230.116 479.796 228.553C479.409 228.255 479.106 227.864 478.914 227.416C478.722 226.968 478.647 226.478 478.698 225.993C478.749 225.509 478.923 225.045 479.203 224.646C479.484 224.247 479.862 223.927 480.302 223.716C485.507 221.347 488.991 213.693 486.013 211.641Z" fill="white"/>
<path d="M497.707 234.761C494.922 234.75 492.15 234.378 489.46 233.656C485.381 232.581 482 231.038 479.419 229.084C478.938 228.719 478.561 228.235 478.324 227.68C478.088 227.125 478.001 226.518 478.072 225.918C478.132 225.327 478.346 224.762 478.692 224.279C479.038 223.796 479.504 223.411 480.045 223.164C483.572 221.547 486.207 217.404 486.453 214.547C486.522 213.767 486.453 212.721 485.653 212.178C484.166 211.155 483.483 208.749 483.678 205.221C484.049 198.521 487.594 188.769 491.438 186.706C496.706 183.88 507.271 186.777 507.731 186.903C507.813 186.926 507.889 186.966 507.955 187.019C508.022 187.072 508.077 187.137 508.117 187.212C508.158 187.286 508.184 187.368 508.192 187.452C508.201 187.537 508.193 187.622 508.169 187.703C506.002 194.812 507.251 198.749 508.683 200.803C509.898 202.546 511.416 203.161 511.736 203.178C513.591 203.178 514.428 203.884 514.803 204.472C515.403 205.421 515.297 206.775 514.483 208.504C513.845 209.861 512.905 210.758 511.69 211.172C510.009 211.744 508.291 211.207 507.537 210.904C506.576 211.644 505.064 212.429 503.284 213.109C501.108 219.907 503.472 225.29 505.856 228.627C506.195 229.099 506.413 229.647 506.49 230.223C506.567 230.799 506.502 231.385 506.299 231.93C506.101 232.46 505.776 232.933 505.351 233.308C504.927 233.683 504.417 233.947 503.867 234.079C501.847 234.546 499.78 234.776 497.707 234.761ZM486.376 211.115C487.382 211.809 487.86 213.061 487.722 214.644C487.437 217.844 484.635 222.447 480.576 224.307C480.236 224.463 479.943 224.706 479.726 225.011C479.509 225.316 479.376 225.672 479.339 226.044C479.296 226.423 479.353 226.807 479.503 227.157C479.653 227.508 479.892 227.813 480.196 228.044C482.646 229.907 485.873 231.378 489.792 232.413C495.866 234.013 500.637 233.513 503.572 232.813C503.92 232.732 504.243 232.566 504.511 232.329C504.778 232.092 504.982 231.791 505.104 231.456C505.235 231.106 505.277 230.731 505.227 230.361C505.177 229.992 505.037 229.641 504.819 229.338C502.223 225.713 499.653 219.83 502.16 212.389C502.191 212.299 502.241 212.217 502.307 212.149C502.373 212.081 502.454 212.028 502.543 211.995C504.495 211.272 506.165 210.398 507.005 209.655C507.101 209.571 507.22 209.517 507.347 209.501C507.474 209.485 507.603 209.508 507.717 209.566C507.734 209.566 509.606 210.509 511.279 209.935C512.136 209.649 512.839 208.961 513.322 207.935C513.928 206.646 514.065 205.678 513.72 205.129C513.434 204.669 512.736 204.426 511.719 204.426C511.113 204.426 509.28 203.743 507.777 201.715C506.133 199.495 504.653 195.32 506.751 187.943C504.421 187.372 496.175 185.589 492.041 187.803C488.974 189.446 485.33 198.423 484.95 205.266C484.784 208.295 485.296 210.369 486.376 211.115Z" fill="black"/>
<path d="M361.567 86.8043C360.729 76.024 361.567 60.6608 370.816 47.8376C396.422 12.3739 471.147 17.5711 485.679 46.5176C493.048 61.2065 485.076 82.3413 473.165 93.9731C455.554 111.176 425.847 111.013 407.707 100.673C390.442 90.8273 385.077 72.5554 374.115 74.2554C368.027 75.2012 363.968 81.7356 361.567 86.8043Z" fill="white"/>
<path d="M436.345 108.436C425.915 108.436 415.564 105.885 407.398 101.225C399.423 96.6789 394.081 90.4987 389.367 85.0471C384.039 78.8841 379.834 74.0126 374.218 74.884C369.704 75.584 365.642 79.687 362.141 87.0758C362.082 87.2036 361.982 87.3082 361.857 87.3729C361.731 87.4377 361.588 87.459 361.45 87.4334C361.311 87.4079 361.185 87.337 361.091 87.2319C360.997 87.1268 360.941 86.9934 360.932 86.8529C359.703 71.0268 362.855 57.775 370.302 47.4662C376.876 38.3517 387.215 31.2715 400.192 26.9857C411.771 23.1627 425.417 21.6398 438.62 22.6999C461.642 24.5456 479.89 33.5573 486.247 46.2319C493.805 61.2923 485.756 82.5642 473.61 94.4302C465.375 102.473 453.678 107.393 440.678 108.288C439.234 108.387 437.79 108.436 436.345 108.436ZM375.558 73.504C381.075 73.504 385.208 78.2898 390.33 84.2157C394.978 89.5901 400.243 95.6817 408.027 100.122C425.62 110.153 455.356 110.482 472.718 93.5188C484.283 82.2242 492.307 61.1494 485.11 46.8005C478.953 34.5287 461.099 25.7799 438.517 23.9685C416.854 22.2284 386.26 27.5343 371.345 48.2091C364.447 57.7607 361.34 69.9239 362.064 84.4214C365.525 77.9498 369.544 74.324 374.035 73.6269C374.538 73.5463 375.048 73.5052 375.558 73.504Z" fill="black"/>
<path d="M460.287 57.5522H397.362C397.275 57.558 397.188 57.5459 397.106 57.5166C397.023 57.4873 396.948 57.4414 396.884 57.3818C396.82 57.3222 396.77 57.2502 396.735 57.1701C396.7 57.0901 396.682 57.0037 396.682 56.9165C396.682 56.8292 396.7 56.7429 396.735 56.6628C396.77 56.5828 396.82 56.5107 396.884 56.4511C396.948 56.3915 397.023 56.3456 397.106 56.3163C397.188 56.287 397.275 56.2749 397.362 56.2807H460.287C460.374 56.2749 460.462 56.287 460.544 56.3163C460.626 56.3456 460.702 56.3915 460.765 56.4511C460.829 56.5107 460.88 56.5828 460.915 56.6628C460.949 56.7429 460.967 56.8292 460.967 56.9165C460.967 57.0037 460.949 57.0901 460.915 57.1701C460.88 57.2502 460.829 57.3222 460.765 57.3818C460.702 57.4414 460.626 57.4873 460.544 57.5166C460.462 57.5459 460.374 57.558 460.287 57.5522Z" fill="black"/>
<path d="M443.563 68.6044H411.889C411.72 68.6044 411.558 68.5373 411.438 68.4178C411.319 68.2983 411.251 68.1362 411.251 67.9672C411.251 67.7983 411.319 67.6362 411.438 67.5167C411.558 67.3972 411.72 67.3301 411.889 67.3301H443.563C443.647 67.3301 443.73 67.3466 443.807 67.3786C443.884 67.4106 443.954 67.4575 444.014 67.5167C444.073 67.5759 444.12 67.6461 444.152 67.7234C444.184 67.8007 444.2 67.8836 444.2 67.9672C444.2 68.0509 444.184 68.1338 444.152 68.2111C444.12 68.2884 444.073 68.3586 444.014 68.4178C443.954 68.4769 443.884 68.5239 443.807 68.5559C443.73 68.5879 443.647 68.6044 443.563 68.6044Z" fill="black"/>
<path d="M526.568 155.6C528.169 153.351 546.205 127.079 534.877 97.1154C526.925 76.0806 506.696 59.0373 483.209 58.123C479.247 57.9687 454.259 56.9801 440.847 76.9463C431.814 90.3752 430.843 109.156 439.606 122.813C450.037 139.048 469.96 141.359 472.918 141.671C493.613 143.754 505.018 130.485 516.303 136.891C523.209 140.794 525.599 149.554 526.568 155.6Z" fill="white"/>
<path d="M526.566 156.236C526.517 156.236 526.469 156.23 526.423 156.219C526.3 156.19 526.188 156.125 526.102 156.032C526.016 155.94 525.959 155.824 525.94 155.699C524.459 146.482 521.112 140.333 515.989 137.413C510.413 134.247 504.793 136.104 497.678 138.453C490.801 140.721 483.006 143.296 472.853 142.276C467.465 141.733 449.1 138.75 439.07 123.132C430.423 109.675 430.935 90.5259 440.319 76.5598C452.61 58.2908 474.414 57.1079 483.232 57.4565C494.609 57.8993 505.685 62.0794 515.246 69.5453C524.332 76.6556 531.318 86.097 535.458 96.8632C546.814 126.898 529.127 153.059 527.071 155.942C527.017 156.028 526.942 156.099 526.854 156.15C526.766 156.201 526.667 156.231 526.566 156.236ZM509.541 134.478C512.022 134.452 514.465 135.087 516.618 136.318C521.792 139.256 525.256 145.176 526.923 153.939C530.925 147.79 544.411 124.13 534.28 97.3403C525.882 75.1255 505.348 59.6251 483.183 58.7679C474.582 58.4365 453.299 59.5708 441.376 77.3112C432.267 90.863 431.761 109.438 440.142 122.481C450.115 137.996 469.249 140.659 472.982 141.036C482.866 142.03 490.524 139.499 497.278 137.27C501.666 135.807 505.682 134.478 509.541 134.478Z" fill="black"/>
<path d="M514.871 96.1772H455.702C455.541 96.1664 455.39 96.0947 455.279 95.9767C455.169 95.8586 455.107 95.7031 455.107 95.5415C455.107 95.3799 455.169 95.2243 455.279 95.1063C455.39 94.9882 455.541 94.9165 455.702 94.9057H514.871C514.958 94.8999 515.046 94.912 515.128 94.9413C515.21 94.9706 515.286 95.0165 515.349 95.0761C515.413 95.1357 515.464 95.2077 515.499 95.2878C515.533 95.3678 515.551 95.4542 515.551 95.5415C515.551 95.6287 515.533 95.7151 515.499 95.7951C515.464 95.8752 515.413 95.9472 515.349 96.0068C515.286 96.0664 515.21 96.1123 515.128 96.1416C515.046 96.1709 514.958 96.183 514.871 96.1772Z" fill="black"/>
<path d="M495.762 103.884H474.61C474.523 103.89 474.436 103.878 474.354 103.849C474.271 103.819 474.196 103.773 474.132 103.714C474.068 103.654 474.018 103.582 473.983 103.502C473.948 103.422 473.93 103.336 473.93 103.248C473.93 103.161 473.948 103.075 473.983 102.995C474.018 102.915 474.068 102.843 474.132 102.783C474.196 102.723 474.271 102.678 474.354 102.648C474.436 102.619 474.523 102.607 474.61 102.613H495.762C495.924 102.624 496.075 102.695 496.185 102.813C496.296 102.931 496.357 103.087 496.357 103.248C496.357 103.41 496.296 103.566 496.185 103.684C496.075 103.802 495.924 103.873 495.762 103.884Z" fill="black"/>
<path d="M92.2897 517.714H317.415C326.991 517.714 334.757 509.84 334.757 500.125L312.807 38.4367C312.807 28.7221 305.044 20.8477 295.465 20.8477H70.34C60.7615 20.8477 52.998 28.725 52.998 38.4367L74.9449 500.134C74.9449 509.848 82.7112 517.714 92.2897 517.714Z" fill="black"/>
<path d="M107.548 517.816H332.673C342.252 517.816 350.015 509.973 350.015 500.301L328.083 39.4435C328.083 29.7718 320.317 21.9316 310.738 21.9316H85.5983C76.0226 21.9316 68.2563 29.7718 68.2563 39.4435L90.2061 500.312C90.2061 509.973 97.9809 517.816 107.548 517.816Z" fill="white"/>
<path d="M310.209 517.85H263.834C263.665 517.85 263.503 517.783 263.383 517.664C263.264 517.544 263.197 517.382 263.197 517.213C263.197 517.044 263.264 516.882 263.383 516.763C263.503 516.643 263.665 516.576 263.834 516.576H310.209C310.378 516.576 310.54 516.643 310.66 516.763C310.779 516.882 310.846 517.044 310.846 517.213C310.846 517.382 310.779 517.544 310.66 517.664C310.54 517.783 310.378 517.85 310.209 517.85Z" fill="black"/>
<path d="M239.541 517.848H107.548C97.6349 517.848 89.5685 509.705 89.5685 499.699L81.2105 343.695C81.2082 343.53 81.2697 343.371 81.3821 343.251C81.4945 343.131 81.6491 343.059 81.8136 343.05C81.978 343.041 82.1395 343.096 82.2642 343.203C82.3889 343.311 82.4671 343.463 82.4825 343.626L90.8348 499.667C90.8348 509.005 98.3295 516.576 107.542 516.576H239.541C239.71 516.576 239.872 516.644 239.991 516.763C240.111 516.883 240.178 517.045 240.178 517.214C240.178 517.383 240.111 517.545 239.991 517.664C239.872 517.784 239.71 517.851 239.541 517.851V517.848Z" fill="black"/>
<path d="M75.477 196.635C75.3137 196.635 75.1569 196.572 75.0388 196.459C74.9208 196.346 74.8505 196.192 74.8424 196.029L67.6221 38.8827C67.6221 28.8453 75.6856 20.7051 85.5986 20.7051H310.727C320.64 20.7051 328.703 28.8453 328.703 38.8541L330.419 80.7752C330.422 80.8585 330.409 80.9416 330.38 81.0199C330.351 81.0982 330.308 81.1701 330.251 81.2314C330.194 81.2927 330.126 81.3422 330.051 81.3772C329.975 81.4122 329.893 81.4319 329.81 81.4352C329.725 81.4419 329.641 81.4311 329.561 81.4036C329.481 81.3761 329.408 81.3324 329.345 81.2753C329.283 81.2182 329.233 81.1489 329.199 81.0717C329.165 80.9945 329.147 80.911 329.146 80.8266L327.431 38.8798C327.431 29.5482 319.937 21.9794 310.727 21.9794H85.5986C76.3888 21.9794 68.8941 29.5482 68.8941 38.8541L76.1144 195.969C76.1186 196.053 76.1063 196.137 76.0781 196.215C76.0498 196.294 76.0063 196.367 75.95 196.428C75.8937 196.49 75.8257 196.54 75.7499 196.576C75.6741 196.611 75.592 196.632 75.5084 196.635H75.477Z" fill="black"/>
<path d="M117.99 504.64H323.578C332.325 504.64 339.416 497.48 339.416 488.64L317.747 52.2172C317.747 43.3827 310.655 36.2168 301.908 36.2168H96.32C87.5732 36.2168 80.4844 43.377 80.4844 52.2172L102.151 488.648C102.151 497.48 109.243 504.64 117.99 504.64Z" fill="white"/>
<path d="M323.577 505.278H117.989C108.905 505.278 101.516 497.818 101.516 488.646L79.8467 52.2492C79.8467 43.0461 87.2357 35.5859 96.3197 35.5859H301.908C310.992 35.5859 318.381 43.0461 318.381 52.2178L340.051 488.615C340.051 497.818 332.656 505.278 323.577 505.278ZM96.334 36.8603C87.9531 36.8603 81.133 43.749 81.133 52.2178L102.803 488.615C102.803 497.115 109.623 504.003 118.004 504.003H323.592C331.973 504.003 338.793 497.115 338.793 488.646L317.109 52.2492C317.109 43.749 310.289 36.8603 301.908 36.8603H96.334Z" fill="black"/>
<path d="M95.494 175.669C95.3301 175.669 95.1724 175.606 95.0541 175.493C94.9358 175.379 94.8661 175.224 94.8594 175.061L92.8957 133.671C92.8879 133.502 92.9474 133.338 93.061 133.213C93.1746 133.088 93.3331 133.013 93.5017 133.005C93.5855 133 93.6696 133.011 93.7489 133.039C93.8282 133.067 93.9011 133.11 93.9633 133.167C94.0254 133.223 94.0755 133.292 94.1107 133.368C94.1458 133.444 94.1652 133.527 94.1677 133.611L96.1314 175.001C96.1392 175.169 96.0797 175.334 95.9661 175.459C95.8525 175.583 95.694 175.658 95.5254 175.666L95.494 175.669Z" fill="black"/>
<path d="M312.567 137.512C312.404 137.511 312.247 137.448 312.129 137.336C312.011 137.223 311.941 137.069 311.933 136.906L308.283 59.8958C308.283 51.6956 302.014 45.0383 294.308 45.0383H104.644C96.9405 45.0383 90.672 51.6842 90.672 59.8529L93.4447 118.329C93.4525 118.497 93.393 118.662 93.2794 118.787C93.1658 118.912 93.0073 118.986 92.8387 118.994C92.6702 119 92.5062 118.939 92.3818 118.826C92.2573 118.712 92.1823 118.554 92.1727 118.386L89.4058 59.8958C89.4058 50.9927 96.2459 43.7754 104.653 43.7754H294.317C302.723 43.7754 309.563 50.9927 309.563 59.8644L313.219 136.846C313.227 137.015 313.168 137.18 313.054 137.304C312.94 137.429 312.782 137.504 312.613 137.512H312.567Z" fill="black"/>
<path d="M328.809 415.665C328.645 415.665 328.488 415.601 328.369 415.488C328.25 415.375 328.18 415.22 328.172 415.057L325.096 350.146C325.092 350.063 325.104 349.979 325.132 349.901C325.161 349.822 325.204 349.749 325.26 349.688C325.317 349.626 325.385 349.576 325.461 349.54C325.536 349.505 325.618 349.484 325.702 349.481C325.87 349.476 326.033 349.536 326.157 349.649C326.281 349.762 326.357 349.919 326.368 350.086L329.447 414.988C329.453 415.157 329.392 415.321 329.279 415.446C329.165 415.57 329.006 415.645 328.838 415.654L328.809 415.665Z" fill="white"/>
<path d="M295.868 497.637H173.608C173.447 497.626 173.296 497.554 173.186 497.436C173.075 497.318 173.014 497.163 173.014 497.001C173.014 496.839 173.075 496.684 173.186 496.566C173.296 496.448 173.447 496.376 173.608 496.365H295.868C296.03 496.376 296.181 496.448 296.291 496.566C296.402 496.684 296.463 496.839 296.463 497.001C296.463 497.163 296.402 497.318 296.291 497.436C296.181 497.554 296.03 497.626 295.868 497.637Z" fill="black"/>
<path d="M158.327 497.638H124.635C116.229 497.638 109.388 490.421 109.388 481.549L106.719 425.231C106.719 425.067 106.782 424.909 106.895 424.791C107.008 424.673 107.163 424.602 107.326 424.594C107.49 424.587 107.65 424.642 107.774 424.75C107.898 424.857 107.975 425.008 107.991 425.171L110.66 481.521C110.66 489.721 116.929 496.378 124.635 496.378H158.327C158.414 496.372 158.502 496.384 158.584 496.414C158.666 496.443 158.742 496.489 158.805 496.549C158.869 496.608 158.92 496.68 158.955 496.76C158.989 496.84 159.007 496.927 159.007 497.014C159.007 497.101 158.989 497.187 158.955 497.268C158.92 497.348 158.869 497.42 158.805 497.479C158.742 497.539 158.666 497.585 158.584 497.614C158.502 497.643 158.414 497.655 158.327 497.65V497.638Z" fill="black"/>
<path d="M236.265 21.9551L231.926 29.1724C229.294 33.5582 224.877 36.1869 220.155 36.1869H176.367C171.745 36.1869 167.412 33.6697 164.756 29.4381L160.06 21.9551H236.265Z" fill="black"/>
<path d="M339.747 296.573C339.584 296.572 339.427 296.509 339.308 296.397C339.19 296.284 339.119 296.13 339.11 295.967L335.926 232.951C335.918 232.866 335.927 232.779 335.953 232.697C335.979 232.615 336.022 232.539 336.078 232.474C336.135 232.409 336.204 232.356 336.281 232.318C336.359 232.281 336.443 232.259 336.529 232.255C336.615 232.25 336.701 232.264 336.782 232.294C336.862 232.323 336.936 232.369 336.999 232.429C337.061 232.488 337.111 232.559 337.145 232.638C337.18 232.717 337.197 232.802 337.198 232.888L340.373 295.904C340.382 296.073 340.323 296.238 340.21 296.363C340.097 296.489 339.939 296.564 339.77 296.573H339.747Z" fill="black"/>
<path d="M204.428 357.043C267.015 357.043 317.753 306.327 317.753 243.765C317.753 181.204 267.015 130.488 204.428 130.488C141.841 130.488 91.1035 181.204 91.1035 243.765C91.1035 306.327 141.841 357.043 204.428 357.043Z" fill="white"/>
<path d="M204.428 357.677C141.591 357.677 90.4658 306.576 90.4658 243.766C90.4658 180.955 141.591 129.84 204.428 129.84C267.264 129.84 318.39 180.941 318.39 243.754C318.39 306.567 267.267 357.677 204.428 357.677ZM204.428 131.123C142.292 131.123 91.7407 181.655 91.7407 243.766C91.7407 305.876 142.286 356.417 204.428 356.417C266.57 356.417 317.115 305.884 317.115 243.777C317.115 181.67 266.564 131.123 204.428 131.123Z" fill="black"/>
<path d="M267.422 322.564L162.152 328.493C162.152 328.493 162.101 337.731 161.866 348.259C176.85 355.562 193.569 357.04 211.36 357.04C232.798 357.04 252.658 346.651 269.751 336.316L267.422 322.564Z" fill="black"/>
<path d="M356.776 119.005C356.524 116.865 357.745 114.496 358.177 112.345C359.111 107.673 359.909 102.939 359.772 98.1788C359.652 93.9673 359.469 90.1786 357.736 86.3585C356.55 83.7499 354.666 80.4784 351.056 80.8241C348.435 81.0727 346 82.7327 344.548 84.887C342.547 87.8443 342.089 91.5815 342.192 95.1473C342.287 98.3531 343.456 102.265 342.764 105.416C342.038 108.759 340.1 108.468 338.419 105.87C334.195 99.336 327.157 98.0988 329.635 100.41C332.114 102.722 336.576 111.971 338.228 114.511C338.825 115.434 340.675 116.559 342.784 117.619C342.842 126.359 341.131 135.021 337.753 143.083C332.64 155.149 324.605 163.449 317.97 168.769C323.401 178.272 335.229 193.796 355.51 196.381C358.386 190.67 360.631 184.662 362.204 178.464C366.425 161.803 365.722 144.277 360.18 128.008C359.243 125.257 357.925 122.642 356.973 119.908C356.875 119.615 356.809 119.312 356.776 119.005Z" fill="white"/>
<path d="M355.523 197.018H355.44C334.748 194.378 322.746 178.386 317.423 169.091C317.348 168.959 317.322 168.805 317.35 168.656C317.378 168.506 317.459 168.372 317.578 168.277C326.439 161.171 333.013 152.614 337.172 142.848C340.477 134.989 342.17 126.547 342.151 118.021C339.725 116.779 338.264 115.736 337.698 114.878C337.132 114.021 336.335 112.536 335.386 110.79C333.456 107.25 330.812 102.398 329.206 100.895C328.986 100.69 328.314 100.061 328.531 99.3838C328.596 99.2012 328.714 99.042 328.87 98.9265C329.026 98.811 329.212 98.7444 329.406 98.7352C331.052 98.5038 335.8 100.658 338.962 105.544C339.848 106.915 340.634 107.321 341.025 107.258C341.48 107.175 341.9 106.45 342.146 105.315C342.56 103.407 342.243 101.13 341.94 98.9267C341.746 97.6961 341.616 96.4563 341.551 95.2123C341.423 90.7065 342.229 87.2292 344.018 84.5749C345.65 82.152 348.323 80.4891 350.993 80.2348C354.943 79.8548 356.975 83.1948 358.313 86.1406C360.028 89.935 360.274 93.6894 360.405 98.2038C360.537 102.775 359.856 107.221 358.796 112.513C358.624 113.297 358.411 114.071 358.156 114.833C357.713 116.241 357.255 117.69 357.404 118.976C357.435 119.237 357.494 119.495 357.578 119.744C358.036 121.056 358.59 122.367 359.128 123.639C359.699 125.002 360.3 126.413 360.788 127.847C366.37 144.232 367.078 161.884 362.826 178.663C361.242 184.907 358.98 190.959 356.081 196.712C356.023 196.807 355.941 196.886 355.843 196.94C355.745 196.993 355.635 197.02 355.523 197.018ZM318.807 168.923C324.092 178.003 335.626 192.995 355.154 195.689C357.915 190.14 360.076 184.313 361.6 178.306C365.789 161.766 365.094 144.367 359.599 128.213C359.125 126.819 358.536 125.43 357.97 124.087C357.424 122.799 356.861 121.467 356.392 120.119C356.276 119.781 356.196 119.431 356.155 119.076C355.972 117.53 356.472 115.933 356.955 114.404C357.195 113.687 357.397 112.957 357.561 112.218C358.605 107.01 359.276 102.632 359.145 98.1952C359.016 93.6808 358.799 90.195 357.17 86.6206C356.003 84.0491 354.265 81.1548 351.127 81.4548C348.84 81.6748 346.513 83.1234 345.087 85.2406C343.455 87.6664 342.717 90.9008 342.84 95.1294C342.901 96.3315 343.026 97.5294 343.215 98.7181C343.535 101.03 343.867 103.421 343.403 105.55C342.932 107.735 341.974 108.347 341.268 108.478C340.173 108.675 338.982 107.873 337.904 106.215C335.266 102.135 331.678 100.372 330.186 100.027C331.944 101.741 334.474 106.404 336.526 110.161C337.464 111.876 338.275 113.373 338.79 114.161C339.047 114.561 339.953 115.467 343.098 117.047C343.204 117.1 343.293 117.181 343.356 117.282C343.418 117.383 343.45 117.5 343.449 117.619C343.519 126.446 341.789 135.195 338.367 143.333C334.188 153.142 327.614 161.751 318.801 168.923H318.807Z" fill="black"/>
<path d="M317.978 168.77C314.847 171.271 311.537 173.539 308.074 175.555C275.794 194.716 256.148 172.741 203.267 174.155C183.93 174.673 170.682 171.924 136.192 186.887C136.192 186.887 73.3613 207.019 73.3613 271.332C73.3613 289.367 85.2495 304.644 99.2585 309.525C111.781 293.876 115.792 284.935 125.579 281.092C125.507 280.355 118.719 275.706 118.787 274.938C120.485 258.6 126.002 253.935 132.342 250.937C135.243 249.557 138.653 251.223 138.988 254.423C140.462 268.458 138.402 279.609 141.534 312.962C143.355 332.322 145.296 335.174 147.163 337.074C159.454 349.583 180.432 332.839 229.43 332.091C252.689 331.736 268.019 335.205 272.389 327.165C275.534 321.371 270.297 314.513 266.475 304.436C261.753 291.987 258.472 272.772 266.693 244.274C299.316 247.892 331.336 233.248 349.704 206.273C351.858 203.107 353.802 199.802 355.523 196.382C335.229 193.796 323.409 178.273 317.978 168.77Z" fill="white"/>
<path d="M159.356 342.328C154.246 342.328 150.178 341.031 146.702 337.496C144.584 335.339 142.683 332.007 140.897 312.996C139.556 299.307 138.914 285.56 138.976 271.806C138.959 265.291 138.945 260.149 138.347 254.466C138.29 253.867 138.088 253.292 137.758 252.789C137.429 252.285 136.983 251.87 136.458 251.577C135.869 251.257 135.213 251.081 134.543 251.066C133.874 251.051 133.21 251.195 132.607 251.488C126.891 254.2 121.174 258.24 119.427 274.852C119.782 275.349 121.568 276.769 122.772 277.709C125.464 279.846 126.153 280.449 126.202 281.006C126.215 281.144 126.183 281.283 126.11 281.401C126.037 281.519 125.928 281.61 125.799 281.66C118.841 284.392 114.9 289.732 108.362 298.578C105.918 301.887 103.149 305.638 99.7415 309.898C99.6584 310.001 99.5458 310.075 99.419 310.111C99.2922 310.148 99.1573 310.144 99.0326 310.101C83.7801 304.787 72.7095 288.472 72.7095 271.309C72.7095 237.839 89.92 216.493 104.355 204.479C119.976 191.478 135.826 186.307 135.983 186.258C165.162 173.592 179.431 173.586 194.566 173.578C197.353 173.578 200.235 173.578 203.236 173.495C224.943 172.923 240.767 176.201 254.73 179.098C274.547 183.209 288.871 186.184 307.734 174.986C311.173 172.987 314.462 170.738 317.572 168.258C317.645 168.201 317.728 168.161 317.817 168.139C317.906 168.116 317.999 168.113 318.09 168.129C318.18 168.146 318.265 168.183 318.34 168.237C318.415 168.291 318.476 168.36 318.521 168.44C323.718 177.529 335.443 193.167 355.589 195.735C355.69 195.748 355.787 195.785 355.87 195.843C355.954 195.901 356.023 195.978 356.07 196.068C356.118 196.158 356.143 196.258 356.144 196.36C356.145 196.461 356.121 196.562 356.075 196.653C354.343 200.095 352.386 203.42 350.215 206.604C331.747 233.716 299.95 248.368 267.141 244.928C260.73 267.5 260.698 287.415 267.056 304.172C268.07 306.847 269.162 309.247 270.22 311.567C273.107 317.901 275.388 322.904 272.935 327.43C269.554 333.665 260.301 333.373 246.292 332.933C241.293 332.773 235.63 332.593 229.427 332.69C207.635 333.022 191.082 336.599 178.994 339.208C171.01 340.948 164.627 342.328 159.356 342.328ZM134.471 249.791C135.385 249.788 136.284 250.022 137.081 250.468C137.785 250.858 138.383 251.414 138.825 252.087C139.266 252.76 139.537 253.53 139.613 254.331C140.219 260.08 140.234 265.251 140.251 271.8C140.188 285.517 140.826 299.227 142.163 312.878C143.91 331.45 145.736 334.696 147.611 336.593C154.186 343.276 163.421 341.279 178.731 337.97C190.87 335.348 207.495 331.759 229.416 331.425C235.647 331.33 241.33 331.507 246.341 331.665C259.878 332.093 268.816 332.373 271.823 326.83C273.973 322.861 271.823 318.113 269.071 312.098C268.053 309.87 266.904 307.344 265.875 304.63C259.369 287.486 259.438 267.106 266.072 244.057C266.114 243.912 266.205 243.787 266.33 243.703C266.455 243.62 266.606 243.583 266.755 243.6C299.284 247.205 330.867 232.742 349.172 205.884C351.142 202.99 352.935 199.98 354.543 196.87C334.86 193.958 323.206 178.941 317.795 169.706C314.81 172.041 311.669 174.169 308.394 176.075C289.105 187.524 274.582 184.509 254.479 180.338C240.584 177.455 224.828 174.183 203.279 174.763C200.263 174.843 197.37 174.846 194.575 174.846C179.588 174.846 165.433 174.846 136.441 187.441C136.223 187.512 120.576 192.624 105.144 205.481C90.9318 217.319 73.9872 238.339 73.9872 271.303C73.9872 287.783 84.4918 303.45 99.0326 308.733C102.297 304.638 104.972 301.018 107.342 297.809C113.762 289.115 117.732 283.741 124.53 280.795C123.921 280.223 122.832 279.366 121.974 278.689C118.647 276.049 118.075 275.472 118.141 274.835C119.948 257.446 126.27 253.06 132.056 250.308C132.813 249.96 133.638 249.783 134.471 249.791Z" fill="black"/>
<path d="M183.081 277.111C182.963 277.11 182.848 277.078 182.747 277.017C169.884 269.102 163.91 256.616 167.174 250.73C168.166 248.945 171.536 245.325 181.392 250.23C181.544 250.306 181.659 250.439 181.713 250.6C181.766 250.761 181.754 250.936 181.678 251.088C181.602 251.239 181.469 251.354 181.308 251.408C181.148 251.462 180.972 251.449 180.82 251.373C174.572 248.265 170.001 248.256 168.283 251.35C165.711 255.993 170.316 267.874 183.41 275.923C183.529 275.994 183.621 276.103 183.672 276.233C183.723 276.362 183.73 276.505 183.692 276.639C183.654 276.772 183.573 276.89 183.462 276.973C183.351 277.057 183.215 277.101 183.076 277.1L183.081 277.111Z" fill="black"/>
<path d="M183.216 282.039L202.081 280.591C202.719 280.541 203.313 280.249 203.742 279.774C204.171 279.3 204.401 278.679 204.385 278.039L203.527 243.467C203.519 243.128 203.441 242.795 203.3 242.487C203.158 242.179 202.955 241.903 202.704 241.676C202.452 241.449 202.157 241.275 201.836 241.166C201.515 241.056 201.176 241.013 200.838 241.038L178.542 242.753C178.205 242.779 177.877 242.873 177.578 243.029C177.278 243.186 177.014 243.401 176.8 243.662C176.586 243.924 176.428 244.226 176.334 244.55C176.241 244.875 176.214 245.215 176.255 245.55L180.517 279.862C180.598 280.504 180.924 281.089 181.427 281.495C181.93 281.901 182.571 282.096 183.216 282.039Z" fill="#FBB90F"/>
<path d="M197.596 261.877C197.48 261.62 197.335 261.377 197.165 261.152C193.778 256.692 186.391 261.312 182.53 262.543L173.443 265.446L161.892 279.092C155.635 280.749 136.607 287.155 122.686 278.089C118.213 275.175 112.227 276.406 109.049 280.695C104.298 287.104 99.8359 295.441 96.9575 308.484C119.31 315.184 151.267 306.984 165.605 294.198C172.139 294.452 177.267 288.121 181.192 283.738C183.404 281.269 185.48 278.329 188.284 276.512C190.856 274.846 193.975 273.826 195.91 271.323C197.153 269.718 197.716 267.683 197.959 265.669C198.108 264.397 198.117 263.02 197.596 261.877Z" fill="white"/>
<path d="M114.891 311.557C108.603 311.557 102.44 310.797 96.772 309.1C96.6184 309.052 96.4882 308.949 96.4072 308.81C96.3262 308.672 96.3003 308.508 96.3346 308.351C98.8157 297.111 102.692 288.202 108.534 280.319C111.964 275.704 118.324 274.49 123.032 277.559C135.626 285.762 152.731 280.987 160.034 278.947L161.532 278.533L172.966 265.038C173.041 264.948 173.14 264.879 173.252 264.841L182.344 261.941C183.107 261.695 184.059 261.301 185.04 260.884C189.113 259.17 194.687 256.832 197.677 260.77C197.877 261.035 198.046 261.323 198.18 261.627C198.671 262.704 198.803 264.018 198.594 265.761C198.291 268.276 197.579 270.227 196.416 271.73C194.987 273.57 192.986 274.642 191.065 275.676C190.248 276.113 189.402 276.567 188.633 277.064C186.583 278.39 184.9 280.387 183.273 282.316C182.739 282.95 182.207 283.579 181.67 284.182L180.855 285.096C176.985 289.456 172.185 294.862 165.991 294.862H165.84C155.186 304.197 134.443 311.557 114.891 311.557ZM97.6952 308.039C120.637 314.611 151.556 305.848 165.154 293.725C165.214 293.669 165.284 293.626 165.361 293.598C165.439 293.571 165.521 293.559 165.602 293.565C171.391 293.773 176.096 288.49 179.874 284.233L180.692 283.316C181.224 282.722 181.744 282.105 182.27 281.479C183.959 279.479 185.7 277.41 187.912 275.979C188.724 275.453 189.593 274.987 190.433 274.55C192.331 273.533 194.124 272.576 195.381 270.95C196.399 269.633 197.028 267.887 197.299 265.607C197.479 264.127 197.377 262.995 196.994 262.153C196.897 261.938 196.776 261.734 196.633 261.547C194.241 258.404 189.399 260.433 185.506 262.067C184.485 262.495 183.519 262.901 182.701 263.161L173.786 266.018L162.352 279.527C162.268 279.627 162.156 279.699 162.029 279.733C161.546 279.862 160.983 280.019 160.354 280.193C152.885 282.279 135.392 287.165 122.315 278.644C118.17 275.944 112.553 277.022 109.535 281.099C103.924 288.67 100.153 297.251 97.6952 308.039Z" fill="black"/>
<path d="M193.998 144.365C190.153 146.299 187.258 146.579 185.171 146.459C177.628 146.025 172.791 139.947 171.822 138.744C166.82 132.459 164.41 122.147 168.649 116.087C171.702 111.724 175.544 113.37 179.057 108.492C183.058 102.952 178.957 98.4349 182.635 93.589C186.877 87.9918 196.213 88.4089 197.891 88.4946C203.653 88.7603 204.339 91.6147 209.785 91.469C215.344 91.3176 216.073 88.526 221.184 88.4946C225.237 88.4718 231.148 90.2089 233.795 94.8833C237.117 100.766 233.721 108.515 229.776 112.598C225.04 117.507 221.704 114.884 215.073 118.884C203.576 125.81 206.315 138.156 193.998 144.365Z" fill="black"/>
<path d="M215.401 170.518L212.291 151.163C212.974 151.086 218.706 150.089 219.363 149.763C224.671 147.12 223.196 133.806 223.196 133.806L226.146 130.283L217.345 110.594C207.998 118.38 204.665 110.737 195.412 114.565C186.16 118.394 191.182 128.697 191.182 128.697C191.182 128.697 183.621 125.368 185.239 132.677C186.457 138.197 190.482 138.543 193.131 138.32L188.201 171.498C188.201 171.498 178.542 174.244 172.837 175.835C172.65 175.883 172.486 175.992 172.369 176.145C172.252 176.298 172.19 176.485 172.193 176.677C172.196 176.869 172.263 177.055 172.384 177.204C172.504 177.354 172.672 177.458 172.859 177.501C181.721 179.713 203.95 186.021 229.024 176.764C229.254 176.678 229.45 176.522 229.586 176.318C229.722 176.114 229.79 175.873 229.781 175.628C229.772 175.383 229.687 175.148 229.537 174.954C229.386 174.761 229.179 174.619 228.944 174.55L215.401 170.518Z" fill="white"/>
<path d="M201.189 182.275C189.15 182.275 179.371 179.801 173.9 178.418L172.705 178.132C172.385 178.051 172.101 177.867 171.896 177.608C171.692 177.348 171.578 177.029 171.574 176.699C171.569 176.369 171.674 176.047 171.871 175.782C172.068 175.517 172.348 175.325 172.665 175.235C177.682 173.835 185.76 171.544 187.629 171.015L192.386 139.014C188.161 139.114 185.548 137.043 184.616 132.831C184.11 130.545 184.405 128.934 185.491 128.045C186.766 127 188.741 127.28 190.065 127.651C189.421 125.805 188.584 122.36 189.779 119.179C190.659 116.857 192.468 115.114 195.152 114.002C199.311 112.288 202.401 112.794 205.125 113.251C208.721 113.851 211.828 114.368 216.919 110.128C216.995 110.065 217.084 110.02 217.18 109.998C217.275 109.975 217.375 109.975 217.47 109.997C217.566 110.019 217.656 110.063 217.732 110.125C217.807 110.188 217.868 110.267 217.908 110.356L226.709 130.045C226.758 130.154 226.775 130.275 226.759 130.393C226.743 130.511 226.694 130.622 226.618 130.714L223.839 134.031C224.028 136.031 224.894 147.746 219.629 150.355C218.943 150.697 214.687 151.443 213.003 151.717L215.95 170.044L229.099 173.961C229.465 174.067 229.787 174.288 230.019 174.59C230.251 174.892 230.38 175.26 230.388 175.641C230.404 176.018 230.299 176.391 230.088 176.705C229.877 177.018 229.572 177.256 229.216 177.384C220.238 180.663 210.748 182.319 201.189 182.275ZM193.132 137.677C193.223 137.677 193.313 137.696 193.397 137.734C193.48 137.772 193.554 137.828 193.613 137.897C193.673 137.966 193.717 138.047 193.743 138.135C193.768 138.223 193.774 138.315 193.76 138.406L188.83 171.592C188.812 171.714 188.759 171.827 188.678 171.92C188.597 172.012 188.491 172.079 188.372 172.112C188.372 172.112 178.714 174.855 173.008 176.447C172.959 176.457 172.915 176.486 172.885 176.526C172.854 176.566 172.839 176.616 172.843 176.667C172.84 176.717 172.857 176.767 172.888 176.806C172.92 176.845 172.964 176.872 173.014 176.881L174.212 177.184C183.416 179.512 204.974 184.964 228.807 176.167C228.912 176.13 229.001 176.061 229.063 175.969C229.124 175.877 229.154 175.768 229.148 175.658C229.146 175.545 229.108 175.434 229.039 175.344C228.97 175.254 228.874 175.189 228.764 175.158L215.221 171.126C215.106 171.092 215.003 171.026 214.924 170.936C214.845 170.847 214.792 170.736 214.773 170.618L211.663 151.269C211.648 151.184 211.651 151.096 211.672 151.012C211.693 150.928 211.73 150.849 211.783 150.78C211.835 150.712 211.901 150.655 211.976 150.613C212.052 150.571 212.134 150.544 212.22 150.535C213.04 150.44 218.489 149.469 219.08 149.194C223.108 147.194 222.959 137.46 222.562 133.877C222.553 133.792 222.561 133.706 222.586 133.624C222.611 133.542 222.653 133.466 222.708 133.4L225.4 130.183L217.111 111.611C211.94 115.651 208.536 115.085 204.943 114.468C202.261 114.022 199.489 113.556 195.667 115.139C193.317 116.111 191.748 117.611 190.996 119.594C189.45 123.628 191.737 128.365 191.754 128.411C191.809 128.528 191.827 128.659 191.806 128.787C191.785 128.915 191.726 129.033 191.636 129.126C191.546 129.219 191.43 129.283 191.303 129.308C191.176 129.333 191.044 129.32 190.925 129.268C190.027 128.874 187.446 128.057 186.3 129.003C185.442 129.703 185.588 131.305 185.86 132.528C186.717 136.383 189.004 138.014 193.077 137.671L193.132 137.677Z" fill="black"/>
<path d="M210.188 151.945C207.898 151.95 205.642 151.391 203.621 150.316C201.599 149.242 199.873 147.685 198.597 145.785C198.55 145.713 198.518 145.632 198.504 145.547C198.489 145.462 198.491 145.376 198.511 145.292C198.531 145.208 198.567 145.129 198.618 145.06C198.67 144.991 198.734 144.932 198.808 144.889C198.882 144.845 198.965 144.817 199.05 144.806C199.135 144.795 199.222 144.801 199.305 144.825C199.388 144.848 199.465 144.888 199.532 144.942C199.599 144.996 199.654 145.063 199.695 145.139C199.852 145.408 203.696 151.694 212.192 150.531C212.275 150.519 212.359 150.524 212.44 150.545C212.521 150.567 212.597 150.604 212.664 150.654C212.731 150.705 212.787 150.768 212.829 150.84C212.871 150.912 212.899 150.992 212.91 151.075C212.922 151.158 212.917 151.242 212.896 151.323C212.875 151.404 212.838 151.48 212.787 151.547C212.737 151.614 212.673 151.67 212.601 151.712C212.529 151.755 212.449 151.782 212.366 151.794C211.644 151.893 210.916 151.943 210.188 151.945Z" fill="black"/>
<path d="M179.388 405.449C176.682 405.449 174.036 404.648 171.785 403.145C169.535 401.643 167.781 399.507 166.745 397.007C165.708 394.508 165.437 391.758 165.965 389.105C166.492 386.451 167.795 384.014 169.709 382.101C171.622 380.188 174.06 378.885 176.715 378.357C179.369 377.829 182.121 378.099 184.621 379.135C187.121 380.17 189.259 381.923 190.762 384.172C192.266 386.421 193.069 389.066 193.069 391.771C193.065 395.397 191.622 398.873 189.058 401.438C186.493 404.002 183.016 405.444 179.388 405.449ZM179.388 379.368C176.934 379.368 174.535 380.096 172.495 381.458C170.454 382.821 168.864 384.758 167.924 387.025C166.985 389.291 166.74 391.785 167.218 394.191C167.697 396.597 168.879 398.807 170.614 400.542C172.35 402.276 174.56 403.458 176.967 403.936C179.374 404.415 181.869 404.169 184.137 403.23C186.404 402.292 188.342 400.702 189.705 398.662C191.069 396.622 191.797 394.224 191.797 391.771C191.794 388.483 190.485 385.33 188.159 383.004C185.833 380.679 182.678 379.371 179.388 379.368Z" fill="black"/>
<path d="M216.182 405.449C213.475 405.449 210.83 404.647 208.58 403.144C206.33 401.641 204.576 399.505 203.54 397.005C202.504 394.506 202.233 391.756 202.761 389.103C203.289 386.45 204.593 384.013 206.506 382.1C208.42 380.187 210.858 378.884 213.512 378.357C216.167 377.829 218.918 378.1 221.418 379.135C223.918 380.17 226.055 381.923 227.559 384.172C229.062 386.422 229.865 389.066 229.865 391.771C229.861 395.398 228.418 398.874 225.853 401.439C223.288 404.003 219.81 405.445 216.182 405.449ZM216.182 379.368C213.728 379.368 211.329 380.095 209.288 381.458C207.247 382.821 205.657 384.758 204.718 387.025C203.779 389.291 203.533 391.785 204.012 394.191C204.491 396.597 205.672 398.807 207.408 400.542C209.143 402.276 211.354 403.458 213.761 403.936C216.168 404.415 218.663 404.169 220.93 403.23C223.198 402.292 225.135 400.702 226.499 398.662C227.862 396.622 228.59 394.224 228.59 391.771C228.587 388.483 227.279 385.33 224.952 383.004C222.626 380.679 219.472 379.371 216.182 379.368Z" fill="#FBB90F"/>
<path d="M253.647 404.111C250.941 404.111 248.295 403.31 246.044 401.807C243.794 400.305 242.039 398.169 241.003 395.669C239.967 393.17 239.696 390.42 240.224 387.767C240.751 385.113 242.054 382.676 243.968 380.763C245.881 378.85 248.319 377.547 250.974 377.019C253.628 376.491 256.379 376.762 258.88 377.797C261.38 378.832 263.517 380.585 265.021 382.834C266.525 385.084 267.327 387.728 267.327 390.433C267.324 394.059 265.881 397.535 263.316 400.1C260.752 402.664 257.274 404.106 253.647 404.111ZM253.647 378.03C251.193 378.03 248.794 378.758 246.753 380.12C244.713 381.483 243.122 383.42 242.183 385.687C241.244 387.953 240.998 390.447 241.477 392.853C241.956 395.259 243.138 397.469 244.873 399.204C246.608 400.938 248.819 402.12 251.226 402.598C253.633 403.077 256.128 402.831 258.395 401.892C260.663 400.954 262.601 399.364 263.964 397.324C265.328 395.284 266.055 392.886 266.055 390.433C266.052 387.145 264.743 383.992 262.417 381.667C260.091 379.342 256.937 378.034 253.647 378.03Z" fill="black"/>
<path d="M345.13 502.508C345.13 502.508 359.708 497.957 383.565 451.667C403.713 412.592 385.751 374.828 382.135 349.567C381.767 346.996 378.236 346.616 377.365 349.07C371.325 366.042 361.609 396.903 363.178 415.903C365.437 443.276 345.13 502.508 345.13 502.508Z" fill="white"/>
<path d="M345.13 503.144C345.027 503.146 344.925 503.122 344.833 503.075C344.741 503.028 344.662 502.959 344.602 502.875C344.543 502.79 344.505 502.693 344.492 502.59C344.479 502.488 344.491 502.384 344.527 502.287C344.73 501.696 364.765 442.877 362.535 415.942C360.952 396.784 370.765 365.678 376.756 348.84C376.988 348.184 377.435 347.625 378.024 347.253C378.613 346.881 379.31 346.718 380.002 346.79C380.695 346.862 381.344 347.165 381.844 347.649C382.344 348.134 382.666 348.773 382.759 349.463C383.576 355.178 385.148 361.589 386.815 368.395C392.609 392.064 399.817 421.522 384.131 451.943C360.406 497.944 345.925 502.913 345.319 503.087C345.26 503.116 345.196 503.135 345.13 503.144ZM379.66 348.055C379.279 348.045 378.906 348.16 378.596 348.381C378.287 348.603 378.058 348.92 377.945 349.283C371.988 366.021 362.224 396.93 363.793 415.856C365.845 440.674 349.278 492.018 346.205 501.287C350.236 498.984 363.564 489.064 382.987 451.389C398.454 421.388 391.308 392.187 385.56 368.727C383.888 361.889 382.307 355.435 381.481 349.672C381.432 349.257 381.242 348.873 380.943 348.582C380.643 348.292 380.253 348.113 379.837 348.077C379.792 348.057 379.726 348.055 379.66 348.055Z" fill="black"/>
<path d="M360.923 477.199L366.114 436.184C368.368 418.386 365.455 400.315 357.722 384.126C352.151 372.461 349.059 359.769 348.64 346.85C348.22 333.931 350.484 321.065 355.287 309.064L363.622 288.246C364.676 285.615 361.335 283.477 359.42 285.569L347.7 298.426C321.143 327.63 312.176 368.974 324.216 406.715L345.805 474.294L360.923 477.199Z" fill="white"/>
<path d="M360.923 477.848C360.883 477.852 360.843 477.852 360.803 477.848L345.679 474.942C345.567 474.92 345.462 474.869 345.377 474.793C345.291 474.717 345.228 474.619 345.193 474.51L323.624 406.932C311.541 369.071 320.591 327.344 347.243 298.035L358.962 285.177C359.45 284.617 360.123 284.252 360.859 284.15C361.595 284.048 362.343 284.216 362.964 284.623C363.61 285.01 364.094 285.618 364.327 286.335C364.56 287.051 364.525 287.827 364.23 288.52L355.895 309.335C351.139 321.25 348.897 334.019 349.31 346.841C349.723 359.663 352.782 372.261 358.296 383.845C366.093 400.142 369.027 418.339 366.746 436.258L361.555 477.276C361.544 477.363 361.516 477.446 361.471 477.521C361.427 477.597 361.368 477.662 361.298 477.713C361.191 477.798 361.059 477.845 360.923 477.848ZM346.291 473.75L360.377 476.459L365.482 436.115C367.734 418.434 364.84 400.479 357.147 384.4C351.549 372.652 348.442 359.874 348.02 346.869C347.598 333.864 349.87 320.912 354.695 308.826L363.03 288.009C363.212 287.593 363.236 287.125 363.096 286.693C362.957 286.262 362.663 285.896 362.272 285.666C361.903 285.421 361.458 285.319 361.019 285.38C360.58 285.441 360.179 285.661 359.891 285.997L348.172 298.855C321.823 327.83 312.876 369.076 324.824 406.506L346.291 473.75Z" fill="black"/>
<path d="M354.232 478.546L336.224 432.582C333.717 426.147 329.782 420.364 324.716 415.669C319.65 410.973 313.585 407.488 306.976 405.475L294.685 401.761C291.707 400.861 289.706 404.795 292.17 406.712L299.716 412.578C303.762 415.734 307.052 419.751 309.347 424.339C311.643 428.926 312.885 433.968 312.985 439.096C313.109 445.207 314.851 451.176 318.033 456.396L330.232 476.397L354.232 478.546Z" fill="white"/>
<path d="M354.231 479.182H354.174L330.192 477.03C330.093 477.021 329.998 476.989 329.913 476.936C329.829 476.884 329.758 476.812 329.706 476.727L317.509 456.727C314.27 451.41 312.495 445.331 312.364 439.106C312.278 434.071 311.064 429.119 308.81 424.615C306.556 420.111 303.321 416.169 299.341 413.08L291.795 407.214C291.141 406.724 290.686 406.014 290.512 405.216C290.339 404.417 290.458 403.583 290.849 402.866C291.204 402.143 291.808 401.572 292.549 401.257C293.291 400.942 294.121 400.905 294.888 401.151L307.165 404.866C313.874 406.889 320.033 410.417 325.172 415.18C330.311 419.942 334.295 425.815 336.821 432.349L354.829 478.313C354.865 478.409 354.877 478.512 354.865 478.614C354.852 478.715 354.815 478.812 354.757 478.896C354.699 478.98 354.621 479.049 354.531 479.097C354.44 479.145 354.339 479.17 354.237 479.17L354.231 479.182ZM330.627 475.787L353.262 477.819L335.637 432.812C333.182 426.457 329.307 420.746 324.31 416.114C319.312 411.482 313.323 408.051 306.799 406.083L294.508 402.368C294.025 402.209 293.501 402.231 293.034 402.43C292.566 402.629 292.187 402.991 291.967 403.448C291.715 403.902 291.636 404.433 291.747 404.94C291.857 405.448 292.149 405.897 292.567 406.206L300.113 412.071C304.242 415.277 307.599 419.367 309.938 424.041C312.277 428.715 313.538 433.853 313.628 439.078C313.751 445.077 315.46 450.936 318.581 456.061L330.627 475.787Z" fill="black"/>
<path d="M351.567 457.583H351.522C351.354 457.567 351.199 457.484 351.092 457.354C350.985 457.224 350.934 457.057 350.95 456.889C353.694 427.531 347.806 408.631 342.592 391.953C340.188 384.239 337.915 376.97 336.569 369.147C330.204 332.22 351.905 300.174 352.125 299.854C352.171 299.782 352.231 299.72 352.302 299.672C352.372 299.623 352.452 299.59 352.536 299.573C352.619 299.556 352.706 299.556 352.789 299.574C352.873 299.591 352.953 299.625 353.023 299.673C353.093 299.722 353.153 299.784 353.199 299.856C353.245 299.928 353.276 300.009 353.29 300.093C353.304 300.177 353.301 300.263 353.281 300.347C353.261 300.43 353.225 300.508 353.174 300.576C352.956 300.894 331.547 332.526 337.824 368.93C339.156 376.673 341.417 383.91 343.81 391.576C349.046 408.365 354.986 427.394 352.219 457.006C352.204 457.167 352.128 457.316 352.007 457.423C351.886 457.53 351.729 457.588 351.567 457.583Z" fill="black"/>
<path d="M375.546 437.957H375.441C375.274 437.928 375.126 437.835 375.028 437.697C374.93 437.56 374.89 437.389 374.918 437.223C379.826 408.233 378.125 363.604 378.108 363.155C378.104 363.072 378.117 362.988 378.146 362.91C378.175 362.831 378.219 362.759 378.276 362.698C378.333 362.637 378.401 362.587 378.477 362.552C378.554 362.517 378.636 362.498 378.719 362.495C378.803 362.49 378.887 362.503 378.965 362.531C379.044 362.559 379.117 362.603 379.178 362.66C379.24 362.717 379.289 362.785 379.324 362.861C379.359 362.938 379.377 363.02 379.38 363.104C379.4 363.552 381.095 408.316 376.175 437.437C376.147 437.583 376.069 437.715 375.955 437.81C375.84 437.905 375.695 437.957 375.546 437.957Z" fill="black"/>
<path d="M332.56 461.976C332.392 461.975 332.231 461.909 332.112 461.791C331.992 461.673 331.924 461.513 331.922 461.345C331.576 425.221 302.709 409.363 302.418 409.209C302.276 409.126 302.172 408.991 302.128 408.833C302.084 408.674 302.102 408.505 302.18 408.36C302.257 408.215 302.388 408.106 302.544 408.055C302.7 408.004 302.87 408.015 303.018 408.086C303.304 408.246 332.843 424.461 333.197 461.333C333.198 461.417 333.182 461.5 333.151 461.578C333.119 461.655 333.073 461.726 333.014 461.786C332.956 461.845 332.886 461.893 332.809 461.926C332.732 461.958 332.649 461.975 332.565 461.976H332.56Z" fill="black"/>
<path d="M336.47 394.417C336.373 394.418 336.277 394.396 336.19 394.354C336.103 394.312 336.027 394.251 335.967 394.175C328.158 384.146 324.693 370.594 324.659 370.46C324.634 370.377 324.626 370.291 324.636 370.205C324.645 370.119 324.672 370.037 324.715 369.962C324.757 369.887 324.814 369.821 324.883 369.769C324.951 369.717 325.03 369.679 325.113 369.658C325.197 369.637 325.284 369.633 325.369 369.646C325.454 369.66 325.535 369.691 325.608 369.736C325.681 369.782 325.744 369.842 325.793 369.913C325.842 369.984 325.876 370.064 325.894 370.148C325.928 370.283 329.324 383.577 336.97 393.392C337.021 393.457 337.059 393.533 337.082 393.613C337.104 393.694 337.11 393.778 337.099 393.86C337.089 393.943 337.062 394.023 337.021 394.096C336.98 394.168 336.925 394.232 336.859 394.283C336.748 394.371 336.611 394.418 336.47 394.417Z" fill="black"/>
<path d="M315.863 467.434H384.073V499.506C384.073 508.112 380.653 516.366 374.565 522.451C368.477 528.536 360.22 531.955 351.611 531.955H348.326C339.717 531.955 331.459 528.536 325.371 522.451C319.283 516.366 315.863 508.112 315.863 499.506V467.434Z" fill="white"/>
<path d="M351.61 532.588H348.326C339.55 532.58 331.135 529.092 324.929 522.889C318.722 516.687 315.23 508.277 315.22 499.504V467.432C315.22 467.348 315.236 467.266 315.268 467.188C315.3 467.111 315.347 467.041 315.406 466.982C315.466 466.922 315.536 466.875 315.613 466.843C315.691 466.811 315.773 466.795 315.857 466.795H384.067C384.236 466.795 384.399 466.862 384.518 466.982C384.638 467.101 384.705 467.263 384.705 467.432V499.504C384.694 508.275 381.204 516.683 375 522.885C368.796 529.087 360.384 532.577 351.61 532.588ZM316.5 468.069V499.499C316.51 507.933 319.866 516.019 325.833 521.982C331.799 527.946 339.888 531.301 348.326 531.311H351.61C360.048 531.301 368.137 527.946 374.103 521.982C380.07 516.019 383.426 507.933 383.436 499.499V468.069H316.5Z" fill="black"/>
<path d="M377.384 479.46H322.546C322.377 479.46 322.214 479.393 322.095 479.273C321.975 479.154 321.908 478.992 321.908 478.823C321.908 478.654 321.975 478.492 322.095 478.372C322.214 478.253 322.377 478.186 322.546 478.186H377.384C377.553 478.186 377.715 478.253 377.835 478.372C377.954 478.492 378.022 478.654 378.022 478.823C378.022 478.992 377.954 479.154 377.835 479.273C377.715 479.393 377.553 479.46 377.384 479.46Z" fill="black"/>
</svg>
