<svg width="177" height="173" viewBox="0 0 177 173" fill="none" xmlns="http://www.w3.org/2000/svg">
<path d="M149.26 67.0189C147.968 65.5072 146.123 64.6406 144.199 64.6406C141.548 64.6406 139.094 66.2498 137.946 68.7398C136.801 71.2248 137.195 74.0628 138.975 76.1458C148.297 87.0525 149.273 109.567 135.863 125.699C134.121 127.796 133.758 130.634 134.917 133.103C136.073 135.566 138.516 137.158 141.139 137.159H141.14C143.093 137.159 144.952 136.268 146.243 134.716C153.709 125.733 158.543 113.642 159.506 101.545C160.564 88.2487 156.925 75.9868 149.26 67.0189Z" fill="black"/>
<path d="M161.662 55.6399C160.403 54.5744 158.817 53.9883 157.196 53.9883C154.251 53.9883 151.592 55.8442 150.58 58.6061C149.618 61.2335 150.401 64.1199 152.576 65.9599C159.605 71.9058 162.742 81.8048 162.447 97.1127C162.085 115.837 156.167 127.058 151.266 133.174C149.571 135.287 149.249 138.122 150.424 140.57C151.591 143.001 154.018 144.572 156.608 144.572C156.608 144.572 156.609 144.572 156.61 144.572C158.597 144.572 160.474 143.653 161.762 142.046C170.806 130.762 175.664 115.73 176.203 97.3674C176.761 78.3132 171.869 64.2739 161.662 55.6399Z" fill="black"/>
<path d="M40.6464 82.1365C33.5129 95.0674 34.5974 110.974 43.4095 122.66C44.7419 124.428 46.7715 125.443 48.9767 125.443C49.7813 125.443 50.5626 125.292 51.3015 125.039C51.4298 128.531 51.5507 132.011 51.6698 135.432C51.8011 139.206 51.9325 142.981 52.0718 146.755C52.2731 152.194 52.8353 156.995 53.7896 161.432C54.8802 166.507 57.6636 169.782 62.3004 171.448C65.7993 172.703 69.5824 172.723 72.6222 172.739L73.1163 172.741C73.6957 172.745 74.2756 172.746 74.855 172.746C77.2357 172.746 79.6164 172.718 81.9971 172.691C83.5664 172.673 85.1351 172.655 86.7051 172.645L102.243 172.544L102.773 172.542C103.936 172.542 105.11 172.564 106.289 172.586C107.544 172.61 108.805 172.633 110.063 172.633C113.331 172.633 115.831 172.471 118.168 172.109C122.995 171.361 126.571 167.644 127.98 161.91C128.895 158.189 129.119 154.409 129.335 150.752C129.425 149.242 129.51 147.815 129.64 146.438L131.773 123.936C132.082 123.978 132.395 124.002 132.711 124.002C134.916 124.002 136.946 122.988 138.278 121.22C147.09 109.533 148.175 93.6269 141.041 80.696C140 78.8082 138.233 77.5795 136.195 77.264L137.342 65.1555C137.499 63.4886 137.726 61.7671 137.966 59.9431C138.705 54.3194 139.47 48.5048 138.487 42.6933C137.231 35.2707 131.336 32.4426 126.586 31.3784C126.605 26.0628 126.553 20.7399 126.432 15.4991C126.345 11.7363 123.34 8.76765 119.59 8.74126C119.037 8.73757 118.341 8.68786 117.604 8.63508C116.65 8.56757 115.569 8.49023 114.474 8.49023C112.92 8.49023 111.589 8.64858 110.403 8.97509C109.01 9.35806 105.312 10.3763 104.402 16.9089C103.814 21.1284 103.394 25.5417 103.146 30.0822C96.7409 29.9189 90.3114 29.8103 84.0494 29.7041C80.6935 29.6477 77.3394 29.5906 73.9902 29.5261C73.6048 29.5188 73.2175 29.5145 72.8297 29.5145C66.2854 29.5145 60.9851 30.6843 56.6251 33.0907C50.7234 36.3479 47.8953 42.3404 48.2206 50.9236L49.4088 79.2531C48.5139 78.8468 47.5381 78.6167 46.5328 78.6167C44.0625 78.6179 41.8616 79.9332 40.6464 82.1365ZM50.5442 106.287C49.6696 102.955 49.5211 99.4771 50.1164 96.0947L50.5442 106.287Z" fill="black"/>
<path d="M22.1827 102.985C23.1456 115.082 27.98 127.172 35.4462 136.155C36.7363 137.707 38.5959 138.598 40.5482 138.598C43.1719 138.598 45.6152 137.006 46.7715 134.543C47.9303 132.074 47.5681 129.236 45.8251 127.138C32.4174 111.006 33.392 88.492 42.7141 77.5852C44.4945 75.5022 44.8886 72.6643 43.7433 70.1792C42.5956 67.6893 40.1413 66.0801 37.4899 66.0801C35.5653 66.0801 33.721 66.9467 32.429 68.4583C24.7634 77.4269 21.1246 89.6882 22.1827 102.985Z" fill="black"/>
<path d="M19.9278 143.486C21.2148 145.091 23.0928 146.012 25.0795 146.013H25.0807C27.6701 146.013 30.0974 144.443 31.2641 142.012C32.4407 139.563 32.1185 136.728 30.4239 134.613C23.4512 125.914 19.689 113.763 19.241 98.5C18.8028 83.5622 22.0323 73.3888 29.1136 67.3993C31.2875 65.5593 32.0712 62.6735 31.1083 60.0461C30.0968 57.2837 27.4381 55.4277 24.4934 55.4277C22.8719 55.4277 21.286 56.0139 20.0266 57.0793C9.86736 65.6735 5.11088 79.3059 5.48587 98.754C5.83141 116.66 10.8254 132.128 19.9278 143.486Z" fill="black"/>
<path d="M144.674 59.1556C143.382 57.6439 141.537 56.7773 139.612 56.7773C136.961 56.7773 134.507 58.3866 133.359 60.8765C132.214 63.3615 132.608 66.1995 134.388 68.2825C143.71 79.1892 144.686 101.704 131.276 117.836C129.534 119.933 129.172 122.77 130.33 125.239C131.486 127.703 133.929 129.295 136.552 129.296H136.553C138.505 129.296 140.365 128.405 141.655 126.852C149.121 117.87 153.956 105.779 154.919 93.6821C155.978 80.3854 152.339 68.1235 144.674 59.1556Z" fill="#FCFBFA"/>
<path d="M157.076 47.7785C155.817 46.7131 154.231 46.127 152.609 46.127C149.664 46.127 147.006 47.9829 145.994 50.7447C145.031 53.3721 145.815 56.2586 147.99 58.0986C155.019 64.0445 158.156 73.9441 157.86 89.2513C157.499 107.976 151.581 119.196 146.679 125.312C144.985 127.426 144.662 130.261 145.838 132.709C147.004 135.139 149.432 136.711 152.022 136.711C152.022 136.711 152.022 136.711 152.024 136.711C154.01 136.711 155.888 135.791 157.176 134.184C166.219 122.9 171.078 107.868 171.617 89.506C172.175 70.4513 167.282 56.4126 157.076 47.7785Z" fill="#FCFBFA"/>
<path d="M36.0605 74.2732C28.927 87.2041 30.0115 103.11 38.823 114.797C40.1554 116.565 42.185 117.579 44.3902 117.579H44.3908C45.196 117.579 45.9767 117.429 46.715 117.175C46.8427 120.668 46.9642 124.148 47.0833 127.568C47.2146 131.343 47.346 135.117 47.4853 138.892C47.6866 144.33 48.2488 149.132 49.2031 153.569C50.2937 158.643 53.0771 161.919 57.7139 163.585C61.2128 164.84 64.9965 164.859 68.0357 164.875L68.5298 164.878C69.1091 164.881 69.6891 164.883 70.2685 164.883C72.6486 164.883 75.0299 164.855 77.4106 164.827C78.9799 164.81 80.5486 164.792 82.1186 164.781L97.6566 164.681L98.1869 164.679C99.3493 164.679 100.523 164.701 101.703 164.723C102.958 164.746 104.219 164.77 105.477 164.77C108.746 164.77 111.245 164.608 113.583 164.246C118.409 163.497 121.985 159.78 123.394 154.047C124.309 150.326 124.533 146.545 124.75 142.889C124.839 141.378 124.924 139.951 125.055 138.575L127.187 116.073C127.496 116.114 127.809 116.139 128.125 116.139H128.126C130.331 116.139 132.36 115.125 133.693 113.357C142.505 101.67 143.589 85.7636 136.456 72.8328C135.414 70.9449 133.647 69.7162 131.609 69.4007L132.756 57.2923C132.914 55.6254 133.141 53.9038 133.381 52.0798C134.12 46.4561 134.885 40.6415 133.902 34.83C132.645 27.4075 126.75 24.5794 122.001 23.5151C122.02 18.1995 121.968 12.8766 121.847 7.63585C121.759 3.87302 118.755 0.904361 115.005 0.87797C114.452 0.874288 113.756 0.824577 113.019 0.771796C112.065 0.704284 110.985 0.626953 109.888 0.626953C108.335 0.626953 107.004 0.785912 105.818 1.11181C104.425 1.49539 100.727 2.51298 99.8164 9.04562C99.2284 13.2651 98.808 17.6785 98.5607 22.2189C92.1557 22.0557 85.7261 21.947 79.4642 21.8408C76.1082 21.7844 72.7541 21.7273 69.405 21.6629C69.0195 21.6555 68.6323 21.6512 68.245 21.6512C61.7007 21.6512 56.4005 22.821 52.0404 25.2275C46.1387 28.4846 43.3106 34.4771 43.6359 43.0609L44.8241 71.3905C43.9293 70.9842 42.9534 70.754 41.9475 70.754C39.4766 70.7546 37.2757 72.0699 36.0605 74.2732ZM45.9577 98.4238C45.0831 95.0912 44.9346 91.6138 45.5305 88.2315L45.9577 98.4238Z" fill="#FCFBFA"/>
<path d="M17.5969 95.1215C18.5599 107.218 23.3943 119.309 30.8598 128.292C32.1499 129.844 34.0095 130.734 35.9618 130.735C38.5862 130.735 41.0283 129.143 42.1845 126.679C43.3433 124.21 42.9812 121.373 41.2381 119.275C27.8304 103.143 28.805 80.6287 38.1271 69.722C39.9076 67.6389 40.3016 64.801 39.1563 62.316C38.0087 59.826 35.5543 58.2168 32.903 58.2168C30.9783 58.2168 29.134 59.0834 27.8421 60.595C20.1771 69.5636 16.5382 81.8249 17.5969 95.1215Z" fill="#FCFBFA"/>
<path d="M15.3413 135.625C16.6284 137.231 18.5064 138.151 20.4931 138.152C23.083 138.152 25.5104 136.582 26.6777 134.151C27.8543 131.702 27.532 128.867 25.8375 126.752C18.8648 118.053 15.1026 105.902 14.6546 90.6386C14.2164 75.7008 17.4459 65.5275 24.5272 59.538C26.701 57.698 27.4848 54.8122 26.5218 52.1848C25.5104 49.4223 22.8517 47.5664 19.9069 47.5664C18.2854 47.5664 16.6989 48.1525 15.4402 49.218C5.28093 57.8128 0.524451 71.4445 0.899446 90.8933C1.24498 108.799 6.23898 124.267 15.3413 135.625Z" fill="#FCFBFA"/>
<path d="M52.1486 42.8399C51.9737 38.2308 52.6457 34.6201 56.9112 32.2658C60.3211 30.3841 64.6658 30.2129 68.4612 30.1736C78.8518 30.0662 89.3007 30.6934 99.6882 30.9641C104.828 31.0979 109.968 31.2317 115.108 31.3661C117.307 31.4232 119.445 31.468 121.587 32.0308C124.823 32.8808 125.675 35.9458 125.796 38.8807C125.986 43.5065 125.065 48.328 124.629 52.9261C124.099 58.5173 123.569 64.1078 123.04 69.6984C121.002 91.2013 118.965 112.704 116.927 134.208C116.438 139.369 115.949 144.529 115.46 149.69C115.21 152.324 114.817 155.036 111.908 155.905C109.229 156.706 105.579 156.11 102.803 156.128C92.2712 156.196 81.7388 156.228 71.207 156.334C67.8088 156.368 64.3786 156.455 61.046 155.688C56.1741 154.567 56.5055 146.322 56.1999 142.38C55.3591 131.533 55.4076 120.55 54.9515 109.676C54.0174 87.398 53.0833 65.1193 52.1486 42.8399C52.0602 40.7354 48.7841 40.7268 48.8731 42.8399C49.7716 64.2582 50.6695 85.6759 51.568 107.094C52.0099 117.628 52.3339 128.162 52.7237 138.697C52.8949 143.327 53.3534 147.934 54.328 152.467C55.0049 155.615 56.4761 157.569 59.4846 158.649C62.2968 159.659 65.6196 159.617 68.563 159.635C73.0691 159.663 77.5789 159.568 82.0849 159.539C87.2643 159.506 92.4443 159.472 97.6236 159.439C102.613 159.407 107.841 159.831 112.78 159.066C115.963 158.572 117.609 155.624 118.305 152.796C119.459 148.102 119.382 142.879 119.837 138.079C120.856 127.328 121.875 116.576 122.894 105.825C124.442 89.4823 125.991 73.1402 127.539 56.7976C128.183 49.9998 129.884 42.4999 128.735 35.7046C127.772 30.0195 122.32 28.4121 117.338 28.1544C101.37 27.3295 85.2917 27.2117 69.3051 26.903C64.289 26.806 59.0286 27.3584 54.5741 29.8164C49.6556 32.531 48.6779 37.6612 48.8743 42.8405C48.9529 44.9457 52.229 44.953 52.1486 42.8399Z" fill="black"/>
<path d="M106.83 29.3583C106.902 24.6565 107.166 19.9724 107.622 15.292C107.69 14.6016 108.254 9.34429 108.22 9.34674C110.446 9.21049 112.737 9.37866 114.968 9.394C114.422 8.84777 113.876 8.30215 113.33 7.75593C113.492 14.7391 113.53 21.7222 113.445 28.7071C113.419 30.8209 116.695 30.8178 116.72 28.7071C116.806 21.7228 116.768 14.7391 116.606 7.75593C116.585 6.85864 115.877 6.12461 114.968 6.11786C112.598 6.10129 109.502 5.53297 107.208 6.1645C105.433 6.65243 105.229 8.17695 105.007 9.76776C104.103 16.2617 103.653 22.8048 103.554 29.3583C103.522 31.472 106.798 31.469 106.83 29.3583Z" fill="black"/>
<path d="M106.589 17.5691C109.101 17.5691 111.612 17.5691 114.124 17.5691C116.236 17.5691 116.236 14.293 114.124 14.293C111.612 14.293 109.101 14.293 106.589 14.293C104.477 14.2936 104.477 17.5691 106.589 17.5691Z" fill="black"/>
<path d="M57.7657 41.7229C57.3158 52.5008 57.4656 63.278 58.2211 74.0387C58.5605 78.8781 58.9778 83.7462 59.6677 88.5494C60.3299 93.161 63.0586 93.8613 67.2627 94.4922C77.4661 96.0223 87.7444 97.0245 98.046 97.5842C102.3 97.8156 107.147 98.5883 111.333 97.6167C114.994 96.7667 115.483 91.9397 116.081 88.9968C118.131 78.9008 119.605 68.6894 120.644 58.4418C121.104 53.905 121.865 49.1166 121.42 44.559C121.085 41.1159 119.241 39.2839 115.886 38.8991C105.338 37.6888 94.5545 37.501 83.9539 36.9357C78.8421 36.6632 73.7291 36.4165 68.616 36.1857C64.8617 36.0164 61.4359 36.5043 58.9576 39.5607C57.8633 40.9097 57.4791 42.4557 57.2551 44.1306C56.9764 46.2198 60.2556 46.1928 60.5312 44.1306C61.2634 38.6462 67.124 39.3919 71.1728 39.5779C75.434 39.773 79.6946 39.9872 83.9539 40.2113C92.4733 40.6599 100.99 41.1748 109.502 41.7389C111.63 41.88 113.758 42.0267 115.886 42.1746C118.58 42.3624 118.28 45.4729 118.253 47.3724C118.194 51.4752 117.653 55.6278 117.239 59.7067C116.358 68.4052 115.043 77.054 113.41 85.6415C113.04 87.5913 112.647 89.5381 112.222 91.4769C111.594 94.3308 109.534 94.7101 106.935 94.6505C102.701 94.5542 98.4683 94.3492 94.2408 94.0865C85.5049 93.5427 76.7947 92.597 68.1342 91.3333C65.0275 90.8797 63.1813 90.5244 62.7302 86.8407C62.4694 84.7153 62.2497 82.585 62.0398 80.4541C61.6181 76.1782 61.3278 71.89 61.1069 67.6C60.6638 58.9819 60.6834 50.3435 61.0431 41.7235C61.1296 39.6098 57.8535 39.6184 57.7657 41.7229Z" fill="black"/>
<path d="M61.8189 105.954C78.099 105.903 94.3655 106.556 110.588 107.912C110.042 107.366 109.497 106.821 108.95 106.274C108.653 112.177 108.24 118.071 107.708 123.958C107.442 126.901 107.131 129.84 106.802 132.776C106.615 134.454 106.408 136.13 106.2 137.805C105.982 139.558 106.522 142.459 104.366 142.61C91.3993 143.521 78.4335 144.432 65.467 145.343C66.0132 145.889 66.5588 146.435 67.1051 146.981C66.9191 132.971 65.8095 119.016 63.8283 105.147C63.5306 103.063 60.3742 103.953 60.6694 106.018C62.6088 119.594 63.6473 133.27 63.8289 146.981C63.84 147.826 64.5666 148.683 65.467 148.619C72.8147 148.103 80.1624 147.587 87.5094 147.071C90.9672 146.828 94.425 146.585 97.8822 146.342C99.6111 146.22 101.34 146.099 103.069 145.977C104.234 145.896 106.052 146.092 107.133 145.481C109.006 144.421 108.892 142.26 109.152 140.317C109.656 136.551 110.091 132.777 110.49 128.999C111.29 121.444 111.846 113.863 112.227 106.275C112.275 105.329 111.443 104.708 110.589 104.637C94.3655 103.281 78.099 102.628 61.8195 102.678C59.707 102.685 59.7064 105.961 61.8189 105.954Z" fill="black"/>
<path d="M64.0051 120.83C79.0896 120.418 94.1734 120.786 109.22 121.933C111.328 122.093 111.312 118.816 109.22 118.656C94.1734 117.509 79.0896 117.142 64.0051 117.554C61.8969 117.612 61.8914 120.888 64.0051 120.83Z" fill="black"/>
<path d="M65.54 136.156C79.4927 135.118 93.4713 134.56 107.462 134.481C109.574 134.468 109.575 131.193 107.462 131.205C93.4713 131.284 79.4927 131.843 65.54 132.88C63.4465 133.036 63.4318 136.313 65.54 136.156Z" fill="black"/>
<path d="M97.2902 105.86C95.2919 118.568 94.1423 131.372 93.8852 144.235C93.8428 146.348 97.119 146.344 97.1613 144.235C97.4123 131.667 98.4968 119.149 100.45 106.731C100.774 104.665 97.6173 103.778 97.2902 105.86Z" fill="black"/>
<path d="M78.0825 105.363C78.3568 118.247 78.6318 131.13 78.9061 144.014C78.9509 146.123 82.2271 146.128 82.1817 144.014C81.9073 131.13 81.6323 118.247 81.358 105.363C81.3138 103.254 78.0377 103.249 78.0825 105.363Z" fill="black"/>
<path d="M129.037 77.0172C134.564 87.0359 133.543 99.4426 126.679 108.547C125.406 110.236 128.252 111.865 129.508 110.201C137.066 100.177 137.911 86.3221 131.866 75.3638C130.845 73.514 128.017 75.1662 129.037 77.0172Z" fill="black"/>
<path d="M138.373 64.8782C151.629 80.388 147.684 106.296 135.309 121.186C133.969 122.798 136.274 125.129 137.625 123.503C151.215 107.152 155.199 79.5373 140.689 62.5613C139.315 60.9539 137.009 63.2824 138.373 64.8782Z" fill="black"/>
<path d="M151.375 54.0939C161.57 62.7182 163.344 76.7593 163.101 89.3496C162.833 103.203 159.587 117.585 150.769 128.588C149.462 130.219 151.764 132.552 153.085 130.904C162.548 119.097 165.941 104.214 166.376 89.3496C166.768 75.9958 164.447 60.877 153.691 51.7777C152.089 50.4219 149.759 52.7277 151.375 54.0939Z" fill="black"/>
<path d="M40.6495 76.8031C34.6042 87.7614 35.4499 101.616 43.0081 111.64C44.2632 113.305 47.1097 111.675 45.8368 109.987C38.9721 100.882 37.9509 88.4752 43.4782 78.4565C44.4995 76.6061 41.6701 74.9533 40.6495 76.8031Z" fill="black"/>
<path d="M31.8264 63.9995C17.317 80.9755 21.3008 108.589 34.8908 124.941C36.2423 126.567 38.5469 124.236 37.2071 122.624C24.831 107.735 20.8865 81.8255 34.1427 66.3163C35.507 64.7194 33.2012 62.3909 31.8264 63.9995Z" fill="black"/>
<path d="M18.8247 53.2208C7.99283 62.3839 5.88095 77.3892 6.13934 90.7927C6.42534 105.599 10.0329 120.621 19.4305 132.347C20.7519 133.996 23.054 131.662 21.7467 130.031C12.8678 118.951 9.823 104.701 9.41547 90.7927C9.04723 78.2497 11.0179 64.1005 21.1416 55.537C22.7563 54.1708 20.4272 51.8656 18.8247 53.2208Z" fill="black"/>
<path d="M66.0559 87.6288C64.9769 78.2687 64.2828 68.8785 63.9735 59.4612C63.8317 55.1442 62.7042 48.8564 64.5878 44.8628C66.5782 40.644 78.6375 43.2818 81.991 43.7618C83.0239 43.9097 83.4689 42.3318 82.4268 42.1826C77.7003 41.5057 72.5026 40.5231 67.7473 41.4093C63.4493 42.2103 62.239 45.0783 62.1801 49.1897C61.9972 62.0064 62.9516 74.906 64.4184 87.6294C64.5375 88.6654 66.1762 88.6771 66.0559 87.6288Z" fill="black"/>
<path d="M85.9945 43.9762C97.1768 45.0165 108.37 45.9261 119.573 46.7043C120.628 46.7773 120.62 45.1393 119.573 45.0662C108.37 44.288 97.1762 43.3785 85.9945 42.3382C84.9425 42.2406 84.9518 43.8793 85.9945 43.9762Z" fill="black"/>
<path d="M108.877 69.3031C109.311 76.984 104.222 82.6409 98.822 87.3967C98.0279 88.0964 99.1909 89.2502 99.9802 88.5549C105.706 83.5124 110.972 77.4026 110.515 69.3031C110.455 68.2536 108.817 68.2475 108.877 69.3031Z" fill="black"/>
<path d="M64.8963 39.4034C65.8064 40.3498 66.7166 41.2956 67.6268 42.242C68.3602 43.0043 69.5171 41.8449 68.7849 41.0839C67.8747 40.1375 66.9646 39.1917 66.0544 38.2453C65.321 37.4831 64.1641 38.6424 64.8963 39.4034Z" fill="black"/>
<path d="M68.2181 39.5732C68.8858 40.2883 69.5536 41.0033 70.2207 41.7189C70.9431 42.4922 72.0987 41.3316 71.3788 40.5608C70.7111 39.8457 70.0433 39.1301 69.3762 38.4151C68.6544 37.6418 67.4982 38.8024 68.2181 39.5732Z" fill="black"/>
<path d="M70.9938 39.5829C71.8586 40.5378 72.697 41.7457 73.8269 42.4024C74.7419 42.9345 75.5656 41.5186 74.6536 40.9883C74.2197 40.7361 73.9011 40.3549 73.5672 39.9861C73.0959 39.4656 72.6239 38.9452 72.1526 38.4247C71.4413 37.6404 70.2868 38.8028 70.9938 39.5829Z" fill="black"/>
<path d="M74.5815 40.2163C74.9841 40.2212 75.5021 40.9632 75.7685 41.2234C76.2515 41.6966 76.7345 42.1692 77.2175 42.6424C77.9724 43.3813 79.1312 42.2238 78.3756 41.4843C77.7717 40.8932 77.1678 40.3022 76.5645 39.7106C75.9827 39.141 75.4456 38.5893 74.5815 38.5782C73.5246 38.5647 73.5265 40.2028 74.5815 40.2163Z" fill="black"/>
<path d="M86.2293 39.9628C86.7018 40.5636 87.1744 41.1645 87.647 41.7659C87.9238 42.1176 88.5179 42.0532 88.8051 41.7659C89.1488 41.4222 89.0807 40.9583 88.8051 40.6078C88.3325 40.007 87.86 39.4061 87.3874 38.8046C87.1106 38.453 86.5165 38.5174 86.2293 38.8046C85.8862 39.1477 85.9537 39.6117 86.2293 39.9628Z" fill="black"/>
<path d="M89.1757 40.2751C90.1128 41.5118 91.0132 42.7743 91.8767 44.0637C92.461 44.9365 93.8806 44.1178 93.2908 43.237C92.4272 41.9476 91.5269 40.6851 90.5897 39.4484C89.9606 38.618 88.5374 39.4331 89.1757 40.2751Z" fill="black"/>
<path d="M92.946 40.263C94.1888 41.3149 94.9922 42.748 96.0098 43.9994C96.6763 44.8194 97.8277 43.6533 97.1679 42.8413C96.1485 41.5874 95.3512 40.1605 94.1041 39.1048C93.3038 38.4267 92.1389 39.5793 92.946 40.263Z" fill="black"/>
<path d="M97.3923 40.9262C98.3178 42.0818 99.185 43.3676 100.241 44.4067C100.994 45.1475 102.154 43.99 101.399 43.2486C100.343 42.2095 99.4759 40.9231 98.5504 39.7681C97.89 38.9438 96.7392 40.1111 97.3923 40.9262Z" fill="black"/>
<path d="M102.106 41.2291C102.639 41.7649 103.098 42.3381 103.502 42.9777C103.925 43.6503 104.218 44.3653 104.779 44.9441C105.516 45.7033 106.673 44.5439 105.938 43.786C105.436 43.268 105.167 42.5499 104.785 41.9435C104.357 41.2635 103.829 40.6399 103.264 40.071C102.519 39.321 101.361 40.4791 102.106 41.2291Z" fill="black"/>
<path d="M106.048 41.6162C106.609 41.9954 107.041 42.8792 107.424 43.4298C107.872 44.0723 108.297 44.7309 108.711 45.3962C109.268 46.2904 110.686 45.4686 110.125 44.5695C109.607 43.7378 109.066 42.9222 108.501 42.1225C108.025 41.4498 107.566 40.6691 106.874 40.2027C105.996 39.6092 105.177 41.0288 106.048 41.6162Z" fill="black"/>
<path d="M110.083 41.2218C111.25 42.7033 112.485 44.1247 113.787 45.4879C114.518 46.2526 115.675 45.0926 114.946 44.3297C113.643 42.9666 112.408 41.5452 111.241 40.0636C110.588 39.2345 109.437 40.4024 110.083 41.2218Z" fill="black"/>
<path d="M114.837 41.8133C115.762 42.5381 116.818 43.3231 117.232 44.4702C117.587 45.4559 119.17 45.0312 118.811 44.0344C118.285 42.5762 117.185 41.5881 115.995 40.6546C115.644 40.3796 115.181 40.3109 114.837 40.6546C114.55 40.9424 114.485 41.5378 114.837 41.8133Z" fill="black"/>
<path d="M58.7967 55.9747C59.2158 56.9536 59.8412 57.8288 60.6176 58.5561C61.3873 59.2772 62.5478 58.1216 61.7757 57.398C61.0902 56.756 60.5802 56.0109 60.2107 55.148C60.0352 54.7374 59.4392 54.6496 59.09 54.854C58.6702 55.1007 58.6211 55.5647 58.7967 55.9747Z" fill="black"/>
<path d="M58.9266 61.8117C60.0503 63.1386 61.2078 64.4348 62.4003 65.6998C63.1264 66.47 64.282 65.3094 63.5584 64.5416C62.3659 63.2767 61.2078 61.9805 60.0847 60.6536C59.4016 59.8465 58.2484 61.0108 58.9266 61.8117Z" fill="black"/>
<path d="M59.7779 68.9422C60.9238 69.6689 61.7352 70.943 62.5827 71.979C63.2517 72.7971 64.4037 71.631 63.7409 70.8209C62.7865 69.6541 61.8966 68.3469 60.6046 67.5281C59.7092 66.9604 58.8886 68.3782 59.7779 68.9422Z" fill="black"/>
<path d="M60.2731 74.0751C61.2876 74.5152 62.1837 75.3947 62.8306 76.2741C63.0945 76.6332 63.5351 76.8118 63.9513 76.5681C64.306 76.3601 64.5104 75.8083 64.2452 75.4474C63.4394 74.3525 62.3715 73.2116 61.0998 72.6604C60.6905 72.4831 60.2246 72.5352 59.9791 72.9544C59.7741 73.3049 59.8631 73.8971 60.2731 74.0751Z" fill="black"/>
<path d="M106.459 11.5187C109.115 11.3904 111.758 11.4542 114.404 11.7108C115.455 11.8127 115.446 10.174 114.404 10.0727C111.758 9.81618 109.115 9.75235 106.459 9.88062C105.408 9.93156 105.403 11.5696 106.459 11.5187Z" fill="black"/>
<path d="M107.035 14.1492C109.591 13.9786 112.138 14.0461 114.678 14.3965C115.71 14.5389 116.156 12.961 115.113 12.8174C112.423 12.4467 109.746 12.3307 107.035 12.5117C105.986 12.5817 105.98 14.2198 107.035 14.1492Z" fill="black"/>
<path d="M105.967 19.7611C106.785 19.7611 107.605 19.7611 108.423 19.7611C109.48 19.7611 109.48 18.123 108.423 18.123C107.605 18.123 106.785 18.123 105.967 18.123C104.91 18.123 104.91 19.7611 105.967 19.7611Z" fill="black"/>
<path d="M105.639 21.7201C107.168 21.7195 108.697 21.7557 110.224 21.8287C111.28 21.8791 111.275 20.241 110.224 20.1907C108.697 20.1176 107.168 20.0814 105.639 20.082C104.583 20.0827 104.583 21.7201 105.639 21.7201Z" fill="black"/>
<path d="M105.671 23.7132C107.755 24.0225 109.845 24.2656 111.944 24.435C112.998 24.5197 112.989 22.8816 111.944 22.7969C109.991 22.6392 108.046 22.4213 106.107 22.1335C105.074 21.9806 104.63 23.5586 105.671 23.7132Z" fill="black"/>
<path d="M106.133 26.7556C108.89 26.874 111.618 27.1778 114.332 27.678C115.365 27.8683 115.806 26.2898 114.768 26.0989C111.911 25.5729 109.036 25.2427 106.133 25.1181C105.077 25.0721 105.081 26.7102 106.133 26.7556Z" fill="black"/>
<path d="M107.516 8.96013C106.995 9.67882 106.638 10.4374 106.394 11.2893C106.236 11.8367 106.807 12.5407 107.401 12.2964C108.789 11.7275 110.017 10.9928 111.167 10.0287C110.738 9.97342 110.31 9.91818 109.881 9.86295C109.907 9.90591 109.934 9.94887 109.961 9.99183C109.961 9.71626 109.961 9.44069 109.961 9.16512C109.684 9.72178 108.956 10.233 108.521 10.6682C108.031 11.1585 107.541 11.6489 107.051 12.1399C106.557 12.634 106.907 13.5601 107.63 13.538C108.642 13.5067 109.375 12.9114 110.223 12.3965C111.263 11.7649 112.303 11.134 113.344 10.5025C113.013 10.0735 112.682 9.64507 112.351 9.21606C110.997 10.7615 109.742 12.3799 108.582 14.0763C108.245 14.5703 108.687 15.3565 109.289 15.3086C110.158 15.2393 110.695 14.7698 111.384 14.2579C112.305 13.5736 113.226 12.8893 114.148 12.2044C113.774 12.1062 113.401 12.0086 113.027 11.9104C113.045 11.9392 112.07 13.8437 111.967 14.0763C111.544 15.0331 112.954 15.8672 113.381 14.903C113.821 13.9081 115.121 12.1596 114.441 11.0837C114.222 10.7381 113.688 10.5166 113.32 10.7897C112.662 11.2788 112.004 11.7674 111.346 12.2565C110.829 12.6407 109.947 13.6178 109.288 13.6706C109.524 14.0812 109.759 14.4924 109.995 14.903C111.076 13.3214 112.245 11.8152 113.508 10.3742C114.102 9.69662 113.345 8.58453 112.516 9.08779C111.772 9.53889 111.029 9.98999 110.287 10.4411C109.578 10.8707 108.476 11.8742 107.628 11.8999C107.822 12.3658 108.014 12.8322 108.208 13.298C109.065 12.4394 109.923 11.5814 110.78 10.7228C111.27 10.2318 111.718 9.72301 111.294 9.03624C110.998 8.55875 110.415 8.52867 110.007 8.87053C109.085 9.64384 108.077 10.2606 106.964 10.7173C107.299 11.053 107.635 11.3887 107.972 11.725C108.18 10.9996 108.488 10.3951 108.929 9.78684C109.552 8.93006 108.13 8.11379 107.516 8.96013Z" fill="black"/>
<path d="M95.9755 36.0027C98.088 36.0027 98.088 32.7266 95.9755 32.7266C93.863 32.7266 93.863 36.0027 95.9755 36.0027Z" fill="black"/>
<path d="M89.5331 35.2384C91.6456 35.2384 91.6456 31.9629 89.5331 31.9629C87.4206 31.9629 87.4206 35.2384 89.5331 35.2384Z" fill="black"/>
<path d="M82.1073 34.8009C84.2198 34.8009 84.2198 31.5254 82.1073 31.5254C79.9948 31.5254 79.9948 34.8009 82.1073 34.8009Z" fill="black"/>
<path d="M66.3897 97.988C70.9596 98.2973 75.4989 98.8141 80.0209 99.5481C81.0538 99.7157 81.4969 98.1377 80.4566 97.969C75.7916 97.211 71.1063 96.6691 66.3903 96.3499C65.3347 96.2787 65.3415 97.9174 66.3897 97.988Z" fill="black"/>
<path d="M84.4008 99.8171C85.3165 99.8196 86.2242 99.8865 87.127 100.039C88.16 100.213 88.6025 98.6345 87.5628 98.4596C86.5151 98.2828 85.4638 98.1828 84.4008 98.1797C83.344 98.176 83.3446 99.8141 84.4008 99.8171Z" fill="black"/>
<path d="M106.021 102.007C108.417 102.013 111.307 102.526 113.483 101.329C115.497 100.221 116.802 97.9531 117.448 95.8314C117.756 94.8182 116.175 94.3885 115.869 95.3963C115.3 97.2645 114.263 98.7933 112.656 99.9153C111.135 100.978 107.831 100.374 106.022 100.369C104.964 100.366 104.965 102.004 106.021 102.007Z" fill="black"/>
<path d="M110.917 136.904C110.701 139.139 110.548 141.391 110.232 143.614C109.726 147.155 106.566 148.052 103.55 148.684C102.517 148.9 102.956 150.479 103.986 150.263C106.744 149.685 109.165 148.954 110.895 146.623C112.661 144.243 112.286 139.693 112.556 136.903C112.656 135.853 111.018 135.863 110.917 136.904Z" fill="black"/>
<path d="M66.3842 108.355C68.5329 108.314 70.6804 108.326 72.8285 108.391C73.8854 108.422 73.8823 106.784 72.8285 106.753C70.6804 106.688 68.5329 106.676 66.3842 106.717C65.3292 106.737 65.3274 108.375 66.3842 108.355Z" fill="black"/>
<path d="M83.3953 108.945C85.5428 109.021 87.6872 109.148 89.8285 109.328C90.8817 109.417 90.8731 107.779 89.8285 107.69C87.6872 107.51 85.5434 107.382 83.3953 107.307C82.3391 107.27 82.3427 108.909 83.3953 108.945Z" fill="black"/>
<path d="M101.654 109.768C102.897 109.724 104.135 109.779 105.365 109.965C106.398 110.122 106.842 108.544 105.8 108.386C104.423 108.177 103.047 108.081 101.654 108.13C100.601 108.167 100.597 109.805 101.654 109.768Z" fill="black"/>
<path d="M102.309 120.247C103.365 120.247 103.365 118.609 102.309 118.609C101.253 118.609 101.253 120.247 102.309 120.247Z" fill="black"/>
<path d="M100.567 123.968C101.637 123.818 102.708 123.904 103.752 124.173C104.775 124.437 105.209 122.857 104.187 122.594C102.84 122.246 101.505 122.196 100.131 122.389C99.0891 122.535 99.5347 124.113 100.567 123.968Z" fill="black"/>
<path d="M83.0915 123.273C84.5111 123.307 85.9307 123.341 87.3503 123.375C88.4071 123.4 88.4047 121.762 87.3503 121.737C85.9307 121.703 84.5111 121.669 83.0915 121.635C82.0347 121.61 82.0371 123.247 83.0915 123.273Z" fill="black"/>
<path d="M67.6945 123.304C69.1871 123.304 70.6791 123.304 72.1711 123.304C73.2274 123.304 73.2274 121.666 72.1711 121.666C70.6791 121.666 69.1865 121.666 67.6945 121.666C66.6383 121.666 66.6383 123.304 67.6945 123.304Z" fill="black"/>
<path d="M68.5676 138.482C70.0602 138.482 71.5522 138.482 73.0448 138.482C74.101 138.482 74.101 136.844 73.0448 136.844C71.5522 136.844 70.0602 136.844 68.5676 136.844C67.5113 136.844 67.5113 138.482 68.5676 138.482Z" fill="black"/>
<path d="M83.9646 137.685C85.4572 137.721 86.9492 137.756 88.4418 137.791C89.4987 137.816 89.4962 136.178 88.4418 136.153C86.9492 136.118 85.4572 136.082 83.9646 136.047C82.9077 136.022 82.9102 137.66 83.9646 137.685Z" fill="black"/>
<path d="M99.0334 136.953C100.271 136.953 101.509 136.953 102.746 136.953C103.802 136.953 103.802 135.314 102.746 135.314C101.509 135.314 100.271 135.314 99.0334 135.314C97.9765 135.314 97.9765 136.953 99.0334 136.953Z" fill="black"/>
<path d="M55.3557 146.015C56.0836 146.015 56.8114 146.015 57.5393 146.015C58.5956 146.015 58.5956 144.377 57.5393 144.377C56.8114 144.377 56.0836 144.377 55.3557 144.377C54.2994 144.377 54.2994 146.015 55.3557 146.015Z" fill="black"/>
<path d="M55.6829 148.193C56.8147 148.245 57.9409 148.21 59.0677 148.091C60.1068 147.98 60.1172 146.341 59.0677 146.453C57.9409 146.573 56.8153 146.607 55.6829 146.555C54.6267 146.506 54.6316 148.144 55.6829 148.193Z" fill="black"/>
<path d="M55.4666 150.675C57.2852 150.779 59.1043 150.818 60.9252 150.794C61.9809 150.781 61.9821 149.143 60.9252 149.156C59.1037 149.18 57.2852 149.14 55.4666 149.037C54.4104 148.977 54.4165 150.615 55.4666 150.675Z" fill="black"/>
<path d="M56.2324 153.069C59.209 153.289 62.1446 153.105 65.0758 152.551C66.113 152.355 65.6723 150.777 64.64 150.972C61.85 151.499 59.0624 151.639 56.2324 151.431C55.1786 151.353 55.186 152.992 56.2324 153.069Z" fill="black"/>
<path d="M57.7706 155.52C61.6365 155.96 65.4798 155.956 69.3451 155.51C70.3817 155.39 70.3934 153.751 69.3451 153.872C65.4798 154.319 61.6372 154.322 57.7706 153.882C56.7223 153.762 56.734 155.402 57.7706 155.52Z" fill="black"/>
</svg>
