<svg width="942" height="64" viewBox="0 0 942 64" fill="none" xmlns="http://www.w3.org/2000/svg">
<path d="M0.385923 34.2405C0.385923 28.7347 1.65441 23.7957 4.19138 19.4235C6.78233 15.0513 10.2639 11.6506 14.6362 9.22162C19.0624 6.73863 23.8934 5.49713 29.1293 5.49713C35.1209 5.49713 40.4377 6.98153 45.0798 9.95033C49.7759 12.8651 53.1765 17.0215 55.2817 22.4193H44.1892C42.7318 19.4505 40.7076 17.2374 38.1166 15.78C35.5257 14.3226 32.5299 13.5939 29.1293 13.5939C25.4048 13.5939 22.0851 14.4305 19.1703 16.1038C16.2555 17.7772 13.9614 20.1792 12.2881 23.3099C10.6688 26.4407 9.85909 30.0842 9.85909 34.2405C9.85909 38.3968 10.6688 42.0403 12.2881 45.1711C13.9614 48.3018 16.2555 50.7308 19.1703 52.4581C22.0851 54.1314 25.4048 54.9681 29.1293 54.9681C32.5299 54.9681 35.5257 54.2394 38.1166 52.782C40.7076 51.3246 42.7318 49.1115 44.1892 46.1427H55.2817C53.1765 51.5405 49.7759 55.6968 45.0798 58.6116C40.4377 61.5264 35.1209 62.9839 29.1293 62.9839C23.8394 62.9839 19.0084 61.7693 14.6362 59.3403C10.2639 56.8573 6.78233 53.4297 4.19138 49.0575C1.65441 44.6853 0.385923 39.7463 0.385923 34.2405ZM85.4369 63.2268C81.2266 63.2268 77.4212 62.2821 74.0205 60.3929C70.6199 58.4497 67.948 55.7508 66.0048 52.2962C64.0616 48.7876 63.09 44.7392 63.09 40.1511C63.09 35.6169 64.0886 31.5956 66.0857 28.087C68.0829 24.5784 70.8088 21.8795 74.2634 19.9903C77.718 18.101 81.5775 17.1564 85.8417 17.1564C90.106 17.1564 93.9655 18.101 97.4201 19.9903C100.875 21.8795 103.601 24.5784 105.598 28.087C107.595 31.5956 108.594 35.6169 108.594 40.1511C108.594 44.6853 107.568 48.7066 105.517 52.2152C103.466 55.7238 100.659 58.4497 97.0962 60.3929C93.5876 62.2821 89.7012 63.2268 85.4369 63.2268ZM85.4369 55.211C87.8119 55.211 90.0251 54.6442 92.0762 53.5107C94.1814 52.3771 95.8817 50.6768 97.1772 48.4098C98.4726 46.1427 99.1204 43.3898 99.1204 40.1511C99.1204 36.9124 98.4996 34.1865 97.2581 31.9734C96.0166 29.7063 94.3703 28.006 92.3191 26.8725C90.268 25.7389 88.0548 25.1722 85.6798 25.1722C83.3048 25.1722 81.0917 25.7389 79.0405 26.8725C77.0433 28.006 75.451 29.7063 74.2634 31.9734C73.0759 34.1865 72.4822 36.9124 72.4822 40.1511C72.4822 44.9552 73.6967 48.6796 76.1257 51.3246C78.6087 53.9155 81.7124 55.211 85.4369 55.211ZM140.227 17.1564C143.736 17.1564 146.866 17.8851 149.619 19.3425C152.426 20.7999 154.612 22.9591 156.178 25.8199C157.743 28.6807 158.526 32.1353 158.526 36.1837V62.498H149.376V37.5601C149.376 33.5658 148.378 30.516 146.381 28.4109C144.383 26.2517 141.657 25.1722 138.203 25.1722C134.748 25.1722 131.995 26.2517 129.944 28.4109C127.947 30.516 126.948 33.5658 126.948 37.5601V62.498H117.718V17.8851H126.948V22.986C128.46 21.1508 130.376 19.7204 132.697 18.6948C135.072 17.6692 137.582 17.1564 140.227 17.1564ZM192.808 17.1564C196.317 17.1564 199.448 17.8851 202.2 19.3425C205.007 20.7999 207.193 22.9591 208.759 25.8199C210.324 28.6807 211.107 32.1353 211.107 36.1837V62.498H201.958V37.5601C201.958 33.5658 200.959 30.516 198.962 28.4109C196.965 26.2517 194.239 25.1722 190.784 25.1722C187.329 25.1722 184.577 26.2517 182.525 28.4109C180.528 30.516 179.53 33.5658 179.53 37.5601V62.498H170.299V17.8851H179.53V22.986C181.041 21.1508 182.957 19.7204 185.278 18.6948C187.653 17.6692 190.163 17.1564 192.808 17.1564ZM263.769 39.0985C263.769 40.7718 263.661 42.2832 263.445 43.6327H229.358C229.628 47.1952 230.95 50.0561 233.325 52.2152C235.7 54.3743 238.615 55.4539 242.07 55.4539C247.036 55.4539 250.544 53.3757 252.596 49.2194H262.555C261.205 53.3218 258.749 56.6954 255.187 59.3403C251.678 61.9313 247.306 63.2268 242.07 63.2268C237.806 63.2268 233.973 62.2821 230.573 60.3929C227.226 58.4497 224.581 55.7508 222.638 52.2962C220.748 48.7876 219.804 44.7392 219.804 40.1511C219.804 35.563 220.722 31.5416 222.557 28.087C224.446 24.5784 227.064 21.8795 230.411 19.9903C233.811 18.101 237.698 17.1564 242.07 17.1564C246.28 17.1564 250.032 18.074 253.324 19.9093C256.617 21.7446 259.181 24.3355 261.016 27.6821C262.851 30.9748 263.769 34.7803 263.769 39.0985ZM254.134 36.1837C254.08 32.7831 252.865 30.0572 250.49 28.006C248.115 25.9548 245.174 24.9293 241.665 24.9293C238.48 24.9293 235.754 25.9548 233.487 28.006C231.22 30.0032 229.871 32.7291 229.439 36.1837H254.134ZM269.776 40.1511C269.776 35.563 270.693 31.5416 272.529 28.087C274.418 24.5784 277.009 21.8795 280.302 19.9903C283.594 18.101 287.373 17.1564 291.637 17.1564C297.035 17.1564 301.488 18.4519 304.997 21.0428C308.559 23.5798 310.961 27.2233 312.203 31.9734H302.244C301.434 29.7603 300.139 28.033 298.357 26.7915C296.576 25.55 294.336 24.9293 291.637 24.9293C287.858 24.9293 284.836 26.2787 282.569 28.9776C280.356 31.6226 279.249 35.347 279.249 40.1511C279.249 44.9552 280.356 48.7066 282.569 51.4055C284.836 54.1044 287.858 55.4539 291.637 55.4539C296.981 55.4539 300.516 53.1059 302.244 48.4098H312.203C310.907 52.9439 308.478 56.5605 304.916 59.2594C301.353 61.9043 296.927 63.2268 291.637 63.2268C287.373 63.2268 283.594 62.2821 280.302 60.3929C277.009 58.4497 274.418 55.7508 272.529 52.2962C270.693 48.7876 269.776 44.7392 269.776 40.1511ZM332.17 25.4151V50.1101C332.17 51.7834 332.548 52.9979 333.303 53.7536C334.113 54.4553 335.463 54.8062 337.352 54.8062H343.02V62.498H335.732C331.576 62.498 328.391 61.5264 326.178 59.5832C323.965 57.64 322.859 54.4823 322.859 50.1101V25.4151H317.596V17.8851H322.859V6.79261H332.17V17.8851H343.02V25.4151H332.17ZM432.475 17.8851L418.63 62.498H408.914L399.926 29.5444L390.939 62.498H381.223L367.296 17.8851H376.689L386 53.7536L395.473 17.8851H405.108L414.176 53.5917L423.407 17.8851H432.475ZM444.069 11.9745C442.396 11.9745 440.992 11.4077 439.859 10.2742C438.725 9.14066 438.159 7.73723 438.159 6.06391C438.159 4.39058 438.725 2.98715 439.859 1.85361C440.992 0.72007 442.396 0.153299 444.069 0.153299C445.688 0.153299 447.065 0.72007 448.198 1.85361C449.332 2.98715 449.899 4.39058 449.899 6.06391C449.899 7.73723 449.332 9.14066 448.198 10.2742C447.065 11.4077 445.688 11.9745 444.069 11.9745ZM448.603 17.8851V62.498H439.373V17.8851H448.603ZM471.49 25.4151V50.1101C471.49 51.7834 471.868 52.9979 472.624 53.7536C473.434 54.4553 474.783 54.8062 476.672 54.8062H482.34V62.498H475.053C470.897 62.498 467.712 61.5264 465.499 59.5832C463.286 57.64 462.179 54.4823 462.179 50.1101V25.4151H456.916V17.8851H462.179V6.79261H471.49V17.8851H482.34V25.4151H471.49ZM513.923 17.1564C517.324 17.1564 520.346 17.8851 522.991 19.3425C525.69 20.7999 527.795 22.9591 529.307 25.8199C530.872 28.6807 531.655 32.1353 531.655 36.1837V62.498H522.505V37.5601C522.505 33.5658 521.507 30.516 519.51 28.4109C517.512 26.2517 514.787 25.1722 511.332 25.1722C507.877 25.1722 505.124 26.2517 503.073 28.4109C501.076 30.516 500.078 33.5658 500.078 37.5601V62.498H490.847V2.58232H500.078V23.067C501.643 21.1778 503.613 19.7204 505.988 18.6948C508.417 17.6692 511.062 17.1564 513.923 17.1564Z" fill="black"/>
<path d="M609.398 6.22584V62.498H600.168V37.884H573.691V62.498H564.461V6.22584H573.691V30.3541H600.168V6.22584H609.398ZM640.9 63.2268C636.69 63.2268 632.885 62.2821 629.484 60.3929C626.083 58.4497 623.411 55.7508 621.468 52.2962C619.525 48.7876 618.553 44.7392 618.553 40.1511C618.553 35.6169 619.552 31.5956 621.549 28.087C623.546 24.5784 626.272 21.8795 629.727 19.9903C633.182 18.101 637.041 17.1564 641.305 17.1564C645.569 17.1564 649.429 18.101 652.884 19.9903C656.338 21.8795 659.064 24.5784 661.061 28.087C663.058 31.5956 664.057 35.6169 664.057 40.1511C664.057 44.6853 663.031 48.7066 660.98 52.2152C658.929 55.7238 656.122 58.4497 652.56 60.3929C649.051 62.2821 645.165 63.2268 640.9 63.2268ZM640.9 55.211C643.275 55.211 645.489 54.6442 647.54 53.5107C649.645 52.3771 651.345 50.6768 652.641 48.4098C653.936 46.1427 654.584 43.3898 654.584 40.1511C654.584 36.9124 653.963 34.1865 652.722 31.9734C651.48 29.7063 649.834 28.006 647.783 26.8725C645.731 25.7389 643.518 25.1722 641.143 25.1722C638.768 25.1722 636.555 25.7389 634.504 26.8725C632.507 28.006 630.914 29.7063 629.727 31.9734C628.539 34.1865 627.946 36.9124 627.946 40.1511C627.946 44.9552 629.16 48.6796 631.589 51.3246C634.072 53.9155 637.176 55.211 640.9 55.211ZM692.533 63.2268C688.322 63.2268 684.517 62.2821 681.116 60.3929C677.716 58.4497 675.044 55.7508 673.101 52.2962C671.157 48.7876 670.186 44.7392 670.186 40.1511C670.186 35.6169 671.184 31.5956 673.182 28.087C675.179 24.5784 677.905 21.8795 681.359 19.9903C684.814 18.101 688.673 17.1564 692.938 17.1564C697.202 17.1564 701.061 18.101 704.516 19.9903C707.971 21.8795 710.696 24.5784 712.694 28.087C714.691 31.5956 715.689 35.6169 715.689 40.1511C715.689 44.6853 714.664 48.7066 712.613 52.2152C710.561 55.7238 707.755 58.4497 704.192 60.3929C700.683 62.2821 696.797 63.2268 692.533 63.2268ZM692.533 55.211C694.908 55.211 697.121 54.6442 699.172 53.5107C701.277 52.3771 702.978 50.6768 704.273 48.4098C705.568 46.1427 706.216 43.3898 706.216 40.1511C706.216 36.9124 705.595 34.1865 704.354 31.9734C703.112 29.7063 701.466 28.006 699.415 26.8725C697.364 25.7389 695.151 25.1722 692.776 25.1722C690.401 25.1722 688.188 25.7389 686.136 26.8725C684.139 28.006 682.547 29.7063 681.359 31.9734C680.172 34.1865 679.578 36.9124 679.578 40.1511C679.578 44.9552 680.793 48.6796 683.222 51.3246C685.705 53.9155 688.808 55.211 692.533 55.211ZM721.737 39.9892C721.737 35.509 722.655 31.5416 724.49 28.087C726.379 24.6324 728.916 21.9605 732.101 20.0712C735.34 18.128 738.929 17.1564 742.87 17.1564C745.785 17.1564 748.645 17.8042 751.452 19.0996C754.313 20.3411 756.58 22.0144 758.253 24.1196V2.58232H767.565V62.498H758.253V55.7778C756.742 57.9369 754.637 59.7182 751.938 61.1216C749.293 62.525 746.243 63.2268 742.789 63.2268C738.902 63.2268 735.34 62.2551 732.101 60.3119C728.916 58.3147 726.379 55.5619 724.49 52.0533C722.655 48.4907 721.737 44.4693 721.737 39.9892ZM758.253 40.1511C758.253 37.0743 757.606 34.4024 756.31 32.1353C755.069 29.8683 753.422 28.141 751.371 26.9534C749.32 25.7659 747.107 25.1722 744.732 25.1722C742.357 25.1722 740.144 25.7659 738.093 26.9534C736.041 28.087 734.368 29.7873 733.073 32.0544C731.831 34.2675 731.21 36.9124 731.21 39.9892C731.21 43.0659 731.831 45.7648 733.073 48.0859C734.368 50.4069 736.041 52.1882 738.093 53.4297C740.198 54.6172 742.411 55.211 744.732 55.211C747.107 55.211 749.32 54.6172 751.371 53.4297C753.422 52.2422 755.069 50.5149 756.31 48.2478C757.606 45.9268 758.253 43.2279 758.253 40.1511ZM784.384 11.9745C782.711 11.9745 781.308 11.4077 780.174 10.2742C779.041 9.14066 778.474 7.73723 778.474 6.06391C778.474 4.39058 779.041 2.98715 780.174 1.85361C781.308 0.72007 782.711 0.153299 784.384 0.153299C786.004 0.153299 787.38 0.72007 788.514 1.85361C789.647 2.98715 790.214 4.39058 790.214 6.06391C790.214 7.73723 789.647 9.14066 788.514 10.2742C787.38 11.4077 786.004 11.9745 784.384 11.9745ZM788.919 17.8851V62.498H779.688V17.8851H788.919ZM797.96 39.9892C797.96 35.509 798.878 31.5416 800.713 28.087C802.602 24.6324 805.139 21.9605 808.324 20.0712C811.563 18.128 815.125 17.1564 819.012 17.1564C822.52 17.1564 825.57 17.8581 828.161 19.2616C830.806 20.611 832.911 22.3113 834.476 24.3625V17.8851H843.788V62.498H834.476V55.8587C832.911 57.9639 830.779 59.7182 828.08 61.1216C825.381 62.525 822.304 63.2268 818.85 63.2268C815.017 63.2268 811.509 62.2551 808.324 60.3119C805.139 58.3147 802.602 55.5619 800.713 52.0533C798.878 48.4907 797.96 44.4693 797.96 39.9892ZM834.476 40.1511C834.476 37.0743 833.829 34.4024 832.533 32.1353C831.292 29.8683 829.645 28.141 827.594 26.9534C825.543 25.7659 823.33 25.1722 820.955 25.1722C818.58 25.1722 816.367 25.7659 814.316 26.9534C812.264 28.087 810.591 29.7873 809.296 32.0544C808.054 34.2675 807.433 36.9124 807.433 39.9892C807.433 43.0659 808.054 45.7648 809.296 48.0859C810.591 50.4069 812.264 52.1882 814.316 53.4297C816.421 54.6172 818.634 55.211 820.955 55.211C823.33 55.211 825.543 54.6172 827.594 53.4297C829.645 52.2422 831.292 50.5149 832.533 48.2478C833.829 45.9268 834.476 43.2279 834.476 40.1511ZM878.42 17.1564C881.929 17.1564 885.059 17.8851 887.812 19.3425C890.619 20.7999 892.805 22.9591 894.371 25.8199C895.936 28.6807 896.719 32.1353 896.719 36.1837V62.498H887.569V37.5601C887.569 33.5658 886.571 30.516 884.574 28.4109C882.576 26.2517 879.851 25.1722 876.396 25.1722C872.941 25.1722 870.189 26.2517 868.137 28.4109C866.14 30.516 865.142 33.5658 865.142 37.5601V62.498H855.911V17.8851H865.142V22.986C866.653 21.1508 868.569 19.7204 870.89 18.6948C873.265 17.6692 875.775 17.1564 878.42 17.1564ZM924.686 63.2268C921.177 63.2268 918.02 62.606 915.213 61.3645C912.46 60.069 910.274 58.3417 908.654 56.1826C907.035 53.9695 906.171 51.5135 906.064 48.8146H915.618C915.78 50.7038 916.67 52.2962 918.29 53.5917C919.963 54.8332 922.041 55.4539 924.524 55.4539C927.115 55.4539 929.112 54.9681 930.516 53.9965C931.973 52.9709 932.702 51.6754 932.702 50.1101C932.702 48.4367 931.892 47.1952 930.273 46.3856C928.707 45.5759 926.197 44.6853 922.743 43.7137C919.396 42.796 916.67 41.9054 914.565 41.0417C912.46 40.1781 910.625 38.8556 909.059 37.0743C907.548 35.2931 906.792 32.945 906.792 30.0302C906.792 27.6552 907.494 25.496 908.897 23.5528C910.301 21.5556 912.298 19.9903 914.889 18.8567C917.534 17.7232 920.557 17.1564 923.957 17.1564C929.031 17.1564 933.107 18.4519 936.183 21.0428C939.314 23.5798 940.987 27.0614 941.203 31.4876H931.973C931.811 29.4904 931.001 27.8981 929.544 26.7105C928.087 25.523 926.116 24.9293 923.633 24.9293C921.204 24.9293 919.342 25.3881 918.047 26.3057C916.751 27.2233 916.103 28.4378 916.103 29.9492C916.103 31.1367 916.535 32.1353 917.399 32.945C918.263 33.7547 919.315 34.4024 920.557 34.8882C921.798 35.3201 923.633 35.8868 926.062 36.5885C929.301 37.4522 931.946 38.3428 933.997 39.2605C936.102 40.1241 937.911 41.4196 939.422 43.1469C940.933 44.8742 941.716 47.1683 941.77 50.0291C941.77 52.5661 941.068 54.8332 939.665 56.8303C938.261 58.8275 936.264 60.3929 933.673 61.5264C931.136 62.66 928.141 63.2268 924.686 63.2268Z" fill="#FBB90F"/>
</svg>
