<svg width="148" height="22" viewBox="0 0 148 22" fill="none" xmlns="http://www.w3.org/2000/svg">
<mask id="path-1-outside-1_632_4931" maskUnits="userSpaceOnUse" x="-0.801392" y="-1.5957" width="150" height="24" fill="black">
<rect fill="white" x="-0.801392" y="-1.5957" width="150" height="24"/>
<path d="M11.2607 14.0443V16.4043H2.80412V14.0443H11.2607ZM3.72189 0.496342V16.4043H0.717294V0.496342H3.72189ZM10.1572 7.06274V9.36809H2.80412V7.06274H10.1572ZM11.2279 0.496342V2.86724H2.80412V0.496342H11.2279ZM18.1964 7.10645V16.4043H15.312V4.58259H18.0216L18.1964 7.10645ZM17.7375 10.0673H16.8853C16.8926 9.20784 17.0091 8.42847 17.2349 7.72922C17.4607 7.02997 17.7776 6.42905 18.1855 5.92646C18.6006 5.42387 19.0923 5.03783 19.6604 4.76833C20.2286 4.49882 20.8623 4.36407 21.5615 4.36407C22.1297 4.36407 22.6432 4.4442 23.1021 4.60444C23.5609 4.76469 23.9543 5.01962 24.282 5.36925C24.6171 5.71887 24.872 6.17775 25.0468 6.7459C25.2289 7.30675 25.32 7.99872 25.32 8.8218V16.4043H22.4137V8.79994C22.4137 8.26094 22.3336 7.83483 22.1734 7.52163C22.0204 7.20842 21.7946 6.98626 21.496 6.85515C21.2046 6.72404 20.8441 6.65849 20.4143 6.65849C19.97 6.65849 19.5803 6.74954 19.2453 6.93163C18.9175 7.10645 18.6407 7.35046 18.4149 7.66366C18.1964 7.97687 18.0288 8.33742 17.9123 8.74532C17.7958 9.15321 17.7375 9.59389 17.7375 10.0673ZM37.1832 20.9494V6.96441L37.5328 4.58259H40.0895V20.9494H37.1832ZM29.6007 10.6136V10.3842C29.6007 9.48099 29.7027 8.66155 29.9066 7.92588C30.1106 7.18293 30.4092 6.54923 30.8026 6.02479C31.2032 5.49307 31.6912 5.08518 32.2666 4.8011C32.842 4.50975 33.5012 4.36407 34.2442 4.36407C34.9726 4.36407 35.6026 4.50611 36.1343 4.79018C36.6661 5.07425 37.1177 5.4785 37.4891 6.00294C37.8606 6.5201 38.1556 7.13558 38.3741 7.8494C38.5999 8.56322 38.7675 9.35352 38.8767 10.2203V10.8431C38.7675 11.6734 38.5999 12.4419 38.3741 13.1484C38.1556 13.8477 37.8606 14.4595 37.4891 14.9839C37.1249 15.5011 36.6733 15.9054 36.1343 16.1967C35.5953 16.4808 34.958 16.6228 34.2223 16.6228C33.4867 16.6228 32.8311 16.4735 32.2557 16.1749C31.6875 15.8689 31.2032 15.4465 30.8026 14.9075C30.4092 14.3685 30.1106 13.7348 29.9066 13.0064C29.7027 12.2707 29.6007 11.4731 29.6007 10.6136ZM32.4961 10.3842V10.6136C32.4961 11.1308 32.5398 11.6152 32.6272 12.0668C32.7219 12.5111 32.8675 12.9044 33.0642 13.2467C33.2609 13.5891 33.5122 13.8586 33.8181 14.0553C34.1313 14.2519 34.51 14.3502 34.9544 14.3502C35.5516 14.3502 36.036 14.2191 36.4075 13.9569C36.7862 13.6947 37.0703 13.3414 37.2597 12.8971C37.4564 12.4455 37.5838 11.9429 37.6421 11.3894V9.68493C37.6057 9.24062 37.5292 8.83272 37.4127 8.46125C37.2961 8.08977 37.1322 7.76928 36.921 7.49978C36.7171 7.23027 36.4548 7.01904 36.1343 6.86608C35.8139 6.71312 35.4278 6.63664 34.9762 6.63664C34.5319 6.63664 34.1531 6.73497 33.8399 6.93163C33.5267 7.12101 33.2718 7.38688 33.0751 7.72922C32.8785 8.07156 32.7328 8.46853 32.6381 8.92013C32.5434 9.37173 32.4961 9.85975 32.4961 10.3842ZM52.0292 13.5964V4.58259H54.9354V16.4043H52.204L52.0292 13.5964ZM52.4007 11.149L53.2966 11.1271C53.2966 11.9211 53.2092 12.6531 53.0344 13.3232C52.8595 13.9933 52.5864 14.576 52.2149 15.0714C51.8507 15.5594 51.3882 15.9418 50.8273 16.2186C50.2665 16.4881 49.6037 16.6228 48.8389 16.6228C48.2561 16.6228 47.7244 16.5427 47.2437 16.3824C46.763 16.2149 46.3478 15.9563 45.9981 15.6067C45.6558 15.2498 45.3899 14.7946 45.2006 14.241C45.0112 13.6801 44.9165 13.0064 44.9165 12.2197V4.58259H47.8009V12.2416C47.8009 12.6349 47.8446 12.9627 47.932 13.2249C48.0267 13.4871 48.1542 13.702 48.3144 13.8695C48.4819 14.0298 48.675 14.1463 48.8935 14.2191C49.1193 14.2847 49.3597 14.3175 49.6146 14.3175C50.3138 14.3175 50.8638 14.1791 51.2644 13.9023C51.6723 13.6182 51.9636 13.2395 52.1384 12.766C52.3133 12.2853 52.4007 11.7463 52.4007 11.149ZM62.7889 4.58259V16.4043H59.8936V4.58259H62.7889ZM59.6969 1.49059C59.6969 1.06084 59.8426 0.703932 60.1339 0.419862C60.4326 0.135791 60.8332 -0.00624434 61.3358 -0.00624434C61.8384 -0.00624434 62.2353 0.135791 62.5267 0.419862C62.8253 0.703932 62.9746 1.06084 62.9746 1.49059C62.9746 1.91305 62.8253 2.26632 62.5267 2.55039C62.2353 2.83446 61.8384 2.9765 61.3358 2.9765C60.8332 2.9765 60.4326 2.83446 60.1339 2.55039C59.8426 2.26632 59.6969 1.91305 59.6969 1.49059ZM70.6642 6.99719V16.4043H67.7798V4.58259H70.5113L70.6642 6.99719ZM74.2588 4.50611L74.2151 7.19385C74.0549 7.16472 73.8728 7.14287 73.6688 7.1283C73.4722 7.11373 73.2864 7.10645 73.1116 7.10645C72.6673 7.10645 72.2776 7.16836 71.9425 7.29219C71.6075 7.40873 71.3271 7.5799 71.1013 7.8057C70.8827 8.0315 70.7152 8.30828 70.5987 8.63606C70.4821 8.95655 70.4166 9.32074 70.402 9.72864L69.7792 9.65216C69.7792 8.90192 69.8557 8.20631 70.0087 7.56533C70.1616 6.92435 70.3838 6.36349 70.6751 5.88276C70.9665 5.40202 71.3307 5.03055 71.7677 4.76833C72.212 4.49882 72.7219 4.36407 73.2973 4.36407C73.4576 4.36407 73.6288 4.37864 73.8109 4.40778C74.0002 4.42963 74.1496 4.46241 74.2588 4.50611ZM81.7408 15.0932L84.9093 4.58259H88.0013L83.2595 18.1961C83.1502 18.4875 83.0082 18.8043 82.8334 19.1467C82.6658 19.489 82.44 19.8131 82.156 20.1191C81.8719 20.4323 81.515 20.6872 81.0852 20.8839C80.6628 21.0805 80.1493 21.1789 79.5447 21.1789C79.2825 21.1789 79.0494 21.1607 78.8455 21.1242C78.6415 21.0878 78.4266 21.0405 78.2008 20.9822V18.8189C78.2737 18.8262 78.3574 18.8298 78.4521 18.8298C78.5541 18.8371 78.6415 18.8407 78.7143 18.8407C79.1368 18.8407 79.4864 18.7898 79.7632 18.6878C80.04 18.5931 80.2622 18.4365 80.4297 18.218C80.6045 18.0067 80.7502 17.73 80.8667 17.3876L81.7408 15.0932ZM80.1784 4.58259L82.8552 13.2904L83.325 16.3387L81.3365 16.6993L77.0645 4.58259H80.1784Z"/>
<path d="M112.449 0.496342V16.4043H109.433L102.67 5.36925V16.4043H99.6656V0.496342H102.67L109.455 11.5423V0.496342H112.449ZM117.014 10.6136V10.3842C117.014 9.51741 117.137 8.71982 117.385 7.99144C117.633 7.25577 117.993 6.61843 118.467 6.07942C118.94 5.54042 119.519 5.12159 120.204 4.82296C120.889 4.51703 121.668 4.36407 122.542 4.36407C123.431 4.36407 124.217 4.51703 124.902 4.82296C125.594 5.12159 126.177 5.54042 126.65 6.07942C127.124 6.61843 127.484 7.25577 127.732 7.99144C127.979 8.71982 128.103 9.51741 128.103 10.3842V10.6136C128.103 11.4731 127.979 12.2707 127.732 13.0064C127.484 13.7348 127.124 14.3721 126.65 14.9184C126.177 15.4574 125.598 15.8762 124.913 16.1749C124.228 16.4735 123.445 16.6228 122.564 16.6228C121.69 16.6228 120.907 16.4735 120.215 16.1749C119.523 15.8762 118.94 15.4574 118.467 14.9184C117.993 14.3721 117.633 13.7348 117.385 13.0064C117.137 12.2707 117.014 11.4731 117.014 10.6136ZM119.898 10.3842V10.6136C119.898 11.1308 119.949 11.6152 120.051 12.0668C120.153 12.5184 120.31 12.9153 120.521 13.2577C120.732 13.6 121.005 13.8695 121.34 14.0662C121.683 14.2556 122.09 14.3502 122.564 14.3502C123.03 14.3502 123.431 14.2556 123.766 14.0662C124.101 13.8695 124.374 13.6 124.585 13.2577C124.804 12.9153 124.964 12.5184 125.066 12.0668C125.168 11.6152 125.219 11.1308 125.219 10.6136V10.3842C125.219 9.87431 125.168 9.39722 125.066 8.95291C124.964 8.50131 124.804 8.10434 124.585 7.76199C124.374 7.41237 124.097 7.13922 123.755 6.94256C123.42 6.73861 123.016 6.63664 122.542 6.63664C122.076 6.63664 121.675 6.73861 121.34 6.94256C121.005 7.13922 120.732 7.41237 120.521 7.76199C120.31 8.10434 120.153 8.50131 120.051 8.95291C119.949 9.39722 119.898 9.87431 119.898 10.3842ZM135.727 13.5636L138.317 4.58259H140.152L139.606 7.68551L136.995 16.4043H135.41L135.727 13.5636ZM134.296 4.58259L136.241 13.5854L136.416 16.4043H134.591L131.488 4.58259H134.296ZM142.556 13.4543L144.457 4.58259H147.254L144.173 16.4043H142.348L142.556 13.4543ZM140.436 4.58259L143.004 13.4762L143.343 16.4043H141.758L139.125 7.68551L138.59 4.58259H140.436Z"/>
</mask>
<path d="M11.2607 14.0443V16.4043H2.80412V14.0443H11.2607ZM3.72189 0.496342V16.4043H0.717294V0.496342H3.72189ZM10.1572 7.06274V9.36809H2.80412V7.06274H10.1572ZM11.2279 0.496342V2.86724H2.80412V0.496342H11.2279ZM18.1964 7.10645V16.4043H15.312V4.58259H18.0216L18.1964 7.10645ZM17.7375 10.0673H16.8853C16.8926 9.20784 17.0091 8.42847 17.2349 7.72922C17.4607 7.02997 17.7776 6.42905 18.1855 5.92646C18.6006 5.42387 19.0923 5.03783 19.6604 4.76833C20.2286 4.49882 20.8623 4.36407 21.5615 4.36407C22.1297 4.36407 22.6432 4.4442 23.1021 4.60444C23.5609 4.76469 23.9543 5.01962 24.282 5.36925C24.6171 5.71887 24.872 6.17775 25.0468 6.7459C25.2289 7.30675 25.32 7.99872 25.32 8.8218V16.4043H22.4137V8.79994C22.4137 8.26094 22.3336 7.83483 22.1734 7.52163C22.0204 7.20842 21.7946 6.98626 21.496 6.85515C21.2046 6.72404 20.8441 6.65849 20.4143 6.65849C19.97 6.65849 19.5803 6.74954 19.2453 6.93163C18.9175 7.10645 18.6407 7.35046 18.4149 7.66366C18.1964 7.97687 18.0288 8.33742 17.9123 8.74532C17.7958 9.15321 17.7375 9.59389 17.7375 10.0673ZM37.1832 20.9494V6.96441L37.5328 4.58259H40.0895V20.9494H37.1832ZM29.6007 10.6136V10.3842C29.6007 9.48099 29.7027 8.66155 29.9066 7.92588C30.1106 7.18293 30.4092 6.54923 30.8026 6.02479C31.2032 5.49307 31.6912 5.08518 32.2666 4.8011C32.842 4.50975 33.5012 4.36407 34.2442 4.36407C34.9726 4.36407 35.6026 4.50611 36.1343 4.79018C36.6661 5.07425 37.1177 5.4785 37.4891 6.00294C37.8606 6.5201 38.1556 7.13558 38.3741 7.8494C38.5999 8.56322 38.7675 9.35352 38.8767 10.2203V10.8431C38.7675 11.6734 38.5999 12.4419 38.3741 13.1484C38.1556 13.8477 37.8606 14.4595 37.4891 14.9839C37.1249 15.5011 36.6733 15.9054 36.1343 16.1967C35.5953 16.4808 34.958 16.6228 34.2223 16.6228C33.4867 16.6228 32.8311 16.4735 32.2557 16.1749C31.6875 15.8689 31.2032 15.4465 30.8026 14.9075C30.4092 14.3685 30.1106 13.7348 29.9066 13.0064C29.7027 12.2707 29.6007 11.4731 29.6007 10.6136ZM32.4961 10.3842V10.6136C32.4961 11.1308 32.5398 11.6152 32.6272 12.0668C32.7219 12.5111 32.8675 12.9044 33.0642 13.2467C33.2609 13.5891 33.5122 13.8586 33.8181 14.0553C34.1313 14.2519 34.51 14.3502 34.9544 14.3502C35.5516 14.3502 36.036 14.2191 36.4075 13.9569C36.7862 13.6947 37.0703 13.3414 37.2597 12.8971C37.4564 12.4455 37.5838 11.9429 37.6421 11.3894V9.68493C37.6057 9.24062 37.5292 8.83272 37.4127 8.46125C37.2961 8.08977 37.1322 7.76928 36.921 7.49978C36.7171 7.23027 36.4548 7.01904 36.1343 6.86608C35.8139 6.71312 35.4278 6.63664 34.9762 6.63664C34.5319 6.63664 34.1531 6.73497 33.8399 6.93163C33.5267 7.12101 33.2718 7.38688 33.0751 7.72922C32.8785 8.07156 32.7328 8.46853 32.6381 8.92013C32.5434 9.37173 32.4961 9.85975 32.4961 10.3842ZM52.0292 13.5964V4.58259H54.9354V16.4043H52.204L52.0292 13.5964ZM52.4007 11.149L53.2966 11.1271C53.2966 11.9211 53.2092 12.6531 53.0344 13.3232C52.8595 13.9933 52.5864 14.576 52.2149 15.0714C51.8507 15.5594 51.3882 15.9418 50.8273 16.2186C50.2665 16.4881 49.6037 16.6228 48.8389 16.6228C48.2561 16.6228 47.7244 16.5427 47.2437 16.3824C46.763 16.2149 46.3478 15.9563 45.9981 15.6067C45.6558 15.2498 45.3899 14.7946 45.2006 14.241C45.0112 13.6801 44.9165 13.0064 44.9165 12.2197V4.58259H47.8009V12.2416C47.8009 12.6349 47.8446 12.9627 47.932 13.2249C48.0267 13.4871 48.1542 13.702 48.3144 13.8695C48.4819 14.0298 48.675 14.1463 48.8935 14.2191C49.1193 14.2847 49.3597 14.3175 49.6146 14.3175C50.3138 14.3175 50.8638 14.1791 51.2644 13.9023C51.6723 13.6182 51.9636 13.2395 52.1384 12.766C52.3133 12.2853 52.4007 11.7463 52.4007 11.149ZM62.7889 4.58259V16.4043H59.8936V4.58259H62.7889ZM59.6969 1.49059C59.6969 1.06084 59.8426 0.703932 60.1339 0.419862C60.4326 0.135791 60.8332 -0.00624434 61.3358 -0.00624434C61.8384 -0.00624434 62.2353 0.135791 62.5267 0.419862C62.8253 0.703932 62.9746 1.06084 62.9746 1.49059C62.9746 1.91305 62.8253 2.26632 62.5267 2.55039C62.2353 2.83446 61.8384 2.9765 61.3358 2.9765C60.8332 2.9765 60.4326 2.83446 60.1339 2.55039C59.8426 2.26632 59.6969 1.91305 59.6969 1.49059ZM70.6642 6.99719V16.4043H67.7798V4.58259H70.5113L70.6642 6.99719ZM74.2588 4.50611L74.2151 7.19385C74.0549 7.16472 73.8728 7.14287 73.6688 7.1283C73.4722 7.11373 73.2864 7.10645 73.1116 7.10645C72.6673 7.10645 72.2776 7.16836 71.9425 7.29219C71.6075 7.40873 71.3271 7.5799 71.1013 7.8057C70.8827 8.0315 70.7152 8.30828 70.5987 8.63606C70.4821 8.95655 70.4166 9.32074 70.402 9.72864L69.7792 9.65216C69.7792 8.90192 69.8557 8.20631 70.0087 7.56533C70.1616 6.92435 70.3838 6.36349 70.6751 5.88276C70.9665 5.40202 71.3307 5.03055 71.7677 4.76833C72.212 4.49882 72.7219 4.36407 73.2973 4.36407C73.4576 4.36407 73.6288 4.37864 73.8109 4.40778C74.0002 4.42963 74.1496 4.46241 74.2588 4.50611ZM81.7408 15.0932L84.9093 4.58259H88.0013L83.2595 18.1961C83.1502 18.4875 83.0082 18.8043 82.8334 19.1467C82.6658 19.489 82.44 19.8131 82.156 20.1191C81.8719 20.4323 81.515 20.6872 81.0852 20.8839C80.6628 21.0805 80.1493 21.1789 79.5447 21.1789C79.2825 21.1789 79.0494 21.1607 78.8455 21.1242C78.6415 21.0878 78.4266 21.0405 78.2008 20.9822V18.8189C78.2737 18.8262 78.3574 18.8298 78.4521 18.8298C78.5541 18.8371 78.6415 18.8407 78.7143 18.8407C79.1368 18.8407 79.4864 18.7898 79.7632 18.6878C80.04 18.5931 80.2622 18.4365 80.4297 18.218C80.6045 18.0067 80.7502 17.73 80.8667 17.3876L81.7408 15.0932ZM80.1784 4.58259L82.8552 13.2904L83.325 16.3387L81.3365 16.6993L77.0645 4.58259H80.1784Z" fill="white"/>
<path d="M11.2607 14.0443H12.486V12.819H11.2607V14.0443ZM11.2607 16.4043V17.6297H12.486V16.4043H11.2607ZM2.80412 16.4043H1.57877V17.6297H2.80412V16.4043ZM2.80412 14.0443V12.819H1.57877V14.0443H2.80412ZM3.72189 0.496342H4.94724V-0.729012H3.72189V0.496342ZM3.72189 16.4043V17.6297H4.94724V16.4043H3.72189ZM0.717294 16.4043H-0.50806V17.6297H0.717294V16.4043ZM0.717294 0.496342V-0.729012H-0.50806V0.496342H0.717294ZM10.1572 7.06274H11.3825V5.83739H10.1572V7.06274ZM10.1572 9.36809V10.5934H11.3825V9.36809H10.1572ZM2.80412 9.36809H1.57877V10.5934H2.80412V9.36809ZM2.80412 7.06274V5.83739H1.57877V7.06274H2.80412ZM11.2279 0.496342H12.4533V-0.729012H11.2279V0.496342ZM11.2279 2.86724V4.09259H12.4533V2.86724H11.2279ZM2.80412 2.86724H1.57877V4.09259H2.80412V2.86724ZM2.80412 0.496342V-0.729012H1.57877V0.496342H2.80412ZM10.0353 14.0443V16.4043H12.486V14.0443H10.0353ZM11.2607 15.1789H2.80412V17.6297H11.2607V15.1789ZM4.02947 16.4043V14.0443H1.57877V16.4043H4.02947ZM2.80412 15.2697H11.2607V12.819H2.80412V15.2697ZM2.49653 0.496342V16.4043H4.94724V0.496342H2.49653ZM3.72189 15.1789H0.717294V17.6297H3.72189V15.1789ZM1.94265 16.4043V0.496342H-0.50806V16.4043H1.94265ZM0.717294 1.7217H3.72189V-0.729012H0.717294V1.7217ZM8.93182 7.06274V9.36809H11.3825V7.06274H8.93182ZM10.1572 8.14273H2.80412V10.5934H10.1572V8.14273ZM4.02947 9.36809V7.06274H1.57877V9.36809H4.02947ZM2.80412 8.2881H10.1572V5.83739H2.80412V8.2881ZM10.0026 0.496342V2.86724H12.4533V0.496342H10.0026ZM11.2279 1.64189H2.80412V4.09259H11.2279V1.64189ZM4.02947 2.86724V0.496342H1.57877V2.86724H4.02947ZM2.80412 1.7217H11.2279V-0.729012H2.80412V1.7217ZM18.1964 7.10645H19.4217V7.06406L19.4188 7.02178L18.1964 7.10645ZM18.1964 16.4043V17.6297H19.4217V16.4043H18.1964ZM15.312 16.4043H14.0866V17.6297H15.312V16.4043ZM15.312 4.58259V3.35723H14.0866V4.58259H15.312ZM18.0216 4.58259L19.244 4.49792L19.165 3.35723H18.0216V4.58259ZM17.7375 10.0673V11.2927H18.9628V10.0673H17.7375ZM16.8853 10.0673L15.66 10.057L15.6495 11.2927H16.8853V10.0673ZM18.1855 5.92646L17.2407 5.14603L17.234 5.15428L18.1855 5.92646ZM24.282 5.36925L23.388 6.20737L23.3974 6.21707L24.282 5.36925ZM25.0469 6.7459L23.8757 7.10625L23.8785 7.1153L23.8814 7.12429L25.0469 6.7459ZM25.32 16.4043V17.6297H26.5453V16.4043H25.32ZM22.4137 16.4043H21.1884V17.6297H22.4137V16.4043ZM22.1734 7.52163L21.0723 8.05936L21.0773 8.0696L21.0825 8.07975L22.1734 7.52163ZM21.496 6.85515L20.9931 7.97263L21.0034 7.97714L21.496 6.85515ZM19.2453 6.93163L19.8219 8.01286L19.8304 8.00826L19.2453 6.93163ZM18.4149 7.66366L17.4209 6.94707L17.4154 6.95476L17.4099 6.96254L18.4149 7.66366ZM16.971 7.10645V16.4043H19.4217V7.10645H16.971ZM18.1964 15.1789H15.312V17.6297H18.1964V15.1789ZM16.5373 16.4043V4.58259H14.0866V16.4043H16.5373ZM15.312 5.80794H18.0216V3.35723H15.312V5.80794ZM16.7991 4.66726L16.974 7.19112L19.4188 7.02178L19.244 4.49792L16.7991 4.66726ZM17.7375 8.84198H16.8853V11.2927H17.7375V8.84198ZM18.1106 10.0777C18.117 9.32201 18.2192 8.66857 18.401 8.10576L16.0688 7.35268C15.799 8.18837 15.6681 9.09368 15.66 10.057L18.1106 10.0777ZM18.401 8.10576C18.5865 7.5312 18.8363 7.06895 19.1369 6.69864L17.234 5.15428C16.7188 5.78915 16.3349 6.52873 16.0688 7.35268L18.401 8.10576ZM19.1302 6.70687C19.4354 6.33736 19.7855 6.06521 20.1856 5.87544L19.1353 3.66122C18.3991 4.01045 17.7659 4.51039 17.2407 5.14606L19.1302 6.70687ZM20.1856 5.87544C20.572 5.69213 21.0234 5.58943 21.5615 5.58943V3.13872C20.7011 3.13872 19.8851 3.30552 19.1353 3.66122L20.1856 5.87544ZM21.5615 5.58943C22.0148 5.58943 22.3889 5.65332 22.6981 5.76129L23.506 3.44759C22.8974 3.23507 22.2445 3.13872 21.5615 3.13872V5.58943ZM22.6981 5.76129C22.9731 5.85732 23.1975 6.00404 23.3881 6.20732L25.176 4.53118C24.711 4.0352 24.1488 3.67205 23.506 3.44759L22.6981 5.76129ZM23.3974 6.21707C23.5735 6.40091 23.7445 6.67988 23.8757 7.10625L26.218 6.38554C25.9996 5.67563 25.6607 5.03683 25.1667 4.52142L23.3974 6.21707ZM23.8814 7.12429C24.0116 7.52521 24.0946 8.0804 24.0946 8.8218H26.5453C26.5453 7.91704 26.4463 7.08829 26.2123 6.3675L23.8814 7.12429ZM24.0946 8.8218V16.4043H26.5453V8.8218H24.0946ZM25.32 15.1789H22.4137V17.6297H25.32V15.1789ZM23.6391 16.4043V8.79994H21.1884V16.4043H23.6391ZM23.6391 8.79994C23.6391 8.16078 23.5475 7.51719 23.2642 6.96351L21.0825 8.07975C21.1197 8.15247 21.1884 8.3611 21.1884 8.79994H23.6391ZM23.2744 6.9839C23.0036 6.42942 22.5718 5.98925 21.9885 5.73317L21.0034 7.97714C21.0205 7.98464 21.0263 7.99004 21.0299 7.99358C21.0344 7.99796 21.0507 8.01507 21.0723 8.05936L23.2744 6.9839ZM21.9988 5.73773C21.5048 5.51542 20.9608 5.43314 20.4143 5.43314V7.88384C20.7273 7.88384 20.9044 7.93267 20.9931 7.97258L21.9988 5.73773ZM20.4143 5.43314C19.7995 5.43314 19.2024 5.5603 18.6601 5.85501L19.8304 8.00826C19.9582 7.93877 20.1405 7.88384 20.4143 7.88384V5.43314ZM18.6686 5.85044C18.1691 6.11683 17.7517 6.48822 17.4209 6.94707L19.4089 8.38025C19.5297 8.2127 19.6658 8.09607 19.8219 8.01283L18.6686 5.85044ZM17.4099 6.96254C17.1058 7.39842 16.8838 7.88488 16.7341 8.40869L19.0905 9.08195C19.1739 8.78996 19.2869 8.55531 19.4198 8.36479L17.4099 6.96254ZM16.7341 8.40869C16.5829 8.93791 16.5121 9.49305 16.5121 10.0673H18.9628C18.9628 9.69472 19.0086 9.36852 19.0905 9.08195L16.7341 8.40869ZM37.1832 20.9494H35.9579V22.1748H37.1832V20.9494ZM37.1832 6.96441L35.9709 6.78645L35.9579 6.87496V6.96441H37.1832ZM37.5328 4.58259V3.35723H36.4742L36.3205 4.40463L37.5328 4.58259ZM40.0895 4.58259H41.3148V3.35723H40.0895V4.58259ZM40.0895 20.9494V22.1748H41.3148V20.9494H40.0895ZM29.9066 7.92588L31.0875 8.25324L31.0883 8.25025L29.9066 7.92588ZM30.8026 6.02479L29.8239 5.28744L29.8223 5.28958L30.8026 6.02479ZM32.2666 4.8011L32.8091 5.89992L32.8201 5.89431L32.2666 4.8011ZM37.4891 6.00294L36.4892 6.71123L36.4939 6.71781L37.4891 6.00294ZM38.3741 7.8494L37.2024 8.20809L37.2058 8.21896L38.3741 7.8494ZM38.8767 10.2203H40.1021V10.1434L40.0925 10.0671L38.8767 10.2203ZM38.8767 10.8431L40.0916 11.0029L40.1021 10.9233V10.8431H38.8767ZM38.3741 13.1484L37.2069 12.7754L37.2046 12.7829L38.3741 13.1484ZM37.4891 14.9839L36.4892 14.2757L36.4873 14.2784L37.4891 14.9839ZM36.1343 16.1967L36.7057 17.2808L36.717 17.2747L36.1343 16.1967ZM32.2557 16.1749L31.6747 17.2537L31.683 17.2582L31.6912 17.2625L32.2557 16.1749ZM30.8026 14.9075L29.8127 15.6298L29.8191 15.6384L30.8026 14.9075ZM29.9066 13.0064L28.7258 13.3337L28.7267 13.3368L29.9066 13.0064ZM32.6272 12.0668L31.4241 12.2996L31.4263 12.3109L31.4287 12.3222L32.6272 12.0668ZM33.8181 14.0553L33.1554 15.0861L33.1665 15.093L33.8181 14.0553ZM36.4075 13.9569L35.71 12.9494L35.7008 12.9558L36.4075 13.9569ZM37.2597 12.8971L36.1362 12.4079L36.1325 12.4167L37.2597 12.8971ZM37.6421 11.3894L38.8607 11.5176L38.8675 11.4537V11.3894H37.6421ZM37.6421 9.68493H38.8675V9.6348L38.8634 9.58483L37.6421 9.68493ZM36.921 7.49978L35.9439 8.23921L35.9502 8.24749L35.9566 8.25567L36.921 7.49978ZM33.8399 6.93163L34.4739 7.98021L34.4828 7.97487L34.4915 7.96937L33.8399 6.93163ZM38.4086 20.9494V6.96441H35.9579V20.9494H38.4086ZM38.3956 7.14237L38.7452 4.76055L36.3205 4.40463L35.9709 6.78645L38.3956 7.14237ZM37.5328 5.80794H40.0895V3.35723H37.5328V5.80794ZM38.8641 4.58259V20.9494H41.3148V4.58259H38.8641ZM40.0895 19.7241H37.1832V22.1748H40.0895V19.7241ZM30.8261 10.6136V10.3842H28.3754V10.6136H30.8261ZM30.8261 10.3842C30.8261 9.57201 30.9179 8.86493 31.0875 8.25324L28.7258 7.59853C28.4875 8.45817 28.3754 9.38996 28.3754 10.3842H30.8261ZM31.0883 8.25025C31.2585 7.63013 31.4965 7.14181 31.7828 6.76001L29.8223 5.28958C29.322 5.95666 28.9627 6.73572 28.725 7.60151L31.0883 8.25025ZM31.7812 6.76215C32.0711 6.37741 32.4118 6.09598 32.809 5.89986L31.7242 3.70235C30.9706 4.07437 30.3352 4.60874 29.8239 5.28744L31.7812 6.76215ZM32.8201 5.89431C33.1996 5.70217 33.6642 5.58943 34.2442 5.58943V3.13872C33.3382 3.13872 32.4845 3.31733 31.7131 3.7079L32.8201 5.89431ZM34.2442 5.58943C34.8128 5.58943 35.2363 5.69966 35.5569 5.87096L36.7118 3.70939C35.969 3.31256 35.1324 3.13872 34.2442 3.13872V5.58943ZM35.5569 5.87096C35.9098 6.05948 36.2203 6.33156 36.4892 6.71122L38.4891 5.29467C38.015 4.62544 37.4223 4.08902 36.7118 3.70939L35.5569 5.87096ZM36.4939 6.71781C36.7755 7.10979 37.0164 7.60034 37.2024 8.20808L39.5458 7.49072C39.2948 6.67083 38.9458 5.9304 38.4844 5.28807L36.4939 6.71781ZM37.2058 8.21896C37.406 8.85175 37.5595 9.56834 37.661 10.3735L40.0925 10.0671C39.9754 9.1387 39.7939 8.27469 39.5424 7.47984L37.2058 8.21896ZM37.6514 10.2203V10.8431H40.1021V10.2203H37.6514ZM37.6618 10.6832C37.5609 11.4503 37.4079 12.1466 37.2069 12.7754L39.5413 13.5214C39.792 12.7372 39.974 11.8965 40.0916 11.0029L37.6618 10.6832ZM37.2046 12.7829C37.019 13.3766 36.777 13.8694 36.4892 14.2757L38.4891 15.6922C38.9442 15.0496 39.2922 14.3187 39.5437 13.5139L37.2046 12.7829ZM36.4873 14.2784C36.2285 14.6459 35.9186 14.9204 35.5517 15.1188L36.717 17.2747C37.4281 16.8903 38.0214 16.3563 38.491 15.6895L36.4873 14.2784ZM35.563 15.1127C35.2331 15.2866 34.7999 15.3975 34.2223 15.3975V17.8482C35.1161 17.8482 35.9575 17.675 36.7057 17.2807L35.563 15.1127ZM34.2223 15.3975C33.6564 15.3975 33.1989 15.2838 32.8201 15.0872L31.6912 17.2625C32.4633 17.6632 33.3169 17.8482 34.2223 17.8482V15.3975ZM32.8366 15.096C32.433 14.8786 32.084 14.5775 31.786 14.1765L29.8191 15.6384C30.3223 16.3155 30.9421 16.8592 31.6747 17.2537L32.8366 15.096ZM31.7924 14.1852C31.4961 13.7791 31.2563 13.2821 31.0866 12.676L28.7267 13.3368C28.9649 14.1875 29.3224 14.9578 29.8127 15.6298L31.7924 14.1852ZM31.0875 12.679C30.9165 12.0624 30.8261 11.3762 30.8261 10.6136H28.3754C28.3754 11.5701 28.4889 12.479 28.7258 13.3337L31.0875 12.679ZM31.2707 10.3842V10.6136H33.7214V10.3842H31.2707ZM31.2707 10.6136C31.2707 11.1995 31.3202 11.7625 31.4241 12.2996L33.8302 11.8339C33.7593 11.4678 33.7214 11.0621 33.7214 10.6136H31.2707ZM31.4287 12.3222C31.5461 12.8727 31.7328 13.389 32.0017 13.8571L34.1267 12.6364C34.0023 12.4198 33.8976 12.1494 33.8256 11.8114L31.4287 12.3222ZM32.0017 13.8571C32.2875 14.3547 32.6707 14.7743 33.1555 15.086L34.4807 13.0245C34.3537 12.9428 34.2342 12.8235 34.1267 12.6364L32.0017 13.8571ZM33.1665 15.093C33.7111 15.435 34.3263 15.5756 34.9544 15.5756V13.1249C34.6937 13.1249 34.5515 13.0689 34.4697 13.0175L33.1665 15.093ZM34.9544 15.5756C35.726 15.5756 36.4798 15.4058 37.1141 14.958L35.7008 12.9558C35.5922 13.0325 35.3772 13.1249 34.9544 13.1249V15.5756ZM37.105 14.9644C37.6833 14.564 38.1115 14.0238 38.3869 13.3776L36.1325 12.4167C36.0291 12.6591 35.8892 12.8254 35.71 12.9494L37.105 14.9644ZM38.3831 13.3864C38.6358 12.8062 38.791 12.1797 38.8607 11.5176L36.4235 11.2611C36.3766 11.7061 36.2769 12.0849 36.1363 12.4079L38.3831 13.3864ZM38.8675 11.3894V9.68493H36.4167V11.3894H38.8675ZM38.8634 9.58483C38.8206 9.06274 38.7292 8.56405 38.5818 8.09445L36.2435 8.82804C36.3293 9.10139 36.3908 9.4185 36.4208 9.78504L38.8634 9.58483ZM38.5818 8.09445C38.4271 7.6011 38.1994 7.14447 37.8854 6.74388L35.9566 8.25567C36.0651 8.39409 36.1652 8.57843 36.2435 8.82804L38.5818 8.09445ZM37.8981 6.76034C37.5698 6.32654 37.1503 5.99321 36.6621 5.76022L35.6065 7.97194C35.7594 8.04487 35.8643 8.13401 35.9439 8.23921L37.8981 6.76034ZM36.6621 5.76022C36.1383 5.51023 35.5624 5.41128 34.9762 5.41128V7.86199C35.2932 7.86199 35.4894 7.91601 35.6065 7.97194L36.6621 5.76022ZM34.9762 5.41128C34.3482 5.41128 33.7329 5.55193 33.1883 5.89389L34.4915 7.96937C34.5733 7.91801 34.7156 7.86199 34.9762 7.86199V5.41128ZM33.2059 5.88306C32.7012 6.18823 32.3043 6.61107 32.0126 7.11884L34.1376 8.3396C34.2393 8.16268 34.3522 8.0538 34.4739 7.98021L33.2059 5.88306ZM32.0126 7.11884C31.742 7.5899 31.5556 8.11175 31.4388 8.66867L33.8374 9.17159C33.91 8.82531 34.0149 8.55321 34.1376 8.3396L32.0126 7.11884ZM31.4388 8.66867C31.3246 9.21328 31.2707 9.78649 31.2707 10.3842H33.7214C33.7214 9.93301 33.7622 9.53018 33.8374 9.17159L31.4388 8.66867ZM52.0292 13.5964H50.8038V13.6345L50.8062 13.6725L52.0292 13.5964ZM52.0292 4.58259V3.35723H50.8038V4.58259H52.0292ZM54.9354 4.58259H56.1608V3.35723H54.9354V4.58259ZM54.9354 16.4043V17.6297H56.1608V16.4043H54.9354ZM52.204 16.4043L50.981 16.4804L51.0526 17.6297H52.204V16.4043ZM52.4007 11.149L52.3708 9.924L51.1753 9.95316V11.149H52.4007ZM53.2966 11.1271H54.5219V9.87153L53.2667 9.90215L53.2966 11.1271ZM53.0344 13.3232L51.8487 13.0139L53.0344 13.3232ZM52.2149 15.0714L51.2346 14.3361L51.2329 14.3385L52.2149 15.0714ZM50.8274 16.2186L51.3581 17.3231L51.3696 17.3174L50.8274 16.2186ZM47.2437 16.3824L46.8405 17.5396L46.8483 17.5423L46.8562 17.5449L47.2437 16.3824ZM45.9981 15.6067L45.1138 16.4549L45.1227 16.4641L45.1317 16.4732L45.9981 15.6067ZM45.2006 14.241L44.0396 14.633L44.0412 14.6376L45.2006 14.241ZM44.9165 4.58259V3.35723H43.6911V4.58259H44.9165ZM47.8009 4.58259H49.0263V3.35723H47.8009V4.58259ZM47.932 13.2249L46.7695 13.6124L46.7743 13.6268L46.7795 13.6411L47.932 13.2249ZM48.3144 13.8695L47.4289 14.7165L47.4477 14.7362L47.4674 14.755L48.3144 13.8695ZM48.8935 14.2191L48.506 15.3816L48.5288 15.3892L48.5518 15.3959L48.8935 14.2191ZM51.2644 13.9023L51.9609 14.9104L51.9647 14.9078L51.2644 13.9023ZM52.1384 12.766L53.288 13.1904L53.29 13.1848L52.1384 12.766ZM53.2545 13.5964V4.58259H50.8038V13.5964H53.2545ZM52.0292 5.80794H54.9354V3.35723H52.0292V5.80794ZM53.7101 4.58259V16.4043H56.1608V4.58259H53.7101ZM54.9354 15.1789H52.204V17.6297H54.9354V15.1789ZM53.427 16.3282L53.2522 13.5202L50.8062 13.6725L50.981 16.4804L53.427 16.3282ZM52.4305 12.374L53.3265 12.3521L53.2667 9.90215L52.3708 9.924L52.4305 12.374ZM52.0712 11.1271C52.0712 11.8316 51.9936 12.4583 51.8487 13.0139L54.22 13.6325C54.4247 12.848 54.5219 12.0105 54.5219 11.1271H52.0712ZM51.8487 13.0139C51.7093 13.5483 51.5 13.9824 51.2346 14.3361L53.1952 15.8066C53.6728 15.1697 54.0098 14.4384 54.22 13.6325L51.8487 13.0139ZM51.2329 14.3385C50.9876 14.6672 50.6774 14.9261 50.2851 15.1197L51.3696 17.3174C52.099 16.9574 52.7139 16.4515 53.197 15.8042L51.2329 14.3385ZM50.2966 15.1141C49.9349 15.2879 49.4612 15.3975 48.8389 15.3975V17.8482C49.7462 17.8482 50.5981 17.6882 51.3581 17.323L50.2966 15.1141ZM48.8389 15.3975C48.3685 15.3975 47.9698 15.3329 47.6312 15.22L46.8562 17.5449C47.479 17.7525 48.1438 17.8482 48.8389 17.8482V15.3975ZM47.6469 15.2253C47.3352 15.1167 47.0798 14.9554 46.8646 14.7403L45.1317 16.4732C45.6158 16.9573 46.1907 17.3131 46.8405 17.5396L47.6469 15.2253ZM46.8825 14.7585C46.6841 14.5517 46.5021 14.2597 46.36 13.8444L44.0412 14.6376C44.2778 15.3294 44.6275 15.9479 45.1138 16.4549L46.8825 14.7585ZM46.3615 13.849C46.2262 13.4482 46.1418 12.9142 46.1418 12.2197H43.6911C43.6911 13.0986 43.7962 13.912 44.0396 14.633L46.3615 13.849ZM46.1418 12.2197V4.58259H43.6911V12.2197H46.1418ZM44.9165 5.80794H47.8009V3.35723H44.9165V5.80794ZM46.5756 4.58259V12.2416H49.0263V4.58259H46.5756ZM46.5756 12.2416C46.5756 12.7156 46.627 13.1846 46.7695 13.6124L49.0945 12.8374C49.0623 12.7407 49.0263 12.5542 49.0263 12.2416H46.5756ZM46.7795 13.6411C46.9207 14.032 47.1292 14.4032 47.4289 14.7165L49.1999 13.0225C49.1791 13.0008 49.1327 12.9422 49.0845 12.8087L46.7795 13.6411ZM47.4674 14.755C47.7649 15.0395 48.1146 15.2511 48.506 15.3816L49.281 13.0567C49.2354 13.0415 49.199 13.02 49.1614 12.984L47.4674 14.755ZM48.5518 15.3959C48.8976 15.4963 49.2537 15.5428 49.6146 15.5428V13.0921C49.4656 13.0921 49.341 13.0731 49.2351 13.0424L48.5518 15.3959ZM49.6146 15.5428C50.4588 15.5428 51.2841 15.378 51.9609 14.9104L50.5679 12.8942C50.4434 12.9801 50.1689 13.0921 49.6146 13.0921V15.5428ZM51.9647 14.9078C52.5815 14.4782 53.0278 13.8951 53.2879 13.1904L50.9889 12.3416C50.8995 12.5838 50.763 12.7582 50.5641 12.8968L51.9647 14.9078ZM53.29 13.1848C53.5211 12.5494 53.626 11.8656 53.626 11.149H51.1753C51.1753 11.6269 51.1054 12.0212 50.9869 12.3473L53.29 13.1848ZM62.7889 4.58259H64.0143V3.35723H62.7889V4.58259ZM62.7889 16.4043V17.6297H64.0143V16.4043H62.7889ZM59.8936 16.4043H58.6682V17.6297H59.8936V16.4043ZM59.8936 4.58259V3.35723H58.6682V4.58259H59.8936ZM60.1339 0.419862L59.2894 -0.467978L59.2839 -0.462769L59.2785 -0.457492L60.1339 0.419862ZM62.5267 0.419862L61.6713 1.29721L61.6767 1.30249L61.6822 1.3077L62.5267 0.419862ZM62.5267 2.55039L61.6822 1.66255L61.6767 1.66776L61.6713 1.67304L62.5267 2.55039ZM60.1339 2.55039L59.2785 3.42774L59.2839 3.43302L59.2894 3.43823L60.1339 2.55039ZM61.5636 4.58259V16.4043H64.0143V4.58259H61.5636ZM62.7889 15.1789H59.8936V17.6297H62.7889V15.1789ZM61.1189 16.4043V4.58259H58.6682V16.4043H61.1189ZM59.8936 5.80794H62.7889V3.35723H59.8936V5.80794ZM60.9223 1.49059C60.9223 1.37053 60.949 1.33661 60.9894 1.29721L59.2785 -0.457492C58.7362 0.0712495 58.4716 0.751155 58.4716 1.49059H60.9223ZM60.9785 1.3077C61.0015 1.28581 61.0747 1.21911 61.3358 1.21911V-1.2316C60.5917 -1.2316 59.8637 -1.01423 59.2894 -0.467978L60.9785 1.3077ZM61.3358 1.21911C61.5981 1.21911 61.6599 1.28614 61.6713 1.29721L63.3821 -0.457492C62.8108 -1.01456 62.0786 -1.2316 61.3358 -1.2316V1.21911ZM61.6822 1.3077C61.7262 1.3496 61.7493 1.38036 61.7493 1.49059H64.2C64.2 0.741321 63.9244 0.0582595 63.3712 -0.467978L61.6822 1.3077ZM61.7493 1.49059C61.7493 1.55465 61.7386 1.58431 61.734 1.59532C61.7296 1.60566 61.7188 1.62771 61.6822 1.66255L63.3712 3.43823C63.9198 2.91641 64.2 2.2392 64.2 1.49059H61.7493ZM61.6713 1.67304C61.6599 1.68411 61.5981 1.75114 61.3358 1.75114V4.20185C62.0786 4.20185 62.8108 3.98481 63.3821 3.42774L61.6713 1.67304ZM61.3358 1.75114C61.0747 1.75114 61.0015 1.68444 60.9785 1.66255L59.2894 3.43823C59.8637 3.98448 60.5917 4.20185 61.3358 4.20185V1.75114ZM60.9894 1.67304C60.9445 1.62928 60.9223 1.59683 60.9223 1.49059H58.4716C58.4716 2.22927 58.7407 2.90336 59.2785 3.42774L60.9894 1.67304ZM70.6642 6.99719H71.8896V6.95842L71.8871 6.91972L70.6642 6.99719ZM70.6642 16.4043V17.6297H71.8896V16.4043H70.6642ZM67.7798 16.4043H66.5545V17.6297H67.7798V16.4043ZM67.7798 4.58259V3.35723H66.5545V4.58259H67.7798ZM70.5113 4.58259L71.7342 4.50512L71.6614 3.35723H70.5113V4.58259ZM74.2588 4.50611L75.484 4.52603L75.4977 3.68193L74.7139 3.3684L74.2588 4.50611ZM74.2151 7.19385L73.9959 8.39944L75.4168 8.65779L75.4403 7.21377L74.2151 7.19385ZM73.6688 7.1283L73.5783 8.35031L73.5815 8.35054L73.6688 7.1283ZM71.9425 7.29219L72.3451 8.44953L72.3562 8.44565L72.3673 8.44156L71.9425 7.29219ZM71.1013 7.8057L70.2348 6.93924L70.2277 6.94634L70.2207 6.95356L71.1013 7.8057ZM70.5987 8.63606L71.7503 9.05482L71.7532 9.04656L70.5987 8.63606ZM70.402 9.72864L70.2526 10.9449L71.5789 11.1077L71.6266 9.77237L70.402 9.72864ZM69.7792 9.65216H68.5539V10.7362L69.6299 10.8684L69.7792 9.65216ZM70.6751 5.88276L69.6272 5.24765L70.6751 5.88276ZM71.7677 4.76833L72.3982 5.81907L72.4032 5.81602L71.7677 4.76833ZM73.8109 4.40778L73.6173 5.61774L73.6437 5.62198L73.6704 5.62505L73.8109 4.40778ZM69.4389 6.99719V16.4043H71.8896V6.99719H69.4389ZM70.6642 15.1789H67.7798V17.6297H70.6642V15.1789ZM69.0052 16.4043V4.58259H66.5545V16.4043H69.0052ZM67.7798 5.80794H70.5113V3.35723H67.7798V5.80794ZM69.2884 4.66006L69.4413 7.07466L71.8871 6.91972L71.7342 4.50512L69.2884 4.66006ZM73.0336 4.48619L72.9899 7.17393L75.4403 7.21377L75.484 4.52603L73.0336 4.48619ZM74.4343 5.98826C74.2211 5.9495 73.9937 5.92303 73.7561 5.90606L73.5815 8.35054C73.7518 8.3627 73.8886 8.37994 73.9959 8.39944L74.4343 5.98826ZM73.7593 5.90629C73.5363 5.88977 73.3201 5.88109 73.1116 5.88109V8.3318C73.2527 8.3318 73.408 8.33769 73.5783 8.3503L73.7593 5.90629ZM73.1116 5.88109C72.5563 5.88109 72.0174 5.95816 71.5178 6.14281L72.3673 8.44156C72.5378 8.37856 72.7782 8.3318 73.1116 8.3318V5.88109ZM71.54 6.13484C71.0499 6.30531 70.6052 6.56883 70.2348 6.93924L71.9677 8.67215C72.0489 8.59097 72.1651 8.51215 72.3451 8.44953L71.54 6.13484ZM70.2207 6.95356C69.8678 7.3182 69.613 7.75049 69.4441 8.22555L71.7532 9.04656C71.8174 8.86608 71.8976 8.7448 71.9818 8.65784L70.2207 6.95356ZM69.4471 8.2173C69.2791 8.67921 69.1957 9.17337 69.1774 9.6849L71.6266 9.77237C71.6374 9.46811 71.6851 9.23388 71.7503 9.05481L69.4471 8.2173ZM70.5514 8.51242L69.9286 8.43594L69.6299 10.8684L70.2526 10.9449L70.5514 8.51242ZM71.0046 9.65216C71.0046 8.98477 71.0727 8.38576 71.2006 7.84976L68.8168 7.2809C68.6388 8.02686 68.5539 8.81907 68.5539 9.65216H71.0046ZM71.2006 7.84976C71.329 7.31167 71.5078 6.87302 71.7231 6.51786L69.6272 5.24765C69.2598 5.85397 68.9943 6.53703 68.8168 7.2809L71.2006 7.84976ZM71.7231 6.51786C71.922 6.18968 72.1491 5.9685 72.3982 5.81906L71.1373 3.7176C70.5123 4.09259 70.011 4.61437 69.6272 5.24765L71.7231 6.51786ZM72.4032 5.81602C72.6358 5.67493 72.9212 5.58943 73.2973 5.58943V3.13872C72.5226 3.13872 71.7883 3.32272 71.1322 3.72064L72.4032 5.81602ZM73.2973 5.58943C73.3839 5.58943 73.4898 5.59735 73.6173 5.61774L74.0044 3.19781C73.7677 3.15993 73.5312 3.13872 73.2973 3.13872V5.58943ZM73.6704 5.62505C73.7336 5.63234 73.7763 5.63993 73.8022 5.64561C73.8295 5.6516 73.8267 5.65303 73.8037 5.64382L74.7139 3.3684C74.4611 3.26728 74.1908 3.21813 73.9513 3.1905L73.6704 5.62505ZM81.7408 15.0932L82.8859 15.5294L82.9014 15.4886L82.914 15.4469L81.7408 15.0932ZM84.9093 4.58259V3.35723H83.9988L83.7361 4.22892L84.9093 4.58259ZM88.0013 4.58259L89.1584 4.98565L89.7256 3.35723H88.0013V4.58259ZM83.2595 18.1961L84.4068 18.6264L84.4119 18.6128L84.4166 18.5992L83.2595 18.1961ZM82.8334 19.1467L81.7421 18.5894L81.7373 18.5987L81.7327 18.6081L82.8334 19.1467ZM82.156 20.1191L81.258 19.2853L81.2532 19.2905L81.2483 19.2959L82.156 20.1191ZM81.0852 20.8839L80.5753 19.7696L80.5681 19.773L81.0852 20.8839ZM78.2008 20.9822H76.9755V21.9315L77.8946 22.1687L78.2008 20.9822ZM78.2008 18.8189L78.3228 17.5996L76.9755 17.4649V18.8189H78.2008ZM78.4521 18.8298L78.5394 17.6076L78.4958 17.6045H78.4521V18.8298ZM79.7632 18.6878L79.3666 17.5284L79.353 17.533L79.3396 17.538L79.7632 18.6878ZM80.4297 18.218L79.4857 17.4367L79.4711 17.4543L79.4572 17.4724L80.4297 18.218ZM80.8667 17.3876L79.7216 16.9514L79.7138 16.9719L79.7067 16.9927L80.8667 17.3876ZM80.1784 4.58259L81.3497 4.22254L81.0837 3.35723H80.1784V4.58259ZM82.8552 13.2904L84.0663 13.1038L84.0527 13.0156L84.0265 12.9304L82.8552 13.2904ZM83.325 16.3387L83.5436 17.5444L84.7179 17.3315L84.5361 16.1521L83.325 16.3387ZM81.3365 16.6993L80.1809 17.1067L80.528 18.0912L81.5551 17.905L81.3365 16.6993ZM77.0646 4.58259V3.35723H75.3332L75.9089 4.99003L77.0646 4.58259ZM82.914 15.4469L86.0825 4.93626L83.7361 4.22892L80.5676 14.7395L82.914 15.4469ZM84.9093 5.80794H88.0013V3.35723H84.9093V5.80794ZM86.8441 4.17953L82.1023 17.7931L84.4166 18.5992L89.1584 4.98565L86.8441 4.17953ZM82.1121 17.7659C82.0224 18.0052 81.9005 18.2791 81.7421 18.5894L83.9247 19.7039C84.1159 19.3295 84.278 18.9698 84.4068 18.6264L82.1121 17.7659ZM81.7327 18.6081C81.6227 18.8329 81.4682 19.059 81.258 19.2853L83.0539 20.9529C83.4119 20.5673 83.709 20.1452 83.934 19.6853L81.7327 18.6081ZM81.2483 19.2959C81.0882 19.4724 80.872 19.6339 80.5753 19.7696L81.5951 21.9981C82.158 21.7405 82.6556 21.3921 83.0636 20.9423L81.2483 19.2959ZM80.5681 19.773C80.3482 19.8753 80.0216 19.9535 79.5447 19.9535V22.4042C80.2769 22.4042 80.9773 22.2857 81.6024 21.9948L80.5681 19.773ZM79.5447 19.9535C79.3367 19.9535 79.1779 19.9389 79.0609 19.918L78.6301 22.3305C78.9209 22.3824 79.2283 22.4042 79.5447 22.4042V19.9535ZM79.0609 19.918C78.8909 19.8876 78.7065 19.8472 78.507 19.7957L77.8946 22.1687C78.1468 22.2338 78.3921 22.288 78.6301 22.3305L79.0609 19.918ZM79.4262 20.9822V18.8189H76.9755V20.9822H79.4262ZM78.0789 20.0382C78.202 20.0505 78.3278 20.0552 78.4521 20.0552V17.6045C78.387 17.6045 78.3454 17.6019 78.3228 17.5996L78.0789 20.0382ZM78.3648 20.0521C78.4853 20.0607 78.6034 20.0661 78.7143 20.0661V17.6154C78.6796 17.6154 78.6229 17.6135 78.5394 17.6076L78.3648 20.0521ZM78.7143 20.0661C79.2241 20.0661 79.7295 20.0061 80.1868 19.8376L79.3396 17.538C79.2434 17.5734 79.0495 17.6154 78.7143 17.6154V20.0661ZM80.1599 19.8472C80.6502 19.6794 81.0783 19.3859 81.4021 18.9635L79.4572 17.4724C79.446 17.4871 79.4298 17.5068 79.3666 17.5284L80.1599 19.8472ZM81.3737 18.9992C81.6683 18.6433 81.8767 18.2232 82.0267 17.7825L79.7067 16.9927C79.6237 17.2367 79.5407 17.3702 79.4857 17.4367L81.3737 18.9992ZM82.0118 17.8238L82.8859 15.5294L80.5957 14.657L79.7216 16.9514L82.0118 17.8238ZM79.0071 4.94264L81.684 13.6505L84.0265 12.9304L81.3497 4.22254L79.0071 4.94264ZM81.6442 13.4771L82.114 16.5254L84.5361 16.1521L84.0663 13.1038L81.6442 13.4771ZM83.1064 15.133L81.1179 15.4936L81.5551 17.905L83.5436 17.5444L83.1064 15.133ZM82.4922 16.2919L78.2202 4.17515L75.9089 4.99003L80.1809 17.1067L82.4922 16.2919ZM77.0646 5.80794H80.1784V3.35723H77.0646V5.80794ZM112.449 0.496342H113.674V-0.729012H112.449V0.496342ZM112.449 16.4043V17.6297H113.674V16.4043H112.449ZM109.433 16.4043L108.389 17.0446L108.747 17.6297H109.433V16.4043ZM102.67 5.36925L103.715 4.72895L101.445 1.0249V5.36925H102.67ZM102.67 16.4043V17.6297H103.896V16.4043H102.67ZM99.6656 16.4043H98.4403V17.6297H99.6656V16.4043ZM99.6656 0.496342V-0.729012H98.4403V0.496342H99.6656ZM102.67 0.496342L103.714 -0.144998L103.356 -0.729012H102.67V0.496342ZM109.455 11.5423L108.411 12.1837L110.681 15.8784V11.5423H109.455ZM109.455 0.496342V-0.729012H108.23V0.496342H109.455ZM111.223 0.496342V16.4043H113.674V0.496342H111.223ZM112.449 15.1789H109.433V17.6297H112.449V15.1789ZM110.478 15.764L103.715 4.72895L101.625 6.00955L108.389 17.0446L110.478 15.764ZM101.445 5.36925V16.4043H103.896V5.36925H101.445ZM102.67 15.1789H99.6656V17.6297H102.67V15.1789ZM100.891 16.4043V0.496342H98.4403V16.4043H100.891ZM99.6656 1.7217H102.67V-0.729012H99.6656V1.7217ZM101.626 1.13768L108.411 12.1837L110.499 10.901L103.714 -0.144998L101.626 1.13768ZM110.681 11.5423V0.496342H108.23V11.5423H110.681ZM109.455 1.7217H112.449V-0.729012H109.455V1.7217ZM117.385 7.99144L118.545 8.38588L118.546 8.38237L117.385 7.99144ZM118.467 6.07942L117.546 5.27076L118.467 6.07942ZM120.204 4.82296L120.694 5.94617L120.704 5.94172L120.204 4.82296ZM124.902 4.82296L124.402 5.94172L124.409 5.94491L124.416 5.94801L124.902 4.82296ZM127.732 7.99144L126.57 8.38238L126.572 8.38588L127.732 7.99144ZM127.732 13.0064L128.892 13.4008L128.893 13.3973L127.732 13.0064ZM126.65 14.9184L127.571 15.7271L127.576 15.7209L126.65 14.9184ZM118.467 14.9184L117.541 15.7209L117.546 15.7271L118.467 14.9184ZM117.385 13.0064L116.224 13.3973L116.225 13.4008L117.385 13.0064ZM121.34 14.0662L120.72 15.1229L120.733 15.1308L120.747 15.1384L121.34 14.0662ZM123.766 14.0662L124.369 15.1329L124.377 15.128L124.386 15.1229L123.766 14.0662ZM124.585 13.2577L123.552 12.5984L123.547 12.6063L123.542 12.6142L124.585 13.2577ZM125.066 12.0668L123.871 11.7969L125.066 12.0668ZM125.066 8.95291L123.871 9.22281L123.872 9.22701L125.066 8.95291ZM124.585 7.76199L123.536 8.39564L123.544 8.40856L123.552 8.42128L124.585 7.76199ZM123.755 6.94256L123.118 7.98926L123.131 7.99733L123.144 8.00507L123.755 6.94256ZM121.34 6.94256L121.961 7.99932L121.969 7.99436L121.977 7.98926L121.34 6.94256ZM120.521 7.76199L121.564 8.40547L121.57 8.39564L120.521 7.76199ZM120.051 8.95291L121.245 9.22701L121.246 9.2228L120.051 8.95291ZM118.239 10.6136V10.3842H115.788V10.6136H118.239ZM118.239 10.3842C118.239 9.63478 118.346 8.97226 118.545 8.38588L116.225 7.59699C115.929 8.46738 115.788 9.40003 115.788 10.3842H118.239ZM118.546 8.38237C118.747 7.78779 119.03 7.29546 119.387 6.88808L117.546 5.27076C116.957 5.94139 116.519 6.72375 116.224 7.6005L118.546 8.38237ZM119.387 6.88808C119.737 6.48987 120.167 6.17587 120.694 5.94612L119.714 3.69979C118.871 4.06732 118.143 4.59096 117.546 5.27076L119.387 6.88808ZM120.704 5.94172C121.207 5.71675 121.812 5.58943 122.542 5.58943V3.13872C121.524 3.13872 120.57 3.31732 119.704 3.7042L120.704 5.94172ZM122.542 5.58943C123.29 5.58943 123.901 5.71785 124.402 5.94172L125.402 3.7042C124.534 3.31622 123.572 3.13872 122.542 3.13872V5.58943ZM124.416 5.94801C124.95 6.17844 125.382 6.49236 125.73 6.88808L127.571 5.27076C126.971 4.58848 126.238 4.06475 125.388 3.69791L124.416 5.94801ZM125.73 6.88808C126.087 7.29546 126.37 7.78779 126.571 8.38237L128.893 7.6005C128.598 6.72375 128.16 5.94139 127.571 5.27076L125.73 6.88808ZM126.572 8.38588C126.771 8.97226 126.878 9.63478 126.878 10.3842H129.329C129.329 9.40003 129.188 8.46738 128.892 7.59699L126.572 8.38588ZM126.878 10.3842V10.6136H129.329V10.3842H126.878ZM126.878 10.6136C126.878 11.3544 126.771 12.0185 126.571 12.6154L128.893 13.3973C129.187 12.5229 129.329 11.5919 129.329 10.6136H126.878ZM126.572 12.6119C126.372 13.2002 126.087 13.6967 125.724 14.1159L127.576 15.7209C128.16 15.0475 128.597 14.2693 128.892 13.4008L126.572 12.6119ZM125.73 14.1097C125.38 14.5079 124.95 14.8219 124.423 15.0517L125.403 17.298C126.245 16.9305 126.974 16.4068 127.571 15.7271L125.73 14.1097ZM124.423 15.0517C123.918 15.2719 123.307 15.3975 122.564 15.3975V17.8482C123.584 17.8482 124.538 17.6751 125.403 17.298L124.423 15.0517ZM122.564 15.3975C121.83 15.3975 121.217 15.2725 120.7 15.0498L119.729 17.2999C120.597 17.6744 121.549 17.8482 122.564 17.8482V15.3975ZM120.7 15.0498C120.166 14.8194 119.735 14.5055 119.387 14.1097L117.546 15.7271C118.145 16.4093 118.879 16.9331 119.729 17.2999L120.7 15.0498ZM119.393 14.1159C119.029 13.6967 118.745 13.2002 118.545 12.6119L116.225 13.4008C116.52 14.2693 116.957 15.0475 117.541 15.7209L119.393 14.1159ZM118.546 12.6154C118.345 12.0185 118.239 11.3544 118.239 10.6136H115.788C115.788 11.5919 115.929 12.5229 116.224 13.3973L118.546 12.6154ZM118.673 10.3842V10.6136H121.123V10.3842H118.673ZM118.673 10.6136C118.673 11.2112 118.732 11.7869 118.856 12.3367L121.246 11.7969C121.166 11.4434 121.123 11.0504 121.123 10.6136H118.673ZM118.856 12.3367C118.983 12.9008 119.186 13.4276 119.478 13.9011L121.564 12.6142C121.433 12.403 121.323 12.136 121.246 11.7969L118.856 12.3367ZM119.478 13.9011C119.79 14.4074 120.206 14.8214 120.72 15.1229L121.961 13.0094C121.804 12.9176 121.674 12.7926 121.564 12.6142L119.478 13.9011ZM120.747 15.1384C121.305 15.4473 121.926 15.5756 122.564 15.5756V13.1249C122.255 13.1249 122.06 13.0638 121.933 12.9939L120.747 15.1384ZM122.564 15.5756C123.197 15.5756 123.815 15.4462 124.369 15.1329L123.163 12.9994C123.047 13.065 122.863 13.1249 122.564 13.1249V15.5756ZM124.386 15.1229C124.9 14.8214 125.316 14.4074 125.628 13.9011L123.542 12.6142C123.432 12.7926 123.302 12.9176 123.145 13.0094L124.386 15.1229ZM125.618 13.917C125.923 13.4397 126.132 12.9074 126.261 12.3367L123.871 11.7969C123.796 12.1293 123.685 12.3909 123.552 12.5984L125.618 13.917ZM126.261 12.3367C126.385 11.7869 126.444 11.2112 126.444 10.6136H123.994C123.994 11.0504 123.95 11.4434 123.871 11.7969L126.261 12.3367ZM126.444 10.6136V10.3842H123.994V10.6136H126.444ZM126.444 10.3842C126.444 9.79278 126.385 9.22289 126.26 8.6788L123.872 9.22701C123.951 9.57155 123.994 9.95585 123.994 10.3842H126.444ZM126.261 8.68301C126.132 8.11229 125.923 7.57994 125.618 7.10271L123.552 8.42128C123.685 8.62874 123.796 8.89032 123.871 9.2228L126.261 8.68301ZM125.634 7.12834C125.319 6.60732 124.894 6.18386 124.365 5.88005L123.144 8.00507C123.3 8.09459 123.429 8.21742 123.536 8.39564L125.634 7.12834ZM124.392 5.89586C123.829 5.55295 123.194 5.41128 122.542 5.41128V7.86199C122.837 7.86199 123.011 7.92427 123.118 7.98926L124.392 5.89586ZM122.542 5.41128C121.894 5.41128 121.264 5.55468 120.703 5.89586L121.977 7.98926C122.087 7.92254 122.258 7.86199 122.542 7.86199V5.41128ZM120.72 5.8858C120.2 6.19101 119.783 6.61351 119.472 7.12834L121.57 8.39564C121.681 8.21123 121.81 8.08744 121.961 7.99932L120.72 5.8858ZM119.478 7.11855C119.186 7.59206 118.983 8.11891 118.856 8.68301L121.246 9.2228C121.323 8.8837 121.433 8.61661 121.564 8.40544L119.478 7.11855ZM118.857 8.6788C118.732 9.22289 118.673 9.79278 118.673 10.3842H121.123C121.123 9.95585 121.166 9.57155 121.245 9.22701L118.857 8.6788ZM135.727 13.5636L134.55 13.2241L134.521 13.3242L134.51 13.4278L135.727 13.5636ZM138.317 4.58259V3.35723H137.395L137.139 4.24312L138.317 4.58259ZM140.152 4.58259L141.359 4.79505L141.612 3.35723H140.152V4.58259ZM139.606 7.68551L140.78 8.03708L140.8 7.96849L140.813 7.89798L139.606 7.68551ZM136.995 16.4043V17.6297H137.907L138.169 16.7559L136.995 16.4043ZM135.41 16.4043L134.193 16.2685L134.041 17.6297H135.41V16.4043ZM134.296 4.58259L135.494 4.32386L135.285 3.35723H134.296V4.58259ZM136.241 13.5854L137.464 13.5096L137.458 13.4172L137.439 13.3267L136.241 13.5854ZM136.416 16.4043V17.6297H137.719L137.639 16.3285L136.416 16.4043ZM134.591 16.4043L133.406 16.7154L133.646 17.6297H134.591V16.4043ZM131.488 4.58259V3.35723H129.9L130.303 4.89368L131.488 4.58259ZM142.556 13.4543L141.358 13.1976L141.34 13.2821L141.334 13.3683L142.556 13.4543ZM144.457 4.58259V3.35723H143.466L143.259 4.32584L144.457 4.58259ZM147.254 4.58259L148.44 4.89163L148.84 3.35723H147.254V4.58259ZM144.173 16.4043V17.6297H145.12L145.359 16.7133L144.173 16.4043ZM142.348 16.4043L141.126 16.3183L141.034 17.6297H142.348V16.4043ZM140.436 4.58259L141.614 4.24271L141.358 3.35723H140.436V4.58259ZM143.004 13.4762L144.221 13.3354L144.209 13.2342L144.181 13.1363L143.004 13.4762ZM143.343 16.4043V17.6297H144.718L144.56 16.2635L143.343 16.4043ZM141.758 16.4043L140.585 16.7586L140.848 17.6297H141.758V16.4043ZM139.125 7.68551L137.918 7.89385L137.93 7.96787L137.952 8.03977L139.125 7.68551ZM138.59 4.58259V3.35723H137.135L137.382 4.79093L138.59 4.58259ZM136.905 13.9031L139.494 4.92206L137.139 4.24312L134.55 13.2241L136.905 13.9031ZM138.317 5.80794H140.152V3.35723H138.317V5.80794ZM138.945 4.37012L138.399 7.47305L140.813 7.89798L141.359 4.79505L138.945 4.37012ZM138.432 7.33395L135.821 16.0527L138.169 16.7559L140.78 8.03708L138.432 7.33395ZM136.995 15.1789H135.41V17.6297H136.995V15.1789ZM136.628 16.5401L136.945 13.6994L134.51 13.4278L134.193 16.2685L136.628 16.5401ZM133.098 4.84132L135.043 13.8442L137.439 13.3267L135.494 4.32386L133.098 4.84132ZM135.018 13.6613L135.193 16.4801L137.639 16.3285L137.464 13.5096L135.018 13.6613ZM136.416 15.1789H134.591V17.6297H136.416V15.1789ZM135.776 16.0932L132.673 4.2715L130.303 4.89368L133.406 16.7154L135.776 16.0932ZM131.488 5.80794H134.296V3.35723H131.488V5.80794ZM143.754 13.7111L145.655 4.83934L143.259 4.32584L141.358 13.1976L143.754 13.7111ZM144.457 5.80794H147.254V3.35723H144.457V5.80794ZM146.068 4.27355L142.987 16.0953L145.359 16.7133L148.44 4.89163L146.068 4.27355ZM144.173 15.1789H142.348V17.6297H144.173V15.1789ZM143.571 16.4903L143.778 13.5403L141.334 13.3683L141.126 16.3183L143.571 16.4903ZM139.259 4.92247L141.827 13.8161L144.181 13.1363L141.614 4.24271L139.259 4.92247ZM141.787 13.617L142.125 16.5451L144.56 16.2635L144.221 13.3354L141.787 13.617ZM143.343 15.1789H141.758V17.6297H143.343V15.1789ZM142.931 16.05L140.298 7.33125L137.952 8.03977L140.585 16.7586L142.931 16.05ZM140.333 7.47718L139.797 4.37425L137.382 4.79093L137.918 7.89385L140.333 7.47718ZM138.59 5.80794H140.436V3.35723H138.59V5.80794Z" fill="white" mask="url(#path-1-outside-1_632_4931)"/>
</svg>
