<svg width="129" height="169" viewBox="0 0 129 169" fill="none" xmlns="http://www.w3.org/2000/svg">
<path d="M32.3632 76.0892H0.23616V16.145C0.23616 11.8828 1.92856 7.79512 4.94105 4.78125C7.95354 1.76739 12.0394 0.0742188 16.2997 0.0742188C20.56 0.0742188 24.6458 1.76739 27.6583 4.78125C30.6707 7.79512 32.3632 11.8828 32.3632 16.145V76.0892Z" fill="#32AC6B"/>
<g opacity="0.7">
<path d="M128.26 40.1441H96.1327V16.145C96.1327 11.8828 97.8251 7.79512 100.838 4.78125C103.85 1.76739 107.936 0.0742188 112.196 0.0742188C116.457 0.0742188 120.542 1.76739 123.555 4.78125C126.567 7.79512 128.26 11.8828 128.26 16.145V40.1441Z" fill="#32AC6B"/>
</g>
<path d="M96.2952 168.069V44.1094H128.422V136.088C128.38 144.585 124.976 152.719 118.956 158.712C112.935 164.705 104.788 168.069 96.2952 168.069Z" fill="#32AC6B"/>
<g opacity="0.7">
<path d="M16.403 142.087C12.1427 142.087 8.05692 140.394 5.04443 137.38C2.03194 134.366 0.339539 130.279 0.339539 126.017V76.0898H32.4665V126.07C32.4524 130.323 30.7537 134.397 27.7428 137.399C24.7318 140.402 20.6541 142.087 16.403 142.087Z" fill="#32AC6B"/>
</g>
<g opacity="0.7">
<path d="M92.2858 76.0898H32.369V107.107H92.2858V76.0898Z" fill="#32AC6B"/>
</g>
</svg>
