<svg width="560" height="174" viewBox="0 0 560 174" fill="none" xmlns="http://www.w3.org/2000/svg">
<mask id="path-1-outside-1_743_12948" maskUnits="userSpaceOnUse" x="10.8394" y="37" width="545" height="94" fill="black">
<rect fill="white" x="10.8394" y="37" width="545" height="94"/>
<path d="M77.0191 47.2699V128H63.7771V92.6879H25.7933V128H12.5512V47.2699H25.7933V81.8851H63.7771V47.2699H77.0191ZM122.214 129.045C116.174 129.045 110.714 127.69 105.835 124.98C100.957 122.192 97.1236 118.32 94.3358 113.364C91.548 108.331 90.1541 102.523 90.1541 95.9403C90.1541 89.4354 91.5867 83.6662 94.452 78.6327C97.3172 73.5992 101.228 69.7272 106.184 67.0169C111.14 64.3065 116.677 62.9513 122.795 62.9513C128.912 62.9513 134.449 64.3065 139.405 67.0169C144.361 69.7272 148.272 73.5992 151.137 78.6327C154.002 83.6662 155.435 89.4354 155.435 95.9403C155.435 102.445 153.964 108.214 151.021 113.248C148.078 118.281 144.052 122.192 138.941 124.98C133.907 127.69 128.331 129.045 122.214 129.045ZM122.214 117.546C125.621 117.546 128.796 116.733 131.739 115.106C134.759 113.48 137.198 111.041 139.057 107.788C140.915 104.536 141.845 100.587 141.845 95.9403C141.845 91.294 140.954 87.3833 139.173 84.2083C137.392 80.9559 135.03 78.5165 132.087 76.8903C129.145 75.2641 125.97 74.451 122.562 74.451C119.155 74.451 115.98 75.2641 113.037 76.8903C110.172 78.5165 107.888 80.9559 106.184 84.2083C104.48 87.3833 103.628 91.294 103.628 95.9403C103.628 102.832 105.371 108.176 108.856 111.97C112.418 115.687 116.871 117.546 122.214 117.546ZM196.287 129.045C190.247 129.045 184.788 127.69 179.909 124.98C175.03 122.192 171.197 118.32 168.409 113.364C165.622 108.331 164.228 102.523 164.228 95.9403C164.228 89.4354 165.66 83.6662 168.526 78.6327C171.391 73.5992 175.302 69.7272 180.258 67.0169C185.214 64.3065 190.751 62.9513 196.868 62.9513C202.986 62.9513 208.523 64.3065 213.479 67.0169C218.435 69.7272 222.346 73.5992 225.211 78.6327C228.076 83.6662 229.509 89.4354 229.509 95.9403C229.509 102.445 228.037 108.214 225.095 113.248C222.152 118.281 218.125 122.192 213.014 124.98C207.981 127.69 202.405 129.045 196.287 129.045ZM196.287 117.546C199.695 117.546 202.87 116.733 205.812 115.106C208.833 113.48 211.272 111.041 213.13 107.788C214.989 104.536 215.918 100.587 215.918 95.9403C215.918 91.294 215.028 87.3833 213.247 84.2083C211.465 80.9559 209.104 78.5165 206.161 76.8903C203.218 75.2641 200.043 74.451 196.636 74.451C193.229 74.451 190.054 75.2641 187.111 76.8903C184.246 78.5165 181.961 80.9559 180.258 84.2083C178.554 87.3833 177.702 91.294 177.702 95.9403C177.702 102.832 179.444 108.176 182.929 111.97C186.491 115.687 190.944 117.546 196.287 117.546ZM238.185 95.708C238.185 89.2805 239.502 83.5888 242.135 78.6327C244.845 73.6766 248.485 69.8434 253.053 67.133C257.7 64.3452 262.85 62.9513 268.503 62.9513C272.684 62.9513 276.789 63.8806 280.815 65.7391C284.92 67.5202 288.172 69.9208 290.573 72.9409V42.0428H303.931V128H290.573V118.359C288.404 121.456 285.384 124.012 281.512 126.025C277.718 128.039 273.342 129.045 268.386 129.045C262.811 129.045 257.7 127.652 253.053 124.864C248.485 121.998 244.845 118.049 242.135 113.016C239.502 107.905 238.185 102.135 238.185 95.708ZM290.573 95.9403C290.573 91.5263 289.643 87.693 287.785 84.4406C286.004 81.1882 283.642 78.7101 280.699 77.0065C277.757 75.3028 274.582 74.451 271.174 74.451C267.767 74.451 264.592 75.3028 261.649 77.0065C258.707 78.6327 256.306 81.072 254.447 84.3245C252.666 87.4994 251.776 91.294 251.776 95.708C251.776 100.122 252.666 103.994 254.447 107.324C256.306 110.654 258.707 113.209 261.649 114.99C264.669 116.694 267.844 117.546 271.174 117.546C274.582 117.546 277.757 116.694 280.699 114.99C283.642 113.287 286.004 110.809 287.785 107.556C289.643 104.226 290.573 100.354 290.573 95.9403ZM328.061 55.5172C325.66 55.5172 323.647 54.7041 322.021 53.0779C320.394 51.4516 319.581 49.4382 319.581 47.0376C319.581 44.637 320.394 42.6236 322.021 40.9974C323.647 39.3712 325.66 38.5581 328.061 38.5581C330.384 38.5581 332.359 39.3712 333.985 40.9974C335.611 42.6236 336.424 44.637 336.424 47.0376C336.424 49.4382 335.611 51.4516 333.985 53.0779C332.359 54.7041 330.384 55.5172 328.061 55.5172ZM334.566 63.9967V128H321.324V63.9967H334.566ZM347.537 95.708C347.537 89.2805 348.854 83.5888 351.487 78.6327C354.197 73.6766 357.837 69.8434 362.406 67.133C367.052 64.3452 372.163 62.9513 377.739 62.9513C382.772 62.9513 387.147 63.958 390.864 65.9714C394.659 67.9074 397.679 70.3467 399.925 73.2894V63.9967H413.283V128H399.925V118.475C397.679 121.495 394.62 124.012 390.748 126.025C386.876 128.039 382.462 129.045 377.506 129.045C372.008 129.045 366.975 127.652 362.406 124.864C357.837 121.998 354.197 118.049 351.487 113.016C348.854 107.905 347.537 102.135 347.537 95.708ZM399.925 95.9403C399.925 91.5263 398.996 87.693 397.137 84.4406C395.356 81.1882 392.994 78.7101 390.051 77.0065C387.109 75.3028 383.934 74.451 380.526 74.451C377.119 74.451 373.944 75.3028 371.001 77.0065C368.059 78.6327 365.658 81.072 363.8 84.3245C362.018 87.4994 361.128 91.294 361.128 95.708C361.128 100.122 362.018 103.994 363.8 107.324C365.658 110.654 368.059 113.209 371.001 114.99C374.022 116.694 377.197 117.546 380.526 117.546C383.934 117.546 387.109 116.694 390.051 114.99C392.994 113.287 395.356 110.809 397.137 107.556C398.996 104.226 399.925 100.354 399.925 95.9403ZM462.968 62.9513C468.002 62.9513 472.493 63.9967 476.442 66.0876C480.469 68.1784 483.605 71.276 485.851 75.3803C488.097 79.4845 489.22 84.4406 489.22 90.2485V128H476.094V92.2232C476.094 86.4927 474.661 82.1174 471.796 79.0973C468.931 75.9998 465.02 74.451 460.064 74.451C455.108 74.451 451.159 75.9998 448.216 79.0973C445.351 82.1174 443.918 86.4927 443.918 92.2232V128H430.676V63.9967H443.918V71.3147C446.086 68.6818 448.835 66.6297 452.165 65.1583C455.573 63.687 459.174 62.9513 462.968 62.9513ZM529.343 129.045C524.309 129.045 519.779 128.155 515.752 126.374C511.803 124.515 508.666 122.037 506.343 118.94C504.02 115.765 502.781 112.241 502.626 108.369H516.333C516.565 111.08 517.843 113.364 520.166 115.223C522.567 117.004 525.548 117.894 529.11 117.894C532.827 117.894 535.693 117.197 537.706 115.803C539.797 114.332 540.842 112.473 540.842 110.228C540.842 107.827 539.681 106.046 537.357 104.884C535.112 103.723 531.511 102.445 526.555 101.051C521.754 99.7348 517.843 98.4571 514.823 97.218C511.803 95.979 509.17 94.0818 506.924 91.5263C504.756 88.9708 503.672 85.6022 503.672 81.4205C503.672 78.0132 504.678 74.9156 506.692 72.1278C508.705 69.2626 511.57 67.0169 515.287 65.3906C519.082 63.7644 523.418 62.9513 528.297 62.9513C535.576 62.9513 541.423 64.8098 545.837 68.5269C550.328 72.1665 552.729 77.1614 553.039 83.5113H539.797C539.564 80.6461 538.403 78.3617 536.312 76.658C534.221 74.9543 531.395 74.1025 527.832 74.1025C524.348 74.1025 521.676 74.7607 519.818 76.0772C517.959 77.3937 517.03 79.136 517.03 81.3043C517.03 83.008 517.649 84.4406 518.888 85.6022C520.127 86.7638 521.637 87.693 523.418 88.39C525.2 89.0095 527.832 89.8226 531.317 90.8293C535.964 92.0683 539.758 93.3461 542.701 94.6625C545.721 95.9016 548.315 97.7601 550.483 100.238C552.652 102.716 553.775 106.007 553.852 110.112C553.852 113.751 552.845 117.004 550.832 119.869C548.818 122.734 545.953 124.98 542.236 126.606C538.596 128.232 534.299 129.045 529.343 129.045Z"/>
</mask>
<path d="M77.0191 47.2699H78.4454V45.8437H77.0191V47.2699ZM77.0191 128V129.426H78.4454V128H77.0191ZM63.7771 128H62.3508V129.426H63.7771V128ZM63.7771 92.6879H65.2033V91.2616H63.7771V92.6879ZM25.7933 92.6879V91.2616H24.3671V92.6879H25.7933ZM25.7933 128V129.426H27.2195V128H25.7933ZM12.5512 128H11.125V129.426H12.5512V128ZM12.5512 47.2699V45.8437H11.125V47.2699H12.5512ZM25.7933 47.2699H27.2195V45.8437H25.7933V47.2699ZM25.7933 81.8851H24.3671V83.3114H25.7933V81.8851ZM63.7771 81.8851V83.3114H65.2033V81.8851H63.7771ZM63.7771 47.2699V45.8437H62.3508V47.2699H63.7771ZM75.5929 47.2699V128H78.4454V47.2699H75.5929ZM77.0191 126.574H63.7771V129.426H77.0191V126.574ZM65.2033 128V92.6879H62.3508V128H65.2033ZM63.7771 91.2616H25.7933V94.1141H63.7771V91.2616ZM24.3671 92.6879V128H27.2195V92.6879H24.3671ZM25.7933 126.574H12.5512V129.426H25.7933V126.574ZM13.9775 128V47.2699H11.125V128H13.9775ZM12.5512 48.6962H25.7933V45.8437H12.5512V48.6962ZM24.3671 47.2699V81.8851H27.2195V47.2699H24.3671ZM25.7933 83.3114H63.7771V80.4589H25.7933V83.3114ZM65.2033 81.8851V47.2699H62.3508V81.8851H65.2033ZM63.7771 48.6962H77.0191V45.8437H63.7771V48.6962ZM105.835 124.98L105.128 126.218L105.135 126.222L105.143 126.227L105.835 124.98ZM94.3358 113.364L93.0881 114.055L93.0927 114.063L94.3358 113.364ZM106.184 67.0169L105.5 65.7655L106.184 67.0169ZM139.405 67.0169L140.09 65.7655L139.405 67.0169ZM151.021 113.248L149.79 112.528L151.021 113.248ZM138.941 124.98L139.617 126.236L139.624 126.232L138.941 124.98ZM131.739 115.106L131.063 113.851L131.056 113.854L131.049 113.858L131.739 115.106ZM139.057 107.788L137.818 107.081L139.057 107.788ZM139.173 84.2083L137.922 84.8933L137.925 84.8997L137.929 84.9061L139.173 84.2083ZM113.037 76.8903L112.347 75.642L112.34 75.6459L112.333 75.6499L113.037 76.8903ZM106.184 84.2083L107.441 84.8826L107.444 84.8764L107.447 84.8701L106.184 84.2083ZM108.856 111.97L107.805 112.935L107.815 112.946L107.826 112.957L108.856 111.97ZM122.214 127.619C116.395 127.619 111.178 126.316 106.528 123.733L105.143 126.227C110.251 129.064 115.952 130.472 122.214 130.472V127.619ZM106.543 123.742C101.891 121.083 98.2418 117.399 95.5789 112.665L93.0927 114.063C96.0054 119.241 100.022 123.301 105.128 126.218L106.543 123.742ZM95.5834 112.673C92.9287 107.88 91.5803 102.316 91.5803 95.9403H88.7279C88.7279 102.729 90.1673 108.781 93.0881 114.055L95.5834 112.673ZM91.5803 95.9403C91.5803 89.6518 92.9631 84.1313 95.6914 79.3382L93.2125 77.9271C90.2103 83.2011 88.7279 89.2191 88.7279 95.9403H91.5803ZM95.6914 79.3382C98.4293 74.5285 102.15 70.8483 106.868 68.2682L105.5 65.7655C100.305 68.6062 96.2051 72.6699 93.2125 77.9271L95.6914 79.3382ZM106.868 68.2682C111.597 65.682 116.896 64.3775 122.795 64.3775V61.5251C116.458 61.5251 110.683 62.931 105.5 65.7655L106.868 68.2682ZM122.795 64.3775C128.693 64.3775 133.992 65.682 138.721 68.2682L140.09 65.7655C134.906 62.931 129.131 61.5251 122.795 61.5251V64.3775ZM138.721 68.2682C143.439 70.8483 147.16 74.5285 149.898 79.3382L152.377 77.9271C149.384 72.6699 145.284 68.6062 140.09 65.7655L138.721 68.2682ZM149.898 79.3382C152.626 84.1313 154.009 89.6518 154.009 95.9403H156.861C156.861 89.2191 155.379 83.2011 152.377 77.9271L149.898 79.3382ZM154.009 95.9403C154.009 102.222 152.59 107.737 149.79 112.528L152.252 113.968C155.337 108.691 156.861 102.668 156.861 95.9403H154.009ZM149.79 112.528C146.978 117.338 143.14 121.064 138.258 123.728L139.624 126.232C144.963 123.32 149.179 119.225 152.252 113.968L149.79 112.528ZM138.264 123.724C133.453 126.315 128.112 127.619 122.214 127.619V130.472C128.55 130.472 134.361 129.066 139.617 126.236L138.264 123.724ZM122.214 118.972C125.859 118.972 129.272 118.099 132.429 116.355L131.049 113.858C128.32 115.366 125.383 116.12 122.214 116.12V118.972ZM132.415 116.362C135.692 114.598 138.317 111.958 140.295 108.496L137.818 107.081C136.08 110.124 133.826 112.363 131.063 113.851L132.415 116.362ZM140.295 108.496C142.303 104.982 143.271 100.776 143.271 95.9403H140.418C140.418 100.397 139.528 104.09 137.818 107.081L140.295 108.496ZM143.271 95.9403C143.271 91.1157 142.346 86.9497 140.417 83.5105L137.929 84.9061C139.562 87.8169 140.418 91.4722 140.418 95.9403H143.271ZM140.424 83.5233C138.527 80.059 135.98 77.4123 132.777 75.642L131.397 78.1386C134.079 79.6208 136.257 81.8528 137.922 84.8933L140.424 83.5233ZM132.777 75.642C129.62 73.8975 126.207 73.0248 122.562 73.0248V75.8772C125.732 75.8772 128.669 76.6307 131.397 78.1386L132.777 75.642ZM122.562 73.0248C118.917 73.0248 115.504 73.8975 112.347 75.642L113.727 78.1386C116.456 76.6307 119.393 75.8772 122.562 75.8772V73.0248ZM112.333 75.6499C109.203 77.4265 106.736 80.0802 104.921 83.5465L107.447 84.8701C109.039 81.8315 111.141 79.6066 113.741 78.1307L112.333 75.6499ZM104.927 83.534C103.085 86.9677 102.202 91.1249 102.202 95.9403H105.055C105.055 91.4631 105.876 87.7989 107.441 84.8826L104.927 83.534ZM102.202 95.9403C102.202 103.067 104.007 108.799 107.805 112.935L109.906 111.005C106.735 107.552 105.055 102.598 105.055 95.9403H102.202ZM107.826 112.957C111.668 116.966 116.498 118.972 122.214 118.972V116.12C117.243 116.12 113.167 114.408 109.885 110.983L107.826 112.957ZM179.909 124.98L179.202 126.218L179.209 126.222L179.216 126.227L179.909 124.98ZM168.409 113.364L167.162 114.055L167.166 114.063L168.409 113.364ZM180.258 67.0169L179.573 65.7655L180.258 67.0169ZM213.479 67.0169L214.163 65.7655L213.479 67.0169ZM225.095 113.248L223.863 112.528L225.095 113.248ZM213.014 124.98L213.69 126.236L213.697 126.232L213.014 124.98ZM205.812 115.106L205.136 113.851L205.129 113.854L205.123 113.858L205.812 115.106ZM213.13 107.788L211.892 107.081L213.13 107.788ZM213.247 84.2083L211.996 84.8933L211.999 84.8997L212.003 84.9061L213.247 84.2083ZM187.111 76.8903L186.421 75.642L186.414 75.6459L186.407 75.6499L187.111 76.8903ZM180.258 84.2083L181.514 84.8826L181.518 84.8764L181.521 84.8701L180.258 84.2083ZM182.929 111.97L181.879 112.935L181.889 112.946L181.9 112.957L182.929 111.97ZM196.287 127.619C190.469 127.619 185.251 126.316 180.602 123.733L179.216 126.227C184.324 129.064 190.025 130.472 196.287 130.472V127.619ZM180.617 123.742C175.965 121.083 172.315 117.399 169.653 112.665L167.166 114.063C170.079 119.241 174.096 123.301 179.202 126.218L180.617 123.742ZM169.657 112.673C167.002 107.88 165.654 102.316 165.654 95.9403H162.802C162.802 102.729 164.241 108.781 167.162 114.055L169.657 112.673ZM165.654 95.9403C165.654 89.6518 167.037 84.1313 169.765 79.3382L167.286 77.9271C164.284 83.2011 162.802 89.2191 162.802 95.9403H165.654ZM169.765 79.3382C172.503 74.5285 176.224 70.8483 180.942 68.2682L179.573 65.7655C174.379 68.6062 170.279 72.6699 167.286 77.9271L169.765 79.3382ZM180.942 68.2682C185.671 65.682 190.969 64.3775 196.868 64.3775V61.5251C190.532 61.5251 184.756 62.931 179.573 65.7655L180.942 68.2682ZM196.868 64.3775C202.767 64.3775 208.066 65.682 212.795 68.2682L214.163 65.7655C208.98 62.931 203.205 61.5251 196.868 61.5251V64.3775ZM212.795 68.2682C217.512 70.8483 221.234 74.5285 223.971 79.3382L226.45 77.9271C223.458 72.6699 219.357 68.6062 214.163 65.7655L212.795 68.2682ZM223.971 79.3382C226.7 84.1313 228.083 89.6518 228.083 95.9403H230.935C230.935 89.2191 229.452 83.2011 226.45 77.9271L223.971 79.3382ZM228.083 95.9403C228.083 102.222 226.664 107.737 223.863 112.528L226.326 113.968C229.411 108.691 230.935 102.668 230.935 95.9403H228.083ZM223.863 112.528C221.052 117.338 217.214 121.064 212.331 123.728L213.697 126.232C219.036 123.32 223.253 119.225 226.326 113.968L223.863 112.528ZM212.338 123.724C207.527 126.315 202.186 127.619 196.287 127.619V130.472C202.624 130.472 208.435 129.066 213.69 126.236L212.338 123.724ZM196.287 118.972C199.933 118.972 203.345 118.099 206.502 116.355L205.123 113.858C202.394 115.366 199.457 116.12 196.287 116.12V118.972ZM206.489 116.362C209.765 114.598 212.39 111.958 214.369 108.496L211.892 107.081C210.153 110.124 207.9 112.363 205.136 113.851L206.489 116.362ZM214.369 108.496C216.377 104.982 217.344 100.776 217.344 95.9403H214.492C214.492 100.397 213.601 104.09 211.892 107.081L214.369 108.496ZM217.344 95.9403C217.344 91.1157 216.42 86.9497 214.49 83.5105L212.003 84.9061C213.636 87.8169 214.492 91.4722 214.492 95.9403H217.344ZM214.498 83.5233C212.6 80.059 210.054 77.4123 206.851 75.642L205.471 78.1386C208.153 79.6208 210.331 81.8528 211.996 84.8933L214.498 83.5233ZM206.851 75.642C203.694 73.8975 200.281 73.0248 196.636 73.0248V75.8772C199.805 75.8772 202.743 76.6307 205.471 78.1386L206.851 75.642ZM196.636 73.0248C192.991 73.0248 189.578 73.8975 186.421 75.642L187.801 78.1386C190.529 76.6307 193.467 75.8772 196.636 75.8772V73.0248ZM186.407 75.6499C183.277 77.4265 180.81 80.0802 178.994 83.5465L181.521 84.8701C183.113 81.8315 185.215 79.6066 187.815 78.1307L186.407 75.6499ZM179.001 83.534C177.158 86.9677 176.276 91.1249 176.276 95.9403H179.128C179.128 91.4631 179.95 87.7989 181.514 84.8826L179.001 83.534ZM176.276 95.9403C176.276 103.067 178.08 108.799 181.879 112.935L183.98 111.005C180.809 107.552 179.128 102.598 179.128 95.9403H176.276ZM181.9 112.957C185.742 116.966 190.572 118.972 196.287 118.972V116.12C191.316 116.12 187.241 114.408 183.959 110.983L181.9 112.957ZM242.135 78.6327L240.883 77.9484L240.879 77.9559L240.875 77.9636L242.135 78.6327ZM253.053 67.133L253.781 68.3597L253.787 68.356L253.053 67.133ZM280.815 65.7391L280.218 67.0341L280.233 67.0409L280.248 67.0475L280.815 65.7391ZM290.573 72.9409L289.456 73.8284L291.999 77.0273V72.9409H290.573ZM290.573 42.0428V40.6166H289.146V42.0428H290.573ZM303.931 42.0428H305.357V40.6166H303.931V42.0428ZM303.931 128V129.426H305.357V128H303.931ZM290.573 128H289.146V129.426H290.573V128ZM290.573 118.359H291.999V113.834L289.404 117.541L290.573 118.359ZM281.512 126.025L280.854 124.76L280.844 124.765L281.512 126.025ZM253.053 124.864L252.296 126.072L252.308 126.079L252.32 126.087L253.053 124.864ZM242.135 113.016L240.867 113.669L240.873 113.68L240.879 113.692L242.135 113.016ZM287.785 84.4406L286.534 85.1256L286.54 85.137L286.547 85.1482L287.785 84.4406ZM280.699 77.0065L279.985 78.2408L280.699 77.0065ZM261.649 77.0065L262.339 78.2548L262.352 78.2479L262.364 78.2408L261.649 77.0065ZM254.447 84.3245L253.209 83.6168L253.204 83.6267L254.447 84.3245ZM254.447 107.324L253.19 107.996L253.196 108.008L253.202 108.019L254.447 107.324ZM261.649 114.99L260.911 116.21L260.929 116.222L260.948 116.232L261.649 114.99ZM280.699 114.99L281.414 116.225L280.699 114.99ZM287.785 107.556L286.539 106.861L286.534 106.871L287.785 107.556ZM239.611 95.708C239.611 89.4797 240.886 84.0237 243.394 79.3018L240.875 77.9636C238.118 83.1539 236.759 89.0814 236.759 95.708H239.611ZM243.386 79.317C245.982 74.5706 249.446 70.9311 253.781 68.3596L252.326 65.9064C247.523 68.7556 243.708 72.7826 240.883 77.9484L243.386 79.317ZM253.787 68.356C258.202 65.7071 263.096 64.3775 268.503 64.3775V61.5251C262.603 61.5251 257.198 62.9833 252.32 65.91L253.787 68.356ZM268.503 64.3775C272.465 64.3775 276.367 65.2567 280.218 67.0341L281.413 64.4442C277.21 62.5045 272.903 61.5251 268.503 61.5251V64.3775ZM280.248 67.0475C284.172 68.7504 287.223 71.0188 289.456 73.8284L291.689 72.0535C289.121 68.8229 285.668 66.2901 281.383 64.4308L280.248 67.0475ZM291.999 72.9409V42.0428H289.146V72.9409H291.999ZM290.573 43.469H303.931V40.6166H290.573V43.469ZM302.505 42.0428V128H305.357V42.0428H302.505ZM303.931 126.574H290.573V129.426H303.931V126.574ZM291.999 128V118.359H289.146V128H291.999ZM289.404 117.541C287.387 120.423 284.554 122.836 280.854 124.76L282.17 127.291C286.214 125.188 289.422 122.489 291.741 119.177L289.404 117.541ZM280.844 124.765C277.285 126.654 273.145 127.619 268.386 127.619V130.472C273.54 130.472 278.151 129.424 282.181 127.285L280.844 124.765ZM268.386 127.619C263.061 127.619 258.205 126.292 253.787 123.641L252.32 126.087C257.194 129.011 262.56 130.472 268.386 130.472V127.619ZM253.811 123.655C249.464 120.929 245.991 117.169 243.39 112.339L240.879 113.692C243.699 118.929 247.505 123.068 252.296 126.072L253.811 123.655ZM243.402 112.362C240.885 107.476 239.611 101.935 239.611 95.708H236.759C236.759 102.335 238.118 108.333 240.867 113.669L243.402 112.362ZM291.999 95.9403C291.999 91.3226 291.025 87.2365 289.023 83.733L286.547 85.1482C288.262 88.1495 289.146 91.73 289.146 95.9403H291.999ZM289.036 83.7556C287.141 80.2959 284.602 77.6182 281.414 75.7722L279.985 78.2408C282.681 79.8021 284.866 82.0805 286.534 85.1256L289.036 83.7556ZM281.414 75.7722C278.253 73.9425 274.832 73.0248 271.174 73.0248V75.8772C274.331 75.8772 277.26 76.6631 279.985 78.2408L281.414 75.7722ZM271.174 73.0248C267.517 73.0248 264.095 73.9425 260.935 75.7722L262.364 78.2408C265.089 76.6631 268.017 75.8772 271.174 75.8772V73.0248ZM260.959 75.7582C257.762 77.525 255.182 80.164 253.209 83.6168L255.686 85.0321C257.43 81.9801 259.651 79.7404 262.339 78.2548L260.959 75.7582ZM253.204 83.6267C251.28 87.0557 250.35 91.1013 250.35 95.708H253.202C253.202 91.4866 254.053 87.9432 255.691 85.0222L253.204 83.6267ZM250.35 95.708C250.35 100.317 251.281 104.427 253.19 107.996L255.705 106.651C254.052 103.561 253.202 99.927 253.202 95.708H250.35ZM253.202 108.019C255.168 111.541 257.734 114.288 260.911 116.21L262.388 113.77C259.679 112.131 257.444 109.767 255.693 106.629L253.202 108.019ZM260.948 116.232C264.173 118.052 267.588 118.972 271.174 118.972V116.12C268.1 116.12 265.165 115.336 262.35 113.748L260.948 116.232ZM271.174 118.972C274.832 118.972 278.253 118.054 281.414 116.225L279.985 113.756C277.26 115.334 274.331 116.12 271.174 116.12V118.972ZM281.414 116.225C284.602 114.379 287.141 111.701 289.036 108.241L286.534 106.871C284.866 109.916 282.681 112.195 279.985 113.756L281.414 116.225ZM289.03 108.251C291.025 104.677 291.999 100.559 291.999 95.9403H289.146C289.146 100.15 288.262 103.775 286.539 106.861L289.03 108.251ZM322.021 53.0779L323.029 52.0694L322.021 53.0779ZM322.021 40.9974L323.029 42.0059L322.021 40.9974ZM333.985 40.9974L332.977 42.0059L333.985 40.9974ZM333.985 53.0779L332.977 52.0694L333.985 53.0779ZM334.566 63.9967H335.992V62.5705H334.566V63.9967ZM334.566 128V129.426H335.992V128H334.566ZM321.324 128H319.898V129.426H321.324V128ZM321.324 63.9967V62.5705H319.898V63.9967H321.324ZM328.061 54.091C326.02 54.091 324.375 53.4153 323.029 52.0694L321.012 54.0863C322.919 55.9928 325.301 56.9434 328.061 56.9434V54.091ZM323.029 52.0694C321.683 50.7234 321.008 49.0784 321.008 47.0376H318.155C318.155 49.798 319.106 52.1799 321.012 54.0863L323.029 52.0694ZM321.008 47.0376C321.008 44.9968 321.683 43.3518 323.029 42.0059L321.012 39.9889C319.106 41.8954 318.155 44.2772 318.155 47.0376H321.008ZM323.029 42.0059C324.375 40.6599 326.02 39.9843 328.061 39.9843V37.1318C325.301 37.1318 322.919 38.0824 321.012 39.9889L323.029 42.0059ZM328.061 39.9843C330.01 39.9843 331.621 40.6502 332.977 42.0059L334.993 39.9889C333.097 38.0922 330.758 37.1318 328.061 37.1318V39.9843ZM332.977 42.0059C334.322 43.3518 334.998 44.9968 334.998 47.0376H337.851C337.851 44.2772 336.9 41.8954 334.993 39.9889L332.977 42.0059ZM334.998 47.0376C334.998 49.0784 334.322 50.7234 332.977 52.0694L334.993 54.0863C336.9 52.1799 337.851 49.798 337.851 47.0376H334.998ZM332.977 52.0694C331.621 53.4251 330.01 54.091 328.061 54.091V56.9434C330.758 56.9434 333.097 55.9831 334.993 54.0863L332.977 52.0694ZM333.14 63.9967V128H335.992V63.9967H333.14ZM334.566 126.574H321.324V129.426H334.566V126.574ZM322.75 128V63.9967H319.898V128H322.75ZM321.324 65.423H334.566V62.5705H321.324V65.423ZM351.487 78.6327L350.235 77.9484L350.231 77.9559L350.227 77.9636L351.487 78.6327ZM362.406 67.133L363.133 68.3597L363.139 68.356L362.406 67.133ZM390.865 65.9714L390.185 67.2255L390.201 67.2339L390.216 67.2419L390.865 65.9714ZM399.925 73.2894L398.791 74.1547L401.351 77.5092V73.2894H399.925ZM399.925 63.9967V62.5705H398.499V63.9967H399.925ZM413.283 63.9967H414.709V62.5705H413.283V63.9967ZM413.283 128V129.426H414.709V128H413.283ZM399.925 128H398.499V129.426H399.925V128ZM399.925 118.475H401.351V114.167L398.78 117.624L399.925 118.475ZM390.748 126.025L390.09 124.76L390.748 126.025ZM362.406 124.864L361.648 126.072L361.655 126.077L361.663 126.081L362.406 124.864ZM351.487 113.016L350.219 113.669L350.225 113.68L350.231 113.692L351.487 113.016ZM397.137 84.4406L395.886 85.1256L395.892 85.137L395.899 85.1482L397.137 84.4406ZM390.051 77.0065L389.337 78.2408L390.051 77.0065ZM371.001 77.0065L371.691 78.2548L371.704 78.2479L371.716 78.2408L371.001 77.0065ZM363.8 84.3245L362.561 83.6168L362.556 83.6267L363.8 84.3245ZM363.8 107.324L362.542 107.996L362.548 108.008L362.554 108.019L363.8 107.324ZM371.001 114.99L370.263 116.21L370.282 116.222L370.301 116.232L371.001 114.99ZM390.051 114.99L390.766 116.225L390.051 114.99ZM397.137 107.556L395.892 106.861L395.886 106.871L397.137 107.556ZM348.964 95.708C348.964 89.4797 350.238 84.0237 352.746 79.3018L350.227 77.9636C347.47 83.1539 346.111 89.0814 346.111 95.708H348.964ZM352.738 79.317C355.334 74.5706 358.799 70.9311 363.133 68.3596L361.678 65.9064C356.875 68.7556 353.061 72.7826 350.235 77.9484L352.738 79.317ZM363.139 68.356C367.557 65.7052 372.414 64.3775 377.739 64.3775V61.5251C371.912 61.5251 366.547 62.9852 361.672 65.91L363.139 68.356ZM377.739 64.3775C382.58 64.3775 386.713 65.3448 390.185 67.2255L391.544 64.7174C387.582 62.5713 382.964 61.5251 377.739 61.5251V64.3775ZM390.216 67.2419C393.849 69.0954 396.693 71.4055 398.791 74.1547L401.059 72.4242C398.665 69.2879 395.469 66.7194 391.513 64.701L390.216 67.2419ZM401.351 73.2894V63.9967H398.499V73.2894H401.351ZM399.925 65.423H413.283V62.5705H399.925V65.423ZM411.857 63.9967V128H414.709V63.9967H411.857ZM413.283 126.574H399.925V129.426H413.283V126.574ZM401.351 128V118.475H398.499V128H401.351ZM398.78 117.624C396.682 120.445 393.801 122.83 390.09 124.76L391.406 127.291C395.439 125.194 398.676 122.545 401.069 119.326L398.78 117.624ZM390.09 124.76C386.448 126.654 382.265 127.619 377.506 127.619V130.472C382.66 130.472 387.305 129.423 391.406 127.291L390.09 124.76ZM377.506 127.619C372.263 127.619 367.487 126.294 363.149 123.646L361.663 126.081C366.462 129.009 371.754 130.472 377.506 130.472V127.619ZM363.163 123.655C358.816 120.929 355.343 117.169 352.743 112.339L350.231 113.692C353.051 118.929 356.857 123.068 361.648 126.072L363.163 123.655ZM352.755 112.362C350.238 107.476 348.964 101.935 348.964 95.708H346.111C346.111 102.335 347.47 108.333 350.219 113.669L352.755 112.362ZM401.351 95.9403C401.351 91.3226 400.377 87.2365 398.375 83.733L395.899 85.1482C397.614 88.1495 398.499 91.73 398.499 95.9403H401.351ZM398.388 83.7556C396.493 80.2959 393.955 77.6182 390.766 75.7722L389.337 78.2408C392.034 79.8021 394.219 82.0805 395.886 85.1256L398.388 83.7556ZM390.766 75.7722C387.606 73.9425 384.184 73.0248 380.526 73.0248V75.8772C383.683 75.8772 386.612 76.6631 389.337 78.2408L390.766 75.7722ZM380.526 73.0248C376.869 73.0248 373.447 73.9425 370.287 75.7722L371.716 78.2408C374.441 76.6631 377.369 75.8772 380.526 75.8772V73.0248ZM370.312 75.7582C367.114 77.525 364.534 80.164 362.561 83.6168L365.038 85.0321C366.782 81.9801 369.003 79.7404 371.691 78.2548L370.312 75.7582ZM362.556 83.6267C360.632 87.0557 359.702 91.1013 359.702 95.708H362.554C362.554 91.4866 363.405 87.9432 365.043 85.0222L362.556 83.6267ZM359.702 95.708C359.702 100.317 360.633 104.427 362.542 107.996L365.057 106.651C363.404 103.561 362.554 99.927 362.554 95.708H359.702ZM362.554 108.019C364.52 111.541 367.086 114.288 370.263 116.21L371.74 113.77C369.031 112.131 366.796 109.767 365.045 106.629L362.554 108.019ZM370.301 116.232C373.525 118.052 376.941 118.972 380.526 118.972V116.12C377.452 116.12 374.518 115.336 371.702 113.748L370.301 116.232ZM380.526 118.972C384.184 118.972 387.606 118.054 390.766 116.225L389.337 113.756C386.612 115.334 383.683 116.12 380.526 116.12V118.972ZM390.766 116.225C393.955 114.379 396.493 111.701 398.388 108.241L395.886 106.871C394.219 109.916 392.034 112.195 389.337 113.756L390.766 116.225ZM398.382 108.251C400.377 104.677 401.351 100.559 401.351 95.9403H398.499C398.499 100.15 397.614 103.775 395.892 106.861L398.382 108.251ZM476.442 66.0876L475.775 67.3481L475.785 67.3534L476.442 66.0876ZM485.851 75.3803L484.6 76.0649L485.851 75.3803ZM489.22 128V129.426H490.646V128H489.22ZM476.094 128H474.668V129.426H476.094V128ZM471.796 79.0973L470.749 80.0658L470.755 80.0724L470.761 80.0789L471.796 79.0973ZM448.216 79.0973L447.182 78.115L447.181 78.1157L448.216 79.0973ZM443.918 128V129.426H445.344V128H443.918ZM430.676 128H429.25V129.426H430.676V128ZM430.676 63.9967V62.5705H429.25V63.9967H430.676ZM443.918 63.9967H445.344V62.5705H443.918V63.9967ZM443.918 71.3147H442.492V75.2901L445.019 72.2214L443.918 71.3147ZM452.165 65.1583L451.6 63.8489L451.589 63.8538L452.165 65.1583ZM462.968 64.3775C467.799 64.3775 472.056 65.3792 475.775 67.3481L477.11 64.8271C472.93 62.6143 468.204 61.5251 462.968 61.5251V64.3775ZM475.785 67.3534C479.553 69.3095 482.486 72.2008 484.6 76.0649L487.102 74.6957C484.725 70.3512 481.386 67.0474 477.1 64.8218L475.785 67.3534ZM484.6 76.0649C486.706 79.9144 487.794 84.6229 487.794 90.2485H490.646C490.646 84.2583 489.488 79.0547 487.102 74.6957L484.6 76.0649ZM487.794 90.2485V128H490.646V90.2485H487.794ZM489.22 126.574H476.094V129.426H489.22V126.574ZM477.52 128V92.2232H474.668V128H477.52ZM477.52 92.2232C477.52 86.2668 476.029 81.4871 472.831 78.1157L470.761 80.0789C473.293 82.7478 474.668 86.7187 474.668 92.2232H477.52ZM472.843 78.1289C469.66 74.6882 465.342 73.0248 460.064 73.0248V75.8772C464.698 75.8772 468.201 77.3114 470.749 80.0658L472.843 78.1289ZM460.064 73.0248C454.785 73.0248 450.437 74.6881 447.182 78.115L449.25 80.0796C451.88 77.3114 455.431 75.8772 460.064 75.8772V73.0248ZM447.181 78.1157C443.983 81.4871 442.492 86.2668 442.492 92.2232H445.344C445.344 86.7187 446.719 82.7478 449.251 80.0789L447.181 78.1157ZM442.492 92.2232V128H445.344V92.2232H442.492ZM443.918 126.574H430.676V129.426H443.918V126.574ZM432.102 128V63.9967H429.25V128H432.102ZM430.676 65.423H443.918V62.5705H430.676V65.423ZM442.492 63.9967V71.3147H445.344V63.9967H442.492ZM445.019 72.2214C447.036 69.7716 449.601 67.8505 452.742 66.4629L451.589 63.8538C448.07 65.4088 445.136 67.5919 442.817 70.4081L445.019 72.2214ZM452.731 66.4677C455.955 65.0752 459.363 64.3775 462.968 64.3775V61.5251C458.984 61.5251 455.19 62.2988 451.6 63.849L452.731 66.4677ZM515.752 126.374L515.145 127.664L515.16 127.671L515.175 127.678L515.752 126.374ZM506.343 118.94L505.192 119.782L505.197 119.789L505.202 119.795L506.343 118.94ZM502.626 108.369V106.943H501.142L501.201 108.426L502.626 108.369ZM516.333 108.369L517.754 108.247L517.642 106.943H516.333V108.369ZM520.166 115.223L519.275 116.336L519.295 116.353L519.316 116.368L520.166 115.223ZM537.706 115.803L538.518 116.976L538.527 116.97L537.706 115.803ZM537.357 104.884L536.702 106.151L536.711 106.156L536.72 106.16L537.357 104.884ZM526.555 101.051L526.941 99.6783L526.932 99.6758L526.555 101.051ZM514.823 97.218L514.281 98.5375L514.823 97.218ZM506.924 91.5263L505.836 92.449L505.844 92.4585L505.853 92.4678L506.924 91.5263ZM506.692 72.1278L507.848 72.9629L507.853 72.9554L507.859 72.9478L506.692 72.1278ZM515.287 65.3906L514.726 64.0797L514.716 64.084L515.287 65.3906ZM545.837 68.5269L544.918 69.6179L544.929 69.6265L544.939 69.635L545.837 68.5269ZM553.039 83.5113V84.9376H554.536L554.463 83.4419L553.039 83.5113ZM539.797 83.5113L538.375 83.6266L538.482 84.9376H539.797V83.5113ZM536.312 76.658L537.213 75.5523L536.312 76.658ZM519.818 76.0772L518.993 74.9134L519.818 76.0772ZM518.888 85.6022L517.913 86.6427L518.888 85.6022ZM523.418 88.39L522.899 89.7182L522.924 89.7281L522.95 89.7371L523.418 88.39ZM531.317 90.8293L530.921 92.1995L530.936 92.2036L530.95 92.2074L531.317 90.8293ZM542.701 94.6626L542.118 95.9644L542.139 95.9736L542.159 95.9821L542.701 94.6626ZM550.483 100.238L549.41 101.177L550.483 100.238ZM553.852 110.112H555.278V110.098L555.278 110.085L553.852 110.112ZM550.832 119.869L549.665 119.049L550.832 119.869ZM542.236 126.606L541.664 125.299L541.654 125.304L542.236 126.606ZM529.343 127.619C524.479 127.619 520.15 126.759 516.329 125.069L515.175 127.678C519.408 129.55 524.139 130.472 529.343 130.472V127.619ZM516.359 125.083C512.593 123.311 509.651 120.973 507.484 118.084L505.202 119.795C507.682 123.102 511.012 125.719 515.145 127.664L516.359 125.083ZM507.494 118.097C505.336 115.147 504.195 111.896 504.051 108.312L501.201 108.426C501.367 112.586 502.704 116.382 505.192 119.782L507.494 118.097ZM502.626 109.795H516.333V106.943H502.626V109.795ZM514.912 108.491C515.181 111.629 516.679 114.259 519.275 116.336L521.057 114.109C519.007 112.469 517.949 110.53 517.754 108.247L514.912 108.491ZM519.316 116.368C522.007 118.364 525.302 119.32 529.11 119.32V116.468C525.794 116.468 523.126 115.643 521.016 114.077L519.316 116.368ZM529.11 119.32C532.977 119.32 536.172 118.6 538.518 116.976L536.894 114.631C535.213 115.794 532.678 116.468 529.11 116.468V119.32ZM538.527 116.97C540.936 115.274 542.268 113.007 542.268 110.228H539.416C539.416 111.94 538.657 113.39 536.885 114.637L538.527 116.97ZM542.268 110.228C542.268 108.788 541.917 107.464 541.166 106.312C540.419 105.168 539.333 104.278 537.995 103.609L536.72 106.16C537.705 106.653 538.362 107.234 538.776 107.871C539.187 108.5 539.416 109.267 539.416 110.228H542.268ZM538.013 103.618C535.632 102.386 531.915 101.077 526.941 99.6783L526.169 102.424C531.107 103.813 534.591 105.059 536.702 106.151L538.013 103.618ZM526.932 99.6758C522.161 98.3676 518.311 97.1074 515.364 95.8985L514.281 98.5375C517.375 99.8067 521.346 101.102 526.178 102.427L526.932 99.6758ZM515.364 95.8985C512.556 94.7465 510.102 92.9823 507.995 90.5848L505.853 92.4678C508.237 95.1812 511.049 97.2115 514.281 98.5375L515.364 95.8985ZM508.011 90.6035C506.112 88.3648 505.098 85.3506 505.098 81.4205H502.245C502.245 85.8538 503.399 89.5768 505.836 92.449L508.011 90.6035ZM505.098 81.4205C505.098 78.316 506.008 75.51 507.848 72.9629L505.535 71.2928C503.348 74.3212 502.245 77.7104 502.245 81.4205H505.098ZM507.859 72.9478C509.699 70.3282 512.343 68.2357 515.859 66.6973L514.716 64.084C510.798 65.798 507.711 68.1969 505.525 71.3078L507.859 72.9478ZM515.849 66.7016C519.437 65.1639 523.577 64.3775 528.297 64.3775V61.5251C523.26 61.5251 518.727 62.3649 514.726 64.0797L515.849 66.7016ZM528.297 64.3775C535.33 64.3775 540.823 66.1691 544.918 69.6179L546.756 67.436C542.023 63.4506 535.822 61.5251 528.297 61.5251V64.3775ZM544.939 69.635C549.082 72.9919 551.322 77.591 551.614 83.5808L554.463 83.4419C554.136 76.7317 551.575 71.3412 546.735 67.4188L544.939 69.635ZM553.039 82.0851H539.797V84.9376H553.039V82.0851ZM541.218 83.3961C540.957 80.172 539.626 77.5189 537.213 75.5523L535.411 77.7637C537.179 79.2044 538.172 81.1202 538.375 83.6266L541.218 83.3961ZM537.213 75.5523C534.796 73.583 531.617 72.6763 527.832 72.6763V75.5287C531.172 75.5287 533.646 76.3257 535.411 77.7637L537.213 75.5523ZM527.832 72.6763C524.199 72.6763 521.19 73.3575 518.993 74.9134L520.642 77.2411C522.162 76.164 524.496 75.5287 527.832 75.5287V72.6763ZM518.993 74.9134C516.78 76.4813 515.604 78.6466 515.604 81.3043H518.456C518.456 79.6255 519.138 78.306 520.642 77.241L518.993 74.9134ZM515.604 81.3043C515.604 83.4008 516.385 85.2105 517.913 86.6427L519.864 84.5617C518.913 83.6707 518.456 82.6152 518.456 81.3043H515.604ZM517.913 86.6427C519.3 87.9429 520.97 88.9634 522.899 89.7182L523.938 87.0618C522.305 86.4226 520.955 85.5846 519.864 84.5617L517.913 86.6427ZM522.95 89.7371C524.768 90.3694 527.43 91.1909 530.921 92.1995L531.713 89.4591C528.235 88.4543 525.631 87.6496 523.887 87.0429L522.95 89.7371ZM530.95 92.2074C535.555 93.4353 539.27 94.6902 542.118 95.9644L543.283 93.3607C540.246 92.002 536.373 90.7013 531.685 89.4512L530.95 92.2074ZM542.159 95.9821C544.973 97.1365 547.386 98.8641 549.41 101.177L551.557 99.299C549.244 96.6562 546.468 94.6667 543.242 93.343L542.159 95.9821ZM549.41 101.177C551.306 103.345 552.353 106.285 552.426 110.139L555.278 110.085C555.196 105.73 553.997 102.088 551.557 99.299L549.41 101.177ZM552.426 110.112C552.426 113.47 551.503 116.434 549.665 119.049L551.999 120.689C554.188 117.574 555.278 114.032 555.278 110.112H552.426ZM549.665 119.049C547.824 121.669 545.181 123.761 541.664 125.299L542.808 127.913C546.726 126.199 549.813 123.8 551.999 120.689L549.665 119.049ZM541.654 125.304C538.237 126.831 534.146 127.619 529.343 127.619V130.472C534.452 130.472 538.956 129.634 542.818 127.908L541.654 125.304Z" fill="#BE942A" mask="url(#path-1-outside-1_743_12948)"/>
<path d="M73.546 47.2699V128H60.3039V92.6879H22.3201V128H9.07809V47.2699H22.3201V81.8851H60.3039V47.2699H73.546ZM118.741 129.045C112.7 129.045 107.241 127.69 102.362 124.98C97.4837 122.192 93.6504 118.32 90.8626 113.364C88.0748 108.331 86.6809 102.523 86.6809 95.9403C86.6809 89.4354 88.1136 83.6662 90.9788 78.6327C93.844 73.5992 97.7547 69.7272 102.711 67.0169C107.667 64.3065 113.204 62.9513 119.321 62.9513C125.439 62.9513 130.976 64.3065 135.932 67.0169C140.888 69.7272 144.799 73.5992 147.664 78.6327C150.529 83.6662 151.962 89.4354 151.962 95.9403C151.962 102.445 150.491 108.214 147.548 113.248C144.605 118.281 140.578 122.192 135.467 124.98C130.434 127.69 124.858 129.045 118.741 129.045ZM118.741 117.546C122.148 117.546 125.323 116.733 128.266 115.106C131.286 113.48 133.725 111.041 135.584 107.788C137.442 104.536 138.371 100.587 138.371 95.9403C138.371 91.294 137.481 87.3833 135.7 84.2083C133.919 80.9559 131.557 78.5165 128.614 76.8903C125.671 75.2641 122.496 74.451 119.089 74.451C115.682 74.451 112.507 75.2641 109.564 76.8903C106.699 78.5165 104.414 80.9559 102.711 84.2083C101.007 87.3833 100.155 91.294 100.155 95.9403C100.155 102.832 101.898 108.176 105.382 111.97C108.945 115.687 113.397 117.546 118.741 117.546ZM192.814 129.045C186.774 129.045 181.315 127.69 176.436 124.98C171.557 122.192 167.724 118.32 164.936 113.364C162.148 108.331 160.755 102.523 160.755 95.9403C160.755 89.4354 162.187 83.6662 165.052 78.6327C167.918 73.5992 171.828 69.7272 176.784 67.0169C181.741 64.3065 187.277 62.9513 193.395 62.9513C199.513 62.9513 205.05 64.3065 210.006 67.0169C214.962 69.7272 218.872 73.5992 221.738 78.6327C224.603 83.6662 226.036 89.4354 226.036 95.9403C226.036 102.445 224.564 108.214 221.622 113.248C218.679 118.281 214.652 122.192 209.541 124.98C204.508 127.69 198.932 129.045 192.814 129.045ZM192.814 117.546C196.222 117.546 199.397 116.733 202.339 115.106C205.359 113.48 207.799 111.041 209.657 107.788C211.516 104.536 212.445 100.587 212.445 95.9403C212.445 91.294 211.555 87.3833 209.773 84.2083C207.992 80.9559 205.63 78.5165 202.688 76.8903C199.745 75.2641 196.57 74.451 193.163 74.451C189.755 74.451 186.58 75.2641 183.638 76.8903C180.773 78.5165 178.488 80.9559 176.784 84.2083C175.081 87.3833 174.229 91.294 174.229 95.9403C174.229 102.832 175.971 108.176 179.456 111.97C183.018 115.687 187.471 117.546 192.814 117.546ZM234.712 95.708C234.712 89.2805 236.029 83.5888 238.661 78.6327C241.372 73.6766 245.011 69.8434 249.58 67.133C254.227 64.3452 259.376 62.9513 265.029 62.9513C269.211 62.9513 273.315 63.8806 277.342 65.7391C281.446 67.5202 284.699 69.9208 287.1 72.9409V42.0428H300.458V128H287.1V118.359C284.931 121.456 281.911 124.012 278.039 126.025C274.245 128.039 269.869 129.045 264.913 129.045C259.338 129.045 254.227 127.652 249.58 124.864C245.011 121.998 241.372 118.049 238.661 113.016C236.029 107.905 234.712 102.135 234.712 95.708ZM287.1 95.9403C287.1 91.5263 286.17 87.693 284.312 84.4406C282.531 81.1882 280.169 78.7101 277.226 77.0065C274.283 75.3028 271.108 74.451 267.701 74.451C264.294 74.451 261.119 75.3028 258.176 77.0065C255.233 78.6327 252.833 81.072 250.974 84.3245C249.193 87.4994 248.303 91.294 248.303 95.708C248.303 100.122 249.193 103.994 250.974 107.324C252.833 110.654 255.233 113.209 258.176 114.99C261.196 116.694 264.371 117.546 267.701 117.546C271.108 117.546 274.283 116.694 277.226 114.99C280.169 113.287 282.531 110.809 284.312 107.556C286.17 104.226 287.1 100.354 287.1 95.9403Z" fill="black"/>
<path d="M324.588 55.5172C322.187 55.5172 320.174 54.7041 318.548 53.0779C316.921 51.4516 316.108 49.4382 316.108 47.0376C316.108 44.637 316.921 42.6236 318.548 40.9974C320.174 39.3712 322.187 38.5581 324.588 38.5581C326.911 38.5581 328.886 39.3712 330.512 40.9974C332.138 42.6236 332.951 44.637 332.951 47.0376C332.951 49.4382 332.138 51.4516 330.512 53.0779C328.886 54.7041 326.911 55.5172 324.588 55.5172ZM331.093 63.9967V128H317.851V63.9967H331.093ZM344.064 95.708C344.064 89.2805 345.381 83.5888 348.014 78.6327C350.724 73.6766 354.364 69.8434 358.933 67.133C363.579 64.3452 368.69 62.9513 374.265 62.9513C379.299 62.9513 383.674 63.958 387.391 65.9714C391.186 67.9074 394.206 70.3467 396.452 73.2894V63.9967H409.81V128H396.452V118.475C394.206 121.495 391.147 124.012 387.275 126.025C383.403 128.039 378.989 129.045 374.033 129.045C368.535 129.045 363.501 127.652 358.933 124.864C354.364 121.998 350.724 118.049 348.014 113.016C345.381 107.905 344.064 102.135 344.064 95.708ZM396.452 95.9403C396.452 91.5263 395.522 87.693 393.664 84.4406C391.883 81.1882 389.521 78.7101 386.578 77.0065C383.636 75.3028 380.461 74.451 377.053 74.451C373.646 74.451 370.471 75.3028 367.528 77.0065C364.586 78.6327 362.185 81.072 360.326 84.3245C358.545 87.4994 357.655 91.294 357.655 95.708C357.655 100.122 358.545 103.994 360.326 107.324C362.185 110.654 364.586 113.209 367.528 114.99C370.548 116.694 373.723 117.546 377.053 117.546C380.461 117.546 383.636 116.694 386.578 114.99C389.521 113.287 391.883 110.809 393.664 107.556C395.522 104.226 396.452 100.354 396.452 95.9403ZM459.495 62.9513C464.528 62.9513 469.02 63.9967 472.969 66.0876C476.996 68.1784 480.132 71.276 482.378 75.3803C484.624 79.4845 485.747 84.4406 485.747 90.2485V128H472.621V92.2232C472.621 86.4927 471.188 82.1174 468.323 79.0973C465.458 75.9998 461.547 74.451 456.591 74.451C451.635 74.451 447.685 75.9998 444.743 79.0973C441.878 82.1174 440.445 86.4927 440.445 92.2232V128H427.203V63.9967H440.445V71.3147C442.613 68.6818 445.362 66.6297 448.692 65.1583C452.099 63.687 455.7 62.9513 459.495 62.9513ZM525.869 129.045C520.836 129.045 516.306 128.155 512.279 126.374C508.329 124.515 505.193 122.037 502.87 118.94C500.547 115.765 499.308 112.241 499.153 108.369H512.86C513.092 111.08 514.37 113.364 516.693 115.223C519.093 117.004 522.075 117.894 525.637 117.894C529.354 117.894 532.219 117.197 534.233 115.803C536.324 114.332 537.369 112.473 537.369 110.228C537.369 107.827 536.207 106.046 533.884 104.884C531.639 103.723 528.038 102.445 523.082 101.051C518.28 99.7348 514.37 98.4571 511.35 97.218C508.329 95.979 505.697 94.0818 503.451 91.5263C501.283 88.9708 500.198 85.6022 500.198 81.4205C500.198 78.0132 501.205 74.9156 503.219 72.1278C505.232 69.2626 508.097 67.0169 511.814 65.3906C515.609 63.7644 519.945 62.9513 524.824 62.9513C532.103 62.9513 537.95 64.8098 542.364 68.5269C546.855 72.1665 549.256 77.1614 549.566 83.5113H536.324C536.091 80.6461 534.93 78.3617 532.839 76.658C530.748 74.9543 527.922 74.1025 524.359 74.1025C520.875 74.1025 518.203 74.7607 516.344 76.0772C514.486 77.3937 513.557 79.136 513.557 81.3043C513.557 83.008 514.176 84.4406 515.415 85.6022C516.654 86.7638 518.164 87.693 519.945 88.39C521.726 89.0095 524.359 89.8226 527.844 90.8293C532.49 92.0683 536.285 93.3461 539.228 94.6625C542.248 95.9016 544.842 97.7601 547.01 100.238C549.179 102.716 550.301 106.007 550.379 110.112C550.379 113.751 549.372 117.004 547.359 119.869C545.345 122.734 542.48 124.98 538.763 126.606C535.123 128.232 530.825 129.045 525.869 129.045Z" fill="#FBB90F"/>
</svg>
