<svg width="558" height="123" viewBox="0 0 558 123" fill="none" xmlns="http://www.w3.org/2000/svg">
<mask id="path-1-outside-1_742_9195" maskUnits="userSpaceOnUse" x="7.71484" y="28.3066" width="547" height="64" fill="black">
<rect fill="white" x="7.71484" y="28.3066" width="547" height="64"/>
<path d="M54.0248 33.7028V90.3066H44.7401V65.5475H18.1078V90.3066H8.82317V33.7028H18.1078V57.9732H44.7401V33.7028H54.0248ZM85.713 91.0396C81.4779 91.0396 77.65 90.0895 74.2294 88.1891C70.8087 86.2344 68.121 83.5196 66.1664 80.0446C64.2117 76.5154 63.2344 72.4432 63.2344 67.828C63.2344 63.2671 64.2389 59.222 66.2478 55.6928C68.2568 52.1635 70.9987 49.4487 74.4737 47.5483C77.9487 45.648 81.8308 44.6978 86.1202 44.6978C90.4097 44.6978 94.2918 45.648 97.7668 47.5483C101.242 49.4487 103.984 52.1635 105.993 55.6928C108.002 59.222 109.006 63.2671 109.006 67.828C109.006 72.3889 107.974 76.4339 105.911 79.9632C103.848 83.4925 101.025 86.2344 97.441 88.1891C93.9118 90.0895 90.0024 91.0396 85.713 91.0396ZM85.713 82.9766C88.1021 82.9766 90.3282 82.4065 92.3915 81.2663C94.509 80.1261 96.2194 78.4158 97.5225 76.1353C98.8256 73.8549 99.4771 71.0858 99.4771 67.828C99.4771 64.5702 98.8527 61.8283 97.6039 59.6021C96.3551 57.3217 94.6991 55.6113 92.6358 54.4711C90.5725 53.3309 88.3464 52.7608 85.9574 52.7608C83.5683 52.7608 81.3422 53.3309 79.2789 54.4711C77.27 55.6113 75.6682 57.3217 74.4737 59.6021C73.2792 61.8283 72.6819 64.5702 72.6819 67.828C72.6819 72.6604 73.9036 76.4068 76.3469 79.0673C78.8446 81.6735 81.9666 82.9766 85.713 82.9766ZM137.65 91.0396C133.415 91.0396 129.587 90.0895 126.166 88.1891C122.745 86.2344 120.058 83.5196 118.103 80.0446C116.148 76.5154 115.171 72.4432 115.171 67.828C115.171 63.2671 116.176 59.222 118.185 55.6928C120.193 52.1635 122.935 49.4487 126.41 47.5483C129.885 45.648 133.768 44.6978 138.057 44.6978C142.346 44.6978 146.229 45.648 149.703 47.5483C153.178 49.4487 155.92 52.1635 157.929 55.6928C159.938 59.222 160.943 63.2671 160.943 67.828C160.943 72.3889 159.911 76.4339 157.848 79.9632C155.785 83.4925 152.961 86.2344 149.378 88.1891C145.848 90.0895 141.939 91.0396 137.65 91.0396ZM137.65 82.9766C140.039 82.9766 142.265 82.4065 144.328 81.2663C146.446 80.1261 148.156 78.4158 149.459 76.1353C150.762 73.8549 151.414 71.0858 151.414 67.828C151.414 64.5702 150.789 61.8283 149.541 59.6021C148.292 57.3217 146.636 55.6113 144.572 54.4711C142.509 53.3309 140.283 52.7608 137.894 52.7608C135.505 52.7608 133.279 53.3309 131.216 54.4711C129.207 55.6113 127.605 57.3217 126.41 59.6021C125.216 61.8283 124.619 64.5702 124.619 67.828C124.619 72.6604 125.84 76.4068 128.284 79.0673C130.781 81.6735 133.903 82.9766 137.65 82.9766ZM167.026 67.6651C167.026 63.1585 167.949 59.1677 169.795 55.6928C171.696 52.2178 174.248 49.5302 177.451 47.6298C180.709 45.6751 184.32 44.6978 188.283 44.6978C191.215 44.6978 194.093 45.3493 196.916 46.6525C199.794 47.9013 202.075 49.5845 203.758 51.702V30.0378H213.124V90.3066H203.758V83.5468C202.237 85.7186 200.12 87.5104 197.405 88.9221C194.745 90.3338 191.677 91.0396 188.202 91.0396C184.293 91.0396 180.709 90.0623 177.451 88.1076C174.248 86.0987 171.696 83.3296 169.795 79.8003C167.949 76.2168 167.026 72.1717 167.026 67.6651ZM203.758 67.828C203.758 64.7331 203.106 62.0454 201.803 59.765C200.554 57.4846 198.898 55.7471 196.835 54.5526C194.772 53.358 192.546 52.7608 190.157 52.7608C187.767 52.7608 185.541 53.358 183.478 54.5526C181.415 55.6928 179.732 57.4031 178.429 59.6836C177.18 61.9097 176.555 64.5702 176.555 67.6651C176.555 70.76 177.18 73.4748 178.429 75.8095C179.732 78.1443 181.415 79.9361 183.478 81.1849C185.596 82.3794 187.822 82.9766 190.157 82.9766C192.546 82.9766 194.772 82.3794 196.835 81.1849C198.898 79.9904 200.554 78.2529 201.803 75.9724C203.106 73.6377 203.758 70.9229 203.758 67.828ZM226.785 33.7028H236.884L228.332 53.0866H221.817L226.785 33.7028ZM261.333 91.0396C257.803 91.0396 254.627 90.4152 251.804 89.1664C249.034 87.8633 246.835 86.1258 245.207 83.954C243.578 81.7278 242.709 79.2574 242.6 76.5425H252.211C252.374 78.4429 253.27 80.0446 254.898 81.3478C256.582 82.5966 258.672 83.221 261.17 83.221C263.776 83.221 265.785 82.7323 267.197 81.755C268.663 80.7234 269.396 79.4202 269.396 77.8457C269.396 76.1625 268.581 74.9137 266.952 74.0992C265.378 73.2848 262.853 72.3889 259.378 71.4115C256.012 70.4885 253.27 69.5926 251.152 68.7239C249.034 67.8551 247.188 66.5249 245.614 64.7331C244.093 62.9413 243.333 60.5794 243.333 57.6474C243.333 55.2584 244.039 53.0866 245.451 51.1319C246.863 49.1229 248.872 47.5483 251.478 46.4081C254.138 45.2679 257.179 44.6978 260.6 44.6978C265.703 44.6978 269.803 46.0009 272.898 48.6071C276.047 51.159 277.73 54.6612 277.947 59.1134H268.663C268.5 57.1045 267.685 55.5027 266.219 54.3082C264.753 53.1137 262.771 52.5164 260.274 52.5164C257.83 52.5164 255.957 52.978 254.654 53.901C253.351 54.824 252.699 56.0457 252.699 57.566C252.699 58.7605 253.134 59.765 254.003 60.5794C254.871 61.3939 255.93 62.0454 257.179 62.5341C258.428 62.9685 260.274 63.5386 262.717 64.2444C265.975 65.1132 268.635 66.0091 270.699 66.9321C272.816 67.8008 274.635 69.104 276.155 70.8414C277.676 72.5789 278.463 74.8865 278.517 77.7642C278.517 80.3161 277.811 82.5966 276.4 84.6055C274.988 86.6145 272.979 88.1891 270.373 89.3293C267.821 90.4695 264.808 91.0396 261.333 91.0396ZM383.413 33.7028L366.636 90.3066H356.129L344.238 47.4669L331.615 90.3066L321.19 90.3881L305.145 33.7028H315L326.728 79.8003L339.433 33.7028H349.858L361.668 79.556L373.477 33.7028H383.413ZM410.536 91.0396C406.301 91.0396 402.473 90.0895 399.052 88.1891C395.632 86.2344 392.944 83.5196 390.989 80.0446C389.035 76.5154 388.057 72.4432 388.057 67.828C388.057 63.2671 389.062 59.222 391.071 55.6928C393.08 52.1635 395.822 49.4487 399.297 47.5483C402.772 45.648 406.654 44.6978 410.943 44.6978C415.233 44.6978 419.115 45.648 422.59 47.5483C426.065 49.4487 428.807 52.1635 430.816 55.6928C432.825 59.222 433.829 63.2671 433.829 67.828C433.829 72.3889 432.798 76.4339 430.734 79.9632C428.671 83.4925 425.848 86.2344 422.264 88.1891C418.735 90.0895 414.825 91.0396 410.536 91.0396ZM410.536 82.9766C412.925 82.9766 415.151 82.4065 417.215 81.2663C419.332 80.1261 421.042 78.4158 422.346 76.1353C423.649 73.8549 424.3 71.0858 424.3 67.828C424.3 64.5702 423.676 61.8283 422.427 59.6021C421.178 57.3217 419.522 55.6113 417.459 54.4711C415.396 53.3309 413.169 52.7608 410.78 52.7608C408.391 52.7608 406.165 53.3309 404.102 54.4711C402.093 55.6113 400.491 57.3217 399.297 59.6021C398.102 61.8283 397.505 64.5702 397.505 67.828C397.505 72.6604 398.727 76.4068 401.17 79.0673C403.668 81.6735 406.79 82.9766 410.536 82.9766ZM452.292 51.9463C453.65 49.6659 455.441 47.9013 457.668 46.6525C459.948 45.3493 462.636 44.6978 465.731 44.6978V54.3082H463.369C459.731 54.3082 456.962 55.2313 455.061 57.0773C453.215 58.9234 452.292 62.1269 452.292 66.6878V90.3066H443.008V45.4308H452.292V51.9463ZM492.02 67.9094L512.707 90.3066H500.164L483.55 71.0043V90.3066H474.265V30.0378H483.55V65.0589L499.839 45.4308H512.707L492.02 67.9094ZM535.651 91.0396C532.121 91.0396 528.945 90.4152 526.122 89.1664C523.352 87.8633 521.153 86.1258 519.525 83.954C517.896 81.7278 517.027 79.2574 516.918 76.5425H526.529C526.692 78.4429 527.588 80.0446 529.216 81.3478C530.9 82.5966 532.99 83.221 535.488 83.221C538.094 83.221 540.103 82.7323 541.515 81.755C542.981 80.7234 543.714 79.4202 543.714 77.8457C543.714 76.1625 542.899 74.9137 541.27 74.0992C539.696 73.2848 537.171 72.3889 533.696 71.4115C530.33 70.4885 527.588 69.5926 525.47 68.7239C523.352 67.8551 521.506 66.5249 519.932 64.7331C518.412 62.9413 517.651 60.5794 517.651 57.6474C517.651 55.2584 518.357 53.0866 519.769 51.1319C521.181 49.1229 523.19 47.5483 525.796 46.4081C528.456 45.2679 531.497 44.6978 534.918 44.6978C540.021 44.6978 544.121 46.0009 547.216 48.6071C550.365 51.159 552.048 54.6612 552.265 59.1134H542.981C542.818 57.1045 542.003 55.5027 540.537 54.3082C539.071 53.1137 537.089 52.5164 534.592 52.5164C532.148 52.5164 530.275 52.978 528.972 53.901C527.669 54.824 527.017 56.0457 527.017 57.566C527.017 58.7605 527.452 59.765 528.321 60.5794C529.189 61.3939 530.248 62.0454 531.497 62.5341C532.746 62.9685 534.592 63.5386 537.035 64.2444C540.293 65.1132 542.953 66.0091 545.017 66.9321C547.134 67.8008 548.953 69.104 550.473 70.8414C551.994 72.5789 552.781 74.8865 552.835 77.7642C552.835 80.3161 552.129 82.5966 550.718 84.6055C549.306 86.6145 547.297 88.1891 544.691 89.3293C542.139 90.4695 539.126 91.0396 535.651 91.0396Z"/>
</mask>
<path d="M54.0248 33.7028H55.0248V32.7028H54.0248V33.7028ZM54.0248 90.3066V91.3066H55.0248V90.3066H54.0248ZM44.7401 90.3066H43.7401V91.3066H44.7401V90.3066ZM44.7401 65.5475H45.7401V64.5475H44.7401V65.5475ZM18.1078 65.5475V64.5475H17.1078V65.5475H18.1078ZM18.1078 90.3066V91.3066H19.1078V90.3066H18.1078ZM8.82317 90.3066H7.82317V91.3066H8.82317V90.3066ZM8.82317 33.7028V32.7028H7.82317V33.7028H8.82317ZM18.1078 33.7028H19.1078V32.7028H18.1078V33.7028ZM18.1078 57.9732H17.1078V58.9732H18.1078V57.9732ZM44.7401 57.9732V58.9732H45.7401V57.9732H44.7401ZM44.7401 33.7028V32.7028H43.7401V33.7028H44.7401ZM53.0248 33.7028V90.3066H55.0248V33.7028H53.0248ZM54.0248 89.3066H44.7401V91.3066H54.0248V89.3066ZM45.7401 90.3066V65.5475H43.7401V90.3066H45.7401ZM44.7401 64.5475H18.1078V66.5475H44.7401V64.5475ZM17.1078 65.5475V90.3066H19.1078V65.5475H17.1078ZM18.1078 89.3066H8.82317V91.3066H18.1078V89.3066ZM9.82317 90.3066V33.7028H7.82317V90.3066H9.82317ZM8.82317 34.7028H18.1078V32.7028H8.82317V34.7028ZM17.1078 33.7028V57.9732H19.1078V33.7028H17.1078ZM18.1078 58.9732H44.7401V56.9732H18.1078V58.9732ZM45.7401 57.9732V33.7028H43.7401V57.9732H45.7401ZM44.7401 34.7028H54.0248V32.7028H44.7401V34.7028ZM74.2294 88.1891L73.7332 89.0574L73.7437 89.0632L74.2294 88.1891ZM66.1664 80.0446L65.2916 80.5292L65.2948 80.5349L66.1664 80.0446ZM74.4737 47.5483L73.9939 46.671L74.4737 47.5483ZM97.7668 47.5483L98.2466 46.671L97.7668 47.5483ZM105.911 79.9632L105.048 79.4585L105.911 79.9632ZM97.441 88.1891L97.9151 89.0696L97.9199 89.067L97.441 88.1891ZM92.3915 81.2663L91.9173 80.3858L91.9078 80.3911L92.3915 81.2663ZM97.5225 76.1353L96.6542 75.6392L97.5225 76.1353ZM97.6039 59.6021L96.7268 60.0825L96.7318 60.0914L97.6039 59.6021ZM79.2789 54.4711L78.7952 53.5958L78.7853 53.6014L79.2789 54.4711ZM74.4737 59.6021L75.3549 60.075L75.3595 60.0661L74.4737 59.6021ZM76.3469 79.0673L75.6104 79.7437L75.6176 79.7515L75.6249 79.7592L76.3469 79.0673ZM85.713 90.0396C81.6335 90.0396 77.975 89.1261 74.715 87.3149L73.7437 89.0632C77.325 91.0529 81.3224 92.0396 85.713 92.0396V90.0396ZM74.7255 87.3208C71.4638 85.457 68.9051 82.8737 67.0379 79.5544L65.2948 80.5349C67.337 84.1655 70.1536 87.0118 73.7332 89.0573L74.7255 87.3208ZM67.0412 79.5602C65.1798 76.1994 64.2344 72.2984 64.2344 67.828H62.2344C62.2344 72.588 63.2436 76.8314 65.2916 80.5292L67.0412 79.5602ZM64.2344 67.828C64.2344 63.4188 65.2039 59.5481 67.1169 56.1875L65.3788 55.1981C63.2738 58.896 62.2344 63.1154 62.2344 67.828H64.2344ZM67.1169 56.1875C69.0365 52.8151 71.6456 50.2347 74.9535 48.4257L73.9939 46.671C70.3519 48.6627 67.477 51.5119 65.3788 55.1981L67.1169 56.1875ZM74.9535 48.4257C78.2693 46.6124 81.9842 45.6978 86.1202 45.6978V43.6978C81.6775 43.6978 77.628 44.6836 73.9939 46.671L74.9535 48.4257ZM86.1202 45.6978C90.2563 45.6978 93.9712 46.6124 97.287 48.4257L98.2466 46.671C94.6125 44.6836 90.563 43.6978 86.1202 43.6978V45.6978ZM97.287 48.4257C100.595 50.2347 103.204 52.8151 105.124 56.1875L106.862 55.1981C104.763 51.5119 101.889 48.6627 98.2466 46.671L97.287 48.4257ZM105.124 56.1875C107.037 59.5481 108.006 63.4188 108.006 67.828H110.006C110.006 63.1154 108.967 58.896 106.862 55.1981L105.124 56.1875ZM108.006 67.828C108.006 72.2325 107.012 76.0996 105.048 79.4585L106.775 80.4679C108.937 76.7683 110.006 72.5452 110.006 67.828H108.006ZM105.048 79.4585C103.076 82.831 100.386 85.4438 96.9622 87.3112L97.9199 89.067C101.663 87.0251 104.62 84.154 106.775 80.4679L105.048 79.4585ZM96.9669 87.3086C93.5935 89.1251 89.8489 90.0396 85.713 90.0396V92.0396C90.156 92.0396 94.23 91.0539 97.9151 89.0696L96.9669 87.3086ZM85.713 83.9766C88.2689 83.9766 90.6618 83.3648 92.8752 82.1416L91.9078 80.3911C89.9947 81.4483 87.9352 81.9766 85.713 81.9766V83.9766ZM92.8656 82.1468C95.1629 80.9098 97.0036 79.0589 98.3907 76.6315L96.6542 75.6392C95.4351 77.7727 93.8551 79.3424 91.9174 80.3858L92.8656 82.1468ZM98.3907 76.6315C99.7986 74.1676 100.477 71.2184 100.477 67.828H98.4771C98.4771 70.9531 97.8525 73.5421 96.6542 75.6392L98.3907 76.6315ZM100.477 67.828C100.477 64.4452 99.8288 61.5242 98.4761 59.1129L96.7318 60.0914C97.8767 62.1323 98.4771 64.6952 98.4771 67.828H100.477ZM98.481 59.1218C97.1508 56.6928 95.3655 54.8371 93.1195 53.5959L92.1521 55.3464C94.0326 56.3856 95.5593 57.9505 96.7268 60.0824L98.481 59.1218ZM93.1195 53.5959C90.9061 52.3727 88.5132 51.7608 85.9574 51.7608V53.7608C88.1796 53.7608 90.239 54.2891 92.1521 55.3464L93.1195 53.5959ZM85.9574 51.7608C83.4015 51.7608 81.0086 52.3727 78.7952 53.5959L79.7626 55.3464C81.6757 54.2891 83.7351 53.7608 85.9574 53.7608V51.7608ZM78.7853 53.6014C76.5907 54.847 74.8609 56.7077 73.5879 59.1381L75.3595 60.0661C76.4755 57.9356 77.9493 56.3756 79.7725 55.3408L78.7853 53.6014ZM73.5925 59.1293C72.3007 61.5369 71.6819 64.4517 71.6819 67.828H73.6819C73.6819 64.6888 74.2577 62.1196 75.3549 60.0749L73.5925 59.1293ZM71.6819 67.828C71.6819 72.8247 72.9472 76.8438 75.6104 79.7437L77.0835 78.3909C74.86 75.9698 73.6819 72.4961 73.6819 67.828H71.6819ZM75.6249 79.7592C78.3191 82.5705 81.7056 83.9766 85.713 83.9766V81.9766C82.2276 81.9766 79.37 80.7766 77.0689 78.3754L75.6249 79.7592ZM126.166 88.1891L125.67 89.0574L125.68 89.0632L126.166 88.1891ZM118.103 80.0446L117.228 80.5292L117.231 80.5349L118.103 80.0446ZM126.41 47.5483L125.931 46.671L126.41 47.5483ZM149.703 47.5483L150.183 46.671L149.703 47.5483ZM157.848 79.9632L156.985 79.4585L157.848 79.9632ZM149.378 88.1891L149.852 89.0696L149.857 89.067L149.378 88.1891ZM144.328 81.2663L143.854 80.3858L143.844 80.3911L144.328 81.2663ZM149.459 76.1353L148.591 75.6392L149.459 76.1353ZM149.541 59.6021L148.663 60.0825L148.668 60.0914L149.541 59.6021ZM131.216 54.4711L130.732 53.5958L130.722 53.6014L131.216 54.4711ZM126.41 59.6021L127.292 60.075L127.296 60.0661L126.41 59.6021ZM128.284 79.0673L127.547 79.7437L127.554 79.7515L127.562 79.7592L128.284 79.0673ZM137.65 90.0396C133.57 90.0396 129.912 89.1261 126.652 87.3149L125.68 89.0632C129.262 91.0529 133.259 92.0396 137.65 92.0396V90.0396ZM126.662 87.3208C123.401 85.457 120.842 82.8737 118.975 79.5544L117.231 80.5349C119.274 84.1655 122.09 87.0118 125.67 89.0573L126.662 87.3208ZM118.978 79.5602C117.117 76.1994 116.171 72.2984 116.171 67.828H114.171C114.171 72.588 115.18 76.8314 117.228 80.5292L118.978 79.5602ZM116.171 67.828C116.171 63.4188 117.141 59.5481 119.054 56.1875L117.315 55.1981C115.211 58.896 114.171 63.1154 114.171 67.828H116.171ZM119.054 56.1875C120.973 52.8151 123.582 50.2347 126.89 48.4257L125.931 46.671C122.289 48.6627 119.414 51.5119 117.315 55.1981L119.054 56.1875ZM126.89 48.4257C130.206 46.6124 133.921 45.6978 138.057 45.6978V43.6978C133.614 43.6978 129.565 44.6836 125.931 46.671L126.89 48.4257ZM138.057 45.6978C142.193 45.6978 145.908 46.6124 149.224 48.4257L150.183 46.671C146.549 44.6836 142.5 43.6978 138.057 43.6978V45.6978ZM149.224 48.4257C152.532 50.2347 155.141 52.8151 157.06 56.1875L158.798 55.1981C156.7 51.5119 153.825 48.6627 150.183 46.671L149.224 48.4257ZM157.06 56.1875C158.973 59.5481 159.943 63.4188 159.943 67.828H161.943C161.943 63.1154 160.903 58.896 158.798 55.1981L157.06 56.1875ZM159.943 67.828C159.943 72.2325 158.948 76.0996 156.985 79.4585L158.711 80.4679C160.874 76.7683 161.943 72.5452 161.943 67.828H159.943ZM156.985 79.4585C155.013 82.831 152.322 85.4438 148.899 87.3112L149.857 89.067C153.6 87.0251 156.556 84.154 158.711 80.4679L156.985 79.4585ZM148.904 87.3086C145.53 89.1251 141.786 90.0396 137.65 90.0396V92.0396C142.093 92.0396 146.167 91.0539 149.852 89.0696L148.904 87.3086ZM137.65 83.9766C140.206 83.9766 142.598 83.3648 144.812 82.1416L143.844 80.3911C141.931 81.4483 139.872 81.9766 137.65 81.9766V83.9766ZM144.802 82.1468C147.1 80.9098 148.94 79.0589 150.327 76.6315L148.591 75.6392C147.372 77.7727 145.792 79.3424 143.854 80.3858L144.802 82.1468ZM150.327 76.6315C151.735 74.1676 152.414 71.2184 152.414 67.828H150.414C150.414 70.9531 149.789 73.5421 148.591 75.6392L150.327 76.6315ZM152.414 67.828C152.414 64.4452 151.765 61.5242 150.413 59.1129L148.668 60.0914C149.813 62.1323 150.414 64.6952 150.414 67.828H152.414ZM150.418 59.1218C149.088 56.6928 147.302 54.8371 145.056 53.5959L144.089 55.3464C145.969 56.3856 147.496 57.9505 148.663 60.0824L150.418 59.1218ZM145.056 53.5959C142.843 52.3727 140.45 51.7608 137.894 51.7608V53.7608C140.116 53.7608 142.176 54.2891 144.089 55.3464L145.056 53.5959ZM137.894 51.7608C135.338 51.7608 132.945 52.3727 130.732 53.5959L131.699 55.3464C133.612 54.2891 135.672 53.7608 137.894 53.7608V51.7608ZM130.722 53.6014C128.527 54.847 126.798 56.7077 125.525 59.1381L127.296 60.0661C128.412 57.9356 129.886 56.3756 131.709 55.3408L130.722 53.6014ZM125.529 59.1293C124.237 61.5369 123.619 64.4517 123.619 67.828H125.619C125.619 64.6888 126.194 62.1196 127.292 60.0749L125.529 59.1293ZM123.619 67.828C123.619 72.8247 124.884 76.8438 127.547 79.7437L129.02 78.3909C126.797 75.9698 125.619 72.4961 125.619 67.828H123.619ZM127.562 79.7592C130.256 82.5705 133.642 83.9766 137.65 83.9766V81.9766C134.164 81.9766 131.307 80.7766 129.006 78.3754L127.562 79.7592ZM169.795 55.6928L168.918 55.2129L168.912 55.2236L169.795 55.6928ZM177.451 47.6298L177.961 48.4898L177.966 48.4873L177.451 47.6298ZM196.916 46.6525L196.497 47.5604L196.508 47.5652L196.518 47.5698L196.916 46.6525ZM203.758 51.702L202.975 52.3242L204.758 54.5672V51.702H203.758ZM203.758 30.0378V29.0378H202.758V30.0378H203.758ZM213.124 30.0378H214.124V29.0378H213.124V30.0378ZM213.124 90.3066V91.3066H214.124V90.3066H213.124ZM203.758 90.3066H202.758V91.3066H203.758V90.3066ZM203.758 83.5468H204.758V80.3744L202.939 82.9733L203.758 83.5468ZM197.405 88.9221L196.944 88.0348L196.936 88.0387L197.405 88.9221ZM177.451 88.1076L176.92 88.9548L176.928 88.9601L176.937 88.9651L177.451 88.1076ZM169.795 79.8003L168.906 80.2583L168.911 80.2664L168.915 80.2744L169.795 79.8003ZM201.803 59.765L200.926 60.2453L200.93 60.2533L200.935 60.2611L201.803 59.765ZM196.835 54.5526L196.334 55.418L196.835 54.5526ZM183.478 54.5526L183.962 55.4278L183.97 55.423L183.979 55.418L183.478 54.5526ZM178.429 59.6836L177.56 59.1874L177.556 59.1943L178.429 59.6836ZM178.429 75.8095L177.547 76.2812L177.551 76.2891L177.555 76.2969L178.429 75.8095ZM183.478 81.1849L182.96 82.0404L182.973 82.0483L182.987 82.0558L183.478 81.1849ZM196.835 81.1849L197.336 82.0503V82.0503L196.835 81.1849ZM201.803 75.9724L200.93 75.485L200.926 75.4921L201.803 75.9724ZM168.026 67.6651C168.026 63.2981 168.92 59.4726 170.679 56.1619L168.912 55.2236C166.979 58.8628 166.026 63.0189 166.026 67.6651H168.026ZM170.673 56.1726C172.493 52.8447 174.922 50.2928 177.961 48.4898L176.941 46.7697C173.573 48.7675 170.899 51.591 168.918 55.213L170.673 56.1726ZM177.966 48.4873C181.061 46.63 184.493 45.6978 188.283 45.6978V43.6978C184.147 43.6978 180.357 44.7202 176.937 46.7723L177.966 48.4873ZM188.283 45.6978C191.062 45.6978 193.797 46.3142 196.497 47.5604L197.335 45.7445C194.389 44.3845 191.369 43.6978 188.283 43.6978V45.6978ZM196.518 47.5698C199.27 48.7638 201.409 50.3543 202.975 52.3242L204.541 51.0798C202.74 48.8146 200.319 47.0388 197.314 45.7351L196.518 47.5698ZM204.758 51.702V30.0378H202.758V51.702H204.758ZM203.758 31.0378H213.124V29.0378H203.758V31.0378ZM212.124 30.0378V90.3066H214.124V30.0378H212.124ZM213.124 89.3066H203.758V91.3066H213.124V89.3066ZM204.758 90.3066V83.5468H202.758V90.3066H204.758ZM202.939 82.9733C201.524 84.9943 199.538 86.6859 196.944 88.0349L197.866 89.8093C200.702 88.3348 202.951 86.4429 204.577 84.1202L202.939 82.9733ZM196.936 88.0387C194.441 89.3628 191.539 90.0396 188.202 90.0396V92.0396C191.815 92.0396 195.048 91.3048 197.874 89.8054L196.936 88.0387ZM188.202 90.0396C184.468 90.0396 181.063 89.1088 177.966 87.2502L176.937 88.9651C180.355 91.0158 184.117 92.0396 188.202 92.0396V90.0396ZM177.982 87.2605C174.935 85.3491 172.499 82.7125 170.676 79.3262L168.915 80.2744C170.892 83.9467 173.561 86.8483 176.92 88.9548L177.982 87.2605ZM170.684 79.3424C168.92 75.9164 168.026 72.0314 168.026 67.6651H166.026C166.026 72.312 166.979 76.5171 168.906 80.2583L170.684 79.3424ZM204.758 67.828C204.758 64.5903 204.075 61.7254 202.671 59.2689L200.935 60.2611C202.137 62.3655 202.758 64.8759 202.758 67.828H204.758ZM202.68 59.2847C201.352 56.8589 199.572 54.9814 197.336 53.6871L196.334 55.418C198.225 56.5127 199.757 58.1102 200.926 60.2453L202.68 59.2847ZM197.336 53.6871C195.12 52.4043 192.721 51.7608 190.157 51.7608V53.7608C192.37 53.7608 194.423 54.3118 196.334 55.418L197.336 53.6871ZM190.157 51.7608C187.592 51.7608 185.193 52.4043 182.977 53.6871L183.979 55.418C185.89 54.3118 187.943 53.7608 190.157 53.7608V51.7608ZM182.994 53.6773C180.753 54.9161 178.944 56.7664 177.56 59.1874L179.297 60.1797C180.52 58.0398 182.077 56.4694 183.962 55.4278L182.994 53.6773ZM177.556 59.1943C176.208 61.5986 175.555 64.4351 175.555 67.6651H177.555C177.555 64.7053 178.152 62.2208 179.301 60.1728L177.556 59.1943ZM175.555 67.6651C175.555 70.8967 176.208 73.7786 177.547 76.2812L179.31 75.3379C178.151 73.171 177.555 70.6233 177.555 67.6651H175.555ZM177.555 76.2969C178.934 78.7663 180.733 80.6923 182.96 82.0404L183.996 80.3294C182.097 79.1799 180.53 77.5223 179.302 75.3222L177.555 76.2969ZM182.987 82.0558C185.248 83.3313 187.642 83.9766 190.157 83.9766V81.9766C188.001 81.9766 185.943 81.4275 183.969 80.3139L182.987 82.0558ZM190.157 83.9766C192.721 83.9766 195.12 83.3332 197.336 82.0503L196.334 80.3194C194.423 81.4256 192.37 81.9766 190.157 81.9766V83.9766ZM197.336 82.0503C199.572 80.756 201.352 78.8785 202.68 76.4527L200.926 75.4921C199.757 77.6272 198.225 79.2247 196.334 80.3194L197.336 82.0503ZM202.676 76.4598C204.075 73.9541 204.758 71.0664 204.758 67.828H202.758C202.758 70.7794 202.138 73.3213 200.93 75.4851L202.676 76.4598ZM226.785 33.7028V32.7028H226.009L225.816 33.4545L226.785 33.7028ZM236.884 33.7028L237.799 34.1064L238.418 32.7028H236.884V33.7028ZM228.332 53.0866V54.0866H228.984L229.247 53.4902L228.332 53.0866ZM221.817 53.0866L220.848 52.8383L220.528 54.0866H221.817V53.0866ZM226.785 34.7028H236.884V32.7028H226.785V34.7028ZM235.969 33.2992L227.417 52.6829L229.247 53.4902L237.799 34.1064L235.969 33.2992ZM228.332 52.0866H221.817V54.0866H228.332V52.0866ZM222.785 53.3348L227.754 33.9511L225.816 33.4545L220.848 52.8383L222.785 53.3348ZM251.804 89.1664L251.378 90.0712L251.388 90.0762L251.399 90.081L251.804 89.1664ZM245.207 83.954L244.399 84.5445L244.407 84.554L245.207 83.954ZM242.6 76.5425V75.5425H241.56L241.601 76.5825L242.6 76.5425ZM252.211 76.5425L253.207 76.4571L253.129 75.5425H252.211V76.5425ZM254.898 81.3478L254.274 82.1286L254.288 82.14L254.303 82.1509L254.898 81.3478ZM267.197 81.755L267.766 82.5772L267.772 82.5728L267.197 81.755ZM266.952 74.0992L266.493 74.9875L266.505 74.9936L266.952 74.0992ZM259.378 71.4115L259.649 70.4489L259.642 70.4471L259.378 71.4115ZM251.152 68.7239L250.772 69.649L251.152 68.7239ZM245.614 64.7331L244.851 65.3801L244.857 65.3867L244.863 65.3932L245.614 64.7331ZM245.451 51.1319L246.262 51.7174L246.269 51.7068L245.451 51.1319ZM251.478 46.4081L251.084 45.4889L251.077 45.492L251.478 46.4081ZM272.898 48.6071L272.254 49.372L272.261 49.3781L272.268 49.3841L272.898 48.6071ZM277.947 59.1134V60.1134H278.997L278.946 59.0647L277.947 59.1134ZM268.663 59.1134L267.666 59.1943L267.74 60.1134H268.663V59.1134ZM266.219 54.3082L266.851 53.533L266.219 54.3082ZM254.654 53.901L254.076 53.085L254.654 53.901ZM254.003 60.5794L253.319 61.309L254.003 60.5794ZM257.179 62.5341L256.814 63.4654L256.832 63.4723L256.85 63.4786L257.179 62.5341ZM262.717 64.2444L262.44 65.2052L262.449 65.208L262.459 65.2107L262.717 64.2444ZM270.699 66.9321L270.29 67.8449L270.305 67.8513L270.319 67.8573L270.699 66.9321ZM276.155 70.8414L275.403 71.4999L276.155 70.8414ZM278.517 77.7642H279.517V77.7548L279.517 77.7453L278.517 77.7642ZM276.4 84.6055L275.582 84.0306L276.4 84.6055ZM270.373 89.3293L269.972 88.4131L269.965 88.4163L270.373 89.3293ZM261.333 90.0396C257.923 90.0396 254.887 89.4368 252.208 88.2519L251.399 90.081C254.367 91.3936 257.684 92.0396 261.333 92.0396V90.0396ZM252.229 88.2616C249.589 87.0191 247.526 85.3793 246.007 83.354L244.407 84.554C246.145 86.8723 248.48 88.7076 251.378 90.0712L252.229 88.2616ZM246.014 83.3635C244.5 81.2951 243.7 79.0157 243.6 76.5026L241.601 76.5825C241.718 79.4991 242.655 82.1606 244.4 84.5445L246.014 83.3635ZM242.6 77.5425H252.211V75.5425H242.6V77.5425ZM251.214 76.6279C251.403 78.8284 252.453 80.6722 254.274 82.1286L255.523 80.5669C254.086 79.4171 253.344 78.0574 253.207 76.4571L251.214 76.6279ZM254.303 82.1509C256.189 83.5507 258.5 84.221 261.17 84.221V82.221C258.844 82.221 256.974 81.6425 255.494 80.5447L254.303 82.1509ZM261.17 84.221C263.881 84.221 266.121 83.716 267.766 82.5772L266.627 80.9328C265.449 81.7486 263.671 82.221 261.17 82.221V84.221ZM267.772 82.5728C269.462 81.3839 270.396 79.7945 270.396 77.8456H268.396C268.396 79.046 267.863 80.0629 266.621 80.9372L267.772 82.5728ZM270.396 77.8456C270.396 76.8359 270.149 75.9076 269.622 75.1004C269.099 74.2976 268.338 73.6738 267.399 73.2048L266.505 74.9936C267.196 75.339 267.656 75.7468 267.947 76.1929C268.235 76.6345 268.396 77.1722 268.396 77.8456H270.396ZM267.412 73.211C265.743 72.3476 263.136 71.4298 259.649 70.4489L259.107 72.3742C262.569 73.3479 265.013 74.2219 266.493 74.9874L267.412 73.211ZM259.642 70.4471C256.297 69.5299 253.598 68.6463 251.532 67.7987L250.772 69.649C252.942 70.5389 255.726 71.4471 259.113 72.3759L259.642 70.4471ZM251.532 67.7987C249.563 66.991 247.842 65.754 246.365 64.073L244.863 65.3932C246.535 67.2958 248.506 68.7193 250.772 69.649L251.532 67.7987ZM246.376 64.0861C245.044 62.5164 244.333 60.403 244.333 57.6474H242.333C242.333 60.7559 243.143 63.3662 244.851 65.3801L246.376 64.0861ZM244.333 57.6474C244.333 55.4707 244.972 53.5033 246.262 51.7174L244.64 50.5464C243.107 52.6698 242.333 55.0461 242.333 57.6474H244.333ZM246.269 51.7068C247.56 49.8701 249.413 48.4029 251.879 47.3243L251.077 45.492C248.33 46.6937 246.165 48.3758 244.633 50.5569L246.269 51.7068ZM251.872 47.3273C254.387 46.2492 257.29 45.6978 260.6 45.6978V43.6978C257.068 43.6978 253.889 44.2866 251.084 45.489L251.872 47.3273ZM260.6 45.6978C265.531 45.6978 269.382 46.954 272.254 49.372L273.542 47.8422C270.223 45.0478 265.876 43.6978 260.6 43.6978V45.6978ZM272.268 49.3841C275.173 51.7378 276.744 54.9624 276.948 59.1622L278.946 59.0647C278.717 54.3599 276.921 50.5803 273.527 47.8302L272.268 49.3841ZM277.947 58.1134H268.663V60.1134H277.947V58.1134ZM269.659 59.0326C269.476 56.7721 268.543 54.9118 266.851 53.533L265.588 55.0835C266.827 56.0936 267.523 57.4369 267.666 59.1943L269.659 59.0326ZM266.851 53.533C265.156 52.1522 262.927 51.5164 260.274 51.5164V53.5164C262.616 53.5164 264.35 54.0752 265.588 55.0835L266.851 53.533ZM260.274 51.5164C257.726 51.5164 255.616 51.9941 254.076 53.085L255.232 54.717C256.298 53.9619 257.935 53.5164 260.274 53.5164V51.5164ZM254.076 53.085C252.524 54.1843 251.699 55.7025 251.699 57.566H253.699C253.699 56.3889 254.178 55.4637 255.232 54.717L254.076 53.085ZM251.699 57.566C251.699 59.0359 252.248 60.3048 253.319 61.309L254.686 59.8499C254.02 59.2252 253.699 58.4851 253.699 57.566H251.699ZM253.319 61.309C254.291 62.2206 255.462 62.9362 256.814 63.4654L257.543 61.6029C256.398 61.1547 255.452 60.5671 254.686 59.8499L253.319 61.309ZM256.85 63.4786C258.125 63.922 259.992 64.498 262.44 65.2052L262.995 63.2837C260.556 62.5792 258.73 62.015 257.507 61.5896L256.85 63.4786ZM262.459 65.2107C265.688 66.0716 268.293 66.9515 270.29 67.8449L271.107 66.0193C268.978 65.0667 266.262 64.1547 262.975 63.2782L262.459 65.2107ZM270.319 67.8573C272.292 68.6667 273.984 69.878 275.403 71.4999L276.908 70.1829C275.287 68.3299 273.34 66.935 271.078 66.0069L270.319 67.8573ZM275.403 71.4999C276.733 73.0196 277.467 75.0811 277.517 77.7831L279.517 77.7453C279.46 74.6919 278.619 72.1382 276.908 70.1829L275.403 71.4999ZM277.517 77.7642C277.517 80.1189 276.87 82.1969 275.582 84.0306L277.218 85.1805C278.753 82.9962 279.517 80.5133 279.517 77.7642H277.517ZM275.582 84.0306C274.291 85.8673 272.438 87.3345 269.972 88.4131L270.774 90.2455C273.521 89.0437 275.685 87.3617 277.218 85.1805L275.582 84.0306ZM269.965 88.4163C267.569 89.487 264.7 90.0396 261.333 90.0396V92.0396C264.915 92.0396 268.073 91.452 270.781 90.2423L269.965 88.4163ZM383.413 33.7028L384.372 33.987L384.753 32.7028H383.413V33.7028ZM366.636 90.3066V91.3066H367.382L367.594 90.5908L366.636 90.3066ZM356.129 90.3066L355.166 90.5741L355.369 91.3066H356.129V90.3066ZM344.238 47.4669L345.202 47.1994L344.267 43.8315L343.279 47.1842L344.238 47.4669ZM331.615 90.3066L331.622 91.3066L332.364 91.3008L332.574 90.5893L331.615 90.3066ZM321.19 90.3881L320.228 90.6604L320.435 91.394L321.198 91.3881L321.19 90.3881ZM305.145 33.7028V32.7028H303.823L304.183 33.9751L305.145 33.7028ZM315 33.7028L315.969 33.4562L315.777 32.7028H315V33.7028ZM326.728 79.8003L325.759 80.0469L326.689 83.7041L327.692 80.066L326.728 79.8003ZM339.433 33.7028V32.7028H338.672L338.469 33.4371L339.433 33.7028ZM349.858 33.7028L350.827 33.4534L350.633 32.7028H349.858V33.7028ZM361.668 79.556L360.699 79.8054H362.636L361.668 79.556ZM373.477 33.7028V32.7028H372.702L372.509 33.4534L373.477 33.7028ZM382.454 33.4186L365.677 90.0225L367.594 90.5908L384.372 33.987L382.454 33.4186ZM366.636 89.3066H356.129V91.3066H366.636V89.3066ZM357.093 90.0392L345.202 47.1994L343.275 47.7344L355.166 90.5741L357.093 90.0392ZM343.279 47.1842L330.655 90.024L332.574 90.5893L345.198 47.7496L343.279 47.1842ZM331.607 89.3067L321.182 89.3881L321.198 91.3881L331.622 91.3066L331.607 89.3067ZM322.152 90.1157L306.107 33.4305L304.183 33.9751L320.228 90.6604L322.152 90.1157ZM305.145 34.7028H315V32.7028H305.145V34.7028ZM314.031 33.9494L325.759 80.0469L327.697 79.5538L315.969 33.4562L314.031 33.9494ZM327.692 80.066L340.397 33.9685L338.469 33.4371L325.764 79.5346L327.692 80.066ZM339.433 34.7028H349.858V32.7028H339.433V34.7028ZM348.89 33.9522L360.699 79.8054L362.636 79.3066L350.827 33.4534L348.89 33.9522ZM362.636 79.8054L374.445 33.9522L372.509 33.4534L360.699 79.3066L362.636 79.8054ZM373.477 34.7028H383.413V32.7028H373.477V34.7028ZM399.052 88.1891L398.556 89.0574L398.567 89.0632L399.052 88.1891ZM390.989 80.0446L390.115 80.5292L390.118 80.5349L390.989 80.0446ZM399.297 47.5483L398.817 46.671L399.297 47.5483ZM422.59 47.5483L423.07 46.671L422.59 47.5483ZM430.734 79.9632L429.871 79.4585L430.734 79.9632ZM422.264 88.1891L422.738 89.0696L422.743 89.067L422.264 88.1891ZM417.215 81.2663L416.74 80.3858L416.731 80.3911L417.215 81.2663ZM422.346 76.1353L421.477 75.6392L422.346 76.1353ZM422.427 59.6021L421.55 60.0825L421.555 60.0914L422.427 59.6021ZM404.102 54.4711L403.618 53.5958L403.608 53.6014L404.102 54.4711ZM399.297 59.6021L400.178 60.075L400.183 60.0661L399.297 59.6021ZM401.17 79.0673L400.433 79.7437L400.441 79.7515L400.448 79.7592L401.17 79.0673ZM410.536 90.0396C406.457 90.0396 402.798 89.1261 399.538 87.3149L398.567 89.0632C402.148 91.0529 406.145 92.0396 410.536 92.0396V90.0396ZM399.549 87.3208C396.287 85.457 393.728 82.8737 391.861 79.5544L390.118 80.5349C392.16 84.1655 394.977 87.0118 398.556 89.0573L399.549 87.3208ZM391.864 79.5602C390.003 76.1994 389.057 72.2984 389.057 67.828H387.057C387.057 72.588 388.067 76.8314 390.115 80.5292L391.864 79.5602ZM389.057 67.828C389.057 63.4188 390.027 59.5481 391.94 56.1875L390.202 55.1981C388.097 58.896 387.057 63.1154 387.057 67.828H389.057ZM391.94 56.1875C393.86 52.8151 396.469 50.2347 399.777 48.4257L398.817 46.671C395.175 48.6627 392.3 51.5119 390.202 55.1981L391.94 56.1875ZM399.777 48.4257C403.092 46.6124 406.807 45.6978 410.943 45.6978V43.6978C406.501 43.6978 402.451 44.6836 398.817 46.671L399.777 48.4257ZM410.943 45.6978C415.079 45.6978 418.794 46.6124 422.11 48.4257L423.07 46.671C419.436 44.6836 415.386 43.6978 410.943 43.6978V45.6978ZM422.11 48.4257C425.418 50.2347 428.027 52.8151 429.947 56.1875L431.685 55.1981C429.587 51.5119 426.712 48.6627 423.07 46.671L422.11 48.4257ZM429.947 56.1875C431.86 59.5481 432.829 63.4188 432.829 67.828H434.829C434.829 63.1154 433.79 58.896 431.685 55.1981L429.947 56.1875ZM432.829 67.828C432.829 72.2325 431.835 76.0996 429.871 79.4585L431.598 80.4679C433.76 76.7683 434.829 72.5452 434.829 67.828H432.829ZM429.871 79.4585C427.899 82.831 425.209 85.4438 421.785 87.3112L422.743 89.067C426.486 87.0251 429.443 84.154 431.598 80.4679L429.871 79.4585ZM421.79 87.3086C418.417 89.1251 414.672 90.0396 410.536 90.0396V92.0396C414.979 92.0396 419.053 91.0539 422.738 89.0696L421.79 87.3086ZM410.536 83.9766C413.092 83.9766 415.485 83.3648 417.698 82.1416L416.731 80.3911C414.818 81.4483 412.758 81.9766 410.536 81.9766V83.9766ZM417.689 82.1468C419.986 80.9098 421.827 79.0589 423.214 76.6315L421.477 75.6392C420.258 77.7727 418.678 79.3424 416.74 80.3858L417.689 82.1468ZM423.214 76.6315C424.622 74.1676 425.3 71.2184 425.3 67.828H423.3C423.3 70.9531 422.676 73.5421 421.477 75.6392L423.214 76.6315ZM425.3 67.828C425.3 64.4452 424.652 61.5242 423.299 59.1129L421.555 60.0914C422.7 62.1323 423.3 64.6952 423.3 67.828H425.3ZM423.304 59.1218C421.974 56.6928 420.189 54.8371 417.943 53.5959L416.975 55.3464C418.856 56.3856 420.382 57.9505 421.55 60.0824L423.304 59.1218ZM417.943 53.5959C415.729 52.3727 413.336 51.7608 410.78 51.7608V53.7608C413.003 53.7608 415.062 54.2891 416.975 55.3464L417.943 53.5959ZM410.78 51.7608C408.225 51.7608 405.832 52.3727 403.618 53.5959L404.586 55.3464C406.499 54.2891 408.558 53.7608 410.78 53.7608V51.7608ZM403.608 53.6014C401.414 54.847 399.684 56.7077 398.411 59.1381L400.183 60.0661C401.299 57.9356 402.772 56.3756 404.596 55.3408L403.608 53.6014ZM398.416 59.1293C397.124 61.5369 396.505 64.4517 396.505 67.828H398.505C398.505 64.6888 399.081 62.1196 400.178 60.0749L398.416 59.1293ZM396.505 67.828C396.505 72.8247 397.77 76.8438 400.433 79.7437L401.907 78.3909C399.683 75.9698 398.505 72.4961 398.505 67.828H396.505ZM400.448 79.7592C403.142 82.5705 406.529 83.9766 410.536 83.9766V81.9766C407.051 81.9766 404.193 80.7766 401.892 78.3754L400.448 79.7592ZM452.292 51.9463H451.292V55.5814L453.152 52.4578L452.292 51.9463ZM457.668 46.6525L458.157 47.5246L458.164 47.5207L457.668 46.6525ZM465.731 44.6978H466.731V43.6978H465.731V44.6978ZM465.731 54.3082V55.3082H466.731V54.3082H465.731ZM455.061 57.0773L454.365 56.3601L454.359 56.3651L454.354 56.3702L455.061 57.0773ZM452.292 90.3066V91.3066H453.292V90.3066H452.292ZM443.008 90.3066H442.008V91.3066H443.008V90.3066ZM443.008 45.4308V44.4308H442.008V45.4308H443.008ZM452.292 45.4308H453.292V44.4308H452.292V45.4308ZM453.152 52.4578C454.423 50.3217 456.09 48.6842 458.157 47.5246L457.178 45.7803C454.793 47.1183 452.876 49.0101 451.433 51.4349L453.152 52.4578ZM458.164 47.5207C460.268 46.3182 462.779 45.6978 465.731 45.6978V43.6978C462.493 43.6978 459.628 44.3805 457.171 45.7842L458.164 47.5207ZM464.731 44.6978V54.3082H466.731V44.6978H464.731ZM465.731 53.3082H463.369V55.3082H465.731V53.3082ZM463.369 53.3082C459.569 53.3082 456.512 54.2739 454.365 56.3601L455.758 57.7946C457.411 56.1887 459.892 55.3082 463.369 55.3082V53.3082ZM454.354 56.3702C452.222 58.5026 451.292 62.0451 451.292 66.6878H453.292C453.292 62.2087 454.209 59.3442 455.768 57.7844L454.354 56.3702ZM451.292 66.6878V90.3066H453.292V66.6878H451.292ZM452.292 89.3066H443.008V91.3066H452.292V89.3066ZM444.008 90.3066V45.4308H442.008V90.3066H444.008ZM443.008 46.4308H452.292V44.4308H443.008V46.4308ZM451.292 45.4308V51.9463H453.292V45.4308H451.292ZM492.02 67.9094L491.284 67.2323L490.66 67.9107L491.285 68.5879L492.02 67.9094ZM512.707 90.3066V91.3066H514.992L513.441 89.6281L512.707 90.3066ZM500.164 90.3066L499.406 90.959L499.706 91.3066H500.164V90.3066ZM483.55 71.0043L484.308 70.352L482.55 68.3097V71.0043H483.55ZM483.55 90.3066V91.3066H484.55V90.3066H483.55ZM474.265 90.3066H473.265V91.3066H474.265V90.3066ZM474.265 30.0378V29.0378H473.265V30.0378H474.265ZM483.55 30.0378H484.55V29.0378H483.55V30.0378ZM483.55 65.0589H482.55V67.8298L484.319 65.6975L483.55 65.0589ZM499.839 45.4308V44.4308H499.369L499.069 44.7922L499.839 45.4308ZM512.707 45.4308L513.443 46.108L514.986 44.4308H512.707V45.4308ZM491.285 68.5879L511.972 90.9851L513.441 89.6281L492.755 67.2309L491.285 68.5879ZM512.707 89.3066H500.164V91.3066H512.707V89.3066ZM500.922 89.6543L484.308 70.352L482.792 71.6567L499.406 90.959L500.922 89.6543ZM482.55 71.0043V90.3066H484.55V71.0043H482.55ZM483.55 89.3066H474.265V91.3066H483.55V89.3066ZM475.265 90.3066V30.0378H473.265V90.3066H475.265ZM474.265 31.0378H483.55V29.0378H474.265V31.0378ZM482.55 30.0378V65.0589H484.55V30.0378H482.55ZM484.319 65.6975L500.608 46.0694L499.069 44.7922L482.78 64.4203L484.319 65.6975ZM499.839 46.4308H512.707V44.4308H499.839V46.4308ZM511.971 44.7536L491.284 67.2323L492.756 68.5866L513.443 46.108L511.971 44.7536ZM526.122 89.1664L525.696 90.0712L525.706 90.0762L525.717 90.081L526.122 89.1664ZM519.525 83.954L518.717 84.5445L518.725 84.554L519.525 83.954ZM516.918 76.5425V75.5425H515.878L515.919 76.5825L516.918 76.5425ZM526.529 76.5425L527.525 76.4571L527.447 75.5425H526.529V76.5425ZM529.216 81.3478L528.592 82.1286L528.606 82.14L528.621 82.1509L529.216 81.3478ZM541.515 81.755L542.084 82.5772L542.09 82.5728L541.515 81.755ZM541.27 74.0992L540.811 74.9875L540.823 74.9936L541.27 74.0992ZM533.696 71.4115L533.967 70.4489L533.96 70.4471L533.696 71.4115ZM525.47 68.7239L525.09 69.649L525.47 68.7239ZM519.932 64.7331L519.169 65.3801L519.175 65.3867L519.181 65.3932L519.932 64.7331ZM519.769 51.1319L520.58 51.7174L520.587 51.7068L519.769 51.1319ZM525.796 46.4081L525.402 45.4889L525.395 45.492L525.796 46.4081ZM547.216 48.6071L546.572 49.372L546.579 49.3781L546.586 49.3841L547.216 48.6071ZM552.265 59.1134V60.1134H553.315L553.264 59.0647L552.265 59.1134ZM542.981 59.1134L541.984 59.1943L542.058 60.1134H542.981V59.1134ZM540.537 54.3082L541.169 53.533L540.537 54.3082ZM528.972 53.901L528.394 53.085L528.972 53.901ZM528.321 60.5794L527.637 61.309L528.321 60.5794ZM531.497 62.5341L531.133 63.4654L531.15 63.4723L531.168 63.4786L531.497 62.5341ZM537.035 64.2444L536.758 65.2052L536.768 65.208L536.777 65.2107L537.035 64.2444ZM545.017 66.9321L544.608 67.8449L544.623 67.8513L544.637 67.8573L545.017 66.9321ZM550.473 70.8414L549.721 71.4999L550.473 70.8414ZM552.835 77.7642H553.835V77.7548L553.835 77.7453L552.835 77.7642ZM550.718 84.6055L549.9 84.0306L550.718 84.6055ZM544.691 89.3293L544.29 88.4131L544.283 88.4163L544.691 89.3293ZM535.651 90.0396C532.241 90.0396 529.205 89.4368 526.526 88.2519L525.717 90.081C528.685 91.3936 532.002 92.0396 535.651 92.0396V90.0396ZM526.547 88.2616C523.907 87.0191 521.844 85.3793 520.325 83.354L518.725 84.554C520.463 86.8723 522.798 88.7076 525.696 90.0712L526.547 88.2616ZM520.332 83.3635C518.818 81.2951 518.018 79.0157 517.918 76.5026L515.919 76.5825C516.036 79.4991 516.973 82.1606 518.718 84.5445L520.332 83.3635ZM516.918 77.5425H526.529V75.5425H516.918V77.5425ZM525.532 76.6279C525.721 78.8284 526.771 80.6722 528.592 82.1286L529.841 80.5669C528.404 79.4171 527.662 78.0574 527.525 76.4571L525.532 76.6279ZM528.621 82.1509C530.507 83.5507 532.818 84.221 535.488 84.221V82.221C533.162 82.221 531.292 81.6425 529.812 80.5447L528.621 82.1509ZM535.488 84.221C538.199 84.221 540.439 83.716 542.084 82.5772L540.945 80.9328C539.767 81.7486 537.989 82.221 535.488 82.221V84.221ZM542.09 82.5728C543.78 81.3839 544.714 79.7945 544.714 77.8456H542.714C542.714 79.046 542.182 80.0629 540.939 80.9372L542.09 82.5728ZM544.714 77.8456C544.714 76.8359 544.467 75.9076 543.94 75.1004C543.417 74.2976 542.656 73.6738 541.717 73.2048L540.823 74.9936C541.514 75.339 541.974 75.7468 542.265 76.1929C542.553 76.6345 542.714 77.1722 542.714 77.8456H544.714ZM541.73 73.211C540.061 72.3476 537.454 71.4298 533.967 70.4489L533.425 72.3742C536.887 73.3479 539.331 74.2219 540.811 74.9874L541.73 73.211ZM533.96 70.4471C530.615 69.5299 527.916 68.6463 525.85 67.7987L525.09 69.649C527.26 70.5389 530.044 71.4471 533.431 72.3759L533.96 70.4471ZM525.85 67.7987C523.881 66.991 522.16 65.754 520.683 64.073L519.181 65.3932C520.853 67.2958 522.824 68.7193 525.09 69.649L525.85 67.7987ZM520.694 64.0861C519.362 62.5164 518.651 60.403 518.651 57.6474H516.651C516.651 60.7559 517.461 63.3662 519.169 65.3801L520.694 64.0861ZM518.651 57.6474C518.651 55.4707 519.29 53.5033 520.58 51.7174L518.958 50.5464C517.425 52.6698 516.651 55.0461 516.651 57.6474H518.651ZM520.587 51.7068C521.878 49.8701 523.731 48.4029 526.197 47.3243L525.395 45.492C522.648 46.6937 520.483 48.3758 518.951 50.5569L520.587 51.7068ZM526.19 47.3273C528.705 46.2492 531.608 45.6978 534.918 45.6978V43.6978C531.386 43.6978 528.207 44.2866 525.402 45.489L526.19 47.3273ZM534.918 45.6978C539.849 45.6978 543.7 46.954 546.572 49.372L547.86 47.8422C544.542 45.0478 540.194 43.6978 534.918 43.6978V45.6978ZM546.586 49.3841C549.491 51.7378 551.062 54.9624 551.266 59.1622L553.264 59.0647C553.035 54.3599 551.239 50.5803 547.845 47.8302L546.586 49.3841ZM552.265 58.1134H542.981V60.1134H552.265V58.1134ZM543.977 59.0326C543.794 56.7721 542.861 54.9118 541.169 53.533L539.906 55.0835C541.145 56.0936 541.841 57.4369 541.984 59.1943L543.977 59.0326ZM541.169 53.533C539.474 52.1522 537.245 51.5164 534.592 51.5164V53.5164C536.934 53.5164 538.668 54.0752 539.906 55.0835L541.169 53.533ZM534.592 51.5164C532.044 51.5164 529.934 51.9941 528.394 53.085L529.55 54.717C530.616 53.9619 532.253 53.5164 534.592 53.5164V51.5164ZM528.394 53.085C526.842 54.1843 526.017 55.7025 526.017 57.566H528.017C528.017 56.3889 528.496 55.4637 529.55 54.717L528.394 53.085ZM526.017 57.566C526.017 59.0359 526.566 60.3048 527.637 61.309L529.005 59.8499C528.338 59.2252 528.017 58.4851 528.017 57.566H526.017ZM527.637 61.309C528.609 62.2206 529.78 62.9362 531.133 63.4654L531.861 61.6029C530.716 61.1547 529.77 60.5671 529.005 59.8499L527.637 61.309ZM531.168 63.4786C532.443 63.922 534.31 64.498 536.758 65.2052L537.313 63.2837C534.874 62.5792 533.048 62.015 531.825 61.5896L531.168 63.4786ZM536.777 65.2107C540.006 66.0716 542.611 66.9515 544.608 67.8449L545.425 66.0193C543.296 65.0667 540.58 64.1547 537.293 63.2782L536.777 65.2107ZM544.637 67.8573C546.61 68.6667 548.302 69.878 549.721 71.4999L551.226 70.1829C549.605 68.3299 547.658 66.935 545.396 66.0069L544.637 67.8573ZM549.721 71.4999C551.051 73.0196 551.785 75.0811 551.836 77.7831L553.835 77.7453C553.778 74.6919 552.937 72.1382 551.226 70.1829L549.721 71.4999ZM551.835 77.7642C551.835 80.1189 551.188 82.1969 549.9 84.0306L551.536 85.1805C553.071 82.9962 553.835 80.5133 553.835 77.7642H551.835ZM549.9 84.0306C548.609 85.8673 546.756 87.3345 544.29 88.4131L545.092 90.2455C547.839 89.0437 550.003 87.3617 551.536 85.1805L549.9 84.0306ZM544.283 88.4163C541.887 89.487 539.018 90.0396 535.651 90.0396V92.0396C539.233 92.0396 542.391 91.452 545.099 90.2423L544.283 88.4163Z" fill="#BE942A" mask="url(#path-1-outside-1_742_9195)"/>
<path d="M52.0248 33.7028V90.3066H42.7401V65.5475H16.1078V90.3066H6.82317V33.7028H16.1078V57.9732H42.7401V33.7028H52.0248ZM83.713 91.0396C79.4779 91.0396 75.65 90.0895 72.2294 88.1891C68.8087 86.2344 66.121 83.5196 64.1664 80.0446C62.2117 76.5154 61.2344 72.4432 61.2344 67.828C61.2344 63.2671 62.2389 59.222 64.2478 55.6928C66.2568 52.1635 68.9987 49.4487 72.4737 47.5483C75.9487 45.648 79.8308 44.6978 84.1202 44.6978C88.4097 44.6978 92.2918 45.648 95.7668 47.5483C99.2418 49.4487 101.984 52.1635 103.993 55.6928C106.002 59.222 107.006 63.2671 107.006 67.828C107.006 72.3889 105.974 76.4339 103.911 79.9632C101.848 83.4925 99.0246 86.2344 95.441 88.1891C91.9118 90.0895 88.0024 91.0396 83.713 91.0396ZM83.713 82.9766C86.1021 82.9766 88.3282 82.4065 90.3915 81.2663C92.509 80.1261 94.2194 78.4158 95.5225 76.1353C96.8256 73.8549 97.4771 71.0858 97.4771 67.828C97.4771 64.5702 96.8527 61.8283 95.6039 59.6021C94.3551 57.3217 92.6991 55.6113 90.6358 54.4711C88.5725 53.3309 86.3464 52.7608 83.9574 52.7608C81.5683 52.7608 79.3422 53.3309 77.2789 54.4711C75.27 55.6113 73.6682 57.3217 72.4737 59.6021C71.2792 61.8283 70.6819 64.5702 70.6819 67.828C70.6819 72.6604 71.9036 76.4068 74.3469 79.0673C76.8446 81.6735 79.9666 82.9766 83.713 82.9766ZM135.65 91.0396C131.415 91.0396 127.587 90.0895 124.166 88.1891C120.745 86.2344 118.058 83.5196 116.103 80.0446C114.148 76.5154 113.171 72.4432 113.171 67.828C113.171 63.2671 114.176 59.222 116.185 55.6928C118.193 52.1635 120.935 49.4487 124.41 47.5483C127.885 45.648 131.768 44.6978 136.057 44.6978C140.346 44.6978 144.229 45.648 147.703 47.5483C151.178 49.4487 153.92 52.1635 155.929 55.6928C157.938 59.222 158.943 63.2671 158.943 67.828C158.943 72.3889 157.911 76.4339 155.848 79.9632C153.785 83.4925 150.961 86.2344 147.378 88.1891C143.848 90.0895 139.939 91.0396 135.65 91.0396ZM135.65 82.9766C138.039 82.9766 140.265 82.4065 142.328 81.2663C144.446 80.1261 146.156 78.4158 147.459 76.1353C148.762 73.8549 149.414 71.0858 149.414 67.828C149.414 64.5702 148.789 61.8283 147.541 59.6021C146.292 57.3217 144.636 55.6113 142.572 54.4711C140.509 53.3309 138.283 52.7608 135.894 52.7608C133.505 52.7608 131.279 53.3309 129.216 54.4711C127.207 55.6113 125.605 57.3217 124.41 59.6021C123.216 61.8283 122.619 64.5702 122.619 67.828C122.619 72.6604 123.84 76.4068 126.284 79.0673C128.781 81.6735 131.903 82.9766 135.65 82.9766ZM165.026 67.6651C165.026 63.1585 165.949 59.1677 167.795 55.6928C169.696 52.2178 172.248 49.5302 175.451 47.6298C178.709 45.6751 182.32 44.6978 186.283 44.6978C189.215 44.6978 192.093 45.3493 194.916 46.6525C197.794 47.9013 200.075 49.5845 201.758 51.702V30.0378H211.124V90.3066H201.758V83.5468C200.237 85.7186 198.12 87.5104 195.405 88.9221C192.745 90.3338 189.677 91.0396 186.202 91.0396C182.293 91.0396 178.709 90.0623 175.451 88.1076C172.248 86.0987 169.696 83.3296 167.795 79.8003C165.949 76.2168 165.026 72.1717 165.026 67.6651ZM201.758 67.828C201.758 64.7331 201.106 62.0454 199.803 59.765C198.554 57.4846 196.898 55.7471 194.835 54.5526C192.772 53.358 190.546 52.7608 188.157 52.7608C185.767 52.7608 183.541 53.358 181.478 54.5526C179.415 55.6928 177.732 57.4031 176.429 59.6836C175.18 61.9097 174.555 64.5702 174.555 67.6651C174.555 70.76 175.18 73.4748 176.429 75.8095C177.732 78.1443 179.415 79.9361 181.478 81.1849C183.596 82.3794 185.822 82.9766 188.157 82.9766C190.546 82.9766 192.772 82.3794 194.835 81.1849C196.898 79.9904 198.554 78.2529 199.803 75.9724C201.106 73.6377 201.758 70.9229 201.758 67.828ZM224.785 33.7028H234.884L226.332 53.0866H219.817L224.785 33.7028ZM259.333 91.0396C255.803 91.0396 252.627 90.4152 249.804 89.1664C247.034 87.8633 244.835 86.1258 243.207 83.954C241.578 81.7278 240.709 79.2574 240.6 76.5425H250.211C250.374 78.4429 251.27 80.0446 252.898 81.3478C254.582 82.5966 256.672 83.221 259.17 83.221C261.776 83.221 263.785 82.7323 265.197 81.755C266.663 80.7234 267.396 79.4202 267.396 77.8457C267.396 76.1625 266.581 74.9137 264.952 74.0992C263.378 73.2848 260.853 72.3889 257.378 71.4115C254.012 70.4885 251.27 69.5926 249.152 68.7239C247.034 67.8551 245.188 66.5249 243.614 64.7331C242.093 62.9413 241.333 60.5794 241.333 57.6474C241.333 55.2584 242.039 53.0866 243.451 51.1319C244.863 49.1229 246.872 47.5483 249.478 46.4081C252.138 45.2679 255.179 44.6978 258.6 44.6978C263.703 44.6978 267.803 46.0009 270.898 48.6071C274.047 51.159 275.73 54.6612 275.947 59.1134H266.663C266.5 57.1045 265.685 55.5027 264.219 54.3082C262.753 53.1137 260.771 52.5164 258.274 52.5164C255.83 52.5164 253.957 52.978 252.654 53.901C251.351 54.824 250.699 56.0457 250.699 57.566C250.699 58.7605 251.134 59.765 252.003 60.5794C252.871 61.3939 253.93 62.0454 255.179 62.5341C256.428 62.9685 258.274 63.5386 260.717 64.2444C263.975 65.1132 266.635 66.0091 268.699 66.9321C270.816 67.8008 272.635 69.104 274.155 70.8414C275.676 72.5789 276.463 74.8865 276.517 77.7642C276.517 80.3161 275.811 82.5966 274.4 84.6055C272.988 86.6145 270.979 88.1891 268.373 89.3293C265.821 90.4695 262.808 91.0396 259.333 91.0396Z" fill="black"/>
<path d="M381.413 33.7028L364.636 90.3066H354.129L342.238 47.4669L329.615 90.3066L319.19 90.3881L303.145 33.7028H313L324.728 79.8003L337.433 33.7028H347.858L359.668 79.556L371.477 33.7028H381.413ZM408.536 91.0396C404.301 91.0396 400.473 90.0895 397.052 88.1891C393.632 86.2344 390.944 83.5196 388.989 80.0446C387.035 76.5154 386.057 72.4432 386.057 67.828C386.057 63.2671 387.062 59.222 389.071 55.6928C391.08 52.1635 393.822 49.4487 397.297 47.5483C400.772 45.648 404.654 44.6978 408.943 44.6978C413.233 44.6978 417.115 45.648 420.59 47.5483C424.065 49.4487 426.807 52.1635 428.816 55.6928C430.825 59.222 431.829 63.2671 431.829 67.828C431.829 72.3889 430.798 76.4339 428.734 79.9632C426.671 83.4925 423.848 86.2344 420.264 88.1891C416.735 90.0895 412.825 91.0396 408.536 91.0396ZM408.536 82.9766C410.925 82.9766 413.151 82.4065 415.215 81.2663C417.332 80.1261 419.042 78.4158 420.346 76.1353C421.649 73.8549 422.3 71.0858 422.3 67.828C422.3 64.5702 421.676 61.8283 420.427 59.6021C419.178 57.3217 417.522 55.6113 415.459 54.4711C413.396 53.3309 411.169 52.7608 408.78 52.7608C406.391 52.7608 404.165 53.3309 402.102 54.4711C400.093 55.6113 398.491 57.3217 397.297 59.6021C396.102 61.8283 395.505 64.5702 395.505 67.828C395.505 72.6604 396.727 76.4068 399.17 79.0673C401.668 81.6735 404.79 82.9766 408.536 82.9766ZM450.292 51.9463C451.65 49.6659 453.441 47.9013 455.668 46.6525C457.948 45.3493 460.636 44.6978 463.731 44.6978V54.3082H461.369C457.731 54.3082 454.962 55.2313 453.061 57.0773C451.215 58.9234 450.292 62.1269 450.292 66.6878V90.3066H441.008V45.4308H450.292V51.9463ZM490.02 67.9094L510.707 90.3066H498.164L481.55 71.0043V90.3066H472.265V30.0378H481.55V65.0589L497.839 45.4308H510.707L490.02 67.9094ZM533.651 91.0396C530.121 91.0396 526.945 90.4152 524.122 89.1664C521.352 87.8633 519.153 86.1258 517.525 83.954C515.896 81.7278 515.027 79.2574 514.918 76.5425H524.529C524.692 78.4429 525.588 80.0446 527.216 81.3478C528.9 82.5966 530.99 83.221 533.488 83.221C536.094 83.221 538.103 82.7323 539.515 81.755C540.981 80.7234 541.714 79.4202 541.714 77.8457C541.714 76.1625 540.899 74.9137 539.27 74.0992C537.696 73.2848 535.171 72.3889 531.696 71.4115C528.33 70.4885 525.588 69.5926 523.47 68.7239C521.352 67.8551 519.506 66.5249 517.932 64.7331C516.412 62.9413 515.651 60.5794 515.651 57.6474C515.651 55.2584 516.357 53.0866 517.769 51.1319C519.181 49.1229 521.19 47.5483 523.796 46.4081C526.456 45.2679 529.497 44.6978 532.918 44.6978C538.021 44.6978 542.121 46.0009 545.216 48.6071C548.365 51.159 550.048 54.6612 550.265 59.1134H540.981C540.818 57.1045 540.003 55.5027 538.537 54.3082C537.071 53.1137 535.089 52.5164 532.592 52.5164C530.148 52.5164 528.275 52.978 526.972 53.901C525.669 54.824 525.017 56.0457 525.017 57.566C525.017 58.7605 525.452 59.765 526.321 60.5794C527.189 61.3939 528.248 62.0454 529.497 62.5341C530.746 62.9685 532.592 63.5386 535.035 64.2444C538.293 65.1132 540.953 66.0091 543.017 66.9321C545.134 67.8008 546.953 69.104 548.473 70.8414C549.994 72.5789 550.781 74.8865 550.835 77.7642C550.835 80.3161 550.129 82.5966 548.718 84.6055C547.306 86.6145 545.297 88.1891 542.691 89.3293C540.139 90.4695 537.126 91.0396 533.651 91.0396Z" fill="#FBB90F"/>
</svg>
