<svg width="51" height="51" viewBox="0 0 51 51" fill="none" xmlns="http://www.w3.org/2000/svg">
<circle cx="25.6328" cy="25.6328" r="25.3672" fill="#0E0E0E"/>
<path d="M40.8033 24.2277C40.6222 22.3674 40.0443 20.5692 39.1094 18.9572C38.1336 17.3252 36.882 15.8794 35.4118 14.6859C35.4118 14.8034 35.4118 14.8426 35.4118 14.8818C35.4118 16.606 35.4118 18.34 35.4118 20.0642C35.43 20.2182 35.476 20.3676 35.5473 20.505C35.9151 21.3769 36.2829 22.239 36.6411 23.1109C36.6932 23.3044 36.7353 23.5006 36.7669 23.6987H36.6314H31.7045C31.4819 23.6987 31.4529 23.5909 31.4529 23.4146C31.4529 22.719 31.4529 22.0235 31.4529 21.3279C31.4529 17.9089 31.4529 14.4704 31.4529 11.0808C31.4424 10.9152 31.3737 10.7588 31.2593 10.6399C30.088 9.50353 28.9168 8.38674 27.7359 7.26014C27.6773 7.21682 27.6158 7.17754 27.552 7.14258V44.1048C28.791 42.9292 30.0203 41.7503 31.2399 40.5682C31.3781 40.424 31.4546 40.2304 31.4529 40.0294C31.4529 36.0194 31.4529 32.0093 31.4529 27.9993V27.5193H36.6798C36.6798 27.5193 36.6798 27.5781 36.6798 27.5977C36.6798 27.6173 36.6798 27.7838 36.6798 27.872C36.4564 28.8794 36.0844 29.847 35.5763 30.7423C35.4799 30.9086 35.4297 31.0982 35.4311 31.2909C35.4311 32.9368 35.4311 34.5826 35.4311 36.1892C35.4311 36.2969 35.4311 36.4047 35.4311 36.5321C37.2955 35.1209 38.7692 33.2474 39.7101 31.0922C40.6511 28.9371 41.0275 26.5729 40.8033 24.2277Z" fill="white"/>
<path d="M26.1289 7.19141V43.5266C26.1289 44.1242 26.1289 44.1242 25.5191 44.1242H10.9998C10.419 44.1242 10.4094 44.1242 10.4094 43.556C10.4094 38.599 10.4094 33.6419 10.4094 28.6849C10.3786 28.4953 10.4235 28.301 10.5343 28.1448C10.645 27.9887 10.8124 27.8834 10.9998 27.8522C13.8456 26.9215 16.6817 25.9419 19.5178 24.9916L20.1276 24.7957C20.1276 24.9818 20.1276 25.1092 20.1276 25.2463C20.1276 26.3534 20.1276 27.4604 20.1276 28.5674C20.1276 28.9004 19.9921 29.018 19.7017 29.116C18.0562 29.6548 16.43 30.223 14.7942 30.7716C14.5425 30.8499 14.3973 30.9479 14.407 31.2516C14.407 34.0926 14.407 36.9336 14.407 39.7746C14.407 39.8725 14.407 39.9705 14.407 40.0978H22.0248C22.0248 39.9019 22.0248 39.706 22.0248 39.51V16.5177C22.0248 14.6171 22.0248 12.7264 22.0248 10.8259C22.0176 10.6841 22.0468 10.5427 22.1096 10.4157C22.1723 10.2887 22.2665 10.1802 22.3829 10.101C23.467 9.25846 24.5318 8.39637 25.5965 7.55388L26.1289 7.19141Z" fill="white"/>
</svg>
