<svg width="1055" height="501" viewBox="0 0 1055 501" fill="none" xmlns="http://www.w3.org/2000/svg">
<path d="M1.29199 498.562C16.8849 497.886 30.0628 499.188 45.6557 498.51C56.8021 498.026 89.6767 499.149 92.0116 497.719C93.8654 496.585 94.8277 494.361 94.9896 492.193C95.15 490.026 94.6264 484.727 94.106 482.617C92.9739 478.024 91.8418 473.432 90.7097 468.84C89.8779 465.468 88.8937 461.845 86.1876 459.669C82.3637 456.59 76.3793 457.759 72.7299 461.043C69.0821 464.328 67.2723 469.156 65.8761 473.863C64.5003 478.504 63.3965 486.372 62.5726 491.143C62.4153 492.052 62.3179 493.123 62.9814 493.765C63.7188 494.477 65.0254 494.177 65.7126 493.417C66.3997 492.657 66.6308 491.6 66.8352 490.597C68.4233 482.809 70.0113 471.878 71.5994 464.09C71.9422 462.41 72.2567 460.543 71.3683 459.076C70.5003 457.641 68.6953 457.026 67.0192 457.021C65.3431 457.017 63.7094 457.506 62.0537 457.764C60.516 458.004 58.2879 457.338 58.626 455.817C58.854 454.789 60.1307 454.461 61.1763 454.343C70.8195 453.261 80.5901 453.333 90.216 454.557C91.1547 454.676 92.2475 454.756 92.9031 454.074C93.7679 453.176 93.2428 451.705 92.716 450.576C85.9628 436.114 89.2081 418.913 90.6358 403.549C91.6452 392.691 92.3198 381.805 92.9126 370.917C94.0981 349.134 95.0164 327.321 97.6202 305.648C98.7177 296.511 99.6658 287.355 100.895 278.233C101.504 273.718 102.183 269.21 102.98 264.724C103.383 262.457 103.982 260.187 104.29 257.91C104.556 255.944 104.642 254.166 106.317 252.776C106.744 252.422 107.263 252.125 107.818 252.15C108.443 252.178 110.006 253.724 110.462 254.226C111.422 255.283 111.855 256.773 112.241 258.113C126.882 308.77 141.039 359.567 154.709 410.495C159.198 427.213 163.879 445.67 173.44 460.34C173.95 461.122 174.48 462.07 174.13 462.936C173.75 463.881 172.558 464.151 171.542 464.235C169.619 464.392 167.681 464.346 165.769 464.098C163.828 463.845 161.836 463.344 160.35 462.072C157.699 459.801 156.99 453.41 156.207 450.228C154.871 444.792 153.533 439.356 152.195 433.922C149.52 423.05 146.846 412.179 144.171 401.307C138.822 379.565 133.473 357.821 128.124 336.079C125.471 325.295 122.817 314.511 120.164 303.727C118.075 295.237 115.987 286.744 113.897 278.252C112.853 274.007 111.807 269.762 110.763 265.515C110.004 262.427 109.568 257.984 106.93 255.796C104.559 253.831 101.971 254.78 100.178 257.002C98.8419 258.657 98.1862 260.746 97.6013 262.791C91.183 285.267 90.1893 308.885 89.2364 332.242C88.6248 347.239 86.6766 362.025 85.5587 377.007C84.414 392.342 83.7961 407.715 83.7033 423.092C83.6703 428.527 83.1593 434.176 83.6499 439.543C83.947 442.788 84.0461 446.662 81.4266 448.6C79.8495 449.767 77.741 449.83 75.7787 449.846C71.6749 449.879 67.5726 449.912 63.4688 449.945C61.0537 449.964 58.4719 449.935 56.4687 448.587C53.8115 446.799 53.0174 443.309 52.4388 440.158C46.3869 407.064 47.5158 372.221 46.1353 338.553C44.8208 306.511 43.5787 273.82 52.3901 242.988C56.975 226.942 57.203 215.336 61.1622 199.126C61.6355 197.186 62.1685 195.155 63.5427 193.707C65.1245 192.04 67.5145 191.461 69.7818 191.091C76.1262 190.055 82.9879 189.57 89.3858 190.176C90.2427 190.256 91.3072 190.545 91.4377 191.396C91.5305 191.997 91.0713 192.537 90.5981 192.92C88.7506 194.421 87.2301 196.821 85.6499 198.646C80.3354 204.782 74.013 210.046 67.0019 214.139C66.3226 214.535 65.5475 214.935 64.7849 214.741C63.3745 214.384 63.1905 212.481 63.31 211.031C63.6386 207.028 64.1512 202.636 67.0805 199.888C69.4264 197.688 72.8007 197.062 75.9815 196.592C86.5037 195.036 97.1217 194.133 107.755 193.888C109.232 193.853 108.872 191.665 109.021 190.196C109.267 187.772 109.513 185.35 109.759 182.926C109.925 181.281 110.727 178.701 109.144 177.555C108.249 176.908 107.092 176.782 105.993 176.679C104.238 176.512 102.483 176.345 100.727 176.18C100.367 176.145 99.9677 176.09 99.7428 175.807C98.9346 174.785 101.375 173.616 102.057 173.289C103.598 172.548 105.815 172.764 107.499 172.672C111.628 172.447 115.763 172.364 119.897 172.384C128.183 172.425 136.462 172.885 144.728 173.467C150.105 173.844 155.478 174.275 160.852 174.679C163.726 174.895 167.038 174.937 168.967 172.795C170.407 171.195 170.597 168.86 170.649 166.708C170.786 161.144 170.495 155.57 169.783 150.051C169.527 148.072 169.747 145.117 167.915 144.031C165.902 142.839 163.316 141.96 161.014 141.588C158.376 141.164 155.478 141.574 153.429 143.29C151.786 144.667 150.869 146.696 149.776 148.539C147.088 153.072 140.816 160.764 134.8 157.17C132.264 155.655 131.383 152.212 132.117 149.349C132.852 146.487 134.872 144.13 137.059 142.144C139.246 140.157 141.674 138.416 143.61 136.182C146.229 133.164 147.879 129.329 150.857 126.665C154.956 122.997 160.791 122.183 166.253 121.55C168.456 121.293 171.005 121.155 172.552 122.743C173.891 124.12 173.94 126.271 173.788 128.187C173.575 130.861 173.134 133.516 172.469 136.115C172.091 137.593 171.579 139.149 170.379 140.091C168.789 141.34 166.49 141.121 164.58 140.461C162.67 139.8 160.858 138.759 158.85 138.526C155.571 138.144 152.393 140.02 150.155 142.449C147.918 144.877 146.379 147.853 144.486 150.559C141.679 154.568 138.044 157.988 133.897 160.585C130.33 162.82 126.221 163.98 122.232 165.207C117.998 166.51 113.828 168.012 109.562 169.295C100.161 172.125 90.7286 174.843 81.2631 177.449C76.0334 178.888 70.7755 180.298 65.4028 181.048C63.1433 181.363 60.6889 181.525 58.7282 180.356C57.0536 179.359 56.0395 177.564 55.1841 175.812C51.6181 168.514 48.3083 159.185 48.5756 151.024C48.8633 142.216 49.258 133.384 49.3287 124.585C49.3932 116.631 48.8036 107.499 50.7328 99.7223C52.2234 93.717 55.8414 88.2637 60.7927 84.5579C65.2503 81.2218 70.7959 79.512 76.3668 79.597C78.9611 79.6363 82.0917 80.5297 82.6908 83.0542C83.1908 85.1651 81.609 87.1343 80.2772 88.8457C75.6026 94.8573 72.8793 102.2 71.3793 109.668C70.5664 113.715 70.0931 117.822 69.7786 121.937C69.5302 125.175 69.0192 128.491 69.645 131.718C69.8777 132.919 70.2503 134.619 71.4044 135.292C72.2331 135.775 73.3542 135.726 74.2472 136.167C79.0869 138.559 82.3039 144.026 82.3543 149.374C82.3668 150.79 82.1137 152.341 81.0555 153.281C80.0869 154.142 78.6954 154.279 77.4045 154.376C74.0633 154.626 70.7221 154.876 67.3824 155.127C65.7487 155.249 64.0836 155.369 62.494 154.971C60.7864 154.543 58.2895 153.241 57.5442 151.531C57.2659 150.891 57.3477 150.136 57.1747 149.462C56.843 148.176 56.1008 146.985 55.5631 145.779C54.8366 144.152 54.3083 142.293 54.887 140.61C55.3587 139.237 56.5238 138.18 57.8493 137.587C59.1732 136.994 60.648 136.819 62.0993 136.797C68.4374 136.697 74.7646 139.492 78.958 144.245C80.3307 145.801 81.48 147.545 82.9014 149.054C84.3244 150.562 86.1027 151.856 88.1531 152.166C90.9959 152.594 94.2129 151.771 97.0352 151.411C100.468 150.974 103.9 150.537 107.333 150.099C114.101 149.238 120.872 148.376 127.641 147.512C127.822 147.488 128.014 147.462 128.152 147.344C128.402 147.131 128.358 146.71 128.15 146.457C127.943 146.203 127.622 146.076 127.317 145.955C122.847 144.184 118.613 141.818 114.762 138.938C113.619 138.082 112.474 137.14 111.839 135.86C111.205 134.58 111.216 132.875 112.229 131.868C114.347 111.629 117.608 94.3304 123.15 74.7508C122.605 74.5007 122.63 74.6675 123.201 74.485C123.773 74.3041 124.375 74.5967 124.904 74.8814C129.663 77.4468 134.421 80.0122 139.18 82.5792C140.573 83.3295 142.047 84.1615 142.764 85.5724C143.41 86.8465 143.309 88.3958 142.819 89.7359C142.328 91.0776 141.482 92.2542 140.647 93.4118C136.44 99.2473 132.231 105.084 128.023 110.92C122.779 118.193 117.534 125.466 112.29 132.739C111.616 111.996 114.619 91.1374 121.117 71.4273C118.848 69.6577 118.591 65.5509 119.179 62.7338C119.767 59.9167 121.257 57.3859 122.403 54.7466C126.402 45.5529 126.125 34.6007 121.666 25.621C120.688 23.6517 120.564 23.0257 118.539 22.1716C116.513 21.3159 114.229 21.3553 112.045 21.5975C104.845 22.3981 97.4472 25.7154 93.9409 32.0558C93.5006 32.8532 93.3544 34.1918 94.2491 34.3632C94.6154 34.434 94.9739 34.2311 95.2852 34.0266C100.078 30.8792 103.138 25.2498 103.175 19.515C103.182 18.5759 102.856 17.3616 101.921 17.305C101.211 17.2626 100.664 18.0285 100.686 18.7379C100.708 19.4473 101.128 20.0781 101.57 20.6333C103.68 23.2962 106.738 25.319 110.117 25.6808C113.495 26.0425 117.135 24.531 118.853 21.6006C120.46 18.8606 120.224 15.3971 119.328 12.3488C117.199 5.10081 111.664 0.981351 104.13 1.87948C91.694 3.36116 82.109 11.5859 77.5334 23.043C74.9642 29.4762 73.4422 36.3372 70.2771 42.4983C69.1497 44.6941 67.8509 46.8427 66.4327 48.8639C65.2298 50.5783 63.56 51.6401 62.4059 53.4269C59.7691 57.5102 58.3681 62.3925 58.4971 67.2559C58.5662 69.8528 59.093 72.5252 60.5993 74.6423C63.7062 79.0087 68.7063 79.2037 73.5711 78.5478C76.0334 78.2159 78.3181 77.5805 80.7914 77.5412C83.9754 77.4908 87.2317 77.214 90.1641 75.8707C93.9409 74.1405 97.0117 70.1202 96.2491 66.0353C95.6296 62.7181 92.8009 60.332 91.0761 57.4315C89.6358 55.0092 88.9597 52.1371 89.1688 49.3263C89.304 47.5112 89.7946 45.7417 89.999 43.9328C90.2034 42.124 90.0902 40.1909 89.1232 38.651C88.1562 37.1095 86.142 36.1249 84.4502 36.7918C82.3763 37.6097 81.7819 40.3592 82.3039 42.5266C83.2128 46.2985 86.7537 49.2744 90.6232 49.5198C91.0179 52.1796 91.5069 54.7418 92.8277 57.0839C94.1484 59.426 96.2019 61.4377 98.7538 62.2871C101.131 82.9032 102.455 103.754 104.834 124.37C105.271 128.162 105.708 132.017 105.064 135.78C95.8796 119.299 86.6452 102.7 80.631 84.8159C80.2457 83.6692 79.8731 82.4172 80.2725 81.2753C81.0256 79.1251 83.8118 78.7476 86.0367 78.2616C93.128 76.7107 98.757 70.0164 99.0699 62.7621C106.339 65.845 115.488 63.6948 120.622 57.6958C128.908 48.0129 126.485 35.7867 119.666 25.0186C124.32 19.8295 124.146 11.0212 119.289 6.02253C124.944 8.51402 130.715 11.081 135.237 15.2948C139.759 19.5087 142.875 25.7531 141.74 31.8293C141.278 34.3066 140.141 36.6471 139.932 39.1606C139.584 43.343 141.839 47.2737 144.276 50.69C146.713 54.1048 149.487 57.4756 150.438 61.562C151.839 67.5799 148.614 74.2286 143.248 77.2848C137.88 80.3409 130.839 79.8706 125.63 76.5502C124.391 75.7606 123.135 74.1531 124.039 72.9939C124.576 72.3049 125.583 72.2562 126.455 72.2829C133.655 72.5 141.012 73.8385 147.133 77.6371C159.486 85.3035 161.928 102.399 164.794 115.602C168.2 131.287 169.763 147.37 169.468 163.419C169.401 167.111 168.712 171.59 165.286 172.962C163.729 173.585 161.898 173.383 160.434 174.201C158.239 175.43 157.769 178.384 157.951 180.892C158.133 183.401 158.692 186.051 157.655 188.343C156.758 190.328 154.781 191.659 152.695 192.29C150.61 192.92 148.396 192.946 146.218 192.966C138.489 193.038 130.759 193.109 123.029 193.181C126.694 194.597 130.158 196.452 133.798 197.935C137.583 199.476 141.481 200.736 145.451 201.702C146.484 201.954 147.602 202.232 148.27 203.061C148.709 203.605 148.883 204.308 149.047 204.988C149.559 207.116 150.072 209.244 150.585 211.372C150.838 212.421 151 213.741 150.133 214.383C149.341 214.969 148.226 214.57 147.335 214.147C142.092 211.655 136.992 208.865 132.064 205.796C129.836 204.409 127.496 203.286 125.293 201.82C123.061 200.334 120.921 198.706 118.933 196.903C117.936 195.999 116.979 195.052 116.068 194.061C115.476 193.414 114.886 192.724 114.63 191.885C114.373 191.047 114.528 190.022 115.221 189.484C115.694 189.117 116.322 189.035 116.916 188.969C124.062 188.18 131.265 187.908 138.451 188.154C141.333 188.254 144.424 188.515 146.658 190.339C153.35 195.807 154.399 211.004 156.358 218.834C159.177 230.101 161.904 241.391 164.534 252.705C172.159 285.491 178.833 318.294 183.956 351.556C187.453 374.266 190.95 396.976 194.448 419.685C196.36 432.102 197.44 442.98 196.499 455.507C194.345 452.167 189.118 452.518 185.863 454.797C182.61 457.076 180.525 460.652 177.659 463.404C180.58 461.339 183.579 459.238 187.024 458.272C188.206 457.94 189.286 457.981 190.464 457.885C191.944 457.764 193.324 457.331 194.834 457.432C196.401 457.536 198.002 458.118 199.011 459.323C199.841 460.315 200.189 461.613 200.527 462.862C201.887 467.876 203.669 473.115 207.675 476.423C209.862 478.229 212.56 479.316 214.81 481.043C216.788 482.559 218.795 484.079 219.526 486.597C220.317 489.324 219.074 492.536 217.394 494.435C215.606 496.453 212.865 497.404 210.18 497.628C207.494 497.853 204.802 497.434 202.125 497.137C195.873 496.445 189.547 496.416 183.289 497.054C179.67 497.422 176.3 497.978 173.693 495.441C171.899 493.695 171.539 489.404 171.407 486.904C171.064 480.389 171.585 473.828 172.951 467.448C173.104 466.737 173.421 465.88 174.145 465.8C174.843 465.723 175.341 466.442 175.646 467.075C177.244 470.396 178.149 474.048 178.291 477.73C178.374 479.917 178.192 482.116 178.458 484.288C178.723 486.46 179.505 490.248 181.16 491.677C183.357 493.573 186.583 498.631 189.484 498.648C218.587 498.648 245.271 495.921 274.298 497.529C290.508 498.427 311.706 496.777 327.915 497.675C329.301 497.752 328.62 494.878 328.711 493.494C328.801 492.132 326.94 492.909 325.58 492.794C317.912 492.146 312.399 494.268 304.747 494.501C300.928 494.617 296.2 495.278 292.346 495.366C288.407 495.455 282.212 496.572 278.309 496.039C277.048 493.744 279.118 487.772 281.017 485.971C284.731 482.447 290.149 482.282 293.857 478.493C297.317 474.956 299.396 469.996 299.14 465.021C298.926 460.869 301.723 460.155 305.319 459.958C309.921 459.705 314.524 459.453 319.127 459.2C320.499 459.124 322.036 459.107 323.038 460.046C323.854 460.812 324.072 462.003 324.249 463.109C325.385 470.253 326.522 477.397 327.657 484.539C327.722 484.947 327.775 485.408 327.524 485.736C327.172 486.196 326.401 486.09 325.994 485.68C325.588 485.268 325.45 484.67 325.329 484.105C323.679 476.393 321.774 468.861 320.865 461.028C319.918 452.874 319.469 444.663 319.519 436.456C319.594 424.277 321.266 411.986 321.785 399.797C322.33 386.962 322.566 374.115 322.494 361.267C322.429 349.864 322.544 338.451 323.247 327.066C323.552 322.119 323.645 317.515 324.39 312.532C325.47 305.298 326.849 298.195 328.121 290.991C328.318 289.875 328.529 288.725 329.137 287.768C329.393 287.366 329.786 286.976 330.263 286.996C331.051 287.031 331.326 288.047 331.371 288.835C331.67 293.948 331.143 298.875 330.992 303.971C330.827 309.522 330.664 315.074 330.499 320.625C330.17 331.728 329.84 342.83 329.511 353.933C329.357 359.152 329.201 364.369 329.047 369.588C328.69 381.648 326.634 391.809 326.267 403.868C325.815 418.811 326.708 433.832 324.901 448.672C324.639 450.824 324.211 453.172 322.547 454.56C320.887 455.944 318.511 455.944 316.351 455.875C311.632 455.724 306.913 455.571 302.195 455.419C300.959 455.379 299.572 455.271 298.767 454.333C298.115 453.575 298.044 452.493 298.003 451.494C297.74 445.003 297.476 438.511 297.214 432.018C295.986 401.697 288.998 375.274 287.111 344.986C286.269 331.456 283.886 318.097 282.322 304.647C281.643 298.802 281.894 292.852 280.929 287.059C280.204 282.718 279.023 276.794 283.228 273.758C285.673 271.994 288.754 271.41 291.736 270.948C307.454 268.505 323.411 268.112 339.313 267.723C354.065 267.363 368.817 267.003 383.568 266.641C374.089 263.329 363.815 262.619 353.785 263.089C335.252 263.956 316.719 264.824 298.185 265.691C291.644 265.998 284.449 266.58 279.835 271.226C278.322 255.186 278.039 237.997 280.269 222.041C282.328 207.297 286.445 192.513 284.418 177.764C283.146 168.51 279.989 159.531 279.907 150.098C279.899 149.252 279.8 144.467 281.638 144.799C283.402 145.117 284.484 151.23 284.687 152.622C285.113 155.568 284.987 158.588 284.503 161.52C283.945 164.901 282.951 168.166 282.083 171.472C281.368 174.196 281.765 176.323 278.78 177.833C276.202 179.137 272.345 179.467 269.498 179.461C265.43 179.452 261.363 178.973 257.407 178.031C256.551 177.827 255.526 177.404 255.466 176.526C255.427 175.941 255.889 175.415 256.432 175.194C256.974 174.97 257.58 174.984 258.166 175.008C263.506 175.22 268.825 175.922 274.036 177.103C275.97 177.54 278.086 178.187 279.091 179.897C280.07 181.564 279.655 183.665 279.21 185.548C277.973 190.789 276.735 196.03 275.5 201.273C274.423 205.834 275.734 211.103 275.496 215.8C275.061 224.397 273.215 232.897 271.176 241.19C269.542 247.831 268.54 254.813 270.018 261.49C271.331 267.421 274.58 273.21 273.559 279.198C272.827 283.5 273.421 285.415 273.327 289.779C273.317 290.236 273.289 290.74 272.974 291.073C272.555 291.517 271.834 291.447 271.254 291.257C269.191 290.585 267.595 288.851 266.683 286.881C265.771 284.912 265.47 282.716 265.347 280.55C265.512 283.444 264.091 286.21 264.572 289.041C265.091 292.097 266.896 294.894 267.375 297.89C267.672 299.743 266.325 302.996 264.55 304.202C263.169 305.141 261.229 304.823 259.842 303.894C258.455 302.963 257.496 301.536 256.561 300.152C255.598 298.727 254.146 297.525 253.466 295.99C252.674 294.2 252.617 291.6 252.561 289.672C252.383 283.622 252.886 277.552 254.069 271.618C256.545 259.179 254.622 246.489 252.774 234.109C251.844 227.875 250.907 221.629 250.532 215.333C250.161 209.099 250.611 203.195 251.193 196.971C252.204 186.184 253.991 175.469 254.608 164.652C255.24 153.543 254.635 142.339 256.235 131.327C258.889 113.056 273.814 102.867 290.879 95.8341C292.478 100.976 296.517 105.006 301.379 107.319C306.241 109.633 311.813 110.193 317.159 109.555C322.505 108.916 327.654 107.132 332.573 104.941C335.164 103.787 337.73 102.5 339.912 100.688C342.095 98.8761 343.887 96.4837 344.546 93.7248C344.798 92.6694 344.577 91.1704 343.499 91.0635C342.785 90.9927 342.222 91.6297 341.78 92.196C337.497 97.6948 332.213 102.412 326.264 106.045C320.646 109.478 314.164 111.986 307.607 111.401C299.118 110.643 291.418 104.23 289.132 96.0166C293.975 95.002 298.428 92.2243 301.47 88.3219C301.67 84.0829 301.34 79.8943 300.223 75.7984C303.283 80.3441 308.822 83.0998 314.292 82.7978C319.763 82.4958 324.966 79.1455 327.505 74.2915C323.73 78.3197 317.808 79.5734 312.289 79.4711C308.252 79.3956 304.105 78.6627 300.709 76.4763C297.311 74.2915 294.797 70.441 295.025 66.4065C292.078 66.3593 288.489 64.0016 286.847 61.5525C285.206 59.1051 284.445 56.1795 283.874 53.2869C283.57 51.7486 283.336 50.0593 284.1 48.6924C284.825 47.3948 286.361 46.6775 287.847 46.6823C289.335 46.687 290.762 47.3271 291.957 48.2111C291.811 44.7869 292.218 40.8467 292.355 37.4225C292.423 35.7474 292.545 33.9983 293.409 32.5607C294.465 30.8006 296.44 29.8238 298.369 29.1254C303.95 27.1042 309.956 26.6324 315.879 26.2659C318.714 26.0897 321.738 25.9749 324.194 27.4031C326.533 28.7637 327.937 31.3039 328.843 33.8552C329.749 36.4064 330.277 39.1008 331.448 41.5404C331.124 38.4481 330.802 35.3557 330.478 32.2634C330.266 30.2343 329.988 28.0527 328.602 26.5553C327.014 24.8377 324.447 24.5262 322.109 24.4476C314.48 24.1896 306.876 25.2655 299.318 26.3398C297.497 26.5993 295.578 26.8982 294.144 28.0496C292.221 29.5957 291.662 32.2587 291.409 34.714C291.261 36.1453 289.475 43.7755 290.286 44.5871C286.898 41.9399 285.212 37.5704 284.872 33.2826C284.412 27.455 284.959 19.1453 290.066 15.3719C293.116 13.1164 297.017 12.4243 300.773 11.8958C305.827 11.1848 310.906 10.6547 315.997 10.3071C319.308 10.0806 322.742 9.95009 325.834 11.1581C330.464 12.9669 333.552 17.5583 334.837 22.3635C336.766 29.5847 335.642 37.811 332.327 44.4534C333.285 43.7582 334.263 43.0535 335.386 42.676C336.508 42.2985 337.816 42.2923 338.804 42.945C340.024 43.7503 340.202 46.0232 340.345 47.3806C340.53 49.1328 340.417 50.9165 339.999 52.6279C339.242 55.7233 337.489 58.5671 335.063 60.6324C334.579 61.0445 334.052 61.4456 333.764 62.0134C333.51 62.5152 333.47 63.0924 333.409 63.6508C333.032 67.0892 331.659 70.4112 329.499 73.1118C329.731 76.8915 330.552 81.6669 333.197 84.3755C335.489 86.7238 338.939 87.4222 342.167 88.0089C346.438 88.7843 350.71 89.5598 354.98 90.3352C362.029 91.614 368.059 93.4244 373.592 97.978C379.123 102.532 383.183 108.685 386.061 115.249C388.938 121.812 390.693 128.809 392.193 135.816C393.809 143.367 395.144 150.98 396.194 158.631C388.792 161.786 380.952 165.11 372.922 164.6C372.573 164.578 372.197 164.54 371.939 164.304C371.524 163.925 371.649 163.196 372.049 162.801C372.45 162.406 373.029 162.261 373.579 162.143C381.339 160.485 389.567 161.075 397.01 163.825C398.048 164.208 397.043 172.688 397.125 173.913C397.382 177.724 398.117 181.488 399.039 185.19C400.669 191.733 402.878 198.138 404.08 204.774C407.191 221.963 403.407 239.798 406.141 257.049C406.973 262.297 407.415 264.068 408.641 269.236C409.866 274.405 410.965 279.695 410.55 284.991C410.135 290.287 408.012 295.666 403.825 298.933C403.048 299.538 402.152 300.084 401.168 300.097C399.625 300.116 398.339 298.78 397.856 297.314C397.374 295.848 397.501 294.263 397.55 292.72C397.691 288.223 397.122 283.702 395.866 279.382C395.18 281.552 394.493 283.723 393.808 285.895C393.495 286.888 392.889 289.146 391.413 288.327C390.164 287.635 390.732 285.398 390.756 284.277C390.804 281.994 390.918 279.715 391.092 277.439C391.457 272.711 393.113 267.748 392.765 263.093C392.348 257.512 390.712 252.114 389.094 246.786C384.125 230.411 377.484 212.624 377.614 195.346C377.682 186.306 372.776 177.402 370.34 168.698C368.71 162.867 367.103 157.023 365.854 151.097C364.644 145.356 363.123 139.482 363.351 133.579C363.375 132.975 363.419 132.349 363.7 131.814C363.982 131.28 364.564 130.857 365.163 130.948C366.045 131.083 366.411 132.132 366.579 133.008C367.63 138.462 367.744 143.806 367.169 149.272C366.579 154.858 367.134 160.957 367.362 166.588C368.658 198.526 381.537 229.001 384.185 260.854C386.517 288.91 387.608 314.143 389.565 342.229C392.284 381.254 395.922 416.319 403.377 454.723C403.69 456.334 403.943 458.201 402.869 459.439C402.053 460.381 400.721 460.642 399.493 460.848C395.918 461.448 392.336 462.042 388.724 462.388C385.562 462.692 381.114 463.422 378.031 462.438C374.026 461.161 382.98 457.647 384.314 457.212C387.795 456.073 391.443 455.436 395.105 455.349C395.655 455.337 396.295 455.376 396.619 455.823C397.308 456.771 395.804 457.77 394.653 457.992C391.265 458.645 387.83 459.301 384.389 459.033C380.951 458.766 377.447 457.455 375.254 454.791C373.612 452.797 372.84 450.245 372.114 447.766C363.284 417.618 355.42 387.187 348.54 356.534C346.232 346.249 343.713 336.656 340.452 326.633C339.029 322.261 337.728 317.836 336.867 313.316C336.422 310.981 336.091 308.624 335.934 306.25C335.818 304.501 334.931 297.904 338.442 301.14C339.886 302.47 340.403 304.971 341.104 306.744C341.98 308.96 342.842 311.183 343.687 313.41C347.071 322.321 350.214 331.324 353.111 340.406C358.903 358.568 363.713 377.045 367.505 395.728C367.828 397.317 368.142 398.905 368.45 400.497C374.715 432.891 378.693 464.619 379.546 497.601C391.602 498.564 404.498 498.595 416.581 498.066C418.234 497.994 419.971 497.673 421.473 496.98C422.975 496.286 423.712 493.952 423.776 492.299C423.842 490.601 422.629 489.087 421.19 488.184C419.753 487.281 418.085 486.834 416.522 486.171C412.778 484.579 409.611 481.664 407.717 478.062C405.825 474.467 404.529 470.536 403.183 466.734C402.666 465.271 401.771 463.802 400.32 463.253C399.372 462.895 398.323 462.978 397.314 463.068C394.919 463.28 392.526 463.492 390.131 463.703C388.271 463.868 386.507 463.695 384.99 464.946C382.564 466.948 382.491 470.575 382.622 473.718C382.759 477.004 382.895 480.289 383.032 483.574C383.13 485.894 383.257 488.324 384.452 490.314C385.716 492.421 388.029 493.728 390.416 494.309C392.803 494.889 395.293 494.829 397.749 494.766C411.413 494.417 427.637 498.059 441.3 497.711C464.579 497.116 485.746 497.749 508.998 498.427C512.801 498.537 528.46 499.073 532.93 498.529C536.594 498.082 540.372 498.381 541.996 494.472C542.668 492.855 542.864 491.086 543.053 489.345C543.811 482.347 544.57 472.203 545.328 465.205C545.451 464.074 545.438 462.667 544.437 462.129C543.88 461.828 543.202 461.926 542.578 462.03C537.555 462.869 532.531 463.711 527.507 464.551C526.823 464.666 526.108 464.793 525.559 465.218C524.685 465.894 524.481 467.105 524.314 468.198C523.413 474.113 521.748 483.055 519.374 488.544C518.545 490.458 517.609 492.503 518.023 494.548C518.383 496.33 519.844 497.842 521.613 498.26C522.306 498.424 523.13 498.394 523.611 497.868C524.045 497.395 524.061 496.684 524.037 496.042C523.88 491.726 523.061 484.255 523.608 479.97C524.581 472.353 529.801 465.436 529.209 457.78C532.421 457.471 536.411 457.21 539.595 457.735C540.6 457.901 541.613 458.108 542.625 458.017C543.64 457.926 544.677 457.481 545.215 456.617C545.646 455.924 545.701 455.068 545.735 454.253C546.327 440.26 544.613 426.067 547.416 412.346C551.286 393.402 545.454 377.338 543.163 358.137C540.095 332.445 539.872 306.415 542.498 280.676C553.484 334.981 555.009 393.106 545.581 447.703C545.215 449.828 544.759 452.095 543.228 453.611C539.177 457.622 531.51 453.377 526.883 456.704C521.455 430.362 515.924 404.041 510.568 377.685C505.515 352.818 500.895 327.351 497.461 302.079C495.062 284.42 493.266 266.677 492.081 248.896C502.009 246.973 512.653 249.992 522.581 251.908C534.006 254.113 545.734 254.05 557.269 252.829C563.038 252.219 568.773 251.324 574.479 250.281C577.34 249.757 580.193 249.198 583.042 248.614C584.464 248.323 585.893 248.054 587.307 247.727C588.684 247.408 590.521 246.275 591.706 247.661C592.826 248.969 591.532 250.319 590.554 251.252C587.926 253.759 584.281 255.264 580.741 255.864C575.116 256.815 569.366 255.819 563.747 254.844C540.185 250.752 516.567 246.978 492.901 243.527C492.191 240.15 492.771 236.045 492.807 232.594C493.07 207.504 493.332 182.415 493.595 157.324C492.199 161.203 491.98 165.393 491.777 169.511C491.353 178.104 490.928 186.695 490.504 195.288C482.952 194.74 475.415 193.992 467.904 193.045C467.04 192.936 466.135 192.81 465.423 192.307C464.297 191.514 463.95 190.023 463.742 188.661C462.876 182.972 462.986 177.135 464.068 171.482C460.382 171.084 456.352 169.202 453.75 166.56C461.428 168.152 469.492 166.986 476.867 164.32C484.241 161.654 491.005 157.546 497.499 153.149C506.943 146.757 513.505 140.506 520.639 131.608C523.229 128.378 525.672 124.931 529.029 122.508C532.658 119.885 537.382 118.409 539.702 114.578C541.641 111.379 541.369 107.362 541.036 103.636C540.833 101.372 540.595 99.0051 539.35 97.105C537.784 94.7158 534.955 93.5408 532.297 92.4995C528.715 91.0965 524.622 89.7029 521.158 91.3749C518.193 92.8078 516.583 96.2085 516.373 99.4958C516.232 101.699 516.624 103.88 517.153 106.009C517.796 108.595 516.822 109.062 514.936 110.852C511.968 113.668 508.792 116.265 505.444 118.618C499.836 122.559 494.282 125.178 487.831 127.324C483.004 128.928 478.258 131.377 473.378 133.065C468.801 134.647 464.22 136.387 460.209 139.1C456.198 141.813 452.753 145.609 451.286 150.225C449.819 154.842 450.609 160.317 453.97 163.804C453.348 146.139 456.511 128.351 463.183 111.983C465.934 105.232 466.419 99.834 469.615 93.2829C472.812 86.7301 477.065 80.5753 482.772 76.0437C492.178 68.5756 504.515 66.1816 516.328 64.0188C519.683 63.4038 523.039 62.7904 526.396 62.1754C528.356 70.3608 530.517 78.7665 532.477 86.9519C532.668 87.7446 532.831 88.6648 532.325 89.3034C531.548 90.2817 530.014 89.7768 528.831 89.371C525.46 88.2149 521.564 88.7167 518.594 90.6875C516.067 82.7554 513.54 74.8248 511.013 66.8926C510.778 66.1517 510.55 65.3102 510.925 64.6291C511.248 64.0456 511.917 63.764 512.543 63.536C515.971 62.2855 519.535 61.4125 523.153 60.9375C524.127 60.8101 525.163 60.6874 525.925 60.0693C526.85 59.3206 527.136 58.0261 527.122 56.8354C527.108 55.6447 526.856 54.4587 526.963 53.2727C527.138 51.3506 528.319 49.5497 530.01 48.6248C532.693 47.1573 536.062 47.9768 538.786 49.3704C541.507 50.7624 543.987 52.7002 546.923 53.5543C550.473 54.5877 554.495 53.8437 557.44 51.6086C558.728 50.6302 560.137 49.3027 561.703 49.7085C562.754 49.9806 563.468 51.014 563.688 52.0773C563.909 53.1406 563.728 54.2417 563.547 55.3128C563.146 57.691 562.744 60.0709 562.343 62.4507C561.742 66.0039 561.063 69.7364 558.769 72.5126C556.635 75.0953 553.336 76.4999 550.022 76.9765C546.707 77.4515 543.333 77.0897 540.011 76.6761C537.331 76.3426 534.471 75.8927 532.492 74.054C530.525 72.2279 529.856 69.4234 529.413 66.7746C528.174 59.3725 527.938 51.8021 528.715 44.3355C527.696 45.1911 525.463 44.3764 524.518 43.4389C523.573 42.5014 523.186 41.1456 522.951 39.8354C522.366 36.5794 522.503 33.2433 522.641 29.9386C522.68 28.9933 522.723 28.0307 523.047 27.142C523.37 26.2533 524.024 25.4338 524.929 25.1538C525.833 24.8754 526.966 25.297 527.275 26.1919C527.29 19.9617 527.639 12.536 528.067 6.31824C528.171 4.79881 528.355 3.13467 529.455 2.0824C530.724 0.869683 532.707 0.932601 534.455 1.07416C545.412 1.95657 556.368 2.83897 567.325 3.72137C568.85 3.84406 570.498 4.01865 571.627 5.05362C572.937 6.25533 573.13 8.2246 573.165 10.002C573.275 15.6676 572.648 21.3474 571.302 26.851C570.873 28.6048 570.145 30.5914 568.431 31.1592C567.373 31.51 566.212 31.1985 565.182 30.7723C559.861 28.5623 556.114 23.367 550.636 21.5802C547.61 20.594 544.301 20.756 541.207 21.5031C538.113 22.2518 535.187 23.5605 532.281 24.8629C534.871 23.5007 535.507 21.1602 537.784 19.3231C540.061 17.4859 542.792 15.8988 545.713 16.053C548.015 16.1741 550.11 17.3569 552.08 18.5523C555.404 20.5672 558.652 22.7048 561.821 24.9557C564.443 26.8195 567.144 28.8234 570.322 29.3268C571.099 28.7574 572.24 29.1396 572.835 29.8977C573.429 30.6559 573.575 31.6641 573.645 32.6251C573.866 35.7222 573.478 38.8602 572.508 41.8094C571.852 43.8007 570.879 45.7763 569.22 47.055C567.561 48.3354 565.089 48.7349 563.366 47.5426C562.649 54.0498 561.847 61.4141 561.13 67.9212C562.868 67.5217 564.709 67.5862 566.415 68.1069C567.902 76.0359 564.093 84.6948 557.243 88.9558C550.394 93.2152 540.946 92.8031 534.495 87.9617C541.25 89.4984 548.591 88.27 554.478 84.6145C560.363 80.9591 564.723 74.9238 566.344 68.1871C576.663 70.224 587.443 72.4732 595.569 79.1534C605.447 87.2728 609.57 100.503 611.104 113.199C611.928 120.024 612.151 126.897 612.639 133.749C612.887 137.238 613.197 140.727 613.692 144.19C614.183 147.617 616.708 153.333 613.302 156.02C612.34 156.78 611.098 157.064 609.897 157.308C602.195 158.865 594.31 159.51 586.458 159.227C587.912 157.115 590.855 156.799 593.418 156.714C599.838 156.503 606.266 156.5 612.686 156.703C616.351 173.824 616.625 191.425 614.272 208.775C613.548 214.128 612.535 219.452 612.252 224.846C611.702 235.357 613.914 246.094 611.439 256.324C610.147 261.664 610.184 265.899 608.052 270.963C605.92 276.027 602.25 280.664 597.2 282.822C595.574 283.515 593.544 283.89 592.156 282.795C591.139 281.993 590.774 280.634 590.488 279.369C589.451 274.784 588.661 270.142 588.118 265.472C587.791 262.643 587.582 259.637 588.841 257.083C589.934 254.866 591.983 253.298 593.506 251.352C596.231 247.87 597.173 243.257 596.984 238.838C596.697 232.075 595.296 225.14 594.201 218.447C593.09 211.336 592.307 203.961 590.687 196.95C589.223 190.608 588.703 184.088 587.466 177.638C584.862 164.064 584.884 151.296 585.153 137.478C585.315 129.136 585.478 120.793 585.64 112.45C588.421 118.902 589.091 126.089 588.841 133.11C588.593 140.134 587.464 147.092 586.8 154.087C585.522 167.556 585.799 181.427 588.241 194.743C589.439 201.279 589.472 208.263 589.815 214.914C590.171 221.826 590.392 228.743 590.478 235.664C590.693 252.988 590.06 270.322 588.582 287.584C587.865 295.952 586.524 304.293 585.758 312.622C584.954 321.364 585.113 330.301 584.722 339.075C584.332 347.808 583.835 356.534 583.324 365.261C581.882 389.839 581.538 414.318 578.544 438.746C577.799 444.822 576.994 450.889 576.126 456.949C575.763 459.489 575.332 461.16 573.157 462.523C571.412 463.618 569.168 463.307 567.138 462.958C562.687 462.193 558.236 461.427 553.784 460.663C552.687 460.474 551.037 460.384 551.059 458.893C551.089 456.853 554.036 457.613 555.303 457.724C560.418 458.174 565.523 458.741 570.613 459.423C571 459.475 571.412 459.538 571.706 459.798C572.275 460.298 572.108 461.207 571.918 461.941C570.516 467.351 570.461 473.104 571.756 478.54C572.341 480.996 573.204 486.614 572.917 489.121C572.656 491.386 571.302 493.183 569.773 494.785C568.379 496.247 565.525 496.527 563.648 497.058C561.866 497.562 559.855 498.406 557.997 498.48C556.476 498.54 554.992 498.589 553.457 498.703C551.754 498.831 549.924 498.804 548.421 497.886C547.168 497.121 546.314 495.819 545.835 494.433C545.355 493.046 545.217 491.566 545.132 490.101C544.86 485.425 545.092 477.575 545.822 472.947C546.19 470.607 546.715 468.312 547.309 466.02C547.459 465.447 547.514 464.455 548.102 464.134C550.682 462.726 549.585 470.547 549.482 471.34C548.757 476.933 548.033 485.672 547.308 491.265C547.147 492.5 546.996 493.807 547.498 494.947C548.056 496.221 549.353 497.049 550.701 497.39C552.048 497.731 553.462 497.658 554.85 497.582C574.354 496.509 591.819 497.42 611.375 498.111C631.568 498.825 654.227 497.506 674.432 497.727C687.767 497.873 701.104 497.911 714.439 497.842C716.929 497.829 717.006 497.735 718.487 495.732C719.443 494.441 719.513 492.717 719.53 491.111C719.564 487.659 719.52 484.204 719.401 480.753C719.316 478.317 719.101 475.656 717.421 473.891C715.701 472.085 712.98 471.772 710.494 471.566C702.85 470.937 695.003 470.325 687.64 472.474C698.267 475.538 709.503 476.475 720.492 475.215C723.473 474.874 722.354 470.088 722.505 467.09C723.733 442.842 726.928 418.693 732.047 394.961C735.837 377.391 739.038 359.701 742.86 342.138C744.217 335.901 745.659 329.682 747.23 323.495C748.692 317.739 749.254 311.316 751.846 305.958C752.032 305.574 752.288 305.176 752.698 305.056C755.162 304.336 753.582 316.148 753.381 317.41C747.318 355.556 738.03 392.798 729.058 430.328C725.582 444.869 722.105 459.409 718.629 473.951C718.17 475.871 717.613 477.947 716.042 479.143C714.602 480.239 712.659 480.322 710.849 480.362C703.176 480.529 695.503 480.695 687.83 480.862C684.811 482.805 683.559 486.194 680.596 488.22C678.949 489.346 676.993 489.906 675.133 490.627C673.273 491.347 671.397 492.311 670.278 493.963C669.91 494.505 669.63 495.212 669.91 495.806C670.322 496.679 671.555 496.67 672.498 496.468C682.885 494.251 690.701 484.805 692.232 474.544C694.288 460.781 695.605 446.908 696.176 433.003C697.233 407.306 698.728 381.635 699.022 355.882C699.187 341.348 699.239 326.811 699.415 312.277C690.564 307.502 683.685 297.802 681.3 288.03C681.026 286.908 680.817 285.676 681.32 284.637C682.004 283.224 683.71 282.696 685.239 282.34C689.569 281.33 693.953 280.546 698.365 279.992C700.283 279.751 702.446 279.622 703.918 280.877C705.13 281.911 705.514 283.595 705.81 285.16C706.764 290.206 707.531 295.29 708.108 300.393C708.428 303.21 708.676 306.14 707.742 308.815C707.319 310.03 706.292 311.338 705.038 311.06C703.764 310.777 703.41 309.157 703.325 307.856C702.519 295.317 702.913 282.701 704.503 270.237C704.739 270.411 704.973 270.586 705.209 270.761C721.259 267.621 737.486 265.998 753.661 268.422C761.625 269.615 769.76 271.478 777.63 269.771C766.642 266.012 754.862 265.424 743.263 264.87C730.92 264.28 718.547 263.692 706.211 264.42C707.512 254.297 709.178 244.222 711.201 234.219C717.616 202.515 717.024 175.914 717.574 143.572C720.552 161.649 721.934 180.244 718.502 198.24C715.717 212.84 709.84 226.678 706.53 241.168C703.808 253.079 702.849 265.314 701.896 277.496C695.626 280.143 687.783 277.381 682.097 281.126C682.196 277.03 682.297 272.936 682.396 268.84C682.662 257.915 682.94 246.885 685.574 236.278C690.019 218.373 692.166 199.986 693.354 181.602C694.475 164.242 694.25 146.798 695.615 129.527C696.075 123.701 697.328 117.845 700.355 112.779C704.404 106.001 711.255 101.261 718.58 98.3193C725.906 95.378 733.763 94.063 741.549 92.7669C746.958 98.9469 754.914 103.249 763.114 103.689C771.312 104.13 779.642 101.133 785.682 95.5683C783.498 92.1802 781.388 87.7729 780.576 83.8249C776.562 88.0624 769.54 90.3855 763.763 89.555C757.986 88.7261 752.71 84.9574 750.048 79.7605C749.329 84.3078 746.114 88.5216 743.266 92.1393C745.096 92.1708 746.791 91.0131 747.838 89.5126C748.886 88.012 749.384 86.2 749.768 84.4101C750.761 79.7621 751.098 74.9742 750.763 70.2319C747.36 69.9519 743.958 66.9885 742.162 64.0849C740.996 62.199 740.142 60.0221 740.312 57.8121C740.481 55.6022 741.874 53.3907 744 52.7631C745.533 52.3101 747.433 53.0337 748.757 53.7997C749.238 54.0781 749.722 54.4383 749.9 54.9652C750.079 55.4921 749.793 56.1999 749.241 56.2644C748.882 56.3069 748.538 56.0694 748.348 55.7627C748.159 55.4559 748.096 55.0895 748.048 54.7324C747.75 52.5445 747.837 50.3267 748.005 48.1309C748.153 46.2009 747.864 44.3716 748.142 42.4102C748.546 39.5585 749.499 36.213 751.458 34.003C753.54 31.6562 756.73 34.2327 758.711 35.5256C760.891 36.9459 763.466 37.7513 766.067 37.822C769.309 37.9117 772.548 36.8893 775.762 37.3234C780.71 37.9903 784.861 42.4936 785.127 47.4813C785.743 44.5714 786.504 41.3485 785.751 38.4717C784.998 35.5948 782.907 32.913 780.023 32.1957C778.337 31.7774 776.57 32.0479 774.834 32.0825C770.875 32.1596 766.902 30.9453 763.663 28.6677C761.582 27.2065 759.705 25.275 757.236 24.6694C753.758 23.8169 750.065 26.0095 748.232 29.0877C746.398 32.1659 746.088 35.9141 746.241 39.494C746.393 43.074 746.966 46.6492 746.711 50.2229C743.654 46.2717 742.664 40.6611 743.01 35.6766C743.241 32.353 743.898 29.0185 745.37 26.0299C746.842 23.0414 749.18 20.4115 752.189 18.9849C753.92 18.1638 755.87 17.7785 757.784 17.9106C758.777 17.9798 759.751 18.1921 760.681 18.5476C761.938 19.0273 762.096 19.0116 763.339 18.5099C767.453 16.8426 772.081 16.2197 776.471 16.948C781.244 17.7407 785.782 20.2118 788.768 24.0198C791.441 27.4298 793.212 32.6063 792.094 36.9428C791.391 39.6702 790.727 42.3835 789.962 45.092C789.169 47.8934 787.963 50.6082 786.891 53.3294C786.669 53.894 786.41 54.5012 785.881 54.7969C785.353 55.0926 784.499 54.8189 784.487 54.2118C784.477 53.743 784.932 53.419 785.336 53.1815C787.639 51.8257 791.021 50.9857 792.356 54.0718C793.633 57.0226 793.128 61.0838 791.938 63.9607C790.536 67.3534 787.787 70.1689 784.43 71.6522C782.686 75.8 781.249 80.1522 782.138 84.5626C783.561 91.6218 787.597 96.7763 794.353 98.972C800.688 101.029 807.426 102.239 813.583 104.786C819.052 107.047 824.185 110.406 826.577 115.994C829.289 122.331 830.311 129.232 831.212 136.016C832.501 145.722 833.578 155.455 834.443 165.209C835.295 174.815 836.696 184.87 836.398 194.518C835.893 210.889 829.303 228.734 822.391 243.427C818.627 251.428 814.201 259.118 809.155 266.38C806.712 269.897 806.812 270.072 804.424 273.626C802.036 277.181 799.128 280.598 795.218 282.342C789.853 284.736 783.65 283.591 777.897 282.405C776.954 282.21 775.936 281.974 775.317 281.236C774.214 279.924 774.985 277.941 775.826 276.448C777.767 273.002 779.897 269.661 782.204 266.448C784.889 262.706 788.219 258.885 792.756 258.089C797.381 257.278 801.869 259.841 805.792 262.424C806.977 263.204 808.319 264.502 807.737 265.796C807.154 267.096 805.286 266.945 803.91 266.581C801.188 265.861 798.094 264.824 797.075 262.198C796.237 260.038 797.157 257.639 798.007 255.486C801.537 246.555 804.037 237.217 805.443 227.716C809.347 201.334 808.048 174.344 801.875 148.401C801.259 179.536 800.641 210.674 800.025 241.811C799.9 248.112 799.786 254.512 801.416 260.6C802.251 263.715 803.531 266.704 804.253 269.847C805.888 276.975 804.559 284.409 803.229 291.6C798.949 314.728 796.515 338.108 794.919 361.561C793.264 385.907 789.263 410.193 785.811 434.467C784.147 446.164 782.484 457.86 780.822 469.556C780.6 471.118 780.293 472.832 779.067 473.823C778.01 474.677 776.546 474.761 775.189 474.806C768.38 475.034 761.57 475.262 754.758 475.49C755.754 427.66 756.066 379.618 757.063 331.788C757.175 326.396 756.931 321.006 756.878 315.614C756.853 313.064 756.713 310.414 756.983 307.875C757.038 307.364 756.967 305.973 757.526 305.665C759.219 304.729 759.897 311.702 760.051 312.773C760.549 316.226 760.73 319.716 760.889 323.198C761.925 345.779 762.241 368.391 761.837 390.992C761.261 423.202 759.265 452.553 755.35 484.528C754.989 487.473 754.331 488.064 754.074 491.018C753.818 493.974 754.599 497.384 757.191 498.826C758.526 499.569 760.114 499.66 761.64 499.693C766.62 499.801 771.598 499.481 776.57 499.16C780.507 498.906 784.443 498.652 788.38 498.398C790.042 498.291 791.674 498.144 793.333 498.265C794.765 498.37 796.54 498.284 797.784 497.48C798.421 497.069 798.907 496.343 798.826 495.589C798.561 493.102 795.146 492.547 793.444 491.622C788.617 488.997 786.619 483.248 783.417 478.779C782.471 477.458 781.046 476.099 779.46 476.452C778.342 476.7 777.556 477.79 777.359 478.919C777.163 480.049 777.452 481.205 777.839 482.284C780.076 488.525 785.616 493.205 791.814 495.551C798.311 498.011 805.166 498.538 812.026 498.793C820.14 499.094 828.256 499.32 836.372 499.469C852.607 499.768 868.848 499.765 885.082 499.458C898.07 499.213 911.054 498.774 924.029 498.142C925.232 498.084 924.245 496.369 924.331 495.168C925.484 479.27 924.768 463.239 922.204 447.508C921.886 445.561 921.664 443.238 923.147 441.936C924.021 441.166 925.256 441.001 926.413 440.868C928.575 440.619 930.738 440.371 932.9 440.12C934.012 439.993 935.232 439.889 936.16 440.515C937.227 441.236 937.525 442.65 937.738 443.921C940.199 458.479 943.432 472.908 947.419 487.124C947.877 488.755 948.347 490.403 948.401 492.097C948.454 493.791 948.045 495.562 946.929 496.836C945.438 498.538 943.018 499.045 940.767 499.245C937.229 499.558 933.647 499.358 930.168 498.652C927.267 498.063 924.208 496.954 922.622 494.453C921.355 492.456 921.273 489.95 921.312 487.585C921.389 483.081 921.765 478.584 922.44 474.132C923.02 470.301 923.973 466.226 926.858 463.643C930.383 460.488 936.19 460.139 938.676 456.112C940.177 453.68 939.977 450.615 939.852 447.76C939.586 441.698 939.88 435.612 940.729 429.604C942.963 413.814 945.512 398.069 947.833 382.291C950.125 366.711 951.371 351.281 952.276 335.541C952.839 325.76 953.33 315.975 953.748 306.187C953.912 302.376 954.099 298.565 954.364 294.76C954.586 291.603 954.897 288.067 954.02 284.977C953.468 283.029 952.951 284.286 952.559 285.648C951.715 288.594 951.54 291.677 951.147 294.703C950.646 298.56 950.231 302.428 949.871 306.302C949.16 313.956 948.668 321.627 948.168 329.295C947.149 344.944 946.8 360.624 946.542 376.301C946.256 393.721 946.086 411.149 945.246 428.555C945.117 431.226 944.933 434.025 943.517 436.292C941.111 440.141 936.001 441.207 931.465 441.24C926.929 441.273 922.172 440.674 918.031 442.525C915.655 420.876 913.277 399.225 910.902 377.574C906.287 335.528 905.972 295.49 903.265 253.279C908.353 248.059 913.016 240.856 914.414 233.701C919.52 239.032 926.403 243.213 933.548 245.064C940.693 246.915 948.149 247.253 955.526 247.041C971.597 246.579 987.225 243.316 1001.08 234.985C1001.55 234.702 1002.03 234.406 1002.35 233.956C1002.66 233.506 1002.76 232.855 1002.42 232.419C1001.9 231.733 1000.82 232.015 1000.03 232.361C995.216 234.459 990.392 237.203 985.211 237.962C982.432 238.37 979.664 239.438 976.918 240.062C973.981 240.731 971.017 241.286 968.028 241.663C963.894 242.185 959.717 242.354 955.553 242.181C948.374 241.883 941.238 240.572 934.418 238.311C931.007 237.182 927.677 235.815 924.458 234.219C922.85 233.421 921.268 232.566 919.721 231.655C918.276 230.804 916.859 229.552 915.062 229.964C913.101 230.414 912.502 232.232 911.867 233.906C909.782 239.389 906.647 244.471 902.68 248.792C902.008 243.002 900.114 237.358 897.156 232.336C901.979 230.851 906.799 229.366 911.622 227.881C912.314 227.669 913.05 227.425 913.496 226.856C913.922 226.312 913.996 225.58 914.054 224.891C914.463 220.015 914.872 215.141 915.281 210.265C915.831 203.696 916.314 197.122 916.733 190.544C917.829 173.363 919.653 154.375 913.568 137.837C913.307 137.128 912.776 136.275 912.04 136.448C911.301 136.621 911.207 137.623 911.277 138.38C912.156 147.839 912.85 157.129 913.039 166.615C913.424 186.088 912.449 205.589 910.12 224.924C909.983 226.06 907.664 225.882 906.546 226.123C904.628 226.537 902.686 226.875 900.823 227.493C898.96 228.111 897.155 229.03 895.793 230.444C888.961 206.116 886.89 180.268 890.75 155.295C892.035 146.984 892.126 141.135 892.631 132.741C893.136 124.345 894.406 115.613 899.244 108.735C904.353 101.473 912.7 97.2969 920.818 93.7044C922.866 96.8785 923.51 100.878 923.386 104.653C923.262 108.428 922.982 112.348 924.399 115.849C925.007 117.352 925.907 118.797 926.958 120.032C927.94 121.183 929.1 121.919 929.815 123.31C930.301 124.257 930.735 125.273 931.536 125.976C932.336 126.679 933.647 126.946 934.444 126.242C935.166 125.603 935.176 124.5 935.13 123.538C935.023 121.3 934.914 119.063 934.808 116.825C934.668 113.916 934.581 110.794 936.149 108.342C938.671 104.394 943.292 103.867 947.471 103.54C953.14 103.095 958.781 102.303 964.352 101.171C967.434 100.545 970.857 99.5493 972.338 96.7731C962.353 98.3602 952.369 99.9473 942.385 101.534C940.798 101.786 938.773 101.833 938.037 100.405C937.561 99.4801 937.896 98.3649 938.205 97.3724C940.367 90.4563 940.955 83.0526 939.91 75.8817C943.759 76.124 948.38 76.6493 952.184 76.006C955.987 75.3627 959.751 73.7457 962.273 70.8248C957.83 72.1901 953.209 72.9766 948.562 73.1543C945.651 73.266 942.551 73.0851 940.146 71.443C937.455 69.6074 936.177 66.3295 935.334 63.1836C934.081 58.5121 933.448 53.6738 933.455 48.8355C927.874 62.048 924.257 76.8695 922.312 91.0808C920.726 84.1663 919.279 77.1558 919.282 70.0604C919.289 54.6773 926.034 40.2003 932.643 26.3084C933.946 23.5683 935.485 20.5987 938.297 19.463C937.49 21.8759 936.748 24.3108 936.073 26.7629C935.509 28.8124 934.589 30.681 934.21 32.7997C933.43 37.1599 933.779 41.7527 932.141 45.9383C931.425 47.7676 930.084 48.9929 929.29 50.7294C928.193 53.1328 927.128 55.5503 926.047 57.9616C925.935 58.2117 925.754 58.5058 925.48 58.4822C925.164 58.4555 925.062 58.0465 925.048 57.7304C924.892 54.2338 925.405 50.7089 926.537 47.3979C927.046 45.9084 927.713 44.5321 928.223 43.0237C928.811 41.2825 929.479 39.568 930.179 37.8692C930.647 36.7336 931.344 35.5429 931.576 34.3365C931.782 33.259 931.907 32.191 932.209 31.1104C933.564 26.2643 935.685 21.6305 938.488 17.4513C946.308 16.6554 953.407 21.9844 957.629 28.6158C961.85 35.2488 963.306 43.247 964.11 51.0675C964.913 58.8896 965.166 66.8375 967.327 74.3969C969.487 81.9563 973.898 89.2861 980.885 92.8865C984.355 94.6749 988.876 95.3402 991.972 92.9635C994 91.4064 995.016 88.8299 995.338 86.2928C995.94 81.5505 994.437 76.7752 992.359 72.4717C990.28 68.1682 987.613 64.1604 985.648 59.8035C984.088 56.3462 982.986 52.7002 982.165 49.0023C981.362 45.3767 981.239 41.5215 980.288 37.9542C979.481 34.9247 979.132 31.878 977.761 28.9854C976.396 26.1039 974.462 23.496 972.14 21.3144C967.646 17.0942 961.827 14.4518 955.808 13.1211C953.135 12.5312 950.382 12.1852 947.658 12.4494C945.54 12.6555 939.429 13.7723 939.559 16.8221C939.649 18.8874 942.839 20.1661 944.265 21.1775C951.583 26.3713 957.058 34.11 959.519 42.7421C963.404 56.3745 959.981 71.7938 966.319 84.473C969.31 90.4563 974.242 95.2631 977.509 101.1C979.717 105.043 981.132 109.429 981.646 113.918C981.785 115.118 981.873 116.373 982.492 117.41C983.112 118.446 984.467 119.163 985.55 118.633C986.747 118.048 986.915 116.441 986.92 115.107C986.932 111.47 986.945 107.834 986.959 104.197C986.969 101.401 987.352 97.9953 989.906 96.8565C992.61 95.6501 995.535 97.9733 997.393 100.279C1001.87 105.832 1006.27 113.268 1007.6 120.294C1009.4 129.833 1010.31 139.509 1011.22 149.165C1013.32 171.606 1015.43 194.048 1017.54 216.489C1017.79 219.119 1017.97 221.994 1016.48 224.169C1014.07 227.655 1008.94 227.408 1004.76 226.777C1006 228.308 1008.28 228.246 1010.25 228.36C1012.21 228.473 1014.61 229.385 1014.71 231.353C1014.76 232.249 1014.28 233.077 1013.82 233.846C1012.02 236.833 1010.22 239.818 1008.41 242.805C1002.46 232.444 1001.97 220.16 1001.09 208.244C999.731 189.984 993.736 172.545 989.777 154.776C989.362 152.915 989.025 151.089 988.808 149.214C988.59 147.336 987.794 145.497 987.349 143.646C986.351 139.493 985.86 135.22 985.898 130.949C985.904 130.27 986.11 129.381 986.788 129.335C987.348 129.298 987.711 129.897 987.929 130.413C990.885 137.354 992.354 144.747 993.56 152.124C995.764 165.596 1000.17 178.887 1002.59 192.431C1003.79 199.188 1005.13 206.13 1005.3 213.011C1005.47 219.88 1004.76 226.758 1004.99 233.638C1005.77 257.536 1002.04 282.057 1000.09 305.989C998.054 330.965 996.017 355.941 993.983 380.919C992.436 399.901 990.89 418.885 989.343 437.867C989.138 440.385 988.024 440.444 985.755 441.552C983.484 442.659 980.866 442.727 978.341 442.772C973.522 442.859 968.703 442.947 963.883 443.034C962.182 443.065 960.258 443.005 959.107 441.75C958.185 440.745 958.052 439.268 957.971 437.906C957.302 426.589 957.048 415.246 957.212 403.911C957.437 388.405 957.484 372.896 957.446 357.389C957.408 341.994 957.92 326.693 958.116 311.313C958.221 303.104 959.27 293.437 957.047 285.458C956.6 283.855 955.248 283.724 954.454 285.181C953.897 286.203 954.353 288.231 954.38 289.326C954.49 293.884 954.803 298.426 955.286 302.96C956.234 311.873 957.754 320.711 959.086 329.573C960.415 338.415 959.684 347.954 959.868 356.909C960.075 366.986 960.281 377.064 960.489 387.142C960.681 396.513 960.874 405.885 961.066 415.256C961.162 419.942 961.259 424.627 961.355 429.313C961.401 431.545 961.492 433.783 961.548 436.01C961.596 437.862 961.223 439.837 961.596 441.697C961.949 443.466 963.078 445.193 964.795 445.742C965.872 446.085 967.036 445.936 968.156 445.783C972.009 445.256 975.863 444.729 979.715 444.204C979.959 448.141 980.201 452.079 980.445 456.016C980.525 457.306 980.578 458.698 979.874 459.78C978.723 461.548 976.215 461.636 974.108 461.533C971.545 461.405 968.666 461.128 967.036 459.145C965.754 457.584 965.629 455.384 965.805 453.372C966.083 450.211 966.965 447.106 968.391 444.271C969.415 453.998 965.173 463.385 962.075 472.664C959.869 479.27 958.212 486.059 957.124 492.939C956.825 494.831 956.649 497.013 957.948 498.422C959.199 499.779 961.294 499.838 963.137 499.735C966.707 499.537 970.266 499.105 973.78 498.439C976.261 497.971 978.873 497.302 980.601 495.462C982.555 493.382 982.926 490.299 982.981 487.446C983.148 478.702 981.242 469.926 977.465 462.039C975.528 470.836 975.344 480.016 976.926 488.884C977.344 491.231 977.934 493.653 979.47 495.474C983.11 499.79 989.841 498.052 994.802 497.961C1001.35 497.842 1007.89 497.79 1014.44 497.807C1027.53 497.843 1040.62 498.153 1053.7 498.738" stroke="#222221" stroke-width="2" stroke-miterlimit="10" stroke-linecap="round" stroke-linejoin="round"/>
</svg>
