<svg width="203" height="92" viewBox="0 0 203 92" fill="none" xmlns="http://www.w3.org/2000/svg">
<g filter="url(#filter0_d_680_2899)">
<path d="M65.8222 7.68632H2.96504C2.60933 7.68568 2.26289 7.58556 1.97491 7.40017C1.68693 7.21478 1.47204 6.95355 1.36077 6.65357C1.2495 6.3536 1.24749 6.03012 1.35503 5.72907C1.46257 5.42802 1.6742 5.1647 1.95986 4.97651L7.63674 1.24474C7.92075 1.04825 8.2666 0.935121 8.62629 0.921037H60.2338C60.6597 0.872189 61.0921 0.945077 61.4682 1.12913L66.8898 5.03662C67.1528 5.23427 67.3415 5.49845 67.4308 5.79387C67.5202 6.08928 67.5059 6.40187 67.3898 6.68987C67.2738 6.97787 67.0615 7.22758 66.7814 7.40564C66.5013 7.58369 66.1666 7.68161 65.8222 7.68632Z" fill="#213458"/>
<path d="M67.52 25.9844H59.4109C59.622 27.2182 59.7351 28.4636 59.7494 29.7115C59.7495 30.96 59.6363 32.2064 59.4109 33.4387H67.52V25.9844Z" fill="#213458"/>
<path d="M46.9271 25.9844H37.891V33.4572H46.9271C47.809 31.0278 47.809 28.4138 46.9271 25.9844Z" fill="#213458"/>
<path d="M59.7495 29.7212C59.7352 28.4733 59.6221 27.2278 59.411 25.994C58.3433 20.2137 52.6144 11.7051 46.4583 9.5918H46.4115H16.7927V32.5743H25.2091V20.3478C26.9303 19.0901 28.9715 18.2246 31.1552 17.8268C33.3389 17.4289 35.599 17.5106 37.7391 18.0648C39.8791 18.6191 41.8343 19.629 43.4346 21.0068C45.035 22.3847 46.2321 24.0888 46.9219 25.9709C47.8037 28.4003 47.8037 31.0143 46.9219 33.4437C45.8236 36.4437 43.4541 38.9467 40.3146 40.4234C37.1751 41.9 33.5118 42.2344 30.0995 41.3558L37.4639 52.4586C42.9115 51.7608 47.9691 49.5459 51.9084 46.133C55.8478 42.72 58.4656 38.2851 59.385 33.4668C59.6202 32.2291 59.7421 30.9764 59.7495 29.7212Z" fill="#1D7D81"/>
<path d="M36.8075 53.3852L36.7711 53.3389L36.068 52.4141L36.219 52.6499L25.4538 53.6256L25.2402 53.3343L51.3747 89.237L59.6453 85.8335L36.8075 53.3852Z" fill="#213458"/>
<path d="M36.2139 52.6668L36.0629 52.4356L28.735 41.416L16.7875 41.9386L25.2299 53.3512L25.4487 53.6472L36.2139 52.6668Z" fill="#1D7D81"/>
</g>
<path d="M114.979 55.9043H107.274L99.4039 44.6221C98.9086 44.6772 98.4133 44.6772 97.918 44.6772H89.2225V55.9043H82.0679V17.3799H97.918C108.044 17.3799 114.318 22.5531 114.318 31.0835C114.318 36.9172 111.347 41.21 106.118 43.2463L114.979 55.9043ZM107.109 31.0835C107.109 26.2405 103.862 23.4337 97.5878 23.4337H89.2225V38.7884H97.5878C103.862 38.7884 107.109 35.9266 107.109 31.0835ZM135.373 26.1854C143.848 26.1854 148.746 30.203 148.746 38.6784V55.9043H142.252V52.327C140.601 54.8586 137.409 56.2895 133.006 56.2895C126.292 56.2895 122.054 52.6022 122.054 47.484C122.054 42.5858 125.356 38.7334 134.272 38.7334H141.867V38.2931C141.867 34.2756 139.445 31.9091 134.547 31.9091C131.245 31.9091 127.833 33.0098 125.632 34.8259L122.935 29.8177C126.072 27.3962 130.64 26.1854 135.373 26.1854ZM134.437 51.2814C137.794 51.2814 140.711 49.7404 141.867 46.7135V43.3013H134.767C130.089 43.3013 128.824 45.0624 128.824 47.2088C128.824 49.6854 130.915 51.2814 134.437 51.2814ZM169.407 56.2895C164.509 56.2895 159.611 54.8586 156.97 52.9874L159.611 47.7591C162.198 49.4652 166.16 50.676 169.848 50.676C174.196 50.676 176.012 49.4652 176.012 47.4289C176.012 41.8154 157.85 47.0987 157.85 35.3763C157.85 29.8177 162.858 26.1854 170.783 26.1854C174.691 26.1854 179.149 27.121 181.79 28.717L179.149 33.9454C176.342 32.2943 173.535 31.744 170.728 31.744C166.546 31.744 164.564 33.1198 164.564 35.0461C164.564 40.9898 182.726 35.7065 182.726 47.2088C182.726 52.7123 177.663 56.2895 169.407 56.2895ZM194.869 21.6726C192.338 21.6726 190.467 19.8564 190.467 17.545C190.467 15.2335 192.338 13.4173 194.869 13.4173C197.401 13.4173 199.272 15.1234 199.272 17.3799C199.272 19.8014 197.456 21.6726 194.869 21.6726ZM191.402 55.9043V26.5156H198.281V55.9043H191.402Z" fill="#213458"/>
<path d="M127.894 75.7681H134.681V76.9422H127.894V75.7681ZM128.041 82.3906H126.683V69.5491H135.489V70.7232H128.041V82.3906ZM138.017 82.3906V72.7595H139.319V82.3906H138.017ZM138.677 70.6315C138.408 70.6315 138.182 70.5398 137.998 70.3563C137.815 70.1729 137.723 69.9527 137.723 69.6959C137.723 69.4391 137.815 69.225 137.998 69.0538C138.182 68.8704 138.408 68.7787 138.677 68.7787C138.946 68.7787 139.173 68.8643 139.356 69.0355C139.539 69.2067 139.631 69.4207 139.631 69.6776C139.631 69.9466 139.539 70.1729 139.356 70.3563C139.185 70.5398 138.959 70.6315 138.677 70.6315ZM147.86 72.6678C148.643 72.6678 149.327 72.8207 149.915 73.1264C150.514 73.4199 150.979 73.8724 151.309 74.4839C151.651 75.0954 151.822 75.8659 151.822 76.7954V82.3906H150.52V76.9238C150.52 75.9087 150.263 75.1444 149.749 74.6307C149.248 74.1048 148.539 73.8419 147.621 73.8419C146.937 73.8419 146.337 73.9825 145.824 74.2638C145.322 74.5329 144.931 74.9303 144.65 75.4562C144.38 75.9699 144.246 76.5936 144.246 77.3274V82.3906H142.943V72.7595H144.191V75.4012L143.989 74.9059C144.295 74.2088 144.784 73.6645 145.457 73.2732C146.129 72.8696 146.93 72.6678 147.86 72.6678ZM161.376 82.3906V80.2626L161.321 79.9141V76.3551C161.321 75.5357 161.089 74.9059 160.624 74.4656C160.171 74.0253 159.493 73.8052 158.588 73.8052C157.964 73.8052 157.371 73.9091 156.808 74.117C156.246 74.325 155.769 74.6001 155.377 74.9426L154.79 73.9703C155.279 73.5545 155.867 73.2365 156.551 73.0163C157.236 72.784 157.958 72.6678 158.716 72.6678C159.964 72.6678 160.924 72.9797 161.596 73.6034C162.281 74.2149 162.624 75.1505 162.624 76.4102V82.3906H161.376ZM158.056 82.4823C157.334 82.4823 156.704 82.3662 156.166 82.1338C155.64 81.8892 155.237 81.559 154.955 81.1432C154.674 80.7151 154.533 80.2259 154.533 79.6756C154.533 79.1741 154.65 78.7216 154.882 78.318C155.127 77.9022 155.518 77.572 156.056 77.3274C156.606 77.0706 157.34 76.9422 158.257 76.9422H161.578V77.9145H158.294C157.365 77.9145 156.717 78.0796 156.35 78.4098C155.995 78.74 155.818 79.1497 155.818 79.6389C155.818 80.1892 156.032 80.6295 156.46 80.9597C156.888 81.2899 157.487 81.455 158.257 81.455C158.991 81.455 159.621 81.2899 160.147 80.9597C160.685 80.6173 161.076 80.1281 161.321 79.4921L161.615 80.391C161.37 81.027 160.942 81.5345 160.33 81.9137C159.731 82.2928 158.973 82.4823 158.056 82.4823ZM171.078 72.6678C171.86 72.6678 172.545 72.8207 173.132 73.1264C173.732 73.4199 174.196 73.8724 174.527 74.4839C174.869 75.0954 175.04 75.8659 175.04 76.7954V82.3906H173.738V76.9238C173.738 75.9087 173.481 75.1444 172.967 74.6307C172.466 74.1048 171.757 73.8419 170.839 73.8419C170.154 73.8419 169.555 73.9825 169.041 74.2638C168.54 74.5329 168.149 74.9303 167.867 75.4562C167.598 75.9699 167.464 76.5936 167.464 77.3274V82.3906H166.161V72.7595H167.409V75.4012L167.207 74.9059C167.513 74.2088 168.002 73.6645 168.675 73.2732C169.347 72.8696 170.148 72.6678 171.078 72.6678ZM182.558 82.4823C181.604 82.4823 180.748 82.2744 179.989 81.8586C179.243 81.4306 178.656 80.8496 178.228 80.1158C177.8 79.3698 177.586 78.5198 177.586 77.5659C177.586 76.5997 177.8 75.7497 178.228 75.0159C178.656 74.2821 179.243 73.7073 179.989 73.2915C180.748 72.8757 181.604 72.6678 182.558 72.6678C183.377 72.6678 184.117 72.8268 184.777 73.1448C185.438 73.4627 185.958 73.9397 186.337 74.5757L185.364 75.2361C185.034 74.7469 184.625 74.3861 184.135 74.1537C183.646 73.9214 183.114 73.8052 182.539 73.8052C181.854 73.8052 181.237 73.9642 180.687 74.2821C180.136 74.5879 179.702 75.0221 179.384 75.5846C179.066 76.1472 178.907 76.8076 178.907 77.5659C178.907 78.3242 179.066 78.9846 179.384 79.5472C179.702 80.1097 180.136 80.55 180.687 80.868C181.237 81.1737 181.854 81.3266 182.539 81.3266C183.114 81.3266 183.646 81.2104 184.135 80.9781C184.625 80.7457 185.034 80.391 185.364 79.9141L186.337 80.5745C185.958 81.1982 185.438 81.6752 184.777 82.0054C184.117 82.3234 183.377 82.4823 182.558 82.4823ZM192.825 82.4823C191.822 82.4823 190.942 82.2744 190.183 81.8586C189.425 81.4306 188.832 80.8496 188.404 80.1158C187.976 79.3698 187.762 78.5198 187.762 77.5659C187.762 76.612 187.964 75.7681 188.367 75.0343C188.783 74.3005 189.346 73.7257 190.055 73.3099C190.777 72.8818 191.584 72.6678 192.477 72.6678C193.382 72.6678 194.183 72.8757 194.88 73.2915C195.589 73.6951 196.146 74.2699 196.549 75.0159C196.953 75.7497 197.155 76.5997 197.155 77.5659C197.155 77.627 197.148 77.6943 197.136 77.7677C197.136 77.8288 197.136 77.8961 197.136 77.9695H188.753V76.9972H196.439L195.925 77.3824C195.925 76.6853 195.773 76.0677 195.467 75.5296C195.173 74.9793 194.77 74.5512 194.256 74.2455C193.742 73.9397 193.149 73.7868 192.477 73.7868C191.816 73.7868 191.223 73.9397 190.697 74.2455C190.171 74.5512 189.762 74.9793 189.468 75.5296C189.174 76.08 189.028 76.7098 189.028 77.4191V77.6209C189.028 78.3547 189.187 79.0029 189.505 79.5655C189.835 80.1158 190.287 80.55 190.862 80.868C191.449 81.1737 192.116 81.3266 192.862 81.3266C193.449 81.3266 193.993 81.2227 194.495 81.0148C195.008 80.8068 195.448 80.4889 195.815 80.0608L196.549 80.9047C196.121 81.4183 195.583 81.8097 194.935 82.0788C194.299 82.3478 193.596 82.4823 192.825 82.4823Z" fill="#1D7D81"/>
<path d="M76.8948 68.52C76.8948 67.5069 77.7161 66.6855 78.7293 66.6855H107.188C107.738 66.6855 108.26 66.9328 108.608 67.3591L114.231 74.2385C114.783 74.914 114.783 75.8848 114.231 76.5603L108.608 83.4397C108.26 83.866 107.738 84.1133 107.188 84.1133H78.7293C77.7161 84.1133 76.8948 83.2919 76.8948 82.2788V68.52Z" fill="#1D7D81"/>
<defs>
<filter id="filter0_d_680_2899" x="0.0489135" y="0.90625" width="68.698" height="90.7839" filterUnits="userSpaceOnUse" color-interpolation-filters="sRGB">
<feFlood flood-opacity="0" result="BackgroundImageFix"/>
<feColorMatrix in="SourceAlpha" type="matrix" values="0 0 0 0 0 0 0 0 0 0 0 0 0 0 0 0 0 0 127 0" result="hardAlpha"/>
<feOffset dy="1.2269"/>
<feGaussianBlur stdDeviation="0.613452"/>
<feComposite in2="hardAlpha" operator="out"/>
<feColorMatrix type="matrix" values="0 0 0 0 0 0 0 0 0 0 0 0 0 0 0 0 0 0 0.25 0"/>
<feBlend mode="normal" in2="BackgroundImageFix" result="effect1_dropShadow_680_2899"/>
<feBlend mode="normal" in="SourceGraphic" in2="effect1_dropShadow_680_2899" result="shape"/>
</filter>
</defs>
</svg>
