<svg width="176" height="639" viewBox="0 0 176 639" fill="none" xmlns="http://www.w3.org/2000/svg">
<g opacity="0.4">
<path d="M98.7059 489.742C63.5857 543.297 0.611722 598.098 -58.3552 623.348L-131.084 408.821C-112.048 400.599 -95.8356 386.973 -84.4589 369.625C-72.9582 352.088 -66.9162 331.534 -67.0969 310.563C-67.2776 289.592 -73.6729 269.145 -85.474 251.809C-97.1418 234.668 -113.576 221.329 -132.738 213.435L-55.3702 5.62381C3.97266 29.7889 59.5531 75.6077 95.594 128.554C131.773 181.702 151.379 244.385 151.933 308.676C152.487 372.967 133.964 435.979 98.7059 489.742Z" stroke="#FBB90F" stroke-width="1.46147"/>
<path d="M-93.3741 524.799C-45.9922 507.372 -5.78297 477.814 22.1688 439.862C50.1206 401.91 64.5595 357.269 63.6597 311.584C62.76 265.899 46.5618 221.222 17.1138 183.202C-12.3343 145.182 -53.7097 115.527 -101.78 97.9881L-118.941 136.215C-79.4861 150.611 -45.5263 174.95 -21.3561 206.156C2.81416 237.362 16.1092 274.032 16.8477 311.529C17.5862 349.026 5.7351 385.666 -17.207 416.816C-40.1491 447.966 -73.1518 472.226 -112.042 486.53L-93.3741 524.799Z" fill="#FBB90F"/>
<path d="M-120.508 581.426C-51.6469 568.472 10.1376 535.137 54.613 486.944C99.0884 438.751 123.586 378.589 124.05 316.423C124.514 254.257 100.915 193.816 57.1626 145.109C13.4099 96.4029 -47.872 62.3532 -116.534 48.5991L-128.784 96.2781C-72.4283 107.567 -22.1298 135.514 13.7813 175.491C49.6923 215.468 69.0614 265.077 68.6809 316.101C68.3003 367.125 48.1929 416.504 11.6886 456.06C-24.8156 495.616 -75.5267 522.976 -132.046 533.609L-120.508 581.426Z" fill="#FBB90F"/>
<path d="M-113.639 483.638C-75.476 469.602 -43.09 445.794 -20.5766 415.227C1.93678 384.659 13.5664 348.703 12.8417 311.907C12.117 275.11 -0.929569 239.125 -24.6481 208.503C-48.3667 177.88 -81.692 153.995 -120.41 139.869L-172.604 256.133C-160.09 260.699 -149.318 268.419 -141.652 278.317C-133.986 288.214 -129.769 299.845 -129.535 311.738C-129.301 323.631 -133.059 335.253 -140.336 345.133C-147.613 355.013 -158.08 362.708 -170.415 367.244L-113.639 483.638Z" fill="#FDDC87"/>
</g>
</svg>
