<svg width="521" height="190" viewBox="0 0 521 190" fill="none" xmlns="http://www.w3.org/2000/svg">
<path d="M0.0507812 87.7892C0.0507812 39.324 39.3396 0.0351562 87.8048 0.0351562H520.075V175.543H87.8048C39.3397 175.543 0.0507812 136.254 0.0507812 87.7892Z" fill="black"/>
<path d="M1.13416 101.871C1.13416 54.0043 39.9379 15.2006 87.8048 15.2006H518.991V188.542H87.8048C39.938 188.542 1.13416 149.738 1.13416 101.871Z" stroke="black" stroke-width="2.16677"/>
<mask id="path-3-outside-1_721_5057" maskUnits="userSpaceOnUse" x="60.7534" y="44.6094" width="150" height="24" fill="black">
<rect fill="white" x="60.7534" y="44.6094" width="150" height="24"/>
<path d="M72.8155 60.2494V62.6094H64.3589V60.2494H72.8155ZM65.2767 46.7014V62.6094H62.2721V46.7014H65.2767ZM71.712 53.2678V55.5732H64.3589V53.2678H71.712ZM72.7827 46.7014V49.0723H64.3589V46.7014H72.7827ZM79.7512 53.3115V62.6094H76.8668V50.7877H79.5764L79.7512 53.3115ZM79.2923 56.2724H78.4401C78.4474 55.4129 78.5639 54.6335 78.7897 53.9343C79.0155 53.235 79.3324 52.6341 79.7403 52.1315C80.1554 51.629 80.6471 51.2429 81.2152 50.9734C81.7834 50.7039 82.4171 50.5692 83.1163 50.5692C83.6845 50.5692 84.198 50.6493 84.6569 50.8095C85.1158 50.9698 85.5091 51.2247 85.8369 51.5743C86.1719 51.9239 86.4268 52.3828 86.6017 52.951C86.7838 53.5118 86.8748 54.2038 86.8748 55.0269V62.6094H83.9685V55.005C83.9685 54.466 83.8884 54.0399 83.7282 53.7267C83.5752 53.4135 83.3494 53.1913 83.0508 53.0602C82.7594 52.9291 82.3989 52.8636 81.9691 52.8636C81.5248 52.8636 81.1351 52.9546 80.8001 53.1367C80.4723 53.3115 80.1955 53.5555 79.9697 53.8687C79.7512 54.1819 79.5837 54.5425 79.4671 54.9504C79.3506 55.3583 79.2923 55.799 79.2923 56.2724ZM98.738 67.1545V53.1695L99.0877 50.7877H101.644V67.1545H98.738ZM91.1555 56.8187V56.5893C91.1555 55.6861 91.2575 54.8666 91.4615 54.131C91.6654 53.388 91.964 52.7543 92.3574 52.2299C92.758 51.6981 93.246 51.2903 93.8214 51.0062C94.3968 50.7148 95.056 50.5692 95.799 50.5692C96.5274 50.5692 97.1574 50.7112 97.6892 50.9953C98.2209 51.2793 98.6725 51.6836 99.044 52.208C99.4154 52.7252 99.7104 53.3407 99.9289 54.0545C100.155 54.7683 100.322 55.5586 100.432 56.4254V57.0481C100.322 57.8785 100.155 58.647 99.9289 59.3535C99.7104 60.0527 99.4154 60.6646 99.044 61.189C98.6798 61.7062 98.2282 62.1104 97.6892 62.4018C97.1501 62.6859 96.5128 62.8279 95.7771 62.8279C95.0415 62.8279 94.3859 62.6786 93.8105 62.3799C93.2424 62.074 92.758 61.6515 92.3574 61.1125C91.964 60.5735 91.6654 59.9398 91.4615 59.2115C91.2575 58.4758 91.1555 57.6782 91.1555 56.8187ZM94.0509 56.5893V56.8187C94.0509 57.3359 94.0946 57.8202 94.182 58.2718C94.2767 58.7162 94.4223 59.1095 94.619 59.4518C94.8157 59.7942 95.067 60.0637 95.3729 60.2603C95.6861 60.457 96.0649 60.5553 96.5092 60.5553C97.1064 60.5553 97.5908 60.4242 97.9623 60.162C98.3411 59.8998 98.6251 59.5465 98.8145 59.1022C99.0112 58.6506 99.1386 58.148 99.1969 57.5944V55.89C99.1605 55.4457 99.084 55.0378 98.9675 54.6663C98.8509 54.2948 98.687 53.9744 98.4758 53.7049C98.2719 53.4354 98.0096 53.2241 97.6892 53.0712C97.3687 52.9182 96.9826 52.8417 96.531 52.8417C96.0867 52.8417 95.7079 52.94 95.3947 53.1367C95.0815 53.3261 94.8266 53.592 94.6299 53.9343C94.4333 54.2766 94.2876 54.6736 94.1929 55.1252C94.0982 55.5768 94.0509 56.0648 94.0509 56.5893ZM113.584 59.8014V50.7877H116.49V62.6094H113.759L113.584 59.8014ZM113.955 57.3541L114.851 57.3322C114.851 58.1262 114.764 58.8582 114.589 59.5283C114.414 60.1984 114.141 60.7811 113.77 61.2764C113.406 61.7644 112.943 62.1468 112.382 62.4236C111.821 62.6931 111.158 62.8279 110.394 62.8279C109.811 62.8279 109.279 62.7478 108.798 62.5875C108.318 62.42 107.903 62.1614 107.553 61.8118C107.211 61.4549 106.945 60.9996 106.755 60.4461C106.566 59.8852 106.471 59.2115 106.471 58.4248V50.7877H109.356V58.4466C109.356 58.84 109.399 59.1678 109.487 59.43C109.582 59.6922 109.709 59.9071 109.869 60.0746C110.037 60.2348 110.23 60.3514 110.448 60.4242C110.674 60.4898 110.914 60.5225 111.169 60.5225C111.869 60.5225 112.419 60.3842 112.819 60.1074C113.227 59.8233 113.518 59.4445 113.693 58.9711C113.868 58.4904 113.955 57.9513 113.955 57.3541ZM124.344 50.7877V62.6094H121.448V50.7877H124.344ZM121.252 47.6957C121.252 47.2659 121.397 46.909 121.689 46.6249C121.987 46.3409 122.388 46.1988 122.891 46.1988C123.393 46.1988 123.79 46.3409 124.082 46.6249C124.38 46.909 124.529 47.2659 124.529 47.6957C124.529 48.1181 124.38 48.4714 124.082 48.7555C123.79 49.0395 123.393 49.1816 122.891 49.1816C122.388 49.1816 121.987 49.0395 121.689 48.7555C121.397 48.4714 121.252 48.1181 121.252 47.6957ZM132.219 53.2023V62.6094H129.335V50.7877H132.066L132.219 53.2023ZM135.814 50.7112L135.77 53.3989C135.61 53.3698 135.428 53.3479 135.224 53.3334C135.027 53.3188 134.841 53.3115 134.666 53.3115C134.222 53.3115 133.832 53.3734 133.497 53.4973C133.162 53.6138 132.882 53.785 132.656 54.0108C132.438 54.2366 132.27 54.5134 132.153 54.8411C132.037 55.1616 131.971 55.5258 131.957 55.9337L131.334 55.8572C131.334 55.107 131.411 54.4114 131.563 53.7704C131.716 53.1294 131.939 52.5686 132.23 52.0878C132.521 51.6071 132.886 51.2356 133.323 50.9734C133.767 50.7039 134.277 50.5692 134.852 50.5692C135.012 50.5692 135.184 50.5837 135.366 50.6129C135.555 50.6347 135.704 50.6675 135.814 50.7112ZM143.296 61.2983L146.464 50.7877H149.556L144.814 64.4012C144.705 64.6926 144.563 65.0094 144.388 65.3517C144.221 65.6941 143.995 66.0182 143.711 66.3241C143.427 66.6374 143.07 66.8923 142.64 67.089C142.218 67.2856 141.704 67.3839 141.1 67.3839C140.837 67.3839 140.604 67.3657 140.4 67.3293C140.196 67.2929 139.981 67.2456 139.756 67.1873V65.024C139.828 65.0313 139.912 65.0349 140.007 65.0349C140.109 65.0422 140.196 65.0458 140.269 65.0458C140.692 65.0458 141.041 64.9948 141.318 64.8929C141.595 64.7982 141.817 64.6416 141.985 64.4231C142.159 64.2118 142.305 63.935 142.422 63.5927L143.296 61.2983ZM141.733 50.7877L144.41 59.4955L144.88 62.5438L142.891 62.9044L138.619 50.7877H141.733Z"/>
<path d="M174.004 46.7014V62.6094H170.988L164.225 51.5743V62.6094H161.22V46.7014H164.225L171.01 57.7474V46.7014H174.004ZM178.568 56.8187V56.5893C178.568 55.7225 178.692 54.9249 178.94 54.1965C179.188 53.4608 179.548 52.8235 180.022 52.2845C180.495 51.7455 181.074 51.3267 181.759 51.028C182.443 50.7221 183.223 50.5692 184.097 50.5692C184.986 50.5692 185.772 50.7221 186.457 51.028C187.149 51.3267 187.732 51.7455 188.205 52.2845C188.678 52.8235 189.039 53.4608 189.287 54.1965C189.534 54.9249 189.658 55.7225 189.658 56.5893V56.8187C189.658 57.6782 189.534 58.4758 189.287 59.2115C189.039 59.9398 188.678 60.5772 188.205 61.1235C187.732 61.6625 187.152 62.0813 186.468 62.3799C185.783 62.6786 185 62.8279 184.119 62.8279C183.245 62.8279 182.462 62.6786 181.77 62.3799C181.078 62.0813 180.495 61.6625 180.022 61.1235C179.548 60.5772 179.188 59.9398 178.94 59.2115C178.692 58.4758 178.568 57.6782 178.568 56.8187ZM181.453 56.5893V56.8187C181.453 57.3359 181.504 57.8202 181.606 58.2718C181.708 58.7234 181.864 59.1204 182.076 59.4627C182.287 59.8051 182.56 60.0746 182.895 60.2713C183.237 60.4606 183.645 60.5553 184.119 60.5553C184.585 60.5553 184.986 60.4606 185.321 60.2713C185.656 60.0746 185.929 59.8051 186.14 59.4627C186.359 59.1204 186.519 58.7234 186.621 58.2718C186.723 57.8202 186.774 57.3359 186.774 56.8187V56.5893C186.774 56.0794 186.723 55.6023 186.621 55.158C186.519 54.7064 186.359 54.3094 186.14 53.9671C185.929 53.6174 185.652 53.3443 185.31 53.1476C184.975 52.9437 184.57 52.8417 184.097 52.8417C183.631 52.8417 183.23 52.9437 182.895 53.1476C182.56 53.3443 182.287 53.6174 182.076 53.9671C181.864 54.3094 181.708 54.7064 181.606 55.158C181.504 55.6023 181.453 56.0794 181.453 56.5893ZM197.282 59.7687L199.872 50.7877H201.707L201.161 53.8906L198.55 62.6094H196.965L197.282 59.7687ZM195.851 50.7877L197.796 59.7905L197.97 62.6094H196.146L193.043 50.7877H195.851ZM204.111 59.6594L206.012 50.7877H208.809L205.728 62.6094H203.903L204.111 59.6594ZM201.991 50.7877L204.559 59.6813L204.897 62.6094H203.313L200.68 53.8906L200.145 50.7877H201.991Z"/>
</mask>
<path d="M72.8155 60.2494V62.6094H64.3589V60.2494H72.8155ZM65.2767 46.7014V62.6094H62.2721V46.7014H65.2767ZM71.712 53.2678V55.5732H64.3589V53.2678H71.712ZM72.7827 46.7014V49.0723H64.3589V46.7014H72.7827ZM79.7512 53.3115V62.6094H76.8668V50.7877H79.5764L79.7512 53.3115ZM79.2923 56.2724H78.4401C78.4474 55.4129 78.5639 54.6335 78.7897 53.9343C79.0155 53.235 79.3324 52.6341 79.7403 52.1315C80.1554 51.629 80.6471 51.2429 81.2152 50.9734C81.7834 50.7039 82.4171 50.5692 83.1163 50.5692C83.6845 50.5692 84.198 50.6493 84.6569 50.8095C85.1158 50.9698 85.5091 51.2247 85.8369 51.5743C86.1719 51.9239 86.4268 52.3828 86.6017 52.951C86.7838 53.5118 86.8748 54.2038 86.8748 55.0269V62.6094H83.9685V55.005C83.9685 54.466 83.8884 54.0399 83.7282 53.7267C83.5752 53.4135 83.3494 53.1913 83.0508 53.0602C82.7594 52.9291 82.3989 52.8636 81.9691 52.8636C81.5248 52.8636 81.1351 52.9546 80.8001 53.1367C80.4723 53.3115 80.1955 53.5555 79.9697 53.8687C79.7512 54.1819 79.5837 54.5425 79.4671 54.9504C79.3506 55.3583 79.2923 55.799 79.2923 56.2724ZM98.738 67.1545V53.1695L99.0877 50.7877H101.644V67.1545H98.738ZM91.1555 56.8187V56.5893C91.1555 55.6861 91.2575 54.8666 91.4615 54.131C91.6654 53.388 91.964 52.7543 92.3574 52.2299C92.758 51.6981 93.246 51.2903 93.8214 51.0062C94.3968 50.7148 95.056 50.5692 95.799 50.5692C96.5274 50.5692 97.1574 50.7112 97.6892 50.9953C98.2209 51.2793 98.6725 51.6836 99.044 52.208C99.4154 52.7252 99.7104 53.3407 99.9289 54.0545C100.155 54.7683 100.322 55.5586 100.432 56.4254V57.0481C100.322 57.8785 100.155 58.647 99.9289 59.3535C99.7104 60.0527 99.4154 60.6646 99.044 61.189C98.6798 61.7062 98.2282 62.1104 97.6892 62.4018C97.1501 62.6859 96.5128 62.8279 95.7771 62.8279C95.0415 62.8279 94.3859 62.6786 93.8105 62.3799C93.2424 62.074 92.758 61.6515 92.3574 61.1125C91.964 60.5735 91.6654 59.9398 91.4615 59.2115C91.2575 58.4758 91.1555 57.6782 91.1555 56.8187ZM94.0509 56.5893V56.8187C94.0509 57.3359 94.0946 57.8202 94.182 58.2718C94.2767 58.7162 94.4223 59.1095 94.619 59.4518C94.8157 59.7942 95.067 60.0637 95.3729 60.2603C95.6861 60.457 96.0649 60.5553 96.5092 60.5553C97.1064 60.5553 97.5908 60.4242 97.9623 60.162C98.3411 59.8998 98.6251 59.5465 98.8145 59.1022C99.0112 58.6506 99.1386 58.148 99.1969 57.5944V55.89C99.1605 55.4457 99.084 55.0378 98.9675 54.6663C98.8509 54.2948 98.687 53.9744 98.4758 53.7049C98.2719 53.4354 98.0096 53.2241 97.6892 53.0712C97.3687 52.9182 96.9826 52.8417 96.531 52.8417C96.0867 52.8417 95.7079 52.94 95.3947 53.1367C95.0815 53.3261 94.8266 53.592 94.6299 53.9343C94.4333 54.2766 94.2876 54.6736 94.1929 55.1252C94.0982 55.5768 94.0509 56.0648 94.0509 56.5893ZM113.584 59.8014V50.7877H116.49V62.6094H113.759L113.584 59.8014ZM113.955 57.3541L114.851 57.3322C114.851 58.1262 114.764 58.8582 114.589 59.5283C114.414 60.1984 114.141 60.7811 113.77 61.2764C113.406 61.7644 112.943 62.1468 112.382 62.4236C111.821 62.6931 111.158 62.8279 110.394 62.8279C109.811 62.8279 109.279 62.7478 108.798 62.5875C108.318 62.42 107.903 62.1614 107.553 61.8118C107.211 61.4549 106.945 60.9996 106.755 60.4461C106.566 59.8852 106.471 59.2115 106.471 58.4248V50.7877H109.356V58.4466C109.356 58.84 109.399 59.1678 109.487 59.43C109.582 59.6922 109.709 59.9071 109.869 60.0746C110.037 60.2348 110.23 60.3514 110.448 60.4242C110.674 60.4898 110.914 60.5225 111.169 60.5225C111.869 60.5225 112.419 60.3842 112.819 60.1074C113.227 59.8233 113.518 59.4445 113.693 58.9711C113.868 58.4904 113.955 57.9513 113.955 57.3541ZM124.344 50.7877V62.6094H121.448V50.7877H124.344ZM121.252 47.6957C121.252 47.2659 121.397 46.909 121.689 46.6249C121.987 46.3409 122.388 46.1988 122.891 46.1988C123.393 46.1988 123.79 46.3409 124.082 46.6249C124.38 46.909 124.529 47.2659 124.529 47.6957C124.529 48.1181 124.38 48.4714 124.082 48.7555C123.79 49.0395 123.393 49.1816 122.891 49.1816C122.388 49.1816 121.987 49.0395 121.689 48.7555C121.397 48.4714 121.252 48.1181 121.252 47.6957ZM132.219 53.2023V62.6094H129.335V50.7877H132.066L132.219 53.2023ZM135.814 50.7112L135.77 53.3989C135.61 53.3698 135.428 53.3479 135.224 53.3334C135.027 53.3188 134.841 53.3115 134.666 53.3115C134.222 53.3115 133.832 53.3734 133.497 53.4973C133.162 53.6138 132.882 53.785 132.656 54.0108C132.438 54.2366 132.27 54.5134 132.153 54.8411C132.037 55.1616 131.971 55.5258 131.957 55.9337L131.334 55.8572C131.334 55.107 131.411 54.4114 131.563 53.7704C131.716 53.1294 131.939 52.5686 132.23 52.0878C132.521 51.6071 132.886 51.2356 133.323 50.9734C133.767 50.7039 134.277 50.5692 134.852 50.5692C135.012 50.5692 135.184 50.5837 135.366 50.6129C135.555 50.6347 135.704 50.6675 135.814 50.7112ZM143.296 61.2983L146.464 50.7877H149.556L144.814 64.4012C144.705 64.6926 144.563 65.0094 144.388 65.3517C144.221 65.6941 143.995 66.0182 143.711 66.3241C143.427 66.6374 143.07 66.8923 142.64 67.089C142.218 67.2856 141.704 67.3839 141.1 67.3839C140.837 67.3839 140.604 67.3657 140.4 67.3293C140.196 67.2929 139.981 67.2456 139.756 67.1873V65.024C139.828 65.0313 139.912 65.0349 140.007 65.0349C140.109 65.0422 140.196 65.0458 140.269 65.0458C140.692 65.0458 141.041 64.9948 141.318 64.8929C141.595 64.7982 141.817 64.6416 141.985 64.4231C142.159 64.2118 142.305 63.935 142.422 63.5927L143.296 61.2983ZM141.733 50.7877L144.41 59.4955L144.88 62.5438L142.891 62.9044L138.619 50.7877H141.733Z" fill="white"/>
<path d="M72.8155 60.2494H74.0408V59.024H72.8155V60.2494ZM72.8155 62.6094V63.8347H74.0408V62.6094H72.8155ZM64.3589 62.6094H63.1336V63.8347H64.3589V62.6094ZM64.3589 60.2494V59.024H63.1336V60.2494H64.3589ZM65.2767 46.7014H66.502V45.4761H65.2767V46.7014ZM65.2767 62.6094V63.8347H66.502V62.6094H65.2767ZM62.2721 62.6094H61.0467V63.8347H62.2721V62.6094ZM62.2721 46.7014V45.4761H61.0467V46.7014H62.2721ZM71.712 53.2678H72.9373V52.0425H71.712V53.2678ZM71.712 55.5732V56.7985H72.9373V55.5732H71.712ZM64.3589 55.5732H63.1336V56.7985H64.3589V55.5732ZM64.3589 53.2678V52.0425H63.1336V53.2678H64.3589ZM72.7827 46.7014H74.0081V45.4761H72.7827V46.7014ZM72.7827 49.0723V50.2977H74.0081V49.0723H72.7827ZM64.3589 49.0723H63.1336V50.2977H64.3589V49.0723ZM64.3589 46.7014V45.4761H63.1336V46.7014H64.3589ZM71.5901 60.2494V62.6094H74.0408V60.2494H71.5901ZM72.8155 61.384H64.3589V63.8347H72.8155V61.384ZM65.5843 62.6094V60.2494H63.1336V62.6094H65.5843ZM64.3589 61.4748H72.8155V59.024H64.3589V61.4748ZM64.0513 46.7014V62.6094H66.502V46.7014H64.0513ZM65.2767 61.384H62.2721V63.8347H65.2767V61.384ZM63.4975 62.6094V46.7014H61.0467V62.6094H63.4975ZM62.2721 47.9268H65.2767V45.4761H62.2721V47.9268ZM70.4866 53.2678V55.5732H72.9373V53.2678H70.4866ZM71.712 54.3478H64.3589V56.7985H71.712V54.3478ZM65.5843 55.5732V53.2678H63.1336V55.5732H65.5843ZM64.3589 54.4932H71.712V52.0425H64.3589V54.4932ZM71.5574 46.7014V49.0723H74.0081V46.7014H71.5574ZM72.7827 47.847H64.3589V50.2977H72.7827V47.847ZM65.5843 49.0723V46.7014H63.1336V49.0723H65.5843ZM64.3589 47.9268H72.7827V45.4761H64.3589V47.9268ZM79.7512 53.3115H80.9765V53.2691L80.9736 53.2269L79.7512 53.3115ZM79.7512 62.6094V63.8347H80.9765V62.6094H79.7512ZM76.8668 62.6094H75.6414V63.8347H76.8668V62.6094ZM76.8668 50.7877V49.5623H75.6414V50.7877H76.8668ZM79.5764 50.7877L80.7988 50.703L80.7198 49.5623H79.5764V50.7877ZM79.2923 56.2724V57.4978H80.5177V56.2724H79.2923ZM78.4401 56.2724L77.2148 56.262L77.2043 57.4978H78.4401V56.2724ZM79.7403 52.1315L78.7955 51.3511L78.7888 51.3594L79.7403 52.1315ZM85.8369 51.5743L84.9429 52.4124L84.9522 52.4222L85.8369 51.5743ZM86.6017 52.951L85.4305 53.3113L85.4333 53.3204L85.4362 53.3294L86.6017 52.951ZM86.8748 62.6094V63.8347H88.1002V62.6094H86.8748ZM83.9685 62.6094H82.7432V63.8347H83.9685V62.6094ZM83.7282 53.7267L82.6271 54.2644L82.6321 54.2747L82.6373 54.2848L83.7282 53.7267ZM83.0508 53.0602L82.5479 54.1777L82.5582 54.1822L83.0508 53.0602ZM80.8001 53.1367L81.3767 54.2179L81.3852 54.2133L80.8001 53.1367ZM79.9697 53.8687L78.9757 53.1522L78.9702 53.1598L78.9648 53.1676L79.9697 53.8687ZM78.5258 53.3115V62.6094H80.9765V53.3115H78.5258ZM79.7512 61.384H76.8668V63.8347H79.7512V61.384ZM78.0921 62.6094V50.7877H75.6414V62.6094H78.0921ZM76.8668 52.013H79.5764V49.5623H76.8668V52.013ZM78.3539 50.8723L78.5288 53.3962L80.9736 53.2269L80.7988 50.703L78.3539 50.8723ZM79.2923 55.0471H78.4401V57.4978H79.2923V55.0471ZM79.6654 56.2828C79.6718 55.5271 79.774 54.8736 79.9558 54.3108L77.6237 53.5578C77.3538 54.3934 77.2229 55.2988 77.2148 56.262L79.6654 56.2828ZM79.9558 54.3108C80.1413 53.7363 80.3912 53.274 80.6917 52.9037L78.7888 51.3594C78.2736 51.9942 77.8897 52.7338 77.6237 53.5578L79.9558 54.3108ZM80.685 52.9119C80.9902 52.5424 81.3403 52.2703 81.7404 52.0805L80.6901 49.8663C79.9539 50.2155 79.3207 50.7155 78.7956 51.3511L80.685 52.9119ZM81.7404 52.0805C82.1268 51.8972 82.5782 51.7945 83.1163 51.7945V49.3438C82.2559 49.3438 81.4399 49.5106 80.6901 49.8663L81.7404 52.0805ZM83.1163 51.7945C83.5697 51.7945 83.9437 51.8584 84.2529 51.9664L85.0608 49.6527C84.4523 49.4401 83.7993 49.3438 83.1163 49.3438V51.7945ZM84.2529 51.9664C84.5279 52.0624 84.7523 52.2091 84.9429 52.4124L86.7308 50.7363C86.2658 50.2403 85.7036 49.8771 85.0608 49.6527L84.2529 51.9664ZM84.9522 52.4222C85.1283 52.606 85.2993 52.885 85.4305 53.3113L87.7728 52.5906C87.5544 51.8807 87.2155 51.2419 86.7215 50.7265L84.9522 52.4222ZM85.4362 53.3294C85.5664 53.7303 85.6495 54.2855 85.6495 55.0269H88.1002C88.1002 54.1221 88.0011 53.2934 87.7671 52.5726L85.4362 53.3294ZM85.6495 55.0269V62.6094H88.1002V55.0269H85.6495ZM86.8748 61.384H83.9685V63.8347H86.8748V61.384ZM85.1939 62.6094V55.005H82.7432V62.6094H85.1939ZM85.1939 55.005C85.1939 54.3659 85.1023 53.7223 84.819 53.1686L82.6373 54.2848C82.6745 54.3576 82.7432 54.5662 82.7432 55.005H85.1939ZM84.8292 53.189C84.5584 52.6345 84.1267 52.1943 83.5434 51.9382L82.5582 54.1822C82.5753 54.1897 82.5811 54.1951 82.5847 54.1987C82.5892 54.203 82.6055 54.2202 82.6271 54.2644L84.8292 53.189ZM83.5536 51.9428C83.0596 51.7205 82.5156 51.6382 81.9691 51.6382V54.0889C82.2821 54.0889 82.4592 54.1377 82.5479 54.1777L83.5536 51.9428ZM81.9691 51.6382C81.3543 51.6382 80.7572 51.7654 80.2149 52.0601L81.3852 54.2133C81.513 54.1438 81.6953 54.0889 81.9691 54.0889V51.6382ZM80.2234 52.0555C79.7239 52.3219 79.3065 52.6933 78.9757 53.1522L80.9637 54.5853C81.0845 54.4178 81.2206 54.3011 81.3767 54.2179L80.2234 52.0555ZM78.9648 53.1676C78.6607 53.6035 78.4386 54.09 78.2889 54.6138L80.6453 55.287C80.7287 54.995 80.8417 54.7604 80.9746 54.5699L78.9648 53.1676ZM78.2889 54.6138C78.1377 55.143 78.0669 55.6981 78.0669 56.2724H80.5177C80.5177 55.8998 80.5634 55.5736 80.6453 55.287L78.2889 54.6138ZM98.738 67.1545H97.5127V68.3799H98.738V67.1545ZM98.738 53.1695L97.5257 52.9915L97.5127 53.08V53.1695H98.738ZM99.0877 50.7877V49.5623H98.029L97.8753 50.6097L99.0877 50.7877ZM101.644 50.7877H102.87V49.5623H101.644V50.7877ZM101.644 67.1545V68.3799H102.87V67.1545H101.644ZM91.4615 54.131L92.6423 54.4583L92.6431 54.4553L91.4615 54.131ZM92.3574 52.2299L91.3787 51.4925L91.3771 51.4947L92.3574 52.2299ZM93.8214 51.0062L94.3639 52.105L94.3749 52.0994L93.8214 51.0062ZM99.044 52.208L98.044 52.9163L98.0487 52.9229L99.044 52.208ZM99.9289 54.0545L98.7572 54.4132L98.7606 54.424L99.9289 54.0545ZM100.432 56.4254H101.657V56.3485L101.647 56.2721L100.432 56.4254ZM100.432 57.0481L101.646 57.208L101.657 57.1284V57.0481H100.432ZM99.9289 59.3535L98.7617 58.9805L98.7594 58.988L99.9289 59.3535ZM99.044 61.189L98.044 60.4807L98.0421 60.4835L99.044 61.189ZM97.6892 62.4018L98.2605 63.4859L98.2718 63.4797L97.6892 62.4018ZM93.8105 62.3799L93.2296 63.4588L93.2378 63.4632L93.246 63.4675L93.8105 62.3799ZM92.3574 61.1125L91.3675 61.8349L91.3739 61.8435L92.3574 61.1125ZM91.4615 59.2115L90.2806 59.5388L90.2815 59.5418L91.4615 59.2115ZM94.182 58.2718L92.9789 58.5047L92.9811 58.516L92.9835 58.5272L94.182 58.2718ZM95.3729 60.2603L94.7102 61.2911L94.7213 61.2981L95.3729 60.2603ZM97.9623 60.162L97.2648 59.1545L97.2557 59.1609L97.9623 60.162ZM98.8145 59.1022L97.691 58.6129L97.6873 58.6217L98.8145 59.1022ZM99.1969 57.5944L100.416 57.7227L100.422 57.6588V57.5944H99.1969ZM99.1969 55.89H100.422V55.8399L100.418 55.7899L99.1969 55.89ZM98.4758 53.7049L97.4987 54.4443L97.505 54.4526L97.5114 54.4608L98.4758 53.7049ZM95.3947 53.1367L96.0288 54.1853L96.0376 54.1799L96.0463 54.1745L95.3947 53.1367ZM99.9634 67.1545V53.1695H97.5127V67.1545H99.9634ZM99.9504 53.3475L100.3 50.9656L97.8753 50.6097L97.5257 52.9915L99.9504 53.3475ZM99.0877 52.013H101.644V49.5623H99.0877V52.013ZM100.419 50.7877V67.1545H102.87V50.7877H100.419ZM101.644 65.9292H98.738V68.3799H101.644V65.9292ZM92.3809 56.8187V56.5893H89.9302V56.8187H92.3809ZM92.3809 56.5893C92.3809 55.7771 92.4727 55.07 92.6423 54.4583L90.2806 53.8036C90.0423 54.6633 89.9302 55.595 89.9302 56.5893H92.3809ZM92.6431 54.4553C92.8133 53.8352 93.0513 53.3469 93.3377 52.9651L91.3771 51.4947C90.8768 52.1617 90.5175 52.9408 90.2798 53.8066L92.6431 54.4553ZM93.336 52.9672C93.6259 52.5825 93.9666 52.3011 94.3638 52.1049L93.279 49.9074C92.5254 50.2794 91.89 50.8138 91.3787 51.4925L93.336 52.9672ZM94.3749 52.0994C94.7544 51.9072 95.2191 51.7945 95.799 51.7945V49.3438C94.893 49.3438 94.0393 49.5224 93.2679 49.913L94.3749 52.0994ZM95.799 51.7945C96.3676 51.7945 96.7911 51.9047 97.1117 52.076L98.2666 49.9145C97.5238 49.5176 96.6872 49.3438 95.799 49.3438V51.7945ZM97.1117 52.076C97.4646 52.2646 97.7751 52.5366 98.044 52.9163L100.044 51.4997C99.5698 50.8305 98.9771 50.2941 98.2666 49.9145L97.1117 52.076ZM98.0487 52.9229C98.3303 53.3149 98.5712 53.8054 98.7573 54.4132L101.101 53.6958C100.85 52.8759 100.501 52.1355 100.039 51.4931L98.0487 52.9229ZM98.7606 54.424C98.9608 55.0568 99.1143 55.7734 99.2158 56.5786L101.647 56.2721C101.53 55.3438 101.349 54.4798 101.097 53.6849L98.7606 54.424ZM99.2062 56.4254V57.0481H101.657V56.4254H99.2062ZM99.2166 56.8883C99.1157 57.6554 98.9627 58.3517 98.7617 58.9805L101.096 59.7265C101.347 58.9423 101.529 58.1016 101.646 57.208L99.2166 56.8883ZM98.7594 58.988C98.5738 59.5817 98.3318 60.0745 98.044 60.4807L100.044 61.8973C100.499 61.2547 100.847 60.5238 101.099 59.719L98.7594 58.988ZM98.0421 60.4835C97.7833 60.8509 97.4734 61.1255 97.1065 61.3238L98.2718 63.4797C98.9829 63.0954 99.5762 62.5614 100.046 61.8946L98.0421 60.4835ZM97.1178 61.3178C96.7879 61.4916 96.3547 61.6025 95.7771 61.6025V64.0532C96.6709 64.0532 97.5123 63.8801 98.2605 63.4858L97.1178 61.3178ZM95.7771 61.6025C95.2112 61.6025 94.7537 61.4889 94.375 61.2923L93.246 63.4675C94.0181 63.8682 94.8717 64.0532 95.7771 64.0532V61.6025ZM94.3914 61.301C93.9878 61.0837 93.6389 60.7826 93.3408 60.3816L91.3739 61.8435C91.8771 62.5205 92.4969 63.0643 93.2296 63.4588L94.3914 61.301ZM93.3472 60.3902C93.0509 59.9842 92.8111 59.4871 92.6414 58.8811L90.2815 59.5418C90.5197 60.3925 90.8772 61.1629 91.3675 61.8349L93.3472 60.3902ZM92.6423 58.8841C92.4713 58.2675 92.3809 57.5812 92.3809 56.8187H89.9302C89.9302 57.7752 90.0437 58.6841 90.2806 59.5388L92.6423 58.8841ZM92.8255 56.5893V56.8187H95.2762V56.5893H92.8255ZM92.8255 56.8187C92.8255 57.4045 92.875 57.9676 92.9789 58.5047L95.385 58.039C95.3141 57.6729 95.2762 57.2672 95.2762 56.8187H92.8255ZM92.9835 58.5272C93.1009 59.0778 93.2876 59.5941 93.5565 60.0622L95.6815 58.8414C95.5571 58.6249 95.4525 58.3545 95.3804 58.0164L92.9835 58.5272ZM93.5565 60.0622C93.8423 60.5598 94.2255 60.9794 94.7103 61.2911L96.0355 59.2296C95.9085 59.1479 95.789 59.0285 95.6815 58.8414L93.5565 60.0622ZM94.7213 61.2981C95.2659 61.64 95.8811 61.7807 96.5092 61.7807V59.33C96.2486 59.33 96.1063 59.2739 96.0245 59.2226L94.7213 61.2981ZM96.5092 61.7807C97.2808 61.7807 98.0346 61.6108 98.6689 61.1631L97.2557 59.1609C97.147 59.2376 96.932 59.33 96.5092 59.33V61.7807ZM98.6598 61.1695C99.2381 60.7691 99.6663 60.2289 99.9417 59.5827L97.6873 58.6217C97.5839 58.8642 97.444 59.0304 97.2648 59.1545L98.6598 61.1695ZM99.938 59.5914C100.191 59.0113 100.346 58.3848 100.416 57.7227L97.9783 57.4662C97.9314 57.9112 97.8317 58.2899 97.6911 58.613L99.938 59.5914ZM100.422 57.5944V55.89H97.9716V57.5944H100.422ZM100.418 55.7899C100.375 55.2678 100.284 54.7691 100.137 54.2995L97.7983 55.0331C97.8841 55.3065 97.9456 55.6236 97.9757 55.9901L100.418 55.7899ZM100.137 54.2995C99.9819 53.8062 99.7542 53.3495 99.4402 52.949L97.5114 54.4608C97.6199 54.5992 97.72 54.7835 97.7983 55.0331L100.137 54.2995ZM99.4529 52.9654C99.1246 52.5316 98.7051 52.1983 98.2169 51.9653L97.1614 54.177C97.3142 54.25 97.4191 54.3391 97.4987 54.4443L99.4529 52.9654ZM98.2169 51.9653C97.6932 51.7153 97.1172 51.6164 96.531 51.6164V54.0671C96.848 54.0671 97.0442 54.1211 97.1614 54.177L98.2169 51.9653ZM96.531 51.6164C95.903 51.6164 95.2878 51.757 94.7431 52.099L96.0463 54.1745C96.1281 54.1231 96.2704 54.0671 96.531 54.0671V51.6164ZM94.7607 52.0881C94.256 52.3933 93.8591 52.8161 93.5674 53.3239L95.6924 54.5447C95.7941 54.3678 95.907 54.2589 96.0288 54.1853L94.7607 52.0881ZM93.5674 53.3239C93.2968 53.795 93.1104 54.3168 92.9936 54.8737L95.3922 55.3767C95.4648 55.0304 95.5697 54.7583 95.6924 54.5447L93.5674 53.3239ZM92.9936 54.8737C92.8794 55.4184 92.8255 55.9916 92.8255 56.5893H95.2762C95.2762 56.1381 95.317 55.7353 95.3922 55.3767L92.9936 54.8737ZM113.584 59.8014H112.359V59.8396L112.361 59.8776L113.584 59.8014ZM113.584 50.7877V49.5623H112.359V50.7877H113.584ZM116.49 50.7877H117.716V49.5623H116.49V50.7877ZM116.49 62.6094V63.8347H117.716V62.6094H116.49ZM113.759 62.6094L112.536 62.6855L112.607 63.8347H113.759V62.6094ZM113.955 57.3541L113.926 56.1291L112.73 56.1582V57.3541H113.955ZM114.851 57.3322H116.077V56.0766L114.822 56.1072L114.851 57.3322ZM114.589 59.5283L113.403 59.219L114.589 59.5283ZM113.77 61.2764L112.789 60.5412L112.788 60.5436L113.77 61.2764ZM112.382 62.4236L112.913 63.5282L112.924 63.5225L112.382 62.4236ZM108.799 62.5875L108.395 63.7446L108.403 63.7474L108.411 63.75L108.799 62.5875ZM107.553 61.8118L106.669 62.66L106.677 62.6692L106.687 62.6782L107.553 61.8118ZM106.755 60.4461L105.594 60.8381L105.596 60.8427L106.755 60.4461ZM106.471 50.7877V49.5623H105.246V50.7877H106.471ZM109.356 50.7877H110.581V49.5623H109.356V50.7877ZM109.487 59.43L108.324 59.8175L108.329 59.8319L108.334 59.8462L109.487 59.43ZM109.869 60.0746L108.984 60.9216L109.003 60.9413L109.022 60.9601L109.869 60.0746ZM110.448 60.4242L110.061 61.5867L110.084 61.5943L110.107 61.601L110.448 60.4242ZM112.819 60.1074L113.516 61.1155L113.519 61.1129L112.819 60.1074ZM113.693 58.9711L114.843 59.3955L114.845 59.3898L113.693 58.9711ZM114.809 59.8014V50.7877H112.359V59.8014H114.809ZM113.584 52.013H116.49V49.5623H113.584V52.013ZM115.265 50.7877V62.6094H117.716V50.7877H115.265ZM116.49 61.384H113.759V63.8347H116.49V61.384ZM114.982 62.5332L114.807 59.7253L112.361 59.8776L112.536 62.6855L114.982 62.5332ZM113.985 58.5791L114.881 58.5572L114.822 56.1072L113.926 56.1291L113.985 58.5791ZM113.626 57.3322C113.626 58.0367 113.548 58.6633 113.403 59.219L115.775 59.8376C115.98 59.053 116.077 58.2156 116.077 57.3322H113.626ZM113.403 59.219C113.264 59.7534 113.055 60.1875 112.789 60.5412L114.75 62.0116C115.228 61.3748 115.565 60.6435 115.775 59.8376L113.403 59.219ZM112.788 60.5436C112.542 60.8723 112.232 61.1312 111.84 61.3248L112.924 63.5225C113.654 63.1625 114.269 62.6566 114.752 62.0093L112.788 60.5436ZM111.851 61.3192C111.49 61.493 111.016 61.6025 110.394 61.6025V64.0532C111.301 64.0532 112.153 63.8933 112.913 63.5281L111.851 61.3192ZM110.394 61.6025C109.923 61.6025 109.525 61.5379 109.186 61.4251L108.411 63.75C109.034 63.9576 109.699 64.0532 110.394 64.0532V61.6025ZM109.202 61.4304C108.89 61.3218 108.635 61.1605 108.419 60.9453L106.687 62.6782C107.171 63.1623 107.746 63.5182 108.395 63.7446L109.202 61.4304ZM108.437 60.9636C108.239 60.7568 108.057 60.4648 107.915 60.0494L105.596 60.8427C105.833 61.5345 106.182 62.153 106.669 62.66L108.437 60.9636ZM107.916 60.0541C107.781 59.6533 107.697 59.1193 107.697 58.4248H105.246C105.246 59.3036 105.351 60.1171 105.594 60.8381L107.916 60.0541ZM107.697 58.4248V50.7877H105.246V58.4248H107.697ZM106.471 52.013H109.356V49.5623H106.471V52.013ZM108.13 50.7877V58.4466H110.581V50.7877H108.13ZM108.13 58.4466C108.13 58.9207 108.182 59.3897 108.324 59.8175L110.649 59.0425C110.617 58.9458 110.581 58.7592 110.581 58.4466H108.13ZM108.334 59.8462C108.475 60.2371 108.684 60.6083 108.984 60.9216L110.755 59.2276C110.734 59.2059 110.688 59.1473 110.639 59.0138L108.334 59.8462ZM109.022 60.9601C109.32 61.2446 109.669 61.4562 110.061 61.5867L110.836 59.2617C110.79 59.2465 110.754 59.225 110.716 59.1891L109.022 60.9601ZM110.107 61.601C110.452 61.7014 110.809 61.7479 111.169 61.7479V59.2972C111.02 59.2972 110.896 59.2782 110.79 59.2475L110.107 61.601ZM111.169 61.7479C112.014 61.7479 112.839 61.5831 113.516 61.1155L112.123 59.0992C111.998 59.1852 111.724 59.2972 111.169 59.2972V61.7479ZM113.519 61.1129C114.136 60.6833 114.583 60.1002 114.843 59.3955L112.544 58.5467C112.454 58.7889 112.318 58.9633 112.119 59.1018L113.519 61.1129ZM114.845 59.3898C115.076 58.7545 115.181 58.0707 115.181 57.3541H112.73C112.73 57.832 112.66 58.2262 112.542 58.5523L114.845 59.3898ZM124.344 50.7877H125.569V49.5623H124.344V50.7877ZM124.344 62.6094V63.8347H125.569V62.6094H124.344ZM121.448 62.6094H120.223V63.8347H121.448V62.6094ZM121.448 50.7877V49.5623H120.223V50.7877H121.448ZM121.689 46.6249L120.844 45.7371L120.839 45.7423L120.833 45.7476L121.689 46.6249ZM124.082 46.6249L123.226 47.5023L123.231 47.5076L123.237 47.5128L124.082 46.6249ZM124.082 48.7555L123.237 47.8676L123.231 47.8728L123.226 47.8781L124.082 48.7555ZM121.689 48.7555L120.833 49.6328L120.839 49.6381L120.844 49.6433L121.689 48.7555ZM123.118 50.7877V62.6094H125.569V50.7877H123.118ZM124.344 61.384H121.448V63.8347H124.344V61.384ZM122.674 62.6094V50.7877H120.223V62.6094H122.674ZM121.448 52.013H124.344V49.5623H121.448V52.013ZM122.477 47.6957C122.477 47.5756 122.504 47.5417 122.544 47.5023L120.833 45.7476C120.291 46.2763 120.026 46.9562 120.026 47.6957H122.477ZM122.533 47.5128C122.556 47.4909 122.63 47.4242 122.891 47.4242V44.9735C122.146 44.9735 121.418 45.1908 120.844 45.7371L122.533 47.5128ZM122.891 47.4242C123.153 47.4242 123.215 47.4912 123.226 47.5023L124.937 45.7476C124.366 45.1905 123.633 44.9735 122.891 44.9735V47.4242ZM123.237 47.5128C123.281 47.5547 123.304 47.5854 123.304 47.6957H125.755C125.755 46.9464 125.479 46.2633 124.926 45.7371L123.237 47.5128ZM123.304 47.6957C123.304 47.7597 123.293 47.7894 123.289 47.8004C123.284 47.8107 123.274 47.8328 123.237 47.8676L124.926 49.6433C125.475 49.1215 125.755 48.4443 125.755 47.6957H123.304ZM123.226 47.8781C123.215 47.8892 123.153 47.9562 122.891 47.9562V50.4069C123.633 50.4069 124.366 50.1899 124.937 49.6328L123.226 47.8781ZM122.891 47.9562C122.63 47.9562 122.556 47.8895 122.533 47.8676L120.844 49.6433C121.418 50.1896 122.146 50.4069 122.891 50.4069V47.9562ZM122.544 47.8781C122.499 47.8344 122.477 47.8019 122.477 47.6957H120.026C120.026 48.4344 120.296 49.1084 120.833 49.6328L122.544 47.8781ZM132.219 53.2023H133.444V53.1635L133.442 53.1248L132.219 53.2023ZM132.219 62.6094V63.8347H133.444V62.6094H132.219ZM129.335 62.6094H128.109V63.8347H129.335V62.6094ZM129.335 50.7877V49.5623H128.109V50.7877H129.335ZM132.066 50.7877L133.289 50.7102L133.216 49.5623H132.066V50.7877ZM135.814 50.7112L137.039 50.7311L137.053 49.887L136.269 49.5735L135.814 50.7112ZM135.77 53.3989L135.551 54.6045L136.972 54.8629L136.995 53.4189L135.77 53.3989ZM135.224 53.3334L135.133 54.5554L135.136 54.5556L135.224 53.3334ZM133.497 53.4973L133.9 54.6546L133.911 54.6507L133.922 54.6466L133.497 53.4973ZM132.656 54.0108L131.79 53.1443L131.783 53.1514L131.776 53.1586L132.656 54.0108ZM132.153 54.8411L133.305 55.2599L133.308 55.2516L132.153 54.8411ZM131.957 55.9337L131.807 57.1499L133.134 57.3128L133.181 55.9775L131.957 55.9337ZM131.334 55.8572H130.109V56.9413L131.185 57.0735L131.334 55.8572ZM132.23 52.0878L131.182 51.4527L132.23 52.0878ZM133.323 50.9734L133.953 52.0241L133.958 52.0211L133.323 50.9734ZM135.366 50.6129L135.172 51.8228L135.199 51.8271L135.225 51.8301L135.366 50.6129ZM130.994 53.2023V62.6094H133.444V53.2023H130.994ZM132.219 61.384H129.335V63.8347H132.219V61.384ZM130.56 62.6094V50.7877H128.109V62.6094H130.56ZM129.335 52.013H132.066V49.5623H129.335V52.013ZM130.843 50.8651L130.996 53.2797L133.442 53.1248L133.289 50.7102L130.843 50.8651ZM134.588 50.6913L134.545 53.379L136.995 53.4189L137.039 50.7311L134.588 50.6913ZM135.989 52.1933C135.776 52.1546 135.549 52.1281 135.311 52.1111L135.136 54.5556C135.307 54.5678 135.443 54.585 135.551 54.6045L135.989 52.1933ZM135.314 52.1114C135.091 52.0948 134.875 52.0862 134.666 52.0862V54.5369C134.807 54.5369 134.963 54.5428 135.133 54.5554L135.314 52.1114ZM134.666 52.0862C134.111 52.0862 133.572 52.1632 133.073 52.3479L133.922 54.6466C134.093 54.5836 134.333 54.5369 134.666 54.5369V52.0862ZM133.095 52.3399C132.605 52.5104 132.16 52.7739 131.79 53.1443L133.523 54.8772C133.604 54.796 133.72 54.7172 133.9 54.6546L133.095 52.3399ZM131.776 53.1586C131.423 53.5233 131.168 53.9556 130.999 54.4306L133.308 55.2516C133.372 55.0712 133.452 54.9499 133.537 54.8629L131.776 53.1586ZM131.002 54.4224C130.834 54.8843 130.751 55.3785 130.732 55.89L133.181 55.9775C133.192 55.6732 133.24 55.439 133.305 55.2599L131.002 54.4224ZM132.106 54.7175L131.483 54.641L131.185 57.0735L131.807 57.1499L132.106 54.7175ZM132.559 55.8572C132.559 55.1898 132.627 54.5908 132.755 54.0548L130.372 53.486C130.194 54.2319 130.109 55.0241 130.109 55.8572H132.559ZM132.755 54.0548C132.884 53.5167 133.063 53.0781 133.278 52.7229L131.182 51.4527C130.815 52.059 130.549 52.7421 130.372 53.486L132.755 54.0548ZM133.278 52.7229C133.477 52.3948 133.704 52.1736 133.953 52.0241L132.692 49.9227C132.067 50.2977 131.566 50.8194 131.182 51.4527L133.278 52.7229ZM133.958 52.0211C134.191 51.88 134.476 51.7945 134.852 51.7945V49.3438C134.077 49.3438 133.343 49.5278 132.687 49.9257L133.958 52.0211ZM134.852 51.7945C134.939 51.7945 135.045 51.8024 135.172 51.8228L135.559 49.4029C135.322 49.365 135.086 49.3438 134.852 49.3438V51.7945ZM135.225 51.8301C135.288 51.8374 135.331 51.845 135.357 51.8507C135.384 51.8567 135.382 51.8581 135.359 51.8489L136.269 49.5735C136.016 49.4724 135.746 49.4232 135.506 49.3956L135.225 51.8301ZM143.296 61.2983L144.441 61.7345L144.456 61.6937L144.469 61.6519L143.296 61.2983ZM146.464 50.7877V49.5623H145.554L145.291 50.434L146.464 50.7877ZM149.556 50.7877L150.713 51.1907L151.28 49.5623H149.556V50.7877ZM144.814 64.4012L145.962 64.8315L145.967 64.8179L145.971 64.8043L144.814 64.4012ZM144.388 65.3517L143.297 64.7945L143.292 64.8038L143.288 64.8131L144.388 65.3517ZM143.711 66.3241L142.813 65.4904L142.808 65.4956L142.803 65.5009L143.711 66.3241ZM142.64 67.089L142.13 65.9747L142.123 65.9781L142.64 67.089ZM139.756 67.1873H138.53V68.1366L139.449 68.3738L139.756 67.1873ZM139.756 65.024L139.878 63.8047L138.53 63.67V65.024H139.756ZM140.007 65.0349L140.094 63.8127L140.051 63.8095H140.007V65.0349ZM141.318 64.8929L140.921 63.7335L140.908 63.7381L140.894 63.7431L141.318 64.8929ZM141.985 64.4231L141.04 63.6418L141.026 63.6594L141.012 63.6775L141.985 64.4231ZM142.422 63.5927L141.276 63.1565L141.269 63.177L141.262 63.1978L142.422 63.5927ZM141.733 50.7877L142.904 50.4276L142.638 49.5623H141.733V50.7877ZM144.41 59.4955L145.621 59.3089L145.607 59.2207L145.581 59.1355L144.41 59.4955ZM144.88 62.5438L145.098 63.7495L146.273 63.5366L146.091 62.3572L144.88 62.5438ZM142.891 62.9044L141.736 63.3118L142.083 64.2963L143.11 64.1101L142.891 62.9044ZM138.619 50.7877V49.5623H136.888L137.464 51.1951L138.619 50.7877ZM144.469 61.6519L147.637 51.1413L145.291 50.434L142.122 60.9446L144.469 61.6519ZM146.464 52.013H149.556V49.5623H146.464V52.013ZM148.399 50.3846L143.657 63.9981L145.971 64.8043L150.713 51.1907L148.399 50.3846ZM143.667 63.971C143.577 64.2103 143.455 64.4842 143.297 64.7945L145.479 65.909C145.671 65.5346 145.833 65.1748 145.962 64.8315L143.667 63.971ZM143.288 64.8131C143.178 65.038 143.023 65.264 142.813 65.4904L144.609 67.1579C144.967 66.7724 145.264 66.3502 145.489 65.8904L143.288 64.8131ZM142.803 65.5009C142.643 65.6775 142.427 65.839 142.13 65.9747L143.15 68.2032C143.713 67.9456 144.21 67.5972 144.618 67.1474L142.803 65.5009ZM142.123 65.9781C141.903 66.0804 141.576 66.1586 141.1 66.1586V68.6093C141.832 68.6093 142.532 68.4908 143.157 68.1998L142.123 65.9781ZM141.1 66.1586C140.891 66.1586 140.733 66.1439 140.616 66.123L140.185 68.5356C140.476 68.5875 140.783 68.6093 141.1 68.6093V66.1586ZM140.616 66.123C140.446 66.0927 140.261 66.0523 140.062 66.0008L139.449 68.3738C139.702 68.4388 139.947 68.4931 140.185 68.5356L140.616 66.123ZM140.981 67.1873V65.024H138.53V67.1873H140.981ZM139.634 66.2432C139.757 66.2556 139.883 66.2603 140.007 66.2603V63.8095C139.942 63.8095 139.9 63.807 139.878 63.8047L139.634 66.2432ZM139.92 66.2571C140.04 66.2657 140.158 66.2712 140.269 66.2712V63.8205C140.234 63.8205 140.178 63.8186 140.094 63.8127L139.92 66.2571ZM140.269 66.2712C140.779 66.2712 141.284 66.2112 141.742 66.0427L140.894 63.7431C140.798 63.7785 140.604 63.8205 140.269 63.8205V66.2712ZM141.715 66.0523C142.205 65.8845 142.633 65.591 142.957 65.1686L141.012 63.6775C141.001 63.6921 140.985 63.7118 140.921 63.7335L141.715 66.0523ZM142.929 65.2043C143.223 64.8484 143.431 64.4283 143.582 63.9876L141.262 63.1978C141.179 63.4418 141.096 63.5753 141.04 63.6418L142.929 65.2043ZM143.567 64.0289L144.441 61.7345L142.151 60.8621L141.276 63.1565L143.567 64.0289ZM140.562 51.1477L143.239 59.8556L145.581 59.1355L142.904 50.4276L140.562 51.1477ZM143.199 59.6822L143.669 62.7305L146.091 62.3572L145.621 59.3089L143.199 59.6822ZM144.661 61.3381L142.673 61.6987L143.11 64.1101L145.098 63.7495L144.661 61.3381ZM144.047 62.4969L139.775 50.3802L137.464 51.1951L141.736 63.3118L144.047 62.4969ZM138.619 52.013H141.733V49.5623H138.619V52.013ZM174.004 46.7014H175.229V45.4761H174.004V46.7014ZM174.004 62.6094V63.8347H175.229V62.6094H174.004ZM170.988 62.6094L169.943 63.2497L170.302 63.8347H170.988V62.6094ZM164.225 51.5743L165.27 50.934L163 47.23V51.5743H164.225ZM164.225 62.6094V63.8347H165.45V62.6094H164.225ZM161.22 62.6094H159.995V63.8347H161.22V62.6094ZM161.22 46.7014V45.4761H159.995V46.7014H161.22ZM164.225 46.7014L165.269 46.0601L164.91 45.4761H164.225V46.7014ZM171.01 57.7474L169.966 58.3887L172.235 62.0835V57.7474H171.01ZM171.01 46.7014V45.4761H169.785V46.7014H171.01ZM172.778 46.7014V62.6094H175.229V46.7014H172.778ZM174.004 61.384H170.988V63.8347H174.004V61.384ZM172.033 61.9691L165.27 50.934L163.18 52.2146L169.943 63.2497L172.033 61.9691ZM163 51.5743V62.6094H165.45V51.5743H163ZM164.225 61.384H161.22V63.8347H164.225V61.384ZM162.446 62.6094V46.7014H159.995V62.6094H162.446ZM161.22 47.9268H164.225V45.4761H161.22V47.9268ZM163.181 47.3428L169.966 58.3887L172.054 57.1061L165.269 46.0601L163.181 47.3428ZM172.235 57.7474V46.7014H169.785V57.7474H172.235ZM171.01 47.9268H174.004V45.4761H171.01V47.9268ZM178.94 54.1965L180.1 54.591L180.101 54.5875L178.94 54.1965ZM180.022 52.2845L179.101 51.4758L180.022 52.2845ZM181.759 51.028L182.249 52.1512L182.259 52.1468L181.759 51.028ZM186.457 51.028L185.957 52.1468L185.964 52.15L185.971 52.1531L186.457 51.028ZM189.287 54.1965L188.125 54.5875L188.126 54.591L189.287 54.1965ZM189.287 59.2115L190.447 59.6059L190.448 59.6024L189.287 59.2115ZM188.205 61.1235L189.126 61.9321L189.131 61.926L188.205 61.1235ZM180.022 61.1235L179.096 61.926L179.101 61.9321L180.022 61.1235ZM178.94 59.2115L177.779 59.6024L177.78 59.6059L178.94 59.2115ZM182.895 60.2713L182.275 61.328L182.288 61.3359L182.302 61.3435L182.895 60.2713ZM185.321 60.2713L185.924 61.338L185.932 61.3331L185.941 61.328L185.321 60.2713ZM186.14 59.4627L185.107 58.8035L185.102 58.8113L185.097 58.8193L186.14 59.4627ZM186.621 58.2718L185.425 58.0019L186.621 58.2718ZM186.621 55.158L185.425 55.4279L185.426 55.4321L186.621 55.158ZM186.14 53.9671L185.091 54.6007L185.099 54.6136L185.107 54.6264L186.14 53.9671ZM185.31 53.1476L184.673 54.1943L184.686 54.2024L184.699 54.2101L185.31 53.1476ZM182.895 53.1476L183.515 54.2044L183.524 54.1994L183.532 54.1943L182.895 53.1476ZM182.076 53.9671L183.118 54.6105L183.124 54.6007L182.076 53.9671ZM181.606 55.158L182.8 55.4321L182.801 55.4279L181.606 55.158ZM179.794 56.8187V56.5893H177.343V56.8187H179.794ZM179.794 56.5893C179.794 55.8399 179.901 55.1773 180.1 54.591L177.78 53.8021C177.484 54.6725 177.343 55.6051 177.343 56.5893H179.794ZM180.101 54.5875C180.301 53.9929 180.584 53.5005 180.942 53.0932L179.101 51.4758C178.512 52.1465 178.074 52.9288 177.779 53.8056L180.101 54.5875ZM180.942 53.0932C181.292 52.6949 181.722 52.3809 182.249 52.1512L181.269 49.9049C180.426 50.2724 179.698 50.796 179.101 51.4758L180.942 53.0932ZM182.259 52.1468C182.762 51.9218 183.367 51.7945 184.097 51.7945V49.3438C183.079 49.3438 182.125 49.5224 181.259 49.9093L182.259 52.1468ZM184.097 51.7945C184.845 51.7945 185.456 51.9229 185.957 52.1468L186.957 49.9093C186.088 49.5213 185.126 49.3438 184.097 49.3438V51.7945ZM185.971 52.1531C186.505 52.3835 186.937 52.6974 187.284 53.0932L189.126 51.4758C188.526 50.7936 187.792 50.2698 186.942 49.903L185.971 52.1531ZM187.284 53.0932C187.642 53.5005 187.925 53.9929 188.125 54.5875L190.448 53.8056C190.153 52.9288 189.715 52.1465 189.126 51.4758L187.284 53.0932ZM188.126 54.591C188.326 55.1773 188.433 55.8399 188.433 56.5893H190.883C190.883 55.6051 190.743 54.6725 190.447 53.8021L188.126 54.591ZM188.433 56.5893V56.8187H190.883V56.5893H188.433ZM188.433 56.8187C188.433 57.5594 188.326 58.2236 188.125 58.8205L190.448 59.6024C190.742 58.728 190.883 57.797 190.883 56.8187H188.433ZM188.126 58.817C187.926 59.4053 187.642 59.9018 187.279 60.3209L189.131 61.926C189.715 61.2525 190.151 60.4744 190.447 59.6059L188.126 58.817ZM187.284 60.3148C186.935 60.713 186.505 61.027 185.978 61.2568L186.958 63.5031C187.8 63.1356 188.528 62.6119 189.126 61.9321L187.284 60.3148ZM185.978 61.2568C185.473 61.477 184.861 61.6025 184.119 61.6025V64.0532C185.139 64.0532 186.093 63.8801 186.958 63.5031L185.978 61.2568ZM184.119 61.6025C183.385 61.6025 182.771 61.4776 182.255 61.2549L181.284 63.505C182.152 63.8795 183.104 64.0532 184.119 64.0532V61.6025ZM182.255 61.2549C181.721 61.0245 181.29 60.7105 180.942 60.3148L179.101 61.9321C179.7 62.6144 180.434 63.1381 181.284 63.505L182.255 61.2549ZM180.948 60.3209C180.584 59.9018 180.3 59.4053 180.1 58.817L177.78 59.6059C178.075 60.4744 178.512 61.2525 179.096 61.926L180.948 60.3209ZM180.101 58.8205C179.9 58.2236 179.794 57.5594 179.794 56.8187H177.343C177.343 57.797 177.484 58.728 177.779 59.6024L180.101 58.8205ZM180.227 56.5893V56.8187H182.678V56.5893H180.227ZM180.227 56.8187C180.227 57.4162 180.286 57.9919 180.411 58.5417L182.801 58.0019C182.721 57.6485 182.678 57.2555 182.678 56.8187H180.227ZM180.411 58.5417C180.538 59.1058 180.741 59.6327 181.033 60.1062L183.118 58.8193C182.988 58.6081 182.878 58.341 182.801 58.0019L180.411 58.5417ZM181.033 60.1062C181.345 60.6125 181.761 61.0265 182.275 61.328L183.515 59.2145C183.359 59.1227 183.229 58.9977 183.118 58.8193L181.033 60.1062ZM182.302 61.3435C182.86 61.6524 183.481 61.7807 184.119 61.7807V59.33C183.809 59.33 183.614 59.2689 183.488 59.199L182.302 61.3435ZM184.119 61.7807C184.752 61.7807 185.369 61.6512 185.924 61.338L184.718 59.2045C184.602 59.27 184.418 59.33 184.119 59.33V61.7807ZM185.941 61.328C186.455 61.0265 186.87 60.6125 187.183 60.1062L185.097 58.8193C184.987 58.9977 184.857 59.1227 184.7 59.2145L185.941 61.328ZM187.173 60.122C187.477 59.6448 187.687 59.1124 187.816 58.5417L185.425 58.0019C185.35 58.3344 185.24 58.596 185.107 58.8035L187.173 60.122ZM187.816 58.5417C187.94 57.9919 187.999 57.4162 187.999 56.8187H185.548C185.548 57.2555 185.505 57.6485 185.425 58.0019L187.816 58.5417ZM187.999 56.8187V56.5893H185.548V56.8187H187.999ZM187.999 56.5893C187.999 55.9979 187.94 55.428 187.815 54.8839L185.426 55.4321C185.506 55.7766 185.548 56.1609 185.548 56.5893H187.999ZM187.816 54.8881C187.687 54.3174 187.477 53.785 187.173 53.3078L185.107 54.6264C185.24 54.8338 185.35 55.0954 185.425 55.4279L187.816 54.8881ZM187.189 53.3334C186.874 52.8124 186.449 52.3889 185.92 52.0851L184.699 54.2101C184.855 54.2997 184.984 54.4225 185.091 54.6007L187.189 53.3334ZM185.947 52.1009C185.383 51.758 184.748 51.6164 184.097 51.6164V54.0671C184.392 54.0671 184.566 54.1293 184.673 54.1943L185.947 52.1009ZM184.097 51.6164C183.449 51.6164 182.818 51.7598 182.258 52.1009L183.532 54.1943C183.642 54.1276 183.813 54.0671 184.097 54.0671V51.6164ZM182.275 52.0909C181.755 52.3961 181.338 52.8186 181.027 53.3334L183.124 54.6007C183.236 54.4163 183.365 54.2925 183.515 54.2044L182.275 52.0909ZM181.033 53.3236C180.741 53.7971 180.538 54.324 180.411 54.8881L182.801 55.4279C182.878 55.0888 182.988 54.8217 183.118 54.6105L181.033 53.3236ZM180.411 54.8839C180.287 55.428 180.227 55.9979 180.227 56.5893H182.678C182.678 56.1609 182.721 55.7766 182.8 55.4321L180.411 54.8839ZM197.282 59.7687L196.105 59.4292L196.076 59.5293L196.064 59.6328L197.282 59.7687ZM199.872 50.7877V49.5623H198.95L198.694 50.4482L199.872 50.7877ZM201.707 50.7877L202.914 51.0001L203.167 49.5623H201.707V50.7877ZM201.161 53.8906L202.335 54.2422L202.355 54.1736L202.368 54.1031L201.161 53.8906ZM198.55 62.6094V63.8347H199.462L199.723 62.9609L198.55 62.6094ZM196.965 62.6094L195.747 62.4735L195.596 63.8347H196.965V62.6094ZM195.851 50.7877L197.049 50.5289L196.84 49.5623H195.851V50.7877ZM197.796 59.7905L199.019 59.7147L199.013 59.6223L198.993 59.5318L197.796 59.7905ZM197.97 62.6094V63.8347H199.274L199.193 62.5335L197.97 62.6094ZM196.146 62.6094L194.961 62.9205L195.201 63.8347H196.146V62.6094ZM193.043 50.7877V49.5623H191.454L191.858 51.0988L193.043 50.7877ZM204.111 59.6594L202.913 59.4027L202.894 59.4872L202.888 59.5734L204.111 59.6594ZM206.012 50.7877V49.5623H205.021L204.814 50.5309L206.012 50.7877ZM208.809 50.7877L209.995 51.0967L210.394 49.5623H208.809V50.7877ZM205.728 62.6094V63.8347H206.675L206.914 62.9184L205.728 62.6094ZM203.903 62.6094L202.681 62.5234L202.589 63.8347H203.903V62.6094ZM201.991 50.7877L203.168 50.4478L202.913 49.5623H201.991V50.7877ZM204.559 59.6813L205.776 59.5405L205.764 59.4393L205.736 59.3414L204.559 59.6813ZM204.897 62.6094V63.8347H206.273L206.115 62.4686L204.897 62.6094ZM203.313 62.6094L202.14 62.9636L202.403 63.8347H203.313V62.6094ZM200.68 53.8906L199.473 54.0989L199.485 54.1729L199.507 54.2449L200.68 53.8906ZM200.145 50.7877V49.5623H198.69L198.937 50.996L200.145 50.7877ZM198.46 60.1081L201.049 51.1271L198.694 50.4482L196.105 59.4292L198.46 60.1081ZM199.872 52.013H201.707V49.5623H199.872V52.013ZM200.5 50.5752L199.954 53.6781L202.368 54.1031L202.914 51.0001L200.5 50.5752ZM199.987 53.539L197.376 62.2578L199.723 62.9609L202.335 54.2422L199.987 53.539ZM198.55 61.384H196.965V63.8347H198.55V61.384ZM198.183 62.7452L198.5 59.9045L196.064 59.6328L195.747 62.4735L198.183 62.7452ZM194.653 51.0464L196.598 60.0493L198.993 59.5318L197.049 50.5289L194.653 51.0464ZM196.573 59.8664L196.747 62.6852L199.193 62.5335L199.019 59.7147L196.573 59.8664ZM197.97 61.384H196.146V63.8347H197.97V61.384ZM197.331 62.2983L194.228 50.4766L191.858 51.0988L194.961 62.9205L197.331 62.2983ZM193.043 52.013H195.851V49.5623H193.043V52.013ZM205.309 59.9162L207.21 51.0444L204.814 50.5309L202.913 59.4027L205.309 59.9162ZM206.012 52.013H208.809V49.5623H206.012V52.013ZM207.623 50.4786L204.542 62.3003L206.914 62.9184L209.995 51.0967L207.623 50.4786ZM205.728 61.384H203.903V63.8347H205.728V61.384ZM205.125 62.6954L205.333 59.7454L202.888 59.5734L202.681 62.5234L205.125 62.6954ZM200.814 51.1275L203.381 60.0211L205.736 59.3414L203.168 50.4478L200.814 51.1275ZM203.341 59.8221L203.68 62.7502L206.115 62.4686L205.776 59.5405L203.341 59.8221ZM204.897 61.384H203.313V63.8347H204.897V61.384ZM204.486 62.2551L201.853 53.5363L199.507 54.2449L202.14 62.9636L204.486 62.2551ZM201.888 53.6823L201.352 50.5793L198.937 50.996L199.473 54.0989L201.888 53.6823ZM200.145 52.013H201.991V49.5623H200.145V52.013Z" fill="white" mask="url(#path-3-outside-1_721_5057)"/>
<rect x="51.6064" y="82.3555" width="349.248" height="53.2188" rx="26.6094" fill="#FBB90F"/>
<path d="M209.221 111.28C209.221 112.17 209.013 112.92 208.598 113.531C208.182 114.135 207.61 114.593 206.883 114.905C206.161 115.21 205.343 115.363 204.427 115.363C203.511 115.363 202.689 115.21 201.961 114.905C201.234 114.593 200.659 114.135 200.237 113.531C199.814 112.92 199.603 112.17 199.603 111.28C199.603 110.682 199.723 110.143 199.964 109.662C200.204 109.175 200.539 108.759 200.968 108.415C201.403 108.064 201.913 107.798 202.497 107.616C203.082 107.427 203.719 107.333 204.407 107.333C205.33 107.333 206.155 107.496 206.883 107.82C207.61 108.145 208.182 108.603 208.598 109.194C209.013 109.786 209.221 110.481 209.221 111.28ZM206.395 111.095C206.395 110.659 206.311 110.286 206.142 109.974C205.98 109.656 205.749 109.412 205.45 109.243C205.151 109.074 204.804 108.99 204.407 108.99C204.011 108.99 203.664 109.074 203.365 109.243C203.066 109.412 202.832 109.656 202.663 109.974C202.501 110.286 202.419 110.659 202.419 111.095C202.419 111.523 202.501 111.894 202.663 112.206C202.832 112.517 203.066 112.758 203.365 112.927C203.67 113.089 204.024 113.17 204.427 113.17C204.83 113.17 205.177 113.089 205.47 112.927C205.768 112.758 205.996 112.517 206.152 112.206C206.314 111.894 206.395 111.523 206.395 111.095ZM208.919 104.741C208.919 105.462 208.728 106.102 208.344 106.661C207.961 107.213 207.428 107.645 206.746 107.957C206.07 108.269 205.297 108.425 204.427 108.425C203.55 108.425 202.77 108.269 202.088 107.957C201.406 107.645 200.873 107.213 200.49 106.661C200.107 106.102 199.915 105.462 199.915 104.741C199.915 103.884 200.107 103.163 200.49 102.578C200.88 101.987 201.413 101.538 202.088 101.233C202.77 100.928 203.543 100.775 204.407 100.775C205.284 100.775 206.061 100.928 206.736 101.233C207.418 101.538 207.951 101.987 208.334 102.578C208.724 103.163 208.919 103.884 208.919 104.741ZM206.113 104.868C206.113 104.485 206.044 104.153 205.908 103.874C205.772 103.588 205.577 103.367 205.323 103.211C205.077 103.055 204.771 102.977 204.407 102.977C204.057 102.977 203.754 103.052 203.501 103.202C203.254 103.351 203.063 103.569 202.926 103.854C202.796 104.134 202.731 104.472 202.731 104.868C202.731 105.251 202.796 105.589 202.926 105.881C203.063 106.167 203.258 106.391 203.511 106.554C203.764 106.716 204.07 106.797 204.427 106.797C204.784 106.797 205.086 106.716 205.333 106.554C205.586 106.391 205.778 106.167 205.908 105.881C206.044 105.589 206.113 105.251 206.113 104.868ZM221.878 111.28C221.878 112.17 221.67 112.92 221.255 113.531C220.839 114.135 220.267 114.593 219.54 114.905C218.819 115.21 218 115.363 217.084 115.363C216.168 115.363 215.346 115.21 214.619 114.905C213.891 114.593 213.316 114.135 212.894 113.531C212.472 112.92 212.26 112.17 212.26 111.28C212.26 110.682 212.381 110.143 212.621 109.662C212.861 109.175 213.196 108.759 213.625 108.415C214.06 108.064 214.57 107.798 215.155 107.616C215.739 107.427 216.376 107.333 217.065 107.333C217.987 107.333 218.812 107.496 219.54 107.82C220.267 108.145 220.839 108.603 221.255 109.194C221.67 109.786 221.878 110.481 221.878 111.28ZM219.052 111.095C219.052 110.659 218.968 110.286 218.799 109.974C218.637 109.656 218.406 109.412 218.107 109.243C217.808 109.074 217.461 108.99 217.065 108.99C216.668 108.99 216.321 109.074 216.022 109.243C215.723 109.412 215.489 109.656 215.32 109.974C215.158 110.286 215.077 110.659 215.077 111.095C215.077 111.523 215.158 111.894 215.32 112.206C215.489 112.517 215.723 112.758 216.022 112.927C216.327 113.089 216.681 113.17 217.084 113.17C217.487 113.17 217.834 113.089 218.127 112.927C218.426 112.758 218.653 112.517 218.809 112.206C218.971 111.894 219.052 111.523 219.052 111.095ZM221.576 104.741C221.576 105.462 221.385 106.102 221.001 106.661C220.618 107.213 220.085 107.645 219.403 107.957C218.728 108.269 217.955 108.425 217.084 108.425C216.207 108.425 215.427 108.269 214.745 107.957C214.063 107.645 213.53 107.213 213.147 106.661C212.764 106.102 212.572 105.462 212.572 104.741C212.572 103.884 212.764 103.163 213.147 102.578C213.537 101.987 214.07 101.538 214.745 101.233C215.427 100.928 216.2 100.775 217.065 100.775C217.942 100.775 218.718 100.928 219.393 101.233C220.076 101.538 220.608 101.987 220.992 102.578C221.381 103.163 221.576 103.884 221.576 104.741ZM218.77 104.868C218.77 104.485 218.702 104.153 218.565 103.874C218.429 103.588 218.234 103.367 217.981 103.211C217.734 103.055 217.428 102.977 217.065 102.977C216.714 102.977 216.412 103.052 216.158 103.202C215.911 103.351 215.72 103.569 215.583 103.854C215.453 104.134 215.388 104.472 215.388 104.868C215.388 105.251 215.453 105.589 215.583 105.881C215.72 106.167 215.915 106.391 216.168 106.554C216.421 106.716 216.727 106.797 217.084 106.797C217.441 106.797 217.743 106.716 217.99 106.554C218.244 106.391 218.435 106.167 218.565 105.881C218.702 105.589 218.77 105.251 218.77 104.868ZM234.682 112.975V115.168H224.976V113.297L229.566 108.376C230.027 107.863 230.391 107.411 230.657 107.021C230.923 106.625 231.115 106.271 231.232 105.959C231.356 105.641 231.417 105.339 231.417 105.053C231.417 104.624 231.346 104.257 231.203 103.952C231.06 103.64 230.849 103.4 230.569 103.231C230.297 103.062 229.959 102.977 229.556 102.977C229.127 102.977 228.757 103.081 228.445 103.289C228.14 103.497 227.906 103.786 227.743 104.157C227.588 104.527 227.51 104.946 227.51 105.414H224.693C224.693 104.569 224.895 103.796 225.298 103.094C225.7 102.386 226.269 101.824 227.003 101.409C227.737 100.986 228.608 100.775 229.614 100.775C230.608 100.775 231.446 100.938 232.129 101.262C232.817 101.581 233.337 102.042 233.688 102.646C234.045 103.244 234.224 103.958 234.224 104.79C234.224 105.258 234.149 105.716 234 106.164C233.85 106.606 233.636 107.047 233.356 107.489C233.084 107.924 232.752 108.366 232.362 108.814C231.973 109.263 231.541 109.727 231.066 110.208L228.601 112.975H234.682ZM240.274 108.707L238.033 108.171L238.841 100.98H246.813V103.25H241.151L240.8 106.398C240.989 106.287 241.274 106.17 241.658 106.047C242.041 105.917 242.47 105.852 242.944 105.852C243.633 105.852 244.243 105.959 244.776 106.174C245.309 106.388 245.76 106.7 246.13 107.109C246.507 107.518 246.793 108.019 246.988 108.61C247.183 109.201 247.28 109.87 247.28 110.617C247.28 111.247 247.183 111.848 246.988 112.42C246.793 112.985 246.498 113.492 246.101 113.94C245.705 114.382 245.208 114.729 244.61 114.983C244.013 115.236 243.305 115.363 242.486 115.363C241.875 115.363 241.284 115.272 240.712 115.09C240.147 114.908 239.637 114.639 239.183 114.281C238.734 113.924 238.374 113.492 238.101 112.985C237.835 112.472 237.695 111.887 237.682 111.231H240.469C240.508 111.634 240.612 111.981 240.781 112.274C240.956 112.56 241.187 112.781 241.473 112.936C241.758 113.092 242.093 113.17 242.476 113.17C242.834 113.17 243.139 113.102 243.392 112.966C243.646 112.829 243.85 112.641 244.006 112.4C244.162 112.154 244.276 111.868 244.347 111.543C244.425 111.212 244.464 110.854 244.464 110.471C244.464 110.088 244.419 109.74 244.328 109.428C244.237 109.117 244.097 108.847 243.909 108.62C243.72 108.392 243.48 108.217 243.188 108.093C242.902 107.97 242.567 107.908 242.184 107.908C241.664 107.908 241.261 107.989 240.976 108.152C240.696 108.314 240.462 108.499 240.274 108.707ZM252.278 113.034H252.463C253.243 113.034 253.912 112.94 254.471 112.751C255.036 112.556 255.5 112.277 255.864 111.913C256.228 111.549 256.498 111.104 256.673 110.578C256.848 110.046 256.936 109.441 256.936 108.766V106.076C256.936 105.563 256.884 105.111 256.78 104.722C256.683 104.332 256.54 104.01 256.351 103.757C256.17 103.497 255.955 103.302 255.708 103.172C255.468 103.042 255.202 102.977 254.909 102.977C254.597 102.977 254.321 103.055 254.081 103.211C253.841 103.361 253.636 103.565 253.467 103.825C253.305 104.085 253.178 104.384 253.087 104.722C253.003 105.053 252.96 105.401 252.96 105.764C252.96 106.128 253.003 106.476 253.087 106.807C253.171 107.132 253.298 107.421 253.467 107.674C253.636 107.921 253.847 108.119 254.1 108.269C254.354 108.412 254.653 108.483 254.997 108.483C255.328 108.483 255.624 108.421 255.884 108.298C256.15 108.168 256.374 107.999 256.556 107.791C256.744 107.583 256.887 107.353 256.985 107.099C257.089 106.846 257.141 106.589 257.141 106.33L258.067 106.836C258.067 107.291 257.969 107.739 257.774 108.181C257.579 108.623 257.306 109.026 256.956 109.389C256.611 109.747 256.212 110.033 255.757 110.247C255.302 110.461 254.815 110.568 254.295 110.568C253.633 110.568 253.045 110.448 252.532 110.208C252.018 109.961 251.583 109.623 251.226 109.194C250.875 108.759 250.609 108.253 250.427 107.674C250.245 107.096 250.154 106.469 250.154 105.794C250.154 105.105 250.264 104.459 250.485 103.854C250.713 103.25 251.034 102.718 251.45 102.256C251.872 101.795 252.376 101.435 252.96 101.175C253.551 100.908 254.208 100.775 254.929 100.775C255.65 100.775 256.306 100.915 256.897 101.194C257.488 101.473 257.995 101.87 258.417 102.383C258.84 102.89 259.164 103.497 259.392 104.205C259.626 104.913 259.743 105.699 259.743 106.563V107.538C259.743 108.46 259.642 109.318 259.441 110.11C259.246 110.903 258.95 111.621 258.554 112.264C258.164 112.901 257.677 113.446 257.092 113.901C256.514 114.356 255.841 114.703 255.075 114.944C254.308 115.184 253.451 115.304 252.502 115.304H252.278V113.034ZM278.674 111.28C278.674 112.17 278.466 112.92 278.05 113.531C277.635 114.135 277.063 114.593 276.335 114.905C275.614 115.21 274.796 115.363 273.88 115.363C272.964 115.363 272.142 115.21 271.414 114.905C270.687 114.593 270.112 114.135 269.69 113.531C269.267 112.92 269.056 112.17 269.056 111.28C269.056 110.682 269.176 110.143 269.417 109.662C269.657 109.175 269.992 108.759 270.42 108.415C270.856 108.064 271.366 107.798 271.95 107.616C272.535 107.427 273.172 107.333 273.86 107.333C274.783 107.333 275.608 107.496 276.335 107.82C277.063 108.145 277.635 108.603 278.05 109.194C278.466 109.786 278.674 110.481 278.674 111.28ZM275.848 111.095C275.848 110.659 275.764 110.286 275.595 109.974C275.432 109.656 275.202 109.412 274.903 109.243C274.604 109.074 274.257 108.99 273.86 108.99C273.464 108.99 273.116 109.074 272.818 109.243C272.519 109.412 272.285 109.656 272.116 109.974C271.954 110.286 271.872 110.659 271.872 111.095C271.872 111.523 271.954 111.894 272.116 112.206C272.285 112.517 272.519 112.758 272.818 112.927C273.123 113.089 273.477 113.17 273.88 113.17C274.283 113.17 274.63 113.089 274.922 112.927C275.221 112.758 275.449 112.517 275.605 112.206C275.767 111.894 275.848 111.523 275.848 111.095ZM278.372 104.741C278.372 105.462 278.18 106.102 277.797 106.661C277.414 107.213 276.881 107.645 276.199 107.957C275.523 108.269 274.75 108.425 273.88 108.425C273.003 108.425 272.223 108.269 271.541 107.957C270.859 107.645 270.326 107.213 269.943 106.661C269.56 106.102 269.368 105.462 269.368 104.741C269.368 103.884 269.56 103.163 269.943 102.578C270.333 101.987 270.865 101.538 271.541 101.233C272.223 100.928 272.996 100.775 273.86 100.775C274.737 100.775 275.514 100.928 276.189 101.233C276.871 101.538 277.404 101.987 277.787 102.578C278.177 103.163 278.372 103.884 278.372 104.741ZM275.566 104.868C275.566 104.485 275.497 104.153 275.361 103.874C275.225 103.588 275.03 103.367 274.776 103.211C274.529 103.055 274.224 102.977 273.86 102.977C273.509 102.977 273.207 103.052 272.954 103.202C272.707 103.351 272.516 103.569 272.379 103.854C272.249 104.134 272.184 104.472 272.184 104.868C272.184 105.251 272.249 105.589 272.379 105.881C272.516 106.167 272.71 106.391 272.964 106.554C273.217 106.716 273.522 106.797 273.88 106.797C274.237 106.797 274.539 106.716 274.786 106.554C275.039 106.391 275.231 106.167 275.361 105.881C275.497 105.589 275.566 105.251 275.566 104.868ZM291.711 109.867V112.069H281.489L281.353 110.364L287.268 100.98H289.499L287.083 105.024L284.14 109.867H291.711ZM290.103 100.98V115.168H287.297V100.98H290.103ZM303.979 106.827V109.282C303.979 110.348 303.865 111.267 303.638 112.04C303.41 112.807 303.082 113.437 302.653 113.93C302.231 114.418 301.728 114.778 301.143 115.012C300.558 115.246 299.909 115.363 299.194 115.363C298.622 115.363 298.09 115.291 297.596 115.148C297.102 114.999 296.657 114.768 296.261 114.457C295.871 114.145 295.533 113.752 295.247 113.278C294.968 112.797 294.754 112.225 294.604 111.562C294.455 110.9 294.38 110.14 294.38 109.282V106.827C294.38 105.761 294.494 104.848 294.721 104.088C294.955 103.322 295.283 102.695 295.705 102.208C296.134 101.72 296.641 101.363 297.226 101.136C297.81 100.902 298.46 100.785 299.175 100.785C299.746 100.785 300.276 100.86 300.763 101.009C301.257 101.152 301.702 101.376 302.098 101.681C302.494 101.987 302.832 102.38 303.111 102.86C303.391 103.335 303.605 103.903 303.755 104.566C303.904 105.222 303.979 105.976 303.979 106.827ZM301.162 109.652V106.447C301.162 105.933 301.133 105.485 301.075 105.102C301.023 104.718 300.942 104.394 300.831 104.127C300.721 103.854 300.584 103.634 300.422 103.465C300.259 103.296 300.074 103.172 299.866 103.094C299.659 103.016 299.428 102.977 299.175 102.977C298.856 102.977 298.574 103.039 298.327 103.163C298.086 103.286 297.882 103.484 297.713 103.757C297.544 104.023 297.414 104.381 297.323 104.829C297.239 105.271 297.196 105.81 297.196 106.447V109.652C297.196 110.166 297.222 110.617 297.274 111.007C297.333 111.397 297.417 111.731 297.528 112.011C297.645 112.284 297.781 112.508 297.937 112.683C298.099 112.852 298.285 112.975 298.492 113.053C298.707 113.131 298.941 113.17 299.194 113.17C299.506 113.17 299.782 113.109 300.022 112.985C300.269 112.855 300.477 112.654 300.646 112.381C300.821 112.102 300.951 111.738 301.036 111.29C301.12 110.841 301.162 110.296 301.162 109.652ZM317.026 109.867V112.069H306.803L306.667 110.364L312.582 100.98H314.814L312.397 105.024L309.454 109.867H317.026ZM315.418 100.98V115.168H312.611V100.98H315.418ZM329.683 109.867V112.069H319.461L319.324 110.364L325.239 100.98H327.471L325.054 105.024L322.111 109.867H329.683ZM328.075 100.98V115.168H325.268V100.98H328.075Z" fill="black"/>
</svg>
