<svg width="488" height="493" viewBox="0 0 488 493" fill="none" xmlns="http://www.w3.org/2000/svg">
<path d="M467.607 29.9766H97.1324C86.7579 29.9766 78.3477 38.3614 78.3477 48.7047V336.161C78.3477 346.504 86.7579 354.889 97.1324 354.889H467.607C477.981 354.889 486.392 346.504 486.392 336.161V48.7047C486.392 38.3614 477.981 29.9766 467.607 29.9766Z" fill="white"/>
<path d="M467.607 355.488H97.1324C91.9947 355.478 87.0702 353.439 83.4372 349.817C79.8043 346.195 77.7589 341.285 77.7489 336.163V48.704C77.7589 43.5817 79.8043 38.6721 83.4372 35.0501C87.0702 31.4281 91.9947 29.3889 97.1324 29.3789H467.607C472.745 29.3881 477.67 31.4271 481.304 35.0491C484.938 38.6712 486.983 43.5813 486.993 48.704V336.163C486.983 341.286 484.938 346.196 481.304 349.818C477.67 353.44 472.745 355.479 467.607 355.488ZM97.1324 30.5756C92.3117 30.5813 87.69 32.4931 84.2813 35.8916C80.8725 39.2901 78.955 43.8978 78.9492 48.704V336.163C78.955 340.969 80.8725 345.577 84.2813 348.975C87.69 352.374 92.3117 354.286 97.1324 354.291H467.607C472.428 354.286 477.051 352.375 480.46 348.976C483.869 345.578 485.787 340.97 485.793 336.163V48.704C485.787 43.8973 483.869 39.2892 480.46 35.8906C477.051 32.4921 472.428 30.5806 467.607 30.5756H97.1324Z" fill="black"/>
<path d="M486.486 70.6037H78.4529C78.3742 70.6041 78.2962 70.5889 78.2234 70.559C78.1505 70.5291 78.0844 70.4851 78.0287 70.4296C77.973 70.3741 77.9289 70.3082 77.899 70.2356C77.869 70.163 77.8538 70.0852 77.8541 70.0067V48.7534C77.8627 43.6207 79.9116 38.7006 83.5519 35.0713C87.1923 31.4419 92.1272 29.3992 97.2754 29.3906H467.656C472.804 29.3992 477.739 31.4419 481.379 35.0713C485.019 38.7006 487.068 43.6207 487.077 48.7534V69.9986C487.078 70.0771 487.064 70.1551 487.035 70.2281C487.006 70.3011 486.963 70.3677 486.908 70.4239C486.853 70.4802 486.788 70.5251 486.715 70.5559C486.643 70.5868 486.565 70.603 486.486 70.6037ZM79.041 69.4097H485.887V48.7534C485.882 43.9343 483.959 39.3143 480.541 35.9067C477.123 32.4992 472.489 30.5823 467.656 30.5766H97.2727C92.4391 30.5823 87.8051 32.4992 84.3872 35.9067C80.9694 39.3143 79.0467 43.9343 79.041 48.7534V69.4097Z" fill="black"/>
<path d="M440.037 325.356H124.711C120.427 325.35 116.32 323.65 113.291 320.63C110.262 317.61 108.557 313.516 108.551 309.244V113.963C108.557 109.692 110.262 105.598 113.291 102.578C116.32 99.5575 120.427 97.858 124.711 97.8516H440.037C444.321 97.858 448.428 99.5575 451.457 102.578C454.486 105.598 456.191 109.692 456.197 113.963V309.244C456.191 313.516 454.486 317.61 451.457 320.63C448.428 323.65 444.321 325.35 440.037 325.356ZM124.705 99.0429C120.738 99.0472 116.934 100.621 114.129 103.418C111.324 106.215 109.746 110.007 109.743 113.963V309.244C109.748 313.199 111.326 316.99 114.131 319.786C116.936 322.582 120.739 324.155 124.705 324.159H440.031C443.998 324.155 447.8 322.582 450.605 319.786C453.41 316.99 454.987 313.199 454.991 309.244V113.963C454.988 110.009 453.412 106.217 450.609 103.42C447.805 100.623 444.003 99.0486 440.037 99.0429H124.705Z" fill="black"/>
<path d="M425.601 55.539C428.278 52.8704 428.278 48.5437 425.601 45.875C422.924 43.2064 418.585 43.2064 415.908 45.8751C413.231 48.5437 413.231 52.8704 415.908 55.539C418.585 58.2076 422.924 58.2076 425.601 55.539Z" fill="black"/>
<path d="M449.817 52.2622C450.686 48.5891 448.405 44.9087 444.72 44.0417C441.036 43.1748 437.345 45.4497 436.475 49.1228C435.606 52.7958 437.887 56.4762 441.571 57.3431C445.256 58.2101 448.947 55.9353 449.817 52.2622Z" fill="black"/>
<path d="M472.225 52.2622C473.094 48.5891 470.813 44.9086 467.129 44.0417C463.444 43.1748 459.753 45.4497 458.883 49.1228C458.014 52.7958 460.295 56.4762 463.98 57.3431C467.664 58.2101 471.355 55.9353 472.225 52.2622Z" fill="black"/>
<path d="M235.954 1.21484H13.71C6.7574 1.21484 1.12122 6.83404 1.12122 13.7657V172.357C1.12122 179.289 6.7574 184.908 13.71 184.908H235.954C242.907 184.908 248.543 179.289 248.543 172.357V13.7657C248.543 6.83404 242.907 1.21484 235.954 1.21484Z" fill="white"/>
<path d="M235.952 185.505H13.7154C10.219 185.501 6.86672 184.115 4.39434 181.65C1.92196 179.185 0.531402 175.843 0.527832 172.357V13.7677C0.534957 10.2826 1.92657 6.94228 4.3981 4.47769C6.86964 2.0131 10.2198 0.625004 13.7154 0.617188H235.957C239.453 0.624294 242.804 2.01207 245.276 4.47674C247.748 6.9414 249.14 10.2822 249.147 13.7677V172.357C249.14 175.843 247.746 179.184 245.273 181.648C242.8 184.112 239.448 185.499 235.952 185.505ZM13.7154 1.81392C10.5366 1.81748 7.48898 3.07804 5.2412 5.31904C2.99342 7.56004 1.72905 10.5985 1.72548 13.7677V172.357C1.72905 175.526 2.99342 178.564 5.2412 180.805C7.48898 183.046 10.5366 184.307 13.7154 184.311H235.957C239.136 184.307 242.184 183.046 244.431 180.805C246.679 178.564 247.943 175.526 247.947 172.357V13.7677C247.943 10.5985 246.679 7.56004 244.431 5.31904C242.184 3.07804 239.136 1.81748 235.957 1.81392H13.7154Z" fill="black"/>
<path d="M224.614 24.3969H182.473C181.636 24.3969 180.834 24.0657 180.243 23.4761C179.652 22.8865 179.319 22.0869 179.319 21.2531C179.319 20.4194 179.652 19.6197 180.243 19.0302C180.834 18.4406 181.636 18.1094 182.473 18.1094H224.614C225.451 18.1094 226.253 18.4406 226.844 19.0302C227.435 19.6197 227.767 20.4194 227.767 21.2531C227.767 22.0869 227.435 22.8865 226.844 23.4761C226.253 24.0657 225.451 24.3969 224.614 24.3969Z" fill="black"/>
<path d="M233.664 37.8617H173.313C172.476 37.8617 171.674 37.5305 171.083 36.941C170.492 36.3514 170.159 35.5518 170.159 34.718C170.159 33.8842 170.492 33.0846 171.083 32.495C171.674 31.9054 172.476 31.5742 173.313 31.5742H233.664C234.501 31.5742 235.303 31.9054 235.894 32.495C236.485 33.0846 236.817 33.8842 236.817 34.718C236.817 35.5518 236.485 36.3514 235.894 36.941C235.303 37.5305 234.501 37.8617 233.664 37.8617Z" fill="black"/>
<path d="M233.823 63.1664H173.512C172.676 63.1664 171.874 62.8352 171.282 62.2456C170.691 61.6561 170.359 60.8564 170.359 60.0227C170.359 59.1889 170.691 58.3893 171.282 57.7997C171.874 57.2101 172.676 56.8789 173.512 56.8789H233.823C234.66 56.8789 235.462 57.2101 236.053 57.7997C236.644 58.3893 236.976 59.1889 236.976 60.0227C236.976 60.8564 236.644 61.6561 236.053 62.2456C235.462 62.8352 234.66 63.1664 233.823 63.1664Z" fill="black"/>
<path d="M233.618 75.3227H174.626C173.79 75.3227 172.988 74.9915 172.396 74.4019C171.805 73.8123 171.473 73.0127 171.473 72.1789C171.473 71.3451 171.805 70.5455 172.396 69.9559C172.988 69.3664 173.79 69.0352 174.626 69.0352H233.618C234.455 69.0352 235.257 69.3664 235.848 69.9559C236.439 70.5455 236.771 71.3451 236.771 72.1789C236.771 73.0127 236.439 73.8123 235.848 74.4019C235.257 74.9915 234.455 75.3227 233.618 75.3227Z" fill="black"/>
<path d="M234.018 87.682H175.02C174.184 87.682 173.382 87.3508 172.79 86.7613C172.199 86.1717 171.867 85.3721 171.867 84.5383C171.867 83.7045 172.199 82.9049 172.79 82.3153C173.382 81.7258 174.184 81.3945 175.02 81.3945H234.012C234.848 81.3945 235.65 81.7258 236.242 82.3153C236.833 82.9049 237.165 83.7045 237.165 84.5383C237.165 85.3721 236.833 86.1717 236.242 86.7613C235.65 87.3508 234.848 87.682 234.012 87.682H234.018Z" fill="black"/>
<path d="M233.823 99.8344H173.512C172.676 99.8344 171.874 99.5032 171.282 98.9136C170.691 98.324 170.359 97.5244 170.359 96.6906C170.359 95.8569 170.691 95.0572 171.282 94.4677C171.874 93.8781 172.676 93.5469 173.512 93.5469H233.823C234.66 93.5469 235.462 93.8781 236.053 94.4677C236.644 95.0572 236.976 95.8569 236.976 96.6906C236.976 97.5244 236.644 98.324 236.053 98.9136C235.462 99.5032 234.66 99.8344 233.823 99.8344Z" fill="black"/>
<path d="M233.618 112.389H173.313C172.476 112.389 171.674 112.058 171.083 111.468C170.492 110.879 170.159 110.079 170.159 109.245C170.159 108.412 170.492 107.612 171.083 107.022C171.674 106.433 172.476 106.102 173.313 106.102H233.618C234.455 106.102 235.257 106.433 235.848 107.022C236.439 107.612 236.772 108.412 236.772 109.245C236.772 110.079 236.439 110.879 235.848 111.468C235.257 112.058 234.455 112.389 233.618 112.389Z" fill="black"/>
<path d="M195.388 51.0531H173.426C172.59 51.0531 171.787 50.7219 171.196 50.1324C170.605 49.5428 170.273 48.7432 170.273 47.9094C170.273 47.0756 170.605 46.276 171.196 45.6864C171.787 45.0968 172.59 44.7656 173.426 44.7656H195.388C196.224 44.7656 197.026 45.0968 197.618 45.6864C198.209 46.276 198.541 47.0756 198.541 47.9094C198.541 48.7432 198.209 49.5428 197.618 50.1324C197.026 50.7219 196.224 51.0531 195.388 51.0531Z" fill="black"/>
<path d="M233.966 51.0531H210.79C209.954 51.0531 209.152 50.7219 208.561 50.1324C207.969 49.5428 207.637 48.7432 207.637 47.9094C207.637 47.0756 207.969 46.276 208.561 45.6864C209.152 45.0968 209.954 44.7656 210.79 44.7656H233.966C234.803 44.7656 235.605 45.0968 236.196 45.6864C236.787 46.276 237.12 47.0756 237.12 47.9094C237.12 48.7432 236.787 49.5428 236.196 50.1324C235.605 50.7219 234.803 51.0531 233.966 51.0531Z" fill="black"/>
<path d="M76.999 122.407H17.5591C16.7384 122.383 15.9593 122.042 15.3873 121.454C14.8153 120.867 14.4954 120.081 14.4954 119.262C14.4954 118.444 14.8153 117.657 15.3873 117.07C15.9593 116.483 16.7384 116.141 17.5591 116.117H76.999C77.8197 116.141 78.5987 116.483 79.1707 117.07C79.7427 117.657 80.0627 118.444 80.0627 119.262C80.0627 120.081 79.7427 120.867 79.1707 121.454C78.5987 122.042 77.8197 122.383 76.999 122.407Z" fill="black"/>
<path d="M133.426 122.205H87.9182C87.0819 122.205 86.2798 121.874 85.6885 121.285C85.0971 120.695 84.7649 119.896 84.7649 119.062C84.7649 118.228 85.0971 117.428 85.6885 116.839C86.2798 116.249 87.0819 115.918 87.9182 115.918H133.426C134.262 115.918 135.064 116.249 135.656 116.839C136.247 117.428 136.579 118.228 136.579 119.062C136.579 119.896 136.247 120.695 135.656 121.285C135.064 121.874 134.262 122.205 133.426 122.205Z" fill="black"/>
<path d="M59.2529 109.291H17.3596C16.5233 109.291 15.7212 108.96 15.1299 108.371C14.5385 107.781 14.2063 106.981 14.2063 106.148C14.2063 105.314 14.5385 104.514 15.1299 103.925C15.7212 103.335 16.5233 103.004 17.3596 103.004H59.2529C60.0892 103.004 60.8912 103.335 61.4826 103.925C62.0739 104.514 62.4062 105.314 62.4062 106.148C62.4062 106.981 62.0739 107.781 61.4826 108.371C60.8912 108.96 60.0892 109.291 59.2529 109.291Z" fill="black"/>
<path d="M133.58 176.519H18.4438C17.1187 176.518 15.8482 175.992 14.9111 175.058C13.974 174.124 13.447 172.857 13.4456 171.536V135.268C13.447 133.948 13.9737 132.681 14.9101 131.747C15.8466 130.813 17.1164 130.287 18.4411 130.285H133.58C134.905 130.287 136.175 130.812 137.112 131.746C138.05 132.681 138.577 133.947 138.578 135.268V171.536C138.577 172.857 138.05 174.124 137.112 175.058C136.175 175.992 134.905 176.518 133.58 176.519ZM18.4438 131.482C17.4368 131.483 16.4712 131.882 15.7591 132.592C15.047 133.302 14.6466 134.264 14.6459 135.268V171.536C14.6466 172.54 15.047 173.503 15.7591 174.213C16.4712 174.923 17.4368 175.322 18.4438 175.322H133.58C134.587 175.322 135.552 174.923 136.264 174.213C136.977 173.503 137.377 172.54 137.378 171.536V135.268C137.377 134.264 136.977 133.302 136.264 132.592C135.552 131.882 134.587 131.483 133.58 131.482H18.4438Z" fill="black"/>
<path d="M234.724 176.519H152.362C151.037 176.517 149.767 175.991 148.831 175.057C147.894 174.123 147.368 172.857 147.366 171.536V135.266C147.368 133.945 147.894 132.679 148.831 131.745C149.768 130.812 151.037 130.287 152.362 130.285H234.719C236.043 130.287 237.313 130.812 238.25 131.745C239.186 132.679 239.713 133.945 239.714 135.266V171.536C239.713 172.856 239.187 174.121 238.252 175.055C237.316 175.989 236.048 176.516 234.724 176.519ZM152.362 131.479C151.355 131.481 150.39 131.88 149.678 132.59C148.966 133.3 148.565 134.262 148.564 135.266V171.536C148.565 172.54 148.966 173.502 149.678 174.212C150.39 174.922 151.355 175.321 152.362 175.322H234.719C235.726 175.321 236.691 174.922 237.403 174.212C238.115 173.502 238.515 172.54 238.517 171.536V135.266C238.515 134.262 238.115 133.3 237.403 132.59C236.691 131.88 235.726 131.481 234.719 131.479H152.362Z" fill="black"/>
<path d="M157.365 17.8867H18.851C16.2008 17.8867 14.0524 20.0287 14.0524 22.6709V82.6605C14.0524 85.3028 16.2008 87.4447 18.851 87.4447H157.365C160.016 87.4447 162.164 85.3028 162.164 82.6605V22.6709C162.164 20.0287 160.016 17.8867 157.365 17.8867Z" fill="#FBB90F"/>
<path d="M441.391 324.64C440.816 321.65 440.272 319.431 439.773 317.328C436.115 301.768 432.187 289.091 429.32 280.534L421.541 252.277L325.583 269.672C325.583 269.672 322.476 290.562 316.143 324.64H441.391Z" fill="black"/>
<path d="M337.989 321.072C348.509 321.072 355.376 309.632 350.667 299.908C349.588 297.678 348.487 295.43 347.406 293.252C339.313 276.963 316.143 280.518 313.254 298.582C313.205 298.899 312.558 299.219 312.515 299.542C311.02 310.971 319.841 321.072 331.016 321.072H337.989Z" fill="black"/>
<path d="M469.827 192.986C469.827 152.825 462.005 134.282 407.204 119.263C393.286 115.449 372.769 113.846 352.884 116.076C297.512 116.759 276.353 141.39 256.967 140.779C235.623 140.107 217.909 112.491 217.909 112.491C210.844 104.845 203.343 108.713 199.342 110.988C194.538 113.712 192.488 120.083 191.622 124.555C191.064 127.436 191.541 130.421 192.971 132.986C200.049 145.626 224.911 187.132 247.917 190.536C266.171 193.247 302.755 183.117 319.423 179.908C331.175 220.818 312.512 299.533 312.512 299.533C326.449 289.582 373.123 302.413 403.037 313.745C417.994 319.414 431.419 316.252 441.224 310.658C451.029 305.064 433.671 247.288 433.671 247.288C433.671 247.288 469.827 228.001 469.827 192.986Z" fill="white"/>
<path d="M418.984 317.362C413.453 317.337 407.974 316.301 402.818 314.305C376.133 304.196 327.159 289.808 312.857 300.019C312.758 300.089 312.639 300.128 312.517 300.129C312.396 300.13 312.276 300.095 312.175 300.027C312.074 299.96 311.996 299.863 311.951 299.75C311.906 299.637 311.897 299.514 311.924 299.395C312.11 298.613 330.266 221.041 318.991 180.599C315.447 181.296 311.112 182.269 306.133 183.388C287.588 187.554 262.189 193.26 247.823 191.128C224.571 187.675 199.556 145.967 192.442 133.266C190.94 130.579 190.436 127.451 191.018 124.431C191.954 119.591 194.107 113.252 199.032 110.447C202.539 108.462 210.717 103.818 218.335 112.061C218.359 112.087 218.38 112.114 218.4 112.144C218.575 112.413 236.202 139.513 256.972 140.169C264.255 140.4 271.9 136.942 281.575 132.582C297.188 125.537 318.568 115.887 352.865 115.465C371.561 113.365 392.46 114.594 407.353 118.674C434.526 126.12 450.619 134.648 459.531 146.319C468.565 158.152 470.415 173.527 470.415 192.973C470.415 211.26 460.489 225.201 452.159 233.672C446.857 239.056 440.872 243.727 434.356 247.565C435.12 250.155 438.912 263.246 441.688 276.741C445.882 297.12 445.82 308.7 441.504 311.164C435.956 314.348 428.239 317.362 418.984 317.362ZM328.459 295.391C349.83 295.391 382.946 305.497 403.244 313.189C419.305 319.272 432.598 314.888 440.922 310.139C448.623 305.745 437.876 263.405 433.083 247.46C433.044 247.328 433.051 247.186 433.104 247.059C433.157 246.931 433.253 246.826 433.374 246.761C433.733 246.57 469.228 227.231 469.228 192.975C469.228 154.839 463.092 135.188 407.045 119.827C392.296 115.793 371.566 114.57 352.951 116.657C318.848 117.079 297.598 126.669 282.085 133.672C272.267 138.101 264.525 141.602 256.948 141.363C235.763 140.696 218.491 114.494 217.418 112.832C211.284 106.23 204.983 108.444 199.615 111.488C195.083 114.056 193.074 120.064 192.186 124.649C191.656 127.393 192.115 130.234 193.481 132.674C200.524 145.254 225.278 186.564 247.99 189.937C262.135 192.04 287.407 186.36 305.86 182.213C311.104 181.035 315.633 180.016 319.293 179.311C319.44 179.284 319.592 179.313 319.719 179.391C319.847 179.469 319.941 179.591 319.984 179.733C330.773 217.313 315.83 287.423 313.402 298.247C317.035 296.243 322.255 295.391 328.459 295.391Z" fill="black"/>
<path d="M206.385 138.459C200.214 138.459 196.211 131.647 196.041 131.354C195.972 131.217 195.958 131.059 196.002 130.912C196.047 130.766 196.145 130.641 196.279 130.565C196.412 130.489 196.569 130.466 196.719 130.502C196.868 130.537 196.998 130.629 197.082 130.757C197.12 130.824 200.988 137.356 206.496 137.262C210.739 137.198 214.939 133.363 218.98 125.862C219.055 125.723 219.182 125.618 219.335 125.572C219.487 125.527 219.651 125.543 219.792 125.618C219.932 125.693 220.036 125.82 220.082 125.972C220.128 126.124 220.112 126.287 220.037 126.427C215.772 134.342 211.222 138.389 206.51 138.459H206.385Z" fill="black"/>
<path d="M383.888 229.918C383.751 229.919 383.617 229.873 383.51 229.788C383.402 229.703 383.328 229.584 383.298 229.45C383.268 229.317 383.285 229.177 383.347 229.055C383.408 228.932 383.509 228.835 383.634 228.778C403.964 219.4 413.818 205.65 418.506 195.748C423.588 185.021 423.863 176.385 423.866 176.307C423.87 176.152 423.935 176.004 424.047 175.896C424.159 175.787 424.309 175.727 424.465 175.727H424.481C424.639 175.731 424.79 175.797 424.899 175.912C425.008 176.026 425.067 176.179 425.064 176.337C425.064 176.697 424.794 185.257 419.615 196.205C414.849 206.293 404.822 220.323 384.139 229.862C384.06 229.898 383.974 229.918 383.888 229.918Z" fill="black"/>
<path d="M392.873 258.087C392.721 258.077 392.578 258.009 392.474 257.898C392.37 257.787 392.312 257.641 392.312 257.489C392.312 257.337 392.37 257.19 392.474 257.079C392.578 256.968 392.721 256.9 392.873 256.89C417.802 256.594 434.243 247.357 434.413 247.263C434.551 247.184 434.715 247.163 434.868 247.205C435.022 247.246 435.152 247.347 435.231 247.484C435.311 247.622 435.331 247.785 435.29 247.939C435.248 248.092 435.147 248.222 435.009 248.301C434.844 248.395 418.129 257.786 392.892 258.087H392.873Z" fill="black"/>
<path d="M369.791 255.907C369.791 255.907 374.9 256.445 385.007 253.93C392.646 252.021 390.402 227.306 381.099 233.997C373.341 239.588 368.804 240.315 368.804 240.315L361.321 236.598C358.398 235.136 355.243 234.19 351.996 233.801C339.103 232.287 339.88 235.256 339.88 235.256C339.324 238.257 340.403 238.712 342.771 239.704L352.857 243.929C353.18 244.075 353.462 244.297 353.678 244.577C353.894 244.857 354.037 245.186 354.096 245.535C354.154 245.883 354.126 246.24 354.013 246.575C353.9 246.91 353.706 247.212 353.448 247.455C351.709 249.062 349.686 250.333 347.481 251.203C343.505 252.769 336.575 255.286 329.433 256.897C326.074 257.652 325.009 261.802 328.106 263.351L350.373 264.986C353.18 265.186 355.999 264.808 358.655 263.877C361.31 262.946 363.746 261.481 365.81 259.572L369.791 255.907Z" fill="white"/>
<path d="M351.837 265.625C351.333 265.625 350.831 265.606 350.327 265.569L328.062 263.933C327.984 263.928 327.908 263.907 327.838 263.872C326.301 263.111 325.5 261.696 325.681 260.09C325.902 258.267 327.35 256.748 329.287 256.325C336.548 254.688 343.659 252.074 347.249 250.659C349.384 249.818 351.342 248.587 353.024 247.029C353.215 246.852 353.358 246.631 353.44 246.384C353.522 246.138 353.541 245.875 353.493 245.62C353.455 245.372 353.354 245.139 353.199 244.942C353.045 244.745 352.843 244.59 352.611 244.493L342.523 240.265C340.201 239.294 338.66 238.652 339.259 235.25C339.252 235.058 339.283 234.866 339.351 234.686C339.418 234.506 339.521 234.341 339.653 234.201C340.937 232.735 345.107 232.404 352.061 233.219C355.377 233.616 358.598 234.582 361.583 236.075L368.866 239.7C369.767 239.496 374.05 238.337 380.735 233.515C383.208 231.735 385.05 232.17 386.172 232.848C389.542 234.897 390.758 241.836 389.949 247.101C389.32 251.213 387.564 253.921 385.134 254.526C376.233 256.75 371.191 256.619 369.988 256.541L366.212 260.015C362.29 263.608 357.163 265.609 351.837 265.625ZM328.273 262.75L350.416 264.364C353.142 264.55 355.877 264.18 358.455 263.276C361.032 262.371 363.397 260.951 365.405 259.104L369.387 255.451C369.449 255.394 369.524 255.351 369.605 255.325C369.686 255.298 369.771 255.289 369.856 255.298C369.907 255.298 375.005 255.796 384.862 253.335C386.801 252.851 388.231 250.501 388.784 246.881C389.531 241.986 388.417 235.586 385.547 233.84C384.376 233.128 382.995 233.335 381.439 234.459C373.654 240.069 369.076 240.851 368.885 240.881C368.761 240.901 368.634 240.882 368.521 240.827L361.041 237.111C358.18 235.679 355.091 234.752 351.913 234.373C342.785 233.297 340.913 234.545 340.557 234.951L340.446 235.083C340.467 235.171 340.467 235.263 340.446 235.352C339.979 237.882 340.616 238.149 342.982 239.141L353.067 243.366C353.482 243.543 353.846 243.82 354.126 244.174C354.405 244.527 354.591 244.945 354.667 245.388C354.749 245.84 354.716 246.305 354.57 246.741C354.425 247.177 354.171 247.569 353.833 247.881C352.042 249.541 349.955 250.852 347.681 251.748C343.254 253.488 336.516 255.895 329.543 257.466C328.866 257.594 328.246 257.928 327.766 258.421C327.287 258.915 326.972 259.544 326.865 260.222C326.757 261.295 327.261 262.207 328.273 262.75Z" fill="black"/>
<path d="M156.138 74.4602C156.358 73.7639 156.829 73.1733 157.459 72.802C158.089 72.4306 158.835 72.3048 159.553 72.4487C163.642 73.3469 184.696 77.9697 188.62 78.8599C192.545 79.75 192.704 84.1066 194.94 88.0975C196.885 91.5694 203.572 104.287 210.871 113.148C211.944 114.475 212.593 116.092 212.735 117.79C212.877 119.489 212.505 121.191 211.667 122.676C210.685 124.416 209.436 126.127 207.958 127.135C204.152 129.725 201.293 132.817 193.662 114.59C193.198 113.475 192.411 112.523 191.401 111.857C189.209 110.407 187.235 108.652 185.54 106.645C185.54 106.645 172.738 122.227 169.466 90.5851C169.175 87.7721 170.432 85.0345 172.805 83.6495C172.994 83.5383 173.194 83.4281 173.404 83.3187L158.067 78.4162C157.286 78.1457 156.644 77.5773 156.282 76.8357C155.921 76.0941 155.869 75.2399 156.138 74.4602Z" fill="white"/>
<path d="M203.844 129.703C203.5 129.702 203.158 129.653 202.828 129.558C199.99 128.732 197.079 124.324 193.093 114.812C192.674 113.808 191.965 112.952 191.056 112.352C189.015 110.998 187.16 109.383 185.54 107.549C184.313 108.839 180.898 111.94 177.28 110.856C172.965 109.56 170.13 102.762 168.878 90.6465C168.581 87.7852 169.782 85.0448 171.967 83.485L157.892 78.9859C157.439 78.8393 157.02 78.6046 156.659 78.2952C156.299 77.9859 156.003 77.6082 155.79 77.1841C155.335 76.281 155.256 75.2349 155.572 74.2743C155.834 73.434 156.4 72.7209 157.161 72.2736C157.921 71.8263 158.821 71.6767 159.685 71.8539C166.547 73.3599 185.149 77.4476 188.755 78.2651C191.806 78.9563 192.801 81.5299 193.88 84.2541C194.327 85.4695 194.857 86.6528 195.466 87.7959C195.679 88.1751 195.949 88.6672 196.276 89.2508C198.852 93.9355 204.883 104.908 211.343 112.758C212.49 114.179 213.184 115.91 213.337 117.727C213.489 119.545 213.093 121.367 212.198 122.958C210.979 125.11 209.668 126.688 208.303 127.616L207.802 127.963C206.558 128.829 205.293 129.703 203.844 129.703ZM185.54 106.037C185.627 106.037 185.714 106.056 185.793 106.093C185.872 106.129 185.942 106.183 185.998 106.25C187.65 108.215 189.575 109.936 191.714 111.359C192.824 112.089 193.69 113.133 194.199 114.358C197.929 123.254 200.777 127.721 203.165 128.415C204.513 128.802 205.706 127.963 207.103 126.992L207.615 126.64C208.824 125.817 210.011 124.383 211.138 122.383C211.918 121.002 212.264 119.421 212.133 117.842C212.001 116.264 211.398 114.76 210.402 113.527C203.871 105.591 197.802 94.5514 195.21 89.8371C194.892 89.2562 194.622 88.7614 194.401 88.3902C193.764 87.2001 193.21 85.9672 192.745 84.7006C191.714 82.0704 190.9 79.9916 188.472 79.443C184.866 78.6362 166.27 74.5378 159.41 73.0318C158.837 72.9173 158.242 73.019 157.739 73.3171C157.237 73.6152 156.863 74.0885 156.691 74.6454C156.582 74.9709 156.539 75.3147 156.565 75.6569C156.591 75.9991 156.685 76.3327 156.842 76.6381C156.983 76.9216 157.179 77.1742 157.419 77.3811C157.659 77.588 157.938 77.745 158.239 77.8429L173.574 82.7482C173.687 82.7839 173.786 82.8519 173.86 82.9438C173.934 83.0357 173.979 83.1473 173.989 83.2645C173.999 83.3818 173.975 83.4995 173.918 83.6028C173.862 83.7062 173.776 83.7906 173.671 83.8454C173.472 83.9502 173.28 84.0578 173.099 84.1627C170.977 85.3998 169.779 87.8954 170.051 90.5228C171.543 104.956 174.982 108.923 177.604 109.708C181.281 110.808 185.027 106.309 185.065 106.263C185.121 106.195 185.191 106.141 185.27 106.103C185.349 106.065 185.436 106.046 185.524 106.045L185.54 106.037Z" fill="black"/>
<path d="M188.472 100.099C188.366 100.1 188.261 100.072 188.17 100.018C187.153 99.4264 185.284 98.1033 184.526 97.5628C180.382 94.6046 178.071 91.6464 177.059 90.1646C176.369 89.173 176.009 87.9907 176.029 86.7842C176.085 84.5816 177.488 84.0949 178.163 83.8582C180.628 83.0004 184.58 85.3669 185.022 85.6412C185.089 85.6824 185.147 85.7363 185.193 85.7998C185.239 85.8634 185.272 85.9353 185.29 86.0116C185.309 86.0879 185.311 86.167 185.299 86.2445C185.286 86.3219 185.259 86.3961 185.218 86.4628C185.176 86.5296 185.122 86.5875 185.058 86.6335C184.995 86.6794 184.923 86.7123 184.846 86.7304C184.769 86.7485 184.69 86.7514 184.613 86.739C184.535 86.7265 184.46 86.6989 184.393 86.6578C183.315 86.0016 180.191 84.4203 178.559 84.9877C177.922 85.2082 177.264 85.4368 177.226 86.8164C177.212 87.7774 177.502 88.7183 178.055 89.5057C179.02 90.931 181.235 93.7467 185.224 96.6C185.804 97.0141 187.773 98.4126 188.774 98.9935C188.888 99.0594 188.977 99.1611 189.027 99.2826C189.077 99.4042 189.086 99.5388 189.052 99.6657C189.017 99.7926 188.942 99.9046 188.837 99.9843C188.732 100.064 188.604 100.107 188.472 100.107V100.099Z" fill="black"/>
<path d="M185.712 107.424C185.631 107.424 185.549 107.407 185.474 107.375C185.399 107.342 185.331 107.295 185.275 107.235C181.882 103.64 182.082 99.8157 182.093 99.6543C182.103 99.496 182.175 99.3481 182.295 99.2432C182.414 99.1383 182.57 99.085 182.729 99.0949C182.888 99.1049 183.036 99.1774 183.142 99.2964C183.247 99.4154 183.3 99.5713 183.29 99.7296C183.29 99.7861 183.139 103.226 186.149 106.415C186.258 106.531 186.315 106.685 186.31 106.843C186.305 107.001 186.238 107.151 186.122 107.26C186.012 107.365 185.865 107.424 185.712 107.424Z" fill="black"/>
<path d="M387.305 118.325L385.919 80.8984L359.584 94.6863L359.873 118.352C360.064 123.623 364.407 126.565 364.407 126.565C369.802 130.645 377.33 129.905 382.817 125.976L384.087 125.064C385.143 124.296 385.99 123.277 386.552 122.101C387.114 120.924 387.373 119.626 387.305 118.325Z" fill="white"/>
<path d="M372.815 129.903C369.652 129.934 366.567 128.924 364.038 127.03C363.876 126.923 359.468 123.873 359.266 118.363L358.975 94.6973C358.973 94.5868 359.002 94.478 359.059 94.3831C359.115 94.2881 359.197 94.2107 359.296 94.1594L385.63 80.3715C385.719 80.3226 385.819 80.2969 385.92 80.2969C386.022 80.2969 386.121 80.3226 386.21 80.3715C386.298 80.4224 386.371 80.4944 386.423 80.5808C386.476 80.6673 386.505 80.7655 386.51 80.8664L387.899 118.29C387.972 119.69 387.693 121.086 387.086 122.351C386.48 123.616 385.566 124.71 384.427 125.532L383.157 126.441C380.158 128.646 376.541 129.856 372.815 129.903ZM360.18 95.0442L360.45 118.333C360.628 123.212 364.682 126.033 364.725 126.062C369.648 129.792 376.759 129.558 382.445 125.479L383.715 124.57C384.691 123.862 385.473 122.923 385.992 121.837C386.51 120.751 386.747 119.553 386.682 118.352L385.334 81.8749L360.18 95.0442Z" fill="black"/>
<path d="M347.624 38.0312C354.653 37.6117 345.817 45.0233 371.811 37.2459C382.164 34.1425 376.936 46.5374 379.615 45.7413C389.541 42.7966 389.199 42.8853 394.046 44.1896C397.253 45.0529 399.341 51.1199 398.74 55.6513C397.93 61.6322 393.129 63.1813 388.867 75.8208C385.876 84.6954 386.609 90.0928 383.141 91.389C379.672 92.6853 377.044 87.8715 373.109 89.0063C368.013 90.472 369.02 99.516 364.062 103.259C360.935 105.623 353.661 106.723 342.002 100.906C341.077 100.429 340.343 99.6487 339.924 98.6967C339.505 97.7448 339.427 96.6785 339.702 95.6757C340.416 93.0026 341.339 89.6302 342.483 86.4838C347.929 71.4884 353.135 68.0972 351.246 64.2139C348.357 58.2626 337.379 61.678 335.561 56.7889C333.676 51.7115 337.999 38.6013 347.624 38.0312Z" fill="black"/>
<path d="M372.157 63.8463L370.147 67.7C369.197 69.5154 368.373 71.3933 367.679 73.3206C366.376 76.943 363.903 83.0719 362.554 86.5329C358.206 97.6638 344.862 85.4357 344.862 85.4357L343.923 82.37L342.129 81.6197C341.776 81.48 341.466 81.25 341.231 80.9527C340.958 80.5945 340.803 80.1607 340.787 79.7109C340.771 79.2611 340.895 78.8175 341.142 78.4409C343.823 74.3774 349.418 65.2635 351.425 57.0666C351.43 57.0693 362.88 54.0331 372.157 63.8463Z" fill="white"/>
<path d="M356.509 91.8118C350.99 91.8118 344.735 86.1455 344.447 85.8793C344.367 85.8065 344.31 85.7135 344.279 85.6104L343.432 82.8162L341.897 82.1735C341.446 81.993 341.05 81.696 340.751 81.3129C340.405 80.8554 340.209 80.3028 340.189 79.7302C340.169 79.1576 340.327 78.5928 340.64 78.1127C343.036 74.4849 348.824 65.1558 350.842 56.9266C350.868 56.8226 350.922 56.7275 350.997 56.6509C351.073 56.5744 351.167 56.5191 351.271 56.4909C351.39 56.4614 363.18 53.4817 372.58 63.4373C372.666 63.5275 372.721 63.6421 372.738 63.7651C372.755 63.8881 372.733 64.0133 372.675 64.1231L370.665 67.9741C369.733 69.7673 368.922 71.6208 368.238 73.5221C367.291 76.1549 365.702 80.1646 364.426 83.389C363.933 84.6396 363.474 85.8094 363.102 86.7506C362.039 89.4695 360.361 91.1126 358.114 91.6317C357.588 91.7519 357.049 91.8124 356.509 91.8118ZM345.377 85.1048C346.348 85.9573 352.995 91.594 357.85 90.4833C359.687 90.0584 361.087 88.66 361.988 86.3311C362.363 85.3764 362.821 84.2173 363.318 82.9641C364.588 79.7505 366.174 75.7488 367.115 73.1349C367.819 71.1827 368.654 69.2798 369.613 67.439L371.426 63.9671C368.955 61.3814 365.88 59.4456 362.477 58.3326C359.073 57.2195 355.445 56.9638 351.918 57.5882C349.86 65.5968 344.616 74.2832 341.644 78.7877C341.465 79.0613 341.376 79.3833 341.387 79.7096C341.399 80.0359 341.511 80.3507 341.709 80.611C341.881 80.8241 342.106 80.9882 342.361 81.087L344.147 81.8346C344.229 81.8688 344.302 81.9206 344.361 81.9861C344.42 82.0516 344.464 82.1294 344.49 82.2138L345.377 85.1048Z" fill="black"/>
<path d="M369.317 77.2932C369.317 77.2932 374.142 68.026 377.765 71.1832C381.387 74.3404 375.831 84.401 369.317 77.2932Z" fill="white"/>
<path d="M351.454 78.8736C350.985 78.8873 350.518 78.8078 350.08 78.6397C349.642 78.4717 349.242 78.2184 348.903 77.8947C347.651 76.6899 347.109 74.3986 347.284 71.0559C347.427 68.4957 348.147 66.9655 349.482 66.3766C349.94 66.1621 350.437 66.0437 350.942 66.0289C351.448 66.0141 351.951 66.1032 352.42 66.2905C352.774 66.4279 353.096 66.6353 353.367 66.9001C353.638 67.1649 353.853 67.4817 353.998 67.8315C355.6 72.0724 354.931 75.5577 353.771 77.4053C353.232 78.2793 352.56 78.7929 351.907 78.8521C351.762 78.8736 351.605 78.8736 351.454 78.8736ZM351.098 67.2237C350.713 67.2269 350.333 67.3103 349.982 67.4684C349.097 67.8583 348.611 69.0551 348.493 71.1231C348.328 74.049 348.762 76.0956 349.736 77.0395C350.257 77.5424 350.939 77.7468 351.81 77.6661C352.015 77.6473 352.401 77.3622 352.768 76.776C353.731 75.2458 354.338 72.0966 352.889 68.2564C352.8 68.06 352.673 67.8831 352.515 67.7359C352.357 67.5886 352.172 67.474 351.969 67.3985C351.694 67.2824 351.398 67.222 351.098 67.221V67.2237Z" fill="black"/>
<path d="M373.673 70.0824H373.594L351.616 67.2183C351.536 67.2102 351.459 67.1862 351.389 67.1478C351.319 67.1094 351.257 67.0573 351.207 66.9947C351.157 66.932 351.121 66.8601 351.099 66.783C351.078 66.706 351.073 66.6255 351.083 66.5463C351.093 66.4671 351.12 66.3908 351.16 66.322C351.201 66.2531 351.255 66.193 351.319 66.1453C351.384 66.0977 351.457 66.0633 351.535 66.0444C351.613 66.0254 351.693 66.0223 351.772 66.035L373.751 68.8964C373.901 68.9167 374.038 68.993 374.134 69.1101C374.23 69.2272 374.278 69.3762 374.268 69.5271C374.258 69.6781 374.191 69.8196 374.081 69.9231C373.97 70.0267 373.824 70.0846 373.673 70.0851V70.0824Z" fill="black"/>
<path d="M341.851 76.5274C341.758 76.5281 341.666 76.5069 341.582 76.4655C340.951 76.1643 340.503 74.9945 340.29 74.3141C339.621 72.1949 339.394 69.0673 340.767 66.6389C340.961 66.2624 341.237 65.9348 341.577 65.6809C341.916 65.4269 342.309 65.2533 342.725 65.1733C344.805 64.7806 347.238 66.7304 347.341 66.8137C347.464 66.9136 347.543 67.0582 347.559 67.2158C347.576 67.3734 347.529 67.5311 347.428 67.6541C347.328 67.7772 347.183 67.8555 347.025 67.8719C346.867 67.8883 346.709 67.8414 346.585 67.7415C346.006 67.2709 344.212 66.1091 342.947 66.3485C342.702 66.3979 342.472 66.503 342.276 66.6555C342.079 66.8081 341.92 67.004 341.811 67.2279C339.971 70.4792 341.541 74.9595 342.127 75.3952C342.197 75.4287 342.26 75.476 342.312 75.5341C342.364 75.5923 342.403 75.6602 342.429 75.7339C342.454 75.8075 342.464 75.8855 342.458 75.9631C342.453 76.0407 342.432 76.1164 342.396 76.1858C342.347 76.2882 342.27 76.3745 342.173 76.4349C342.077 76.4954 341.965 76.5274 341.851 76.5274Z" fill="black"/>
<path d="M203.977 313.15C213.164 313.15 220.611 305.725 220.611 296.565C220.611 287.406 213.164 279.98 203.977 279.98C194.789 279.98 187.342 287.406 187.342 296.565C187.342 305.725 194.789 313.15 203.977 313.15Z" fill="white"/>
<path d="M258.37 313.15C267.557 313.15 275.004 305.725 275.004 296.565C275.004 287.406 267.557 279.98 258.37 279.98C249.182 279.98 241.735 287.406 241.735 296.565C241.735 305.725 249.182 313.15 258.37 313.15Z" fill="white"/>
<path d="M258.369 313.752C254.96 313.752 251.628 312.744 248.793 310.856C245.959 308.967 243.75 306.284 242.445 303.143C241.141 300.003 240.799 296.548 241.464 293.215C242.129 289.881 243.771 286.819 246.181 284.416C248.592 282.013 251.663 280.376 255.007 279.713C258.35 279.05 261.816 279.39 264.966 280.691C268.115 281.992 270.807 284.194 272.701 287.02C274.595 289.846 275.606 293.168 275.606 296.567C275.599 301.123 273.78 305.489 270.55 308.711C267.319 311.932 262.939 313.745 258.369 313.752ZM258.369 280.58C255.198 280.58 252.097 281.517 249.46 283.274C246.823 285.031 244.768 287.528 243.554 290.449C242.34 293.37 242.023 296.585 242.642 299.686C243.26 302.788 244.788 305.636 247.03 307.872C249.273 310.108 252.13 311.631 255.241 312.248C258.352 312.865 261.576 312.548 264.506 311.338C267.436 310.128 269.941 308.079 271.703 305.45C273.465 302.82 274.405 299.729 274.405 296.567C274.403 292.327 272.712 288.261 269.706 285.263C266.699 282.264 262.622 280.576 258.369 280.571V280.58Z" fill="black"/>
<path d="M252.843 302.984V290.146C252.843 289.995 252.881 289.848 252.954 289.716C253.028 289.585 253.133 289.475 253.261 289.395C253.389 289.316 253.535 289.27 253.686 289.263C253.836 289.255 253.986 289.286 254.121 289.352L266.998 295.694C267.146 295.767 267.269 295.88 267.356 296.02C267.442 296.159 267.488 296.32 267.488 296.484C267.488 296.648 267.442 296.809 267.356 296.949C267.269 297.088 267.146 297.201 266.998 297.275L254.121 303.775C253.986 303.841 253.836 303.872 253.686 303.864C253.536 303.857 253.39 303.812 253.262 303.733C253.134 303.653 253.029 303.543 252.955 303.412C252.882 303.282 252.843 303.134 252.843 302.984Z" fill="black"/>
<path d="M312.763 313.15C321.95 313.15 329.398 305.725 329.398 296.565C329.398 287.406 321.95 279.98 312.763 279.98C303.576 279.98 296.128 287.406 296.128 296.565C296.128 305.725 303.576 313.15 312.763 313.15Z" fill="white"/>
<path d="M312.763 313.752C309.354 313.752 306.021 312.745 303.186 310.857C300.351 308.969 298.142 306.285 296.837 303.145C295.532 300.005 295.19 296.55 295.855 293.216C296.519 289.883 298.161 286.821 300.571 284.417C302.982 282.013 306.053 280.376 309.396 279.713C312.74 279.05 316.206 279.39 319.356 280.691C322.505 281.991 325.197 284.194 327.091 287.02C328.986 289.846 329.997 293.168 329.997 296.567C329.989 301.122 328.171 305.489 324.941 308.71C321.711 311.931 317.332 313.744 312.763 313.752ZM312.763 280.58C309.591 280.58 306.491 281.517 303.854 283.274C301.217 285.031 299.161 287.528 297.947 290.449C296.734 293.37 296.416 296.585 297.035 299.686C297.654 302.788 299.181 305.636 301.424 307.872C303.666 310.108 306.524 311.631 309.634 312.248C312.745 312.865 315.969 312.548 318.9 311.338C321.83 310.128 324.334 308.079 326.096 305.45C327.858 302.82 328.799 299.729 328.799 296.567C328.796 292.327 327.106 288.261 324.099 285.263C321.093 282.264 317.016 280.576 312.763 280.571V280.58Z" fill="black"/>
<path d="M318.217 302.583C318.138 302.584 318.06 302.568 317.987 302.538C317.915 302.508 317.849 302.464 317.793 302.408L306.694 291.345C306.633 291.29 306.585 291.224 306.551 291.15C306.517 291.076 306.498 290.996 306.497 290.915C306.495 290.834 306.509 290.753 306.539 290.678C306.57 290.602 306.615 290.534 306.673 290.476C306.73 290.419 306.799 290.374 306.874 290.344C306.95 290.314 307.031 290.299 307.112 290.301C307.194 290.303 307.274 290.321 307.348 290.355C307.422 290.389 307.489 290.437 307.543 290.497L318.64 301.564C318.696 301.619 318.74 301.685 318.77 301.758C318.8 301.83 318.816 301.908 318.816 301.986C318.816 302.064 318.8 302.142 318.77 302.215C318.74 302.287 318.696 302.353 318.64 302.408C318.585 302.464 318.519 302.508 318.446 302.538C318.374 302.568 318.296 302.584 318.217 302.583Z" fill="black"/>
<path d="M307.12 302.584C307.001 302.585 306.885 302.55 306.786 302.485C306.687 302.419 306.61 302.326 306.564 302.217C306.518 302.108 306.506 301.988 306.529 301.871C306.552 301.755 306.61 301.649 306.694 301.565L317.793 290.499C317.906 290.387 318.059 290.324 318.218 290.324C318.377 290.324 318.529 290.388 318.642 290.5C318.754 290.612 318.817 290.765 318.817 290.923C318.816 291.082 318.753 291.234 318.64 291.346L307.543 302.409C307.488 302.465 307.422 302.509 307.349 302.539C307.276 302.569 307.198 302.584 307.12 302.584Z" fill="black"/>
<path d="M233.208 230.761C233.079 230.76 232.953 230.717 232.85 230.64C232.747 230.562 232.671 230.453 232.635 230.329C232.599 230.205 232.603 230.073 232.648 229.952C232.693 229.831 232.776 229.728 232.885 229.658L262.327 210.79C262.461 210.704 262.623 210.675 262.778 210.709C262.934 210.743 263.069 210.837 263.155 210.97C263.241 211.104 263.27 211.265 263.236 211.42C263.202 211.575 263.108 211.71 262.974 211.796L233.532 230.664C233.436 230.726 233.323 230.76 233.208 230.761Z" fill="black"/>
<path d="M194.096 255.826C193.966 255.826 193.84 255.784 193.736 255.707C193.633 255.629 193.557 255.52 193.52 255.396C193.484 255.272 193.488 255.14 193.533 255.019C193.578 254.898 193.661 254.794 193.769 254.724L220.428 237.642C220.562 237.556 220.724 237.527 220.879 237.561C221.035 237.594 221.17 237.688 221.256 237.822C221.342 237.955 221.371 238.117 221.337 238.272C221.303 238.427 221.209 238.562 221.075 238.647L194.42 255.73C194.323 255.792 194.211 255.826 194.096 255.826Z" fill="black"/>
<path d="M219.584 260.133C219.454 260.132 219.329 260.089 219.225 260.012C219.122 259.934 219.047 259.825 219.01 259.701C218.974 259.578 218.979 259.445 219.024 259.324C219.069 259.204 219.152 259.1 219.26 259.03L287.814 215.095C287.881 215.053 287.955 215.024 288.032 215.01C288.11 214.996 288.189 214.997 288.266 215.014C288.343 215.03 288.416 215.062 288.481 215.106C288.546 215.151 288.601 215.208 288.644 215.274C288.687 215.34 288.716 215.414 288.73 215.491C288.744 215.569 288.743 215.648 288.726 215.725C288.709 215.802 288.678 215.874 288.633 215.939C288.588 216.003 288.531 216.059 288.465 216.101L219.907 260.036C219.811 260.099 219.699 260.132 219.584 260.133Z" fill="black"/>
<path d="M138.678 383.976L54.6565 383.142C39.4647 383.142 26.4686 373.254 23.8063 358.199L9.42376 276.838C7.71091 267.157 15.1153 258.25 24.8987 258.25H79.7207L138.678 383.976Z" fill="white"/>
<path d="M138.678 384.573L54.6565 383.739C38.7985 383.739 25.8698 373.28 23.221 358.304L8.83302 276.942C8.40902 274.568 8.51296 272.13 9.13751 269.8C9.76206 267.47 10.892 265.305 12.4475 263.458C13.9702 261.641 15.8745 260.179 18.0259 259.176C20.1774 258.173 22.5236 257.653 24.8987 257.652H79.7207C79.8341 257.653 79.945 257.686 80.0405 257.746C80.136 257.807 80.2122 257.894 80.2602 257.997L139.217 383.723C139.26 383.813 139.279 383.913 139.272 384.013C139.266 384.113 139.235 384.21 139.181 384.295C139.127 384.379 139.053 384.449 138.965 384.498C138.877 384.546 138.778 384.572 138.678 384.573ZM24.8987 258.846C22.6985 258.847 20.5252 259.328 18.5322 260.258C16.5392 261.187 14.7751 262.541 13.3647 264.225C11.9216 265.938 10.8736 267.946 10.2947 270.107C9.71585 272.269 9.62017 274.53 10.0145 276.733L24.397 358.094C26.9434 372.487 39.3865 382.542 54.6565 382.542L137.736 383.365L79.3458 258.852L24.8987 258.846Z" fill="black"/>
<path d="M88.552 483.454H74.7305V382.996L88.552 383.52V483.454Z" fill="black"/>
<path d="M114.282 466.648H52.102C47.4459 466.648 42.9804 468.492 39.687 471.773C36.3937 475.055 34.542 479.506 34.5392 484.148H131.861C131.86 481.848 131.404 479.571 130.519 477.447C129.635 475.323 128.339 473.393 126.707 471.768C125.075 470.143 123.137 468.855 121.006 467.976C118.874 467.098 116.589 466.647 114.282 466.648Z" fill="black"/>
<path d="M32.1521 321.667C32.0115 321.667 31.8754 321.618 31.7674 321.528C31.6595 321.438 31.5866 321.313 31.5614 321.175L24.5913 281.678C24.5746 281.6 24.5739 281.519 24.5893 281.44C24.6046 281.361 24.6357 281.287 24.6807 281.22C24.7257 281.154 24.7836 281.097 24.851 281.053C24.9184 281.01 24.994 280.98 25.0732 280.966C25.1523 280.952 25.2335 280.954 25.3118 280.972C25.3902 280.99 25.464 281.024 25.5291 281.071C25.5941 281.118 25.649 281.178 25.6904 281.247C25.7318 281.315 25.7589 281.392 25.7701 281.471L32.7428 320.966C32.7703 321.122 32.7347 321.282 32.6437 321.412C32.5527 321.542 32.4138 321.631 32.2573 321.659L32.1521 321.667Z" fill="black"/>
<path d="M111.194 192.666C116.713 192.18 120.573 197.198 123.664 204.798C126.183 211.002 125.194 216.168 121.776 219.57C110.757 230.577 98.8022 262.329 82.4559 271.989C69.4167 279.694 42.1136 278.269 29.5059 262.292C17.516 247.1 15.6925 225.099 29.2605 215.197C41.4554 206.298 52.8142 221.552 65.759 213.277C78.5204 205.118 78.3181 198.352 85.8654 194.374C93.9792 190.101 95.5464 194.049 111.194 192.666Z" fill="black"/>
<path d="M189.875 434.441C189.759 434.92 195.383 460.581 195.383 460.581L182.454 458.43L178.559 436.735L189.875 434.441Z" fill="white"/>
<path d="M195.383 461.178C195.349 461.181 195.316 461.181 195.283 461.178L182.354 459.027C182.232 459.006 182.12 458.949 182.032 458.862C181.944 458.776 181.885 458.664 181.863 458.543L177.968 436.848C177.941 436.695 177.975 436.536 178.063 436.407C178.152 436.278 178.287 436.188 178.44 436.157L189.753 433.871C189.843 433.853 189.935 433.856 190.024 433.879C190.112 433.902 190.195 433.944 190.264 434.004C190.334 434.063 190.388 434.138 190.425 434.221C190.461 434.305 190.478 434.396 190.473 434.487C190.56 435.563 193.799 450.572 195.968 460.468C195.987 460.555 195.987 460.646 195.966 460.733C195.946 460.82 195.906 460.902 195.85 460.971C195.794 461.041 195.723 461.097 195.642 461.136C195.561 461.174 195.472 461.194 195.383 461.194V461.178ZM182.975 457.903L194.611 459.844C190.77 442.297 189.683 436.878 189.389 435.151L179.258 437.198L182.975 457.903Z" fill="black"/>
<path d="M188.507 452.164C189.442 451.345 190.625 450.862 191.868 450.793C194.026 450.699 196.008 452.051 196.907 454.039C199.148 459.006 205.058 472.845 206.731 484.159C207.321 488.155 204.303 491.406 199.58 488.787C191.855 484.484 181.138 474.639 175.527 460.087C175.207 459.266 175.098 458.378 175.211 457.504C175.323 456.63 175.654 455.799 176.172 455.085C177.17 453.7 178.308 452.42 179.568 451.266C180.2 450.707 181.012 450.393 181.857 450.379C182.701 450.366 183.523 450.655 184.172 451.194L185.386 452.189C185.826 452.551 186.38 452.747 186.951 452.743C187.522 452.738 188.073 452.533 188.507 452.164Z" fill="white"/>
<path d="M202.776 490.334C201.829 490.334 200.67 490.065 199.299 489.312C191.207 484.821 180.582 474.844 174.98 460.303C174.62 459.39 174.498 458.401 174.623 457.428C174.749 456.455 175.118 455.529 175.697 454.736C176.719 453.316 177.885 452.005 179.177 450.823C179.914 450.163 180.866 449.79 181.857 449.774C182.849 449.758 183.812 450.099 184.571 450.735L185.785 451.73C186.118 452.001 186.536 452.148 186.966 452.145C187.396 452.142 187.811 451.989 188.14 451.714C189.177 450.811 190.486 450.279 191.86 450.202C194.215 450.1 196.445 451.547 197.47 453.8C199.898 459.144 205.676 472.795 207.343 484.074C207.683 486.378 206.914 488.484 205.339 489.57C204.583 490.081 203.689 490.348 202.776 490.334ZM181.912 450.977C181.198 450.975 180.509 451.238 179.978 451.714C178.749 452.84 177.639 454.089 176.665 455.441C176.205 456.073 175.912 456.811 175.813 457.586C175.714 458.361 175.812 459.148 176.099 459.875C181.588 474.129 191.984 483.88 199.885 488.269C201.749 489.304 203.442 489.417 204.648 488.586C205.854 487.755 206.42 486.099 206.148 484.248C204.503 473.117 198.763 459.59 196.37 454.29C195.561 452.48 193.762 451.316 191.903 451.396C190.792 451.458 189.735 451.892 188.903 452.628C188.36 453.084 187.675 453.336 186.965 453.341C186.255 453.346 185.566 453.103 185.017 452.655L183.803 451.657C183.271 451.217 182.603 450.975 181.912 450.971V450.977Z" fill="black"/>
<path d="M203.798 485.824C202.781 485.824 191.881 485.189 178.664 459.144C178.592 459.001 178.581 458.836 178.631 458.685C178.682 458.533 178.791 458.408 178.934 458.337C179.077 458.266 179.242 458.254 179.394 458.304C179.546 458.355 179.671 458.463 179.743 458.606C192.99 484.711 203.717 484.627 203.825 484.63C203.904 484.627 203.982 484.64 204.056 484.667C204.13 484.695 204.198 484.736 204.255 484.79C204.313 484.843 204.359 484.907 204.392 484.979C204.425 485.05 204.443 485.127 204.446 485.205C204.449 485.284 204.436 485.362 204.408 485.436C204.381 485.509 204.339 485.576 204.286 485.634C204.232 485.691 204.168 485.738 204.096 485.77C204.024 485.803 203.947 485.821 203.869 485.824H203.798Z" fill="black"/>
<path d="M195.52 471.483C195.38 471.485 195.244 471.437 195.135 471.348C195.027 471.259 194.953 471.136 194.927 470.999C194.901 470.861 194.924 470.719 194.991 470.597C195.059 470.475 195.168 470.38 195.299 470.33L201.427 467.909C201.501 467.88 201.579 467.866 201.657 467.867C201.736 467.868 201.814 467.885 201.886 467.916C201.958 467.947 202.024 467.992 202.079 468.048C202.133 468.105 202.177 468.171 202.206 468.244C202.235 468.317 202.249 468.395 202.248 468.474C202.247 468.552 202.23 468.629 202.199 468.701C202.168 468.774 202.123 468.839 202.066 468.893C202.01 468.948 201.943 468.991 201.87 469.02L195.741 471.44C195.671 471.468 195.596 471.482 195.52 471.483Z" fill="black"/>
<path d="M193.378 466.805C193.239 466.804 193.104 466.755 192.998 466.666C192.891 466.577 192.818 466.453 192.792 466.317C192.767 466.18 192.789 466.039 192.856 465.917C192.923 465.795 193.03 465.701 193.16 465.649L200.348 462.86C200.494 462.814 200.652 462.825 200.79 462.891C200.928 462.957 201.036 463.073 201.091 463.215C201.147 463.357 201.146 463.515 201.088 463.656C201.031 463.798 200.922 463.912 200.783 463.976L193.597 466.765C193.527 466.791 193.453 466.805 193.378 466.805Z" fill="black"/>
<path d="M134.707 434.371C134.616 434.567 133.898 437.579 133.337 442.654C132.404 451.112 141.899 458.943 141.899 458.943L119.408 455.909L120.268 436.337L134.707 434.371Z" fill="white"/>
<path d="M141.899 459.542C141.872 459.545 141.845 459.545 141.818 459.542L119.329 456.519C119.181 456.5 119.045 456.426 118.948 456.311C118.852 456.197 118.802 456.05 118.809 455.901L119.669 436.331C119.675 436.191 119.73 436.057 119.825 435.953C119.919 435.85 120.048 435.782 120.187 435.764L134.626 433.787C134.734 433.772 134.843 433.786 134.943 433.829C135.043 433.871 135.129 433.939 135.193 434.026C135.254 434.11 135.292 434.208 135.303 434.311C135.315 434.413 135.3 434.517 135.26 434.613C135.128 434.997 134.451 438.047 133.933 442.729C133.046 450.77 142.187 458.413 142.279 458.491C142.374 458.569 142.442 458.674 142.475 458.793C142.507 458.911 142.502 459.037 142.461 459.152C142.419 459.268 142.343 459.368 142.242 459.438C142.142 459.509 142.022 459.547 141.899 459.548V459.542ZM120.031 455.403L140.083 458.093C137.402 455.473 131.991 449.288 132.741 442.586C133.001 440.066 133.391 437.561 133.909 435.081L120.845 436.869L120.031 455.403Z" fill="black"/>
<path d="M124.6 450.242C125.916 449.809 125.617 447.776 126.696 446.818C128.314 445.374 130.359 445.401 132.299 446.377C137.154 448.817 150.398 455.825 158.771 463.554C161.738 466.286 161.414 470.726 156.111 471.678C147.426 473.238 132.932 472.372 119.47 464.619C118.704 464.18 118.062 463.555 117.602 462.803C117.142 462.051 116.88 461.196 116.84 460.316C116.775 458.856 116.84 454.007 117.139 452.2C117.279 451.367 117.711 450.611 118.358 450.066C119.006 449.521 119.826 449.223 120.673 449.225H122.237C123.413 449.241 123.481 450.61 124.6 450.242Z" fill="white"/>
<path d="M148.24 472.93C138.036 472.885 128.019 470.197 119.17 465.131C118.316 464.645 117.6 463.951 117.087 463.115C116.575 462.278 116.284 461.326 116.241 460.347C116.173 458.851 116.241 453.973 116.548 452.107C116.71 451.137 117.213 450.256 117.966 449.622C118.72 448.989 119.676 448.643 120.662 448.648H122.229C122.53 448.656 122.825 448.727 123.095 448.858C123.365 448.989 123.605 449.176 123.796 449.407C124.125 449.732 124.177 449.754 124.401 449.676C124.819 449.538 124.986 449.073 125.226 448.331C125.439 447.667 125.682 446.914 126.286 446.376C127.991 444.859 130.219 444.671 132.557 445.838C137.777 448.463 150.816 455.401 159.167 463.108C160.869 464.679 161.595 466.795 161.056 468.632C160.735 469.708 159.683 471.636 156.2 472.26C153.572 472.716 150.908 472.94 148.24 472.93ZM120.662 449.832C119.958 449.828 119.276 450.075 118.739 450.528C118.202 450.981 117.845 451.61 117.733 452.303C117.441 454.064 117.376 458.878 117.439 460.298C117.474 461.076 117.706 461.833 118.114 462.497C118.521 463.161 119.091 463.712 119.769 464.098C132.94 471.685 147.123 472.682 156.006 471.09C158.11 470.714 159.496 469.724 159.915 468.304C160.333 466.884 159.731 465.255 158.364 464.001C150.126 456.396 137.202 449.522 132.029 446.922C130.707 446.255 128.792 445.779 127.095 447.274C126.734 447.594 126.556 448.132 126.378 448.699C126.108 449.536 125.806 450.485 124.786 450.818C123.848 451.13 123.316 450.606 122.966 450.259C122.696 449.99 122.531 449.848 122.237 449.845H120.662V449.832Z" fill="black"/>
<path d="M148.027 469.016C142.362 469.016 133.79 467.478 121.323 461.905C121.177 461.841 121.064 461.721 121.007 461.573C120.95 461.425 120.954 461.261 121.019 461.116C121.084 460.971 121.204 460.858 121.352 460.801C121.501 460.745 121.666 460.749 121.811 460.814C148.429 472.7 156.721 465.842 156.802 465.773C156.921 465.668 157.077 465.615 157.236 465.626C157.394 465.636 157.542 465.709 157.647 465.828C157.752 465.947 157.805 466.102 157.795 466.261C157.784 466.419 157.711 466.566 157.592 466.671C157.39 466.837 154.762 469.016 148.027 469.016Z" fill="black"/>
<path d="M141.756 460.948C141.652 460.948 141.551 460.921 141.462 460.87C141.325 460.792 141.225 460.664 141.183 460.513C141.14 460.362 141.159 460.2 141.235 460.063L144.488 454.308C144.566 454.17 144.696 454.069 144.849 454.026C145.002 453.983 145.166 454.003 145.304 454.081C145.443 454.159 145.544 454.288 145.587 454.44C145.63 454.593 145.61 454.756 145.532 454.894L142.279 460.652C142.225 460.743 142.149 460.818 142.057 460.87C141.965 460.922 141.861 460.949 141.756 460.948Z" fill="black"/>
<path d="M137.159 458.669C137.05 458.67 136.942 458.64 136.849 458.583C136.713 458.5 136.616 458.367 136.578 458.213C136.54 458.059 136.565 457.897 136.647 457.76L140.312 451.766C140.395 451.631 140.529 451.534 140.683 451.497C140.838 451.46 141.001 451.486 141.136 451.568C141.272 451.651 141.369 451.784 141.406 451.938C141.443 452.092 141.418 452.255 141.335 452.39L137.672 458.384C137.618 458.471 137.542 458.543 137.453 458.593C137.363 458.643 137.262 458.669 137.159 458.669Z" fill="black"/>
<path d="M73.7731 335.7C73.7731 335.7 152.497 332.292 161.104 340.271C172.778 351.08 192.834 441.054 192.834 441.054L173.469 446.468C173.469 446.468 144.294 372.626 137.054 372.626C129.814 372.626 61.6644 370.206 61.6644 370.206L73.7731 335.7Z" fill="black"/>
<path d="M58.2872 333.23C58.2872 333.23 47.9049 363.619 56.167 369.162C64.4292 374.704 123.985 374.231 121.919 373.54C119.853 372.849 116.592 423.292 116.592 442.697L135.344 443.418C135.344 443.418 165.226 365.397 162.005 356.676C156.243 341.078 112.794 335.831 98.5998 333.747C95.6786 333.327 58.2872 333.23 58.2872 333.23Z" fill="black"/>
<path d="M152.092 399.612C152.03 399.613 151.968 399.604 151.909 399.586C151.757 399.537 151.631 399.43 151.558 399.289C151.486 399.148 151.472 398.984 151.52 398.833C152.195 396.735 152.862 394.673 153.522 392.647C158.768 376.482 163.3 362.527 161.425 356.88C157.441 344.894 127.651 340.298 117.859 338.789C117.702 338.765 117.561 338.68 117.468 338.552C117.374 338.424 117.335 338.264 117.359 338.107C117.383 337.951 117.469 337.81 117.597 337.717C117.726 337.623 117.886 337.584 118.043 337.609C135.347 340.276 158.774 345.139 162.563 356.506C164.562 362.522 160.195 375.982 154.663 393.021C154.007 395.043 153.336 397.106 152.664 399.206C152.623 399.325 152.546 399.428 152.443 399.501C152.341 399.574 152.218 399.613 152.092 399.612Z" fill="white"/>
<path d="M67.6175 241.093C67.6175 241.093 67.8873 236.083 64.7933 288.308C64.7933 288.308 66.9297 328.723 67.1967 333.278C67.4638 337.834 107.102 335.855 107.102 335.855C111.79 315.36 111.28 291.842 108.008 266.719L114.8 266.114L115.273 250.322C114.042 245.673 108.853 242.33 105.368 241.087C96.0805 236.927 79.6183 238.264 67.6175 241.093Z" fill="white"/>
<path d="M89.3073 336.88H87.2438C66.7948 336.727 66.6572 334.339 66.5979 333.319C66.3281 328.812 64.2161 288.75 64.1945 288.347C64.1917 288.324 64.1917 288.302 64.1945 288.279C65.4973 266.367 66.2041 254.532 66.5844 248.172C66.7759 244.993 66.8865 243.183 66.9485 242.167C66.9755 241.734 66.9944 241.4 67.0214 241.147C67.0187 241.12 67.0187 241.092 67.0214 241.064V240.954H67.0376C67.1158 240.402 67.2533 240.349 67.6553 240.37C67.7307 240.375 67.8048 240.393 67.8738 240.424C79.3674 237.77 95.9861 236.237 105.608 240.548C109.675 241.997 114.647 245.641 115.858 250.175C115.873 250.231 115.88 250.289 115.879 250.347L115.407 266.128C115.403 266.273 115.347 266.412 115.247 266.519C115.148 266.625 115.013 266.692 114.868 266.706L108.696 267.244C112.259 294.981 111.933 317.466 107.701 335.974C107.672 336.101 107.601 336.215 107.501 336.298C107.401 336.382 107.276 336.43 107.145 336.436C107.045 336.455 98.4326 336.88 89.3073 336.88ZM65.3948 288.309C65.465 289.673 67.5339 328.796 67.7955 333.241C67.7955 333.475 68.4699 335.535 87.2546 335.675C95.8863 335.742 104.564 335.371 106.619 335.277C110.754 316.858 111.013 294.451 107.412 266.792C107.402 266.713 107.407 266.632 107.429 266.555C107.451 266.477 107.488 266.405 107.539 266.343C107.59 266.28 107.653 266.228 107.724 266.19C107.796 266.152 107.874 266.128 107.954 266.12L114.218 265.563L114.671 250.39C113.543 246.311 108.966 243.003 105.165 241.648C95.7811 237.447 79.4969 238.958 68.1866 241.572C68.0626 243.562 67.5366 252.259 65.3948 288.309Z" fill="black"/>
<path d="M91.3059 284.769C91.1724 284.767 91.0431 284.721 90.9387 284.638C90.8343 284.555 90.7607 284.44 90.7297 284.31C90.6987 284.181 90.712 284.045 90.7676 283.923C90.8231 283.802 90.9177 283.703 91.0362 283.642C100.477 278.688 101.095 264.747 101.1 264.607C101.106 264.449 101.175 264.299 101.291 264.191C101.407 264.083 101.562 264.026 101.721 264.032C101.879 264.037 102.029 264.106 102.138 264.222C102.246 264.338 102.304 264.492 102.298 264.65C102.276 265.253 101.634 279.425 91.5972 284.701C91.507 284.747 91.4071 284.77 91.3059 284.769Z" fill="black"/>
<path d="M74.3151 240.395C74.3151 240.395 64.7717 239.298 58.6243 247.656C52.5201 255.969 51.7756 265.446 52.9274 273.064C54.8803 285.997 63.0346 300.721 62.6596 304.739C62.4762 306.688 60.4019 320.554 52.5525 332.976C46.0787 343.195 46.3646 365.75 47.627 366.482C56.1373 371.427 70.091 381.461 86.7124 382.658C89.782 382.878 92.2906 381.294 92.7357 378.817C94.5106 368.918 99.2661 340.207 99.9809 313.253C100.601 289.913 83.9286 254.468 83.195 251.427C81.4201 244.058 74.3151 240.395 74.3151 240.395Z" fill="white"/>
<path d="M87.2925 383.279C87.0875 383.279 86.8798 383.279 86.6694 383.257C72.3003 382.222 60.1782 374.816 51.3334 369.41C49.9038 368.536 48.5551 367.711 47.3332 366.99C47.0634 366.834 46.8908 366.525 46.7505 365.955C45.8361 362.241 45.9872 342.243 52.0536 332.651C60.3643 319.506 62.0556 304.822 62.0691 304.682C62.2228 303.045 60.6691 299.035 58.87 294.407C56.4423 288.178 53.4428 280.422 52.3422 273.161C51.3172 266.374 51.4926 256.378 58.1497 247.312C64.4293 238.76 74.2937 239.782 74.3935 239.801C74.4659 239.809 74.5362 239.83 74.6012 239.863C74.9006 240.016 81.9624 243.735 83.7724 251.29C83.8964 251.8 84.5816 253.492 85.5365 255.832C90.1895 267.275 101.084 294.062 100.574 313.272C99.8678 339.941 95.266 368.068 93.3212 378.925C92.8545 381.55 90.4161 383.279 87.2925 383.279ZM48.0075 366.014C49.2214 366.721 50.5485 367.533 51.9538 368.391C60.6988 373.732 72.678 381.05 86.7503 382.063C89.5313 382.262 91.7513 380.888 92.1451 378.715C94.0872 367.886 98.6782 339.828 99.3822 313.242C99.884 294.283 88.6574 266.675 84.4305 256.283C83.3866 253.718 82.7554 252.169 82.6125 251.569C81.0318 245.021 74.9869 241.449 74.1399 240.979C73.0799 240.898 64.6208 240.514 59.1073 248.017C52.6929 256.754 52.5284 266.417 53.521 272.984C54.6 280.124 57.5833 287.81 59.9813 293.984C61.9855 299.151 63.4366 302.883 63.2559 304.803C62.9026 308.568 60.2726 321.891 53.0597 333.31C46.7397 343.292 47.1417 364.306 48.0075 366.014Z" fill="black"/>
<path d="M153.071 312.971C142.012 308.695 122.52 290.903 117.228 276.698L116.718 252.018C116.133 248.124 114.757 246.551 111.493 244.378C109.874 243.358 108.09 242.625 106.22 242.211C106.22 242.211 105.297 241.689 105.092 246.739C104.995 249.197 108.132 276.542 108.693 299.987C109.087 316.391 106.633 330.717 106.805 333.872C106.805 334.106 117.646 336.265 118.374 335.542L118.447 335.324L117.824 305.134C123.912 310.427 135.546 319.551 144.798 319.221L153.071 312.971Z" fill="white"/>
<path d="M117.339 336.239C114.069 336.239 106.757 334.499 106.676 334.47C106.546 334.434 106.43 334.359 106.344 334.255C106.259 334.151 106.208 334.023 106.198 333.889C106.142 332.813 106.371 330.562 106.687 327.451C107.353 320.897 108.359 310.998 108.095 299.988C107.709 283.914 106.126 266.154 105.179 255.542C104.731 250.54 104.461 247.52 104.494 246.711C104.653 242.792 105.238 241.977 105.732 241.706C105.829 241.648 105.938 241.612 106.05 241.599C106.163 241.586 106.277 241.597 106.385 241.63C108.314 242.063 110.154 242.823 111.825 243.876C115.113 246.065 116.681 247.746 117.312 251.925C117.313 251.95 117.313 251.975 117.312 252L117.822 276.578C122.982 290.293 141.917 308.01 153.282 312.409C153.381 312.447 153.469 312.511 153.535 312.595C153.602 312.678 153.645 312.777 153.659 312.883C153.674 312.989 153.66 313.096 153.619 313.195C153.578 313.294 153.512 313.38 153.427 313.445L145.133 319.681C145.035 319.756 144.916 319.798 144.793 319.802C136.431 320.101 126.038 312.907 118.437 306.447L119.033 335.295C119.035 335.364 119.025 335.432 119.003 335.497L118.93 335.715C118.901 335.803 118.851 335.883 118.785 335.949C118.585 336.158 118.059 336.239 117.339 336.239ZM107.391 333.45C109.141 333.964 116.292 335.225 117.835 335.064L117.215 305.122C117.213 305.006 117.245 304.892 117.307 304.794C117.369 304.695 117.458 304.617 117.563 304.568C117.668 304.519 117.785 304.501 117.9 304.517C118.015 304.534 118.123 304.583 118.21 304.659C128.87 313.929 137.987 318.745 144.569 318.606L151.871 313.111C140.18 308.018 121.73 290.489 116.667 276.892C116.642 276.83 116.63 276.763 116.629 276.696L116.12 252.065C115.561 248.394 114.331 246.985 111.159 244.874C109.657 243.928 108.007 243.238 106.277 242.833C106.134 243.102 105.805 243.997 105.691 246.762C105.662 247.493 105.961 250.825 106.371 255.437C107.321 266.065 108.907 283.849 109.295 299.961C109.565 311.046 108.551 320.991 107.882 327.572C107.604 330.293 107.396 332.34 107.391 333.456V333.45Z" fill="black"/>
<path d="M138.98 314.811C139.289 314.197 139.82 313.723 140.466 313.485C140.93 313.314 141.381 313.108 141.815 312.87L147.838 309.686C148.966 309.148 150.579 310.417 151.75 310.802C155.283 311.958 162.601 314.685 162 317.256C161.35 320.02 155.062 318.711 152.828 318.154C152.319 318.028 147.703 319.695 146.239 319.805C144.218 319.959 143.752 319.448 142.767 318.929C142.303 318.696 141.79 318.578 141.27 318.584C140.861 318.588 140.456 318.499 140.085 318.326C139.715 318.153 139.388 317.9 139.128 317.584L139.115 317.568C138.834 317.218 138.661 316.794 138.615 316.348C138.57 315.902 138.654 315.453 138.859 315.053L138.98 314.811Z" fill="white"/>
<path d="M145.575 320.42C144.632 320.452 143.701 320.194 142.91 319.681C142.775 319.606 142.64 319.525 142.489 319.447C142.111 319.26 141.692 319.167 141.27 319.178C140.771 319.182 140.278 319.074 139.826 318.862C139.375 318.65 138.977 318.34 138.662 317.954C138.307 317.512 138.087 316.978 138.027 316.415C137.968 315.852 138.072 315.284 138.327 314.778L138.446 314.547C138.823 313.798 139.473 313.22 140.264 312.934C140.702 312.77 141.128 312.576 141.54 312.353L147.56 309.166C148.639 308.628 149.829 309.238 150.881 309.766C151.223 309.948 151.577 310.108 151.941 310.244C159.537 312.732 163.119 315.136 162.587 317.392C162.513 317.706 162.375 318.002 162.182 318.261C161.988 318.519 161.743 318.735 161.463 318.896C159.418 320.138 155.137 319.342 152.734 318.745C151.884 318.925 151.044 319.15 150.217 319.417C148.688 319.872 147.107 320.34 146.284 320.402C146.028 320.41 145.793 320.42 145.575 320.42ZM148.467 310.147C148.342 310.144 148.219 310.169 148.105 310.22L142.111 313.399C141.65 313.649 141.172 313.865 140.679 314.047C140.177 314.234 139.764 314.604 139.525 315.082L139.406 315.311C139.251 315.609 139.187 315.946 139.221 316.28C139.255 316.615 139.386 316.932 139.597 317.193C139.802 317.444 140.06 317.645 140.352 317.782C140.645 317.919 140.965 317.989 141.289 317.987C141.904 317.979 142.511 318.121 143.058 318.401C143.22 318.484 143.371 318.57 143.514 318.654C144.197 319.044 144.69 319.323 146.212 319.21C146.905 319.156 148.561 318.672 149.891 318.272C152.049 317.634 152.626 317.484 152.993 317.575C156.704 318.5 159.642 318.613 160.856 317.876C161 317.798 161.126 317.69 161.226 317.56C161.326 317.43 161.397 317.28 161.436 317.121C161.77 315.701 157.902 313.45 151.585 311.379C151.163 311.229 150.753 311.05 150.357 310.841C149.702 310.502 148.993 310.15 148.467 310.15V310.147Z" fill="black"/>
<path d="M83.0385 302.816C90.8124 320.547 104.718 324.761 127.524 327.789L125.096 334.512C91.0174 338.753 84.6057 332.03 70.8301 314.041L83.0385 302.816Z" fill="white"/>
<path d="M66.1151 346.682C63.376 346.651 60.669 346.09 58.1442 345.031C57.9969 344.972 57.8791 344.857 57.8169 344.711C57.7547 344.565 57.7531 344.401 57.8124 344.254C57.8718 344.107 57.9873 343.989 58.1335 343.927C58.2797 343.865 58.4446 343.864 58.592 343.923C74.0292 350.138 82.1079 335.691 82.1889 335.546C82.2254 335.475 82.2758 335.413 82.3369 335.362C82.3981 335.311 82.4688 335.272 82.5451 335.249C82.6213 335.226 82.7014 335.218 82.7807 335.226C82.86 335.234 82.937 335.257 83.007 335.295C83.0771 335.333 83.1388 335.385 83.1886 335.447C83.2384 335.509 83.2753 335.58 83.2971 335.657C83.3189 335.733 83.3251 335.813 83.3155 335.892C83.3058 335.971 83.2804 336.047 83.2409 336.116C83.1707 336.24 77.3336 346.682 66.1151 346.682Z" fill="black"/>
<path d="M117.835 304.047C117.68 304.048 117.53 303.988 117.418 303.88C117.306 303.773 117.24 303.627 117.234 303.472L116.424 280.737C116.421 280.658 116.433 280.58 116.461 280.506C116.488 280.433 116.53 280.365 116.584 280.307C116.637 280.25 116.702 280.204 116.774 280.171C116.845 280.139 116.923 280.121 117.002 280.118C117.081 280.114 117.16 280.125 117.234 280.151C117.309 280.178 117.377 280.22 117.435 280.274C117.493 280.327 117.54 280.392 117.572 280.465C117.604 280.537 117.621 280.615 117.622 280.694L118.431 303.429C118.434 303.507 118.421 303.585 118.394 303.659C118.367 303.733 118.325 303.8 118.271 303.857C118.218 303.915 118.153 303.961 118.082 303.994C118.01 304.026 117.933 304.045 117.854 304.047H117.835Z" fill="black"/>
<path d="M106.117 336.365C97.7366 336.365 93.6554 334.585 88.1608 332.186C86.8121 331.595 85.4014 330.984 83.818 330.347C79.2567 328.521 75.9524 325.697 73.1039 321.203C71.7876 319.122 70.6763 316.901 69.5757 314.749C68.6181 312.867 67.6282 310.901 66.5169 309.067C66.4761 309 66.449 308.925 66.4372 308.848C66.4253 308.77 66.4288 308.691 66.4476 308.615C66.4664 308.539 66.5001 308.467 66.5466 308.404C66.5932 308.341 66.6519 308.287 66.7192 308.246C66.7865 308.206 66.8611 308.179 66.9389 308.167C67.0167 308.155 67.096 308.159 67.1724 308.177C67.2488 308.196 67.3208 308.23 67.3842 308.276C67.4475 308.323 67.5011 308.381 67.5419 308.448C68.6775 310.331 69.6782 312.299 70.6466 314.211C71.7255 316.333 72.8315 318.514 74.1181 320.561C76.8155 324.837 79.9526 327.515 84.2658 329.244C85.868 329.887 87.2788 330.503 88.6437 331.097C95.7216 334.187 100.396 336.226 115.553 334.593C116.759 334.464 121.617 334.51 122.812 334.558C122.89 334.561 122.968 334.58 123.039 334.613C123.11 334.646 123.175 334.693 123.228 334.75C123.281 334.808 123.323 334.876 123.35 334.949C123.377 335.023 123.389 335.101 123.386 335.18C123.383 335.258 123.364 335.335 123.331 335.406C123.298 335.477 123.251 335.541 123.194 335.595C123.136 335.648 123.068 335.689 122.994 335.716C122.92 335.743 122.842 335.756 122.763 335.752C121.625 335.707 116.829 335.661 115.68 335.782C112.505 336.146 109.313 336.341 106.117 336.365Z" fill="black"/>
<path d="M127.006 328.107H126.955C126.742 328.088 105.759 326.141 93.7932 317.815C90.2272 315.333 88.4496 309.841 86.5668 304.024C86.1946 302.868 85.817 301.701 85.4204 300.545C85.3949 300.47 85.3843 300.392 85.3892 300.314C85.3941 300.235 85.4145 300.159 85.449 300.089C85.4836 300.018 85.5317 299.955 85.5907 299.903C85.6497 299.851 85.7183 299.812 85.7927 299.786C85.8671 299.761 85.9457 299.75 86.0242 299.755C86.1027 299.76 86.1795 299.78 86.2501 299.815C86.3207 299.849 86.3839 299.897 86.4359 299.956C86.4879 300.015 86.5278 300.083 86.5534 300.157C86.9526 301.319 87.3329 302.494 87.7078 303.653C89.5286 309.274 91.2441 314.58 94.4783 316.831C106.185 324.977 126.847 326.894 127.06 326.913C127.219 326.92 127.369 326.99 127.476 327.107C127.583 327.224 127.639 327.378 127.632 327.537C127.625 327.695 127.555 327.844 127.438 327.951C127.32 328.058 127.165 328.114 127.006 328.107Z" fill="black"/>
<path d="M122.102 330.918C122.409 330.303 122.94 329.829 123.586 329.592C124.05 329.42 124.501 329.214 124.935 328.976L130.958 325.792C132.086 325.241 133.699 326.523 134.869 326.908C138.403 328.064 145.721 330.791 145.119 333.362C144.469 336.127 138.179 334.817 135.948 334.26C135.436 334.134 130.823 335.801 129.356 335.912C127.338 336.065 126.871 335.554 125.884 335.035C125.421 334.802 124.908 334.684 124.39 334.691C123.978 334.696 123.57 334.609 123.196 334.436C122.823 334.263 122.493 334.008 122.232 333.69V333.674C121.952 333.324 121.779 332.9 121.734 332.454C121.689 332.008 121.774 331.559 121.978 331.16L122.102 330.918Z" fill="white"/>
<path d="M128.697 336.526C127.753 336.558 126.822 336.3 126.03 335.786C125.897 335.711 125.76 335.63 125.612 335.552C125.232 335.365 124.813 335.273 124.39 335.283C123.891 335.287 123.398 335.178 122.946 334.967C122.495 334.755 122.097 334.445 121.781 334.06C121.425 333.619 121.204 333.084 121.145 332.521C121.086 331.957 121.192 331.389 121.449 330.884L121.565 330.653C121.942 329.904 122.591 329.326 123.381 329.039C123.819 328.876 124.246 328.682 124.657 328.458L130.68 325.271C131.759 324.733 132.946 325.344 133.998 325.871C134.341 326.054 134.696 326.214 135.061 326.35C142.654 328.837 146.236 331.242 145.704 333.498C145.631 333.812 145.493 334.108 145.299 334.366C145.106 334.625 144.861 334.841 144.58 335.001C142.538 336.244 138.257 335.448 135.851 334.851C135.001 335.031 134.161 335.255 133.334 335.523C131.805 335.977 130.224 336.445 129.404 336.507C129.148 336.507 128.913 336.526 128.697 336.526ZM122.634 331.188L122.518 331.419C122.363 331.717 122.298 332.054 122.331 332.388C122.365 332.722 122.495 333.04 122.706 333.301C122.909 333.554 123.167 333.758 123.46 333.898C123.752 334.037 124.073 334.109 124.398 334.108C125.013 334.101 125.62 334.243 126.167 334.522C126.332 334.606 126.48 334.692 126.626 334.775C127.308 335.162 127.799 335.445 129.323 335.332C130.016 335.278 131.673 334.794 133.002 334.393C135.16 333.756 135.74 333.605 136.107 333.694C139.816 334.622 142.754 334.735 143.967 333.998C144.112 333.919 144.239 333.811 144.339 333.681C144.438 333.55 144.51 333.4 144.547 333.24C144.882 331.822 141.014 329.571 134.696 327.501C134.275 327.351 133.865 327.171 133.469 326.963C132.66 326.562 131.756 326.105 131.236 326.36L125.22 329.515C124.759 329.765 124.281 329.982 123.788 330.163C123.288 330.348 122.876 330.714 122.634 331.188Z" fill="black"/>
<path d="M118.121 230.232C118.319 230.204 118.51 230.136 118.681 230.032C118.852 229.928 118.999 229.79 119.114 229.626C119.229 229.463 119.309 229.277 119.349 229.082C119.389 228.886 119.387 228.684 119.345 228.489C118.202 223.379 118.641 214.615 118.471 214.862C116.643 217.538 112.834 214.179 107.412 213.967C104.175 213.841 102.937 215.747 102.46 217.31C102.424 217.423 102.357 217.525 102.266 217.602C102.175 217.679 102.064 217.729 101.946 217.745C101.827 217.761 101.707 217.744 101.598 217.694C101.49 217.645 101.397 217.566 101.332 217.466C100.542 216.245 99.1959 215.209 97.189 217.21C94.9583 219.434 96.8249 224.595 98.8425 226.284C98.3543 226.84 90.6451 235.126 84.7297 241.344C84.4537 241.635 84.2423 241.981 84.1093 242.359C83.9763 242.737 83.9246 243.139 83.9577 243.538C83.9908 243.937 84.1079 244.325 84.3013 244.677C84.4947 245.028 84.7602 245.334 85.0804 245.577L90.3376 249.554C91.9412 250.767 93.88 251.46 95.8915 251.538C97.903 251.615 99.8899 251.075 101.583 249.99L102.392 249.471C102.59 249.344 102.757 249.176 102.882 248.977C103.007 248.779 103.086 248.556 103.114 248.323C103.143 248.091 103.119 247.855 103.046 247.633C102.972 247.41 102.85 247.207 102.689 247.037L101.098 245.353C99.8055 243.826 100.043 241.89 100.868 240.276L104.105 234.785C104.852 235.683 105.794 236.713 106.662 237.318C107.468 237.9 108.456 238.176 109.448 238.096C110.441 238.016 111.371 237.586 112.073 236.882C114.166 234.889 115.631 232.649 116.295 230.476L118.121 230.232Z" fill="white"/>
<path d="M96.2746 252.144C93.9992 252.146 91.7853 251.407 89.9708 250.038L84.7163 246.06C84.3298 245.768 84.0095 245.398 83.776 244.974C83.5426 244.55 83.4013 244.082 83.3613 243.6C83.3214 243.118 83.3837 242.633 83.5442 242.176C83.7047 241.72 83.9597 241.302 84.2928 240.951C89.5716 235.392 96.2989 228.174 98.0037 226.321C96.7008 224.923 95.6704 222.451 95.576 220.378C95.5113 218.869 95.9186 217.632 96.7575 216.796C97.7097 215.844 98.6457 215.411 99.5574 215.508C100.418 215.599 101.176 216.15 101.829 217.151C102.328 215.674 103.655 213.233 107.428 213.386C109.689 213.475 111.701 214.098 113.32 214.599C115.823 215.373 117.166 215.72 117.973 214.542C118.046 214.435 118.151 214.355 118.273 214.312C118.395 214.269 118.528 214.265 118.652 214.303C119.114 214.443 119.114 214.483 119.114 216.481C119.114 219.17 119.114 224.745 119.923 228.376C119.984 228.649 119.987 228.932 119.933 229.206C119.878 229.481 119.767 229.741 119.607 229.971C119.444 230.204 119.235 230.402 118.993 230.551C118.75 230.701 118.479 230.799 118.196 230.839L116.756 231.041C116.009 233.219 114.541 235.387 112.491 237.339C111.689 238.136 110.628 238.623 109.499 238.713C108.37 238.803 107.245 238.491 106.325 237.831C105.542 237.249 104.829 236.578 104.2 235.833L101.381 240.588C100.895 241.542 100.245 243.43 101.553 244.977L103.123 246.633C103.345 246.868 103.511 247.148 103.612 247.454C103.713 247.759 103.744 248.084 103.705 248.403C103.666 248.723 103.557 249.03 103.386 249.302C103.214 249.575 102.985 249.807 102.713 249.981L101.904 250.5C100.225 251.576 98.2705 252.146 96.2746 252.144ZM99.3173 216.683C98.8183 216.683 98.2384 217 97.6099 217.632C96.86 218.382 96.744 219.515 96.7791 220.321C96.8762 222.537 98.1278 224.893 99.2256 225.829C99.2872 225.88 99.3379 225.943 99.3745 226.014C99.4111 226.086 99.4329 226.163 99.4387 226.243C99.4451 226.322 99.4352 226.402 99.4097 226.478C99.3842 226.553 99.3436 226.622 99.2903 226.682C98.8129 227.219 91.2278 235.384 85.164 241.766C84.9453 241.995 84.7775 242.268 84.6716 242.567C84.5658 242.865 84.5242 243.183 84.5497 243.498C84.5751 243.814 84.667 244.121 84.8193 244.399C84.9717 244.677 85.181 244.919 85.4338 245.111L90.691 249.089C92.1987 250.224 94.0189 250.872 95.9069 250.945C97.7948 251.018 99.6599 250.513 101.251 249.497L102.061 248.978C102.184 248.899 102.289 248.794 102.367 248.67C102.445 248.546 102.494 248.406 102.511 248.26C102.528 248.114 102.512 247.966 102.466 247.827C102.419 247.688 102.342 247.56 102.241 247.453L100.647 245.773C99.3443 244.232 99.2337 242.142 100.321 240.012L103.587 234.489C103.636 234.406 103.704 234.335 103.786 234.284C103.867 234.233 103.96 234.203 104.056 234.195C104.153 234.187 104.249 234.203 104.338 234.24C104.427 234.278 104.505 234.336 104.566 234.411C105.271 235.315 106.087 236.128 106.994 236.831C107.686 237.336 108.537 237.576 109.392 237.506C110.246 237.436 111.047 237.062 111.647 236.452C113.662 234.534 115.067 232.418 115.712 230.304C115.746 230.196 115.809 230.099 115.896 230.025C115.982 229.951 116.088 229.903 116.2 229.887L118.013 229.618C118.132 229.602 118.246 229.562 118.348 229.499C118.45 229.437 118.538 229.354 118.606 229.255C118.673 229.161 118.718 229.055 118.741 228.942C118.763 228.83 118.761 228.714 118.736 228.602C117.894 224.837 117.894 219.17 117.894 216.446V216.148C116.591 216.833 114.871 216.301 112.945 215.704C111.313 215.201 109.465 214.628 107.364 214.545C105.095 214.456 103.625 215.44 103.007 217.465C102.939 217.688 102.808 217.887 102.63 218.038C102.452 218.189 102.235 218.287 102.003 218.319C101.772 218.351 101.536 218.317 101.324 218.22C101.111 218.123 100.931 217.968 100.804 217.772C100.361 217.092 99.8946 216.72 99.4144 216.669C99.3818 216.672 99.3494 216.677 99.3173 216.683Z" fill="black"/>
<path d="M104.119 235.389C104.023 235.389 103.929 235.367 103.844 235.323C103.759 235.28 103.686 235.216 103.63 235.139L102.592 233.695C102.511 233.565 102.482 233.41 102.512 233.26C102.542 233.111 102.628 232.978 102.752 232.889C102.877 232.801 103.03 232.762 103.182 232.783C103.333 232.803 103.472 232.88 103.568 232.998L104.607 234.442C104.699 234.572 104.736 234.733 104.709 234.889C104.683 235.046 104.596 235.186 104.467 235.279C104.365 235.351 104.243 235.389 104.119 235.389Z" fill="black"/>
<path d="M154.841 333.549L173.089 279.936C173.639 279.105 174.389 278.423 175.27 277.954C176.151 277.484 177.136 277.241 178.135 277.247H226.772C227.263 277.237 227.748 277.346 228.187 277.564C228.625 277.783 229.004 278.104 229.29 278.501C229.576 278.898 229.761 279.359 229.829 279.843C229.897 280.327 229.846 280.821 229.68 281.281C229.394 282.031 229.087 282.773 228.836 283.534L212.344 333.665C212.321 335.076 211.743 336.423 210.734 337.413C209.724 338.403 208.365 338.958 206.949 338.957H117.188C115.757 338.957 114.385 338.391 113.373 337.382C112.361 336.373 111.793 335.005 111.793 333.579L154.841 333.549Z" fill="black"/>
<path d="M190.991 304.705C190.306 306.974 191.353 309.298 193.332 309.895C195.312 310.492 197.468 309.131 198.155 306.861C198.843 304.592 197.791 302.265 195.814 301.671C193.837 301.077 191.676 302.432 190.991 304.705Z" fill="white"/>
<path d="M296.824 338.027H80.8807C76.8561 338.027 73.7298 341.792 74.1857 346.095L89.097 487.013H99.8704L90.5347 354.76C90.3701 352.428 92.083 350.441 94.2544 350.441H279.62C282.857 350.441 285.43 353.415 285.185 356.895L275.943 487.836H286.709L301.876 344.108C302.219 340.87 299.858 338.027 296.824 338.027Z" fill="white"/>
<path d="M286.708 488.451H275.943C275.861 488.452 275.779 488.436 275.704 488.403C275.628 488.371 275.56 488.323 275.504 488.263C275.448 488.203 275.404 488.133 275.377 488.055C275.349 487.978 275.338 487.896 275.344 487.814L284.586 356.873C284.646 356.099 284.547 355.321 284.294 354.587C284.04 353.853 283.638 353.178 283.113 352.605C282.669 352.117 282.128 351.727 281.524 351.459C280.92 351.191 280.267 351.052 279.606 351.051H94.2543C93.8413 351.054 93.4333 351.142 93.0562 351.31C92.6792 351.478 92.3413 351.722 92.064 352.027C91.7335 352.389 91.4805 352.814 91.3205 353.276C91.1605 353.739 91.0968 354.229 91.1334 354.717L100.466 486.972C100.472 487.054 100.462 487.136 100.434 487.213C100.407 487.291 100.364 487.362 100.307 487.421C100.251 487.481 100.184 487.529 100.109 487.562C100.033 487.595 99.9523 487.612 99.8702 487.612H89.1022C88.9536 487.612 88.8103 487.557 88.7001 487.458C88.59 487.359 88.5208 487.222 88.5061 487.074L73.5948 346.157C73.4664 345.018 73.5794 343.866 73.9265 342.774C74.2737 341.682 74.8471 340.675 75.6098 339.818C76.2682 339.068 77.0792 338.466 77.989 338.053C78.8987 337.64 79.8863 337.425 80.8859 337.422H296.824C297.598 337.424 298.364 337.59 299.069 337.91C299.774 338.23 300.403 338.696 300.913 339.277C301.502 339.939 301.945 340.717 302.213 341.56C302.482 342.403 302.57 343.293 302.472 344.172L287.305 487.913C287.29 488.061 287.221 488.198 287.111 488.298C287.001 488.397 286.857 488.452 286.708 488.451ZM276.585 487.257H286.169L301.274 344.062C301.354 343.349 301.284 342.628 301.067 341.944C300.851 341.261 300.493 340.63 300.017 340.092C299.618 339.637 299.126 339.272 298.575 339.021C298.023 338.77 297.425 338.638 296.818 338.635H80.8805C80.0491 338.639 79.2281 338.819 78.4719 339.163C77.7157 339.508 77.0417 340.009 76.4946 340.633C75.8453 341.366 75.3574 342.226 75.0623 343.159C74.7673 344.091 74.6717 345.075 74.7817 346.046L89.6363 486.426H99.2229L89.9357 354.795C89.8859 354.141 89.9713 353.484 90.1866 352.865C90.4019 352.245 90.7425 351.676 91.1873 351.194C91.5759 350.767 92.0493 350.426 92.5773 350.193C93.1053 349.959 93.6765 349.837 94.2543 349.836H279.62C280.443 349.838 281.257 350.012 282.009 350.345C282.761 350.679 283.436 351.165 283.989 351.772C284.627 352.464 285.115 353.281 285.424 354.169C285.732 355.058 285.853 356 285.781 356.938L276.585 487.257Z" fill="black"/>
<path d="M173.439 231.3C173.298 231.301 173.161 231.251 173.053 231.16C172.993 231.11 172.943 231.048 172.907 230.978C172.871 230.908 172.849 230.832 172.842 230.754C172.835 230.676 172.844 230.597 172.868 230.522C172.892 230.448 172.93 230.378 172.981 230.318L175.972 226.768C176.021 226.702 176.082 226.647 176.153 226.605C176.224 226.564 176.303 226.538 176.385 226.528C176.467 226.518 176.55 226.525 176.628 226.548C176.707 226.572 176.78 226.611 176.844 226.664C176.907 226.716 176.958 226.781 176.995 226.855C177.032 226.928 177.053 227.008 177.058 227.09C177.062 227.172 177.05 227.254 177.021 227.331C176.993 227.408 176.949 227.478 176.892 227.538L173.898 231.087C173.841 231.154 173.771 231.207 173.692 231.244C173.613 231.281 173.526 231.3 173.439 231.3Z" fill="black"/>
<path d="M166.467 239.568C166.352 239.568 166.241 239.536 166.144 239.475C166.048 239.414 165.971 239.326 165.923 239.223C165.875 239.12 165.857 239.005 165.872 238.893C165.887 238.78 165.934 238.674 166.008 238.587L168.999 235.037C169.105 234.927 169.249 234.861 169.401 234.852C169.554 234.844 169.704 234.894 169.821 234.992C169.938 235.09 170.013 235.228 170.031 235.379C170.05 235.531 170.01 235.683 169.919 235.806L166.925 239.356C166.869 239.422 166.798 239.476 166.719 239.512C166.64 239.549 166.554 239.568 166.467 239.568Z" fill="black"/>
<path d="M169.086 231.672C168.945 231.672 168.81 231.622 168.703 231.532L165.139 228.547C165.018 228.445 164.942 228.299 164.928 228.141C164.914 227.983 164.964 227.826 165.067 227.705C165.169 227.584 165.315 227.508 165.474 227.494C165.632 227.481 165.789 227.53 165.911 227.632L169.474 230.618C169.568 230.696 169.636 230.803 169.668 230.921C169.699 231.04 169.694 231.165 169.651 231.281C169.609 231.396 169.532 231.495 169.43 231.565C169.329 231.635 169.209 231.672 169.086 231.672Z" fill="black"/>
<path d="M177.377 238.619C177.236 238.619 177.1 238.57 176.992 238.479L173.431 235.494C173.31 235.391 173.235 235.244 173.223 235.086C173.211 234.928 173.262 234.771 173.365 234.651C173.468 234.53 173.616 234.456 173.774 234.443C173.933 234.431 174.09 234.482 174.211 234.585L177.771 237.567C177.865 237.647 177.932 237.753 177.963 237.871C177.995 237.989 177.989 238.114 177.947 238.23C177.905 238.345 177.829 238.444 177.728 238.515C177.628 238.585 177.508 238.623 177.385 238.624L177.377 238.619Z" fill="black"/>
<path d="M156.996 216.964C156.143 216.963 155.307 216.731 154.577 216.293C153.847 215.854 153.251 215.225 152.853 214.474C152.258 213.369 152.119 212.076 152.466 210.871C152.812 209.665 153.617 208.642 154.708 208.019C155.244 207.72 155.834 207.531 156.444 207.462C157.054 207.394 157.672 207.448 158.261 207.621C158.864 207.796 159.426 208.09 159.914 208.485C160.401 208.881 160.804 209.37 161.099 209.923C161.694 211.028 161.834 212.32 161.488 213.526C161.142 214.731 160.337 215.755 159.245 216.378C158.559 216.762 157.784 216.964 156.996 216.964ZM155.291 209.052C154.474 209.521 153.872 210.289 153.615 211.193C153.357 212.097 153.463 213.065 153.91 213.893C154.129 214.307 154.43 214.673 154.793 214.969C155.157 215.265 155.577 215.485 156.027 215.616C156.464 215.745 156.922 215.785 157.375 215.734C157.828 215.683 158.265 215.543 158.663 215.321C159.483 214.851 160.087 214.08 160.345 213.172C160.603 212.265 160.495 211.293 160.044 210.464C159.824 210.05 159.524 209.685 159.16 209.389C158.796 209.094 158.377 208.874 157.926 208.743C157.489 208.615 157.03 208.577 156.577 208.63C156.124 208.683 155.687 208.827 155.291 209.052Z" fill="black"/>
<path d="M208.782 224.166C210.814 223.99 212.32 222.225 212.146 220.223C211.972 218.221 210.183 216.74 208.151 216.916C206.12 217.092 204.614 218.857 204.788 220.859C204.962 222.861 206.751 224.342 208.782 224.166Z" fill="black"/>
<path d="M392.813 6.2281C392.735 6.22811 392.657 6.21269 392.584 6.18269C392.512 6.1527 392.446 6.10873 392.39 6.05329L389.773 3.44739C389.661 3.33541 389.597 3.1834 389.597 3.02479C389.597 2.86617 389.66 2.71395 389.772 2.60162C389.884 2.48928 390.037 2.42603 390.196 2.42578C390.355 2.42553 390.508 2.48829 390.62 2.60027L393.237 5.20618C393.32 5.29003 393.377 5.39656 393.4 5.51241C393.423 5.62826 393.411 5.74827 393.366 5.8574C393.32 5.96653 393.244 6.05992 393.146 6.12587C393.047 6.19181 392.932 6.22737 392.813 6.2281Z" fill="black"/>
<path d="M401.971 15.3499C401.812 15.3494 401.659 15.2867 401.545 15.1751L398.929 12.5692C398.825 12.4551 398.769 12.3056 398.773 12.1516C398.776 11.9976 398.839 11.851 398.949 11.7421C399.058 11.6331 399.205 11.5703 399.359 11.5666C399.514 11.5629 399.664 11.6185 399.778 11.722L402.395 14.3279C402.478 14.4118 402.535 14.5183 402.558 14.6342C402.581 14.75 402.569 14.87 402.523 14.9792C402.478 15.0883 402.402 15.1817 402.303 15.2476C402.205 15.3136 402.09 15.3491 401.971 15.3499Z" fill="black"/>
<path d="M390.197 15.3492C390.118 15.3493 390.04 15.3337 389.967 15.3032C389.895 15.2727 389.829 15.228 389.774 15.1717C389.718 15.1163 389.674 15.0504 389.644 14.978C389.614 14.9056 389.598 14.8279 389.598 14.7495C389.598 14.6711 389.614 14.5934 389.644 14.521C389.674 14.4485 389.718 14.3827 389.774 14.3273L392.39 11.7214C392.446 11.6659 392.512 11.622 392.585 11.592C392.658 11.5621 392.736 11.5468 392.815 11.5469C392.893 11.547 392.971 11.5626 393.044 11.5928C393.117 11.6229 393.183 11.6671 393.238 11.7227C393.294 11.7783 393.338 11.8443 393.368 11.9169C393.398 11.9896 393.414 12.0673 393.413 12.1459C393.413 12.2244 393.398 12.3022 393.367 12.3747C393.337 12.4472 393.293 12.513 393.237 12.5685L390.621 15.1744C390.565 15.2298 390.499 15.2738 390.426 15.3038C390.354 15.3338 390.276 15.3492 390.197 15.3492Z" fill="black"/>
<path d="M399.355 6.22684C399.236 6.22664 399.12 6.19147 399.021 6.12573C398.923 6.05998 398.846 5.96661 398.8 5.85737C398.755 5.74813 398.743 5.62791 398.765 5.51181C398.788 5.39571 398.845 5.28893 398.928 5.20492L401.545 2.59901C401.6 2.53888 401.666 2.49046 401.74 2.45669C401.814 2.42291 401.894 2.40449 401.976 2.40252C402.057 2.40055 402.138 2.41509 402.214 2.44525C402.289 2.47542 402.358 2.52058 402.416 2.57799C402.473 2.63541 402.519 2.70388 402.549 2.77927C402.579 2.85466 402.594 2.93539 402.592 3.01657C402.59 3.09774 402.571 3.17767 402.537 3.25151C402.504 3.32535 402.455 3.39156 402.395 3.44613L399.778 6.05204C399.665 6.16325 399.513 6.226 399.355 6.22684Z" fill="black"/>
<path d="M397.056 445.275C396.93 445.276 396.807 445.238 396.703 445.165C396.6 445.092 396.523 444.988 396.483 444.869C396.442 444.75 396.441 444.621 396.478 444.5C396.516 444.38 396.591 444.275 396.692 444.199C421.258 425.587 442.015 402.449 457.837 376.04C457.878 375.973 457.931 375.914 457.994 375.867C458.058 375.821 458.13 375.787 458.206 375.768C458.282 375.749 458.362 375.745 458.44 375.757C458.517 375.768 458.592 375.795 458.66 375.835C458.727 375.876 458.786 375.929 458.833 375.992C458.88 376.055 458.914 376.127 458.933 376.203C458.952 376.279 458.955 376.359 458.944 376.436C458.932 376.514 458.905 376.588 458.865 376.656C442.966 403.197 422.106 426.45 397.418 445.154C397.314 445.233 397.187 445.276 397.056 445.275Z" fill="black"/>
<path d="M438.885 426.74C438.769 426.739 438.655 426.704 438.558 426.64C438.461 426.576 438.385 426.485 438.339 426.378C438.293 426.272 438.278 426.154 438.298 426.04C438.317 425.925 438.369 425.819 438.448 425.734C448.439 415.05 457.443 403.49 465.349 391.193C465.435 391.059 465.571 390.965 465.726 390.932C465.881 390.898 466.044 390.927 466.177 391.013C466.311 391.098 466.405 391.233 466.439 391.388C466.473 391.543 466.444 391.705 466.358 391.838C458.414 404.196 449.366 415.814 439.325 426.549C439.269 426.609 439.201 426.657 439.125 426.69C439.049 426.723 438.968 426.74 438.885 426.74Z" fill="black"/>
<path d="M241.266 455.419C244.198 449.341 244.478 443.218 241.266 437.03L243.572 434.246L319.701 436.333L317.543 456.503L243.429 457.21L241.266 455.419Z" fill="white"/>
<path d="M243.415 457.809C243.275 457.809 243.139 457.76 243.032 457.669L240.874 455.878C240.772 455.793 240.701 455.676 240.673 455.546C240.645 455.416 240.66 455.28 240.718 455.16C243.723 448.926 243.726 443.085 240.718 437.303C240.664 437.2 240.641 437.082 240.654 436.966C240.666 436.85 240.713 436.74 240.788 436.65L243.092 433.864C243.151 433.795 243.225 433.74 243.308 433.703C243.391 433.665 243.481 433.647 243.572 433.649L319.701 435.735C319.784 435.737 319.865 435.757 319.941 435.792C320.016 435.827 320.083 435.877 320.138 435.94C320.192 436.002 320.233 436.075 320.257 436.153C320.282 436.232 320.29 436.315 320.281 436.397L318.123 456.566C318.107 456.713 318.039 456.848 317.93 456.948C317.821 457.047 317.679 457.102 317.532 457.104L243.418 457.812L243.415 457.809ZM242.007 455.257L243.626 456.601L316.995 455.9L319.042 436.903L243.852 434.84L241.983 437.096C244.883 442.924 244.883 449.026 242.007 455.257Z" fill="black"/>
<path d="M369.311 432.023H239.218C238.569 432.045 237.953 432.317 237.501 432.782C237.05 433.248 236.797 433.87 236.797 434.518C236.797 435.165 237.05 435.788 237.501 436.253C237.953 436.719 238.569 436.991 239.218 437.012H306.114C308.015 437.022 309.834 437.784 311.171 439.131C312.509 440.478 313.255 442.3 313.246 444.195V448.229C313.255 450.124 312.509 451.946 311.171 453.293C309.834 454.64 308.015 455.402 306.114 455.412H239.218C238.569 455.433 237.953 455.705 237.501 456.171C237.05 456.636 236.797 457.259 236.797 457.906C236.797 458.554 237.05 459.176 237.501 459.642C237.953 460.107 238.569 460.379 239.218 460.401H369.3C376.562 460.401 382.447 454.484 382.447 447.156V445.273C382.45 437.953 376.572 432.023 369.311 432.023Z" fill="black"/>
<path d="M247.801 490.276H366.565V463.324H247.801C250.919 472.132 251.006 481.703 247.801 490.276Z" fill="white"/>
<path d="M366.565 490.87H247.799C247.702 490.87 247.606 490.847 247.521 490.802C247.435 490.758 247.361 490.693 247.306 490.613C247.251 490.534 247.216 490.443 247.204 490.347C247.192 490.251 247.204 490.154 247.238 490.064C250.35 481.727 250.348 472.314 247.238 463.518C247.203 463.427 247.192 463.33 247.204 463.234C247.216 463.138 247.251 463.046 247.307 462.967C247.362 462.887 247.436 462.823 247.522 462.778C247.609 462.733 247.704 462.71 247.801 462.711H366.568C366.727 462.711 366.88 462.774 366.993 462.887C367.106 462.999 367.169 463.152 367.169 463.311V490.263C367.171 490.342 367.156 490.421 367.126 490.496C367.097 490.57 367.052 490.637 366.996 490.694C366.94 490.75 366.873 490.795 366.799 490.825C366.725 490.856 366.645 490.871 366.565 490.87ZM248.659 489.676H365.972V463.918H248.635C251.475 472.462 251.481 481.544 248.659 489.676Z" fill="black"/>
<path d="M348.293 473.365H258.389C258.236 473.355 258.094 473.287 257.989 473.176C257.885 473.065 257.827 472.918 257.827 472.766C257.827 472.614 257.885 472.468 257.989 472.357C258.094 472.246 258.236 472.178 258.389 472.168H348.293C348.445 472.178 348.588 472.246 348.692 472.357C348.796 472.468 348.854 472.614 348.854 472.766C348.854 472.918 348.796 473.065 348.692 473.176C348.588 473.287 348.445 473.355 348.293 473.365Z" fill="black"/>
<path d="M348.293 480.901H274.425C274.266 480.901 274.113 480.838 274.001 480.726C273.889 480.614 273.826 480.462 273.826 480.304C273.826 480.146 273.889 479.994 274.001 479.882C274.113 479.77 274.266 479.707 274.425 479.707H348.293C348.452 479.707 348.604 479.77 348.716 479.882C348.829 479.994 348.892 480.146 348.892 480.304C348.892 480.462 348.829 480.614 348.716 480.726C348.604 480.838 348.452 480.901 348.293 480.901Z" fill="black"/>
<path d="M352.978 464.609H246.204C245.658 464.609 245.134 464.393 244.747 464.007C244.361 463.622 244.143 463.099 244.143 462.555C244.143 462.01 244.361 461.487 244.747 461.102C245.134 460.716 245.658 460.5 246.204 460.5H380.861C382.044 460.506 383.215 460.745 384.305 461.202C385.396 461.659 386.386 462.326 387.218 463.165C388.05 464.004 388.708 464.997 389.155 466.089C389.602 467.182 389.828 468.351 389.822 469.531V483.725C389.828 484.904 389.602 486.074 389.155 487.166C388.708 488.259 388.049 489.252 387.217 490.091C386.384 490.93 385.394 491.597 384.303 492.054C383.212 492.511 382.042 492.749 380.859 492.755H246.204C245.658 492.755 245.134 492.539 244.747 492.153C244.361 491.768 244.143 491.245 244.143 490.701C244.143 490.156 244.361 489.633 244.747 489.248C245.134 488.862 245.658 488.646 246.204 488.646H352.978C353.814 488.642 354.641 488.473 355.412 488.15C356.183 487.828 356.882 487.357 357.47 486.764C358.058 486.172 358.524 485.47 358.84 484.698C359.156 483.927 359.316 483.1 359.312 482.267V470.988C359.316 470.155 359.156 469.329 358.84 468.557C358.524 467.785 358.058 467.083 357.47 466.491C356.882 465.899 356.183 465.428 355.412 465.105C354.641 464.782 353.814 464.613 352.978 464.609Z" fill="black"/>
<path d="M304.598 443.417H249.722C249.563 443.417 249.411 443.354 249.298 443.242C249.186 443.13 249.123 442.978 249.123 442.82C249.123 442.661 249.186 442.509 249.298 442.398C249.411 442.286 249.563 442.223 249.722 442.223H304.598C304.757 442.223 304.909 442.286 305.021 442.398C305.133 442.509 305.197 442.661 305.197 442.82C305.197 442.978 305.133 443.13 305.021 443.242C304.909 443.354 304.757 443.417 304.598 443.417Z" fill="black"/>
</svg>
