<svg width="568" height="397" viewBox="0 0 568 397" fill="none" xmlns="http://www.w3.org/2000/svg">
<path d="M77.375 288.109H455.254" stroke="#110809" stroke-width="2" stroke-miterlimit="10"/>
<path d="M450.639 380.329C450.607 381.171 450.414 381.953 449.838 382.68C449.053 383.672 447.873 384.369 446.755 384.895C443.663 386.35 440.19 386.885 437.084 388.325C435.119 389.235 432.255 391.87 434.181 394.117C435.514 395.673 438.878 395.533 440.698 395.403C447.135 394.94 453.547 394.14 459.899 393.006C460.485 392.901 461.1 392.779 461.55 392.391C462.242 391.793 462.331 390.772 462.365 389.859C462.539 385.283 462.601 380.703 462.552 376.124C462.504 371.7 461.438 369.864 457.039 368.444C455.563 367.969 453.861 367.596 452.533 368.398C451.48 369.034 450.938 370.267 450.67 371.469C450.244 373.373 450.348 375.352 450.454 377.3C450.511 378.386 450.675 379.395 450.639 380.329Z" fill="#FFBF00"/>
<path d="M520.31 287.343C520.008 284.591 517.006 283.449 514.613 282.309C508.963 279.62 502.414 278.8 496.294 280.141C489.178 281.701 483.061 285.903 476.189 288.146C466.957 291.159 457.908 294.251 449.028 298.418C446.312 299.691 443.77 301.332 441.576 303.376C439.17 305.615 437.201 307.95 436.626 311.31C435.902 315.535 436.743 319.899 437.583 324.042C438.52 328.662 439.592 333.287 440.358 337.976L446.604 376.207C446.739 377.034 447.538 377.58 448.358 377.405L466.395 373.541C467.199 373.369 467.705 372.569 467.514 371.77C466.796 368.77 466.206 365.711 466.574 362.663C466.793 360.854 467.346 359.09 467.437 357.27C467.637 353.322 465.672 349.296 466.83 345.517C467.15 344.474 467.698 343.504 467.929 342.438C468.175 341.304 468.048 340.125 467.905 338.974C467.6 336.533 467.225 334.099 466.78 331.681C466.445 329.864 465.309 327.24 465.57 325.414C466.099 321.698 472.338 322.998 475.076 322.927C478.6 322.837 482.125 322.746 485.638 322.446C492.714 321.843 499.731 320.327 505.979 316.834C509.434 314.906 511.292 310.536 513.016 307.161C515.115 303.052 516.762 298.717 518.138 294.317C518.795 292.206 520.561 289.626 520.31 287.343Z" fill="black"/>
<path d="M218.727 292.434H359.042" stroke="#110809" stroke-miterlimit="10"/>
<path d="M106.657 292.434H148.545" stroke="#110809" stroke-miterlimit="10"/>
<path d="M104.863 26.3123L154.02 100.748C155.15 102.46 154.678 104.763 152.967 105.894L152.644 106.107C150.932 107.237 148.628 106.766 147.498 105.055L98.3409 30.6194C97.2104 28.9072 97.6822 26.6039 99.3931 25.4734L99.7165 25.26C101.427 24.1296 103.732 24.6001 104.863 26.3123Z" fill="white" stroke="black" stroke-miterlimit="10"/>
<path d="M191.827 159.151C210.329 144.802 213.696 118.172 199.348 99.6699C185 81.1679 158.369 77.8007 139.867 92.149C121.365 106.497 117.998 133.128 132.346 151.63C146.695 170.132 173.325 173.499 191.827 159.151Z" fill="black"/>
<path d="M198.348 131.849C201.768 113.904 189.993 96.585 172.049 93.1652C154.104 89.7454 136.784 101.52 133.364 119.465C129.945 137.41 141.72 154.729 159.664 158.149C177.609 161.569 194.929 149.794 198.348 131.849Z" fill="white" stroke="black" stroke-miterlimit="10"/>
<path d="M191.331 128.418C189.799 142.486 177.153 152.649 163.086 151.117" stroke="black" stroke-width="2" stroke-miterlimit="10"/>
<path opacity="0.18" d="M268.506 191.673C273.234 191.673 277.266 187.937 277.298 183.209C277.298 183.177 277.298 183.144 277.298 183.112V145.183C277.298 137.364 271.18 130.635 263.362 130.513C255.437 130.39 248.975 136.777 248.975 144.673V183.112C248.975 183.144 248.975 183.177 248.975 183.209C249.007 187.937 253.037 191.673 257.767 191.673H268.506Z" fill="#FFC200"/>
<path d="M271.128 185.644C272.414 183.783 273.187 181.468 273.187 178.949V148.89C273.187 142.774 268.687 137.816 263.137 137.816C257.587 137.816 253.088 142.774 253.088 148.89V178.949C253.088 181.468 253.86 183.783 255.146 185.644H271.128Z" fill="#FFBF00"/>
<path d="M263.617 185.453H262.655C260.33 185.453 258.446 183.568 258.446 181.244C258.446 173.539 258.505 165.864 258.048 158.171C257.974 156.915 257.91 155.597 258.446 154.459C258.635 154.056 258.974 153.644 259.42 153.66C259.775 153.672 260.065 153.96 260.232 154.273C260.501 154.777 260.551 155.393 260.366 155.932C260.322 156.058 260.257 156.191 260.134 156.241C259.8 156.379 259.618 155.85 259.648 155.49C259.677 155.12 259.71 154.738 259.881 154.41C260.685 152.862 262.608 153.929 262.859 155.227C262.974 155.826 262.71 156.924 262.063 156.114C261.665 155.614 262.154 154.495 262.513 154.117C263.089 153.513 264.12 153.371 264.792 153.868C265.464 154.363 265.606 155.469 265.025 156.069C264.906 156.192 264.707 156.294 264.571 156.19C264.522 156.151 264.493 156.093 264.469 156.035C264.136 155.225 264.554 154.192 265.349 153.827C266.216 153.428 267.253 153.845 267.569 154.746C267.724 155.188 267.684 155.693 267.463 156.103C267.363 156.289 267.188 156.473 266.98 156.447C266.758 156.419 266.637 156.168 266.608 155.946C266.555 155.539 266.685 155.112 266.954 154.802C267.07 154.668 267.239 154.549 267.412 154.585C267.542 154.613 267.642 154.723 267.689 154.846C267.738 154.969 267.744 155.104 267.748 155.237C267.9 160.878 267.899 166.552 267.863 172.213C267.844 175.223 267.823 178.233 267.823 181.243C267.826 183.568 265.941 185.453 263.617 185.453Z" stroke="black" stroke-miterlimit="10"/>
<path d="M266.295 186.508H259.976V197.538H266.295V186.508Z" fill="#FFBF00"/>
<path d="M270.616 188.125H255.656C254.976 188.125 254.426 187.574 254.426 186.895V186.675C254.426 185.995 254.977 185.445 255.656 185.445H270.616C271.295 185.445 271.845 185.997 271.845 186.675V186.895C271.845 187.575 271.295 188.125 270.616 188.125Z" fill="black"/>
<path d="M270.616 190.812H255.656C254.976 190.812 254.426 190.263 254.426 189.583V189.363C254.426 188.683 254.977 188.133 255.656 188.133H270.616C271.295 188.133 271.845 188.683 271.845 189.363V189.583C271.845 190.263 271.295 190.812 270.616 190.812Z" fill="black"/>
<path d="M155.626 261.021C155.626 269.612 153.326 276.182 148.733 280.735C144.137 285.29 137.974 287.564 130.244 287.564H101.382V197.887H128.827C137.332 197.887 143.709 200.076 147.96 204.457C152.212 208.839 154.339 214.81 154.339 222.367C154.339 226.149 153.544 229.627 151.955 232.805C150.364 235.983 147.51 238.518 143.387 240.407V241.051C145.534 241.74 147.381 242.747 148.928 244.079C150.474 245.411 151.74 246.977 152.729 248.782C153.715 250.585 154.446 252.541 154.919 254.644C155.388 256.749 155.626 258.874 155.626 261.021ZM139.907 222.884C139.907 219.275 138.94 216.441 137.007 214.378C135.075 212.318 131.96 211.287 127.665 211.287H116.069V234.737H127.794C132.001 234.737 135.073 233.643 137.006 231.452C138.94 229.261 139.907 226.407 139.907 222.884ZM141.196 260.182C141.196 256.387 140.25 253.321 138.361 250.99C136.471 248.659 133.336 247.493 128.954 247.493H116.07V273.65H129.084C131.404 273.65 133.336 273.305 134.882 272.613C136.429 271.923 137.673 270.953 138.618 269.701C139.563 268.449 140.229 267.002 140.616 265.363C141.003 263.724 141.196 261.997 141.196 260.182Z" fill="black"/>
<path d="M208.452 287.564L195.052 250.198H183.585V287.564H168.897V197.887H197.758C201.451 197.887 204.887 198.425 208.066 199.497C211.243 200.572 213.972 202.183 216.249 204.329C218.524 206.477 220.308 209.161 221.596 212.383C222.884 215.603 223.528 219.361 223.528 223.657C223.528 229.325 222.325 234.222 219.921 238.345C217.516 242.469 213.949 245.604 209.226 247.751L224.558 287.565H208.452V287.564ZM209.096 223.657C209.096 219.449 208.021 216.334 205.876 214.315C203.728 212.298 200.636 211.287 196.599 211.287H183.585V236.928H196.469C200.335 236.928 203.404 235.813 205.681 233.578C207.956 231.345 209.096 228.037 209.096 223.657Z" fill="#FFBF00"/>
<path d="M275.066 268.236H250.198C250.026 269.01 249.683 270.298 249.169 272.102C248.653 273.906 248.116 275.838 247.558 277.9C246.999 279.962 246.484 281.894 246.012 283.698C245.539 285.502 245.174 286.791 244.917 287.564H229.585L255.484 197.887H269.656L295.684 287.564H280.094L275.066 268.236ZM258.059 237.056L253.42 255.096H271.715L267.207 237.186C267.033 236.412 266.756 235.124 266.369 233.319C265.982 231.517 265.552 229.627 265.08 227.65C264.607 225.675 264.156 223.808 263.728 222.046C263.297 220.286 263.039 219.017 262.954 218.246H262.31L258.059 237.056Z" fill="black"/>
<path d="M350.182 287.565L329.052 249.04L319.645 230.614L319.258 230.743V287.564H304.442V197.887H317.97L337.813 234.48L348.378 254.579L348.894 254.452V197.887H363.583V287.564H350.182V287.565Z" fill="black"/>
<path d="M406.616 197.887C412.627 197.887 417.781 199.004 422.078 201.237C426.372 203.471 429.506 207.164 431.483 212.318C432.685 215.497 433.394 219.426 433.609 224.107C433.822 228.789 433.931 234.093 433.931 240.02C433.931 247.322 433.887 253.572 433.803 258.767C433.716 263.966 432.985 268.411 431.612 272.103C430.495 275.112 429.036 277.602 427.232 279.576C425.427 281.554 423.366 283.12 421.047 284.28C418.728 285.439 416.192 286.277 413.445 286.793C410.694 287.308 407.859 287.565 404.941 287.565H379.171V197.888H406.616V197.887ZM419.113 231.258C419.113 225.161 418.038 220.35 415.893 216.828C413.745 213.306 409.921 211.545 404.425 211.545H393.989V273.907H404.554C410.05 273.907 413.851 272.47 415.956 269.591C418.061 266.713 419.113 262.698 419.113 257.542V231.258Z" fill="black"/>
<path d="M401.92 298.599C405.208 298.145 408.306 296.926 411.565 296.607C417.248 296.049 423.918 293.654 428.571 290.343C430.724 288.811 432.244 286.729 434.227 285.054C435.711 283.801 437.567 282.931 439.144 281.719C443.077 278.694 446.695 275.211 449.747 271.294C452.836 267.329 454.683 262.409 454.966 257.392C455.079 255.405 454.928 253.323 453.935 251.598C451.188 246.828 444.927 249.587 441.185 251.536C436.895 253.767 433.199 257.155 430.647 261.266C430.483 261.532 430.323 261.801 430.166 262.073C428.869 264.346 427.83 266.954 425.967 268.849C424.446 270.397 422.058 271.759 421.005 273.626C419.527 276.245 418.411 278.277 415.741 279.874C412.512 281.805 408.668 282.274 405.433 284.226C402.438 286.034 399.545 287.897 396.511 289.679C393.725 291.315 391.457 293.821 388.46 295.026C386.466 295.827 384.248 296.006 382.316 296.95C379.693 298.209 378.588 302.622 377.951 305.189C377.857 305.567 377.762 305.958 377.829 306.341C378.269 308.881 381.558 307.557 382.719 306.322C383.604 305.38 383.447 304.244 384.252 303.293C385.136 302.246 386.879 301.876 388.169 301.777C390.106 301.628 392.151 301.856 393.903 301.017C394.779 300.598 395.52 299.934 396.394 299.513C397.724 298.873 399.25 298.837 400.723 298.728C401.126 298.697 401.525 298.654 401.92 298.599Z" fill="#ED926E"/>
<path d="M341.508 187.031C339.315 191.039 342.739 193.929 345.593 196.62C346.373 197.355 347.214 198.055 348.2 198.476C349.907 199.207 351.847 199.033 353.692 198.829C366.939 197.359 380.442 195.573 393.474 192.772C396.539 192.114 399.572 191.308 402.626 190.619C406.6 189.72 410.744 187.987 414.535 186.475C418.391 184.936 421.997 182.771 425.157 180.078C425.211 180.031 425.265 179.981 425.32 179.933C425.865 179.602 426.34 179.208 426.725 178.535C428.363 176.666 429.49 174.342 428.549 172.166C427.464 169.66 424.294 168.945 421.571 168.729C413.444 168.085 405.302 168.961 397.269 170.169C391.851 170.984 386.487 172.137 381.046 172.807C375.513 173.49 370.239 172.876 364.738 173.002C355.222 173.222 346.087 178.664 341.508 187.031Z" fill="black"/>
<path d="M365.103 167.246C362.585 166.252 358.9 166.674 356.813 164.902C354.45 162.895 352.914 159.356 351.629 156.615C350.804 154.852 347.734 152.784 347.325 151.195C347.139 150.47 347.717 149.802 348.049 149.13C348.682 147.848 348.451 146.254 349.151 145.007C349.844 143.773 351.27 143.174 352.288 142.191C353.087 141.419 353.623 140.42 354.126 139.429C355.909 135.917 358.505 131.96 359.108 128.061C359.442 125.898 359.468 123.63 358.704 121.58C357.745 119.01 355.053 116.288 352.214 117.473C349.39 118.651 347.216 120.932 344.925 122.88C342.101 125.28 338.972 127.654 337.503 131.18C336.724 133.052 336.487 135.102 335.871 137.033C335.215 139.086 334.14 140.977 333.351 142.982C332.577 144.947 332.08 147.021 331.879 149.125C331.785 150.104 331.758 151.115 332.072 152.048C332.433 153.115 333.205 153.986 333.973 154.81C337.661 158.769 341.466 162.56 345.92 165.657C347.175 166.529 348.467 167.36 349.865 167.978C352.633 169.198 353.699 171.449 356.469 172.692C358.775 173.727 361.239 174.476 363.764 174.6C365.636 174.692 368.682 174.256 368.861 171.999C369.032 169.866 366.867 167.942 365.103 167.246Z" fill="#ED926E"/>
<path d="M417.307 155.131C415.932 157.151 413.912 158.827 412.03 160.508C410.164 162.172 408.18 163.741 405.924 164.819C404.066 165.705 402.059 166.243 400.195 167.117C397.974 168.157 395.999 169.652 393.853 170.837C392.481 171.594 388.02 173.868 386.704 172.194C385.487 170.646 388.214 168.128 389.337 167.423C392.515 165.424 394.992 162.189 396.801 158.913C397.437 157.762 397.995 156.565 398.683 155.444C400.484 152.508 403.184 150.131 406.325 148.717C404.168 146.337 402.545 143.477 401.607 140.406C397.844 138.495 395.037 134.803 394.201 130.667C393.565 127.522 393.807 122.072 397.695 121.176C401.244 120.359 406.189 121.612 408.89 123.931C411.819 126.447 413.428 130.193 414.274 133.961C414.604 135.432 414.834 136.928 415.26 138.374C416.389 142.215 418.891 145.718 418.992 149.72C419.042 151.828 418.363 153.58 417.307 155.131Z" fill="#ED926E"/>
<path d="M405.849 120.258C404.084 118.753 402.239 117.347 400.247 116.159C396.948 114.194 393.198 112.847 389.359 112.866C387.27 112.876 384.899 112.501 382.859 112.888C380.612 113.314 378.528 114.301 376.201 114.375C372.298 114.499 368.479 113.273 364.703 112.623C360.864 111.962 356.524 113.525 353.23 115.368C349.63 117.384 342.273 122.206 339.562 125.326C342.997 130.935 350.217 134.262 353.091 140.234C353.7 139.916 354.275 139.537 354.806 139.102C354.731 144.875 354.757 150.649 354.883 156.422C355.006 162.053 354.721 168.093 355.599 173.652C356.465 172.841 358.005 173.179 359.097 173.167C360.816 173.148 362.536 173.142 364.255 173.137C367.48 173.129 370.705 173.109 373.93 173.109C378.532 173.07 383.147 173.052 387.71 172.413C390.097 172.078 392.456 171.74 394.833 171.778C396.086 167.442 395.646 162.222 395.769 157.912C395.876 154.12 395.79 150.326 395.63 146.538C395.548 144.596 395.479 142.645 395.338 140.705C395.267 139.726 394.551 137.664 395.285 136.953C396.151 137.619 396.881 138.551 397.638 139.35C401.415 133.942 405.283 128.597 409.24 123.318C408.132 122.275 407.007 121.246 405.849 120.258Z" fill="black"/>
<path d="M370.733 200.167C369.88 201.021 351.92 204.962 351.92 204.962L351.074 195.834L367.785 189.852L370.733 200.167Z" fill="#ED926E"/>
<path d="M416.176 189.262C418.274 188.062 420.371 186.858 422.63 186.007C425.023 185.106 427.676 184.553 429.52 182.78C431.472 180.903 432.088 178.069 432.61 175.411C433.191 172.461 433.18 169.143 432.369 166.231C431.212 162.083 427.857 158.6 423.621 157.639C421.07 157.062 418.321 157.398 415.986 158.576C414.265 159.444 412.788 160.737 411.087 161.644C409.667 162.402 408.118 162.877 406.618 163.461C402.061 165.236 397.868 167.889 393.72 170.399C389.548 172.922 385.814 176.09 381.781 178.816C380.188 179.892 363.455 188.015 363.458 188.02C365.627 192.852 367.522 197.82 369.508 202.746C380.328 201.282 390.756 197.877 401.28 195.051C403.367 194.49 405.306 193.651 407.396 193.175C409.755 192.637 411.964 191.597 414.078 190.443C414.78 190.06 415.479 189.661 416.176 189.262Z" fill="black"/>
<path d="M351.311 205.916C348 206.572 344.676 205.863 341.104 205.479C338.32 205.178 335.464 205.691 332.697 205.266C329.002 204.696 326.13 202.082 325.857 198.387C325.704 196.309 325.628 193.985 326.998 192.416C328.12 191.13 329.976 190.703 331.676 190.858C333.377 191.014 334.983 191.664 336.597 192.22C339.357 193.168 342.199 193.85 345.051 194.457C347.361 194.948 349.349 196.096 351.639 194.962C351.762 194.901 351.901 194.834 352.03 194.879C352.169 194.928 352.234 195.083 352.283 195.221C353.099 197.517 353.835 199.84 354.485 202.187C354.823 203.406 355.385 204.113 354.385 204.869C353.597 205.463 352.263 205.728 351.311 205.916Z" fill="#FFBF00"/>
<path d="M387.103 200.167C387.957 201.021 405.917 204.962 405.917 204.962L406.762 195.834L390.052 189.852L387.103 200.167Z" fill="#ED926E"/>
<path d="M341.051 190.329C337.592 189.022 334.234 187.489 331.063 185.578C329.996 184.935 328.933 184.233 328.172 183.247C327.093 181.851 326.733 180.048 326.404 178.314C325.177 171.857 323.438 166.937 328.119 161.453C331.929 156.988 338.044 155.254 343.226 158.481C346.592 160.577 348.85 164.375 352.589 165.695C354.603 166.407 356.903 166.265 358.85 167.166C360.64 167.994 362.408 169.367 364.117 170.401C368.289 172.924 372.024 176.092 376.057 178.818C377.65 179.894 394.383 188.016 394.38 188.022C392.211 192.854 390.315 197.822 388.33 202.748C377.509 201.284 367.082 197.879 356.558 195.052C351.348 193.651 346.091 192.232 341.051 190.329Z" fill="black"/>
<path d="M406.525 205.918C409.837 206.574 413.161 205.865 416.732 205.481C419.517 205.18 422.372 205.693 425.14 205.268C428.64 204.728 432.629 201.256 432.786 197.544C432.835 196.386 432.532 195.235 432.093 194.162C431.863 193.596 431.591 193.042 431.215 192.561C430.364 191.48 429.012 190.857 427.643 190.729C425.546 190.535 423.443 191.213 421.458 191.794C419.409 192.393 417.523 192.715 415.542 193.571C412.997 194.669 410.151 195.062 407.405 194.692C406.689 194.595 405.95 194.451 405.258 194.652C403.703 195.105 403.86 197.449 403.74 198.731C403.56 200.664 403.467 202.648 402.687 204.454C403.972 205.211 405.249 205.667 406.525 205.918Z" fill="#FFBF00"/>
<path d="M383.283 112.836C382.772 112.84 382.256 112.794 381.795 112.579C380.947 112.183 380.773 111.315 380.678 110.469C380.557 109.393 380.544 108.306 380.641 107.227C380.669 106.92 380.706 106.611 380.71 106.302C380.727 104.378 380.889 102.194 381.42 100.343C383.378 100.291 383.462 98.8636 383.592 97.2044C383.632 96.6968 383.635 96.1349 383.306 95.7452C382.977 95.3569 382.203 95.3675 382.069 95.8579C382.149 94.5101 382.195 93.1609 382.209 91.8105C382.221 90.6217 382.448 89.7153 381.286 89.0844C379.415 88.0706 377.147 87.9964 375.072 88.4642C373.429 88.8339 370.892 89.5403 369.629 90.7158C368.236 92.0119 368.475 93.874 367.971 95.5279C367.949 95.6008 367.922 95.6776 367.86 95.7214C367.786 95.7731 367.685 95.7598 367.595 95.7532C366.886 95.7068 366.266 96.3244 366.085 97.0122C365.905 97.7 366.067 98.4289 366.279 99.1061C366.415 99.5408 366.586 99.9888 366.932 100.284C367.279 100.58 367.852 100.657 368.174 100.336C368.801 101.738 369.326 103.326 369.71 104.821C369.785 105.112 369.927 105.376 369.987 105.669C370.074 106.102 370.052 106.59 370.06 107.03C370.084 108.48 369.88 109.804 369.609 111.224C369.53 111.646 369.441 112.086 369.171 112.418C368.679 113.025 367.783 113.069 367.001 113.061C367.454 113.879 367.603 114.768 368.15 115.558C369.049 116.854 370.434 117.971 372.036 118.182C374.374 118.49 376.808 118.588 379.031 117.803C380.107 117.423 381.111 116.82 381.92 116.011C382.842 115.089 383.302 114.074 383.592 112.828C383.49 112.833 383.387 112.836 383.283 112.836Z" fill="#ED926E"/>
<path d="M396.682 177.95H352.13C350.915 177.95 349.93 176.966 349.93 175.75V149.436C349.93 148.22 350.915 147.234 352.13 147.234H396.682C397.897 147.234 398.882 148.219 398.882 149.436V175.75C398.883 176.966 397.897 177.95 396.682 177.95Z" fill="white" stroke="black" stroke-miterlimit="10"/>
<path d="M377.287 161.63C377.287 163.22 375.997 164.51 374.407 164.51C372.817 164.51 371.527 163.22 371.527 161.63C371.527 160.039 372.817 158.75 374.407 158.75C375.997 158.75 377.287 160.039 377.287 161.63Z" fill="black"/>
<path d="M382.757 87.6068C382.571 87.3298 382.355 87.0528 382.306 86.7228C382.274 86.5068 382.317 86.2881 382.316 86.0708C382.312 85.6719 382.156 85.2929 381.991 84.9284C381.809 84.5229 381.615 84.1213 381.411 83.7264C381.204 83.3275 380.98 82.9246 380.648 82.6211C380.169 82.1838 379.505 81.9916 378.857 81.981C378.005 81.9664 377.152 82.2487 376.476 82.7682C376.082 83.0717 375.748 83.4521 375.333 83.7264C374.66 84.1717 373.836 84.3016 373.051 84.4937C371.857 84.7866 370.703 85.2451 369.633 85.8534C369.192 86.1039 368.76 86.3849 368.418 86.7599C367.734 87.5074 367.497 88.5239 367.4 89.5059C367.166 91.8861 367.219 94.4041 367.578 96.8148C367.929 99.1645 368.381 101.826 369.807 103.776C371.043 105.469 373.116 106.386 375.194 106.34C381.483 106.199 382.571 97.8723 383.5 93.1928C383.873 91.3136 383.863 89.2475 382.757 87.6068ZM376.543 102.707C375.455 103.184 374.427 103.287 373.348 102.751C372.639 102.398 373.23 101.174 373.942 101.502C374.66 101.832 375.17 101.82 375.897 101.472C376.71 101.081 377.36 102.349 376.543 102.707ZM381.139 96.9791C380.96 97.9916 380.677 98.9856 380.43 99.9848C380.283 100.355 380.129 100.718 379.96 101.069C378.607 99.6615 376.018 99.6389 374.205 99.8059C373.23 99.896 370.671 100.139 369.937 101.144C368.494 98.3587 368.104 94.6069 369.063 92.3128C369.281 91.7933 369.69 91.3745 370.154 91.0551C371.654 90.0214 373.609 90.0055 375.431 90.0267C376.606 90.0413 377.78 90.0546 378.955 90.0691C380.385 90.0864 381.339 90.6788 381.618 91.9219C381.504 93.6116 381.436 95.3013 381.139 96.9791Z" fill="black"/>
<path d="M414.722 152.021C414.52 152.542 414.197 153.113 413.831 153.532C413.587 153.811 413.909 154.32 414.254 154.079C414.954 153.591 415.371 153.081 415.678 152.283C415.908 151.69 414.95 151.431 414.722 152.021Z" fill="black"/>
<path d="M335.113 150.837C334.753 150.554 334.382 150.405 334.377 149.872C334.372 149.361 333.587 149.36 333.582 149.872C333.575 150.577 334.06 151.477 334.866 151.432C335.134 151.418 335.368 151.04 335.113 150.837Z" fill="black"/>
<path d="M394.049 187.042C394.044 187.026 394.038 187.011 394.034 186.995C393.862 186.469 392.453 185.946 391.979 185.681C391.162 185.225 390.334 184.793 389.501 184.371C387.874 183.546 386.228 182.762 384.614 181.916C381.2 180.127 377.81 178.268 374.343 176.583C374.094 176.463 373.881 176.815 374.125 176.958C377.609 179.011 381.215 180.873 384.785 182.77C386.44 183.648 388.065 184.584 389.721 185.464C390.532 185.896 391.351 186.315 392.183 186.707C392.997 187.091 393.284 187.388 393.206 188.357C393.141 189.155 392.975 189.945 392.714 190.701C392.672 190.825 392.626 190.953 392.641 191.083C392.675 191.349 392.985 191.453 393.144 191.224C393.883 190.162 394.437 188.313 394.049 187.042Z" fill="white"/>
<path d="M241.77 146.778C237.735 146.658 233.731 146.822 229.698 146.493C229.296 146.46 229.304 147.075 229.698 147.116C233.701 147.53 237.836 147.835 241.837 147.279C242.13 147.238 242.045 146.786 241.77 146.778Z" fill="black"/>
<path d="M246.708 131.65C244.716 129.914 242.493 128.443 240.357 126.894C239.991 126.629 239.647 127.233 240.004 127.497C242.105 129.046 244.16 130.703 246.394 132.057C246.64 132.207 246.933 131.846 246.708 131.65Z" fill="black"/>
<path d="M258.858 111.893C258.694 111.375 257.878 111.594 258.039 112.119C258.899 114.926 259.607 117.858 260.794 120.547C260.945 120.889 261.425 120.631 261.363 120.308C260.818 117.452 259.735 114.663 258.858 111.893Z" fill="black"/>
<path d="M277.038 114.493C276.226 117.24 274.819 119.651 273.758 122.285C273.594 122.695 274.189 122.979 274.468 122.699C276.518 120.639 277.51 117.558 278.021 114.765C278.137 114.127 277.226 113.854 277.038 114.493Z" fill="black"/>
<path d="M290.348 130.641C288.107 131.624 285.492 132.748 283.825 134.602C283.541 134.917 283.894 135.328 284.259 135.165C286.544 134.15 288.565 132.56 290.849 131.497C291.429 131.225 290.921 130.388 290.348 130.641Z" fill="black"/>
<path d="M295.582 148.087C292.639 148.863 289.701 148.869 286.728 149.34C286.352 149.399 286.365 150.016 286.728 150.086C289.693 150.665 293.01 149.939 295.879 149.161C296.57 148.974 296.277 147.904 295.582 148.087Z" fill="black"/>
<path d="M278.658 90.1083C303.301 90.1083 323.278 70.131 323.278 45.4878C323.278 20.8445 303.301 0.867188 278.658 0.867188C254.014 0.867188 234.037 20.8445 234.037 45.4878C234.037 70.131 254.014 90.1083 278.658 90.1083Z" fill="black"/>
<path d="M290.25 77.3899C307.877 70.996 316.984 51.5229 310.59 33.8955C304.196 16.2682 284.723 7.16167 267.095 13.5556C249.468 19.9495 240.361 39.4226 246.755 57.05C253.149 74.6773 272.622 83.7838 290.25 77.3899Z" fill="white" stroke="black" stroke-miterlimit="10"/>
<path d="M286.748 65.2146C297.655 60.7479 302.875 48.2851 298.408 37.3782C293.941 26.4712 281.478 21.2503 270.572 25.717C259.666 30.1837 254.446 42.6465 258.913 53.5535C263.38 64.4605 275.842 69.6813 286.748 65.2146Z" fill="black"/>
<path d="M290.136 47.3595C291.169 41.0146 286.862 35.0341 280.517 34.0017C274.172 32.9692 268.192 37.2759 267.159 43.6208C266.127 49.9658 270.433 55.9463 276.778 56.9787C283.123 58.0112 289.104 53.7045 290.136 47.3595Z" fill="#FFBF00"/>
<path d="M346.693 34.1758L277.436 45.9071" stroke="black" stroke-width="2" stroke-miterlimit="10"/>
<path d="M282.257 39.3359L277.641 45.8682L284.173 50.4841" stroke="black" stroke-width="2" stroke-miterlimit="10"/>
<path d="M334.587 30.5156L329.971 37.0466L336.503 41.6638" stroke="black" stroke-width="2" stroke-miterlimit="10"/>
<path d="M340.16 29.5586L335.545 36.0909L342.077 40.7068" stroke="black" stroke-width="2" stroke-miterlimit="10"/>
<path d="M345.736 28.6016L341.119 35.1338L347.651 39.7497" stroke="black" stroke-width="2" stroke-miterlimit="10"/>
<path d="M177.901 21.8747C175.785 19.4547 172.628 17.9877 169.168 18.1533C164.42 18.3799 159.826 21.5911 159.441 25.9936C154.794 27.3202 151.291 31.63 151.531 36.666C151.679 39.7778 153.15 42.5131 155.373 44.3579C154.811 45.9549 154.864 47.8328 155.89 49.7041C156.438 50.706 157.306 51.5184 158.34 52.0061C160.234 52.898 162.022 52.8529 163.53 52.2645L163.651 60.9583C163.658 61.4804 164.33 61.6845 164.627 61.2565L169.174 54.6924C173.412 56.4272 177.215 53.8257 177.498 49.9757C178.625 50.5363 179.901 50.8319 181.246 50.7683C185.133 50.5827 188.196 47.5227 188.494 43.743C190.618 45.0073 193.39 45.2763 196.142 43.898C197.668 43.1347 198.866 41.8107 199.469 40.2164C201.598 34.584 197.467 29.4619 192.284 29.5414" fill="white"/>
<path d="M177.901 21.8747C175.785 19.4547 172.628 17.9877 169.168 18.1533C164.42 18.3799 159.826 21.5911 159.441 25.9936C154.794 27.3202 151.291 31.63 151.531 36.666C151.679 39.7778 153.15 42.5131 155.373 44.3579C154.811 45.9549 154.864 47.8328 155.89 49.7041C156.438 50.706 157.306 51.5184 158.34 52.0061C160.234 52.898 162.022 52.8529 163.53 52.2645L163.651 60.9583C163.658 61.4804 164.33 61.6845 164.627 61.2565L169.174 54.6924C173.412 56.4272 177.215 53.8257 177.498 49.9757C178.625 50.5363 179.901 50.8319 181.246 50.7683C185.133 50.5827 188.196 47.5227 188.494 43.743C190.618 45.0073 193.39 45.2763 196.142 43.898C197.668 43.1347 198.866 41.8107 199.469 40.2164C201.598 34.584 197.467 29.4619 192.284 29.5414" stroke="black" stroke-miterlimit="10"/>
<path d="M160.98 40.1758C158.474 40.2951 156.383 41.8721 155.485 44.0482L160.98 40.1758Z" fill="white"/>
<path d="M160.98 40.1758C158.474 40.2951 156.383 41.8721 155.485 44.0482" stroke="black" stroke-miterlimit="10"/>
<path d="M188.436 43.1035C188.234 38.8865 184.653 35.6316 180.436 35.8331L188.436 43.1035Z" fill="white"/>
<path d="M188.436 43.1035C188.234 38.8865 184.653 35.6316 180.436 35.8331" stroke="black" stroke-miterlimit="10"/>
<path d="M195.601 30.1634C193.004 29.1257 190.5 29.4279 188.553 30.5623L195.601 30.1634Z" fill="white"/>
<path d="M195.601 30.1634C193.004 29.1257 190.5 29.4279 188.553 30.5623" stroke="black" stroke-miterlimit="10"/>
<path d="M192.286 29.0311C192.043 23.9513 187.728 20.0299 182.648 20.2724C177.568 20.5149 173.647 24.83 173.889 29.9098" fill="white"/>
<path d="M192.286 29.0311C192.043 23.9513 187.728 20.0299 182.648 20.2724C177.568 20.5149 173.647 24.83 173.889 29.9098" stroke="black" stroke-miterlimit="10"/>
<path d="M184.256 23.6797C180.868 23.8414 178.255 26.7185 178.417 30.1046L184.256 23.6797Z" fill="white"/>
<path d="M184.256 23.6797C180.868 23.8414 178.255 26.7185 178.417 30.1046" stroke="black" stroke-miterlimit="10"/>
<path d="M178.879 47.0245C181.866 47.3081 184.518 45.1161 184.8 42.1289L178.879 47.0245Z" fill="white"/>
<path d="M178.879 47.0245C181.866 47.3081 184.518 45.1161 184.8 42.1289" stroke="black" stroke-miterlimit="10"/>
<path d="M195.98 39.0698C196.864 36.5187 195.514 33.7329 192.963 32.8477L195.98 39.0698Z" fill="white"/>
<path d="M195.98 39.0698C196.864 36.5187 195.514 33.7329 192.963 32.8477" stroke="black" stroke-miterlimit="10"/>
<path d="M158.637 46.2344C159.269 48.1838 161.361 49.252 163.311 48.6199L158.637 46.2344Z" fill="white"/>
<path d="M158.637 46.2344C159.269 48.1838 161.361 49.252 163.311 48.6199" stroke="black" stroke-miterlimit="10"/>
<path d="M167.564 27.4903C165.311 25.9397 162.476 25.3738 159.584 25.9622L167.564 27.4903Z" fill="white"/>
<path d="M167.564 27.4903C165.311 25.9397 162.476 25.3738 159.584 25.9622" stroke="black" stroke-miterlimit="10"/>
<path d="M157.847 30.6719C156.335 31.7917 155.344 33.5769 155.31 35.6032L157.847 30.6719Z" fill="white"/>
<path d="M157.847 30.6719C156.335 31.7917 155.344 33.5769 155.31 35.6032" stroke="black" stroke-miterlimit="10"/>
<path d="M412.463 55.2984H420.561C421.499 55.2984 422.261 54.5377 422.261 53.598V26.7745C422.261 25.8363 421.5 25.0742 420.561 25.0742H381.647C380.709 25.0742 379.947 25.8349 379.947 26.7745V31.845" fill="black"/>
<path d="M411.493 32.6289H377.113C376.174 32.6289 375.413 33.3896 375.413 34.3292V58.1311C375.413 59.0694 376.174 59.8314 377.113 59.8314H379.509C379.75 59.8314 379.947 60.0276 379.947 60.2688V69.5019C379.947 69.8677 380.371 70.0718 380.657 69.8439L393.063 59.9282C393.14 59.8659 393.236 59.8328 393.336 59.8328H411.493C412.433 59.8328 413.194 59.072 413.194 58.1324V34.3306C413.194 33.3909 412.432 32.6289 411.493 32.6289Z" fill="white" stroke="black" stroke-miterlimit="10"/>
<path d="M378.951 40.6523H406.74" stroke="black" stroke-miterlimit="10"/>
<path d="M378.951 44.8242H406.74" stroke="black" stroke-miterlimit="10"/>
<path d="M378.951 49.6914H406.74" stroke="black" stroke-miterlimit="10"/>
<path d="M478.414 43.1857C477.576 43.1857 476.783 43.3686 476.064 43.6919C475.27 39.357 471.482 36.0703 466.919 36.0703C462.354 36.0703 458.567 39.3583 457.773 43.6919C457.055 43.3699 456.262 43.1857 455.423 43.1857C452.249 43.1857 449.676 46.0403 449.676 49.2144C449.676 52.3884 452.249 55.243 455.423 55.243C457.496 55.243 476.341 55.243 478.414 55.243C481.588 55.243 484.162 52.3884 484.162 49.2144C484.162 46.0403 481.589 43.1857 478.414 43.1857Z" fill="#A7D8EB"/>
<path d="M471.683 33.9149C470.229 33.2641 468.616 32.9023 466.92 32.9023C465.604 32.9023 464.338 33.1197 463.159 33.5212" fill="white"/>
<path d="M471.683 33.9149C470.229 33.2641 468.616 32.9023 466.92 32.9023C465.604 32.9023 464.338 33.1197 463.159 33.5212" stroke="black" stroke-miterlimit="10"/>
<path d="M474.453 31.1386C472.259 29.7974 469.68 29.0234 466.92 29.0234C464.447 29.0234 462.121 29.6437 460.087 30.737" fill="white"/>
<path d="M474.453 31.1386C472.259 29.7974 469.68 29.0234 466.92 29.0234C464.447 29.0234 462.121 29.6437 460.087 30.737" stroke="black" stroke-miterlimit="10"/>
<path d="M476.935 28.0748C474.137 25.9981 470.673 24.7695 466.92 24.7695C463.562 24.7695 460.435 25.7529 457.81 27.4479" fill="white"/>
<path d="M476.935 28.0748C474.137 25.9981 470.673 24.7695 466.92 24.7695C463.562 24.7695 460.435 25.7529 457.81 27.4479" stroke="black" stroke-miterlimit="10"/>
<path d="M59.842 40.7853L58.6095 41.3685C58.2543 41.5368 57.813 41.4135 57.5771 41.0994C56.4161 39.5475 55.2062 38.5417 53.8213 37.6895C53.4926 37.4867 53.3495 37.0732 53.474 36.7075L54.0731 34.9369C54.2202 34.5049 53.9935 34.0331 53.5642 33.878L49.966 32.574C49.5353 32.4176 49.0596 32.6362 48.8979 33.0643L48.2286 34.8322C48.0961 35.1834 47.7449 35.4114 47.3725 35.3703C45.7358 35.1914 43.8367 35.3716 42.2265 35.7175C41.8514 35.7983 41.3186 35.6738 41.1556 35.3279L40.3711 33.6726C40.1736 33.2551 39.8436 32.6415 39.4262 32.839L35.954 34.4837C35.5365 34.6825 35.3761 35.5267 35.5749 35.9441L36.3595 37.5994C36.5278 37.9559 36.4788 38.3468 36.1713 38.5947C34.9348 39.5913 33.8945 40.7761 33.0304 42.1119C32.8157 42.4446 32.4208 42.5864 32.0497 42.4485L30.3944 41.8297C29.9558 41.668 29.4734 41.8933 29.3183 42.3346L28.0659 45.8863C27.9149 46.313 28.1322 46.7822 28.5536 46.9452L30.3666 47.6476C30.7231 47.7854 30.9458 48.1485 30.8954 48.5276C30.678 50.1418 30.7046 51.7255 31.171 53.6087C31.2665 53.9903 31.0823 54.4104 30.7271 54.5788L29.1765 55.313C28.7591 55.5118 28.4463 56.014 28.6451 56.4315L30.2897 59.9037C30.4872 60.3212 31.0306 60.3066 31.4494 60.1091L32.9906 59.3789C33.3339 59.2159 33.7818 59.3723 34.0217 59.6665C34.9998 60.8645 36.2654 62.0453 37.6437 62.9412C37.9684 63.1533 38.1035 63.5853 37.9657 63.9484L37.4104 65.4288C37.2434 65.8687 37.474 66.3644 37.918 66.5208L41.4114 67.7467C41.8554 67.9017 42.3404 67.6632 42.4849 67.2152L42.962 65.7455C43.0866 65.3612 43.4696 65.1319 43.8711 65.1783C45.4986 65.3691 47.1088 65.3121 48.6832 64.9861C49.0688 64.9066 49.4002 65.116 49.5685 65.4712L50.3212 67.0589C50.5187 67.4763 51.0673 67.4511 51.4848 67.2523L54.9557 65.6077C55.3732 65.4102 55.3148 65.2048 55.1161 64.786L54.3646 63.1997C54.2003 62.8551 54.4415 62.3647 54.7397 62.1249C56.0384 61.0805 57.3611 59.7155 58.2768 58.2895C58.4822 57.9701 58.9262 57.8243 59.284 57.9489L60.8903 58.4923C61.3236 58.6434 61.8074 58.4128 61.9637 57.9807L63.24 54.4409C63.4016 53.993 63.1591 53.5 62.7046 53.3569L61.2931 52.9129C60.9168 52.7949 60.6676 52.4292 60.7113 52.0382C60.8903 50.4068 60.767 48.6468 60.4595 47.1347C60.384 46.7623 60.547 46.3183 60.8903 46.1553L62.1135 45.5762C62.5309 45.3774 62.4607 45.1693 62.2632 44.7505L60.6186 41.2783C60.4211 40.8662 60.2607 40.5879 59.842 40.7853ZM49.0158 57.5567C44.991 59.4637 40.1802 57.7475 38.2732 53.7213C36.3661 49.6951 38.0823 44.8857 42.1085 42.9787C46.1347 41.0716 50.9441 42.7878 52.8512 46.814C54.7582 50.8402 53.0407 55.6496 49.0158 57.5567Z" fill="#A7D8EB"/>
<path d="M51.4077 302.34H442.141" stroke="#110809" stroke-width="2" stroke-miterlimit="10"/>
<path d="M487.091 176.663C488.97 174.368 489.838 171.491 489.536 168.565C489.287 166.158 488.007 163.745 485.625 161.199L479.545 99.0078L463.781 100.639L469.848 162.695C467.992 164.876 467.15 167.744 467.472 170.841C467.759 173.627 469.07 176.067 470.994 177.827C473.252 179.893 476.356 181.024 479.64 180.683C482.57 180.381 485.217 178.953 487.091 176.663ZM476.326 173.193C475.586 172.731 475.024 171.793 474.868 170.95C474.706 170.081 474.921 169.332 475.3 168.583C475.214 168.753 475.128 168.924 475.042 169.093C475.047 169.078 475.051 169.063 475.056 169.047C475.54 167.53 477.086 166.658 478.613 166.701C480.047 166.742 481.667 168.078 481.796 169.548C481.798 169.567 481.799 169.584 481.802 169.602C481.856 170.227 481.81 170.785 481.643 171.327C481.649 171.327 481.657 171.328 481.665 171.328C481.649 171.376 481.619 171.427 481.599 171.478C481.51 171.727 481.4 171.973 481.248 172.22C481.212 172.278 481.16 172.322 481.121 172.376C480.132 173.996 477.778 174.096 476.326 173.193Z" fill="white" stroke="black" stroke-miterlimit="10"/>
<path d="M468.549 100.465L474.616 162.521" stroke="black" stroke-miterlimit="10"/>
<path d="M474.729 99.7578L480.797 161.814" stroke="black" stroke-miterlimit="10"/>
<path d="M484.716 92.3917C483.963 85.0948 478.096 79.4915 470.773 79.0714L468.369 78.9336L474.713 90.8518L465.207 95.9103L458.759 83.792L457.503 85.6806C455.593 88.5511 454.737 92.022 455.094 95.4558C455.473 99.1148 457.147 102.435 459.838 104.897C460.058 105.098 460.283 105.293 460.517 105.481C463.603 107.99 467.482 109.146 471.44 108.736C479.603 107.891 485.56 100.558 484.716 92.3917Z" fill="white" stroke="black" stroke-miterlimit="10"/>
<path d="M501.041 113.09L505.447 112.93L511.296 164.341L506.889 164.503L501.041 113.09Z" fill="black"/>
<path d="M491.552 77.3686C491.648 77.2334 491.748 77.0996 491.854 76.9683C493.292 75.1554 495.333 74.0183 497.598 73.7665C502.316 73.2417 506.627 76.7762 507.207 81.6426L513.191 131.623L496.772 133.808L489.968 83.7007C489.696 81.4265 490.257 79.1974 491.552 77.3686Z" fill="white" stroke="black" stroke-miterlimit="10"/>
<path d="M498.317 157.61L505.429 148.672L509.431 148.802L517.334 155.326L514.995 176.139L504.073 177.284L498.317 157.61Z" fill="white" stroke="black" stroke-miterlimit="10"/>
<path d="M500.695 120.435L494.777 74.5" stroke="black" stroke-miterlimit="10"/>
<path d="M506.408 119.783L500.489 73.8477" stroke="black" stroke-miterlimit="10"/>
<path d="M512.706 127.586L495.892 129.174" stroke="black" stroke-miterlimit="10"/>
<path d="M512.844 170.475L513.747 158.969" stroke="black" stroke-miterlimit="10"/>
<path d="M500.707 304.285C501.966 309.72 496.389 312.508 496.389 320.875L500.707 304.285Z" fill="black"/>
<path d="M440.035 324.687H52.6825C51.9775 324.687 51.4076 324.115 51.4076 323.412V303.615C51.4076 302.911 51.9788 302.34 52.6825 302.34H440.034C440.738 302.34 441.309 302.911 441.309 303.615V323.412C441.31 324.115 440.739 324.687 440.035 324.687Z" fill="#A7D8EB"/>
<path d="M439.324 329.879V300.723" stroke="#FFBF00" stroke-width="3" stroke-miterlimit="10"/>
<path d="M81.7828 367.572H74.7483C57.1871 367.572 42.951 353.336 42.951 335.775V308.092C42.951 303.988 46.2788 300.66 50.3832 300.66H81.7828C99.344 300.66 113.58 314.896 113.58 332.457V335.775C113.58 353.334 99.3453 367.572 81.7828 367.572Z" fill="black"/>
<path d="M78.2961 352.049H76.4632C66.7583 352.049 58.8901 344.181 58.8901 334.476V332.643C58.8901 322.938 66.7583 315.07 76.4632 315.07H78.2961C88.001 315.07 95.8692 322.938 95.8692 332.643V334.476C95.8692 344.181 88.001 352.049 78.2961 352.049Z" fill="#FFBF00"/>
<path d="M128.968 313.21V302.418" stroke="#110809" stroke-width="2" stroke-miterlimit="10"/>
<path d="M138.729 309.886V302.418" stroke="#110809" stroke-miterlimit="10"/>
<path d="M148.489 309.886V302.418" stroke="#110809" stroke-miterlimit="10"/>
<path d="M158.25 309.886V302.418" stroke="#110809" stroke-miterlimit="10"/>
<path d="M168.01 309.886V302.418" stroke="#110809" stroke-miterlimit="10"/>
<path d="M177.771 313.21V302.418" stroke="#110809" stroke-width="2" stroke-miterlimit="10"/>
<path d="M187.532 309.886V302.418" stroke="#110809" stroke-miterlimit="10"/>
<path d="M197.292 309.886V302.418" stroke="#110809" stroke-miterlimit="10"/>
<path d="M207.053 309.886V302.418" stroke="#110809" stroke-miterlimit="10"/>
<path d="M216.813 309.886V302.418" stroke="#110809" stroke-miterlimit="10"/>
<path d="M226.574 313.21V302.418" stroke="#110809" stroke-width="2" stroke-miterlimit="10"/>
<path d="M236.335 309.886V302.418" stroke="#110809" stroke-miterlimit="10"/>
<path d="M246.095 309.886V302.418" stroke="#110809" stroke-miterlimit="10"/>
<path d="M255.857 309.886V302.418" stroke="#110809" stroke-miterlimit="10"/>
<path d="M265.618 309.886V302.418" stroke="#110809" stroke-miterlimit="10"/>
<path d="M275.379 313.21V302.418" stroke="#110809" stroke-width="2" stroke-miterlimit="10"/>
<path d="M285.139 309.886V302.418" stroke="#110809" stroke-miterlimit="10"/>
<path d="M294.9 309.886V302.418" stroke="#110809" stroke-miterlimit="10"/>
<path d="M304.661 309.886V302.418" stroke="#110809" stroke-miterlimit="10"/>
<path d="M314.421 309.886V302.418" stroke="#110809" stroke-miterlimit="10"/>
<path d="M324.182 313.21V302.418" stroke="#110809" stroke-width="2" stroke-miterlimit="10"/>
<path d="M333.942 309.886V302.418" stroke="#110809" stroke-miterlimit="10"/>
<path d="M343.703 309.886V302.418" stroke="#110809" stroke-miterlimit="10"/>
<path d="M353.464 309.886V302.418" stroke="#110809" stroke-miterlimit="10"/>
<path d="M363.224 309.886V302.418" stroke="#110809" stroke-miterlimit="10"/>
<path d="M372.985 313.21V302.418" stroke="#110809" stroke-width="2" stroke-miterlimit="10"/>
<path d="M382.745 309.886V302.418" stroke="#110809" stroke-miterlimit="10"/>
<path d="M392.506 309.886V302.418" stroke="#110809" stroke-miterlimit="10"/>
<path d="M402.268 309.886V302.418" stroke="#110809" stroke-miterlimit="10"/>
<path d="M412.029 309.886V302.418" stroke="#110809" stroke-miterlimit="10"/>
<path d="M77.375 347.528C84.777 347.528 90.7775 341.527 90.7775 334.125C90.7775 326.723 84.777 320.723 77.375 320.723C69.973 320.723 63.9725 326.723 63.9725 334.125C63.9725 341.527 69.973 347.528 77.375 347.528Z" fill="black"/>
<path d="M2.0293 358.404C5.35705 358.097 8.73915 358.398 11.9609 359.285C13.4465 353.762 14.8076 348.203 16.044 342.617C16.8591 338.937 16.3489 335.558 12.1292 334.837C9.56876 334.4 7.26545 335.265 5.85668 337.399C2.44543 342.566 2.23604 352.511 2.0293 358.404Z" fill="#ED926E"/>
<path d="M28.1186 364.347C26.7867 367.596 22.8268 366.953 19.9695 366.953C15.7127 366.952 11.456 366.799 7.20978 366.494C4.31407 366.288 -0.118966 365.462 0.719931 361.662C1.08571 360.006 1.4528 358.348 1.81858 356.691C1.90605 356.292 2.0611 355.823 2.45736 355.725C2.59651 355.691 2.74229 355.712 2.8841 355.735C4.39226 355.974 6.08728 356.644 7.62459 356.282C9.07179 355.941 10.5919 355.306 12.0006 354.791C12.3439 354.665 12.7163 354.535 13.0675 354.64C13.9117 354.893 14.1622 355.871 14.8182 356.397C15.5749 357.004 16.5357 357.33 17.4462 357.627C20.0874 358.491 22.6545 359.147 25.4005 359.554C27.4069 359.851 28.8939 361.704 28.3174 363.772C28.2577 363.975 28.1915 364.167 28.1186 364.347Z" fill="#FFBF00"/>
<path d="M67.7031 293.764C71.0309 293.456 74.413 293.757 77.6347 294.645C79.1203 289.121 80.4814 283.563 81.7179 277.977C82.5329 274.297 82.0227 270.917 77.803 270.196C75.2426 269.759 72.9393 270.624 71.5305 272.758C68.1193 277.927 67.9099 287.871 67.7031 293.764Z" fill="#ED926E"/>
<path d="M93.4478 299.127C93.3682 300.124 92.805 301.09 91.7965 301.637C90.01 302.608 87.5954 302.317 85.6432 302.316C81.3865 302.314 77.1297 302.162 72.8835 301.857C69.9878 301.65 65.5535 300.825 66.3937 297.025C66.7594 295.368 67.1266 293.711 67.4923 292.054C67.5798 291.655 67.7349 291.186 68.1311 291.088C68.2703 291.053 68.416 291.075 68.5578 291.097C71.1421 291.509 73.3301 292.766 75.8521 291.503C76.7136 291.071 77.5233 290.436 78.4854 290.374C79.6066 290.301 80.264 291.879 81.1135 292.528C82.281 293.42 83.7017 293.97 85.0866 294.418C86.771 294.963 88.4886 295.402 90.2287 295.728C90.784 295.831 91.3525 295.929 91.8455 296.203C93.021 296.859 93.5366 298.014 93.4478 299.127Z" fill="#FFBF00"/>
<path d="M41.0241 242.418C42.9616 243.101 44.874 244.007 46.1449 244.285C55.0852 246.234 64.7093 245.185 72.9101 241.074C76.5771 239.236 80.0308 236.758 82.3142 233.349C84.2862 230.405 86.9143 225.624 85.1159 222.058C83.2976 218.452 77.0476 217.344 73.5939 216.237C68.982 214.758 64.2998 213.498 59.5686 212.459C48.8697 210.111 38.5008 213.415 27.8721 210.984C20.6109 209.323 13.6254 206.96 7.01762 203.488C7.12761 203.545 1.8411 217.776 1.51641 219.068C-0.149454 225.695 -0.600045 232.782 1.81725 239.289C2.44278 240.972 3.25384 242.609 3.5348 244.382C3.83696 246.285 3.51095 248.225 3.24589 250.135C1.88484 259.901 2.09688 269.886 3.87142 279.585C4.47707 282.895 4.82429 286.497 5.69632 289.73C6.43449 292.47 8.57481 294.923 7.84326 297.993C7.67495 298.7 7.35953 299.361 7.08388 300.034C6.14294 302.327 5.64993 304.801 5.63801 307.28C5.63006 308.871 5.8209 310.463 5.72945 312.053C5.65789 313.31 5.41271 314.549 5.16754 315.782C3.03252 326.554 0.342223 336.828 0.160661 347.883C0.15536 348.229 20.3578 351.597 21.7493 350.262C23.5848 348.501 23.9347 342.864 24.5324 340.458C25.362 337.11 26.1691 333.756 26.9537 330.398C28.5599 323.519 30.0694 316.62 31.4821 309.7C33.7112 298.781 36.7859 287.416 36.0199 276.189C35.5454 269.223 35.1929 262.255 35.018 255.275C34.9411 252.188 32.5874 244.916 34.9252 242.482C36.2558 241.089 38.6598 241.586 41.0241 242.418Z" fill="black"/>
<path d="M90.2062 252.402C90.1267 251.889 90.0658 251.376 90.03 250.86C89.924 249.328 90.1559 247.795 90.3096 246.267C90.9378 240.013 90.25 233.629 88.3032 227.652C87.0839 223.906 85.2444 220.791 81.7205 218.863C78.2629 216.972 73.753 217.457 70.4703 219.49C67.0723 221.596 63.6716 225.945 62.9534 229.969C62.1357 234.553 62.5863 239.347 62.6631 243.982C62.6883 245.468 62.6724 246.954 62.6167 248.438C62.4564 252.73 64.4681 256.011 64.9558 260.112C65.535 264.975 65.4343 270.37 65.2686 275.268C65.2434 276.025 65.099 277.426 64.928 279.15C64.8631 279.796 65.3813 280.362 66.032 280.34C70.3523 280.189 84.7925 280.291 89.0917 280.525C89.6655 280.557 90.1598 280.128 90.2155 279.555L91.4414 267.202C91.7316 264.28 92.1266 261.142 91.4957 258.236C91.0836 256.323 90.511 254.371 90.2062 252.402Z" fill="black"/>
<path d="M13.2345 173.464C13.8309 171.328 14.5717 169.234 15.3722 167.165C17.2422 162.338 19.4951 157.561 22.962 153.717C29.8654 146.064 42.1321 144.042 48.504 153.576C51.8808 158.627 50.5621 165.939 49.759 171.567C48.1448 182.885 46.532 194.204 44.9178 205.522C44.2644 210.105 43.0306 213.989 38.1629 214.818C34.2414 215.484 30.3146 216.154 26.3666 216.645C21.9045 217.202 11.5899 219.909 8.75114 215.239C5.40085 209.727 7.20985 204.412 8.31645 198.506C9.41245 192.66 10.1811 186.63 11.623 180.862C12.0537 178.566 12.4844 176.268 13.0848 174.013C13.1338 173.828 13.1842 173.645 13.2345 173.464Z" fill="black"/>
<path d="M41.4137 214.234C42.1585 214.665 42.91 215.081 43.6548 215.486C48.6656 218.216 53.8289 220.657 59.0743 222.901C63.2237 224.676 67.1624 227.312 71.675 228.091C75.6813 228.783 80.7478 228.352 83.6779 225.166C84.4585 224.318 85.0682 223.179 84.8508 222.048C84.6348 220.916 83.2751 220.015 82.2785 220.595C82.0028 220.756 81.7894 221.002 81.5482 221.211C80.5304 222.093 79.0806 222.268 77.7368 222.193C76.3929 222.119 75.0518 221.838 73.7119 221.966C73.2269 222.012 72.7312 222.11 72.2568 221.999C71.7585 221.881 71.345 221.547 70.95 221.222C67.8648 218.684 64.3687 216.247 61.868 213.102C60.7998 211.758 60.0272 210.206 59.0703 208.78C57.5303 206.482 55.504 204.512 53.1649 203.035C48.5821 200.144 46.9547 196.075 44.7163 191.293C44.0258 189.818 43.3301 188.331 42.9378 186.75C42.4329 184.719 42.4448 182.596 42.1241 180.526C41.6669 177.568 40.5377 174.754 39.2509 172.051C38.0846 169.599 36.7461 167.164 34.7542 165.318C32.7637 163.472 30.0071 162.277 27.3301 162.729C24.0076 163.289 21.5028 166.274 20.5394 169.503C19.5759 172.733 19.8714 176.189 20.2624 179.537C20.6388 182.757 21.1198 186.045 22.6373 188.912C24.0924 191.662 26.2155 194.01 27.7568 196.718C29.2239 199.294 30.0111 202.082 31.2913 204.76C33.3216 209.002 37.2868 211.848 41.4137 214.234Z" fill="#ED926E"/>
<path d="M72.5603 102.134C72.9525 101.417 73.3037 100.688 73.6006 99.9616C74.2937 98.2599 74.7271 96.329 77.2226 96.8644C79.009 97.2474 79.8559 99.3572 79.8691 101.185C79.8864 103.448 79.0726 105.422 78.3172 107.49C77.5539 109.582 77.4916 112.093 77.0516 114.301C76.5215 116.959 75.839 119.683 74.1851 121.831C72.9592 123.424 71.2456 124.633 70.2265 126.366C69.5983 127.436 69.2683 128.651 68.9449 129.849C67.8343 133.967 67.3824 138.454 65.8451 142.552C64.2323 146.848 62.0919 151.016 59.3738 154.72C57.5012 157.272 55.394 160.007 52.4175 161.283C51.1571 161.824 49.7881 162.069 48.4204 162.192C46.6287 162.354 44.6487 162.251 43.3009 161.061C40.9539 158.99 40.8266 154.819 41.4336 152.024C42.2844 148.114 43.9887 144.394 46.3941 141.197C48.052 138.993 49.8173 136.854 51.5468 134.73C53.6155 132.188 55.2628 129.355 57.4548 126.882C58.3865 125.83 59.3712 124.789 59.9689 123.518C60.4831 122.425 60.6845 121.216 60.9747 120.043C61.8547 116.473 63.5988 113.12 66.0147 110.349C67.1439 109.053 68.4161 107.885 69.5201 106.567C70.6293 105.241 71.6949 103.716 72.5603 102.134Z" fill="#ED926E"/>
<path d="M52.1005 147.282C51.976 147.144 51.8501 147.006 51.7255 146.867C49.7959 144.736 47.8583 142.031 45.718 140.246C43.7195 143.57 41.9185 147.033 40.0286 150.422C39.366 151.61 38.6994 152.808 38.2859 154.104C36.5657 159.492 39.1487 166.392 42.0749 170.946C43.0662 172.511 45.233 175.35 47.429 174.523C49.5428 173.728 50.868 169.266 51.8395 167.414C53.0216 165.161 54.209 162.9 55.6721 160.818C56.5548 159.562 57.6879 158.511 58.5891 157.286C59.3922 156.196 59.5645 155.882 58.7547 154.629C57.0425 151.98 54.2223 149.625 52.1005 147.282Z" fill="black"/>
<path d="M31.0301 142.78C31.6742 140.71 32.1764 138.583 32.3938 136.261C32.6336 133.686 32.631 131.033 33.5733 128.625C35.0297 124.901 40.2341 122.485 44.0482 123.402C49.4129 124.693 47.7987 133.705 47.3018 137.719C47.0592 139.678 45.5802 141.069 44.5359 142.691C42.7985 145.393 42.5586 149.853 42.2962 153.02C42.2657 153.384 42.2326 153.772 42.0073 154.058C41.7462 154.392 41.2983 154.503 40.8848 154.595C38.7206 155.071 36.5326 155.549 34.3181 155.512C31.3998 155.463 26.8157 154.448 28.1768 150.676C29.1628 147.949 30.2111 145.411 31.0301 142.78Z" fill="#ED926E"/>
<path d="M45.7645 117.084C45.7088 117.081 45.6518 117.078 45.5948 117.078C43.6546 117.055 41.8549 118.277 40.7589 119.876C40.5787 120.14 40.4024 120.423 40.1228 120.578C39.8617 120.723 39.549 120.731 39.2508 120.751C36.9753 120.902 34.7727 121.962 33.2354 123.647C31.7312 125.294 31.0526 127.325 30.8989 129.516C30.8088 130.794 30.8247 131.8 31.1414 133.011C31.3694 133.883 31.2965 134.443 31.4131 135.228C31.7431 137.436 33.6449 137.282 34.7886 135.423C35.4327 134.377 35.8263 133.202 36.2742 132.059C36.8427 130.608 37.5531 129.133 38.7975 128.195C39.9903 127.295 41.5223 127.002 42.9986 126.765C44.475 126.528 46.0043 126.304 47.2673 125.505C50.5659 123.417 50.232 117.34 45.7645 117.084Z" fill="black"/>
<path d="M38.0158 131.479C37.4313 130.32 36.0583 129.888 34.9014 130.489C33.588 131.17 32.8552 133.037 33.1348 134.458C33.3813 135.714 34.6655 136.619 35.8145 135.902C36.3393 135.762 36.8403 135.462 37.2047 135.078C38.0966 134.137 38.6373 132.708 38.0158 131.479Z" fill="#ED926E"/>
<path d="M45.1933 135.883C44.6672 136.015 44.3027 136.378 43.7249 136.126C43.1869 135.892 42.7111 136.635 43.2518 136.935C43.9714 137.335 45.2954 137.433 45.685 136.523C45.8294 136.185 45.5922 135.783 45.1933 135.883Z" fill="black"/>
<path d="M35.8901 132.95C35.7509 132.304 34.8378 132.596 34.9239 133.216C34.9955 133.732 34.9862 134.174 35.3401 134.572C35.5574 134.817 35.9033 134.653 36.0053 134.397C36.1896 133.924 35.9934 133.431 35.8901 132.95Z" fill="black"/>
<path d="M37.5982 206.512C37.1595 206.32 36.6626 206.378 36.253 206.111C35.7932 205.812 35.6037 205.375 35.5825 204.845C35.5559 204.212 34.6919 204.1 34.4904 204.698C34.2095 205.535 34.5567 206.466 35.1637 207.073C35.7296 207.639 36.8574 208.22 37.5982 207.653C37.9401 207.391 38.1071 206.735 37.5982 206.512Z" fill="black"/>
<path d="M34.1366 240.376C32.594 238.747 30.5213 237.741 28.3147 237.334C26.6409 237.027 24.9551 237.271 23.2773 237.447C23.1236 237.785 22.9619 238.119 22.8042 238.455C24.0606 238.319 25.3143 238.116 26.5826 238.172C29.3935 238.292 31.4132 239.5 33.6542 240.999C34.0399 241.258 34.4388 240.695 34.1366 240.376Z" fill="white"/>
<path d="M17.1401 170.174C16.826 175.907 18.1473 181.588 19.4593 187.178C21.9826 184.761 25.4522 183.657 28.7905 182.629C32.3091 181.545 35.8291 180.461 39.3477 179.375C40.3496 179.066 41.4999 178.612 41.7716 177.599C41.8657 177.251 41.8352 176.881 41.7968 176.522C40.9817 168.837 36.4771 161.699 30.0853 157.409C26.2447 154.831 24.0964 154.179 21.1649 158.123C18.6032 161.573 17.372 165.922 17.1401 170.174Z" fill="black"/>
<path d="M34.3209 161.272C34.1102 161.114 33.8862 161.444 34.0505 161.623C36.0199 163.77 37.7414 165.981 38.9912 168.629C40.3761 171.563 41.0546 174.706 42.2354 177.707C42.3335 177.954 42.6807 177.862 42.6343 177.597C41.647 171.852 39.1621 164.881 34.3209 161.272Z" fill="white"/>
<path d="M45.3074 140.194C45.0529 140.228 44.6752 140.325 44.4393 140.287C44.2379 140.253 44.0722 140.538 44.2882 140.644C44.7547 140.875 45.1271 140.94 45.5353 140.585C45.7328 140.412 45.5115 140.165 45.3074 140.194Z" fill="black"/>
<path d="M79.7948 221.546H75.6666C74.4712 221.546 73.5038 220.577 73.5038 219.382V78.9402C73.5038 77.7448 74.4726 76.7773 75.6666 76.7773H79.7948C80.9902 76.7773 81.9577 77.7461 81.9577 78.9402V219.383C81.959 220.577 80.9902 221.546 79.7948 221.546Z" fill="white" stroke="black" stroke-miterlimit="10"/>
<path d="M79.9566 203.211H73.1659" stroke="#110809" stroke-width="2" stroke-miterlimit="10"/>
<path d="M77.8653 197.066H73.1659" stroke="#110809" stroke-miterlimit="10"/>
<path d="M77.8653 190.934H73.1659" stroke="#110809" stroke-miterlimit="10"/>
<path d="M77.8653 184.785H73.1659" stroke="#110809" stroke-miterlimit="10"/>
<path d="M77.8652 178.645H73.1658" stroke="#110809" stroke-miterlimit="10"/>
<path d="M79.9566 172.531H73.1659" stroke="#110809" stroke-width="2" stroke-miterlimit="10"/>
<path d="M77.8653 166.387H73.1659" stroke="#110809" stroke-miterlimit="10"/>
<path d="M77.8653 160.25H73.1659" stroke="#110809" stroke-miterlimit="10"/>
<path d="M77.8653 154.109H73.1659" stroke="#110809" stroke-miterlimit="10"/>
<path d="M77.8653 147.965H73.1659" stroke="#110809" stroke-miterlimit="10"/>
<path d="M79.9566 141.852H73.1659" stroke="#110809" stroke-width="2" stroke-miterlimit="10"/>
<path d="M77.8653 135.707H73.1659" stroke="#110809" stroke-miterlimit="10"/>
<path d="M77.8653 129.57H73.1659" stroke="#110809" stroke-miterlimit="10"/>
<path d="M77.8653 123.426H73.1659" stroke="#110809" stroke-miterlimit="10"/>
<path d="M77.8653 117.285H73.1659" stroke="#110809" stroke-miterlimit="10"/>
<path d="M79.9566 111.184H73.1659" stroke="#110809" stroke-width="2" stroke-miterlimit="10"/>
<path d="M77.8653 105.039H73.1659" stroke="#110809" stroke-miterlimit="10"/>
<path d="M77.8653 98.9023H73.1659" stroke="#110809" stroke-miterlimit="10"/>
<path d="M77.8653 92.7578H73.1659" stroke="#110809" stroke-miterlimit="10"/>
<path d="M77.8653 86.6172H73.1659" stroke="#110809" stroke-miterlimit="10"/>
<path d="M79.9023 94.6949C80.1342 95.9738 80.4457 97.2381 80.834 98.4786C80.9175 98.7463 81.0102 99.0206 81.1945 99.2327C81.5046 99.5892 82.0334 99.6978 82.4946 99.5931C82.9557 99.4884 83.3546 99.2022 83.6952 98.8735C85.0232 97.5933 85.5665 95.6677 85.5572 93.8229C85.5493 92.2034 84.7793 88.771 82.4442 89.6549C80.5066 90.3891 79.5683 92.8515 79.9023 94.6949Z" fill="#ED926E"/>
<path d="M69.6816 122.506C69.3238 122.681 68.9805 122.885 68.5975 122.997C67.8925 123.204 68.1894 124.298 68.901 124.1C69.5014 123.933 69.9785 123.671 70.3071 123.131C70.5616 122.718 70.0726 122.315 69.6816 122.506Z" fill="black"/>
<path d="M549.829 375.123C549.907 375.173 549.986 375.225 550.064 375.277C550.392 375.499 550.714 375.743 550.946 376.065C551.221 376.445 551.353 376.908 551.467 377.363C552.103 379.89 552.351 382.636 551.687 385.184C550.938 388.063 549.632 390.158 551.173 393.186C553.221 397.21 556.571 394.538 558.202 391.832C559.933 388.96 560.112 385.709 561.534 382.585C563.16 379.014 564.492 375.308 565.511 371.519C565.717 370.756 565.903 369.913 565.561 369.199C565.295 368.644 564.758 368.276 564.238 367.948C560.337 365.488 555.973 364.055 551.657 362.527C550.011 361.944 548.847 361.17 547.282 362.14C545.38 363.319 542.918 367.852 543.68 370.074C544.136 371.401 545.237 372.411 546.419 373.168C547.522 373.876 548.728 374.414 549.829 375.123Z" fill="#FFBF00"/>
<path d="M547.972 358.325C541.015 354.406 530.162 350.105 528.467 349.479C525.712 348.458 522.401 348.282 519.447 347.489C520.011 345.597 521.385 343.959 522.425 342.231C524.332 339.067 524.277 336.162 524.825 332.694C525.276 329.847 527.102 327.699 528.715 325.315C532.308 320.002 534.073 313.687 534.194 307.281C534.317 300.715 532.713 294.054 529.578 288.277C524.247 278.456 510.981 265.499 498.831 273.157C488.335 279.775 498.165 295.182 497.917 304.288C497.774 309.551 494.8 314.303 493.741 319.461C492.633 324.862 493.786 330.12 493.239 335.464C492.97 338.086 492.18 340.597 491.365 343.1C489.385 347.169 488.595 352.96 488.484 356.056C488.437 357.321 488.497 358.607 488.868 359.818C489.573 362.119 491.333 363.941 493.208 365.449C497.871 369.203 505.93 370.933 511.596 373.158C521.853 377.183 532.713 380.066 543.192 383.472C547.804 377.507 551.41 370.766 553.813 363.619C554.237 362.359 551.649 360.395 547.972 358.325Z" fill="black"/>
<path d="M455.73 238.48C452.761 239.15 449.743 241.48 447.571 243.103C444.111 245.689 441.226 248.902 438.048 251.799C437.886 251.968 437.718 252.129 437.556 252.298C437.361 252.501 437.164 252.71 436.976 252.926C437.162 253.373 437.351 253.818 437.538 254.264C441.692 260.815 446.231 267.108 450.692 273.453C456.56 266.848 460.336 258.383 461.191 249.582C461.308 248.384 461.219 246.685 460.909 244.912C460.73 244.492 460.536 244.08 460.306 243.685C459.138 241.684 457.304 240.19 455.73 238.48Z" fill="black"/>
<path d="M490.446 297.697C493.61 295.771 496.712 293.731 499.858 291.848C507.265 287.413 514.212 282.267 521.525 277.682C514.169 266.566 505.55 256.217 498.377 244.912C496.635 242.192 494.915 239.444 492.846 236.962C490.042 233.6 486.53 230.713 482.397 229.273C478.266 227.834 472.938 228.802 468.688 229.482C463.877 230.252 459.138 232.186 455.694 235.72C454.492 236.954 453.47 238.35 452.457 239.743C447.437 246.641 445.949 252.677 450.3 260.366C452.64 264.503 455.576 268.268 458.499 272.016C460.284 274.304 477.701 294.3 481.253 302.424C484.317 300.851 487.384 299.278 490.446 297.697Z" fill="black"/>
<path d="M521.45 277.73C519.808 278.846 518.02 279.726 516.236 280.598C506.56 285.327 496.817 289.919 487.011 294.372" fill="black"/>
<path d="M486.641 246.449C494.109 246.489 500.836 254.449 500.502 261.644C500.339 265.157 499.222 268.548 498.648 272.018C497.628 278.202 497.664 284.132 495.208 290.012C493.009 295.276 489.096 299.841 484.139 302.687C481.331 304.3 478.222 305.39 475.571 307.25C473.993 308.358 472.599 309.724 470.945 310.717C467.202 312.962 462.181 313.896 458.051 315.306C456.034 315.996 453.992 316.695 452.21 317.863C450.371 319.066 448.858 320.733 446.944 321.811C444.295 323.302 440.978 323.941 437.96 323.853C436.57 323.813 435.122 323.654 433.938 322.884C432.895 322.206 431.284 321.38 431.017 320.01C430.765 318.708 431.914 317.236 432.991 316.654C434.858 315.646 437.079 316.277 439.032 315.609C441.215 314.863 441.504 313.107 441.263 311.07C441.516 310.9 441.819 310.879 442.115 310.99C444.821 312.021 447.671 309.734 449.694 308.236C451.528 306.879 453.162 305.27 454.747 303.635C457.898 300.384 460.739 296.824 464.206 293.891C466.249 292.163 469.023 291.326 470.249 288.948C471.89 285.768 471.141 281.784 472.91 278.59C473.647 277.261 474.751 276.122 475.226 274.678C475.72 273.172 475.464 271.541 475.298 269.965C474.894 266.107 475.073 262.19 475.825 258.385C476.511 254.914 477.756 251.403 480.293 248.94C482.088 247.195 484.345 246.437 486.641 246.449Z" fill="#ED926E"/>
<path d="M474.245 266.678C475.651 267.11 477.403 266.759 479.131 266.691C486.759 266.393 494.345 264.993 501.573 262.536C502.476 262.229 498.952 248.745 498.514 247.437C496.737 242.136 493.811 239.184 490.432 235.032C487.16 231.009 481.897 227.988 476.882 229.305C472.146 230.549 469.042 235.363 468.298 240.203C467.555 245.043 468.7 249.951 469.838 254.713C470.562 257.743 470.775 262.453 472.334 265.128C472.831 265.983 473.487 266.444 474.245 266.678Z" fill="black"/>
<path d="M441.092 232.529C441.356 232.948 441.37 232.833 441.492 232.512C441.187 229.849 438.535 226.386 440.036 225.097C440.147 225.002 439.748 223.389 439.457 223.606C438.966 223.972 438.037 224.847 437.992 225.381C437.845 227.134 440.014 230.821 441.092 232.529Z" fill="black"/>
<path d="M462.135 236.633C460.963 234.243 459.206 231.986 457.89 229.876C455.916 226.714 454.644 220.462 450.325 219.608C448.684 219.283 446.352 220.416 444.8 221.061C443.314 221.848 439.852 221.98 439.097 223.473C438.551 224.551 439.238 227.68 440.403 230.47C440.367 230.483 440.33 230.489 440.295 230.504C439.56 230.852 439.332 231.912 439.785 232.873C440.238 233.834 441.202 234.333 441.937 233.986C442.034 233.941 442.12 233.883 442.218 233.844C442.56 234.316 443.658 235.841 444.058 236.264C445.973 238.294 448.121 239.306 450.358 238.893C450.55 238.858 452.379 242.578 452.597 242.953C453.25 244.081 453.78 245.18 455.14 245.512C456.486 245.84 457.896 246.019 459.26 245.768C460.624 245.516 461.942 244.788 462.679 243.614C463.358 242.533 463.488 241.174 463.265 239.918C463.066 238.798 462.659 237.702 462.135 236.633Z" fill="#ED926E"/>
<path d="M433.693 219.332C433.717 219.289 433.742 219.245 433.767 219.203C434.581 217.811 435.888 216.733 437.372 216.1C438.078 215.8 438.863 215.594 439.61 215.768C440.358 215.941 441.036 216.587 441.034 217.353C444.972 213.801 450.152 214.648 453.029 219.072C453.629 219.995 457.904 226.53 455.355 227.116C455.103 227.173 454.846 227.064 454.619 226.941C453.426 226.286 452.566 225.177 451.682 224.144C450.569 222.841 448.943 221.148 447.053 221.736C444.536 222.517 442.856 224.413 440.543 225.538C438.684 226.442 436.231 225.825 434.626 224.659C432.725 223.279 432.582 221.322 433.693 219.332Z" fill="black"/>
<path d="M454.821 224.239C454.274 223.875 453.58 223.905 453.05 224.235C452.418 224.337 452.031 225.305 452.08 225.898C452.15 226.757 452.66 227.735 453.512 228.041C455.777 228.853 456.461 225.331 454.821 224.239Z" fill="#ED926E"/>
<path d="M448.87 233.903C448.374 234.099 447.917 234.373 447.6 234.807C447.427 235.043 447.713 235.361 447.969 235.287C448.364 235.171 448.745 234.988 449.128 234.837C449.702 234.612 449.452 233.674 448.87 233.903Z" fill="black"/>
<path d="M451.832 237.476C451.32 237.733 450.939 238.226 450.448 238.536C450.116 238.747 450.324 239.353 450.729 239.203C451.405 238.955 452.114 238.608 452.399 237.912C452.538 237.573 452.098 237.342 451.832 237.476Z" fill="black"/>
<path d="M454.757 226.501C454.643 226.343 454.538 226.209 454.408 226.065C454.033 225.649 453.29 226.203 453.621 226.672C453.734 226.831 453.837 226.965 453.967 227.11C454.082 227.242 454.293 227.287 454.457 227.24C454.607 227.196 454.684 227.145 454.758 227.008C454.837 226.861 454.861 226.645 454.757 226.501Z" fill="black"/>
<path d="M441.586 232.296C441.675 231.65 440.764 231.518 440.698 232.175C440.65 232.648 440.766 233.055 441.235 233.207C441.45 233.278 441.625 233.093 441.642 232.897C441.659 232.714 441.565 232.453 441.586 232.296Z" fill="black"/>
<path d="M488.113 294.106C487.62 294.779 486.787 295.251 486.408 295.988C486.159 296.473 486.567 296.903 487.06 296.836C488.049 296.701 488.81 295.58 489.316 294.811C489.818 294.049 488.632 293.395 488.113 294.106Z" fill="black"/>
<path d="M427.748 287.505C427.281 287.922 426.885 288.286 426.225 288.305C425.601 288.322 425.601 289.255 426.225 289.275C427.191 289.305 428.144 288.876 428.503 287.947C428.678 287.492 428.054 287.234 427.748 287.505Z" fill="black"/>
<path d="M497.505 301.52C497.375 301.305 496.976 301.316 496.927 301.596C496.671 303.043 497.03 303.843 497.314 305.289C497.835 307.952 497.203 310.206 496.194 312.64C495.011 315.495 493.438 318.307 493.63 321.484C493.656 321.928 494.335 322.072 494.442 321.594C495.934 314.957 501.618 308.348 497.505 301.52Z" fill="white"/>
<path d="M475.667 248.944C475.721 248.69 475.338 248.487 475.219 248.756C472.832 254.13 473.79 261.234 475.313 266.741C475.365 266.931 475.684 266.902 475.667 266.694C475.135 260.355 474.316 255.285 475.667 248.944Z" fill="white"/>
<path d="M455.546 267.407C453.965 265.252 452.807 263.029 451.907 260.51C451.785 260.169 451.278 260.302 451.361 260.661C451.971 263.28 453.308 265.753 455.118 267.738C455.322 267.961 455.731 267.658 455.546 267.407Z" fill="white"/>
<path d="M498.753 252.613C498.619 252.339 498.151 252.531 498.255 252.822C499.352 255.916 500.316 258.981 500.777 262.241C500.81 262.476 501.215 262.423 501.194 262.184C500.903 258.874 500.213 255.619 498.753 252.613Z" fill="white"/>
<path d="M388.803 303.612C388.416 304.705 388.028 305.797 387.641 306.891C387.507 307.27 387.342 307.684 386.981 307.862C386.439 308.128 385.772 307.662 385.586 307.088C385.399 306.514 385.538 305.893 385.645 305.298C385.872 304.039 385.942 302.75 386.269 301.514C386.597 300.277 387.225 299.057 388.297 298.358C389.801 297.379 391.551 297.705 391.189 299.359C390.933 300.524 389.278 302.275 388.803 303.612Z" fill="#ED926E"/>
<path d="M0.509277 367.625H378.388" stroke="#110809" stroke-width="2" stroke-miterlimit="10"/>
<path d="M156.241 373.645H290.093" stroke="#110809" stroke-miterlimit="10"/>
<path d="M370.26 395.66H567.075" stroke="#110809" stroke-width="2" stroke-miterlimit="10"/>
<path d="M288.093 395.66H352.381" stroke="#110809" stroke-width="2" stroke-miterlimit="10"/>
</svg>
